<?xml version="1.0" encoding="UTF-8" standalone="no"?>
<!-- Created with Inkscape (http://www.inkscape.org/) -->

<svg
   xmlns:dc="http://purl.org/dc/elements/1.1/"
   xmlns:cc="http://creativecommons.org/ns#"
   xmlns:rdf="http://www.w3.org/1999/02/22-rdf-syntax-ns#"
   xmlns:svg="http://www.w3.org/2000/svg"
   xmlns="http://www.w3.org/2000/svg"
   xmlns:sodipodi="http://sodipodi.sourceforge.net/DTD/sodipodi-0.dtd"
   xmlns:inkscape="http://www.inkscape.org/namespaces/inkscape"
   width="99.891998"
   height="99.891998"
   id="svg2"
   version="1.1"
   inkscape:version="0.92.2 (5c3e80d, 2017-08-06)"
   sodipodi:docname="edit.svg">
  <defs
     id="defs4" />
  <sodipodi:namedview
     id="base"
     pagecolor="#ffffff"
     bordercolor="#666666"
     borderopacity="1.0"
     inkscape:pageopacity="0.0"
     inkscape:pageshadow="2"
     inkscape:zoom="4"
     inkscape:cx="20.173745"
     inkscape:cy="88.415394"
     inkscape:document-units="px"
     inkscape:current-layer="layer1"
     showgrid="false"
     fit-margin-top="0"
     fit-margin-left="0"
     fit-margin-right="0"
     fit-margin-bottom="0"
     inkscape:window-width="1366"
     inkscape:window-height="672"
     inkscape:window-x="0"
     inkscape:window-y="34"
     inkscape:window-maximized="1" />
  <metadata
     id="metadata7">
    <rdf:RDF>
      <cc:Work
         rdf:about="">
        <dc:format>image/svg+xml</dc:format>
        <dc:type
           rdf:resource="http://purl.org/dc/dcmitype/StillImage" />
        <dc:title />
      </cc:Work>
    </rdf:RDF>
  </metadata>
  <g
     inkscape:label="Layer 1"
     inkscape:groupmode="layer"
     id="layer1"
     transform="translate(-438.62543,-476.7019)">
    <path
       inkscape:connector-curvature="0"
       id="path2"
       d="m 488.57143,476.7019 c -27.54,0 -49.946,22.406 -49.946,49.946 0,27.54 22.406,49.946 49.946,49.946 27.54,0 49.946,-22.406 49.946,-49.946 0,-27.54 -22.405,-49.946 -49.946,-49.946 z m 0,97.893 c -26.437,0 -47.946,-21.509 -47.946,-47.947 0,-26.438 21.509,-47.946 47.946,-47.946 26.437,0 47.946,21.509 47.946,47.946 0,26.437 -21.508,47.947 -47.946,47.947 z"
       style="fill:#ff0000;fill-opacity:1" />
    <g
       id="background"
       transform="translate(-269.26992,-125.8521)"
       style="fill:#ff0000;fill-opacity:1" />
    <g
       id="design"
       transform="translate(-269.26992,-125.8521)"
       style="fill:#ff0000;fill-opacity:1" />
    <g
       style="fill:#ff0000;fill-opacity:1"
       id="g961"
       transform="matrix(1.3539399,0,0,1.3539399,447.65009,497.17295)" />
    <g
       style="fill:#ff0000;fill-opacity:1"
       id="g963"
       transform="matrix(1.3539399,0,0,1.3539399,447.65009,497.17295)" />
    <g
       style="fill:#ff0000;fill-opacity:1"
       id="g965"
       transform="matrix(1.3539399,0,0,1.3539399,447.65009,497.17295)" />
    <g
       style="fill:#ff0000;fill-opacity:1"
       id="g967"
       transform="matrix(1.3539399,0,0,1.3539399,447.65009,497.17295)" />
    <g
       style="fill:#ff0000;fill-opacity:1"
       id="g969"
       transform="matrix(1.3539399,0,0,1.3539399,447.65009,497.17295)" />
    <g
       style="fill:#ff0000;fill-opacity:1"
       id="g971"
       transform="matrix(1.3539399,0,0,1.3539399,447.65009,497.17295)" />
    <g
       style="fill:#ff0000;fill-opacity:1"
       id="g973"
       transform="matrix(1.3539399,0,0,1.3539399,447.65009,497.17295)" />
    <g
       style="fill:#ff0000;fill-opacity:1"
       id="g975"
       transform="matrix(1.3539399,0,0,1.3539399,447.65009,497.17295)" />
    <g
       style="fill:#ff0000;fill-opacity:1"
       id="g977"
       transform="matrix(1.3539399,0,0,1.3539399,447.65009,497.17295)" />
    <g
       style="fill:#ff0000;fill-opacity:1"
       id="g979"
       transform="matrix(1.3539399,0,0,1.3539399,447.65009,497.17295)" />
    <g
       style="fill:#ff0000;fill-opacity:1"
       id="g981"
       transform="matrix(1.3539399,0,0,1.3539399,447.65009,497.17295)" />
    <g
       style="fill:#ff0000;fill-opacity:1"
       id="g983"
       transform="matrix(1.3539399,0,0,1.3539399,447.65009,497.17295)" />
    <g
       style="fill:#ff0000;fill-opacity:1"
       id="g985"
       transform="matrix(1.3539399,0,0,1.3539399,447.65009,497.17295)" />
    <g
       style="fill:#ff0000;fill-opacity:1"
       id="g987"
       transform="matrix(1.3539399,0,0,1.3539399,447.65009,497.17295)" />
    <g
       style="fill:#ff0000;fill-opacity:1"
       id="g989"
       transform="matrix(1.3539399,0,0,1.3539399,447.65009,497.17295)" />
    <g
       style="fill:#ff0000;fill-opacity:1"
       transform="translate(590.88408,410.65451)"
       id="g1392" />
    <g
       style="fill:#ff0000;fill-opacity:1"
       transform="translate(590.88408,410.65451)"
       id="g1394" />
    <g
       style="fill:#ff0000;fill-opacity:1"
       transform="translate(590.88408,410.65451)"
       id="g1396" />
    <g
       style="fill:#ff0000;fill-opacity:1"
       transform="translate(590.88408,410.65451)"
       id="g1398" />
    <g
       style="fill:#ff0000;fill-opacity:1"
       transform="translate(590.88408,410.65451)"
       id="g1400" />
    <g
       style="fill:#ff0000;fill-opacity:1"
       transform="translate(590.88408,410.65451)"
       id="g1402" />
    <g
       style="fill:#ff0000;fill-opacity:1"
       transform="translate(590.88408,410.65451)"
       id="g1404" />
    <g
       style="fill:#ff0000;fill-opacity:1"
       transform="translate(590.88408,410.65451)"
       id="g1406" />
    <g
       style="fill:#ff0000;fill-opacity:1"
       transform="translate(590.88408,410.65451)"
       id="g1408" />
    <g
       style="fill:#ff0000;fill-opacity:1"
       transform="translate(590.88408,410.65451)"
       id="g1410" />
    <g
       style="fill:#ff0000;fill-opacity:1"
       transform="translate(590.88408,410.65451)"
       id="g1412" />
    <g
       style="fill:#ff0000;fill-opacity:1"
       transform="translate(590.88408,410.65451)"
       id="g1414" />
    <g
       style="fill:#ff0000;fill-opacity:1"
       transform="translate(590.88408,410.65451)"
       id="g1416" />
    <g
       style="fill:#ff0000;fill-opacity:1"
       transform="translate(590.88408,410.65451)"
       id="g1418" />
    <g
       style="fill:#ff0000;fill-opacity:1"
       transform="translate(590.88408,410.65451)"
       id="g1420" />
    <g
       style="fill:#ff0000;fill-opacity:1"
       transform="translate(645.2891,549.55677)"
       id="g1485" />
    <g
       style="fill:#ff0000;fill-opacity:1"
       transform="translate(645.2891,549.55677)"
       id="g1487" />
    <g
       style="fill:#ff0000;fill-opacity:1"
       transform="translate(645.2891,549.55677)"
       id="g1489" />
    <g
       style="fill:#ff0000;fill-opacity:1"
       transform="translate(645.2891,549.55677)"
       id="g1491" />
    <g
       style="fill:#ff0000;fill-opacity:1"
       transform="translate(645.2891,549.55677)"
       id="g1493" />
    <g
       style="fill:#ff0000;fill-opacity:1"
       transform="translate(645.2891,549.55677)"
       id="g1495" />
    <g
       style="fill:#ff0000;fill-opacity:1"
       transform="translate(645.2891,549.55677)"
       id="g1497" />
    <g
       style="fill:#ff0000;fill-opacity:1"
       transform="translate(645.2891,549.55677)"
       id="g1499" />
    <g
       style="fill:#ff0000;fill-opacity:1"
       transform="translate(645.2891,549.55677)"
       id="g1501" />
    <g
       style="fill:#ff0000;fill-opacity:1"
       transform="translate(645.2891,549.55677)"
       id="g1503" />
    <g
       style="fill:#ff0000;fill-opacity:1"
       transform="translate(645.2891,549.55677)"
       id="g1505" />
    <g
       style="fill:#ff0000;fill-opacity:1"
       transform="translate(645.2891,549.55677)"
       id="g1507" />
    <g
       style="fill:#ff0000;fill-opacity:1"
       transform="translate(645.2891,549.55677)"
       id="g1509" />
    <g
       style="fill:#ff0000;fill-opacity:1"
       transform="translate(645.2891,549.55677)"
       id="g1511" />
    <g
       style="fill:#ff0000;fill-opacity:1"
       transform="translate(645.2891,549.55677)"
       id="g1513" />
    <g
       id="g1034"
       transform="matrix(0.18410756,0,0,0.18410756,429.07586,467.05097)"
       style="fill:#ff0000;fill-opacity:1" />
    <g
       id="g1036"
       transform="matrix(0.18410756,0,0,0.18410756,429.07586,467.05097)"
       style="fill:#ff0000;fill-opacity:1" />
    <g
       id="g1038"
       transform="matrix(0.18410756,0,0,0.18410756,429.07586,467.05097)"
       style="fill:#ff0000;fill-opacity:1" />
    <g
       id="g1040"
       transform="matrix(0.18410756,0,0,0.18410756,429.07586,467.05097)"
       style="fill:#ff0000;fill-opacity:1" />
    <g
       id="g1042"
       transform="matrix(0.18410756,0,0,0.18410756,429.07586,467.05097)"
       style="fill:#ff0000;fill-opacity:1" />
    <g
       id="g1044"
       transform="matrix(0.18410756,0,0,0.18410756,429.07586,467.05097)"
       style="fill:#ff0000;fill-opacity:1" />
    <g
       id="g1046"
       transform="matrix(0.18410756,0,0,0.18410756,429.07586,467.05097)"
       style="fill:#ff0000;fill-opacity:1" />
    <g
       id="g1048"
       transform="matrix(0.18410756,0,0,0.18410756,429.07586,467.05097)"
       style="fill:#ff0000;fill-opacity:1" />
    <g
       id="g1050"
       transform="matrix(0.18410756,0,0,0.18410756,429.07586,467.05097)"
       style="fill:#ff0000;fill-opacity:1" />
    <g
       id="g1052"
       transform="matrix(0.18410756,0,0,0.18410756,429.07586,467.05097)"
       style="fill:#ff0000;fill-opacity:1" />
    <g
       id="g1054"
       transform="matrix(0.18410756,0,0,0.18410756,429.07586,467.05097)"
       style="fill:#ff0000;fill-opacity:1" />
    <g
       id="g1056"
       transform="matrix(0.18410756,0,0,0.18410756,429.07586,467.05097)"
       style="fill:#ff0000;fill-opacity:1" />
    <g
       id="g1058"
       transform="matrix(0.18410756,0,0,0.18410756,429.07586,467.05097)"
       style="fill:#ff0000;fill-opacity:1" />
    <g
       id="g1060"
       transform="matrix(0.18410756,0,0,0.18410756,429.07586,467.05097)"
       style="fill:#ff0000;fill-opacity:1" />
    <g
       id="g1062"
       transform="matrix(0.18410756,0,0,0.18410756,429.07586,467.05097)"
       style="fill:#ff0000;fill-opacity:1" />
    <g
       id="g1291"
       transform="translate(206.66756,238.56801)"
       style="fill:#ff0000;fill-opacity:1" />
    <g
       id="g1293"
       transform="translate(206.66756,238.56801)"
       style="fill:#ff0000;fill-opacity:1" />
    <g
       id="g1295"
       transform="translate(206.66756,238.56801)"
       style="fill:#ff0000;fill-opacity:1" />
    <g
       id="g1297"
       transform="translate(206.66756,238.56801)"
       style="fill:#ff0000;fill-opacity:1" />
    <g
       id="g1299"
       transform="translate(206.66756,238.56801)"
       style="fill:#ff0000;fill-opacity:1" />
    <g
       id="g1301"
       transform="translate(206.66756,238.56801)"
       style="fill:#ff0000;fill-opacity:1" />
    <g
       id="g1303"
       transform="translate(206.66756,238.56801)"
       style="fill:#ff0000;fill-opacity:1" />
    <g
       id="g1305"
       transform="translate(206.66756,238.56801)"
       style="fill:#ff0000;fill-opacity:1" />
    <g
       id="g1307"
       transform="translate(206.66756,238.56801)"
       style="fill:#ff0000;fill-opacity:1" />
    <g
       id="g1309"
       transform="translate(206.66756,238.56801)"
       style="fill:#ff0000;fill-opacity:1" />
    <g
       id="g1311"
       transform="translate(206.66756,238.56801)"
       style="fill:#ff0000;fill-opacity:1" />
    <g
       id="g1313"
       transform="translate(206.66756,238.56801)"
       style="fill:#ff0000;fill-opacity:1" />
    <g
       id="g1315"
       transform="translate(206.66756,238.56801)"
       style="fill:#ff0000;fill-opacity:1" />
    <g
       id="g1317"
       transform="translate(206.66756,238.56801)"
       style="fill:#ff0000;fill-opacity:1" />
    <g
       id="g1319"
       transform="translate(206.66756,238.56801)"
       style="fill:#ff0000;fill-opacity:1" />
    <g
       id="g8"
       style="fill:#ff0000;fill-opacity:1"
       transform="matrix(1.9278846,0,0,1.9278846,438.62543,476.3439)" />
    <g
       id="g10"
       style="fill:#ff0000;fill-opacity:1"
       transform="matrix(1.9278846,0,0,1.9278846,438.62543,476.3439)" />
    <g
       id="g12"
       style="fill:#ff0000;fill-opacity:1"
       transform="matrix(1.9278846,0,0,1.9278846,438.62543,476.3439)" />
    <g
       id="g14"
       style="fill:#ff0000;fill-opacity:1"
       transform="matrix(1.9278846,0,0,1.9278846,438.62543,476.3439)" />
    <g
       id="g16"
       style="fill:#ff0000;fill-opacity:1"
       transform="matrix(1.9278846,0,0,1.9278846,438.62543,476.3439)" />
    <g
       id="g18"
       style="fill:#ff0000;fill-opacity:1"
       transform="matrix(1.9278846,0,0,1.9278846,438.62543,476.3439)" />
    <g
       id="g20"
       style="fill:#ff0000;fill-opacity:1"
       transform="matrix(1.9278846,0,0,1.9278846,438.62543,476.3439)" />
    <g
       id="g22"
       style="fill:#ff0000;fill-opacity:1"
       transform="matrix(1.9278846,0,0,1.9278846,438.62543,476.3439)" />
    <g
       id="g24"
       style="fill:#ff0000;fill-opacity:1"
       transform="matrix(1.9278846,0,0,1.9278846,438.62543,476.3439)" />
    <g
       id="g26"
       style="fill:#ff0000;fill-opacity:1"
       transform="matrix(1.9278846,0,0,1.9278846,438.62543,476.3439)" />
    <g
       id="g28"
       style="fill:#ff0000;fill-opacity:1"
       transform="matrix(1.9278846,0,0,1.9278846,438.62543,476.3439)" />
    <g
       id="g30"
       style="fill:#ff0000;fill-opacity:1"
       transform="matrix(1.9278846,0,0,1.9278846,438.62543,476.3439)" />
    <g
       id="g32"
       style="fill:#ff0000;fill-opacity:1"
       transform="matrix(1.9278846,0,0,1.9278846,438.62543,476.3439)" />
    <g
       id="g34"
       style="fill:#ff0000;fill-opacity:1"
       transform="matrix(1.9278846,0,0,1.9278846,438.62543,476.3439)" />
    <g
       id="g36"
       style="fill:#ff0000;fill-opacity:1"
       transform="matrix(1.9278846,0,0,1.9278846,438.62543,476.3439)" />
    <g
       id="g970"
       transform="matrix(0.09150879,0,0,0.09150879,464.37192,502.44845)"
       style="fill:#ff0000;fill-opacity:1">
      <g
         id="g913"
         style="fill:#ff0000;fill-opacity:1">
        <path
           id="path911"
           d="M 328.883,89.125 436.473,196.714 164.133,469.054 56.604,361.465 Z M 518.113,63.177 470.132,15.196 c -18.543,-18.543 -48.653,-18.543 -67.259,0 l -45.961,45.961 107.59,107.59 53.611,-53.611 c 14.382,-14.383 14.382,-37.577 0,-51.959 z M 0.3,512.69 c -1.958,8.812 5.998,16.708 14.811,14.565 L 135.002,498.186 27.473,390.597 Z"
           inkscape:connector-curvature="0"
           style="fill:#ff0000;fill-opacity:1" />
      </g>
      <g
         id="g915"
         style="fill:#ff0000;fill-opacity:1" />
      <g
         id="g917"
         style="fill:#ff0000;fill-opacity:1" />
      <g
         id="g919"
         style="fill:#ff0000;fill-opacity:1" />
      <g
         id="g921"
         style="fill:#ff0000;fill-opacity:1" />
      <g
         id="g923"
         style="fill:#ff0000;fill-opacity:1" />
      <g
         id="g925"
         style="fill:#ff0000;fill-opacity:1" />
      <g
         id="g927"
         style="fill:#ff0000;fill-opacity:1" />
      <g
         id="g929"
         style="fill:#ff0000;fill-opacity:1" />
      <g
         id="g931"
         style="fill:#ff0000;fill-opacity:1" />
      <g
         id="g933"
         style="fill:#ff0000;fill-opacity:1" />
      <g
         id="g935"
         style="fill:#ff0000;fill-opacity:1" />
      <g
         id="g937"
         style="fill:#ff0000;fill-opacity:1" />
      <g
         id="g939"
         style="fill:#ff0000;fill-opacity:1" />
      <g
         id="g941"
         style="fill:#ff0000;fill-opacity:1" />
      <g
         id="g943"
         style="fill:#ff0000;fill-opacity:1" />
    </g>
  </g>
</svg>
