<?xml version="1.0" encoding="UTF-8" standalone="no"?>
<!-- Generator: Adobe Illustrator 19.0.0, SVG Export Plug-In . SVG Version: 6.00 Build 0)  -->

<svg
   xmlns:dc="http://purl.org/dc/elements/1.1/"
   xmlns:cc="http://creativecommons.org/ns#"
   xmlns:rdf="http://www.w3.org/1999/02/22-rdf-syntax-ns#"
   xmlns:svg="http://www.w3.org/2000/svg"
   xmlns="http://www.w3.org/2000/svg"
   xmlns:sodipodi="http://sodipodi.sourceforge.net/DTD/sodipodi-0.dtd"
   xmlns:inkscape="http://www.inkscape.org/namespaces/inkscape"
   version="1.1"
   id="Capa_1"
   x="0px"
   y="0px"
   viewBox="0 0 54 54"
   style="enable-background:new 0 0 54 54;"
   xml:space="preserve"
   sodipodi:docname="gear.svg"
   inkscape:version="0.92.2 (5c3e80d, 2017-08-06)"><metadata
     id="metadata45"><rdf:RDF><cc:Work
         rdf:about=""><dc:format>image/svg+xml</dc:format><dc:type
           rdf:resource="http://purl.org/dc/dcmitype/StillImage" /></cc:Work></rdf:RDF></metadata><defs
     id="defs43" /><sodipodi:namedview
     pagecolor="#ffffff"
     bordercolor="#666666"
     borderopacity="1"
     objecttolerance="10"
     gridtolerance="10"
     guidetolerance="10"
     inkscape:pageopacity="0"
     inkscape:pageshadow="2"
     inkscape:window-width="1366"
     inkscape:window-height="672"
     id="namedview41"
     showgrid="false"
     inkscape:zoom="4.3703704"
     inkscape:cx="-3.6610168"
     inkscape:cy="27"
     inkscape:window-x="0"
     inkscape:window-y="34"
     inkscape:window-maximized="1"
     inkscape:current-layer="Capa_1" /><path
     inkscape:connector-curvature="0"
     id="path2"
     d="m 27,13 c -7.72,0 -14,6.28 -14,14 0,7.72 6.28,14 14,14 7.72,0 14,-6.28 14,-14 0,-7.72 -6.28,-14 -14,-14 z m 0,26 c -6.617,0 -12,-5.383 -12,-12 0,-6.617 5.383,-12 12,-12 6.617,0 12,5.383 12,12 0,6.617 -5.383,12 -12,12 z"
     style="fill:#f82e2e;fill-opacity:1" /><path
     inkscape:connector-curvature="0"
     id="path4"
     d="m 51.22,21 h -2.018 c -0.515,-1.912 -1.272,-3.742 -2.26,-5.457 l 1.426,-1.426 c 0.525,-0.525 0.814,-1.224 0.814,-1.966 0,-0.743 -0.289,-1.441 -0.814,-1.967 L 43.815,5.631 c -1.05,-1.049 -2.881,-1.051 -3.933,0 L 38.456,7.057 C 36.74,6.07 34.911,5.313 33,4.798 V 2.78 C 33,1.247 31.753,0 30.22,0 H 23.78 C 22.247,0 21,1.247 21,2.78 V 4.798 C 19.089,5.313 17.26,6.07 15.543,7.058 L 14.117,5.632 c -1.051,-1.052 -2.883,-1.05 -3.933,0 l -4.553,4.553 c -0.525,0.525 -0.814,1.224 -0.814,1.967 0,0.742 0.289,1.44 0.814,1.966 l 1.426,1.426 C 6.07,17.258 5.312,19.088 4.798,21 H 2.78 C 1.247,21 0,22.247 0,23.78 v 6.439 C 0,31.753 1.247,33 2.78,33 h 2.018 c 0.515,1.911 1.272,3.74 2.26,5.457 l -1.426,1.426 c -0.525,0.525 -0.814,1.224 -0.814,1.966 0,0.743 0.289,1.441 0.814,1.967 l 4.553,4.553 c 1.05,1.051 2.882,1.052 3.933,0 l 1.426,-1.426 c 1.717,0.987 3.546,1.745 5.457,2.26 v 2.018 c 0,1.533 1.247,2.78 2.78,2.78 h 6.439 c 1.533,0 2.78,-1.247 2.78,-2.78 v -2.018 c 1.911,-0.515 3.74,-1.272 5.457,-2.26 l 1.426,1.426 c 1.052,1.052 2.882,1.05 3.933,0 l 4.553,-4.553 c 0.525,-0.525 0.814,-1.224 0.814,-1.967 0,-0.742 -0.289,-1.44 -0.814,-1.966 L 46.943,38.457 C 47.93,36.74 48.688,34.911 49.203,33 h 2.018 c 1.533,0 2.78,-1.247 2.78,-2.78 V 23.78 C 54,22.247 52.753,21 51.22,21 Z M 52,30.22 C 52,30.65 51.65,31 51.22,31 h -3.592 l -0.18,0.773 c -0.521,2.237 -1.399,4.36 -2.613,6.311 l -0.42,0.674 2.539,2.539 c 0.305,0.305 0.305,0.8 0,1.104 l -4.553,4.553 c -0.304,0.304 -0.799,0.306 -1.104,0 l -2.539,-2.539 -0.674,0.42 c -1.95,1.214 -4.073,2.093 -6.311,2.613 L 31,47.628 V 51.22 C 31,51.65 30.65,52 30.22,52 H 23.78 C 23.35,52 23,51.65 23,51.22 v -3.592 l -0.773,-0.18 c -2.237,-0.521 -4.36,-1.399 -6.311,-2.613 l -0.674,-0.42 -2.539,2.539 c -0.306,0.306 -0.801,0.304 -1.104,0 L 7.046,42.401 c -0.305,-0.305 -0.305,-0.8 0,-1.104 L 9.585,38.758 9.165,38.084 C 7.951,36.134 7.072,34.011 6.552,31.773 L 6.372,31 H 2.78 C 2.35,31 2,30.65 2,30.22 V 23.78 C 2,23.35 2.35,23 2.78,23 h 3.592 l 0.18,-0.773 c 0.521,-2.238 1.399,-4.361 2.613,-6.311 l 0.42,-0.674 -2.539,-2.539 c -0.305,-0.305 -0.305,-0.8 0,-1.104 l 4.553,-4.553 c 0.304,-0.304 0.799,-0.306 1.104,0 l 2.539,2.539 0.674,-0.42 c 1.95,-1.214 4.073,-2.093 6.311,-2.613 L 23,6.372 V 2.78 C 23,2.35 23.35,2 23.78,2 h 6.439 C 30.65,2 31,2.35 31,2.78 v 3.592 l 0.773,0.18 c 2.237,0.521 4.36,1.399 6.311,2.613 l 0.674,0.42 2.539,-2.539 c 0.306,-0.306 0.801,-0.304 1.104,0 l 4.553,4.553 c 0.305,0.305 0.305,0.8 0,1.104 l -2.539,2.539 0.42,0.674 c 1.214,1.949 2.093,4.072 2.613,6.311 L 47.628,23 h 3.592 c 0.43,0 0.78,0.35 0.78,0.78 z"
     style="fill:#f55757;fill-opacity:1" /><path
     inkscape:connector-curvature="0"
     id="path6"
     d="m 27,17 c -5.514,0 -10,4.486 -10,10 0,5.514 4.486,10 10,10 5.514,0 10,-4.486 10,-10 0,-5.514 -4.486,-10 -10,-10 z m 0,18 c -4.411,0 -8,-3.589 -8,-8 0,-4.411 3.589,-8 8,-8 4.411,0 8,3.589 8,8 0,4.411 -3.589,8 -8,8 z"
     style="fill:#ff0000;fill-opacity:1" /></svg>