<?xml version="1.0" encoding="UTF-8" standalone="no"?>
<!-- Created with Inkscape (http://www.inkscape.org/) -->

<svg
   xmlns:dc="http://purl.org/dc/elements/1.1/"
   xmlns:cc="http://creativecommons.org/ns#"
   xmlns:rdf="http://www.w3.org/1999/02/22-rdf-syntax-ns#"
   xmlns:svg="http://www.w3.org/2000/svg"
   xmlns="http://www.w3.org/2000/svg"
   xmlns:sodipodi="http://sodipodi.sourceforge.net/DTD/sodipodi-0.dtd"
   xmlns:inkscape="http://www.inkscape.org/namespaces/inkscape"
   width="99.891998"
   height="99.891998"
   id="svg2"
   version="1.1"
   inkscape:version="0.92.2 5c3e80d, 2017-08-06"
   sodipodi:docname="info.svg">
  <defs
     id="defs4" />
  <sodipodi:namedview
     id="base"
     pagecolor="#ffffff"
     bordercolor="#666666"
     borderopacity="1.0"
     inkscape:pageopacity="0.0"
     inkscape:pageshadow="2"
     inkscape:zoom="4"
     inkscape:cx="39.629038"
     inkscape:cy="63.638394"
     inkscape:document-units="px"
     inkscape:current-layer="layer1"
     showgrid="false"
     fit-margin-top="0"
     fit-margin-left="0"
     fit-margin-right="0"
     fit-margin-bottom="0"
     inkscape:window-width="1920"
     inkscape:window-height="991"
     inkscape:window-x="0"
     inkscape:window-y="22"
     inkscape:window-maximized="1" />
  <metadata
     id="metadata7">
    <rdf:RDF>
      <cc:Work
         rdf:about="">
        <dc:format>image/svg+xml</dc:format>
        <dc:type
           rdf:resource="http://purl.org/dc/dcmitype/StillImage" />
        <dc:title />
      </cc:Work>
    </rdf:RDF>
  </metadata>
  <g
     inkscape:label="Layer 1"
     inkscape:groupmode="layer"
     id="layer1"
     transform="translate(-438.62543,-476.7019)">
    <path
       inkscape:connector-curvature="0"
       id="path2"
       d="m 488.26829,477.36219 c -27.54,0 -49.946,22.406 -49.946,49.946 0,27.54 22.406,49.946 49.946,49.946 27.54,0 49.946,-22.406 49.946,-49.946 0,-27.54 -22.405,-49.946 -49.946,-49.946 z m 0,97.893 c -26.437,0 -47.946,-21.509 -47.946,-47.947 0,-26.438 21.509,-47.946 47.946,-47.946 26.437,0 47.946,21.509 47.946,47.946 0,26.437 -21.508,47.947 -47.946,47.947 z"
       style="fill:#aaaabe;fill-opacity:1" />
    <g
       id="background"
       transform="translate(-269.26992,-125.8521)"
       style="fill:#aaaabe;fill-opacity:1" />
    <g
       id="design"
       transform="translate(-269.26992,-125.8521)"
       style="fill:#aaaabe;fill-opacity:1" />
    <g
       style="fill:#aaaabe;fill-opacity:1"
       id="g961"
       transform="matrix(1.3539399,0,0,1.3539399,447.65009,497.17295)" />
    <g
       style="fill:#aaaabe;fill-opacity:1"
       id="g963"
       transform="matrix(1.3539399,0,0,1.3539399,447.65009,497.17295)" />
    <g
       style="fill:#aaaabe;fill-opacity:1"
       id="g965"
       transform="matrix(1.3539399,0,0,1.3539399,447.65009,497.17295)" />
    <g
       style="fill:#aaaabe;fill-opacity:1"
       id="g967"
       transform="matrix(1.3539399,0,0,1.3539399,447.65009,497.17295)" />
    <g
       style="fill:#aaaabe;fill-opacity:1"
       id="g969"
       transform="matrix(1.3539399,0,0,1.3539399,447.65009,497.17295)" />
    <g
       style="fill:#aaaabe;fill-opacity:1"
       id="g971"
       transform="matrix(1.3539399,0,0,1.3539399,447.65009,497.17295)" />
    <g
       style="fill:#aaaabe;fill-opacity:1"
       id="g973"
       transform="matrix(1.3539399,0,0,1.3539399,447.65009,497.17295)" />
    <g
       style="fill:#aaaabe;fill-opacity:1"
       id="g975"
       transform="matrix(1.3539399,0,0,1.3539399,447.65009,497.17295)" />
    <g
       style="fill:#aaaabe;fill-opacity:1"
       id="g977"
       transform="matrix(1.3539399,0,0,1.3539399,447.65009,497.17295)" />
    <g
       style="fill:#aaaabe;fill-opacity:1"
       id="g979"
       transform="matrix(1.3539399,0,0,1.3539399,447.65009,497.17295)" />
    <g
       style="fill:#aaaabe;fill-opacity:1"
       id="g981"
       transform="matrix(1.3539399,0,0,1.3539399,447.65009,497.17295)" />
    <g
       style="fill:#aaaabe;fill-opacity:1"
       id="g983"
       transform="matrix(1.3539399,0,0,1.3539399,447.65009,497.17295)" />
    <g
       style="fill:#aaaabe;fill-opacity:1"
       id="g985"
       transform="matrix(1.3539399,0,0,1.3539399,447.65009,497.17295)" />
    <g
       style="fill:#aaaabe;fill-opacity:1"
       id="g987"
       transform="matrix(1.3539399,0,0,1.3539399,447.65009,497.17295)" />
    <g
       style="fill:#aaaabe;fill-opacity:1"
       id="g989"
       transform="matrix(1.3539399,0,0,1.3539399,447.65009,497.17295)" />
    <g
       style="fill:#aaaabe;fill-opacity:1"
       transform="translate(590.88408,410.65451)"
       id="g1392" />
    <g
       style="fill:#aaaabe;fill-opacity:1"
       transform="translate(590.88408,410.65451)"
       id="g1394" />
    <g
       style="fill:#aaaabe;fill-opacity:1"
       transform="translate(590.88408,410.65451)"
       id="g1396" />
    <g
       style="fill:#aaaabe;fill-opacity:1"
       transform="translate(590.88408,410.65451)"
       id="g1398" />
    <g
       style="fill:#aaaabe;fill-opacity:1"
       transform="translate(590.88408,410.65451)"
       id="g1400" />
    <g
       style="fill:#aaaabe;fill-opacity:1"
       transform="translate(590.88408,410.65451)"
       id="g1402" />
    <g
       style="fill:#aaaabe;fill-opacity:1"
       transform="translate(590.88408,410.65451)"
       id="g1404" />
    <g
       style="fill:#aaaabe;fill-opacity:1"
       transform="translate(590.88408,410.65451)"
       id="g1406" />
    <g
       style="fill:#aaaabe;fill-opacity:1"
       transform="translate(590.88408,410.65451)"
       id="g1408" />
    <g
       style="fill:#aaaabe;fill-opacity:1"
       transform="translate(590.88408,410.65451)"
       id="g1410" />
    <g
       style="fill:#aaaabe;fill-opacity:1"
       transform="translate(590.88408,410.65451)"
       id="g1412" />
    <g
       style="fill:#aaaabe;fill-opacity:1"
       transform="translate(590.88408,410.65451)"
       id="g1414" />
    <g
       style="fill:#aaaabe;fill-opacity:1"
       transform="translate(590.88408,410.65451)"
       id="g1416" />
    <g
       style="fill:#aaaabe;fill-opacity:1"
       transform="translate(590.88408,410.65451)"
       id="g1418" />
    <g
       style="fill:#aaaabe;fill-opacity:1"
       transform="translate(590.88408,410.65451)"
       id="g1420" />
    <g
       style="fill:#aaaabe;fill-opacity:1"
       transform="translate(645.2891,549.55677)"
       id="g1485" />
    <g
       style="fill:#aaaabe;fill-opacity:1"
       transform="translate(645.2891,549.55677)"
       id="g1487" />
    <g
       style="fill:#aaaabe;fill-opacity:1"
       transform="translate(645.2891,549.55677)"
       id="g1489" />
    <g
       style="fill:#aaaabe;fill-opacity:1"
       transform="translate(645.2891,549.55677)"
       id="g1491" />
    <g
       style="fill:#aaaabe;fill-opacity:1"
       transform="translate(645.2891,549.55677)"
       id="g1493" />
    <g
       style="fill:#aaaabe;fill-opacity:1"
       transform="translate(645.2891,549.55677)"
       id="g1495" />
    <g
       style="fill:#aaaabe;fill-opacity:1"
       transform="translate(645.2891,549.55677)"
       id="g1497" />
    <g
       style="fill:#aaaabe;fill-opacity:1"
       transform="translate(645.2891,549.55677)"
       id="g1499" />
    <g
       style="fill:#aaaabe;fill-opacity:1"
       transform="translate(645.2891,549.55677)"
       id="g1501" />
    <g
       style="fill:#aaaabe;fill-opacity:1"
       transform="translate(645.2891,549.55677)"
       id="g1503" />
    <g
       style="fill:#aaaabe;fill-opacity:1"
       transform="translate(645.2891,549.55677)"
       id="g1505" />
    <g
       style="fill:#aaaabe;fill-opacity:1"
       transform="translate(645.2891,549.55677)"
       id="g1507" />
    <g
       style="fill:#aaaabe;fill-opacity:1"
       transform="translate(645.2891,549.55677)"
       id="g1509" />
    <g
       style="fill:#aaaabe;fill-opacity:1"
       transform="translate(645.2891,549.55677)"
       id="g1511" />
    <g
       style="fill:#aaaabe;fill-opacity:1"
       transform="translate(645.2891,549.55677)"
       id="g1513" />
    <g
       id="g1034"
       transform="matrix(0.18410756,0,0,0.18410756,429.07586,467.05097)" />
    <g
       id="g1036"
       transform="matrix(0.18410756,0,0,0.18410756,429.07586,467.05097)" />
    <g
       id="g1038"
       transform="matrix(0.18410756,0,0,0.18410756,429.07586,467.05097)" />
    <g
       id="g1040"
       transform="matrix(0.18410756,0,0,0.18410756,429.07586,467.05097)" />
    <g
       id="g1042"
       transform="matrix(0.18410756,0,0,0.18410756,429.07586,467.05097)" />
    <g
       id="g1044"
       transform="matrix(0.18410756,0,0,0.18410756,429.07586,467.05097)" />
    <g
       id="g1046"
       transform="matrix(0.18410756,0,0,0.18410756,429.07586,467.05097)" />
    <g
       id="g1048"
       transform="matrix(0.18410756,0,0,0.18410756,429.07586,467.05097)" />
    <g
       id="g1050"
       transform="matrix(0.18410756,0,0,0.18410756,429.07586,467.05097)" />
    <g
       id="g1052"
       transform="matrix(0.18410756,0,0,0.18410756,429.07586,467.05097)" />
    <g
       id="g1054"
       transform="matrix(0.18410756,0,0,0.18410756,429.07586,467.05097)" />
    <g
       id="g1056"
       transform="matrix(0.18410756,0,0,0.18410756,429.07586,467.05097)" />
    <g
       id="g1058"
       transform="matrix(0.18410756,0,0,0.18410756,429.07586,467.05097)" />
    <g
       id="g1060"
       transform="matrix(0.18410756,0,0,0.18410756,429.07586,467.05097)" />
    <g
       id="g1062"
       transform="matrix(0.18410756,0,0,0.18410756,429.07586,467.05097)" />
    <g
       id="g1291"
       transform="translate(206.66756,238.56801)" />
    <g
       id="g1293"
       transform="translate(206.66756,238.56801)" />
    <g
       id="g1295"
       transform="translate(206.66756,238.56801)" />
    <g
       id="g1297"
       transform="translate(206.66756,238.56801)" />
    <g
       id="g1299"
       transform="translate(206.66756,238.56801)" />
    <g
       id="g1301"
       transform="translate(206.66756,238.56801)" />
    <g
       id="g1303"
       transform="translate(206.66756,238.56801)" />
    <g
       id="g1305"
       transform="translate(206.66756,238.56801)" />
    <g
       id="g1307"
       transform="translate(206.66756,238.56801)" />
    <g
       id="g1309"
       transform="translate(206.66756,238.56801)" />
    <g
       id="g1311"
       transform="translate(206.66756,238.56801)" />
    <g
       id="g1313"
       transform="translate(206.66756,238.56801)" />
    <g
       id="g1315"
       transform="translate(206.66756,238.56801)" />
    <g
       id="g1317"
       transform="translate(206.66756,238.56801)" />
    <g
       id="g1319"
       transform="translate(206.66756,238.56801)" />
    <path
       id="path911"
       d="m 495.52535,547.44722 v 4.72617 c 0,0.19897 -0.12765,0.3588 -0.28218,0.3588 H 481.5325 c -0.15623,0 -0.28219,-0.1607 -0.28219,-0.3588 v -4.72617 c 0,-0.19737 0.1267,-0.35708 0.28219,-0.35708 h 3.94984 v -25.19133 h -3.99042 c -0.1563,0 -0.28057,-0.15982 -0.28057,-0.35591 v -4.83379 c 0,-0.19853 0.12504,-0.35663 0.28057,-0.35663 h 9.35538 c 0.15586,0 0.28211,0.15896 0.28211,0.35663 v 30.38103 h 4.11376 c 0.15453,0 0.28218,0.15971 0.28218,0.35708 z m -12.4604,-39.92085 c 0,-3.00602 1.92454,-5.44218 4.30053,-5.44218 2.37438,0 4.30019,2.43631 4.30019,5.44218 0,3.00586 -1.92581,5.44217 -4.30019,5.44217 -2.37665,0 -4.30053,-2.43616 -4.30053,-5.44217 z"
       inkscape:connector-curvature="0"
       sodipodi:nodetypes="sssssssccsssssscsssssss"
       style="stroke-width:0.12788589;fill:#aaaabe;fill-opacity:1" />
  </g>
</svg>
