<?xml version="1.0" encoding="UTF-8" standalone="no"?>
<!-- Created with Inkscape (http://www.inkscape.org/) -->

<svg
   xmlns:dc="http://purl.org/dc/elements/1.1/"
   xmlns:cc="http://creativecommons.org/ns#"
   xmlns:rdf="http://www.w3.org/1999/02/22-rdf-syntax-ns#"
   xmlns:svg="http://www.w3.org/2000/svg"
   xmlns="http://www.w3.org/2000/svg"
   xmlns:sodipodi="http://sodipodi.sourceforge.net/DTD/sodipodi-0.dtd"
   xmlns:inkscape="http://www.inkscape.org/namespaces/inkscape"
   width="99.891998"
   height="99.891998"
   id="svg2"
   version="1.1"
   inkscape:version="0.92.2 5c3e80d, 2017-08-06"
   sodipodi:docname="trash.svg">
  <defs
     id="defs4" />
  <sodipodi:namedview
     id="base"
     pagecolor="#ffffff"
     bordercolor="#666666"
     borderopacity="1.0"
     inkscape:pageopacity="0.0"
     inkscape:pageshadow="2"
     inkscape:zoom="4"
     inkscape:cx="69.91847"
     inkscape:cy="67.387563"
     inkscape:document-units="px"
     inkscape:current-layer="layer1"
     showgrid="false"
     fit-margin-top="0"
     fit-margin-left="0"
     fit-margin-right="0"
     fit-margin-bottom="0"
     inkscape:window-width="1920"
     inkscape:window-height="991"
     inkscape:window-x="0"
     inkscape:window-y="22"
     inkscape:window-maximized="1" />
  <metadata
     id="metadata7">
    <rdf:RDF>
      <cc:Work
         rdf:about="">
        <dc:format>image/svg+xml</dc:format>
        <dc:type
           rdf:resource="http://purl.org/dc/dcmitype/StillImage" />
        <dc:title />
      </cc:Work>
    </rdf:RDF>
  </metadata>
  <g
     inkscape:label="Layer 1"
     inkscape:groupmode="layer"
     id="layer1"
     transform="translate(-438.62543,-476.7019)">
    <path
       inkscape:connector-curvature="0"
       id="path2"
       d="m 488.26829,477.36219 c -27.54,0 -49.946,22.406 -49.946,49.946 0,27.54 22.406,49.946 49.946,49.946 27.54,0 49.946,-22.406 49.946,-49.946 0,-27.54 -22.405,-49.946 -49.946,-49.946 z m 0,97.893 c -26.437,0 -47.946,-21.509 -47.946,-47.947 0,-26.438 21.509,-47.946 47.946,-47.946 26.437,0 47.946,21.509 47.946,47.946 0,26.437 -21.508,47.947 -47.946,47.947 z"
       style="fill:#aaaabe;fill-opacity:1" />
    <g
       id="background"
       transform="translate(-269.26992,-125.8521)"
       style="fill:#aaaabe;fill-opacity:1" />
    <g
       id="design"
       transform="translate(-269.26992,-125.8521)"
       style="fill:#aaaabe;fill-opacity:1" />
    <g
       style="fill:#aaaabe;fill-opacity:1"
       id="g961"
       transform="matrix(1.3539399,0,0,1.3539399,447.65009,497.17295)" />
    <g
       style="fill:#aaaabe;fill-opacity:1"
       id="g963"
       transform="matrix(1.3539399,0,0,1.3539399,447.65009,497.17295)" />
    <g
       style="fill:#aaaabe;fill-opacity:1"
       id="g965"
       transform="matrix(1.3539399,0,0,1.3539399,447.65009,497.17295)" />
    <g
       style="fill:#aaaabe;fill-opacity:1"
       id="g967"
       transform="matrix(1.3539399,0,0,1.3539399,447.65009,497.17295)" />
    <g
       style="fill:#aaaabe;fill-opacity:1"
       id="g969"
       transform="matrix(1.3539399,0,0,1.3539399,447.65009,497.17295)" />
    <g
       style="fill:#aaaabe;fill-opacity:1"
       id="g971"
       transform="matrix(1.3539399,0,0,1.3539399,447.65009,497.17295)" />
    <g
       style="fill:#aaaabe;fill-opacity:1"
       id="g973"
       transform="matrix(1.3539399,0,0,1.3539399,447.65009,497.17295)" />
    <g
       style="fill:#aaaabe;fill-opacity:1"
       id="g975"
       transform="matrix(1.3539399,0,0,1.3539399,447.65009,497.17295)" />
    <g
       style="fill:#aaaabe;fill-opacity:1"
       id="g977"
       transform="matrix(1.3539399,0,0,1.3539399,447.65009,497.17295)" />
    <g
       style="fill:#aaaabe;fill-opacity:1"
       id="g979"
       transform="matrix(1.3539399,0,0,1.3539399,447.65009,497.17295)" />
    <g
       style="fill:#aaaabe;fill-opacity:1"
       id="g981"
       transform="matrix(1.3539399,0,0,1.3539399,447.65009,497.17295)" />
    <g
       style="fill:#aaaabe;fill-opacity:1"
       id="g983"
       transform="matrix(1.3539399,0,0,1.3539399,447.65009,497.17295)" />
    <g
       style="fill:#aaaabe;fill-opacity:1"
       id="g985"
       transform="matrix(1.3539399,0,0,1.3539399,447.65009,497.17295)" />
    <g
       style="fill:#aaaabe;fill-opacity:1"
       id="g987"
       transform="matrix(1.3539399,0,0,1.3539399,447.65009,497.17295)" />
    <g
       style="fill:#aaaabe;fill-opacity:1"
       id="g989"
       transform="matrix(1.3539399,0,0,1.3539399,447.65009,497.17295)" />
    <g
       style="fill:#aaaabe;fill-opacity:1"
       transform="translate(590.88408,410.65451)"
       id="g1392" />
    <g
       style="fill:#aaaabe;fill-opacity:1"
       transform="translate(590.88408,410.65451)"
       id="g1394" />
    <g
       style="fill:#aaaabe;fill-opacity:1"
       transform="translate(590.88408,410.65451)"
       id="g1396" />
    <g
       style="fill:#aaaabe;fill-opacity:1"
       transform="translate(590.88408,410.65451)"
       id="g1398" />
    <g
       style="fill:#aaaabe;fill-opacity:1"
       transform="translate(590.88408,410.65451)"
       id="g1400" />
    <g
       style="fill:#aaaabe;fill-opacity:1"
       transform="translate(590.88408,410.65451)"
       id="g1402" />
    <g
       style="fill:#aaaabe;fill-opacity:1"
       transform="translate(590.88408,410.65451)"
       id="g1404" />
    <g
       style="fill:#aaaabe;fill-opacity:1"
       transform="translate(590.88408,410.65451)"
       id="g1406" />
    <g
       style="fill:#aaaabe;fill-opacity:1"
       transform="translate(590.88408,410.65451)"
       id="g1408" />
    <g
       style="fill:#aaaabe;fill-opacity:1"
       transform="translate(590.88408,410.65451)"
       id="g1410" />
    <g
       style="fill:#aaaabe;fill-opacity:1"
       transform="translate(590.88408,410.65451)"
       id="g1412" />
    <g
       style="fill:#aaaabe;fill-opacity:1"
       transform="translate(590.88408,410.65451)"
       id="g1414" />
    <g
       style="fill:#aaaabe;fill-opacity:1"
       transform="translate(590.88408,410.65451)"
       id="g1416" />
    <g
       style="fill:#aaaabe;fill-opacity:1"
       transform="translate(590.88408,410.65451)"
       id="g1418" />
    <g
       style="fill:#aaaabe;fill-opacity:1"
       transform="translate(590.88408,410.65451)"
       id="g1420" />
    <g
       style="fill:#aaaabe;fill-opacity:1"
       transform="translate(645.2891,549.55677)"
       id="g1485" />
    <g
       style="fill:#aaaabe;fill-opacity:1"
       transform="translate(645.2891,549.55677)"
       id="g1487" />
    <g
       style="fill:#aaaabe;fill-opacity:1"
       transform="translate(645.2891,549.55677)"
       id="g1489" />
    <g
       style="fill:#aaaabe;fill-opacity:1"
       transform="translate(645.2891,549.55677)"
       id="g1491" />
    <g
       style="fill:#aaaabe;fill-opacity:1"
       transform="translate(645.2891,549.55677)"
       id="g1493" />
    <g
       style="fill:#aaaabe;fill-opacity:1"
       transform="translate(645.2891,549.55677)"
       id="g1495" />
    <g
       style="fill:#aaaabe;fill-opacity:1"
       transform="translate(645.2891,549.55677)"
       id="g1497" />
    <g
       style="fill:#aaaabe;fill-opacity:1"
       transform="translate(645.2891,549.55677)"
       id="g1499" />
    <g
       style="fill:#aaaabe;fill-opacity:1"
       transform="translate(645.2891,549.55677)"
       id="g1501" />
    <g
       style="fill:#aaaabe;fill-opacity:1"
       transform="translate(645.2891,549.55677)"
       id="g1503" />
    <g
       style="fill:#aaaabe;fill-opacity:1"
       transform="translate(645.2891,549.55677)"
       id="g1505" />
    <g
       style="fill:#aaaabe;fill-opacity:1"
       transform="translate(645.2891,549.55677)"
       id="g1507" />
    <g
       style="fill:#aaaabe;fill-opacity:1"
       transform="translate(645.2891,549.55677)"
       id="g1509" />
    <g
       style="fill:#aaaabe;fill-opacity:1"
       transform="translate(645.2891,549.55677)"
       id="g1511" />
    <g
       style="fill:#aaaabe;fill-opacity:1"
       transform="translate(645.2891,549.55677)"
       id="g1513" />
    <g
       id="g1034"
       transform="matrix(0.18410756,0,0,0.18410756,429.07586,467.05097)" />
    <g
       id="g1036"
       transform="matrix(0.18410756,0,0,0.18410756,429.07586,467.05097)" />
    <g
       id="g1038"
       transform="matrix(0.18410756,0,0,0.18410756,429.07586,467.05097)" />
    <g
       id="g1040"
       transform="matrix(0.18410756,0,0,0.18410756,429.07586,467.05097)" />
    <g
       id="g1042"
       transform="matrix(0.18410756,0,0,0.18410756,429.07586,467.05097)" />
    <g
       id="g1044"
       transform="matrix(0.18410756,0,0,0.18410756,429.07586,467.05097)" />
    <g
       id="g1046"
       transform="matrix(0.18410756,0,0,0.18410756,429.07586,467.05097)" />
    <g
       id="g1048"
       transform="matrix(0.18410756,0,0,0.18410756,429.07586,467.05097)" />
    <g
       id="g1050"
       transform="matrix(0.18410756,0,0,0.18410756,429.07586,467.05097)" />
    <g
       id="g1052"
       transform="matrix(0.18410756,0,0,0.18410756,429.07586,467.05097)" />
    <g
       id="g1054"
       transform="matrix(0.18410756,0,0,0.18410756,429.07586,467.05097)" />
    <g
       id="g1056"
       transform="matrix(0.18410756,0,0,0.18410756,429.07586,467.05097)" />
    <g
       id="g1058"
       transform="matrix(0.18410756,0,0,0.18410756,429.07586,467.05097)" />
    <g
       id="g1060"
       transform="matrix(0.18410756,0,0,0.18410756,429.07586,467.05097)" />
    <g
       id="g1062"
       transform="matrix(0.18410756,0,0,0.18410756,429.07586,467.05097)" />
    <g
       id="g1291"
       transform="translate(206.66756,238.56801)" />
    <g
       id="g1293"
       transform="translate(206.66756,238.56801)" />
    <g
       id="g1295"
       transform="translate(206.66756,238.56801)" />
    <g
       id="g1297"
       transform="translate(206.66756,238.56801)" />
    <g
       id="g1299"
       transform="translate(206.66756,238.56801)" />
    <g
       id="g1301"
       transform="translate(206.66756,238.56801)" />
    <g
       id="g1303"
       transform="translate(206.66756,238.56801)" />
    <g
       id="g1305"
       transform="translate(206.66756,238.56801)" />
    <g
       id="g1307"
       transform="translate(206.66756,238.56801)" />
    <g
       id="g1309"
       transform="translate(206.66756,238.56801)" />
    <g
       id="g1311"
       transform="translate(206.66756,238.56801)" />
    <g
       id="g1313"
       transform="translate(206.66756,238.56801)" />
    <g
       id="g1315"
       transform="translate(206.66756,238.56801)" />
    <g
       id="g1317"
       transform="translate(206.66756,238.56801)" />
    <g
       id="g1319"
       transform="translate(206.66756,238.56801)" />
    <g
       id="g8"
       style="fill:#aaaabe;fill-opacity:1"
       transform="matrix(1.9278846,0,0,1.9278846,438.62543,476.3439)" />
    <g
       id="g10"
       style="fill:#aaaabe;fill-opacity:1"
       transform="matrix(1.9278846,0,0,1.9278846,438.62543,476.3439)" />
    <g
       id="g12"
       style="fill:#aaaabe;fill-opacity:1"
       transform="matrix(1.9278846,0,0,1.9278846,438.62543,476.3439)" />
    <g
       id="g14"
       style="fill:#aaaabe;fill-opacity:1"
       transform="matrix(1.9278846,0,0,1.9278846,438.62543,476.3439)" />
    <g
       id="g16"
       style="fill:#aaaabe;fill-opacity:1"
       transform="matrix(1.9278846,0,0,1.9278846,438.62543,476.3439)" />
    <g
       id="g18"
       style="fill:#aaaabe;fill-opacity:1"
       transform="matrix(1.9278846,0,0,1.9278846,438.62543,476.3439)" />
    <g
       id="g20"
       style="fill:#aaaabe;fill-opacity:1"
       transform="matrix(1.9278846,0,0,1.9278846,438.62543,476.3439)" />
    <g
       id="g22"
       style="fill:#aaaabe;fill-opacity:1"
       transform="matrix(1.9278846,0,0,1.9278846,438.62543,476.3439)" />
    <g
       id="g24"
       style="fill:#aaaabe;fill-opacity:1"
       transform="matrix(1.9278846,0,0,1.9278846,438.62543,476.3439)" />
    <g
       id="g26"
       style="fill:#aaaabe;fill-opacity:1"
       transform="matrix(1.9278846,0,0,1.9278846,438.62543,476.3439)" />
    <g
       id="g28"
       style="fill:#aaaabe;fill-opacity:1"
       transform="matrix(1.9278846,0,0,1.9278846,438.62543,476.3439)" />
    <g
       id="g30"
       style="fill:#aaaabe;fill-opacity:1"
       transform="matrix(1.9278846,0,0,1.9278846,438.62543,476.3439)" />
    <g
       id="g32"
       style="fill:#aaaabe;fill-opacity:1"
       transform="matrix(1.9278846,0,0,1.9278846,438.62543,476.3439)" />
    <g
       id="g34"
       style="fill:#aaaabe;fill-opacity:1"
       transform="matrix(1.9278846,0,0,1.9278846,438.62543,476.3439)" />
    <g
       id="g36"
       style="fill:#aaaabe;fill-opacity:1"
       transform="matrix(1.9278846,0,0,1.9278846,438.62543,476.3439)" />
    <g
       style="fill:#aaaabe;fill-rule:evenodd;stroke:none;stroke-width:1;fill-opacity:1"
       id="g4610"
       transform="matrix(0.785,0,0,0.785,449.01829,488.05819)">
      <g
         style="fill:#aaaabe;fill-opacity:1"
         id="g4608">
        <path
           inkscape:connector-curvature="0"
           d="M 69.997,26 H 69.996 30.005 29.987 27 L 26.991,22 H 41.592 58.408 73 l 0.01,4 z M 66.138,83.87 C 66.135,83.925 66.055,84 66.001,84 H 34 c -0.05,0 -0.134,-0.079 -0.137,-0.129 L 30.139,28 H 69.862 Z M 42.975,16.406 C 43.017,16.232 43.311,16 43.492,16 h 13.017 c 0.176,0 0.476,0.235 0.516,0.407 L 57.875,20 H 42.126 Z M 73.01,20 H 59.93 L 58.972,15.947 C 58.718,14.872 57.615,14 56.509,14 H 43.492 c -1.112,0 -2.209,0.872 -2.463,1.947 L 40.071,20 H 26.991 C 25.89,20 25,20.895 25,21.998 v 4.004 C 25,27.113 25.892,28 26.991,28 h 1.143 l 3.733,56.004 C 31.941,85.105 32.896,86 34,86 h 32.001 c 1.11,0 2.059,-0.894 2.133,-1.996 L 71.867,28 H 73.01 C 74.111,28 75,27.105 75,26.002 V 21.998 C 75,20.887 74.109,20 73.01,20 Z"
           id="path4600"
           style="fill:#aaaabe;fill-opacity:1" />
        <path
           inkscape:connector-curvature="0"
           d="m 41.0004,76 c 0.556,0 1,-0.451 1,-1.009 V 37.009 c 0,-0.56 -0.448,-1.009 -1,-1.009 -0.556,0 -1,0.452 -1,1.009 v 37.982 c 0,0.56 0.448,1.009 1,1.009"
           id="path4602"
           style="fill:#aaaabe;fill-opacity:1" />
        <path
           inkscape:connector-curvature="0"
           d="m 50.0004,76 c 0.556,0 1,-0.451 1,-1.009 V 37.009 c 0,-0.56 -0.448,-1.009 -1,-1.009 -0.556,0 -1,0.452 -1,1.009 v 37.982 c 0,0.56 0.448,1.009 1,1.009"
           id="path4604"
           style="fill:#aaaabe;fill-opacity:1" />
        <path
           inkscape:connector-curvature="0"
           d="m 59.0004,76 c 0.556,0 1,-0.451 1,-1.009 V 37.009 c 0,-0.56 -0.448,-1.009 -1,-1.009 -0.556,0 -1,0.452 -1,1.009 v 37.982 c 0,0.56 0.448,1.009 1,1.009"
           id="path4606"
           style="fill:#aaaabe;fill-opacity:1" />
      </g>
    </g>
  </g>
</svg>
