<?xml version="1.0" encoding="UTF-8" standalone="no"?>
<!-- Created with Inkscape (http://www.inkscape.org/) -->

<svg
   xmlns:ooo="http://xml.openoffice.org/svg/export"
   xmlns:dc="http://purl.org/dc/elements/1.1/"
   xmlns:cc="http://creativecommons.org/ns#"
   xmlns:rdf="http://www.w3.org/1999/02/22-rdf-syntax-ns#"
   xmlns:svg="http://www.w3.org/2000/svg"
   xmlns="http://www.w3.org/2000/svg"
   xmlns:sodipodi="http://sodipodi.sourceforge.net/DTD/sodipodi-0.dtd"
   xmlns:inkscape="http://www.inkscape.org/namespaces/inkscape"
   width="99.891998"
   height="99.891998"
   id="svg2"
   version="1.1"
   inkscape:version="0.92.2 5c3e80d, 2017-08-06"
   sodipodi:docname="up.svg">
  <defs
     id="defs4">
    <clipPath
       clipPathUnits="userSpaceOnUse"
       id="presentation_clip_path">
      <rect
         id="rect907"
         height="27940"
         width="21590"
         y="0"
         x="0" />
    </clipPath>
    <clipPath
       clipPathUnits="userSpaceOnUse"
       id="presentation_clip_path_shrink">
      <rect
         id="rect910"
         height="27885"
         width="21547"
         y="27"
         x="21" />
    </clipPath>
    <g
       id="g915"
       ooo:id-list="id3 id4"
       ooo:slide="id1" />
    <g
       transform="scale(0.00048828125,-0.00048828125)"
       id="bullet-char-template-57356">
      <path
         id="path919"
         d="M 580,1141 L 1163,571 580,0 -4,571 580,1141 Z" />
    </g>
    <g
       transform="scale(0.00048828125,-0.00048828125)"
       id="bullet-char-template-57354">
      <path
         id="path922"
         d="M 8,1128 L 1137,1128 1137,0 8,0 8,1128 Z" />
    </g>
    <g
       transform="scale(0.00048828125,-0.00048828125)"
       id="bullet-char-template-10146">
      <path
         id="path925"
         d="M 174,0 L 602,739 174,1481 1456,739 174,0 Z M 1358,739 L 309,1346 659,739 1358,739 Z" />
    </g>
    <g
       transform="scale(0.00048828125,-0.00048828125)"
       id="bullet-char-template-10132">
      <path
         id="path928"
         d="M 2015,739 L 1276,0 717,0 1260,543 174,543 174,936 1260,936 717,1481 1274,1481 2015,739 Z" />
    </g>
    <g
       transform="scale(0.00048828125,-0.00048828125)"
       id="bullet-char-template-10007">
      <path
         id="path931"
         d="M 0,-2 C -7,14 -16,27 -25,37 L 356,567 C 262,823 215,952 215,954 215,979 228,992 255,992 264,992 276,990 289,987 310,991 331,999 354,1012 L 381,999 492,748 772,1049 836,1024 860,1049 C 881,1039 901,1025 922,1006 886,937 835,863 770,784 769,783 710,716 594,584 L 774,223 C 774,196 753,168 711,139 L 727,119 C 717,90 699,76 672,76 641,76 570,178 457,381 L 164,-76 C 142,-110 111,-127 72,-127 30,-127 9,-110 8,-76 1,-67 -2,-52 -2,-32 -2,-23 -1,-13 0,-2 Z" />
    </g>
    <g
       transform="scale(0.00048828125,-0.00048828125)"
       id="bullet-char-template-10004">
      <path
         id="path934"
         d="M 285,-33 C 182,-33 111,30 74,156 52,228 41,333 41,471 41,549 55,616 82,672 116,743 169,778 240,778 293,778 328,747 346,684 L 369,508 C 377,444 397,411 428,410 L 1163,1116 C 1174,1127 1196,1133 1229,1133 1271,1133 1292,1118 1292,1087 L 1292,965 C 1292,929 1282,901 1262,881 L 442,47 C 390,-6 338,-33 285,-33 Z" />
    </g>
    <g
       transform="scale(0.00048828125,-0.00048828125)"
       id="bullet-char-template-9679">
      <path
         id="path937"
         d="M 813,0 C 632,0 489,54 383,161 276,268 223,411 223,592 223,773 276,916 383,1023 489,1130 632,1184 813,1184 992,1184 1136,1130 1245,1023 1353,916 1407,772 1407,592 1407,412 1353,268 1245,161 1136,54 992,0 813,0 Z" />
    </g>
    <g
       transform="scale(0.00048828125,-0.00048828125)"
       id="bullet-char-template-8226">
      <path
         id="path940"
         d="M 346,457 C 273,457 209,483 155,535 101,586 74,649 74,723 74,796 101,859 155,911 209,963 273,989 346,989 419,989 480,963 531,910 582,859 608,796 608,723 608,648 583,586 532,535 482,483 420,457 346,457 Z" />
    </g>
    <g
       transform="scale(0.00048828125,-0.00048828125)"
       id="bullet-char-template-8211">
      <path
         id="path943"
         d="M -4,459 L 1135,459 1135,606 -4,606 -4,459 Z" />
    </g>
    <g
       transform="scale(0.00048828125,-0.00048828125)"
       id="bullet-char-template-61548">
      <path
         id="path946"
         d="M 173,740 C 173,903 231,1043 346,1159 462,1274 601,1332 765,1332 928,1332 1067,1274 1183,1159 1299,1043 1357,903 1357,740 1357,577 1299,437 1183,322 1067,206 928,148 765,148 601,148 462,206 346,322 231,437 173,577 173,740 Z" />
    </g>
  </defs>
  <sodipodi:namedview
     id="base"
     pagecolor="#ffffff"
     bordercolor="#666666"
     borderopacity="1.0"
     inkscape:pageopacity="0.0"
     inkscape:pageshadow="2"
     inkscape:zoom="4"
     inkscape:cx="8.734657"
     inkscape:cy="72.859607"
     inkscape:document-units="px"
     inkscape:current-layer="layer1"
     showgrid="false"
     fit-margin-top="0"
     fit-margin-left="0"
     fit-margin-right="0"
     fit-margin-bottom="0"
     inkscape:window-width="1920"
     inkscape:window-height="1029"
     inkscape:window-x="0"
     inkscape:window-y="22"
     inkscape:window-maximized="1" />
  <metadata
     id="metadata7">
    <rdf:RDF>
      <cc:Work
         rdf:about="">
        <dc:format>image/svg+xml</dc:format>
        <dc:type
           rdf:resource="http://purl.org/dc/dcmitype/StillImage" />
        <dc:title />
      </cc:Work>
    </rdf:RDF>
  </metadata>
  <g
     inkscape:label="Layer 1"
     inkscape:groupmode="layer"
     id="layer1"
     transform="translate(-438.62543,-476.7019)">
    <path
       inkscape:connector-curvature="0"
       id="path2"
       d="m 538.51743,526.6479 c 0,-27.54 -22.406,-49.946 -49.946,-49.946 -27.54,0 -49.946,22.406 -49.946,49.946 0,27.54 22.406,49.946 49.946,49.946 27.54,0 49.946,-22.405 49.946,-49.946 z m -97.893,0 c 0,-26.437 21.509,-47.946 47.947,-47.946 26.438,0 47.946,21.509 47.946,47.946 0,26.437 -21.509,47.946 -47.946,47.946 -26.437,0 -47.947,-21.508 -47.947,-47.946 z"
       style="fill:#aaaabe;fill-opacity:1" />
    <g
       id="background"
       transform="rotate(90,636.18644,504.88499)"
       style="fill:#aaaabe;fill-opacity:1" />
    <g
       id="design"
       transform="rotate(90,636.18644,504.88499)"
       style="fill:#aaaabe;fill-opacity:1" />
    <g
       style="fill:#aaaabe;fill-opacity:1"
       id="g961"
       transform="matrix(0,1.3539399,-1.3539399,0,518.04638,585.61856)" />
    <g
       style="fill:#aaaabe;fill-opacity:1"
       id="g963"
       transform="matrix(0,1.3539399,-1.3539399,0,518.04638,585.61856)" />
    <g
       style="fill:#aaaabe;fill-opacity:1"
       id="g965"
       transform="matrix(0,1.3539399,-1.3539399,0,518.04638,585.61856)" />
    <g
       style="fill:#aaaabe;fill-opacity:1"
       id="g967"
       transform="matrix(0,1.3539399,-1.3539399,0,518.04638,585.61856)" />
    <g
       style="fill:#aaaabe;fill-opacity:1"
       id="g969"
       transform="matrix(0,1.3539399,-1.3539399,0,518.04638,585.61856)" />
    <g
       style="fill:#aaaabe;fill-opacity:1"
       id="g971"
       transform="matrix(0,1.3539399,-1.3539399,0,518.04638,585.61856)" />
    <g
       style="fill:#aaaabe;fill-opacity:1"
       id="g973"
       transform="matrix(0,1.3539399,-1.3539399,0,518.04638,585.61856)" />
    <g
       style="fill:#aaaabe;fill-opacity:1"
       id="g975"
       transform="matrix(0,1.3539399,-1.3539399,0,518.04638,585.61856)" />
    <g
       style="fill:#aaaabe;fill-opacity:1"
       id="g977"
       transform="matrix(0,1.3539399,-1.3539399,0,518.04638,585.61856)" />
    <g
       style="fill:#aaaabe;fill-opacity:1"
       id="g979"
       transform="matrix(0,1.3539399,-1.3539399,0,518.04638,585.61856)" />
    <g
       style="fill:#aaaabe;fill-opacity:1"
       id="g981"
       transform="matrix(0,1.3539399,-1.3539399,0,518.04638,585.61856)" />
    <g
       style="fill:#aaaabe;fill-opacity:1"
       id="g983"
       transform="matrix(0,1.3539399,-1.3539399,0,518.04638,585.61856)" />
    <g
       style="fill:#aaaabe;fill-opacity:1"
       id="g985"
       transform="matrix(0,1.3539399,-1.3539399,0,518.04638,585.61856)" />
    <g
       style="fill:#aaaabe;fill-opacity:1"
       id="g987"
       transform="matrix(0,1.3539399,-1.3539399,0,518.04638,585.61856)" />
    <g
       style="fill:#aaaabe;fill-opacity:1"
       id="g989"
       transform="matrix(0,1.3539399,-1.3539399,0,518.04638,585.61856)" />
    <g
       style="fill:#aaaabe;fill-opacity:1"
       transform="rotate(90,-62.143865,666.70868)"
       id="g1392" />
    <g
       style="fill:#aaaabe;fill-opacity:1"
       transform="rotate(90,-62.143865,666.70868)"
       id="g1394" />
    <g
       style="fill:#aaaabe;fill-opacity:1"
       transform="rotate(90,-62.143865,666.70868)"
       id="g1396" />
    <g
       style="fill:#aaaabe;fill-opacity:1"
       transform="rotate(90,-62.143865,666.70868)"
       id="g1398" />
    <g
       style="fill:#aaaabe;fill-opacity:1"
       transform="rotate(90,-62.143865,666.70868)"
       id="g1400" />
    <g
       style="fill:#aaaabe;fill-opacity:1"
       transform="rotate(90,-62.143865,666.70868)"
       id="g1402" />
    <g
       style="fill:#aaaabe;fill-opacity:1"
       transform="rotate(90,-62.143865,666.70868)"
       id="g1404" />
    <g
       style="fill:#aaaabe;fill-opacity:1"
       transform="rotate(90,-62.143865,666.70868)"
       id="g1406" />
    <g
       style="fill:#aaaabe;fill-opacity:1"
       transform="rotate(90,-62.143865,666.70868)"
       id="g1408" />
    <g
       style="fill:#aaaabe;fill-opacity:1"
       transform="rotate(90,-62.143865,666.70868)"
       id="g1410" />
    <g
       style="fill:#aaaabe;fill-opacity:1"
       transform="rotate(90,-62.143865,666.70868)"
       id="g1412" />
    <g
       style="fill:#aaaabe;fill-opacity:1"
       transform="rotate(90,-62.143865,666.70868)"
       id="g1414" />
    <g
       style="fill:#aaaabe;fill-opacity:1"
       transform="rotate(90,-62.143865,666.70868)"
       id="g1416" />
    <g
       style="fill:#aaaabe;fill-opacity:1"
       transform="rotate(90,-62.143865,666.70868)"
       id="g1418" />
    <g
       style="fill:#aaaabe;fill-opacity:1"
       transform="rotate(90,-62.143865,666.70868)"
       id="g1420" />
    <g
       style="fill:#aaaabe;fill-opacity:1"
       transform="rotate(90,-158.7975,624.46006)"
       id="g1485" />
    <g
       style="fill:#aaaabe;fill-opacity:1"
       transform="rotate(90,-158.7975,624.46006)"
       id="g1487" />
    <g
       style="fill:#aaaabe;fill-opacity:1"
       transform="rotate(90,-158.7975,624.46006)"
       id="g1489" />
    <g
       style="fill:#aaaabe;fill-opacity:1"
       transform="rotate(90,-158.7975,624.46006)"
       id="g1491" />
    <g
       style="fill:#aaaabe;fill-opacity:1"
       transform="rotate(90,-158.7975,624.46006)"
       id="g1493" />
    <g
       style="fill:#aaaabe;fill-opacity:1"
       transform="rotate(90,-158.7975,624.46006)"
       id="g1495" />
    <g
       style="fill:#aaaabe;fill-opacity:1"
       transform="rotate(90,-158.7975,624.46006)"
       id="g1497" />
    <g
       style="fill:#aaaabe;fill-opacity:1"
       transform="rotate(90,-158.7975,624.46006)"
       id="g1499" />
    <g
       style="fill:#aaaabe;fill-opacity:1"
       transform="rotate(90,-158.7975,624.46006)"
       id="g1501" />
    <g
       style="fill:#aaaabe;fill-opacity:1"
       transform="rotate(90,-158.7975,624.46006)"
       id="g1503" />
    <g
       style="fill:#aaaabe;fill-opacity:1"
       transform="rotate(90,-158.7975,624.46006)"
       id="g1505" />
    <g
       style="fill:#aaaabe;fill-opacity:1"
       transform="rotate(90,-158.7975,624.46006)"
       id="g1507" />
    <g
       style="fill:#aaaabe;fill-opacity:1"
       transform="rotate(90,-158.7975,624.46006)"
       id="g1509" />
    <g
       style="fill:#aaaabe;fill-opacity:1"
       transform="rotate(90,-158.7975,624.46006)"
       id="g1511" />
    <g
       style="fill:#aaaabe;fill-opacity:1"
       transform="rotate(90,-158.7975,624.46006)"
       id="g1513" />
    <g
       id="g1034"
       transform="matrix(0,0.18410756,-0.18410756,0,548.16836,567.04433)"
       style="fill:#aaaabe;fill-opacity:1" />
    <g
       id="g1036"
       transform="matrix(0,0.18410756,-0.18410756,0,548.16836,567.04433)"
       style="fill:#aaaabe;fill-opacity:1" />
    <g
       id="g1038"
       transform="matrix(0,0.18410756,-0.18410756,0,548.16836,567.04433)"
       style="fill:#aaaabe;fill-opacity:1" />
    <g
       id="g1040"
       transform="matrix(0,0.18410756,-0.18410756,0,548.16836,567.04433)"
       style="fill:#aaaabe;fill-opacity:1" />
    <g
       id="g1042"
       transform="matrix(0,0.18410756,-0.18410756,0,548.16836,567.04433)"
       style="fill:#aaaabe;fill-opacity:1" />
    <g
       id="g1044"
       transform="matrix(0,0.18410756,-0.18410756,0,548.16836,567.04433)"
       style="fill:#aaaabe;fill-opacity:1" />
    <g
       id="g1046"
       transform="matrix(0,0.18410756,-0.18410756,0,548.16836,567.04433)"
       style="fill:#aaaabe;fill-opacity:1" />
    <g
       id="g1048"
       transform="matrix(0,0.18410756,-0.18410756,0,548.16836,567.04433)"
       style="fill:#aaaabe;fill-opacity:1" />
    <g
       id="g1050"
       transform="matrix(0,0.18410756,-0.18410756,0,548.16836,567.04433)"
       style="fill:#aaaabe;fill-opacity:1" />
    <g
       id="g1052"
       transform="matrix(0,0.18410756,-0.18410756,0,548.16836,567.04433)"
       style="fill:#aaaabe;fill-opacity:1" />
    <g
       id="g1054"
       transform="matrix(0,0.18410756,-0.18410756,0,548.16836,567.04433)"
       style="fill:#aaaabe;fill-opacity:1" />
    <g
       id="g1056"
       transform="matrix(0,0.18410756,-0.18410756,0,548.16836,567.04433)"
       style="fill:#aaaabe;fill-opacity:1" />
    <g
       id="g1058"
       transform="matrix(0,0.18410756,-0.18410756,0,548.16836,567.04433)"
       style="fill:#aaaabe;fill-opacity:1" />
    <g
       id="g1060"
       transform="matrix(0,0.18410756,-0.18410756,0,548.16836,567.04433)"
       style="fill:#aaaabe;fill-opacity:1" />
    <g
       id="g1062"
       transform="matrix(0,0.18410756,-0.18410756,0,548.16836,567.04433)"
       style="fill:#aaaabe;fill-opacity:1" />
    <g
       id="g1291"
       transform="rotate(90,216.00765,560.64367)"
       style="fill:#aaaabe;fill-opacity:1" />
    <g
       id="g1293"
       transform="rotate(90,216.00765,560.64367)"
       style="fill:#aaaabe;fill-opacity:1" />
    <g
       id="g1295"
       transform="rotate(90,216.00765,560.64367)"
       style="fill:#aaaabe;fill-opacity:1" />
    <g
       id="g1297"
       transform="rotate(90,216.00765,560.64367)"
       style="fill:#aaaabe;fill-opacity:1" />
    <g
       id="g1299"
       transform="rotate(90,216.00765,560.64367)"
       style="fill:#aaaabe;fill-opacity:1" />
    <g
       id="g1301"
       transform="rotate(90,216.00765,560.64367)"
       style="fill:#aaaabe;fill-opacity:1" />
    <g
       id="g1303"
       transform="rotate(90,216.00765,560.64367)"
       style="fill:#aaaabe;fill-opacity:1" />
    <g
       id="g1305"
       transform="rotate(90,216.00765,560.64367)"
       style="fill:#aaaabe;fill-opacity:1" />
    <g
       id="g1307"
       transform="rotate(90,216.00765,560.64367)"
       style="fill:#aaaabe;fill-opacity:1" />
    <g
       id="g1309"
       transform="rotate(90,216.00765,560.64367)"
       style="fill:#aaaabe;fill-opacity:1" />
    <g
       id="g1311"
       transform="rotate(90,216.00765,560.64367)"
       style="fill:#aaaabe;fill-opacity:1" />
    <g
       id="g1313"
       transform="rotate(90,216.00765,560.64367)"
       style="fill:#aaaabe;fill-opacity:1" />
    <g
       id="g1315"
       transform="rotate(90,216.00765,560.64367)"
       style="fill:#aaaabe;fill-opacity:1" />
    <g
       id="g1317"
       transform="rotate(90,216.00765,560.64367)"
       style="fill:#aaaabe;fill-opacity:1" />
    <g
       id="g1319"
       transform="rotate(90,216.00765,560.64367)"
       style="fill:#aaaabe;fill-opacity:1" />
    <g
       id="g8"
       style="fill:#aaaabe;fill-opacity:1"
       transform="matrix(0,1.9278846,-1.9278846,0,538.87543,576.5939)" />
    <g
       id="g10"
       style="fill:#aaaabe;fill-opacity:1"
       transform="matrix(0,1.9278846,-1.9278846,0,538.87543,576.5939)" />
    <g
       id="g12"
       style="fill:#aaaabe;fill-opacity:1"
       transform="matrix(0,1.9278846,-1.9278846,0,538.87543,576.5939)" />
    <g
       id="g14"
       style="fill:#aaaabe;fill-opacity:1"
       transform="matrix(0,1.9278846,-1.9278846,0,538.87543,576.5939)" />
    <g
       id="g16"
       style="fill:#aaaabe;fill-opacity:1"
       transform="matrix(0,1.9278846,-1.9278846,0,538.87543,576.5939)" />
    <g
       id="g18"
       style="fill:#aaaabe;fill-opacity:1"
       transform="matrix(0,1.9278846,-1.9278846,0,538.87543,576.5939)" />
    <g
       id="g20"
       style="fill:#aaaabe;fill-opacity:1"
       transform="matrix(0,1.9278846,-1.9278846,0,538.87543,576.5939)" />
    <g
       id="g22"
       style="fill:#aaaabe;fill-opacity:1"
       transform="matrix(0,1.9278846,-1.9278846,0,538.87543,576.5939)" />
    <g
       id="g24"
       style="fill:#aaaabe;fill-opacity:1"
       transform="matrix(0,1.9278846,-1.9278846,0,538.87543,576.5939)" />
    <g
       id="g26"
       style="fill:#aaaabe;fill-opacity:1"
       transform="matrix(0,1.9278846,-1.9278846,0,538.87543,576.5939)" />
    <g
       id="g28"
       style="fill:#aaaabe;fill-opacity:1"
       transform="matrix(0,1.9278846,-1.9278846,0,538.87543,576.5939)" />
    <g
       id="g30"
       style="fill:#aaaabe;fill-opacity:1"
       transform="matrix(0,1.9278846,-1.9278846,0,538.87543,576.5939)" />
    <g
       id="g32"
       style="fill:#aaaabe;fill-opacity:1"
       transform="matrix(0,1.9278846,-1.9278846,0,538.87543,576.5939)" />
    <g
       id="g34"
       style="fill:#aaaabe;fill-opacity:1"
       transform="matrix(0,1.9278846,-1.9278846,0,538.87543,576.5939)" />
    <g
       id="g36"
       style="fill:#aaaabe;fill-opacity:1"
       transform="matrix(0,1.9278846,-1.9278846,0,538.87543,576.5939)" />
    <g
       id="g1161"
       transform="matrix(0,1.7575684,-1.7575684,0,517.25121,497.96878)"
       style="fill:#aaaabe;fill-opacity:1">
      <path
         inkscape:connector-curvature="0"
         d="M 32.135,16.817 H 0.5 c -0.276,0 -0.5,-0.224 -0.5,-0.5 0,-0.276 0.224,-0.5 0.5,-0.5 h 31.635 c 0.276,0 0.5,0.224 0.5,0.5 0,0.276 -0.224,0.5 -0.5,0.5 z"
         id="path1157"
         style="fill:#aaaabe;fill-opacity:1" />
      <path
         inkscape:connector-curvature="0"
         d="m 13.037,29.353 c -0.128,0 -0.256,-0.049 -0.354,-0.146 L 0.146,16.669 C 0.053,16.575 0,16.448 0,16.315 0,16.182 0.053,16.055 0.146,15.961 L 12.684,3.429 c 0.195,-0.195 0.512,-0.195 0.707,0 0.195,0.195 0.195,0.512 0,0.707 L 1.207,16.315 13.391,28.499 c 0.195,0.195 0.195,0.512 0,0.707 -0.098,0.098 -0.226,0.147 -0.354,0.147 z"
         id="path1159"
         style="fill:#aaaabe;fill-opacity:1" />
    </g>
    <g
       id="g1163"
       transform="rotate(90,-48.416545,548.10985)"
       style="fill:#aaaabe;fill-opacity:1" />
    <g
       id="g1165"
       transform="rotate(90,-48.416545,548.10985)"
       style="fill:#aaaabe;fill-opacity:1" />
    <g
       id="g1167"
       transform="rotate(90,-48.416545,548.10985)"
       style="fill:#aaaabe;fill-opacity:1" />
    <g
       id="g1169"
       transform="rotate(90,-48.416545,548.10985)"
       style="fill:#aaaabe;fill-opacity:1" />
    <g
       id="g1171"
       transform="rotate(90,-48.416545,548.10985)"
       style="fill:#aaaabe;fill-opacity:1" />
    <g
       id="g1173"
       transform="rotate(90,-48.416545,548.10985)"
       style="fill:#aaaabe;fill-opacity:1" />
    <g
       id="g1175"
       transform="rotate(90,-48.416545,548.10985)"
       style="fill:#aaaabe;fill-opacity:1" />
    <g
       id="g1177"
       transform="rotate(90,-48.416545,548.10985)"
       style="fill:#aaaabe;fill-opacity:1" />
    <g
       id="g1179"
       transform="rotate(90,-48.416545,548.10985)"
       style="fill:#aaaabe;fill-opacity:1" />
    <g
       id="g1181"
       transform="rotate(90,-48.416545,548.10985)"
       style="fill:#aaaabe;fill-opacity:1" />
    <g
       id="g1183"
       transform="rotate(90,-48.416545,548.10985)"
       style="fill:#aaaabe;fill-opacity:1" />
    <g
       id="g1185"
       transform="rotate(90,-48.416545,548.10985)"
       style="fill:#aaaabe;fill-opacity:1" />
    <g
       id="g1187"
       transform="rotate(90,-48.416545,548.10985)"
       style="fill:#aaaabe;fill-opacity:1" />
    <g
       id="g1189"
       transform="rotate(90,-48.416545,548.10985)"
       style="fill:#aaaabe;fill-opacity:1" />
    <g
       id="g1191"
       transform="rotate(90,-48.416545,548.10985)"
       style="fill:#aaaabe;fill-opacity:1" />
  </g>
</svg>
