<?xml version="1.0" encoding="UTF-8" standalone="no"?>
<!-- Created with Inkscape (http://www.inkscape.org/) -->

<svg
   xmlns:dc="http://purl.org/dc/elements/1.1/"
   xmlns:cc="http://creativecommons.org/ns#"
   xmlns:rdf="http://www.w3.org/1999/02/22-rdf-syntax-ns#"
   xmlns:svg="http://www.w3.org/2000/svg"
   xmlns="http://www.w3.org/2000/svg"
   xmlns:sodipodi="http://sodipodi.sourceforge.net/DTD/sodipodi-0.dtd"
   xmlns:inkscape="http://www.inkscape.org/namespaces/inkscape"
   width="99.891998"
   height="99.891998"
   id="svg2"
   version="1.1"
   inkscape:version="0.92.2 5c3e80d, 2017-08-06"
   sodipodi:docname="pending.svg">
  <defs
     id="defs4" />
  <sodipodi:namedview
     id="base"
     pagecolor="#ffffff"
     bordercolor="#666666"
     borderopacity="1.0"
     inkscape:pageopacity="0.0"
     inkscape:pageshadow="2"
     inkscape:zoom="4"
     inkscape:cx="10.515899"
     inkscape:cy="28.398406"
     inkscape:document-units="px"
     inkscape:current-layer="layer1"
     showgrid="false"
     fit-margin-top="0"
     fit-margin-left="0"
     fit-margin-right="0"
     fit-margin-bottom="0"
     inkscape:window-width="1920"
     inkscape:window-height="991"
     inkscape:window-x="0"
     inkscape:window-y="22"
     inkscape:window-maximized="1" />
  <metadata
     id="metadata7">
    <rdf:RDF>
      <cc:Work
         rdf:about="">
        <dc:format>image/svg+xml</dc:format>
        <dc:type
           rdf:resource="http://purl.org/dc/dcmitype/StillImage" />
        <dc:title />
      </cc:Work>
    </rdf:RDF>
  </metadata>
  <g
     inkscape:label="Layer 1"
     inkscape:groupmode="layer"
     id="layer1"
     transform="translate(-438.62543,-476.7019)">
    <path
       inkscape:connector-curvature="0"
       id="path2"
       d="m 488.26829,477.36219 c -27.54,0 -49.946,22.406 -49.946,49.946 0,27.54 22.406,49.946 49.946,49.946 27.54,0 49.946,-22.406 49.946,-49.946 0,-27.54 -22.405,-49.946 -49.946,-49.946 z m 0,97.893 c -26.437,0 -47.946,-21.509 -47.946,-47.947 0,-26.438 21.509,-47.946 47.946,-47.946 26.437,0 47.946,21.509 47.946,47.946 0,26.437 -21.508,47.947 -47.946,47.947 z"
       style="fill:#aaaabe;fill-opacity:1" />
    <g
       id="background"
       transform="translate(-269.26992,-125.8521)"
       style="fill:#aaaabe;fill-opacity:1" />
    <g
       id="design"
       transform="translate(-269.26992,-125.8521)"
       style="fill:#aaaabe;fill-opacity:1" />
    <g
       style="fill:#aaaabe;fill-opacity:1"
       id="g961"
       transform="matrix(1.3539399,0,0,1.3539399,447.65009,497.17295)" />
    <g
       style="fill:#aaaabe;fill-opacity:1"
       id="g963"
       transform="matrix(1.3539399,0,0,1.3539399,447.65009,497.17295)" />
    <g
       style="fill:#aaaabe;fill-opacity:1"
       id="g965"
       transform="matrix(1.3539399,0,0,1.3539399,447.65009,497.17295)" />
    <g
       style="fill:#aaaabe;fill-opacity:1"
       id="g967"
       transform="matrix(1.3539399,0,0,1.3539399,447.65009,497.17295)" />
    <g
       style="fill:#aaaabe;fill-opacity:1"
       id="g969"
       transform="matrix(1.3539399,0,0,1.3539399,447.65009,497.17295)" />
    <g
       style="fill:#aaaabe;fill-opacity:1"
       id="g971"
       transform="matrix(1.3539399,0,0,1.3539399,447.65009,497.17295)" />
    <g
       style="fill:#aaaabe;fill-opacity:1"
       id="g973"
       transform="matrix(1.3539399,0,0,1.3539399,447.65009,497.17295)" />
    <g
       style="fill:#aaaabe;fill-opacity:1"
       id="g975"
       transform="matrix(1.3539399,0,0,1.3539399,447.65009,497.17295)" />
    <g
       style="fill:#aaaabe;fill-opacity:1"
       id="g977"
       transform="matrix(1.3539399,0,0,1.3539399,447.65009,497.17295)" />
    <g
       style="fill:#aaaabe;fill-opacity:1"
       id="g979"
       transform="matrix(1.3539399,0,0,1.3539399,447.65009,497.17295)" />
    <g
       style="fill:#aaaabe;fill-opacity:1"
       id="g981"
       transform="matrix(1.3539399,0,0,1.3539399,447.65009,497.17295)" />
    <g
       style="fill:#aaaabe;fill-opacity:1"
       id="g983"
       transform="matrix(1.3539399,0,0,1.3539399,447.65009,497.17295)" />
    <g
       style="fill:#aaaabe;fill-opacity:1"
       id="g985"
       transform="matrix(1.3539399,0,0,1.3539399,447.65009,497.17295)" />
    <g
       style="fill:#aaaabe;fill-opacity:1"
       id="g987"
       transform="matrix(1.3539399,0,0,1.3539399,447.65009,497.17295)" />
    <g
       style="fill:#aaaabe;fill-opacity:1"
       id="g989"
       transform="matrix(1.3539399,0,0,1.3539399,447.65009,497.17295)" />
    <g
       style="fill:#aaaabe;fill-opacity:1"
       transform="translate(590.88408,410.65451)"
       id="g1392" />
    <g
       style="fill:#aaaabe;fill-opacity:1"
       transform="translate(590.88408,410.65451)"
       id="g1394" />
    <g
       style="fill:#aaaabe;fill-opacity:1"
       transform="translate(590.88408,410.65451)"
       id="g1396" />
    <g
       style="fill:#aaaabe;fill-opacity:1"
       transform="translate(590.88408,410.65451)"
       id="g1398" />
    <g
       style="fill:#aaaabe;fill-opacity:1"
       transform="translate(590.88408,410.65451)"
       id="g1400" />
    <g
       style="fill:#aaaabe;fill-opacity:1"
       transform="translate(590.88408,410.65451)"
       id="g1402" />
    <g
       style="fill:#aaaabe;fill-opacity:1"
       transform="translate(590.88408,410.65451)"
       id="g1404" />
    <g
       style="fill:#aaaabe;fill-opacity:1"
       transform="translate(590.88408,410.65451)"
       id="g1406" />
    <g
       style="fill:#aaaabe;fill-opacity:1"
       transform="translate(590.88408,410.65451)"
       id="g1408" />
    <g
       style="fill:#aaaabe;fill-opacity:1"
       transform="translate(590.88408,410.65451)"
       id="g1410" />
    <g
       style="fill:#aaaabe;fill-opacity:1"
       transform="translate(590.88408,410.65451)"
       id="g1412" />
    <g
       style="fill:#aaaabe;fill-opacity:1"
       transform="translate(590.88408,410.65451)"
       id="g1414" />
    <g
       style="fill:#aaaabe;fill-opacity:1"
       transform="translate(590.88408,410.65451)"
       id="g1416" />
    <g
       style="fill:#aaaabe;fill-opacity:1"
       transform="translate(590.88408,410.65451)"
       id="g1418" />
    <g
       style="fill:#aaaabe;fill-opacity:1"
       transform="translate(590.88408,410.65451)"
       id="g1420" />
    <g
       style="fill:#aaaabe;fill-opacity:1"
       transform="translate(645.2891,549.55677)"
       id="g1485" />
    <g
       style="fill:#aaaabe;fill-opacity:1"
       transform="translate(645.2891,549.55677)"
       id="g1487" />
    <g
       style="fill:#aaaabe;fill-opacity:1"
       transform="translate(645.2891,549.55677)"
       id="g1489" />
    <g
       style="fill:#aaaabe;fill-opacity:1"
       transform="translate(645.2891,549.55677)"
       id="g1491" />
    <g
       style="fill:#aaaabe;fill-opacity:1"
       transform="translate(645.2891,549.55677)"
       id="g1493" />
    <g
       style="fill:#aaaabe;fill-opacity:1"
       transform="translate(645.2891,549.55677)"
       id="g1495" />
    <g
       style="fill:#aaaabe;fill-opacity:1"
       transform="translate(645.2891,549.55677)"
       id="g1497" />
    <g
       style="fill:#aaaabe;fill-opacity:1"
       transform="translate(645.2891,549.55677)"
       id="g1499" />
    <g
       style="fill:#aaaabe;fill-opacity:1"
       transform="translate(645.2891,549.55677)"
       id="g1501" />
    <g
       style="fill:#aaaabe;fill-opacity:1"
       transform="translate(645.2891,549.55677)"
       id="g1503" />
    <g
       style="fill:#aaaabe;fill-opacity:1"
       transform="translate(645.2891,549.55677)"
       id="g1505" />
    <g
       style="fill:#aaaabe;fill-opacity:1"
       transform="translate(645.2891,549.55677)"
       id="g1507" />
    <g
       style="fill:#aaaabe;fill-opacity:1"
       transform="translate(645.2891,549.55677)"
       id="g1509" />
    <g
       style="fill:#aaaabe;fill-opacity:1"
       transform="translate(645.2891,549.55677)"
       id="g1511" />
    <g
       style="fill:#aaaabe;fill-opacity:1"
       transform="translate(645.2891,549.55677)"
       id="g1513" />
    <g
       id="g1034"
       transform="matrix(0.18410756,0,0,0.18410756,429.07586,467.05097)" />
    <g
       id="g1036"
       transform="matrix(0.18410756,0,0,0.18410756,429.07586,467.05097)" />
    <g
       id="g1038"
       transform="matrix(0.18410756,0,0,0.18410756,429.07586,467.05097)" />
    <g
       id="g1040"
       transform="matrix(0.18410756,0,0,0.18410756,429.07586,467.05097)" />
    <g
       id="g1042"
       transform="matrix(0.18410756,0,0,0.18410756,429.07586,467.05097)" />
    <g
       id="g1044"
       transform="matrix(0.18410756,0,0,0.18410756,429.07586,467.05097)" />
    <g
       id="g1046"
       transform="matrix(0.18410756,0,0,0.18410756,429.07586,467.05097)" />
    <g
       id="g1048"
       transform="matrix(0.18410756,0,0,0.18410756,429.07586,467.05097)" />
    <g
       id="g1050"
       transform="matrix(0.18410756,0,0,0.18410756,429.07586,467.05097)" />
    <g
       id="g1052"
       transform="matrix(0.18410756,0,0,0.18410756,429.07586,467.05097)" />
    <g
       id="g1054"
       transform="matrix(0.18410756,0,0,0.18410756,429.07586,467.05097)" />
    <g
       id="g1056"
       transform="matrix(0.18410756,0,0,0.18410756,429.07586,467.05097)" />
    <g
       id="g1058"
       transform="matrix(0.18410756,0,0,0.18410756,429.07586,467.05097)" />
    <g
       id="g1060"
       transform="matrix(0.18410756,0,0,0.18410756,429.07586,467.05097)" />
    <g
       id="g1062"
       transform="matrix(0.18410756,0,0,0.18410756,429.07586,467.05097)" />
    <g
       id="g1291"
       transform="translate(206.66756,238.56801)" />
    <g
       id="g1293"
       transform="translate(206.66756,238.56801)" />
    <g
       id="g1295"
       transform="translate(206.66756,238.56801)" />
    <g
       id="g1297"
       transform="translate(206.66756,238.56801)" />
    <g
       id="g1299"
       transform="translate(206.66756,238.56801)" />
    <g
       id="g1301"
       transform="translate(206.66756,238.56801)" />
    <g
       id="g1303"
       transform="translate(206.66756,238.56801)" />
    <g
       id="g1305"
       transform="translate(206.66756,238.56801)" />
    <g
       id="g1307"
       transform="translate(206.66756,238.56801)" />
    <g
       id="g1309"
       transform="translate(206.66756,238.56801)" />
    <g
       id="g1311"
       transform="translate(206.66756,238.56801)" />
    <g
       id="g1313"
       transform="translate(206.66756,238.56801)" />
    <g
       id="g1315"
       transform="translate(206.66756,238.56801)" />
    <g
       id="g1317"
       transform="translate(206.66756,238.56801)" />
    <g
       id="g1319"
       transform="translate(206.66756,238.56801)" />
    <g
       id="g8"
       style="fill:#aaaabe;fill-opacity:1"
       transform="matrix(1.9278846,0,0,1.9278846,438.62543,476.3439)" />
    <g
       id="g10"
       style="fill:#aaaabe;fill-opacity:1"
       transform="matrix(1.9278846,0,0,1.9278846,438.62543,476.3439)" />
    <g
       id="g12"
       style="fill:#aaaabe;fill-opacity:1"
       transform="matrix(1.9278846,0,0,1.9278846,438.62543,476.3439)" />
    <g
       id="g14"
       style="fill:#aaaabe;fill-opacity:1"
       transform="matrix(1.9278846,0,0,1.9278846,438.62543,476.3439)" />
    <g
       id="g16"
       style="fill:#aaaabe;fill-opacity:1"
       transform="matrix(1.9278846,0,0,1.9278846,438.62543,476.3439)" />
    <g
       id="g18"
       style="fill:#aaaabe;fill-opacity:1"
       transform="matrix(1.9278846,0,0,1.9278846,438.62543,476.3439)" />
    <g
       id="g20"
       style="fill:#aaaabe;fill-opacity:1"
       transform="matrix(1.9278846,0,0,1.9278846,438.62543,476.3439)" />
    <g
       id="g22"
       style="fill:#aaaabe;fill-opacity:1"
       transform="matrix(1.9278846,0,0,1.9278846,438.62543,476.3439)" />
    <g
       id="g24"
       style="fill:#aaaabe;fill-opacity:1"
       transform="matrix(1.9278846,0,0,1.9278846,438.62543,476.3439)" />
    <g
       id="g26"
       style="fill:#aaaabe;fill-opacity:1"
       transform="matrix(1.9278846,0,0,1.9278846,438.62543,476.3439)" />
    <g
       id="g28"
       style="fill:#aaaabe;fill-opacity:1"
       transform="matrix(1.9278846,0,0,1.9278846,438.62543,476.3439)" />
    <g
       id="g30"
       style="fill:#aaaabe;fill-opacity:1"
       transform="matrix(1.9278846,0,0,1.9278846,438.62543,476.3439)" />
    <g
       id="g32"
       style="fill:#aaaabe;fill-opacity:1"
       transform="matrix(1.9278846,0,0,1.9278846,438.62543,476.3439)" />
    <g
       id="g34"
       style="fill:#aaaabe;fill-opacity:1"
       transform="matrix(1.9278846,0,0,1.9278846,438.62543,476.3439)" />
    <g
       id="g36"
       style="fill:#aaaabe;fill-opacity:1"
       transform="matrix(1.9278846,0,0,1.9278846,438.62543,476.3439)" />
    <g
       id="g4660"
       transform="matrix(0.89,0,0,0.89,461.56829,500.60819)"
       style="fill:#aaaabe;fill-opacity:1">
      <g
         id="g4602"
         style="fill:#aaaabe;fill-opacity:1">
        <path
           id="path4596"
           d="M 54,58 H 51 V 54 H 46 V 43.778 c 0,-2.7 -1.342,-5.208 -3.589,-6.706 L 31.803,30 42.411,22.928 C 44.658,21.43 46,18.922 46,16.222 V 6 h 5 V 2 h 3 C 54.552,2 55,1.553 55,1 55,0.447 54.552,0 54,0 H 51 50 10 9 6 C 5.448,0 5,0.447 5,1 5,1.553 5.448,2 6,2 h 3 v 4 h 5 v 10.222 c 0,2.7 1.342,5.208 3.589,6.706 L 28.197,30 17.589,37.072 C 15.342,38.57 14,41.078 14,43.778 V 54 H 9 v 4 H 6 c -0.552,0 -1,0.447 -1,1 0,0.553 0.448,1 1,1 h 3 1 40 1 3 c 0.552,0 1,-0.447 1,-1 0,-0.553 -0.448,-1 -1,-1 z M 11,4 V 2 H 49 V 4 H 46 14 Z m 7.698,17.264 C 17.009,20.137 16,18.252 16,16.222 V 6 h 28 v 10.222 c 0,2.03 -1.009,3.915 -2.698,5.042 L 30,28.798 Z M 16,43.778 c 0,-2.03 1.009,-3.915 2.698,-5.042 L 30,31.202 41.302,38.736 C 42.991,39.863 44,41.748 44,43.778 V 54 H 16 Z M 11,56 h 3 32 3 v 2 H 11 Z"
           inkscape:connector-curvature="0"
           style="fill:#aaaabe;fill-opacity:1" />
        <path
           id="path4598"
           d="M 20.917,17.936 C 20.343,17.553 20,16.912 20,16.222 V 14 c 0,-0.553 -0.448,-1 -1,-1 -0.552,0 -1,0.447 -1,1 v 2.222 c 0,1.361 0.676,2.624 1.808,3.378 l 4.638,3.092 c 0.17,0.113 0.363,0.168 0.554,0.168 0.323,0 0.64,-0.156 0.833,-0.445 0.306,-0.46 0.182,-1.08 -0.277,-1.387 z"
           inkscape:connector-curvature="0"
           style="fill:#aaaabe;fill-opacity:1" />
        <path
           id="path4600"
           d="m 40.192,41.26 -4.638,-3.092 c -0.46,-0.307 -1.08,-0.183 -1.387,0.277 -0.306,0.46 -0.182,1.08 0.277,1.387 l 4.638,3.092 C 39.657,43.307 40,43.947 40,44.638 v 2.222 c 0,0.553 0.448,1 1,1 0.552,0 1,-0.447 1,-1 v -2.222 c 0,-1.362 -0.676,-2.624 -1.808,-3.378 z"
           inkscape:connector-curvature="0"
           style="fill:#aaaabe;fill-opacity:1" />
      </g>
      <g
         id="g4604"
         style="fill:#aaaabe;fill-opacity:1" />
      <g
         id="g4606"
         style="fill:#aaaabe;fill-opacity:1" />
      <g
         id="g4608"
         style="fill:#aaaabe;fill-opacity:1" />
      <g
         id="g4610"
         style="fill:#aaaabe;fill-opacity:1" />
      <g
         id="g4612"
         style="fill:#aaaabe;fill-opacity:1" />
      <g
         id="g4614"
         style="fill:#aaaabe;fill-opacity:1" />
      <g
         id="g4616"
         style="fill:#aaaabe;fill-opacity:1" />
      <g
         id="g4618"
         style="fill:#aaaabe;fill-opacity:1" />
      <g
         id="g4620"
         style="fill:#aaaabe;fill-opacity:1" />
      <g
         id="g4622"
         style="fill:#aaaabe;fill-opacity:1" />
      <g
         id="g4624"
         style="fill:#aaaabe;fill-opacity:1" />
      <g
         id="g4626"
         style="fill:#aaaabe;fill-opacity:1" />
      <g
         id="g4628"
         style="fill:#aaaabe;fill-opacity:1" />
      <g
         id="g4630"
         style="fill:#aaaabe;fill-opacity:1" />
      <g
         id="g4632"
         style="fill:#aaaabe;fill-opacity:1" />
    </g>
  </g>
</svg>
