<?xml version="1.0" encoding="UTF-8" standalone="no"?>
<!-- Created with Inkscape (http://www.inkscape.org/) -->

<svg
   xmlns:dc="http://purl.org/dc/elements/1.1/"
   xmlns:cc="http://creativecommons.org/ns#"
   xmlns:rdf="http://www.w3.org/1999/02/22-rdf-syntax-ns#"
   xmlns:svg="http://www.w3.org/2000/svg"
   xmlns="http://www.w3.org/2000/svg"
   xmlns:sodipodi="http://sodipodi.sourceforge.net/DTD/sodipodi-0.dtd"
   xmlns:inkscape="http://www.inkscape.org/namespaces/inkscape"
   width="99.891998"
   height="99.891998"
   id="svg2"
   version="1.1"
   inkscape:version="0.92.2 5c3e80d, 2017-08-06"
   sodipodi:docname="refused-true.svg">
  <defs
     id="defs4" />
  <sodipodi:namedview
     id="base"
     pagecolor="#ffffff"
     bordercolor="#666666"
     borderopacity="1.0"
     inkscape:pageopacity="0.0"
     inkscape:pageshadow="2"
     inkscape:zoom="2.8284271"
     inkscape:cx="-49.863429"
     inkscape:cy="62.694546"
     inkscape:document-units="px"
     inkscape:current-layer="layer1"
     showgrid="false"
     fit-margin-top="0"
     fit-margin-left="0"
     fit-margin-right="0"
     fit-margin-bottom="0"
     inkscape:window-width="1920"
     inkscape:window-height="991"
     inkscape:window-x="0"
     inkscape:window-y="22"
     inkscape:window-maximized="1" />
  <metadata
     id="metadata7">
    <rdf:RDF>
      <cc:Work
         rdf:about="">
        <dc:format>image/svg+xml</dc:format>
        <dc:type
           rdf:resource="http://purl.org/dc/dcmitype/StillImage" />
        <dc:title />
      </cc:Work>
    </rdf:RDF>
  </metadata>
  <g
     inkscape:label="Layer 1"
     inkscape:groupmode="layer"
     id="layer1"
     transform="translate(-438.62543,-476.7019)">
    <path
       inkscape:connector-curvature="0"
       id="path2"
       d="m 488.26829,477.36219 c -27.54,0 -49.946,22.406 -49.946,49.946 0,27.54 22.406,49.946 49.946,49.946 27.54,0 49.946,-22.406 49.946,-49.946 0,-27.54 -22.405,-49.946 -49.946,-49.946 z m 0,97.893 c -26.437,0 -47.946,-21.509 -47.946,-47.947 0,-26.438 21.509,-47.946 47.946,-47.946 26.437,0 47.946,21.509 47.946,47.946 0,26.437 -21.508,47.947 -47.946,47.947 z"
       style="fill:#f44336;fill-opacity:1" />
    <g
       id="background"
       transform="translate(-269.26992,-125.8521)"
       style="fill:#aaaabe;fill-opacity:1" />
    <g
       id="design"
       transform="translate(-269.26992,-125.8521)"
       style="fill:#aaaabe;fill-opacity:1" />
    <g
       style="fill:#aaaabe;fill-opacity:1"
       id="g961"
       transform="matrix(1.3539399,0,0,1.3539399,447.65009,497.17295)" />
    <g
       style="fill:#aaaabe;fill-opacity:1"
       id="g963"
       transform="matrix(1.3539399,0,0,1.3539399,447.65009,497.17295)" />
    <g
       style="fill:#aaaabe;fill-opacity:1"
       id="g965"
       transform="matrix(1.3539399,0,0,1.3539399,447.65009,497.17295)" />
    <g
       style="fill:#aaaabe;fill-opacity:1"
       id="g967"
       transform="matrix(1.3539399,0,0,1.3539399,447.65009,497.17295)" />
    <g
       style="fill:#aaaabe;fill-opacity:1"
       id="g969"
       transform="matrix(1.3539399,0,0,1.3539399,447.65009,497.17295)" />
    <g
       style="fill:#aaaabe;fill-opacity:1"
       id="g971"
       transform="matrix(1.3539399,0,0,1.3539399,447.65009,497.17295)" />
    <g
       style="fill:#aaaabe;fill-opacity:1"
       id="g973"
       transform="matrix(1.3539399,0,0,1.3539399,447.65009,497.17295)" />
    <g
       style="fill:#aaaabe;fill-opacity:1"
       id="g975"
       transform="matrix(1.3539399,0,0,1.3539399,447.65009,497.17295)" />
    <g
       style="fill:#aaaabe;fill-opacity:1"
       id="g977"
       transform="matrix(1.3539399,0,0,1.3539399,447.65009,497.17295)" />
    <g
       style="fill:#aaaabe;fill-opacity:1"
       id="g979"
       transform="matrix(1.3539399,0,0,1.3539399,447.65009,497.17295)" />
    <g
       style="fill:#aaaabe;fill-opacity:1"
       id="g981"
       transform="matrix(1.3539399,0,0,1.3539399,447.65009,497.17295)" />
    <g
       style="fill:#aaaabe;fill-opacity:1"
       id="g983"
       transform="matrix(1.3539399,0,0,1.3539399,447.65009,497.17295)" />
    <g
       style="fill:#aaaabe;fill-opacity:1"
       id="g985"
       transform="matrix(1.3539399,0,0,1.3539399,447.65009,497.17295)" />
    <g
       style="fill:#aaaabe;fill-opacity:1"
       id="g987"
       transform="matrix(1.3539399,0,0,1.3539399,447.65009,497.17295)" />
    <g
       style="fill:#aaaabe;fill-opacity:1"
       id="g989"
       transform="matrix(1.3539399,0,0,1.3539399,447.65009,497.17295)" />
    <g
       style="fill:#aaaabe;fill-opacity:1"
       transform="translate(590.88408,410.65451)"
       id="g1392" />
    <g
       style="fill:#aaaabe;fill-opacity:1"
       transform="translate(590.88408,410.65451)"
       id="g1394" />
    <g
       style="fill:#aaaabe;fill-opacity:1"
       transform="translate(590.88408,410.65451)"
       id="g1396" />
    <g
       style="fill:#aaaabe;fill-opacity:1"
       transform="translate(590.88408,410.65451)"
       id="g1398" />
    <g
       style="fill:#aaaabe;fill-opacity:1"
       transform="translate(590.88408,410.65451)"
       id="g1400" />
    <g
       style="fill:#aaaabe;fill-opacity:1"
       transform="translate(590.88408,410.65451)"
       id="g1402" />
    <g
       style="fill:#aaaabe;fill-opacity:1"
       transform="translate(590.88408,410.65451)"
       id="g1404" />
    <g
       style="fill:#aaaabe;fill-opacity:1"
       transform="translate(590.88408,410.65451)"
       id="g1406" />
    <g
       style="fill:#aaaabe;fill-opacity:1"
       transform="translate(590.88408,410.65451)"
       id="g1408" />
    <g
       style="fill:#aaaabe;fill-opacity:1"
       transform="translate(590.88408,410.65451)"
       id="g1410" />
    <g
       style="fill:#aaaabe;fill-opacity:1"
       transform="translate(590.88408,410.65451)"
       id="g1412" />
    <g
       style="fill:#aaaabe;fill-opacity:1"
       transform="translate(590.88408,410.65451)"
       id="g1414" />
    <g
       style="fill:#aaaabe;fill-opacity:1"
       transform="translate(590.88408,410.65451)"
       id="g1416" />
    <g
       style="fill:#aaaabe;fill-opacity:1"
       transform="translate(590.88408,410.65451)"
       id="g1418" />
    <g
       style="fill:#aaaabe;fill-opacity:1"
       transform="translate(590.88408,410.65451)"
       id="g1420" />
    <g
       style="fill:#aaaabe;fill-opacity:1"
       transform="translate(645.2891,549.55677)"
       id="g1485" />
    <g
       style="fill:#aaaabe;fill-opacity:1"
       transform="translate(645.2891,549.55677)"
       id="g1487" />
    <g
       style="fill:#aaaabe;fill-opacity:1"
       transform="translate(645.2891,549.55677)"
       id="g1489" />
    <g
       style="fill:#aaaabe;fill-opacity:1"
       transform="translate(645.2891,549.55677)"
       id="g1491" />
    <g
       style="fill:#aaaabe;fill-opacity:1"
       transform="translate(645.2891,549.55677)"
       id="g1493" />
    <g
       style="fill:#aaaabe;fill-opacity:1"
       transform="translate(645.2891,549.55677)"
       id="g1495" />
    <g
       style="fill:#aaaabe;fill-opacity:1"
       transform="translate(645.2891,549.55677)"
       id="g1497" />
    <g
       style="fill:#aaaabe;fill-opacity:1"
       transform="translate(645.2891,549.55677)"
       id="g1499" />
    <g
       style="fill:#aaaabe;fill-opacity:1"
       transform="translate(645.2891,549.55677)"
       id="g1501" />
    <g
       style="fill:#aaaabe;fill-opacity:1"
       transform="translate(645.2891,549.55677)"
       id="g1503" />
    <g
       style="fill:#aaaabe;fill-opacity:1"
       transform="translate(645.2891,549.55677)"
       id="g1505" />
    <g
       style="fill:#aaaabe;fill-opacity:1"
       transform="translate(645.2891,549.55677)"
       id="g1507" />
    <g
       style="fill:#aaaabe;fill-opacity:1"
       transform="translate(645.2891,549.55677)"
       id="g1509" />
    <g
       style="fill:#aaaabe;fill-opacity:1"
       transform="translate(645.2891,549.55677)"
       id="g1511" />
    <g
       style="fill:#aaaabe;fill-opacity:1"
       transform="translate(645.2891,549.55677)"
       id="g1513" />
    <g
       id="g1034"
       transform="matrix(0.18410756,0,0,0.18410756,429.07586,467.05097)" />
    <g
       id="g1036"
       transform="matrix(0.18410756,0,0,0.18410756,429.07586,467.05097)" />
    <g
       id="g1038"
       transform="matrix(0.18410756,0,0,0.18410756,429.07586,467.05097)" />
    <g
       id="g1040"
       transform="matrix(0.18410756,0,0,0.18410756,429.07586,467.05097)" />
    <g
       id="g1042"
       transform="matrix(0.18410756,0,0,0.18410756,429.07586,467.05097)" />
    <g
       id="g1044"
       transform="matrix(0.18410756,0,0,0.18410756,429.07586,467.05097)" />
    <g
       id="g1046"
       transform="matrix(0.18410756,0,0,0.18410756,429.07586,467.05097)" />
    <g
       id="g1048"
       transform="matrix(0.18410756,0,0,0.18410756,429.07586,467.05097)" />
    <g
       id="g1050"
       transform="matrix(0.18410756,0,0,0.18410756,429.07586,467.05097)" />
    <g
       id="g1052"
       transform="matrix(0.18410756,0,0,0.18410756,429.07586,467.05097)" />
    <g
       id="g1054"
       transform="matrix(0.18410756,0,0,0.18410756,429.07586,467.05097)" />
    <g
       id="g1056"
       transform="matrix(0.18410756,0,0,0.18410756,429.07586,467.05097)" />
    <g
       id="g1058"
       transform="matrix(0.18410756,0,0,0.18410756,429.07586,467.05097)" />
    <g
       id="g1060"
       transform="matrix(0.18410756,0,0,0.18410756,429.07586,467.05097)" />
    <g
       id="g1062"
       transform="matrix(0.18410756,0,0,0.18410756,429.07586,467.05097)" />
    <g
       id="g1291"
       transform="translate(206.66756,238.56801)" />
    <g
       id="g1293"
       transform="translate(206.66756,238.56801)" />
    <g
       id="g1295"
       transform="translate(206.66756,238.56801)" />
    <g
       id="g1297"
       transform="translate(206.66756,238.56801)" />
    <g
       id="g1299"
       transform="translate(206.66756,238.56801)" />
    <g
       id="g1301"
       transform="translate(206.66756,238.56801)" />
    <g
       id="g1303"
       transform="translate(206.66756,238.56801)" />
    <g
       id="g1305"
       transform="translate(206.66756,238.56801)" />
    <g
       id="g1307"
       transform="translate(206.66756,238.56801)" />
    <g
       id="g1309"
       transform="translate(206.66756,238.56801)" />
    <g
       id="g1311"
       transform="translate(206.66756,238.56801)" />
    <g
       id="g1313"
       transform="translate(206.66756,238.56801)" />
    <g
       id="g1315"
       transform="translate(206.66756,238.56801)" />
    <g
       id="g1317"
       transform="translate(206.66756,238.56801)" />
    <g
       id="g1319"
       transform="translate(206.66756,238.56801)" />
    <g
       id="g8"
       style="fill:#aaaabe;fill-opacity:1"
       transform="matrix(1.9278846,0,0,1.9278846,438.62543,476.3439)" />
    <g
       id="g10"
       style="fill:#aaaabe;fill-opacity:1"
       transform="matrix(1.9278846,0,0,1.9278846,438.62543,476.3439)" />
    <g
       id="g12"
       style="fill:#aaaabe;fill-opacity:1"
       transform="matrix(1.9278846,0,0,1.9278846,438.62543,476.3439)" />
    <g
       id="g14"
       style="fill:#aaaabe;fill-opacity:1"
       transform="matrix(1.9278846,0,0,1.9278846,438.62543,476.3439)" />
    <g
       id="g16"
       style="fill:#aaaabe;fill-opacity:1"
       transform="matrix(1.9278846,0,0,1.9278846,438.62543,476.3439)" />
    <g
       id="g18"
       style="fill:#aaaabe;fill-opacity:1"
       transform="matrix(1.9278846,0,0,1.9278846,438.62543,476.3439)" />
    <g
       id="g20"
       style="fill:#aaaabe;fill-opacity:1"
       transform="matrix(1.9278846,0,0,1.9278846,438.62543,476.3439)" />
    <g
       id="g22"
       style="fill:#aaaabe;fill-opacity:1"
       transform="matrix(1.9278846,0,0,1.9278846,438.62543,476.3439)" />
    <g
       id="g24"
       style="fill:#aaaabe;fill-opacity:1"
       transform="matrix(1.9278846,0,0,1.9278846,438.62543,476.3439)" />
    <g
       id="g26"
       style="fill:#aaaabe;fill-opacity:1"
       transform="matrix(1.9278846,0,0,1.9278846,438.62543,476.3439)" />
    <g
       id="g28"
       style="fill:#aaaabe;fill-opacity:1"
       transform="matrix(1.9278846,0,0,1.9278846,438.62543,476.3439)" />
    <g
       id="g30"
       style="fill:#aaaabe;fill-opacity:1"
       transform="matrix(1.9278846,0,0,1.9278846,438.62543,476.3439)" />
    <g
       id="g32"
       style="fill:#aaaabe;fill-opacity:1"
       transform="matrix(1.9278846,0,0,1.9278846,438.62543,476.3439)" />
    <g
       id="g34"
       style="fill:#aaaabe;fill-opacity:1"
       transform="matrix(1.9278846,0,0,1.9278846,438.62543,476.3439)" />
    <g
       id="g36"
       style="fill:#aaaabe;fill-opacity:1"
       transform="matrix(1.9278846,0,0,1.9278846,438.62543,476.3439)" />
    <g
       id="g984"
       transform="matrix(0.09170005,0,0,-0.09170005,466.34276,551.23367)"
       style="fill:#f44336;fill-opacity:1">
      <g
         id="g927"
         style="fill:#f44336;fill-opacity:1">
        <path
           id="path925"
           d="m 457.575,325.1 c 9.8,-12.5 14.5,-25.9 13.9,-39.7 -0.6,-15.2 -7.4,-27.1 -13,-34.4 6.5,-16.2 9,-41.7 -12.7,-61.5 -15.9,-14.5 -42.9,-21 -80.3,-19.2 -26.3,1.2 -48.3,6.1 -49.2,6.3 h -0.1 c -5,0.9 -10.3,2 -15.7,3.2 -0.4,-6.4 0.7,-22.3 12.5,-58.1 14,-42.6 13.2,-75.2 -2.6,-97 -16.6,-22.9 -43.1,-24.7 -50.9,-24.7 -7.5,0 -14.4,3.1 -19.3,8.8 -11.1,12.9 -9.8,36.7 -8.4,47.7 -13.2,35.4 -50.2,122.2 -81.5,146.3 -0.6,0.4 -1.1,0.9 -1.6,1.4 -9.2,9.7 -15.4,20.2 -19.6,29.4 -5.9,-3.2 -12.6,-5 -19.8,-5 h -61 c -23,0 -41.6,18.7 -41.6,41.6 v 162.5 c 0,23 18.7,41.6 41.6,41.6 h 61 c 8.9,0 17.2,-2.8 24,-7.6 l 23.5,2.8 c 3.6,0.5 67.6,8.6 133.3,7.3 11.9,0.9 23.1,1.4 33.5,1.4 17.9,0 33.5,-1.4 46.5,-4.2 30.6,-6.5 51.5,-19.5 62.1,-38.6 8.1,-14.6 8.1,-29.1 6.8,-38.3 19.9,-18 23.4,-37.9 22.7,-51.9 -0.4,-8.1 -2.2,-15 -4.1,-20.1 z m -409.3,122.2 c -8.1,0 -14.6,-6.6 -14.6,-14.6 V 270.1 c 0,-8.1 6.6,-14.6 14.6,-14.6 h 61 c 8.1,0 14.6,6.6 14.6,14.6 v 162.5 c 0,8.1 -6.6,14.6 -14.6,14.6 h -61 z m 383.7,-133.9 c -4.2,4.4 -5,11.1 -1.8,16.3 0,0.1 4.1,7.1 4.6,16.7 0.7,13.1 -5.6,24.7 -18.8,34.6 -4.7,3.6 -6.6,9.8 -4.6,15.4 0,0.1 4.3,13.3 -2.7,25.8 -6.7,12 -21.6,20.6 -44.2,25.4 -18.1,3.9 -42.7,4.6 -72.9,2.2 -0.4,0 -0.9,0 -1.4,0 -64.3,1.4 -129.3,-7 -130,-7.1 h -0.1 l -10.1,-1.2 c 0.6,-2.8 0.9,-5.8 0.9,-8.8 V 270.1 c 0,-4.3 -0.7,-8.5 -1.9,-12.4 1.8,-6.7 6.8,-21.6 18.6,-34.3 44.9,-35.6 88.8,-155.7 90.7,-160.9 0.8,-2.1 1,-4.4 0.6,-6.7 -1.7,-11.2 -1.1,-24.9 1.3,-29 5.3,0.1 19.6,1.6 28.2,13.5 10.2,14.1 9.8,39.3 -1.2,72.7 -16.8,50.9 -18.2,77.7 -4.9,89.5 6.6,5.9 15.4,6.2 21.8,3.9 6.1,-1.4 11.9,-2.6 17.4,-3.5 0.4,-0.1 0.9,-0.2 1.3,-0.3 30.7,-6.7 85.7,-10.8 104.8,6.6 16.2,14.8 4.7,34.4 3.4,36.5 -3.7,5.6 -2.6,12.9 2.4,17.4 0.1,0.1 10.6,10 11.1,23.3 0.4,8.9 -3.8,18 -12.5,27 z"
           inkscape:connector-curvature="0"
           style="fill:#f44336;fill-opacity:1" />
      </g>
      <g
         id="g929"
         style="fill:#f44336;fill-opacity:1" />
      <g
         id="g931"
         style="fill:#f44336;fill-opacity:1" />
      <g
         id="g933"
         style="fill:#f44336;fill-opacity:1" />
      <g
         id="g935"
         style="fill:#f44336;fill-opacity:1" />
      <g
         id="g937"
         style="fill:#f44336;fill-opacity:1" />
      <g
         id="g939"
         style="fill:#f44336;fill-opacity:1" />
      <g
         id="g941"
         style="fill:#f44336;fill-opacity:1" />
      <g
         id="g943"
         style="fill:#f44336;fill-opacity:1" />
      <g
         id="g945"
         style="fill:#f44336;fill-opacity:1" />
      <g
         id="g947"
         style="fill:#f44336;fill-opacity:1" />
      <g
         id="g949"
         style="fill:#f44336;fill-opacity:1" />
      <g
         id="g951"
         style="fill:#f44336;fill-opacity:1" />
      <g
         id="g953"
         style="fill:#f44336;fill-opacity:1" />
      <g
         id="g955"
         style="fill:#f44336;fill-opacity:1" />
      <g
         id="g957"
         style="fill:#f44336;fill-opacity:1" />
    </g>
  </g>
</svg>
