<?xml version="1.0" encoding="UTF-8" standalone="no"?>
<svg
   width="36px"
   height="36px"
   viewBox="0 0 36 36"
   version="1.1"
   preserveAspectRatio="xMidYMid meet"
   id="svg16"
   sodipodi:docname="delete.svg"
   inkscape:version="1.2.1 (9c6d41e410, 2022-07-14, custom)"
   xmlns:inkscape="http://www.inkscape.org/namespaces/inkscape"
   xmlns:sodipodi="http://sodipodi.sourceforge.net/DTD/sodipodi-0.dtd"
   xmlns="http://www.w3.org/2000/svg"
   xmlns:svg="http://www.w3.org/2000/svg">
  <defs
     id="defs20" />
  <sodipodi:namedview
     id="namedview18"
     pagecolor="#ffffff"
     bordercolor="#000000"
     borderopacity="0.25"
     inkscape:showpageshadow="2"
     inkscape:pageopacity="0.0"
     inkscape:pagecheckerboard="0"
     inkscape:deskcolor="#d1d1d1"
     showgrid="false"
     inkscape:zoom="14.191316"
     inkscape:cx="3.2414189"
     inkscape:cy="18.955254"
     inkscape:window-width="1920"
     inkscape:window-height="1021"
     inkscape:window-x="0"
     inkscape:window-y="30"
     inkscape:window-maximized="1"
     inkscape:current-layer="svg16" />
  <title
     id="title2">trash-line</title>
  <g
     id="g863"
     transform="translate(-0.03170609,-0.58418002)">
    <path
       class="clr-i-outline clr-i-outline-path-1"
       d="M 26.253851,32.448755 H 9.7461489 A 2.6459282,2.6459282 0 0 1 7.1634341,29.739613 V 11.886371 H 8.9695284 V 29.739613 A 0.83983386,0.83983386 0 0 0 9.7461489,30.64266 H 26.253851 a 0.83983386,0.83983386 0 0 0 0.776621,-0.903047 V 11.886371 h 1.806094 v 17.853242 a 2.6459282,2.6459282 0 0 1 -2.582715,2.709142 z"
       id="path4"
       style="fill:#aaaabe;fill-opacity:1;stroke-width:0.903047" />
    <path
       class="clr-i-outline clr-i-outline-path-2"
       d="M 29.540943,9.8725755 H 6.2603869 a 0.90304716,0.90304716 0 0 1 0,-1.8060943 H 29.540943 a 0.90304716,0.90304716 0 0 1 0,1.8060943 z"
       id="path6"
       style="fill:#aaaabe;fill-opacity:1;stroke-width:0.903047" />
    <rect
       class="clr-i-outline clr-i-outline-path-3"
       x="20.709141"
       y="13.484764"
       width="1.8060943"
       height="13.545708"
       id="rect8"
       style="fill:#aaaabe;fill-opacity:1;stroke-width:0.903047" />
    <rect
       class="clr-i-outline clr-i-outline-path-4"
       x="13.484764"
       y="13.484764"
       width="1.8060943"
       height="13.545708"
       id="rect10"
       style="fill:#aaaabe;fill-opacity:1;stroke-width:0.903047" />
    <path
       class="clr-i-outline clr-i-outline-path-5"
       d="m 22.515236,7.0370075 h -1.71579 V 5.3573397 h -5.598892 v 1.6796678 h -1.71579 V 5.3573397 a 1.8060943,1.8060943 0 0 1 1.71579,-1.8060943 h 5.598892 a 1.8060943,1.8060943 0 0 1 1.71579,1.8060943 z"
       id="path12"
       style="fill:#aaaabe;fill-opacity:1;stroke-width:0.903047" />
    <rect
       x="1.745151"
       y="1.745151"
       width="32.509697"
       height="32.509697"
       fill-opacity="0"
       id="rect14"
       style="stroke-width:0.903047" />
  </g>
</svg>
