<?xml version="1.0" encoding="UTF-8" standalone="no"?>
<!-- Created with Inkscape (http://www.inkscape.org/) -->

<svg
        xmlns:dc="http://purl.org/dc/elements/1.1/"
        xmlns:cc="http://creativecommons.org/ns#"
        xmlns:rdf="http://www.w3.org/1999/02/22-rdf-syntax-ns#"
        xmlns="http://www.w3.org/2000/svg"
        xmlns:sodipodi="http://sodipodi.sourceforge.net/DTD/sodipodi-0.dtd"
        xmlns:inkscape="http://www.inkscape.org/namespaces/inkscape"
        height="32"
        width="32"
        version="1.1"
        id="svg18"
        sodipodi:docname="download.svg"
        inkscape:version="0.92.4 5da689c313, 2019-01-14">
  <defs
     id="defs22" />
  <sodipodi:namedview
     pagecolor="#ffffff"
     bordercolor="#666666"
     borderopacity="1"
     objecttolerance="10"
     gridtolerance="10"
     guidetolerance="10"
     inkscape:pageopacity="0"
     inkscape:pageshadow="2"
     inkscape:window-width="1920"
     inkscape:window-height="1013"
     id="namedview20"
     showgrid="false"
     inkscape:zoom="5.6568543"
     inkscape:cx="-16.375732"
     inkscape:cy="17.220586"
     inkscape:window-x="0"
     inkscape:window-y="0"
     inkscape:window-maximized="1"
     inkscape:current-layer="svg18" />
  <metadata
     id="metadata2">
    <rdf:RDF>
      <cc:Work
         rdf:about="">
        <dc:format>image/svg+xml</dc:format>
        <dc:type
           rdf:resource="http://purl.org/dc/dcmitype/StillImage" />
        <dc:title></dc:title>
      </cc:Work>
    </rdf:RDF>
  </metadata>
  <g
     id="g890"
     transform="matrix(0.05267209,0,0,0.05267209,3.2006826,3.2006826)"
     style="fill:#aaaabe;fill-opacity:1">
    <g
       id="g833"
       style="fill:#aaaabe;fill-opacity:1">
      <path
         id="path829"
         d="m 452.5,285 c 15,0 27,12 27,27 v 147 c 0,15 -12,27 -27,27 h -418 c -15,0 -28,-12 -28,-27 V 312 c 0,-15 13,-27 28,-27 15,0 27,12 27,27 v 119 h 364 V 312 c 0,-15 12,-27 27,-27 z"
         style="fill:#aaaabe;fill-opacity:1"
         inkscape:connector-curvature="0" />
      <path
         id="path831"
         d="m 224.5,346 -110,-110 c -11,-11 -11,-27 0,-38 11,-11 27,-11 38,0 l 64,63 V 27 c 0,-15 12,-27 27,-27 15,0 27,12 27,27 v 234 l 63,-63 c 11,-11 28,-11 39,0 11,11 11,27 0,38 l -110,110 c -5,5 -12,8 -19,8 -7,0 -14,-3 -19,-8 z"
         style="fill:#aaaabe;fill-opacity:1"
         inkscape:connector-curvature="0" />
    </g>
    <g
       id="g835"
       style="fill:#aaaabe;fill-opacity:1" />
    <g
       id="g837"
       style="fill:#aaaabe;fill-opacity:1" />
    <g
       id="g839"
       style="fill:#aaaabe;fill-opacity:1" />
    <g
       id="g841"
       style="fill:#aaaabe;fill-opacity:1" />
    <g
       id="g843"
       style="fill:#aaaabe;fill-opacity:1" />
    <g
       id="g845"
       style="fill:#aaaabe;fill-opacity:1" />
    <g
       id="g847"
       style="fill:#aaaabe;fill-opacity:1" />
    <g
       id="g849"
       style="fill:#aaaabe;fill-opacity:1" />
    <g
       id="g851"
       style="fill:#aaaabe;fill-opacity:1" />
    <g
       id="g853"
       style="fill:#aaaabe;fill-opacity:1" />
    <g
       id="g855"
       style="fill:#aaaabe;fill-opacity:1" />
    <g
       id="g857"
       style="fill:#aaaabe;fill-opacity:1" />
    <g
       id="g859"
       style="fill:#aaaabe;fill-opacity:1" />
    <g
       id="g861"
       style="fill:#aaaabe;fill-opacity:1" />
    <g
       id="g863"
       style="fill:#aaaabe;fill-opacity:1" />
  </g>
</svg>
