<?xml version="1.0" encoding="UTF-8" standalone="no"?>
<svg
        xmlns:dc="http://purl.org/dc/elements/1.1/"
        xmlns:cc="http://creativecommons.org/ns#"
        xmlns:rdf="http://www.w3.org/1999/02/22-rdf-syntax-ns#"
        xmlns="http://www.w3.org/2000/svg"
        xmlns:sodipodi="http://sodipodi.sourceforge.net/DTD/sodipodi-0.dtd"
        xmlns:inkscape="http://www.inkscape.org/namespaces/inkscape"
        viewBox="0 0 44.8 44.8"
        width="32"
        height="32"
        version="1.1"
        id="svg4"
        sodipodi:docname="about.svg"
        inkscape:version="0.92.4 5da689c313, 2019-01-14"
        style="fill:#000000">
  <metadata
     id="metadata10">
    <rdf:RDF>
      <cc:Work
         rdf:about="">
        <dc:format>image/svg+xml</dc:format>
        <dc:type
           rdf:resource="http://purl.org/dc/dcmitype/StillImage" />
        <dc:title></dc:title>
      </cc:Work>
    </rdf:RDF>
  </metadata>
  <defs
     id="defs8" />
  <sodipodi:namedview
     pagecolor="#ffffff"
     bordercolor="#666666"
     borderopacity="1"
     objecttolerance="10"
     gridtolerance="10"
     guidetolerance="10"
     inkscape:pageopacity="0"
     inkscape:pageshadow="2"
     inkscape:window-width="1920"
     inkscape:window-height="1013"
     id="namedview6"
     showgrid="false"
     inkscape:zoom="3.9999998"
     inkscape:cx="89.933105"
     inkscape:cy="83.559904"
     inkscape:window-x="0"
     inkscape:window-y="0"
     inkscape:window-maximized="1"
     inkscape:current-layer="svg4"
     scale-x="1.4" />
  <path
     d="m 22.399998,5.8009845 c -9.892164,0 -17.9113871,6.8380695 -17.9113871,15.2741065 0,4.326973 2.1151367,8.223323 5.5058149,11.004207 -0.9310902,3.802963 -5.6457483,5.369804 -5.3389716,6.448952 2.9870257,1.655043 11.0116278,-1.499394 13.6219138,-2.604484 1.323978,0.269787 2.701776,0.425433 4.12263,0.425433 9.892171,0 17.911391,-6.838065 17.911391,-15.274108 0,-8.436037 -8.01922,-15.2741065 -17.911391,-15.2741065 z M 25.053341,28.93005 c -0.672756,0.269789 -2.238927,0.965008 -3.681308,0.965008 -1.334743,0 -3.153869,-0.591454 -3.153869,-2.490343 0,-2.199802 1.614608,-5.333484 1.614608,-7.14936 0,-2.023406 -2.728688,-0.928692 -2.927822,-0.856058 l 0.274483,-1.079148 c 0.672754,-0.264599 2.271216,-0.965008 3.68669,-0.965008 1.146373,0 3.100047,0.399493 3.100047,2.490345 0,2.101225 -1.614609,5.463189 -1.614609,7.14936 0,0.466938 -0.06459,1.203664 1.442383,1.203664 0.586641,0 1.393947,-0.285348 1.539262,-0.347608 z M 23.142718,15.357679 c -0.974144,0 -2.454204,-0.64334 -2.454204,-2.199804 0,-1.577218 1.576935,-2.215369 2.454204,-2.215369 1.038732,0 2.448826,0.731539 2.448826,2.215369 0,0.897561 -0.731957,2.199804 -2.448826,2.199804 z"
     id="path2"
     style="fill:#aaaabe;fill-opacity:1;stroke-width:1.35276389"
     inkscape:connector-curvature="0" />
</svg>
