<?xml version="1.0" encoding="UTF-8" standalone="no"?>
<svg
        xmlns:dc="http://purl.org/dc/elements/1.1/"
        xmlns:cc="http://creativecommons.org/ns#"
        xmlns:rdf="http://www.w3.org/1999/02/22-rdf-syntax-ns#"
        xmlns="http://www.w3.org/2000/svg"
        xmlns:sodipodi="http://sodipodi.sourceforge.net/DTD/sodipodi-0.dtd"
        xmlns:inkscape="http://www.inkscape.org/namespaces/inkscape"
        xml:space="preserve"
        viewBox="0 0 100 100"
        height="32"
        width="32"
        version="1.1"
        y="0px"
        x="0px"
        id="svg14"
        sodipodi:docname="logout.svg"
        inkscape:version="0.92.4 5da689c313, 2019-01-14"><defs
   id="defs18" /><sodipodi:namedview
   pagecolor="#ffffff"
   bordercolor="#666666"
   borderopacity="1"
   objecttolerance="10"
   gridtolerance="10"
   guidetolerance="10"
   inkscape:pageopacity="0"
   inkscape:pageshadow="2"
   inkscape:window-width="1920"
   inkscape:window-height="1013"
   id="namedview16"
   showgrid="false"
   width="32"
   units="px"
   inkscape:zoom="16"
   inkscape:cx="30.887978"
   inkscape:cy="12.163217"
   inkscape:window-x="0"
   inkscape:window-y="0"
   inkscape:window-maximized="1"
   inkscape:current-layer="svg14" />
<metadata
   id="metadata2">
<rdf:RDF>
<cc:Work
   rdf:about="">
<dc:format>image/svg+xml</dc:format>
<dc:type
   rdf:resource="http://purl.org/dc/dcmitype/StillImage" />
<dc:title></dc:title>
</cc:Work>
</rdf:RDF>
</metadata>
<g
   transform="matrix(0.15618727,0,0,0.15618727,10.17085,10.169477)"
   id="g12"
   style="fill:#aaaabe">
<g
   id="g10"
   style="fill:#aaaabe">
<g
   id="g8"
   style="fill:#aaaabe">
<path
   d="m 506.18,247.2 c 0.203,-0.247 0.379,-0.507 0.568,-0.76 0.227,-0.304 0.463,-0.601 0.674,-0.917 0.203,-0.303 0.379,-0.618 0.565,-0.93 0.171,-0.286 0.35,-0.565 0.508,-0.86 0.17,-0.318 0.314,-0.645 0.467,-0.969 0.145,-0.307 0.298,-0.609 0.428,-0.923 0.13,-0.315 0.235,-0.636 0.35,-0.956 0.121,-0.337 0.25,-0.67 0.355,-1.015 0.097,-0.32 0.168,-0.645 0.249,-0.968 0.089,-0.351 0.187,-0.698 0.258,-1.056 0.074,-0.375 0.118,-0.753 0.172,-1.13 0.044,-0.311 0.104,-0.618 0.135,-0.933 0.138,-1.4 0.138,-2.811 0,-4.211 -0.031,-0.315 -0.09,-0.621 -0.135,-0.932 -0.054,-0.378 -0.098,-0.756 -0.173,-1.13 -0.071,-0.358 -0.169,-0.704 -0.258,-1.055 -0.081,-0.324 -0.152,-0.649 -0.249,-0.969 -0.104,-0.344 -0.233,-0.677 -0.354,-1.013 -0.115,-0.32 -0.22,-0.642 -0.35,-0.957 -0.13,-0.314 -0.283,-0.616 -0.428,-0.922 -0.153,-0.325 -0.297,-0.652 -0.467,-0.97 -0.157,-0.294 -0.337,-0.573 -0.507,-0.859 -0.186,-0.312 -0.362,-0.627 -0.565,-0.931 -0.211,-0.315 -0.446,-0.612 -0.673,-0.915 -0.19,-0.254 -0.367,-0.515 -0.57,-0.762 -0.443,-0.539 -0.909,-1.058 -1.402,-1.551 -0.004,-0.004 -0.007,-0.008 -0.011,-0.012 l -64,-64 c -8.331,-8.331 -21.839,-8.331 -30.17,0 -8.331,8.331 -8.331,21.839 0,30.17 l 27.582,27.582 h -119.16 c -11.782,0 -21.333,9.551 -21.333,21.333 0,11.782 9.551,21.333 21.333,21.333 h 119.16 l -27.582,27.61 c -8.331,8.331 -8.331,21.839 0,30.17 8.331,8.331 21.839,8.331 30.17,0 l 64,-64 c 0.004,-0.004 0.007,-0.008 0.011,-0.012 0.494,-0.494 0.96,-1.012 1.403,-1.552 z"
   id="path4"
   inkscape:connector-curvature="0" />
<path
   d="m 361.69,297.67 c -11.782,0 -21.333,9.551 -21.333,21.333 v 106.67 h -85.34 V 84.343 c 0,-9.421 -6.18,-17.727 -15.203,-20.434 l -74.11,-22.233 h 174.65 v 106.67 c 0,11.782 9.551,21.333 21.333,21.333 11.782,0 21.333,-9.551 21.333,-21.333 v -128 c 0,-11.782 -9.551,-21.333 -21.333,-21.333 H 20.347 20.341 C 19.71,-0.988 19.085,-0.958 18.465,-0.904 8.679,-0.166 2.3,6.271 -0.018,13.956 c -0.149,0.478 -0.279,0.966 -0.395,1.46 -0.012,0.053 -0.022,0.107 -0.034,0.161 -0.115,0.508 -0.211,1.024 -0.29,1.547 -0.011,0.074 -0.023,0.147 -0.034,0.221 -0.067,0.477 -0.12,0.96 -0.155,1.449 -0.062,0.788 -0.081,1.578 -0.061,2.368 v 425.86 c 0,10.169 7.178,18.925 17.15,20.919 l 213.33,42.66 c 13.201,2.64 25.517,-7.457 25.517,-20.919 V 468.34 h 106.67 c 11.782,0 21.333,-9.551 21.333,-21.333 v -128 c 0,-11.783 -9.551,-21.334 -21.333,-21.334 z M 212.35,463.66 41.69,429.52 V 49.02 l 170.67,51.2 v 363.44 z"
   id="path6"
   inkscape:connector-curvature="0" />
</g>
</g>
</g>
</svg>