<?xml version="1.0" encoding="UTF-8" standalone="no"?>
<!-- Generator: Adobe Illustrator 19.0.0, SVG Export Plug-In . SVG Version: 6.00 Build 0)  -->

<svg
        xmlns:dc="http://purl.org/dc/elements/1.1/"
        xmlns:cc="http://creativecommons.org/ns#"
        xmlns:rdf="http://www.w3.org/1999/02/22-rdf-syntax-ns#"
        xmlns="http://www.w3.org/2000/svg"
        xmlns:sodipodi="http://sodipodi.sourceforge.net/DTD/sodipodi-0.dtd"
        xmlns:inkscape="http://www.inkscape.org/namespaces/inkscape"
        version="1.1"
        id="Capa_1"
        x="0px"
        y="0px"
        viewBox="0 0 32 32"
        xml:space="preserve"
        sodipodi:docname="more-hori.svg"
        inkscape:version="0.92.4 5da689c313, 2019-01-14"
        width="32"
        height="32"><metadata
   id="metadata45"><rdf:RDF><cc:Work
       rdf:about=""><dc:format>image/svg+xml</dc:format><dc:type
         rdf:resource="http://purl.org/dc/dcmitype/StillImage" /><dc:title /></cc:Work></rdf:RDF></metadata><defs
   id="defs43" /><sodipodi:namedview
   pagecolor="#ffffff"
   bordercolor="#666666"
   borderopacity="1"
   objecttolerance="10"
   gridtolerance="10"
   guidetolerance="10"
   inkscape:pageopacity="0"
   inkscape:pageshadow="2"
   inkscape:window-width="1920"
   inkscape:window-height="1013"
   id="namedview41"
   showgrid="false"
   inkscape:zoom="5.5625734"
   inkscape:cx="-4.765679"
   inkscape:cy="22.719208"
   inkscape:window-x="0"
   inkscape:window-y="0"
   inkscape:window-maximized="1"
   inkscape:current-layer="Capa_1" />
<g
   id="g8"
   style="fill:#aaaabe;fill-opacity:1;stroke:#aaaabe;stroke-width:1.23545539;stroke-miterlimit:4;stroke-dasharray:none;stroke-opacity:1"
   transform="matrix(0,0.41895787,-0.41895787,0,28.568736,3.4312638)">
	<path
   d="m 30,16 c 4.411,0 8,-3.589 8,-8 0,-4.411 -3.589,-8 -8,-8 -4.411,0 -8,3.589 -8,8 0,4.411 3.589,8 8,8 z M 30,2 c 3.309,0 6,2.691 6,6 0,3.309 -2.691,6 -6,6 -3.309,0 -6,-2.691 -6,-6 0,-3.309 2.691,-6 6,-6 z"
   id="path2"
   style="fill:#aaaabe;fill-opacity:1;stroke:#aaaabe;stroke-width:1.23545539;stroke-miterlimit:4;stroke-dasharray:none;stroke-opacity:1"
   inkscape:connector-curvature="0" />
	<path
   d="m 30,44 c -4.411,0 -8,3.589 -8,8 0,4.411 3.589,8 8,8 4.411,0 8,-3.589 8,-8 0,-4.411 -3.589,-8 -8,-8 z m 0,14 c -3.309,0 -6,-2.691 -6,-6 0,-3.309 2.691,-6 6,-6 3.309,0 6,2.691 6,6 0,3.309 -2.691,6 -6,6 z"
   id="path4"
   style="fill:#aaaabe;fill-opacity:1;stroke:#aaaabe;stroke-width:1.23545539;stroke-miterlimit:4;stroke-dasharray:none;stroke-opacity:1"
   inkscape:connector-curvature="0" />
	<path
   d="m 30,22 c -4.411,0 -8,3.589 -8,8 0,4.411 3.589,8 8,8 4.411,0 8,-3.589 8,-8 0,-4.411 -3.589,-8 -8,-8 z m 0,14 c -3.309,0 -6,-2.691 -6,-6 0,-3.309 2.691,-6 6,-6 3.309,0 6,2.691 6,6 0,3.309 -2.691,6 -6,6 z"
   id="path6"
   style="fill:#aaaabe;fill-opacity:1;stroke:#aaaabe;stroke-width:1.23545539;stroke-miterlimit:4;stroke-dasharray:none;stroke-opacity:1"
   inkscape:connector-curvature="0" />
</g>
<g
   id="g10"
   style="fill:#aaaabe;fill-opacity:1;stroke:#aaaabe;stroke-width:1.23545539;stroke-miterlimit:4;stroke-dasharray:none;stroke-opacity:1"
   transform="matrix(0,0.41895787,-0.41895787,0,25.268241,33.510966)">
</g>
<g
   id="g12"
   style="fill:#aaaabe;fill-opacity:1;stroke:#aaaabe;stroke-width:1.23545539;stroke-miterlimit:4;stroke-dasharray:none;stroke-opacity:1"
   transform="matrix(0,0.41895787,-0.41895787,0,25.268241,33.510966)">
</g>
<g
   id="g14"
   style="fill:#aaaabe;fill-opacity:1;stroke:#aaaabe;stroke-width:1.23545539;stroke-miterlimit:4;stroke-dasharray:none;stroke-opacity:1"
   transform="matrix(0,0.41895787,-0.41895787,0,25.268241,33.510966)">
</g>
<g
   id="g16"
   style="fill:#aaaabe;fill-opacity:1;stroke:#aaaabe;stroke-width:1.23545539;stroke-miterlimit:4;stroke-dasharray:none;stroke-opacity:1"
   transform="matrix(0,0.41895787,-0.41895787,0,25.268241,33.510966)">
</g>
<g
   id="g18"
   style="fill:#aaaabe;fill-opacity:1;stroke:#aaaabe;stroke-width:1.23545539;stroke-miterlimit:4;stroke-dasharray:none;stroke-opacity:1"
   transform="matrix(0,0.41895787,-0.41895787,0,25.268241,33.510966)">
</g>
<g
   id="g20"
   style="fill:#aaaabe;fill-opacity:1;stroke:#aaaabe;stroke-width:1.23545539;stroke-miterlimit:4;stroke-dasharray:none;stroke-opacity:1"
   transform="matrix(0,0.41895787,-0.41895787,0,25.268241,33.510966)">
</g>
<g
   id="g22"
   style="fill:#aaaabe;fill-opacity:1;stroke:#aaaabe;stroke-width:1.23545539;stroke-miterlimit:4;stroke-dasharray:none;stroke-opacity:1"
   transform="matrix(0,0.41895787,-0.41895787,0,25.268241,33.510966)">
</g>
<g
   id="g24"
   style="fill:#aaaabe;fill-opacity:1;stroke:#aaaabe;stroke-width:1.23545539;stroke-miterlimit:4;stroke-dasharray:none;stroke-opacity:1"
   transform="matrix(0,0.41895787,-0.41895787,0,25.268241,33.510966)">
</g>
<g
   id="g26"
   style="fill:#aaaabe;fill-opacity:1;stroke:#aaaabe;stroke-width:1.23545539;stroke-miterlimit:4;stroke-dasharray:none;stroke-opacity:1"
   transform="matrix(0,0.41895787,-0.41895787,0,25.268241,33.510966)">
</g>
<g
   id="g28"
   style="fill:#aaaabe;fill-opacity:1;stroke:#aaaabe;stroke-width:1.23545539;stroke-miterlimit:4;stroke-dasharray:none;stroke-opacity:1"
   transform="matrix(0,0.41895787,-0.41895787,0,25.268241,33.510966)">
</g>
<g
   id="g30"
   style="fill:#aaaabe;fill-opacity:1;stroke:#aaaabe;stroke-width:1.23545539;stroke-miterlimit:4;stroke-dasharray:none;stroke-opacity:1"
   transform="matrix(0,0.41895787,-0.41895787,0,25.268241,33.510966)">
</g>
<g
   id="g32"
   style="fill:#aaaabe;fill-opacity:1;stroke:#aaaabe;stroke-width:1.23545539;stroke-miterlimit:4;stroke-dasharray:none;stroke-opacity:1"
   transform="matrix(0,0.41895787,-0.41895787,0,25.268241,33.510966)">
</g>
<g
   id="g34"
   style="fill:#aaaabe;fill-opacity:1;stroke:#aaaabe;stroke-width:1.23545539;stroke-miterlimit:4;stroke-dasharray:none;stroke-opacity:1"
   transform="matrix(0,0.41895787,-0.41895787,0,25.268241,33.510966)">
</g>
<g
   id="g36"
   style="fill:#aaaabe;fill-opacity:1;stroke:#aaaabe;stroke-width:1.23545539;stroke-miterlimit:4;stroke-dasharray:none;stroke-opacity:1"
   transform="matrix(0,0.41895787,-0.41895787,0,25.268241,33.510966)">
</g>
<g
   id="g38"
   style="fill:#aaaabe;fill-opacity:1;stroke:#aaaabe;stroke-width:1.23545539;stroke-miterlimit:4;stroke-dasharray:none;stroke-opacity:1"
   transform="matrix(0,0.41895787,-0.41895787,0,25.268241,33.510966)">
</g>
</svg>