<?xml version="1.0" encoding="UTF-8" standalone="no"?>
<!-- Created with Inkscape (http://www.inkscape.org/) -->

<svg
        xmlns:dc="http://purl.org/dc/elements/1.1/"
        xmlns:cc="http://creativecommons.org/ns#"
        xmlns:rdf="http://www.w3.org/1999/02/22-rdf-syntax-ns#"
        xmlns="http://www.w3.org/2000/svg"
        xmlns:sodipodi="http://sodipodi.sourceforge.net/DTD/sodipodi-0.dtd"
        xmlns:inkscape="http://www.inkscape.org/namespaces/inkscape"
        width="32"
        height="32"
        id="svg2"
        version="1.1"
        inkscape:version="0.92.4 5da689c313, 2019-01-14"
        sodipodi:docname="genre.svg">
  <defs
     id="defs4" />
  <sodipodi:namedview
     id="base"
     pagecolor="#ffffff"
     bordercolor="#666666"
     borderopacity="1.0"
     inkscape:pageopacity="0.0"
     inkscape:pageshadow="2"
     inkscape:zoom="5.6568542"
     inkscape:cx="4.8224747"
     inkscape:cy="-30.828218"
     inkscape:document-units="px"
     inkscape:current-layer="layer1"
     showgrid="false"
     fit-margin-top="0"
     fit-margin-left="0"
     fit-margin-right="0"
     fit-margin-bottom="0"
     inkscape:window-width="1920"
     inkscape:window-height="1013"
     inkscape:window-x="0"
     inkscape:window-y="0"
     inkscape:window-maximized="1" />
  <metadata
     id="metadata7">
    <rdf:RDF>
      <cc:Work
         rdf:about="">
        <dc:format>image/svg+xml</dc:format>
        <dc:type
           rdf:resource="http://purl.org/dc/dcmitype/StillImage" />
        <dc:title />
      </cc:Work>
    </rdf:RDF>
  </metadata>
  <g
     inkscape:label="Layer 1"
     inkscape:groupmode="layer"
     id="layer1"
     transform="translate(-438.62543,-544.5939)">
    <g
       id="g1047"
       transform="matrix(0.7631617,0,0,0.7631617,107.67271,132.77047)">
      <g
         style="fill:#aaaabe;fill-opacity:1"
         transform="matrix(0.33224632,0,0,0.33224632,198.0026,348.65635)"
         id="background" />
      <g
         style="fill:#aaaabe;fill-opacity:1"
         transform="matrix(0.33224632,0,0,0.33224632,198.0026,348.65635)"
         id="design" />
      <g
         transform="matrix(0.44984153,0,0,0.44984153,436.19663,555.65412)"
         id="g961"
         style="fill:#aaaabe;fill-opacity:1" />
      <g
         transform="matrix(0.44984153,0,0,0.44984153,436.19663,555.65412)"
         id="g963"
         style="fill:#aaaabe;fill-opacity:1" />
      <g
         transform="matrix(0.44984153,0,0,0.44984153,436.19663,555.65412)"
         id="g965"
         style="fill:#aaaabe;fill-opacity:1" />
      <g
         transform="matrix(0.44984153,0,0,0.44984153,436.19663,555.65412)"
         id="g967"
         style="fill:#aaaabe;fill-opacity:1" />
      <g
         transform="matrix(0.44984153,0,0,0.44984153,436.19663,555.65412)"
         id="g969"
         style="fill:#aaaabe;fill-opacity:1" />
      <g
         transform="matrix(0.44984153,0,0,0.44984153,436.19663,555.65412)"
         id="g971"
         style="fill:#aaaabe;fill-opacity:1" />
      <g
         transform="matrix(0.44984153,0,0,0.44984153,436.19663,555.65412)"
         id="g973"
         style="fill:#aaaabe;fill-opacity:1" />
      <g
         transform="matrix(0.44984153,0,0,0.44984153,436.19663,555.65412)"
         id="g975"
         style="fill:#aaaabe;fill-opacity:1" />
      <g
         transform="matrix(0.44984153,0,0,0.44984153,436.19663,555.65412)"
         id="g977"
         style="fill:#aaaabe;fill-opacity:1" />
      <g
         transform="matrix(0.44984153,0,0,0.44984153,436.19663,555.65412)"
         id="g979"
         style="fill:#aaaabe;fill-opacity:1" />
      <g
         transform="matrix(0.44984153,0,0,0.44984153,436.19663,555.65412)"
         id="g981"
         style="fill:#aaaabe;fill-opacity:1" />
      <g
         transform="matrix(0.44984153,0,0,0.44984153,436.19663,555.65412)"
         id="g983"
         style="fill:#aaaabe;fill-opacity:1" />
      <g
         transform="matrix(0.44984153,0,0,0.44984153,436.19663,555.65412)"
         id="g985"
         style="fill:#aaaabe;fill-opacity:1" />
      <g
         transform="matrix(0.44984153,0,0,0.44984153,436.19663,555.65412)"
         id="g987"
         style="fill:#aaaabe;fill-opacity:1" />
      <g
         transform="matrix(0.44984153,0,0,0.44984153,436.19663,555.65412)"
         id="g989"
         style="fill:#aaaabe;fill-opacity:1" />
      <g
         id="g1392"
         transform="matrix(0.33224632,0,0,0.33224632,483.78559,526.90869)"
         style="fill:#aaaabe;fill-opacity:1" />
      <g
         id="g1394"
         transform="matrix(0.33224632,0,0,0.33224632,483.78559,526.90869)"
         style="fill:#aaaabe;fill-opacity:1" />
      <g
         id="g1396"
         transform="matrix(0.33224632,0,0,0.33224632,483.78559,526.90869)"
         style="fill:#aaaabe;fill-opacity:1" />
      <g
         id="g1398"
         transform="matrix(0.33224632,0,0,0.33224632,483.78559,526.90869)"
         style="fill:#aaaabe;fill-opacity:1" />
      <g
         id="g1400"
         transform="matrix(0.33224632,0,0,0.33224632,483.78559,526.90869)"
         style="fill:#aaaabe;fill-opacity:1" />
      <g
         id="g1402"
         transform="matrix(0.33224632,0,0,0.33224632,483.78559,526.90869)"
         style="fill:#aaaabe;fill-opacity:1" />
      <g
         id="g1404"
         transform="matrix(0.33224632,0,0,0.33224632,483.78559,526.90869)"
         style="fill:#aaaabe;fill-opacity:1" />
      <g
         id="g1406"
         transform="matrix(0.33224632,0,0,0.33224632,483.78559,526.90869)"
         style="fill:#aaaabe;fill-opacity:1" />
      <g
         id="g1408"
         transform="matrix(0.33224632,0,0,0.33224632,483.78559,526.90869)"
         style="fill:#aaaabe;fill-opacity:1" />
      <g
         id="g1410"
         transform="matrix(0.33224632,0,0,0.33224632,483.78559,526.90869)"
         style="fill:#aaaabe;fill-opacity:1" />
      <g
         id="g1412"
         transform="matrix(0.33224632,0,0,0.33224632,483.78559,526.90869)"
         style="fill:#aaaabe;fill-opacity:1" />
      <g
         id="g1414"
         transform="matrix(0.33224632,0,0,0.33224632,483.78559,526.90869)"
         style="fill:#aaaabe;fill-opacity:1" />
      <g
         id="g1416"
         transform="matrix(0.33224632,0,0,0.33224632,483.78559,526.90869)"
         style="fill:#aaaabe;fill-opacity:1" />
      <g
         id="g1418"
         transform="matrix(0.33224632,0,0,0.33224632,483.78559,526.90869)"
         style="fill:#aaaabe;fill-opacity:1" />
      <g
         id="g1420"
         transform="matrix(0.33224632,0,0,0.33224632,483.78559,526.90869)"
         style="fill:#aaaabe;fill-opacity:1" />
      <g
         id="g1485"
         transform="matrix(0.33224632,0,0,0.33224632,501.86146,573.05845)"
         style="fill:#aaaabe;fill-opacity:1" />
      <g
         id="g1487"
         transform="matrix(0.33224632,0,0,0.33224632,501.86146,573.05845)"
         style="fill:#aaaabe;fill-opacity:1" />
      <g
         id="g1489"
         transform="matrix(0.33224632,0,0,0.33224632,501.86146,573.05845)"
         style="fill:#aaaabe;fill-opacity:1" />
      <g
         id="g1491"
         transform="matrix(0.33224632,0,0,0.33224632,501.86146,573.05845)"
         style="fill:#aaaabe;fill-opacity:1" />
      <g
         id="g1493"
         transform="matrix(0.33224632,0,0,0.33224632,501.86146,573.05845)"
         style="fill:#aaaabe;fill-opacity:1" />
      <g
         id="g1495"
         transform="matrix(0.33224632,0,0,0.33224632,501.86146,573.05845)"
         style="fill:#aaaabe;fill-opacity:1" />
      <g
         id="g1497"
         transform="matrix(0.33224632,0,0,0.33224632,501.86146,573.05845)"
         style="fill:#aaaabe;fill-opacity:1" />
      <g
         id="g1499"
         transform="matrix(0.33224632,0,0,0.33224632,501.86146,573.05845)"
         style="fill:#aaaabe;fill-opacity:1" />
      <g
         id="g1501"
         transform="matrix(0.33224632,0,0,0.33224632,501.86146,573.05845)"
         style="fill:#aaaabe;fill-opacity:1" />
      <g
         id="g1503"
         transform="matrix(0.33224632,0,0,0.33224632,501.86146,573.05845)"
         style="fill:#aaaabe;fill-opacity:1" />
      <g
         id="g1505"
         transform="matrix(0.33224632,0,0,0.33224632,501.86146,573.05845)"
         style="fill:#aaaabe;fill-opacity:1" />
      <g
         id="g1507"
         transform="matrix(0.33224632,0,0,0.33224632,501.86146,573.05845)"
         style="fill:#aaaabe;fill-opacity:1" />
      <g
         id="g1509"
         transform="matrix(0.33224632,0,0,0.33224632,501.86146,573.05845)"
         style="fill:#aaaabe;fill-opacity:1" />
      <g
         id="g1511"
         transform="matrix(0.33224632,0,0,0.33224632,501.86146,573.05845)"
         style="fill:#aaaabe;fill-opacity:1" />
      <g
         id="g1513"
         transform="matrix(0.33224632,0,0,0.33224632,501.86146,573.05845)"
         style="fill:#aaaabe;fill-opacity:1" />
      <g
         transform="matrix(0.06116906,0,0,0.06116906,430.0254,545.6462)"
         id="g1034" />
      <g
         transform="matrix(0.06116906,0,0,0.06116906,430.0254,545.6462)"
         id="g1036" />
      <g
         transform="matrix(0.06116906,0,0,0.06116906,430.0254,545.6462)"
         id="g1038" />
      <g
         transform="matrix(0.06116906,0,0,0.06116906,430.0254,545.6462)"
         id="g1040" />
      <g
         transform="matrix(0.06116906,0,0,0.06116906,430.0254,545.6462)"
         id="g1042" />
      <g
         transform="matrix(0.06116906,0,0,0.06116906,430.0254,545.6462)"
         id="g1044" />
      <g
         transform="matrix(0.06116906,0,0,0.06116906,430.0254,545.6462)"
         id="g1046" />
      <g
         transform="matrix(0.06116906,0,0,0.06116906,430.0254,545.6462)"
         id="g1048" />
      <g
         transform="matrix(0.06116906,0,0,0.06116906,430.0254,545.6462)"
         id="g1050" />
      <g
         transform="matrix(0.06116906,0,0,0.06116906,430.0254,545.6462)"
         id="g1052" />
      <g
         transform="matrix(0.06116906,0,0,0.06116906,430.0254,545.6462)"
         id="g1054" />
      <g
         transform="matrix(0.06116906,0,0,0.06116906,430.0254,545.6462)"
         id="g1056" />
      <g
         transform="matrix(0.06116906,0,0,0.06116906,430.0254,545.6462)"
         id="g1058" />
      <g
         transform="matrix(0.06116906,0,0,0.06116906,430.0254,545.6462)"
         id="g1060" />
      <g
         transform="matrix(0.06116906,0,0,0.06116906,430.0254,545.6462)"
         id="g1062" />
      <g
         transform="matrix(0.33224632,0,0,0.33224632,356.13108,469.73358)"
         id="g1291" />
      <g
         transform="matrix(0.33224632,0,0,0.33224632,356.13108,469.73358)"
         id="g1293" />
      <g
         transform="matrix(0.33224632,0,0,0.33224632,356.13108,469.73358)"
         id="g1295" />
      <g
         transform="matrix(0.33224632,0,0,0.33224632,356.13108,469.73358)"
         id="g1297" />
      <g
         transform="matrix(0.33224632,0,0,0.33224632,356.13108,469.73358)"
         id="g1299" />
      <g
         transform="matrix(0.33224632,0,0,0.33224632,356.13108,469.73358)"
         id="g1301" />
      <g
         transform="matrix(0.33224632,0,0,0.33224632,356.13108,469.73358)"
         id="g1303" />
      <g
         transform="matrix(0.33224632,0,0,0.33224632,356.13108,469.73358)"
         id="g1305" />
      <g
         transform="matrix(0.33224632,0,0,0.33224632,356.13108,469.73358)"
         id="g1307" />
      <g
         transform="matrix(0.33224632,0,0,0.33224632,356.13108,469.73358)"
         id="g1309" />
      <g
         transform="matrix(0.33224632,0,0,0.33224632,356.13108,469.73358)"
         id="g1311" />
      <g
         transform="matrix(0.33224632,0,0,0.33224632,356.13108,469.73358)"
         id="g1313" />
      <g
         transform="matrix(0.33224632,0,0,0.33224632,356.13108,469.73358)"
         id="g1315" />
      <g
         transform="matrix(0.33224632,0,0,0.33224632,356.13108,469.73358)"
         id="g1317" />
      <g
         transform="matrix(0.33224632,0,0,0.33224632,356.13108,469.73358)"
         id="g1319" />
      <g
         transform="matrix(0.06486658,0,0,0.06486658,438.01958,543.98806)"
         id="g897"
         style="fill:#7d7d91;fill-opacity:1;stroke:#7d7d91;stroke-width:4.08530855;stroke-miterlimit:4;stroke-dasharray:none;stroke-opacity:1">
        <path
           inkscape:connector-curvature="0"
           d="m 298.355,182.647 -11.948,9.408 c 10.334,13.126 15.797,28.918 15.797,45.668 0,40.748 -33.15,73.899 -73.899,73.899 -40.749,0 -73.9,-33.15 -73.9,-73.899 0,-40.749 33.151,-73.899 73.9,-73.899 16.622,0 32.317,5.387 45.39,15.577 l 9.351,-11.994 c -15.77,-12.293 -34.698,-18.791 -54.739,-18.791 -49.136,0 -89.109,39.974 -89.109,89.107 0,49.134 39.974,89.107 89.108,89.107 49.134,0 89.107,-39.974 89.107,-89.107 -0.001,-20.197 -6.59,-39.241 -19.058,-55.076 z"
           id="path895"
           style="fill:#7d7d91;fill-opacity:1;stroke:#7d7d91;stroke-width:4.08530855;stroke-miterlimit:4;stroke-dasharray:none;stroke-opacity:1" />
      </g>
      <g
         transform="matrix(0.06486658,0,0,0.06486658,438.01958,543.98806)"
         id="g903"
         style="fill:#7d7d91;fill-opacity:1;stroke:#7d7d91;stroke-width:4.08530855;stroke-miterlimit:4;stroke-dasharray:none;stroke-opacity:1">
        <path
           inkscape:connector-curvature="0"
           d="m 228.304,210.038 c -15.265,0 -27.684,12.42 -27.684,27.685 0,15.265 12.419,27.683 27.684,27.683 15.266,0 27.685,-12.419 27.685,-27.683 0.001,-15.266 -12.419,-27.685 -27.685,-27.685 z m -0.001,40.161 c -6.879,0 -12.476,-5.597 -12.476,-12.476 0,-6.88 5.596,-12.478 12.476,-12.478 6.881,0 12.478,5.596 12.478,12.478 0,6.879 -5.598,12.476 -12.478,12.476 z"
           id="path901"
           style="fill:#7d7d91;fill-opacity:1;stroke:#7d7d91;stroke-width:4.08530855;stroke-miterlimit:4;stroke-dasharray:none;stroke-opacity:1" />
      </g>
      <path
         style="fill:#aaaabe;fill-opacity:1;stroke:#aaaabe;stroke-width:0.26499999;stroke-miterlimit:4;stroke-dasharray:none;stroke-opacity:1"
         id="path907"
         d="m 469.60026,558.42632 c -0.22871,0 -0.44667,0.0474 -0.64451,0.13278 v -0.77742 c 0,-0.89938 -0.73169,-1.63107 -1.63107,-1.63107 -0.016,0 -0.0318,10e-4 -0.0478,10e-4 -1.50665,-6.72362 -7.50435,-11.55313 -14.44799,-11.55313 -3.95569,0 -7.67462,1.54045 -10.4718,4.33757 -2.79705,2.79711 -4.3375,6.51604 -4.3375,10.4718 0,3.95569 1.54045,7.67462 4.3375,10.47167 2.79718,2.79711 6.51604,4.3375 10.4718,4.3375 2.24873,0 4.4793,-0.5166 6.48854,-1.49589 0.91812,2.26514 3.14123,3.86722 5.73187,3.86722 3.40874,0 6.18198,-2.77325 6.18198,-6.18198 V 560.0569 c 0,-0.89937 -0.73163,-1.63107 -1.63101,-1.63107 z m -10.73282,4.66521 v 5.28766 c -1.78688,1.20574 -3.86897,1.84208 -6.03849,1.84208 -5.96235,0 -10.81307,-4.85072 -10.81307,-10.81306 0,-5.96241 4.85072,-10.8132 10.81307,-10.8132 v -0.98642 c -6.50632,0 -11.79956,5.29331 -11.79956,11.79968 0,6.50632 5.29324,11.79956 11.79956,11.79956 2.14747,0 4.21671,-0.57135 6.03849,-1.65994 v 0.85897 c 0,0.056 8.4e-4,0.1117 0.002,0.16722 3.8e-4,0.0123 10e-4,0.0245 10e-4,0.0368 0.001,0.0442 0.003,0.0884 0.006,0.13239 6.5e-4,0.0114 10e-4,0.0227 0.002,0.034 0.003,0.0459 0.006,0.0916 0.01,0.1372 7.1e-4,0.008 10e-4,0.0165 0.002,0.0248 0.004,0.0496 0.009,0.099 0.0145,0.14822 5.2e-4,0.005 10e-4,0.009 10e-4,0.0137 0.006,0.0542 0.0129,0.10819 0.0204,0.1619 0,0 0,2e-4 0,2.6e-4 0.0238,0.17125 0.0546,0.34042 0.0922,0.50694 -1.90935,0.95665 -4.04119,1.46073 -6.19035,1.46073 -7.62202,0 -13.82281,-6.20086 -13.82281,-13.82268 0,-7.62202 6.20086,-13.82288 13.82281,-13.82288 6.30477,0 11.77484,4.26544 13.36245,10.27429 -0.0196,-0.0193 -0.0398,-0.0379 -0.0604,-0.0562 -0.004,-0.004 -0.009,-0.007 -0.013,-0.011 -0.0219,-0.019 -0.0442,-0.0374 -0.0671,-0.0553 -0.007,-0.006 -0.0141,-0.011 -0.0213,-0.0164 -0.0267,-0.0202 -0.0539,-0.0397 -0.0819,-0.0583 -0.004,-0.003 -0.008,-0.005 -0.0126,-0.008 -0.0249,-0.0161 -0.0504,-0.0317 -0.0762,-0.0464 -0.008,-0.004 -0.0155,-0.009 -0.0233,-0.0133 -0.0296,-0.0164 -0.0596,-0.0321 -0.0904,-0.0466 -0.004,-0.002 -0.007,-0.003 -0.011,-0.005 -0.028,-0.013 -0.0564,-0.025 -0.0851,-0.0365 -0.008,-0.003 -0.0166,-0.007 -0.025,-0.01 -0.0322,-0.0123 -0.0648,-0.0236 -0.098,-0.0338 -0.003,-8.4e-4 -0.005,-10e-4 -0.008,-0.002 -0.0311,-0.009 -0.0626,-0.0177 -0.0944,-0.0251 -0.009,-0.002 -0.0176,-0.004 -0.0263,-0.006 -0.0344,-0.008 -0.0691,-0.0143 -0.10417,-0.0196 -10e-4,-1.9e-4 -0.003,-3.2e-4 -0.004,-5.8e-4 -0.0339,-0.005 -0.0682,-0.009 -0.10281,-0.0115 -0.009,-7.8e-4 -0.0183,-0.001 -0.0275,-0.002 -0.0362,-0.002 -0.0726,-0.004 -0.1093,-0.004 -0.89938,0 -1.63101,0.73163 -1.63101,1.63094 v 0.0189 c -0.19784,-0.0854 -0.41573,-0.13271 -0.64451,-0.13271 -0.89938,0 -1.63107,0.73169 -1.63107,1.63107 v 3.0532 c -0.19785,-0.0854 -0.41573,-0.13278 -0.64452,-0.13278 -0.89905,-1.3e-4 -1.63068,0.7315 -1.63068,1.63075 z m 11.37747,7.31533 h -1.3e-4 c 0,2.86483 -2.33072,5.19548 -5.19549,5.19548 -2.39124,0 -4.40918,-1.62432 -5.01133,-3.82732 -0.0138,-0.0505 -0.0267,-0.10113 -0.039,-0.15198 -0.01,-0.0414 -0.0198,-0.0828 -0.0288,-0.12461 -0.008,-0.0364 -0.015,-0.0728 -0.022,-0.10943 -0.008,-0.0404 -0.015,-0.0811 -0.0219,-0.12195 -0.006,-0.0332 -0.0113,-0.0664 -0.0163,-0.0997 -0.0103,-0.0697 -0.0193,-0.13953 -0.0268,-0.21004 -0.003,-0.0241 -0.004,-0.0482 -0.007,-0.0723 -0.005,-0.0563 -0.01,-0.11287 -0.0129,-0.16976 -0.001,-0.0244 -0.003,-0.0488 -0.004,-0.0732 -0.004,-0.078 -0.006,-0.15627 -0.006,-0.23514 v -7.31533 c 0,-0.35534 0.28917,-0.64445 0.64451,-0.64445 0.35534,0 0.64452,0.28911 0.64452,0.64445 v 5.15423 h 0.98649 v -5.15423 -0.49325 -4.05805 c 0,-0.35541 0.28911,-0.64458 0.64458,-0.64458 0.35533,0 0.64451,0.28911 0.64451,0.64458 v 7.04918 h 0.98649 v -7.04918 -0.49325 -1.02398 c 0,-0.35534 0.28918,-0.64445 0.64452,-0.64445 0.35533,0 0.64451,0.28911 0.64451,0.64445 v 0.26537 0.49324 7.04918 h 0.98649 v -7.04918 c 0,-0.0291 0.003,-0.0577 0.006,-0.0859 10e-4,-0.008 0.002,-0.015 0.003,-0.0226 0.004,-0.0247 0.01,-0.049 0.0166,-0.0729 10e-4,-0.004 0.002,-0.008 0.003,-0.0122 0.008,-0.0243 0.0172,-0.0479 0.0276,-0.071 0.004,-0.009 0.009,-0.0182 0.0131,-0.0272 0.009,-0.0173 0.0185,-0.0341 0.0288,-0.0505 0.007,-0.0106 0.0137,-0.0211 0.0209,-0.0315 0.0114,-0.016 0.0235,-0.0315 0.0364,-0.0464 0.007,-0.008 0.0145,-0.0163 0.0221,-0.0243 0.0154,-0.016 0.0314,-0.0316 0.0485,-0.0461 0.005,-0.005 0.011,-0.009 0.0165,-0.0136 0.0194,-0.0153 0.0397,-0.0295 0.0609,-0.0427 0.005,-0.003 0.0108,-0.007 0.0163,-0.01 0.0254,-0.0147 0.0516,-0.0283 0.0793,-0.0396 0.0754,-0.0311 0.15776,-0.0484 0.24429,-0.0484 0.3554,0 0.64458,0.28911 0.64458,0.64458 v 1.78253 0.49325 5.53201 h 0.98649 v -5.53201 c 0,-0.35541 0.28917,-0.64458 0.64451,-0.64458 0.35534,0 0.64452,0.28911 0.64452,0.64458 v 10.34953 z"
         inkscape:connector-curvature="0" />
      <g
         transform="matrix(0.33224632,0,0,0.33224632,226.59536,470.97427)"
         id="g919" />
      <g
         transform="matrix(0.33224632,0,0,0.33224632,226.59536,470.97427)"
         id="g921" />
      <g
         transform="matrix(0.33224632,0,0,0.33224632,226.59536,470.97427)"
         id="g923" />
      <g
         transform="matrix(0.33224632,0,0,0.33224632,226.59536,470.97427)"
         id="g925" />
      <g
         transform="matrix(0.33224632,0,0,0.33224632,226.59536,470.97427)"
         id="g927" />
      <g
         transform="matrix(0.33224632,0,0,0.33224632,226.59536,470.97427)"
         id="g929" />
      <g
         transform="matrix(0.33224632,0,0,0.33224632,226.59536,470.97427)"
         id="g931" />
      <g
         transform="matrix(0.33224632,0,0,0.33224632,226.59536,470.97427)"
         id="g933" />
      <g
         transform="matrix(0.33224632,0,0,0.33224632,226.59536,470.97427)"
         id="g935" />
      <g
         transform="matrix(0.33224632,0,0,0.33224632,226.59536,470.97427)"
         id="g937" />
      <g
         transform="matrix(0.33224632,0,0,0.33224632,226.59536,470.97427)"
         id="g939" />
      <g
         transform="matrix(0.33224632,0,0,0.33224632,226.59536,470.97427)"
         id="g941" />
      <g
         transform="matrix(0.33224632,0,0,0.33224632,226.59536,470.97427)"
         id="g943" />
      <g
         transform="matrix(0.33224632,0,0,0.33224632,226.59536,470.97427)"
         id="g945" />
      <g
         transform="matrix(0.33224632,0,0,0.33224632,226.59536,470.97427)"
         id="g947" />
    </g>
  </g>
</svg>
