<svg xmlns:rdf="http://www.w3.org/1999/02/22-rdf-syntax-ns#" xmlns="http://www.w3.org/2000/svg" enable-background="new 0 0 263.6 269" xml:space="preserve" viewBox="0 0 99.999997 100" height="100" width="100" version="1.1" y="0px" x="0px" xmlns:cc="http://creativecommons.org/ns#" xmlns:dc="http://purl.org/dc/elements/1.1/"><metadata><rdf:RDF><cc:Work rdf:about=""><dc:format>image/svg+xml</dc:format><dc:type rdf:resource="http://purl.org/dc/dcmitype/StillImage"/><dc:title/></cc:Work></rdf:RDF></metadata><g stroke-width="0.70591187" transform="translate(-1.6718017,3.0617364)"><path d="m67.358,81.399-0.0334,2.9442c2.5428-1.0706,4.9517-2.4089,7.1933-3.9145-0.23419-3.6803,1.2714-7.7621,4.4164-10.941,2.6766-2.6431,6.0558-4.2491,9.4015-4.4164,0.66915-1.2714,1.3048-2.5762,1.8402-3.881v-8.1625l-22.818,6.1225z" fill="#9b9b9b"/><path d="M92.585,36.399c-3.948-19.639-21.312-34.461-42.089-34.461-23.688,0-42.926,19.238-42.926,42.926,0,21.112,15.323,38.71,35.465,42.257-0.66914-3.948,0.83643-8.5316,4.316-12.011,2.8439-2.8439,6.5242-4.4833,10.104-4.4833,0.40148,0,0.76951,0,1.1375,0.06691v-11.544c-2.3755,1.3717-5.1524,2.1413-8.0966,2.1413-9.0669,0-16.428-7.3606-16.428-16.428,0-9.0669,7.394-16.428,16.428-16.428,8.5316,0,15.558,6.5576,16.361,14.855zm-55.338-6.792-10.405-17.063s7.2268-6.3903,15.993-6.3903l3.2119,18.87s-6.1561,0.26766-8.7993,4.5836zm11.978-4.115-2.844-20.141,3.178-0.4349,2.844,20.108z" fill="#9b9b9b"/><path d="m50.496,33.221c-6.4238,0-11.643,5.2193-11.643,11.643,0,6.4238,5.2193,11.643,11.643,11.643,3.145,0,5.9888-1.2714,8.0966-3.2788v-8.5316h3.0446l0.4684-0.13383c-0.168-6.289-5.287-11.341-11.61-11.341zm0,15.257c-1.974,0-3.6134-1.6394-3.6134-3.6134s1.6394-3.6134,3.6134-3.6134c2.0074,0,3.6134,1.6394,3.6134,3.6134s-1.6394,3.6134-3.6134,3.6134z" fill="#9b9b9b"/><path d="m95.764,74.54v-35.665l-0.36803,0.10037-2.342,0.63569-26.23,7.026-2.5093,0.66914-2.2416,0.60223h-0.30111v27.368c-1.2045-0.97026-2.71-1.4387-4.3494-1.4387-2.6097,0-5.5204,1.2045-7.829,3.513-3.0446,3.0446-4.1822,7.1264-3.1784,10.204,0.30112,0.93681,0.76952,1.7732,1.4721,2.5093l0.0334,0.03347c1.2714,1.2379,2.9442,1.8402,4.7844,1.8402,2.2751,0,4.7844-0.9368,6.9256-2.71,0.33458-0.26766,0.63569-0.53532,0.9368-0.86989,0.73606-0.7026,1.3048-1.5056,1.7732-2.3086,0.93681-1.5056,1.539-3.1115,1.7063-4.684h0.0669v-1.369-0.06691-23.32l29.041-7.7955,0.16728-0.03347v20.844c-0.50186-0.40149-1.0372-0.66915-1.6059-0.90335-0.76952-0.30112-1.5725-0.4684-2.4424-0.50186-0.10037,0-0.20075-0.03347-0.30112-0.03347-0.93681,0-1.9071,0.16729-2.8439,0.4684-1.7398,0.53532-3.4796,1.5725-4.9851,3.0781-1.8402,1.8401-2.9442,4.0149-3.3457,6.1561-0.20075,1.0706-0.2342,2.1078-0.0334,3.1115,0.13383,0.83643,0.40149,1.6394,0.83644,2.342,0.2342,0.40149,0.53531,0.76952,0.86988,1.1041,1.2714,1.2714,2.9777,1.8736,4.8178,1.8736,2.6431,0,5.5539-1.2379,7.8959-3.5465,2.4758-2.4424,3.7138-5.5204,3.5799-8.2305z" fill="#54545e"/></g></svg>
