<?xml version="1.0" encoding="UTF-8" standalone="no"?>
<!-- Generator: Adobe Illustrator 19.0.0, SVG Export Plug-In . SVG Version: 6.00 Build 0)  -->

<svg
   xmlns:dc="http://purl.org/dc/elements/1.1/"
   xmlns:cc="http://creativecommons.org/ns#"
   xmlns:rdf="http://www.w3.org/1999/02/22-rdf-syntax-ns#"
   xmlns:svg="http://www.w3.org/2000/svg"
   xmlns="http://www.w3.org/2000/svg"
   xmlns:sodipodi="http://sodipodi.sourceforge.net/DTD/sodipodi-0.dtd"
   xmlns:inkscape="http://www.inkscape.org/namespaces/inkscape"
   version="1.1"
   id="Capa_1"
   x="0px"
   y="0px"
   viewBox="0 0 32 32"
   xml:space="preserve"
   sodipodi:docname="nav-center.svg"
   width="32"
   height="32"
   inkscape:version="0.92.4 (5da689c313, 2019-01-14)"><metadata
   id="metadata47"><rdf:RDF><cc:Work
       rdf:about=""><dc:format>image/svg+xml</dc:format><dc:type
         rdf:resource="http://purl.org/dc/dcmitype/StillImage" /><dc:title /></cc:Work></rdf:RDF></metadata><defs
   id="defs45">
	
















		
	
			
			
		</defs><sodipodi:namedview
   pagecolor="#ffffff"
   bordercolor="#666666"
   borderopacity="1"
   objecttolerance="10"
   gridtolerance="10"
   guidetolerance="10"
   inkscape:pageopacity="0"
   inkscape:pageshadow="2"
   inkscape:window-width="1920"
   inkscape:window-height="1017"
   id="namedview43"
   showgrid="false"
   inkscape:zoom="15.733333"
   inkscape:cx="0.73964914"
   inkscape:cy="18.293943"
   inkscape:window-x="-8"
   inkscape:window-y="-8"
   inkscape:window-maximized="1"
   inkscape:current-layer="Capa_1" />
<path
   style="fill:#aaaabe;fill-opacity:1;stroke:#aaaabe;stroke-width:1.255;stroke-miterlimit:4;stroke-dasharray:none;stroke-opacity:1"
   inkscape:connector-curvature="0"
   id="path2"
   d="m 16,3.9554758 c -4.867249,0 -8.8129444,3.9456954 -8.8129444,8.8129442 0,4.735756 8.1567804,14.657129 8.5040904,15.076946 0.07612,0.09209 0.189379,0.145413 0.308854,0.145413 0.119475,0 0.232742,-0.05334 0.308854,-0.145413 0.34731,-0.419817 8.504091,-10.34119 8.504091,-15.076946 C 24.812945,7.9011712 20.86725,3.9554758 16,3.9554758 Z M 16,26.953656 C 14.492586,25.072093 7.9882324,16.723029 7.9882324,12.76842 7.9932897,8.3457241 11.577354,4.76171 16,4.7566525 c 4.422697,0.00506 8.00671,3.5890716 8.011768,8.0117675 0,3.953807 -6.504354,12.303272 -8.011768,14.185236 z" />















</svg>