<?xml version="1.0" encoding="UTF-8" standalone="no"?>
<!-- Generator: Adobe Illustrator 19.0.0, SVG Export Plug-In . SVG Version: 6.00 Build 0)  -->

<svg
        xmlns:dc="http://purl.org/dc/elements/1.1/"
        xmlns:cc="http://creativecommons.org/ns#"
        xmlns:rdf="http://www.w3.org/1999/02/22-rdf-syntax-ns#"
        xmlns="http://www.w3.org/2000/svg"
        xmlns:sodipodi="http://sodipodi.sourceforge.net/DTD/sodipodi-0.dtd"
        xmlns:inkscape="http://www.inkscape.org/namespaces/inkscape"
        version="1.1"
        id="Capa_1"
        x="0px"
        y="0px"
        viewBox="0 0 100 100"
        xml:space="preserve"
        sodipodi:docname="user.svg"
        inkscape:version="0.92.4 5da689c313, 2019-01-14"
        width="32"
        height="32"><metadata
     id="metadata39"><rdf:RDF><cc:Work
         rdf:about=""><dc:format>image/svg+xml</dc:format><dc:type
           rdf:resource="http://purl.org/dc/dcmitype/StillImage" /><dc:title></dc:title></cc:Work></rdf:RDF></metadata><defs
     id="defs37" /><sodipodi:namedview
     pagecolor="#ffffff"
     bordercolor="#666666"
     borderopacity="1"
     objecttolerance="10"
     gridtolerance="10"
     guidetolerance="10"
     inkscape:pageopacity="0"
     inkscape:pageshadow="2"
     inkscape:window-width="1920"
     inkscape:window-height="1013"
     id="namedview35"
     showgrid="false"
     inkscape:zoom="11.125147"
     inkscape:cx="-1.5682635"
     inkscape:cy="26.110056"
     inkscape:window-x="0"
     inkscape:window-y="0"
     inkscape:window-maximized="1"
     inkscape:current-layer="Capa_1"
     units="px" /><path
     d="M 73.604388,66.888917 61.08675,60.630753 c -1.180612,-0.590961 -1.9144,-1.778125 -1.9144,-3.098943 v -4.430246 c 0.300067,-0.366894 0.615858,-0.78489 0.942132,-1.246129 1.623505,-2.293088 2.924669,-4.845621 3.870732,-7.598637 1.848883,-0.847788 3.049151,-2.675705 3.049151,-4.739484 V 34.27597 c 0,-1.261852 -0.471721,-2.484396 -1.310336,-3.439631 v -6.969676 c 0.07338,-0.720685 0.361653,-5.010723 -2.741223,-8.54994 C 60.291377,12.246606 55.924028,10.689928 50,10.689928 c -5.924028,0 -10.291377,1.556678 -12.982806,4.625485 -3.102876,3.539216 -2.814601,7.830565 -2.741223,8.55125 v 6.969676 c -0.838615,0.955235 -1.310336,2.177779 -1.310336,3.439631 v 5.241344 c 0,1.594679 0.724616,3.081909 1.961573,4.073833 1.200268,4.752588 3.712181,8.333735 4.590106,9.4829 v 4.335901 c 0,1.268406 -0.691857,2.431984 -1.804332,3.039979 l -11.689505,6.376094 c -3.801284,2.074261 -6.161199,6.04982 -6.161199,10.379169 v 4.242868 c 0,6.218852 19.714001,7.862014 30.137722,7.862014 10.423721,0 30.137722,-1.643162 30.137722,-7.862014 v -3.987352 c 0,-4.504935 -2.504052,-8.556493 -6.533334,-10.571789 z m 3.912662,14.559141 c 0,1.778125 -9.712208,5.241343 -27.51705,5.241343 -17.804842,0 -27.51705,-3.463218 -27.51705,-5.241343 V 77.20519 c 0,-3.368873 1.83709,-6.465196 4.794517,-8.076909 l 11.689506,-6.376094 c 1.956332,-1.067924 3.171013,-3.115978 3.171013,-5.342239 v -5.266239 l -0.305309,-0.364273 c -0.03145,-0.038 -3.243081,-3.923146 -4.468245,-9.257522 l -0.11924,-0.518893 -0.446825,-0.288275 c -0.758684,-0.490065 -1.21206,-1.311645 -1.21206,-2.197432 V 34.27597 c 0,-0.735098 0.311859,-1.420404 0.877925,-1.932744 l 0.43241,-0.38917 V 23.793285 L 36.88485,23.62163 c -0.0039,-0.03538 -0.449445,-3.667629 2.103089,-6.579195 2.171227,-2.476534 5.876855,-3.731836 11.012062,-3.731836 5.116861,0 8.814629,1.246129 10.988475,3.70563 2.551224,2.884049 2.129295,6.573954 2.126675,6.605401 l -0.01179,8.332426 0.432411,0.39048 c 0.566065,0.51103 0.877924,1.196336 0.877924,1.931434 v 5.241344 c 0,1.143923 -0.749512,2.14502 -1.863297,2.488328 l -0.652547,0.20048 -0.209654,0.648617 c -0.876614,2.726808 -2.125364,5.245274 -3.713491,7.485948 -0.38917,0.551651 -0.767856,1.040407 -1.096751,1.413852 l -0.326274,0.372136 v 5.405135 c 0,2.319294 1.28806,4.404038 3.362322,5.441824 l 12.517637,6.258164 c 3.136943,1.568472 5.085413,4.721139 5.085413,8.228908 z"
     id="path2"
     style="fill:#aaaabe;fill-opacity:1;stroke:#aaaabe;stroke-width:1.36382997;stroke-miterlimit:4;stroke-dasharray:none;stroke-opacity:1"
     inkscape:connector-curvature="0" /></svg>