<?xml version="1.0" encoding="UTF-8" standalone="no"?>
<svg
   xmlns:dc="http://purl.org/dc/elements/1.1/"
   xmlns:cc="http://creativecommons.org/ns#"
   xmlns:rdf="http://www.w3.org/1999/02/22-rdf-syntax-ns#"
   xmlns:svg="http://www.w3.org/2000/svg"
   xmlns="http://www.w3.org/2000/svg"
   xmlns:sodipodi="http://sodipodi.sourceforge.net/DTD/sodipodi-0.dtd"
   xmlns:inkscape="http://www.inkscape.org/namespaces/inkscape"
   version="1.1"
   x="0px"
   y="0px"
   viewBox="0 0 100 99.994003"
   enable-background="new 0 0 100 100"
   xml:space="preserve"
   id="svg14"
   sodipodi:docname="close.svg"
   width="100"
   height="99.994003"
   inkscape:version="0.92.2 5c3e80d, 2017-08-06"><metadata
     id="metadata20"><rdf:RDF><cc:Work
         rdf:about=""><dc:format>image/svg+xml</dc:format><dc:type
           rdf:resource="http://purl.org/dc/dcmitype/StillImage" /><dc:title></dc:title></cc:Work></rdf:RDF></metadata><defs
     id="defs18" /><sodipodi:namedview
     pagecolor="#ffffff"
     bordercolor="#666666"
     borderopacity="1"
     objecttolerance="10"
     gridtolerance="10"
     guidetolerance="10"
     inkscape:pageopacity="0"
     inkscape:pageshadow="2"
     inkscape:window-width="1920"
     inkscape:window-height="987"
     id="namedview16"
     showgrid="false"
     fit-margin-top="0"
     fit-margin-left="0"
     fit-margin-right="0"
     fit-margin-bottom="0"
     inkscape:zoom="1.888"
     inkscape:cx="50"
     inkscape:cy="37.497"
     inkscape:window-x="0"
     inkscape:window-y="26"
     inkscape:window-maximized="1"
     inkscape:current-layer="svg14" /><g
     id="g4"
     transform="translate(0,-0.003)"><path
       d="M 50,0.003 C 22.43,0.003 0,22.431 0,50 0,77.569 22.43,99.997 50,99.997 77.572,99.997 100,77.569 100,50 100,22.431 77.572,0.003 50,0.003 Z m 0,94.226 C 25.611,94.229 5.769,74.389 5.769,50 5.769,25.613 25.611,5.772 50,5.772 74.389,5.772 94.231,25.613 94.231,50 94.231,74.389 74.389,94.229 50,94.229 Z"
       id="path2"
       inkscape:connector-curvature="0"
       style="fill:#000000" /></g><g
     id="g8"
     transform="translate(0,-0.003)"><path
       d="M 59.447,36.474 50,45.921 40.553,36.473 c -1.126,-1.126 -2.952,-1.127 -4.079,0 -1.126,1.126 -1.126,2.953 0,4.079 L 45.921,50 36.473,59.447 c -1.126,1.127 -1.126,2.953 0,4.079 1.128,1.128 2.953,1.127 4.08,10e-4 L 50,54.079 l 9.447,9.447 c 1.126,1.126 2.953,1.127 4.079,10e-4 1.128,-1.128 1.126,-2.954 0,-4.08 L 54.079,50 63.526,40.553 c 1.126,-1.125 1.128,-2.952 0,-4.079 -1.126,-1.127 -2.953,-1.126 -4.079,0 z"
       id="path6"
       inkscape:connector-curvature="0"
       style="fill:#000000" /></g></svg>