<?xml version='1.0' encoding='iso-8859-1'?>
<svg version="1.1" xmlns="http://www.w3.org/2000/svg" viewBox="0 0 87 87" xmlns:xlink="http://www.w3.org/1999/xlink" enable-background="new 0 0 87 87">
  <g>
    <path d="m23.761,47.307l.123-29.732c0.002-0.553-0.443-1.075-0.996-1.075-0.001,0-0.003,0-0.004,0-0.551,0-0.998,0.515-1,1.067l-.124,29.743c-3.571,0.544-6.318,3.644-6.318,7.364 0,3.7 2.718,6.778 6.261,7.346l-.034,8.528c-0.002,0.552 0.443,0.951 0.996,0.951 0.001,0 0.003,0 0.004,0 0.551,0 0.998-0.388 1-0.939l.034-8.505c3.718-0.41 6.621-3.553 6.621-7.378-3.55271e-15-3.805-2.873-6.934-6.563-7.37zm-6.319,7.385c0-3 2.441-5.441 5.441-5.441s5.44,2.441 5.44,5.441-2.44,5.44-5.44,5.44-5.441-2.44-5.441-5.44z"/>
    <path d="m45.175,26.553l.035-8.234c0.002-0.552-0.443-0.819-0.996-0.819-0.001,0-0.003,0-0.004,0-0.551,0-0.998,0.26-1,0.811l-.035,8.318c-3.655,0.469-6.491,3.547-6.491,7.327 0,3.76 2.805,6.846 6.431,7.341l-.12,30.012c-0.002,0.552 0.443,1.19 0.996,1.19 0.001,0 0.003,0 0.004,0 0.551,0 0.998-0.643 1-1.194l.12-29.929c3.636-0.487 6.451-3.65 6.451-7.417 7.10543e-15-3.745-2.784-6.893-6.391-7.406zm-1.05,12.799c-3,0-5.44-2.441-5.44-5.441s2.44-5.441 5.44-5.441 5.441,2.441 5.441,5.441-2.441,5.441-5.441,5.441z"/>
    <path d="m66.072,37.998l.08-19.532c0.002-0.552-0.443-0.967-0.996-0.967-0.001,0-0.003,0-0.004,0-0.551,0-0.998,0.407-1,0.959l-.08,19.544c-3.653,0.47-6.488,3.584-6.488,7.364 0,3.759 2.804,6.862 6.428,7.359l-.073,17.916c-0.002,0.552 0.443,0.859 0.996,0.859 0.001,0 0.003,0 0.004,0 0.551,0 0.998-0.302 1-0.853l.073-17.994c3.637-0.485 6.454-3.564 6.454-7.332 0.001-3.747-2.785-6.811-6.394-7.323zm-1.047,12.8c-3,0-5.44-2.441-5.44-5.441s2.44-5.441 5.44-5.441 5.441,2.441 5.441,5.441-2.441,5.441-5.441,5.441z"/>
    <path d="m87,17.5c0-9.389-7.611-17-17-17h-53c-9.389,0-17,7.611-17,17v52c0,9.389 7.611,17 17,17h53c9.389,0 17-7.611 17-17v-52zm-2,52c0,8.284-6.716,15-15,15h-53c-8.284,0-15-6.716-15-15v-52c0-8.284 6.716-15 15-15h53c8.284,0 15,6.716 15,15v52z"/>
  </g>
</svg>
