<?xml version='1.0' encoding='iso-8859-1'?>
<svg version="1.1" xmlns="http://www.w3.org/2000/svg" viewBox="0 0 99.893 99.893" xmlns:xlink="http://www.w3.org/1999/xlink" enable-background="new 0 0 99.893 99.893">
  <g>
    <path d="m50.818,76.876c-0.18,0-0.36-0.048-0.52-0.146-0.327-0.199-8.087-4.954-15.377-12.536-6.123-6.36-9.429-14.294-8.627-20.703 0.516-4.118 2.671-7.464 6.233-9.675 8.42-5.226 15.858,2.536 18.284,5.53 2.429-2.994 9.876-10.751 18.284-5.53 3.564,2.212 5.721,5.559 6.236,9.678 0.802,6.409-2.502,14.341-8.623,20.701-6.952,7.22-14.523,12.008-15.364,12.53-0.159,0.101-0.342,0.151-0.526,0.151zm-12.387-42.825c-1.656,0-3.274,0.488-4.848,1.464-3.075,1.909-4.859,4.676-5.304,8.224-0.729,5.825 2.369,13.132 8.084,19.069 6.051,6.293 12.59,10.686 14.453,11.884 1.97-1.271 8.443-5.644 14.452-11.885 5.713-5.935 8.809-13.241 8.079-19.065-0.443-3.55-2.229-6.318-5.306-8.228-3.561-2.212-7.363-1.916-11.302,0.882-3.074,2.186-5.078,5.129-5.099,5.159-0.186,0.275-0.497,0.441-0.829,0.441-0.333,0-0.644-0.166-0.83-0.441-0.02-0.029-2.021-2.973-5.096-5.158-2.197-1.563-4.356-2.346-6.454-2.346z"/>
    <path d="M49.946,99.893C22.406,99.893,0,77.487,0,49.946S22.406,0,49.946,0s49.946,22.406,49.946,49.946   S77.486,99.893,49.946,99.893z M49.946,2C23.509,2,2,23.509,2,49.946s21.509,47.946,47.946,47.946s47.946-21.509,47.946-47.946   S76.384,2,49.946,2z"/>
  </g>
</svg>
