<?xml version='1.0' encoding='iso-8859-1'?>
<svg version="1.1" xmlns="http://www.w3.org/2000/svg" viewBox="0 0 99.893 99.893" xmlns:xlink="http://www.w3.org/1999/xlink" enable-background="new 0 0 99.893 99.893">
  <g>
    <path d="m73.98,53.416c-0.552,0-1-0.448-1-1 0-14.95-10.233-27.112-22.811-27.112s-22.809,12.162-22.809,27.112c0,0.552-0.448,1-1,1s-1-0.448-1-1c0-16.052 11.13-29.112 24.81-29.112 13.681,0 24.811,13.06 24.811,29.112-0.001,0.552-0.449,1-1.001,1z"/>
    <g>
      <path d="m75.075,68.144c-0.844,0-1.668-0.295-2.331-0.856-0.929-0.787-1.392-1.979-1.239-3.187l1.548-12.182c0.157-1.234 0.925-2.283 2.054-2.807 1.129-0.521 2.426-0.431 3.469,0.247 3.273,2.127 4.987,5.994 4.473,10.093-0.52,4.141-3.174,7.412-6.927,8.539-0.345,0.102-0.698,0.153-1.047,0.153zm1.549-17.37c-0.227,0-0.456,0.05-0.675,0.152-0.508,0.236-0.84,0.689-0.911,1.244l-1.548,12.182c-0.069,0.542 0.13,1.056 0.547,1.409 0.424,0.359 0.974,0.473 1.51,0.312 2.983-0.895 5.097-3.528 5.517-6.872 0.418-3.332-0.953-6.461-3.578-8.167-0.267-0.172-0.563-0.26-0.862-0.26z"/>
    </g>
    <path d="M49.947,99.893C22.406,99.893,0,77.487,0,49.947S22.406,0,49.947,0s49.946,22.406,49.946,49.947   S77.487,99.893,49.947,99.893z M49.947,2C23.509,2,2,23.509,2,49.947c0,26.438,21.509,47.946,47.946,47.946   s47.946-21.509,47.946-47.946C97.893,23.509,76.384,2,49.947,2z"/>
    <g>
      <path d="m25.517,69.36c-0.35,0-0.702-0.051-1.047-0.154-3.752-1.126-6.407-4.397-6.927-8.538-0.515-4.099 1.199-7.966 4.473-10.093 1.044-0.677 2.34-0.77 3.469-0.246 1.129,0.523 1.897,1.573 2.054,2.807l1.548,12.181c0.153,1.209-0.31,2.4-1.239,3.188-0.663,0.559-1.487,0.855-2.331,0.855zm-1.549-17.37c-0.299,0-0.595,0.088-0.862,0.261-2.626,1.707-3.997,4.836-3.579,8.167 0.42,3.343 2.534,5.976 5.517,6.871 0.537,0.161 1.086,0.046 1.51-0.312 0.417-0.354 0.616-0.867 0.547-1.41l-1.548-12.181c-0.07-0.555-0.402-1.008-0.911-1.244-0.217-0.101-0.446-0.152-0.674-0.152z"/>
    </g>
  </g>
</svg>
