<svg xmlns="http://www.w3.org/2000/svg" xmlns:xlink="http://www.w3.org/1999/xlink" viewBox="0 0 24 24" version="1.1" width="48" height="48">
<g id="surface1">
<path style=" " d="M 13.40625 2.03125 C 14.496094 4.222656 9.496094 5.582031 9.03125 7.40625 C 8.605469 9.085938 11.996094 11.03125 12 11.03125 C 11.484375 10.335938 11.109375 9.769531 10.59375 8.6875 C 9.722656 6.859375 15.757813 4.96875 13.40625 2.03125 Z M 17 5.03125 C 17 5.03125 13.195313 5.277344 13 7.59375 C 12.914063 8.625 14 9.1875 14.03125 9.9375 C 14.058594 10.550781 13.375 11.03125 13.375 11.03125 C 13.375 11.03125 14.492188 10.871094 14.875 9.9375 C 15.296875 8.902344 14.152344 8.144531 14.28125 7.3125 C 14.402344 6.515625 17 5.03125 17 5.03125 Z M 9.90625 11.03125 C 9.90625 11.03125 6 11.007813 6 12.09375 C 6 13.230469 11.097656 13.292969 14.75 12.59375 C 14.75 12.59375 15.585938 12.148438 15.84375 11.90625 C 13.449219 12.386719 8.15625 12.226563 8.15625 11.8125 C 8.15625 11.429688 9.90625 11.03125 9.90625 11.03125 Z M 17.6875 11.0625 C 17.257813 11.042969 16.78125 11.179688 16.375 11.46875 C 17.21875 11.285156 17.9375 11.804688 17.9375 12.40625 C 17.9375 13.753906 16 15.03125 16 15.03125 C 16 15.03125 19 14.6875 19 12.46875 C 19 11.550781 18.402344 11.09375 17.6875 11.0625 Z M 8.53125 13.03125 C 7.921875 13.03125 7 13.535156 7 14 C 7 14.9375 11.597656 15.648438 15 14.28125 L 13.8125 13.53125 C 11.503906 14.289063 7.273438 14.042969 8.53125 13.03125 Z M 9.375 15.03125 C 8.535156 15.03125 8 15.617188 8 16.03125 C 8 17.308594 13.011719 17.332031 15 16.03125 L 13.75 15.25 C 12.265625 15.929688 8.515625 16.015625 9.375 15.03125 Z M 5.75 17 C 4.554688 16.960938 4 17.5625 4 18.0625 C 4 20.71875 17 20.621094 17 17.90625 C 17 17.457031 16.496094 17.226563 16.3125 17.125 C 17.375 19.722656 5.5625 19.53125 5.5625 18 C 5.5625 17.652344 6.171875 17.308594 6.96875 17.46875 C 6.96875 17.46875 6.699219 17.128906 6.3125 17.0625 C 6.113281 17.027344 5.921875 17.003906 5.75 17 Z M 19 19 C 16.9375 21.019531 11.257813 22.246094 6 21 C 11.28125 23.140625 18.976563 21.480469 19 19 Z "/>
</g>
</svg>