<?xml version="1.0" encoding="UTF-8" standalone="no"?>
<!-- Created with Inkscape (http://www.inkscape.org/) -->

<svg
   xmlns:dc="http://purl.org/dc/elements/1.1/"
   xmlns:cc="http://creativecommons.org/ns#"
   xmlns:rdf="http://www.w3.org/1999/02/22-rdf-syntax-ns#"
   xmlns:svg="http://www.w3.org/2000/svg"
   xmlns="http://www.w3.org/2000/svg"
   xmlns:sodipodi="http://sodipodi.sourceforge.net/DTD/sodipodi-0.dtd"
   xmlns:inkscape="http://www.inkscape.org/namespaces/inkscape"
   width="99.891998"
   height="99.891998"
   id="svg2"
   version="1.1"
   inkscape:version="0.48.4 r9939"
   sodipodi:docname="New document 1">
  <defs
     id="defs4" />
  <sodipodi:namedview
     id="base"
     pagecolor="#ffffff"
     bordercolor="#666666"
     borderopacity="1.0"
     inkscape:pageopacity="0.0"
     inkscape:pageshadow="2"
     inkscape:zoom="2.8"
     inkscape:cx="81.973636"
     inkscape:cy="13.741071"
     inkscape:document-units="px"
     inkscape:current-layer="layer1"
     showgrid="false"
     fit-margin-top="0"
     fit-margin-left="0"
     fit-margin-right="0"
     fit-margin-bottom="0"
     inkscape:window-width="1920"
     inkscape:window-height="1017"
     inkscape:window-x="-8"
     inkscape:window-y="-8"
     inkscape:window-maximized="1" />
  <metadata
     id="metadata7">
    <rdf:RDF>
      <cc:Work
         rdf:about="">
        <dc:format>image/svg+xml</dc:format>
        <dc:type
           rdf:resource="http://purl.org/dc/dcmitype/StillImage" />
        <dc:title></dc:title>
      </cc:Work>
    </rdf:RDF>
  </metadata>
  <g
     inkscape:label="Layer 1"
     inkscape:groupmode="layer"
     id="layer1"
     transform="translate(-438.62543,-476.7019)">
    <path
       inkscape:connector-curvature="0"
       d="m 468.48943,519.3579 c -4.161,0 -7.547,3.386 -7.547,7.547 0,4.161 3.386,7.547 7.547,7.547 4.161,0 7.547,-3.386 7.547,-7.547 0,-4.161 -3.386,-7.547 -7.547,-7.547 z m 0,13.094 c -3.059,0 -5.547,-2.488 -5.547,-5.547 0,-3.059 2.488,-5.547 5.547,-5.547 3.059,0 5.547,2.488 5.547,5.547 0,3.059 -2.488,5.547 -5.547,5.547 z"
       id="path2991" />
    <path
       inkscape:connector-curvature="0"
       d="m 488.89343,518.9329 c -4.161,0 -7.547,3.386 -7.547,7.547 0,4.161 3.386,7.547 7.547,7.547 4.161,0 7.547,-3.386 7.547,-7.547 0,-4.161 -3.386,-7.547 -7.547,-7.547 z m 0,13.094 c -3.059,0 -5.547,-2.488 -5.547,-5.547 0,-3.059 2.488,-5.547 5.547,-5.547 3.059,0 5.547,2.488 5.547,5.547 0,3.059 -2.489,5.547 -5.547,5.547 z"
       id="path2993" />
    <path
       inkscape:connector-curvature="0"
       d="m 508.39943,518.9329 c -4.161,0 -7.547,3.386 -7.547,7.547 0,4.161 3.386,7.547 7.547,7.547 4.161,0 7.547,-3.386 7.547,-7.547 0,-4.161 -3.385,-7.547 -7.547,-7.547 z m -5.546,7.547 c 0,-3.059 2.488,-5.547 5.547,-5.547 3.059,0 5.547,2.488 5.547,5.547 0,3.059 -2.488,5.547 -5.547,5.547 -3.059,0 -5.547,-2.488 -5.547,-5.547 z"
       id="path2995" />
  </g>
</svg>
