<?xml version='1.0' encoding='iso-8859-1'?>
<svg version="1.1" xmlns="http://www.w3.org/2000/svg" viewBox="0 0 99.893 99.893" xmlns:xlink="http://www.w3.org/1999/xlink" enable-background="new 0 0 99.893 99.893">
  <g>
    <path d="M49.946,0C22.406,0,0,22.406,0,49.946s22.406,49.946,49.946,49.946s49.946-22.406,49.946-49.946S77.487,0,49.946,0z    M49.946,97.893C23.509,97.893,2,76.384,2,49.946S23.509,2,49.946,2s47.946,21.509,47.946,47.946S76.384,97.893,49.946,97.893z"/>
    <path d="m62.413,44.711v22.726c0,1.083-0.489,2.041-1.438,2.562-0.949,0.521-2.023,0.484-2.937-0.096l-12.784-8.142-1.452,1.441 13.196,8.388c0.816,0.519 1.728,0.779 2.64,0.779 0.81,0 1.546-0.205 2.298-0.618 1.599-0.878 2.476-2.491 2.476-4.315v-24.696l-1.999,1.971z"/>
    <path d="m74.195,29.273c0.14-0.138 0.212-0.309 0.254-0.487 0.075-0.323 0.006-0.673-0.244-0.927-0.387-0.393-1.099-0.398-1.492-0.01l-8.299,8.105v-2.997c0-1.825-0.877-3.438-2.477-4.316-1.6-0.877-3.435-0.816-4.974,0.163l-23.175,14.566c-0.84-0.667-1.869-1.288-3.023-1.288h-1.271c-2.715,0-5.081,2.618-5.081,5.333v6.11c0,2.715 2.366,4.557 5.081,4.557h1.271c1.321,0 2.516-0.346 3.401-1.196l5.462,3.565-14.277,14.121c-0.393,0.388-0.397,1.043-0.01,1.437 0.195,0.198 0.454,0.309 0.712,0.309 0.253,0 0.507-0.09 0.702-0.282l.098-.093 47.342-46.67zm-40.782,23.886c0,1.614-1.309,2.923-2.923,2.923h-1.153c-1.615,0-2.923-1.309-2.923-2.923v-6.154c0-1.614 1.309-2.923 2.923-2.923h1.153c1.615,0 2.923,1.309 2.923,2.923v6.154zm1.546-8.034l23.048-14.634c0.484-0.309 1.059-0.464 1.602-0.464 0.48,0 0.902,0.122 1.348,0.366 0.95,0.521 1.456,1.479 1.456,2.563v4.969l-21.401,21.177-5.883-3.678c0.245-0.585 0.284-1.226 0.284-1.899v-6.11c0-0.831-0.089-1.603-0.454-2.29z"/>
  </g>
</svg>
