<?xml version='1.0' encoding='iso-8859-1'?>
<svg version="1.1" xmlns="http://www.w3.org/2000/svg" viewBox="0 0 99.893 99.893" xmlns:xlink="http://www.w3.org/1999/xlink" enable-background="new 0 0 99.893 99.893">
  <g>
    <path d="M49.946,0C22.406,0,0,22.406,0,49.946s22.406,49.946,49.946,49.946s49.946-22.406,49.946-49.946S77.487,0,49.946,0z    M49.946,97.893C23.509,97.893,2,76.384,2,49.946S23.509,2,49.946,2s47.946,21.509,47.946,47.946S76.384,97.893,49.946,97.893z"/>
    <path d="m70.964,31.818v-2.456c0-1.569-0.939-3.007-2.197-3.945-1.257-0.938-2.951-1.221-4.454-0.774l-24.674,7.275c-2.074,0.615-3.675,2.557-3.675,4.72v7.423c0,0.162 0,0.349 0,0.562v22.824c-1.144-1.012-2.642-1.632-4.285-1.632-3.573,0-6.48,2.907-6.48,6.48s2.907,6.48 6.48,6.48 6.48-2.907 6.48-6.48c0-0.535-0.072-1.051-0.195-1.549v-25.207l31-9.197v21.03c-1.19-1.387-2.95-2.27-4.917-2.27-3.573,0-6.48,2.907-6.48,6.48s2.907,6.48 6.48,6.48c3.271,0 5.976-2.438 6.412-5.591 0.296-0.174 0.504-0.482 0.504-0.85v-29c0.001-0.337 0.001-0.622 0.001-0.803zm-39.285,44.956c-2.471,0-4.48-2.01-4.48-4.48s2.01-4.48 4.48-4.48c2.039,0 3.745,1.378 4.285,3.245v1.563c0,0.163 0.048,0.31 0.117,0.446-0.369,2.101-2.196,3.706-4.402,3.706zm37.285-42.389l-31,9.01v-6.757c0-1.285 0.958-2.438 2.189-2.803l24.571-7.275c0.278-0.082 0.585-0.123 0.865-0.123 0.62,0 1.456,0.199 1.97,0.583 0.747,0.558 1.405,1.411 1.405,2.343v5.022zm-9.397,27.198c0-2.471 2.01-4.48 4.48-4.48s4.48,2.01 4.48,4.48c0,2.47-2.01,4.48-4.48,4.48s-4.48-2.01-4.48-4.48z"/>
  </g>
</svg>
