<?xml version='1.0' encoding='iso-8859-1'?>
<svg version="1.1" xmlns="http://www.w3.org/2000/svg" viewBox="0 0 99.893 99.893" xmlns:xlink="http://www.w3.org/1999/xlink" enable-background="new 0 0 99.893 99.893">
  <g>
    <path d="M49.946,0C22.406,0,0,22.406,0,49.946s22.406,49.946,49.946,49.946s49.946-22.406,49.946-49.946S77.487,0,49.946,0z    M49.946,97.893C23.509,97.893,2,76.384,2,49.946S23.509,2,49.946,2s47.946,21.509,47.946,47.946S76.384,97.893,49.946,97.893z"/>
    <path d="m66.045,28.682c-1.737-0.954-3.864-0.886-5.535,0.177l-7.079,4.478c-0.365-0.423-0.827-0.792-1.343-1.074-1.535-0.842-3.343-0.782-4.819,0.157l-21.854,13.912c-1.369,0.872-2.189,2.361-2.188,3.983 0,1.623 0.816,3.112 2.186,3.983l21.848,13.894c0.782,0.497 1.654,0.747 2.529,0.747 0.777,0 1.556-0.197 2.277-0.593 0.887-0.487 1.558-1.214 1.974-2.076l6.377,4.055c0.885,0.562 1.872,0.846 2.862,0.846 0.879,0 1.95-0.223 2.766-0.671 1.735-0.953 2.96-2.703 2.96-4.683v-32.452c1.42109e-14-1.98-1.225-3.731-2.961-4.683zm.961,37.136c0,1.238-0.837,2.334-1.923,2.93-1.086,0.597-2.207,0.557-3.252-0.109l-6.825-4.436v-27.802c0-0.45-0.308-0.886-0.424-1.3l7.031-4.555c0.554-0.354 1.111-0.53 1.731-0.53 0.55,0 1.26,0.139 1.77,0.419 1.086,0.596 1.893,1.691 1.893,2.931v32.452zm-15.658,.776c-0.885,0.485-2.042,0.451-2.893-0.089l-21.91-13.894c-0.79-0.502-1.291-1.36-1.291-2.296 0-0.936 0.455-1.794 1.244-2.296l21.841-13.913c0.451-0.288 0.951-0.433 1.456-0.433 0.447,0 1.14,0.113 1.555,0.342 0.884,0.484 1.656,1.377 1.656,2.386v27.808c-0.001,1.008-0.774,1.899-1.658,2.385z"/>
  </g>
</svg>
