<?xml version='1.0' encoding='iso-8859-1'?>
<svg version="1.1" xmlns="http://www.w3.org/2000/svg" viewBox="0 0 99.894 99.894" xmlns:xlink="http://www.w3.org/1999/xlink" enable-background="new 0 0 99.894 99.894">
  <g>
    <path d="M49.946,0C22.406,0,0,22.407,0,49.947s22.406,49.946,49.946,49.946c27.541,0,49.947-22.406,49.947-49.946   S77.487,0,49.946,0z M49.946,97.893C23.509,97.893,2,76.384,2,49.947S23.509,2,49.946,2c26.438,0,47.947,21.509,47.947,47.946   S76.385,97.893,49.946,97.893z"/>
    <path d="m75.333,34.56c-0.087-0.181-0.226-0.324-0.392-0.423l-2.582-3.312c-0.34-0.436-0.969-0.513-1.404-0.174-0.436,0.34-0.513,0.969-0.174,1.404l1.512,1.939h-9.838c-0.292,0-0.57,0.128-0.76,0.351l-12.06,14.111-12.913-15.111c-0.189-0.223-0.468-0.351-0.76-0.351h-9.681c-0.553,0-1,0.447-1,1s0.447,1 1,1h9.22l12.819,15-12.819,15h-9.22c-0.553,0-1,0.447-1,1s0.447,1 1,1h9.681c0.292,0 0.57-0.128 0.76-0.351l12.914-15.111 12.059,14.111c0.189,0.223 0.468,0.351 0.76,0.351h9.925l-1.596,2.026c-0.341,0.435-0.267,1.063 0.167,1.405 0.184,0.144 0.402,0.214 0.618,0.214 0.296,0 0.589-0.131 0.787-0.381l2.757-3.501c0.017-0.022 0.021-0.049 0.036-0.072 0.073-0.075 0.137-0.16 0.185-0.257 0.167-0.346 0.121-0.757-0.117-1.057l-2.932-3.688c-0.345-0.433-0.974-0.504-1.405-0.161-0.433,0.344-0.504,0.974-0.161,1.405l1.643,2.065h-9.445l-11.965-14 11.965-14h9.445l-1.643,2.065c-0.343,0.432-0.271,1.062 0.161,1.405 0.433,0.343 1.061,0.272 1.405-0.161l2.661-3.347c0.034-0.02 0.071-0.031 0.103-0.055 0.246-0.192 0.363-0.476 0.371-0.765 0.026-0.19 0.001-0.391-0.087-0.574z"/>
  </g>
</svg>
