<?xml version="1.0" encoding="UTF-8" standalone="no"?>
<svg
   xmlns:dc="http://purl.org/dc/elements/1.1/"
   xmlns:cc="http://creativecommons.org/ns#"
   xmlns:rdf="http://www.w3.org/1999/02/22-rdf-syntax-ns#"
   xmlns:svg="http://www.w3.org/2000/svg"
   xmlns="http://www.w3.org/2000/svg"
   xmlns:sodipodi="http://sodipodi.sourceforge.net/DTD/sodipodi-0.dtd"
   xmlns:inkscape="http://www.inkscape.org/namespaces/inkscape"
   id="Layer_1"
   enable-background="new 0 0 508.363 508.363"
   height="32"
   viewBox="0 0 31.772687 31.772687"
   width="32"
   version="1.1"
   sodipodi:docname="modes.svg"
   inkscape:version="0.92.4 5da689c313, 2019-01-14">
  <metadata
     id="metadata13">
    <rdf:RDF>
      <cc:Work
         rdf:about="">
        <dc:format>image/svg+xml</dc:format>
        <dc:type
           rdf:resource="http://purl.org/dc/dcmitype/StillImage" />
        <dc:title></dc:title>
      </cc:Work>
    </rdf:RDF>
  </metadata>
  <defs
     id="defs11" />
  <sodipodi:namedview
     pagecolor="#ffffff"
     bordercolor="#666666"
     borderopacity="1"
     objecttolerance="10"
     gridtolerance="10"
     guidetolerance="10"
     inkscape:pageopacity="0"
     inkscape:pageshadow="2"
     inkscape:window-width="1920"
     inkscape:window-height="1013"
     id="namedview9"
     showgrid="false"
     inkscape:zoom="10.429825"
     inkscape:cx="-2.9915361"
     inkscape:cy="17.818314"
     inkscape:window-x="0"
     inkscape:window-y="0"
     inkscape:window-maximized="1"
     inkscape:current-layer="Layer_1" />
  <g
     id="g821"
     transform="matrix(0.05618506,0,0,0.05618506,1.6051416,1.6051418)">
    <circle
       id="circle2"
       r="19.453104"
       cy="135.59149"
       cx="254.1815"
       style="fill:#aaaabe;fill-opacity:1;stroke-width:0.88859421" />
    <path
       id="path4"
       d="m 254.1815,246.64 c -45.16191,0 -81.90351,36.74248 -81.90351,81.90439 0,45.16192 36.7416,81.90351 81.90351,81.90351 45.16191,0 81.90351,-36.74159 81.90351,-81.90351 0,-45.16191 -36.74071,-81.90439 -81.90351,-81.90439 z m 0,111.20046 c -16.15375,0 -29.29606,-13.14231 -29.29606,-29.29607 0,-16.15464 13.14231,-29.29606 29.29606,-29.29606 16.15375,0 29.29606,13.14231 29.29606,29.29606 0,16.15376 -13.14231,29.29607 -29.29606,29.29607 z"
       inkscape:connector-curvature="0"
       style="fill:#7d7d91;fill-opacity:1;stroke-width:0.88859421" />
    <path
       id="path6"
       d="M 351.29418,28.317735 H 157.0697 c -31.71659,0 -57.520476,25.802999 -57.520476,57.519592 V 422.52567 c 0,31.7166 25.803886,57.51959 57.520476,57.51959 h 194.2236 c 31.71659,0 57.52048,-25.80299 57.52048,-57.51959 V 85.837327 c 8.8e-4,-31.716593 -25.803,-57.519592 -57.5196,-57.519592 z M 335.2675,185.80684 c 8.30391,0 15.03501,6.7311 15.03501,15.03502 0,8.30391 -6.7311,15.03501 -15.03501,15.03501 -8.30391,0 -15.03502,-6.73199 -15.03502,-15.03501 0,-8.30303 6.73199,-15.03502 15.03502,-15.03502 z m -81.086,-98.103465 c 26.40547,0 47.88812,21.482655 47.88812,47.888115 0,26.40547 -21.48265,47.88812 -47.88812,47.88812 -26.40547,0 -47.88812,-21.48265 -47.88812,-47.88812 0,-26.40546 21.48354,-47.888115 47.88812,-47.888115 z m -81.08511,98.103465 c 8.30391,0 15.03501,6.7311 15.03501,15.03502 0,8.30391 -6.7311,15.03501 -15.03501,15.03501 -8.30391,0 -15.03501,-6.73199 -15.03501,-15.03501 0,-8.30303 6.7311,-15.03502 15.03501,-15.03502 z m 81.08511,253.07608 c -60.84116,0 -110.33852,-49.49737 -110.33852,-110.33853 0,-60.84115 49.49736,-110.3394 110.33852,-110.3394 60.84116,0 110.33852,49.49825 110.33852,110.3394 0,60.84116 -49.49736,110.33853 -110.33852,110.33853 z"
       inkscape:connector-curvature="0"
       style="fill:#aaaabe;fill-opacity:1;stroke-width:0.88859421" />
  </g>
</svg>
