<?xml version='1.0' encoding='iso-8859-1'?>
<svg version="1.1" xmlns="http://www.w3.org/2000/svg" viewBox="0 0 99.893 99.893" xmlns:xlink="http://www.w3.org/1999/xlink" enable-background="new 0 0 99.893 99.893">
  <g>
    <path d="M49.946,0C22.406,0,0,22.406,0,49.946s22.406,49.946,49.946,49.946s49.946-22.406,49.946-49.946S77.486,0,49.946,0z    M49.946,97.893C23.509,97.893,2,76.384,2,49.946S23.509,2,49.946,2s47.946,21.509,47.946,47.946S76.384,97.893,49.946,97.893z"/>
    <path d="m74.484,46.332l-21.848-13.914c-1.475-0.939-3.273-0.998-4.808-0.156-0.516,0.283-0.954,0.651-1.319,1.074l-7.032-4.478c-1.672-1.063-3.909-1.132-5.643-0.177-1.736,0.952-2.976,2.703-2.976,4.684v32.452c0,1.98 1.24,3.731 2.975,4.684 0.816,0.448 1.799,0.671 2.678,0.671 0.99,0 2.028-0.283 2.912-0.846l6.403-4.055c0.416,0.861 1.1,1.589 1.987,2.076 0.722,0.396 1.507,0.593 2.285,0.593 0.875,0 1.75-0.25 2.532-0.747l21.851-13.894c1.369-0.871 2.187-2.36 2.188-3.983 0-1.624-0.816-3.113-2.185-3.984zm-1.075,6.279l-21.848,13.894c-0.853,0.541-1.647,0.574-2.531,0.089s-1.171-1.377-1.171-2.385v-27.808c0-1.009 0.288-1.9 1.172-2.386 0.416-0.229 0.745-0.342 1.192-0.342 0.505,0 0.948,0.145 1.399,0.432l21.818,13.915c0.801,0.51 1.245,1.346 1.245,2.295 0,0.935-0.487,1.794-1.276,2.296zm-34.767,16.028c-1.043,0.664-2.641,0.706-3.725,0.109-1.086-0.596-2.058-1.691-2.058-2.931v-32.452c0-1.239 0.852-2.335 1.938-2.931 0.511-0.28 1.163-0.419 1.713-0.419 0.62,0 1.289,0.177 1.843,0.53l7.419,4.555c-0.116,0.415 0.087,0.85 0.087,1.3v27.801l-7.217,4.438z"/>
  </g>
</svg>
