<?xml version="1.0" encoding="UTF-8" standalone="no"?>
<!-- Created with Inkscape (http://www.inkscape.org/) -->

<svg
   xmlns:dc="http://purl.org/dc/elements/1.1/"
   xmlns:cc="http://creativecommons.org/ns#"
   xmlns:rdf="http://www.w3.org/1999/02/22-rdf-syntax-ns#"
   xmlns:svg="http://www.w3.org/2000/svg"
   xmlns="http://www.w3.org/2000/svg"
   xmlns:sodipodi="http://sodipodi.sourceforge.net/DTD/sodipodi-0.dtd"
   xmlns:inkscape="http://www.inkscape.org/namespaces/inkscape"
   width="48.812233"
   height="73.151001"
   id="svg2"
   version="1.1"
   inkscape:version="0.92.2 (5c3e80d, 2017-08-06)"
   sodipodi:docname="lock.svg">
  <defs
     id="defs4" />
  <sodipodi:namedview
     id="base"
     pagecolor="#ffffff"
     bordercolor="#666666"
     borderopacity="1.0"
     inkscape:pageopacity="0.0"
     inkscape:pageshadow="2"
     inkscape:zoom="4"
     inkscape:cx="18.541197"
     inkscape:cy="33.772543"
     inkscape:document-units="px"
     inkscape:current-layer="layer1"
     showgrid="false"
     fit-margin-top="0"
     fit-margin-left="0"
     fit-margin-right="0"
     fit-margin-bottom="0"
     inkscape:window-width="1366"
     inkscape:window-height="672"
     inkscape:window-x="0"
     inkscape:window-y="34"
     inkscape:window-maximized="1" />
  <metadata
     id="metadata7">
    <rdf:RDF>
      <cc:Work
         rdf:about="">
        <dc:format>image/svg+xml</dc:format>
        <dc:type
           rdf:resource="http://purl.org/dc/dcmitype/StillImage" />
        <dc:title></dc:title>
      </cc:Work>
    </rdf:RDF>
  </metadata>
  <g
     inkscape:label="Layer 1"
     inkscape:groupmode="layer"
     id="layer1"
     transform="translate(-489.19307,-503.12825)">
    <g
       id="background"
       transform="translate(-269.26992,-125.8521)"
       style="fill:#aaaabe;fill-opacity:1" />
    <g
       id="design"
       transform="translate(-269.26992,-125.8521)"
       style="fill:#aaaabe;fill-opacity:1" />
    <path
       inkscape:connector-curvature="0"
       style="fill:none;fill-opacity:1;stroke:#814a31;stroke-width:7.94500017;stroke-linecap:round;stroke-miterlimit:10;stroke-dasharray:none;stroke-opacity:1"
       d="m 499.21989,538.88561 v -18.82519 c 0,-7.12836 6.47069,-12.95967 14.3793,-12.95967 v 0 c 7.90861,0 14.3793,5.83131 14.3793,12.95967 v 18.82519 z"
       id="path2-3" />
    <rect
       x="490.65607"
       y="535.33203"
       style="fill:#ebba16;stroke:#411c0b;stroke-width:2.92600012;stroke-linejoin:round;stroke-miterlimit:4;stroke-dasharray:none;stroke-opacity:1"
       width="45.886234"
       height="39.484222"
       id="rect4" />
    <path
       inkscape:connector-curvature="0"
       style="fill:#814a31;fill-opacity:1;stroke-width:1.32640362"
       d="m 513.59919,560.00964 v 0 c -2.35268,0 -4.27759,-1.66575 -4.27759,-3.70165 v -7.40329 c 0,-2.0359 1.92491,-3.70165 4.27759,-3.70165 v 0 c 2.35268,0 4.27758,1.66575 4.27758,3.70165 v 7.40329 c 0,2.0359 -1.9249,3.70165 -4.27758,3.70165 z"
       id="path6" />
    <rect
       x="491.30685"
       y="564.95032"
       style="fill:#814a31;fill-opacity:1;stroke:none;stroke-width:1.27823985;stroke-opacity:1"
       width="44.540512"
       height="9.2442169"
       id="rect8" />
    <g
       id="g10"
       transform="matrix(1.0541153,0,0,1.0541153,480.17771,509.654)" />
    <g
       id="g12"
       transform="matrix(1.0541153,0,0,1.0541153,480.17771,509.654)" />
    <g
       id="g14"
       transform="matrix(1.0541153,0,0,1.0541153,480.17771,509.654)" />
    <g
       id="g16"
       transform="matrix(1.0541153,0,0,1.0541153,480.17771,509.654)" />
    <g
       id="g18"
       transform="matrix(1.0541153,0,0,1.0541153,480.17771,509.654)" />
    <g
       id="g20"
       transform="matrix(1.0541153,0,0,1.0541153,480.17771,509.654)" />
    <g
       id="g22"
       transform="matrix(1.0541153,0,0,1.0541153,480.17771,509.654)" />
    <g
       id="g24"
       transform="matrix(1.0541153,0,0,1.0541153,480.17771,509.654)" />
    <g
       id="g26"
       transform="matrix(1.0541153,0,0,1.0541153,480.17771,509.654)" />
    <g
       id="g28"
       transform="matrix(1.0541153,0,0,1.0541153,480.17771,509.654)" />
    <g
       id="g30"
       transform="matrix(1.0541153,0,0,1.0541153,480.17771,509.654)" />
    <g
       id="g32"
       transform="matrix(1.0541153,0,0,1.0541153,480.17771,509.654)" />
    <g
       id="g34"
       transform="matrix(1.0541153,0,0,1.0541153,480.17771,509.654)" />
    <g
       id="g36"
       transform="matrix(1.0541153,0,0,1.0541153,480.17771,509.654)" />
    <g
       id="g38"
       transform="matrix(1.0541153,0,0,1.0541153,480.17771,509.654)" />
  </g>
</svg>
