<?xml version="1.0" encoding="UTF-8" standalone="no"?>
<svg
   xmlns:dc="http://purl.org/dc/elements/1.1/"
   xmlns:cc="http://creativecommons.org/ns#"
   xmlns:rdf="http://www.w3.org/1999/02/22-rdf-syntax-ns#"
   xmlns:svg="http://www.w3.org/2000/svg"
   xmlns="http://www.w3.org/2000/svg"
   xmlns:sodipodi="http://sodipodi.sourceforge.net/DTD/sodipodi-0.dtd"
   xmlns:inkscape="http://www.inkscape.org/namespaces/inkscape"
   version="1.1"
   viewBox="0 0 100.021 100.021"
   enable-background="new 0 0 100.021 100.021"
   id="svg10"
   sodipodi:docname="pause.svg"
   inkscape:version="0.92.2 (5c3e80d, 2017-08-06)">
  <metadata
     id="metadata16">
    <rdf:RDF>
      <cc:Work
         rdf:about="">
        <dc:format>image/svg+xml</dc:format>
        <dc:type
           rdf:resource="http://purl.org/dc/dcmitype/StillImage" />
      </cc:Work>
    </rdf:RDF>
  </metadata>
  <defs
     id="defs14" />
  <sodipodi:namedview
     pagecolor="#ffffff"
     bordercolor="#666666"
     borderopacity="1"
     objecttolerance="10"
     gridtolerance="10"
     guidetolerance="10"
     inkscape:pageopacity="0"
     inkscape:pageshadow="2"
     inkscape:window-width="1366"
     inkscape:window-height="672"
     id="namedview12"
     showgrid="false"
     inkscape:zoom="2.3595044"
     inkscape:cx="-29.501416"
     inkscape:cy="22.251146"
     inkscape:window-x="0"
     inkscape:window-y="34"
     inkscape:window-maximized="1"
     inkscape:current-layer="svg10" />
  <path
     inkscape:connector-curvature="0"
     id="path2"
     d="M 50.011,0 C 22.435,0 0,22.435 0,50.01 c 0,27.576 22.435,50.011 50.011,50.011 27.576,0 50.011,-22.435 50.011,-50.011 C 100.021,22.435 77.587,0 50.011,0 Z m 0,98.021 C 23.537,98.021 2,76.484 2,50.01 2,23.536 23.537,2 50.011,2 c 26.474,0 48.011,21.537 48.011,48.01 0,26.473 -21.538,48.011 -48.011,48.011 z"
     style="fill:#ff0000;fill-opacity:1" />
  <g
     id="background"
     transform="matrix(0.09688277,0,0,0.09688277,63.082232,-6.4342368)"
     style="fill:#ff0000" />
  <g
     id="design"
     transform="matrix(0.09688277,0,0,0.09688277,63.082232,-6.4342368)"
     style="fill:#ff0000" />
  <g
     id="g868"
     transform="translate(1.0000015)"
     style="fill:#ff0000">
    <path
       id="path827"
       d="M 45.077615,70.482293 H 35.005393 V 29.538704 h 10.072308 v 40.943589 z m -8.410393,-1.6614 H 43.41785 V 31.199845 h -6.750628 z"
       inkscape:connector-curvature="0"
       style="fill:#ff0000;fill-opacity:1;stroke-width:0.08602046" />
    <path
       id="path829"
       d="M 63.016604,70.482293 H 52.944726 V 29.538704 h 10.071878 z m -8.411769,-1.6614 h 6.751574 V 31.199845 h -6.751574 z"
       inkscape:connector-curvature="0"
       style="fill:#ff0000;fill-opacity:1;stroke-width:0.08602046" />
  </g>
</svg>
