<?xml version="1.0" encoding="UTF-8" standalone="no"?>
<!-- Created with Inkscape (http://www.inkscape.org/) -->

<svg
   xmlns:dc="http://purl.org/dc/elements/1.1/"
   xmlns:cc="http://creativecommons.org/ns#"
   xmlns:rdf="http://www.w3.org/1999/02/22-rdf-syntax-ns#"
   xmlns:svg="http://www.w3.org/2000/svg"
   xmlns="http://www.w3.org/2000/svg"
   xmlns:sodipodi="http://sodipodi.sourceforge.net/DTD/sodipodi-0.dtd"
   xmlns:inkscape="http://www.inkscape.org/namespaces/inkscape"
   version="1.1"
   id="svg2"
   width="32"
   height="32"
   viewBox="0 0 32 32"
   sodipodi:docname="playbackrate-hare.svg"
   inkscape:version="0.92.4 5da689c313, 2019-01-14">
  <metadata
     id="metadata8">
    <rdf:RDF>
      <cc:Work
         rdf:about="">
        <dc:format>image/svg+xml</dc:format>
        <dc:type
           rdf:resource="http://purl.org/dc/dcmitype/StillImage" />
        <dc:title></dc:title>
      </cc:Work>
    </rdf:RDF>
  </metadata>
  <defs
     id="defs6" />
  <sodipodi:namedview
     pagecolor="#ffffff"
     bordercolor="#666666"
     borderopacity="1"
     objecttolerance="10"
     gridtolerance="10"
     guidetolerance="10"
     inkscape:pageopacity="0"
     inkscape:pageshadow="2"
     inkscape:window-width="1920"
     inkscape:window-height="1013"
     id="namedview4"
     showgrid="false"
     inkscape:zoom="25.75"
     inkscape:cx="16"
     inkscape:cy="16"
     inkscape:window-x="0"
     inkscape:window-y="0"
     inkscape:window-maximized="1"
     inkscape:current-layer="svg2" />
  <g
     id="g829"
     transform="matrix(0.5688008,0,0,0.5688008,0.82932776,1.0072879)">
    <path
       sodipodi:nodetypes="ccssssccccccccsssccsccssccccssssccscsscsssccsscsccssscccccccsccccccccsssccccccccsccsccccccsccc"
       inkscape:connector-curvature="0"
       id="path817"
       d="m 37.983332,52.470421 c -1.65194,-0.202283 -3.425073,-1.09778 -4.617833,-2.332173 -0.366223,-0.379004 -0.560578,-0.629757 -1.13338,-1.46226 -0.821308,-1.19368 -1.202867,-1.683854 -1.74787,-2.24542 -1.01425,-1.045073 -2.268665,-1.77908 -4.050916,-2.370347 -0.598257,-0.198473 -0.722138,-0.22212 -1.666667,-0.318136 -1.978024,-0.201077 -2.825396,-0.3843 -3.687991,-0.79744 -0.98539,-0.471954 -1.539468,-1.09415 -1.782811,-2.00199 -0.108296,-0.404024 -0.108829,-1.138507 -0.0011,-1.483334 0.206475,-0.660746 0.475556,-1.034626 1.426264,-1.981736 0.985661,-0.981934 1.168188,-1.238977 1.203804,-1.695244 0.01738,-0.222613 0.01555,-0.22924 -0.09524,-0.344586 -0.288891,-0.300794 -0.917246,-0.48155 -2.535237,-0.729294 -0.528509,-0.08092 -1.092204,-0.17677 -1.252655,-0.212986 -0.160422,-0.03622 -0.5767,-0.120874 -0.925034,-0.188124 -1.964167,-0.379206 -3.426775,-0.975612 -4.619954,-1.883872 -0.326629,-0.248633 -0.814432,-0.737127 -1.065711,-1.067221 l -0.197646,-0.259639 -0.241678,0.08267 c -1.3310468,0.455327 -2.7260278,0.564921 -3.9219498,0.30812 -1.944766,-0.417601 -3.525167,-1.911779 -3.836174,-3.626881 -0.04767,-0.262905 -0.04738,-1.010899 5.23e-4,-1.339594 0.168306,-1.154815 0.604062,-2.063235 1.349257,-2.812796 0.634423,-0.63814 1.417721,-1.064558 2.35,-1.279312 0.489602,-0.112782 0.900833,-0.147001 1.512927,-0.125892 0.63584,0.02193 1.023527,0.08908 1.5750368,0.272802 0.310311,0.103374 0.985458,0.412803 1.060369,0.485981 0.06084,0.05943 0.0787,0.02911 0.133951,-0.227399 0.388119,-1.801918 1.142685,-3.549939 2.151049,-4.983103 0.842783,-1.197826 2.059897,-2.41339 3.239975,-3.235847 2.923266,-2.037374 6.506335,-2.795829 10.179836,-2.154843 1.369557,0.238973 2.287558,0.497278 4.346856,1.223108 2.441929,0.860694 2.962763,1.012425 3.681473,1.072502 0.75764,0.06333 1.337653,-0.11857 1.77877,-0.557849 0.256373,-0.255308 0.365923,-0.453669 0.688303,-1.246325 0.480627,-1.181746 0.780057,-1.695573 1.406987,-2.414421 0.257513,-0.295267 0.274056,-0.251539 -0.23223,-0.613836 -1.450207,-1.0377653 -3.09041,-1.6869146 -5.040224,-1.9947889 -0.999027,-0.157746 -1.373582,-0.1828934 -2.749746,-0.184616 -1.372434,-0.00172 -1.79818,0.021675 -3.016667,0.1657536 -1.231585,0.1456274 -1.330936,0.1529527 -2.066666,0.152378 -2.663071,-0.00208 -4.985883,-0.7941293 -5.901669,-2.0123946 -0.193995,-0.25807 -0.319504,-0.5045576 -0.420197,-0.8252263 -0.06828,-0.2174513 -0.07753,-0.309768 -0.07333,-0.7321586 0.02047,-2.057086 1.046871,-3.2197634 3.357321,-3.80306235 1.210343,-0.3055648 2.397071,-0.4268581 4.440694,-0.4538758 1.527105,-0.020189 1.948103,0.00465 2.997176,0.1767988 3.389219,0.5561742 7.102893,2.12299035 9.733333,4.10653735 0.936523,0.7062076 2.042846,1.7574222 2.655903,2.5236019 0.271533,0.3393547 0.83474,1.1292586 0.867343,1.2164573 0.0055,0.014838 0.332587,0.044308 0.726754,0.065488 1.27386,0.06845 2.1257,0.2156487 3.133333,0.5414433 1.409766,0.4558153 2.497483,1.1176993 3.517983,2.1407223 0.66549,0.667135 1.13833,1.28791 1.629503,2.139327 0.51886,0.899408 0.900864,2.374958 1.053974,4.071166 0.0542,0.600422 0.02416,2.239745 -0.04933,2.692063 -0.120807,0.743553 -0.24934,1.176158 -0.50721,1.707113 -0.152997,0.315012 -0.221897,0.414785 -0.43823,0.634594 -0.8024,0.81529 -2.31259,1.362929 -3.959674,1.435892 -1.456986,0.06454 -3.175103,-0.224974 -4.539549,-0.76495 -0.133394,-0.05279 -0.257144,-0.09598 -0.275,-0.09598 -0.01844,0 -0.03249,0.118827 -0.03252,0.275 0,0.722626 -0.13898,2.246272 -0.286273,3.141667 -0.81618,4.961657 -3.260653,9.047736 -7.304313,12.209596 l -0.30731,0.240297 -0.40825,-0.217173 c -0.224537,-0.119444 -0.42105,-0.229974 -0.436697,-0.24562 -0.01571,-0.01571 0.03825,-0.19084 0.120513,-0.391107 0.59456,-1.447483 0.983804,-2.926923 1.17414,-4.46266 0.0821,-0.662422 0.100707,-2.077263 0.03617,-2.75 -0.341413,-3.55889 -2.05785,-6.444091 -4.971253,-8.356317 -0.426624,-0.280017 -0.81208,-0.499928 -0.980288,-0.559275 -0.369353,-0.130315 -0.833027,-0.02427 -1.11151,0.254216 -0.235467,0.235467 -0.307477,0.413547 -0.307876,0.761376 -5.64e-4,0.48925 0.18432,0.753623 0.761283,1.088597 0.378806,0.219927 0.881267,0.558673 1.255058,0.846124 0.389933,0.299866 1.144354,1.050893 1.438942,1.432468 0.927255,1.201063 1.473854,2.559829 1.716164,4.266145 0.08361,0.588749 0.0844,2.364056 0.0013,2.966666 -0.1525,1.106243 -0.31055,1.824073 -0.554106,2.516667 -0.430883,1.22528 -1.001683,2.13984 -1.806159,2.8939 l -0.335872,0.314823 0.161516,0.05959 c 4.306991,1.589187 7.367258,3.913887 8.869338,6.7375 0.666347,1.2526 1.073487,2.888707 1.075167,4.32059 0.0014,1.222373 -0.780717,2.088933 -2.066324,2.28932 -0.20233,0.03154 -1.025996,0.03947 -1.25,0.01204 z M 48.812902,18.3268 c 0.648737,-0.106241 1.195163,-0.669218 1.29366,-1.332851 0.128203,-0.863768 -0.476043,-1.679835 -1.338603,-1.807857 -0.863767,-0.128202 -1.679834,0.476044 -1.807857,1.338603 -0.0753,0.507343 0.0849,0.985801 0.453477,1.35438 0.38708,0.387079 0.855146,0.536841 1.399323,0.447725 z"
       style="fill:#aaaabe;fill-opacity:1;stroke-width:0.03333333" />
    <path
       sodipodi:nodetypes="csccccccccccscscccccccccccccccccc"
       inkscape:connector-curvature="0"
       id="path817-3"
       d="M 0.824482,18.3231 C 0.028049,18.135462 -0.26053,17.12212 0.317778,16.543812 0.387328,16.474262 0.528032,16.378058 0.63045,16.330029 l 0.186216,-0.08733 3.566667,-0.01039 c 2.647533,-0.0077 3.613912,-2.67e-4 3.75,0.02891 1.078475,0.2312 1.116875,1.768838 0.05126,2.052627 -0.135784,0.03616 -0.844247,0.04416 -3.701261,0.04177 -1.943333,-0.0016 -3.589816,-0.01626 -3.658851,-0.03252 z M 2.531685,14.047595 C 1.890502,13.873235 1.570725,13.142368 1.87183,12.539464 1.96506,12.352799 2.187459,12.143539 2.394144,12.048018 L 2.55,11.975988 h 4 c 3.854244,0 4.006002,0.0023 4.164711,0.06353 0.323212,0.124656 0.584875,0.445475 0.648252,0.794807 0.08732,0.481308 -0.163707,0.958422 -0.612963,1.165022 l -0.166667,0.07664 -3.95,0.0064 c -3.050888,0.005 -3.984519,-0.003 -4.101648,-0.03482 z M 4.262612,9.777747 C 3.555962,9.582027 3.266904,8.696028 3.717123,8.10576 3.842775,7.941022 4.118614,7.7714384 4.333333,7.7269184 c 0.134197,-0.02782 1.685128,-0.03528 5.786702,-0.0278 l 5.603368,0.01021 0.22871,0.116667 c 0.779503,0.3976296 0.779503,1.4690366 0,1.8666666 l -0.22871,0.116666 -5.653368,0.0055 c -4.504661,0.0044 -5.684671,-0.0031 -5.807423,-0.03712 z"
       style="fill:#56d45b;fill-opacity:1;stroke-width:0.03333333" />
  </g>
</svg>
