<?xml version="1.0" encoding="UTF-8" standalone="no"?>
<svg
   xmlns:dc="http://purl.org/dc/elements/1.1/"
   xmlns:cc="http://creativecommons.org/ns#"
   xmlns:rdf="http://www.w3.org/1999/02/22-rdf-syntax-ns#"
   xmlns:svg="http://www.w3.org/2000/svg"
   xmlns="http://www.w3.org/2000/svg"
   xmlns:sodipodi="http://sodipodi.sourceforge.net/DTD/sodipodi-0.dtd"
   xmlns:inkscape="http://www.inkscape.org/namespaces/inkscape"
   version="1.1"
   viewBox="0 0 99.893 99.893"
   enable-background="new 0 0 99.893 99.893"
   id="svg8"
   sodipodi:docname="play.svg"
   inkscape:version="0.92.2 (5c3e80d, 2017-08-06)">
  <metadata
     id="metadata14">
    <rdf:RDF>
      <cc:Work
         rdf:about="">
        <dc:format>image/svg+xml</dc:format>
        <dc:type
           rdf:resource="http://purl.org/dc/dcmitype/StillImage" />
      </cc:Work>
    </rdf:RDF>
  </metadata>
  <defs
     id="defs12" />
  <sodipodi:namedview
     pagecolor="#ffffff"
     bordercolor="#666666"
     borderopacity="1"
     objecttolerance="10"
     gridtolerance="10"
     guidetolerance="10"
     inkscape:pageopacity="0"
     inkscape:pageshadow="2"
     inkscape:window-width="1366"
     inkscape:window-height="672"
     id="namedview10"
     showgrid="false"
     inkscape:zoom="1.6705596"
     inkscape:cx="-7.5447582"
     inkscape:cy="54.769"
     inkscape:window-x="0"
     inkscape:window-y="34"
     inkscape:window-maximized="1"
     inkscape:current-layer="svg8" />
  <path
     inkscape:connector-curvature="0"
     id="path2"
     d="M 49.947,0 C 22.406,0 0,22.406 0,49.947 0,77.488 22.406,99.893 49.946,99.893 77.486,99.893 99.892,77.487 99.892,49.947 99.892,22.407 77.487,0 49.947,0 Z m 0,97.893 C 23.509,97.893 2,76.384 2,49.947 2,23.509 23.509,2 49.947,2 c 26.438,0 47.946,21.509 47.946,47.947 0,26.437 -21.509,47.946 -47.946,47.946 z"
     style="fill:#ff0000;fill-opacity:1" />
  <path
     id="path825"
     d="M 39.238508,72.416599 V 27.476401 L 72.653492,49.94685 Z m 1.500595,-42.12184 V 69.597697 L 69.963863,49.94685 Z"
     inkscape:connector-curvature="0"
     style="fill:#ff0000;fill-opacity:1;stroke-width:0.07773493" />
</svg>
