<?xml version="1.0" encoding="UTF-8" standalone="no"?>
<svg
   xmlns:dc="http://purl.org/dc/elements/1.1/"
   xmlns:cc="http://creativecommons.org/ns#"
   xmlns:rdf="http://www.w3.org/1999/02/22-rdf-syntax-ns#"
   xmlns:svg="http://www.w3.org/2000/svg"
   xmlns="http://www.w3.org/2000/svg"
   xmlns:sodipodi="http://sodipodi.sourceforge.net/DTD/sodipodi-0.dtd"
   xmlns:inkscape="http://www.inkscape.org/namespaces/inkscape"
   version="1.1"
   viewBox="0 0 99.893 99.893"
   enable-background="new 0 0 99.893 99.893"
   id="svg8"
   sodipodi:docname="previous.svg"
   inkscape:version="0.92.2 5c3e80d, 2017-08-06">
  <metadata
     id="metadata14">
    <rdf:RDF>
      <cc:Work
         rdf:about="">
        <dc:format>image/svg+xml</dc:format>
        <dc:type
           rdf:resource="http://purl.org/dc/dcmitype/StillImage" />
      </cc:Work>
    </rdf:RDF>
  </metadata>
  <defs
     id="defs12" />
  <sodipodi:namedview
     pagecolor="#ffffff"
     bordercolor="#666666"
     borderopacity="1"
     objecttolerance="10"
     gridtolerance="10"
     guidetolerance="10"
     inkscape:pageopacity="0"
     inkscape:pageshadow="2"
     inkscape:window-width="1920"
     inkscape:window-height="991"
     id="namedview10"
     showgrid="false"
     inkscape:zoom="3.3411191"
     inkscape:cx="-22.959469"
     inkscape:cy="21.08075"
     inkscape:window-x="0"
     inkscape:window-y="22"
     inkscape:window-maximized="1"
     inkscape:current-layer="svg8" />
  <path
     inkscape:connector-curvature="0"
     id="path2"
     d="M 49.947,0 C 22.406,0 0,22.406 0,49.947 0,77.488 22.406,99.893 49.947,99.893 77.488,99.893 99.893,77.487 99.893,49.947 99.893,22.407 77.487,0 49.947,0 Z m 0,97.893 C 23.509,97.893 2,76.384 2,49.947 2,23.509 23.509,2 49.947,2 c 26.438,0 47.946,21.509 47.946,47.947 0,26.437 -21.509,47.946 -47.946,47.946 z"
     style="fill:#aaaabe;fill-opacity:1" />
  <g
     id="background"
     transform="translate(-436.19241,-586.45469)"
     style="fill:#aaaabe;fill-opacity:1" />
  <g
     id="design"
     transform="translate(-436.19241,-586.45469)"
     style="fill:#aaaabe;fill-opacity:1" />
  <g
     id="g829"
     transform="matrix(0.07996921,0,0,0.07996921,1.9643742,1.9637745)"
     style="fill:#aaaabe;fill-opacity:1">
    <path
       id="path825"
       d="M 830.982,853.043 454.691,600.018 830.982,346.987 Z M 489.297,600.018 811.683,816.782 V 383.23 Z"
       inkscape:connector-curvature="0"
       style="fill:#aaaabe;fill-opacity:1" />
    <path
       id="path827"
       d="M 455.249,838 H 369.033 V 362.023 h 86.216 z m -66.92,-19.309 h 47.62 V 381.335 h -47.62 z"
       inkscape:connector-curvature="0"
       style="fill:#aaaabe;fill-opacity:1" />
  </g>
</svg>
