<?xml version="1.0" encoding="UTF-8" standalone="no"?>
<!-- Generator: Adobe Illustrator 19.0.0, SVG Export Plug-In . SVG Version: 6.00 Build 0)  -->

<svg
   xmlns:dc="http://purl.org/dc/elements/1.1/"
   xmlns:cc="http://creativecommons.org/ns#"
   xmlns:rdf="http://www.w3.org/1999/02/22-rdf-syntax-ns#"
   xmlns:svg="http://www.w3.org/2000/svg"
   xmlns="http://www.w3.org/2000/svg"
   xmlns:sodipodi="http://sodipodi.sourceforge.net/DTD/sodipodi-0.dtd"
   xmlns:inkscape="http://www.inkscape.org/namespaces/inkscape"
   version="1.1"
   id="Capa_1"
   x="0px"
   y="0px"
   viewBox="0 0 100 100"
   xml:space="preserve"
   inkscape:version="0.92.2 2405546, 2018-03-11"
   width="100%"
   height="100%"
   sodipodi:docname="shuffle-on2.svg"><metadata
   id="metadata47"><rdf:RDF><cc:Work
       rdf:about=""><dc:format>image/svg+xml</dc:format><dc:type
         rdf:resource="http://purl.org/dc/dcmitype/StillImage" /></cc:Work></rdf:RDF></metadata><defs
   id="defs45" /><sodipodi:namedview
   pagecolor="#ffffff"
   bordercolor="#666666"
   borderopacity="1"
   objecttolerance="10"
   gridtolerance="10"
   guidetolerance="10"
   inkscape:pageopacity="0"
   inkscape:pageshadow="2"
   inkscape:window-width="1920"
   inkscape:window-height="1013"
   id="namedview43"
   showgrid="true"
   inkscape:zoom="4"
   inkscape:cx="2.5077081"
   inkscape:cy="23.087297"
   inkscape:window-x="0"
   inkscape:window-y="0"
   inkscape:window-maximized="1"
   inkscape:current-layer="Capa_1"
   showguides="true"><inkscape:grid
     type="xygrid"
     id="grid819" /></sodipodi:namedview>
<g
   id="g856"
   transform="matrix(1.0236074,0,0,1.0236074,-1.3975441,1.1151255)"><g
     id="g838"><g
       id="g3"
       transform="matrix(0.18363599,0,0,0.18363599,5.0000007,5.0000007)"
       style="fill:#aaaabe;fill-opacity:1;stroke:#aaaabe;stroke-width:16.33666611;stroke-miterlimit:4;stroke-dasharray:none;stroke-opacity:1">
	<g
   id="g5"
   style="fill:#aaaabe;fill-opacity:1;stroke:#aaaabe;stroke-width:16.33666611;stroke-miterlimit:4;stroke-dasharray:none;stroke-opacity:1">
		
		<path
   d="m 473.84445,115.23889 -59.4,-59.499998 c -4.8,-4.8 -12.5,-4.8 -17.3,0 -4.8,4.8 -4.8,12.5 0,17.3 l 38.6,38.599998 -0.1,-2.72778 H 381.18889 27.227773 c -16.33667,0 -16.33667,27.22778 0,27.22778 h 351.616677 56.6 0.2 l -38.6,38.6 c -4.8,4.8 -4.8,12.5 0,17.3 2.4,2.4 5.5,3.6 8.7,3.6 3.2,0 6.3,-1.2 8.7,-3.6 l 59.5,-59.5 c 4.7,-4.8 4.7,-12.6 -0.1,-17.3 z m -26.1,8.8 v -0.2 -0.2 l 0.2,0.2 z"
   id="path9"
   inkscape:connector-curvature="0"
   style="fill:#aaaabe;fill-opacity:1;stroke:#aaaabe;stroke-width:16.33666611;stroke-miterlimit:4;stroke-dasharray:none;stroke-opacity:1"
   sodipodi:nodetypes="ccssccccccccssssccccccc" />
		
	<path
   sodipodi:nodetypes="ccssccccccccssssccccccc"
   style="fill:#aaaabe;fill-opacity:1;stroke:#aaaabe;stroke-width:16.33666611;stroke-miterlimit:4;stroke-dasharray:none;stroke-opacity:1"
   inkscape:connector-curvature="0"
   id="path849"
   d="m 473.84445,333.06111 -59.4,-59.5 c -4.8,-4.8 -12.5,-4.8 -17.3,0 -4.8,4.8 -4.8,12.5 0,17.3 l 38.6,38.6 -0.1,-2.72778 H 381.18889 27.227762 c -16.33667,0 -16.33667,27.22778 0,27.22778 h 351.616688 56.6 0.2 l -38.6,38.6 c -4.8,4.8 -4.8,12.5 0,17.3 2.4,2.4 5.5,3.6 8.7,3.6 3.2,0 6.3,-1.2 8.7,-3.6 l 59.5,-59.5 c 4.7,-4.8 4.7,-12.6 -0.1,-17.3 z m -26.1,8.8 v -0.2 -0.2 l 0.2,0.2 z" /></g>
</g></g></g>















</svg>