<?xml version="1.0" encoding="UTF-8" standalone="no"?>
<!-- Generator: Adobe Illustrator 19.0.0, SVG Export Plug-In . SVG Version: 6.00 Build 0)  -->

<svg
        xmlns:dc="http://purl.org/dc/elements/1.1/"
        xmlns:cc="http://creativecommons.org/ns#"
        xmlns:rdf="http://www.w3.org/1999/02/22-rdf-syntax-ns#"
        xmlns="http://www.w3.org/2000/svg"
        xmlns:sodipodi="http://sodipodi.sourceforge.net/DTD/sodipodi-0.dtd"
        xmlns:inkscape="http://www.inkscape.org/namespaces/inkscape"
        version="1.1"
        id="Capa_1"
        x="0px"
        y="0px"
        viewBox="0 0 100 100"
        xml:space="preserve"
        inkscape:version="0.92.4 5da689c313, 2019-01-14"
        width="32"
        height="32"
        sodipodi:docname="shuffle-on.svg"><metadata
   id="metadata47"><rdf:RDF><cc:Work
       rdf:about=""><dc:format>image/svg+xml</dc:format><dc:type
         rdf:resource="http://purl.org/dc/dcmitype/StillImage" /><dc:title></dc:title></cc:Work></rdf:RDF></metadata><defs
   id="defs45" /><sodipodi:namedview
   pagecolor="#ffffff"
   bordercolor="#666666"
   borderopacity="1"
   objecttolerance="10"
   gridtolerance="10"
   guidetolerance="10"
   inkscape:pageopacity="0"
   inkscape:pageshadow="2"
   inkscape:window-width="1920"
   inkscape:window-height="1013"
   id="namedview43"
   showgrid="false"
   inkscape:zoom="10.895879"
   inkscape:cx="52.811806"
   inkscape:cy="15.099026"
   inkscape:window-x="0"
   inkscape:window-y="0"
   inkscape:window-maximized="1"
   inkscape:current-layer="Capa_1"
   units="px" />
<g
   id="g3"
   transform="matrix(0.18776671,0,0,0.18776671,3.9949105,3.9806242)"
   style="fill:#aaaabe;fill-opacity:1;stroke:#aaaabe;stroke-width:16.33666611;stroke-miterlimit:4;stroke-dasharray:none;stroke-opacity:1">
	<g
   id="g5"
   style="fill:#aaaabe;fill-opacity:1;stroke:#aaaabe;stroke-width:16.33666611;stroke-miterlimit:4;stroke-dasharray:none;stroke-opacity:1">
		<path
   d="m 194.5,324.35 15,-24.2 c 3.6,-5.8 1.8,-13.3 -4,-16.9 -5.7,-3.6 -13.3,-1.8 -16.9,4 l -15,24.2 c -27.2,43.9 -66,69.1 -106.6,69.1 H 12.2 c -6.8,0 -12.2,5.5 -12.2,12.3 0,6.8 5.5,12.3 12.2,12.3 h 54.9 c 49.3,-0.2 95.7,-29.6 127.4,-80.8 z"
   id="path7"
   inkscape:connector-curvature="0"
   style="fill:#aaaabe;fill-opacity:1;stroke:#aaaabe;stroke-width:16.33666611;stroke-miterlimit:4;stroke-dasharray:none;stroke-opacity:1" />
		<path
   d="M 486.4,88.75 427,29.25 c -4.8,-4.8 -12.5,-4.8 -17.3,0 -4.8,4.8 -4.8,12.5 0,17.3 l 38.6,38.6 c -0.1,0 -0.1,0 -0.2,0 h -56.7 c -49.2,0 -95.7,29.4 -127.4,80.6 l -9.2,14.9 c -3.6,5.8 -1.8,13.3 4,16.9 2,1.2 4.2,1.8 6.4,1.8 4.1,0 8.1,-2.1 10.4,-5.8 l 9.2,-14.9 c 27.2,-43.9 66,-69 106.6,-69 H 448 c 0.1,0 0.1,0 0.2,0 l -38.6,38.6 c -4.8,4.8 -4.8,12.5 0,17.3 2.4,2.4 5.5,3.6 8.7,3.6 3.2,0 6.3,-1.2 8.7,-3.6 l 59.5,-59.5 c 4.7,-4.8 4.7,-12.6 -0.1,-17.3 z m -26.1,8.8 c 0,-0.1 0,-0.1 0,-0.2 0,-0.1 0,-0.1 0,-0.2 l 0.2,0.2 z"
   id="path9"
   inkscape:connector-curvature="0"
   style="fill:#aaaabe;fill-opacity:1;stroke:#aaaabe;stroke-width:16.33666611;stroke-miterlimit:4;stroke-dasharray:none;stroke-opacity:1" />
		<path
   d="m 409.6,460.85 c 2.4,2.4 5.5,3.6 8.7,3.6 3.2,0 6.3,-1.2 8.7,-3.6 l 59.5,-59.5 c 4.8,-4.8 4.8,-12.5 0,-17.3 L 427,324.65 c -4.8,-4.8 -12.5,-4.8 -17.3,0 -4.8,4.8 -4.8,12.5 0,17.3 l 38.6,38.6 c -0.1,0 -0.1,0 -0.2,0 h -54.9 c -40.5,0 -79.4,-25.2 -106.6,-69.1 L 196.4,165.75 C 164.7,114.45 118.2,85.15 69,85.15 H 12.2 c -6.8,0 -12.2,5.5 -12.2,12.3 0,6.8 5.5,12.3 12.2,12.3 h 56.7 c 40.5,0 79.4,25.2 106.6,69 l 90.2,145.7 c 31.7,51.3 78.2,80.7 127.4,80.7 H 448 c 0.1,0 0.1,0 0.2,0 l -38.6,38.6 c -4.7,4.6 -4.7,12.3 0,17.1 z m 50.7,-68.3 0.2,0.2 -0.2,0.2 c 0,-0.1 0,-0.1 0,-0.2 0,-0.1 0,-0.1 0,-0.2 z"
   id="path11"
   inkscape:connector-curvature="0"
   style="fill:#aaaabe;fill-opacity:1;stroke:#aaaabe;stroke-width:16.33666611;stroke-miterlimit:4;stroke-dasharray:none;stroke-opacity:1" />
	</g>
</g>















</svg>