<?xml version='1.0' encoding='iso-8859-1'?>
<svg version="1.1" xmlns="http://www.w3.org/2000/svg" viewBox="0 0 99.894 99.894" xmlns:xlink="http://www.w3.org/1999/xlink" enable-background="new 0 0 99.894 99.894">
  <g>
    <path d="M49.947,0C22.406,0,0,22.406,0,49.946c0,27.541,22.406,49.947,49.947,49.947s49.946-22.406,49.946-49.947   C99.893,22.406,77.488,0,49.947,0z M49.947,97.894C23.509,97.894,2,76.385,2,49.946C2,23.509,23.509,2,49.947,2   c26.438,0,47.946,21.509,47.946,47.946C97.893,76.385,76.385,97.894,49.947,97.894z"/>
    <path d="m57.226,28.641c-1.601-0.877-3.532-0.817-5.071,0.163l-23.223,14.837c-0.84-0.667-1.917-1.015-3.071-1.015h-1.271c-2.715,0-4.694,2.074-4.694,4.789v6.11c0,2.715 1.979,5.101 4.694,5.101h1.271c1.321,0 2.517-0.618 3.402-1.468l22.837,14.478c0.815,0.519 1.725,0.757 2.638,0.757 0.81,0 1.738-0.216 2.489-0.629 1.599-0.878 2.669-2.502 2.669-4.326v-34.48c7.10543e-15-1.826-1.07-3.439-2.67-4.317zm.67,38.797c0,1.083-0.682,2.041-1.631,2.562-0.951,0.521-2.12,0.484-3.034-0.096l-22.745-14.48c0.245-0.585 0.409-1.226 0.409-1.898v-6.11c0-0.831-0.282-1.603-0.647-2.29l22.951-14.634c0.485-0.309 1.011-0.464 1.554-0.464 0.48,0 1.071,0.122 1.517,0.367 0.95,0.521 1.625,1.479 1.625,2.562v34.481zm-28.999-13.736c0,1.615-1.309,2.924-2.923,2.924h-1.153c-1.615,0-2.923-1.309-2.923-2.924v-6.152c0-1.615 1.309-2.924 2.923-2.924h1.153c1.615,0 2.923,1.309 2.923,2.924v6.152z"/>
    <path d="m65.896,34.613v2c7,0 12.812,5.957 12.812,13.857s-5.812,13.857-12.812,13.857v2c8,0 14.812-6.817 14.812-15.857s-6.812-15.857-14.812-15.857z"/>
    <path d="m72.982,50.471c0-4.303-3.086-7.547-7.086-7.547v2c2,0 5.086,2.385 5.086,5.547s-3.086,5.547-5.086,5.547v2c4,7.10543e-15 7.086-3.245 7.086-7.547z"/>
  </g>
</svg>
