<?xml version="1.0" encoding="UTF-8" standalone="no"?>
<svg
        xmlns:dc="http://purl.org/dc/elements/1.1/"
        xmlns:cc="http://creativecommons.org/ns#"
        xmlns:rdf="http://www.w3.org/1999/02/22-rdf-syntax-ns#"
        xmlns="http://www.w3.org/2000/svg"
        xmlns:sodipodi="http://sodipodi.sourceforge.net/DTD/sodipodi-0.dtd"
        xmlns:inkscape="http://www.inkscape.org/namespaces/inkscape"
        version="1.1"
        viewBox="0 0 100 100"
        enable-background="new 0 0 99.894 99.894"
        id="svg12"
        sodipodi:docname="volume-half.svg"
        inkscape:version="0.92.4 5da689c313, 2019-01-14"
        width="32"
        height="32">
  <metadata
     id="metadata18">
    <rdf:RDF>
      <cc:Work
         rdf:about="">
        <dc:format>image/svg+xml</dc:format>
        <dc:type
           rdf:resource="http://purl.org/dc/dcmitype/StillImage" />
        <dc:title></dc:title>
      </cc:Work>
    </rdf:RDF>
  </metadata>
  <defs
     id="defs16" />
  <sodipodi:namedview
     pagecolor="#ffffff"
     bordercolor="#666666"
     borderopacity="1"
     objecttolerance="10"
     gridtolerance="10"
     guidetolerance="10"
     inkscape:pageopacity="0"
     inkscape:pageshadow="2"
     inkscape:window-width="1920"
     inkscape:window-height="1013"
     id="namedview14"
     showgrid="false"
     inkscape:zoom="13.364342"
     inkscape:cx="31.958749"
     inkscape:cy="25.894996"
     inkscape:window-x="0"
     inkscape:window-y="0"
     inkscape:window-maximized="1"
     inkscape:current-layer="svg12"
     units="px" />
  <g
     id="g830"
     transform="matrix(0.14950554,0,0,0.14950554,-39.703547,-39.70549)"
     style="fill:#aaaabe;fill-opacity:1;stroke:#aaaabe;stroke-width:20.46389961;stroke-miterlimit:4;stroke-dasharray:none;stroke-opacity:1">
    <path
       id="path826"
       d="m 696.872,906.973 v 0 c -9.065,0 -18.565,-4.922 -28.275,-14.625 L 537.562,761.309 H 381.706 c -34.4,0 -62.396,-27.975 -62.396,-62.395 V 501.102 c 0,-34.4 27.987,-62.402 62.396,-62.402 H 537.57 L 668.596,307.669 c 9.718,-9.699 19.21,-14.613 28.283,-14.613 12.325,0 25.519,9.688 25.519,36.891 v 540.121 c 0,10.459 -1.934,18.955 -5.725,25.256 -4.531,7.512 -11.559,11.649 -19.801,11.649 z M 381.721,458.01 c -23.766,0 -43.092,19.33 -43.092,43.1 v 197.805 c 0,23.773 19.334,43.088 43.092,43.088 h 163.851 l 136.677,136.695 c 8.316,8.309 13.283,8.953 14.617,8.953 v 0 c 0.757,0 1.857,0 3.251,-2.301 1.102,-1.82 2.96,-6.24 2.96,-15.283 V 329.953 c 0,-10.354 -2.548,-17.584 -6.211,-17.584 -1.334,0 -6.301,0.645 -14.617,8.961 L 545.571,458.01 Z"
       inkscape:connector-curvature="0"
       style="fill:#aaaabe;fill-opacity:1;stroke:#aaaabe;stroke-width:20.46389961;stroke-miterlimit:4;stroke-dasharray:none;stroke-opacity:1" />
    <path
       id="path828"
       d="m 784.321,736.061 -6.413,-18.207 c 49.928,-17.576 83.463,-64.926 83.463,-117.844 0,-52.922 -33.535,-100.279 -83.463,-117.842 l 6.413,-18.213 c 57.645,20.277 96.372,74.955 96.372,136.055 0.008,61.099 -38.742,115.777 -96.372,136.051 z"
       inkscape:connector-curvature="0"
       style="fill:#aaaabe;fill-opacity:1;stroke:#aaaabe;stroke-width:20.46389961;stroke-miterlimit:4;stroke-dasharray:none;stroke-opacity:1" />
  </g>
</svg>
