<?xml version="1.0" encoding="UTF-8" standalone="no"?>
<svg
   xmlns:dc="http://purl.org/dc/elements/1.1/"
   xmlns:cc="http://creativecommons.org/ns#"
   xmlns:rdf="http://www.w3.org/1999/02/22-rdf-syntax-ns#"
   xmlns:svg="http://www.w3.org/2000/svg"
   xmlns="http://www.w3.org/2000/svg"
   xmlns:sodipodi="http://sodipodi.sourceforge.net/DTD/sodipodi-0.dtd"
   xmlns:inkscape="http://www.inkscape.org/namespaces/inkscape"
   version="1.1"
   viewBox="0 0 100 100"
   enable-background="new 0 0 99.893 99.893"
   id="svg10"
   sodipodi:docname="volume-mute.svg"
   inkscape:version="0.48.4 r9939"
   width="100%"
   height="100%">
  <metadata
     id="metadata16">
    <rdf:RDF>
      <cc:Work
         rdf:about="">
        <dc:format>image/svg+xml</dc:format>
        <dc:type
           rdf:resource="http://purl.org/dc/dcmitype/StillImage" />
      </cc:Work>
    </rdf:RDF>
  </metadata>
  <defs
     id="defs14" />
  <sodipodi:namedview
     pagecolor="#ffffff"
     bordercolor="#666666"
     borderopacity="1"
     objecttolerance="10"
     gridtolerance="10"
     guidetolerance="10"
     inkscape:pageopacity="0"
     inkscape:pageshadow="2"
     inkscape:window-width="1920"
     inkscape:window-height="1017"
     id="namedview12"
     showgrid="false"
     inkscape:zoom="6.6822382"
     inkscape:cx="-4.6256296"
     inkscape:cy="51.259151"
     inkscape:window-x="-8"
     inkscape:window-y="-8"
     inkscape:window-maximized="1"
     inkscape:current-layer="svg10" />
  <g
     id="background"
     transform="translate(-632.59221,-599.893)" />
  <g
     id="design"
     transform="translate(-632.59221,-599.893)" />
  <rect
     style="fill:#aaaabe;fill-opacity:1;stroke-width:0.06962132"
     x="-62.288921"
     y="-72.061371"
     transform="matrix(0.70710678,-0.70710678,-0.70710678,-0.70710678,0,0)"
     width="124.57784"
     height="2.7013853"
     id="rect829" />
  <path
     style="fill:#aaaabe;fill-opacity:1;stroke-width:0.07236169"
     inkscape:connector-curvature="0"
     d="m 75.585438,94.618548 v 0 c -1.317661,0 -2.698552,-0.715446 -4.109968,-2.125846 L 52.428625,73.445275 H 29.773871 c -5.000279,0 -9.06969,-4.06636 -9.06969,-9.069547 V 35.622382 c 0,-5.00028 4.068104,-9.070565 9.06969,-9.070565 H 52.429786 L 71.475323,7.505553 c 1.412579,-1.409817 2.792309,-2.124101 4.111131,-2.124101 1.791525,0 3.709365,1.408218 3.709365,5.362363 v 78.510336 c 0,1.520292 -0.28112,2.755245 -0.83217,3.671137 -0.65861,1.091923 -1.680179,1.69326 -2.878211,1.69326 z M 29.776052,29.358661 c -3.454551,0 -6.263721,2.809749 -6.263721,6.264882 v 28.752332 c 0,3.455569 2.810331,6.263139 6.263721,6.263139 h 23.81688 l 19.866953,19.869568 c 1.208787,1.20777 1.930776,1.301378 2.124681,1.301378 v 0 c 0.11004,0 0.269929,0 0.472556,-0.334465 0.160178,-0.264549 0.430257,-0.907028 0.430257,-2.221489 V 10.744687 c 0,-1.505026 -0.370372,-2.555955 -0.902813,-2.555955 -0.193905,0 -0.915894,0.09375 -2.124681,1.302544 L 53.592789,29.358665 z"
     id="path826" />
</svg>
