<?xml version="1.0" encoding="UTF-8" standalone="no"?>
<svg
   xmlns:dc="http://purl.org/dc/elements/1.1/"
   xmlns:cc="http://creativecommons.org/ns#"
   xmlns:rdf="http://www.w3.org/1999/02/22-rdf-syntax-ns#"
   xmlns:svg="http://www.w3.org/2000/svg"
   xmlns="http://www.w3.org/2000/svg"
   xmlns:sodipodi="http://sodipodi.sourceforge.net/DTD/sodipodi-0.dtd"
   xmlns:inkscape="http://www.inkscape.org/namespaces/inkscape"
   version="1.1"
   viewBox="0 0 99.893 99.893"
   enable-background="new 0 0 99.893 99.893"
   id="svg10"
   sodipodi:docname="mute.svg"
   inkscape:version="0.92.2 5c3e80d, 2017-08-06">
  <metadata
     id="metadata16">
    <rdf:RDF>
      <cc:Work
         rdf:about="">
        <dc:format>image/svg+xml</dc:format>
        <dc:type
           rdf:resource="http://purl.org/dc/dcmitype/StillImage" />
      </cc:Work>
    </rdf:RDF>
  </metadata>
  <defs
     id="defs14" />
  <sodipodi:namedview
     pagecolor="#ffffff"
     bordercolor="#666666"
     borderopacity="1"
     objecttolerance="10"
     gridtolerance="10"
     guidetolerance="10"
     inkscape:pageopacity="0"
     inkscape:pageshadow="2"
     inkscape:window-width="1920"
     inkscape:window-height="991"
     id="namedview12"
     showgrid="false"
     inkscape:zoom="6.6822382"
     inkscape:cx="13.2576"
     inkscape:cy="51.259151"
     inkscape:window-x="0"
     inkscape:window-y="22"
     inkscape:window-maximized="1"
     inkscape:current-layer="svg10" />
  <path
     inkscape:connector-curvature="0"
     id="path2"
     d="M 49.946,0 C 22.406,0 0,22.406 0,49.946 c 0,27.54 22.406,49.946 49.946,49.946 27.54,0 49.946,-22.406 49.946,-49.946 C 99.892,22.406 77.487,0 49.946,0 Z m 0,97.893 C 23.509,97.893 2,76.384 2,49.946 2,23.508 23.509,2 49.946,2 c 26.437,0 47.946,21.509 47.946,47.946 0,26.437 -21.508,47.947 -47.946,47.947 z"
     style="fill:#aaaabe;fill-opacity:1" />
  <g
     id="background"
     transform="translate(-632.59221,-600)" />
  <g
     id="design"
     transform="translate(-632.59221,-600)" />
  <rect
     style="fill:#aaaabe;fill-opacity:1;stroke-width:0.06962132"
     x="-31.008713"
     y="-71.306709"
     transform="matrix(0.70710678,-0.70710678,-0.70710678,-0.70710678,0,0)"
     width="62.017422"
     height="1.3448055"
     id="rect829" />
  <path
     style="fill:#aaaabe;fill-opacity:1;stroke-width:0.07236169"
     inkscape:connector-curvature="0"
     d="m 62.68296,72.158035 v 0 c -0.655959,0 -1.343395,-0.356164 -2.046027,-1.05829 L 51.15502,61.617542 H 39.877015 c -2.489242,0 -4.515079,-2.024318 -4.515079,-4.515008 v -14.31401 c 0,-2.489243 2.025186,-4.515515 4.515079,-4.515515 h 11.278583 l 9.481262,-9.481624 c 0.703211,-0.701836 1.390069,-1.057421 2.046606,-1.057421 0.891858,0 1.846598,0.70104 1.846598,2.669495 v 39.084068 c 0,0.756832 -0.139946,1.371617 -0.414271,1.827567 -0.32787,0.543582 -0.836428,0.842941 -1.432833,0.842941 z M 39.878101,39.670314 c -1.719747,0 -3.11821,1.398751 -3.11821,3.118788 v 14.313505 c 0,1.720254 1.399041,3.11792 3.11821,3.11792 h 11.856535 l 9.89018,9.891482 c 0.601759,0.601253 0.96118,0.647853 1.05771,0.647853 v 0 c 0.05478,0 0.134376,0 0.235248,-0.166504 0.07974,-0.131698 0.214191,-0.451537 0.214191,-1.105903 V 30.403893 c 0,-0.749233 -0.184379,-1.272408 -0.449439,-1.272408 -0.09653,0 -0.455951,0.04667 -1.05771,0.648433 l -9.890251,9.890397 z"
     id="path826" />
</svg>
