<?xml version="1.0" encoding="UTF-8" standalone="no"?>
<!-- Generator: Adobe Illustrator 19.0.0, SVG Export Plug-In . SVG Version: 6.00 Build 0)  -->

<svg
   xmlns:dc="http://purl.org/dc/elements/1.1/"
   xmlns:cc="http://creativecommons.org/ns#"
   xmlns:rdf="http://www.w3.org/1999/02/22-rdf-syntax-ns#"
   xmlns:svg="http://www.w3.org/2000/svg"
   xmlns="http://www.w3.org/2000/svg"
   xmlns:sodipodi="http://sodipodi.sourceforge.net/DTD/sodipodi-0.dtd"
   xmlns:inkscape="http://www.inkscape.org/namespaces/inkscape"
   version="1.1"
   id="Capa_1"
   x="0px"
   y="0px"
   viewBox="0 0 512 341.33701"
   xml:space="preserve"
   sodipodi:docname="AGO.svg"
   width="512"
   height="341.33701"
   inkscape:version="0.92.4 5da689c313, 2019-01-14"><metadata
   id="metadata49"><rdf:RDF><cc:Work
       rdf:about=""><dc:format>image/svg+xml</dc:format><dc:type
         rdf:resource="http://purl.org/dc/dcmitype/StillImage" /><dc:title></dc:title></cc:Work></rdf:RDF></metadata><defs
   id="defs47" /><sodipodi:namedview
   pagecolor="#ffffff"
   bordercolor="#666666"
   borderopacity="1"
   objecttolerance="10"
   gridtolerance="10"
   guidetolerance="10"
   inkscape:pageopacity="0"
   inkscape:pageshadow="2"
   inkscape:window-width="1920"
   inkscape:window-height="1013"
   id="namedview45"
   showgrid="false"
   fit-margin-top="0"
   fit-margin-left="0"
   fit-margin-right="0"
   fit-margin-bottom="0"
   inkscape:zoom="0.4609375"
   inkscape:cx="256"
   inkscape:cy="170.66801"
   inkscape:window-x="0"
   inkscape:window-y="0"
   inkscape:window-maximized="1"
   inkscape:current-layer="Capa_1" />
<rect
   y="0"
   width="512"
   height="341.33701"
   id="rect2"
   x="0" />
<rect
   y="0"
   style="fill:#d80027"
   width="512"
   height="170.66299"
   id="rect4"
   x="0" />
<g
   id="g12"
   transform="translate(0,-85.331001)">
	<polygon
   style="fill:#ffda44"
   points="241.554,248.574 256.01,238.058 270.48,248.557 264.944,231.558 279.402,221.04 261.525,221.052 255.99,204.052 250.475,221.058 232.598,221.069 247.067,231.569 "
   id="polygon6" />
	<path
   style="fill:#ffda44"
   d="M 298.666,182.094 C 285.217,174.329 270.513,170.664 256,170.69 v 22.255 c 10.728,-0.019 21.595,2.688 31.536,8.427 30.119,17.389 40.476,56.039 23.086,86.158 -17.388,30.119 -56.04,40.476 -86.158,23.087 -8.774,-5.065 -15.858,-11.944 -21.08,-19.882 l -18.584,12.27 c 7.066,10.739 16.662,20.037 28.533,26.891 40.75,23.526 93.04,9.515 116.567,-31.234 23.527,-40.75 9.516,-93.042 -31.234,-116.568 z"
   id="path8"
   inkscape:connector-curvature="0" />
	<path
   style="fill:#ffda44"
   d="m 206.792,241.154 c -5.9,10.786 -1.939,24.313 8.846,30.214 l 72.299,39.506 c -4.916,8.988 -2.306,19.927 6.682,24.843 L 314.15,346.4 c 8.988,4.917 20.261,1.616 25.178,-7.372 l 10.683,-19.529 z"
   id="path10"
   inkscape:connector-curvature="0" />
</g>
<g
   id="g14"
   transform="translate(0,-85.331001)">
</g>
<g
   id="g16"
   transform="translate(0,-85.331001)">
</g>
<g
   id="g18"
   transform="translate(0,-85.331001)">
</g>
<g
   id="g20"
   transform="translate(0,-85.331001)">
</g>
<g
   id="g22"
   transform="translate(0,-85.331001)">
</g>
<g
   id="g24"
   transform="translate(0,-85.331001)">
</g>
<g
   id="g26"
   transform="translate(0,-85.331001)">
</g>
<g
   id="g28"
   transform="translate(0,-85.331001)">
</g>
<g
   id="g30"
   transform="translate(0,-85.331001)">
</g>
<g
   id="g32"
   transform="translate(0,-85.331001)">
</g>
<g
   id="g34"
   transform="translate(0,-85.331001)">
</g>
<g
   id="g36"
   transform="translate(0,-85.331001)">
</g>
<g
   id="g38"
   transform="translate(0,-85.331001)">
</g>
<g
   id="g40"
   transform="translate(0,-85.331001)">
</g>
<g
   id="g42"
   transform="translate(0,-85.331001)">
</g>
</svg>