<?xml version="1.0" encoding="UTF-8" standalone="no"?>
<!-- Generator: Adobe Illustrator 19.0.0, SVG Export Plug-In . SVG Version: 6.00 Build 0)  -->

<svg
   xmlns:dc="http://purl.org/dc/elements/1.1/"
   xmlns:cc="http://creativecommons.org/ns#"
   xmlns:rdf="http://www.w3.org/1999/02/22-rdf-syntax-ns#"
   xmlns:svg="http://www.w3.org/2000/svg"
   xmlns="http://www.w3.org/2000/svg"
   xmlns:sodipodi="http://sodipodi.sourceforge.net/DTD/sodipodi-0.dtd"
   xmlns:inkscape="http://www.inkscape.org/namespaces/inkscape"
   version="1.1"
   id="Capa_1"
   x="0px"
   y="0px"
   viewBox="0 0 512 341.33701"
   xml:space="preserve"
   sodipodi:docname="ALB.svg"
   width="512"
   height="341.33701"
   inkscape:version="0.92.4 5da689c313, 2019-01-14"><metadata
   id="metadata41"><rdf:RDF><cc:Work
       rdf:about=""><dc:format>image/svg+xml</dc:format><dc:type
         rdf:resource="http://purl.org/dc/dcmitype/StillImage" /><dc:title></dc:title></cc:Work></rdf:RDF></metadata><defs
   id="defs39" /><sodipodi:namedview
   pagecolor="#ffffff"
   bordercolor="#666666"
   borderopacity="1"
   objecttolerance="10"
   gridtolerance="10"
   guidetolerance="10"
   inkscape:pageopacity="0"
   inkscape:pageshadow="2"
   inkscape:window-width="736"
   inkscape:window-height="480"
   id="namedview37"
   showgrid="false"
   fit-margin-top="0"
   fit-margin-left="0"
   fit-margin-right="0"
   fit-margin-bottom="0"
   inkscape:zoom="0.4609375"
   inkscape:cx="256"
   inkscape:cy="170.66801"
   inkscape:window-x="0"
   inkscape:window-y="0"
   inkscape:window-maximized="0"
   inkscape:current-layer="Capa_1" />
<rect
   y="0"
   style="fill:#d80027"
   width="512"
   height="341.33701"
   id="rect2"
   x="0" />
<path
   d="m 352.464,126.669 h -61.817 c 3.817,-3.996 6.165,-9.405 6.165,-15.368 0,-12.295001 -9.966,-22.261001 -22.261,-22.261001 -7.745,0 -14.563,3.957 -18.551,9.958 -3.988,-6 -10.805,-9.958 -18.551,-9.958 -12.295,0 -22.261,9.966 -22.261,22.261001 0,5.963 2.349,11.372 6.165,15.368 h -61.817 c 0,16.393 14.278,29.68 30.67,29.68 h -0.988 c 0,16.393 13.289,29.682 29.682,29.682 0,5.309 1.399,10.287 3.842,14.595 l -24.619,24.621 18.888,18.888 26.794,-26.794 c 1.05,0.385 2.136,0.692 3.257,0.903 l -16.191,36.557 25.129,27.167 25.13,-27.167 -16.191,-36.557 c 1.122,-0.21 2.207,-0.518 3.257,-0.903 l 26.794,26.794 18.888,-18.888 -24.621,-24.621 c 2.443,-4.309 3.842,-9.286 3.842,-14.595 16.393,0 29.682,-13.289 29.682,-29.682 h -0.988 c 16.393,0.001 30.671,-13.287 30.671,-29.68 z"
   id="path4"
   inkscape:connector-curvature="0" />
<g
   id="g6"
   transform="translate(0,-85.331001)">
</g>
<g
   id="g8"
   transform="translate(0,-85.331001)">
</g>
<g
   id="g10"
   transform="translate(0,-85.331001)">
</g>
<g
   id="g12"
   transform="translate(0,-85.331001)">
</g>
<g
   id="g14"
   transform="translate(0,-85.331001)">
</g>
<g
   id="g16"
   transform="translate(0,-85.331001)">
</g>
<g
   id="g18"
   transform="translate(0,-85.331001)">
</g>
<g
   id="g20"
   transform="translate(0,-85.331001)">
</g>
<g
   id="g22"
   transform="translate(0,-85.331001)">
</g>
<g
   id="g24"
   transform="translate(0,-85.331001)">
</g>
<g
   id="g26"
   transform="translate(0,-85.331001)">
</g>
<g
   id="g28"
   transform="translate(0,-85.331001)">
</g>
<g
   id="g30"
   transform="translate(0,-85.331001)">
</g>
<g
   id="g32"
   transform="translate(0,-85.331001)">
</g>
<g
   id="g34"
   transform="translate(0,-85.331001)">
</g>
</svg>