<?xml version="1.0" encoding="UTF-8" standalone="no"?>
<!-- Generator: Adobe Illustrator 19.0.0, SVG Export Plug-In . SVG Version: 6.00 Build 0)  -->

<svg
   xmlns:dc="http://purl.org/dc/elements/1.1/"
   xmlns:cc="http://creativecommons.org/ns#"
   xmlns:rdf="http://www.w3.org/1999/02/22-rdf-syntax-ns#"
   xmlns:svg="http://www.w3.org/2000/svg"
   xmlns="http://www.w3.org/2000/svg"
   xmlns:sodipodi="http://sodipodi.sourceforge.net/DTD/sodipodi-0.dtd"
   xmlns:inkscape="http://www.inkscape.org/namespaces/inkscape"
   version="1.1"
   id="Capa_1"
   x="0px"
   y="0px"
   viewBox="0 0 512 341.33701"
   xml:space="preserve"
   sodipodi:docname="AND.svg"
   width="512"
   height="341.33701"
   inkscape:version="0.92.4 5da689c313, 2019-01-14"><metadata
   id="metadata51"><rdf:RDF><cc:Work
       rdf:about=""><dc:format>image/svg+xml</dc:format><dc:type
         rdf:resource="http://purl.org/dc/dcmitype/StillImage" /><dc:title></dc:title></cc:Work></rdf:RDF></metadata><defs
   id="defs49" /><sodipodi:namedview
   pagecolor="#ffffff"
   bordercolor="#666666"
   borderopacity="1"
   objecttolerance="10"
   gridtolerance="10"
   guidetolerance="10"
   inkscape:pageopacity="0"
   inkscape:pageshadow="2"
   inkscape:window-width="736"
   inkscape:window-height="480"
   id="namedview47"
   showgrid="false"
   fit-margin-top="0"
   fit-margin-left="0"
   fit-margin-right="0"
   fit-margin-bottom="0"
   inkscape:zoom="0.4609375"
   inkscape:cx="256"
   inkscape:cy="170.66801"
   inkscape:window-x="0"
   inkscape:window-y="0"
   inkscape:window-maximized="0"
   inkscape:current-layer="Capa_1" />
<rect
   y="0"
   style="fill:#ffda44"
   width="512"
   height="341.33701"
   id="rect2"
   x="0" />
<rect
   y="0"
   style="fill:#0052b4"
   width="170.66299"
   height="341.33701"
   id="rect4"
   x="0" />
<g
   id="g12"
   transform="translate(0,-85.331001)">
	<rect
   x="341.33701"
   y="85.331001"
   style="fill:#d80027"
   width="170.66299"
   height="341.33701"
   id="rect6" />
	<path
   style="fill:#d80027"
   d="m 256,315.356 c 0,-27.234 0,-59.362 0,-59.362 h 44.522 v 22.261 c 0,3.868 -7.421,18.038 -25.735,29.682 -6.938,4.411 -14.118,5.829 -18.787,7.419 z"
   id="path8"
   inkscape:connector-curvature="0" />
	<rect
   x="211.478"
   y="211.47301"
   style="fill:#d80027"
   width="44.521999"
   height="44.521999"
   id="rect10" />
</g>
<path
   style="fill:#ff9811"
   d="m 278.261,111.301 c 0,-8.196 -6.645,-14.840001 -14.84,-14.840001 -2.707,0 -5.236,0.736 -7.421,2.001 -2.185,-1.266 -4.714,-2.001 -7.421,-2.001 -8.195,0 -14.84,6.644001 -14.84,14.840001 h -37.101 v 74.202 c 0,27.624 21.938,43.599 39.14,51.88 -1.288,2.198 -2.039,4.75 -2.039,7.483 0,8.196 6.645,14.84 14.84,14.84 2.707,0 5.236,-0.736 7.421,-2.001 2.185,1.266 4.714,2.001 7.421,2.001 8.195,0 14.84,-6.644 14.84,-14.84 0,-2.733 -0.751,-5.284 -2.04,-7.483 17.203,-8.281 39.141,-24.257 39.141,-51.88 v -74.202 z m 14.84,74.203 c 0,3.868 0,15.635 -18.314,27.279 -6.936,4.411 -14.118,7.27 -18.787,8.861 -4.669,-1.591 -11.849,-4.45 -18.787,-8.861 -18.314,-11.644 -18.314,-23.411 -18.314,-27.278 v -51.941 h 74.203 v 51.941 h -10e-4 z"
   id="path14"
   inkscape:connector-curvature="0" />
<g
   id="g16"
   transform="translate(0,-85.331001)">
</g>
<g
   id="g18"
   transform="translate(0,-85.331001)">
</g>
<g
   id="g20"
   transform="translate(0,-85.331001)">
</g>
<g
   id="g22"
   transform="translate(0,-85.331001)">
</g>
<g
   id="g24"
   transform="translate(0,-85.331001)">
</g>
<g
   id="g26"
   transform="translate(0,-85.331001)">
</g>
<g
   id="g28"
   transform="translate(0,-85.331001)">
</g>
<g
   id="g30"
   transform="translate(0,-85.331001)">
</g>
<g
   id="g32"
   transform="translate(0,-85.331001)">
</g>
<g
   id="g34"
   transform="translate(0,-85.331001)">
</g>
<g
   id="g36"
   transform="translate(0,-85.331001)">
</g>
<g
   id="g38"
   transform="translate(0,-85.331001)">
</g>
<g
   id="g40"
   transform="translate(0,-85.331001)">
</g>
<g
   id="g42"
   transform="translate(0,-85.331001)">
</g>
<g
   id="g44"
   transform="translate(0,-85.331001)">
</g>
</svg>