<?xml version="1.0" encoding="UTF-8" standalone="no"?>
<!-- Generator: Adobe Illustrator 19.0.0, SVG Export Plug-In . SVG Version: 6.00 Build 0)  -->

<svg
   xmlns:dc="http://purl.org/dc/elements/1.1/"
   xmlns:cc="http://creativecommons.org/ns#"
   xmlns:rdf="http://www.w3.org/1999/02/22-rdf-syntax-ns#"
   xmlns:svg="http://www.w3.org/2000/svg"
   xmlns="http://www.w3.org/2000/svg"
   xmlns:sodipodi="http://sodipodi.sourceforge.net/DTD/sodipodi-0.dtd"
   xmlns:inkscape="http://www.inkscape.org/namespaces/inkscape"
   version="1.1"
   id="Capa_1"
   x="0px"
   y="0px"
   viewBox="0 0 512 341.32999"
   xml:space="preserve"
   sodipodi:docname="ATG.svg"
   width="512"
   height="341.32999"
   inkscape:version="0.92.4 5da689c313, 2019-01-14"><metadata
   id="metadata51"><rdf:RDF><cc:Work
       rdf:about=""><dc:format>image/svg+xml</dc:format><dc:type
         rdf:resource="http://purl.org/dc/dcmitype/StillImage" /><dc:title></dc:title></cc:Work></rdf:RDF></metadata><defs
   id="defs49" /><sodipodi:namedview
   pagecolor="#ffffff"
   bordercolor="#666666"
   borderopacity="1"
   objecttolerance="10"
   gridtolerance="10"
   guidetolerance="10"
   inkscape:pageopacity="0"
   inkscape:pageshadow="2"
   inkscape:window-width="736"
   inkscape:window-height="480"
   id="namedview47"
   showgrid="false"
   fit-margin-top="0"
   fit-margin-left="0"
   fit-margin-right="0"
   fit-margin-bottom="0"
   inkscape:zoom="0.4609375"
   inkscape:cx="256"
   inkscape:cy="170.665"
   inkscape:window-x="0"
   inkscape:window-y="0"
   inkscape:window-maximized="0"
   inkscape:current-layer="Capa_1" />
<rect
   y="0.0019979859"
   width="512"
   height="341.32599"
   id="rect2"
   x="0" />
<path
   style="fill:#0052b4"
   d="m 88.751,136.53 c -2.239,11.029 -3.417,22.443 -3.417,34.134 0,11.69 1.179,23.105 3.417,34.134 L 256,215.184 423.249,204.796 c 2.239,-11.029 3.417,-22.443 3.417,-34.134 0,-11.691 -1.179,-23.105 -3.417,-34.134"
   id="path4"
   inkscape:connector-curvature="0" />
<path
   style="fill:#f0f0f0"
   d="M 423.249,204.796 H 88.751 c 15.813,77.9 84.683,136.534 167.249,136.534 82.566,0 151.436,-58.634 167.249,-136.534 z"
   id="path6"
   inkscape:connector-curvature="0" />
<polygon
   style="fill:#ffda44"
   points="212.117,207.603 195.971,178.238 228.894,184.536 233.068,151.276 256,175.738 278.933,151.276 283.105,184.536 316.029,178.238 299.884,207.604 330.203,221.865 181.797,221.865 "
   id="polygon8"
   transform="translate(0,-85.335)" />
<g
   id="g14"
   transform="translate(0,-85.335)">
	<polygon
   style="fill:#a2001d"
   points="0,426.661 255.997,426.661 0,85.335 "
   id="polygon10" />
	<polygon
   style="fill:#a2001d"
   points="256.003,426.661 512,426.661 512,85.335 "
   id="polygon12" />
</g>
<g
   id="g16"
   transform="translate(0,-85.335)">
</g>
<g
   id="g18"
   transform="translate(0,-85.335)">
</g>
<g
   id="g20"
   transform="translate(0,-85.335)">
</g>
<g
   id="g22"
   transform="translate(0,-85.335)">
</g>
<g
   id="g24"
   transform="translate(0,-85.335)">
</g>
<g
   id="g26"
   transform="translate(0,-85.335)">
</g>
<g
   id="g28"
   transform="translate(0,-85.335)">
</g>
<g
   id="g30"
   transform="translate(0,-85.335)">
</g>
<g
   id="g32"
   transform="translate(0,-85.335)">
</g>
<g
   id="g34"
   transform="translate(0,-85.335)">
</g>
<g
   id="g36"
   transform="translate(0,-85.335)">
</g>
<g
   id="g38"
   transform="translate(0,-85.335)">
</g>
<g
   id="g40"
   transform="translate(0,-85.335)">
</g>
<g
   id="g42"
   transform="translate(0,-85.335)">
</g>
<g
   id="g44"
   transform="translate(0,-85.335)">
</g>
</svg>