<?xml version="1.0" encoding="UTF-8" standalone="no"?>
<!-- Generator: Adobe Illustrator 19.0.0, SVG Export Plug-In . SVG Version: 6.00 Build 0)  -->

<svg
   xmlns:dc="http://purl.org/dc/elements/1.1/"
   xmlns:cc="http://creativecommons.org/ns#"
   xmlns:rdf="http://www.w3.org/1999/02/22-rdf-syntax-ns#"
   xmlns:svg="http://www.w3.org/2000/svg"
   xmlns="http://www.w3.org/2000/svg"
   xmlns:sodipodi="http://sodipodi.sourceforge.net/DTD/sodipodi-0.dtd"
   xmlns:inkscape="http://www.inkscape.org/namespaces/inkscape"
   version="1.1"
   id="Capa_1"
   x="0px"
   y="0px"
   viewBox="0 0 512 341.34"
   xml:space="preserve"
   sodipodi:docname="AUS.svg"
   width="512"
   height="341.34"
   inkscape:version="0.92.4 5da689c313, 2019-01-14"><metadata
   id="metadata79"><rdf:RDF><cc:Work
       rdf:about=""><dc:format>image/svg+xml</dc:format><dc:type
         rdf:resource="http://purl.org/dc/dcmitype/StillImage" /><dc:title></dc:title></cc:Work></rdf:RDF></metadata><defs
   id="defs77" /><sodipodi:namedview
   pagecolor="#ffffff"
   bordercolor="#666666"
   borderopacity="1"
   objecttolerance="10"
   gridtolerance="10"
   guidetolerance="10"
   inkscape:pageopacity="0"
   inkscape:pageshadow="2"
   inkscape:window-width="736"
   inkscape:window-height="480"
   id="namedview75"
   showgrid="false"
   fit-margin-top="0"
   fit-margin-left="0"
   fit-margin-right="0"
   fit-margin-bottom="0"
   inkscape:zoom="0.4609375"
   inkscape:cx="256"
   inkscape:cy="170.67001"
   inkscape:window-x="0"
   inkscape:window-y="0"
   inkscape:window-maximized="0"
   inkscape:current-layer="Capa_1" />
<rect
   y="0.003000183"
   style="fill:#0052b4"
   width="512"
   height="341.33701"
   id="rect2"
   x="0" />
<g
   id="g20"
   transform="translate(0,-85.33)">
	<path
   style="fill:#f0f0f0"
   d="m 223.397,255.996 c 0.273,-0.304 0.543,-0.609 0.813,-0.916 -0.27,0.308 -0.546,0.61 -0.82,0.916 z"
   id="path4"
   inkscape:connector-curvature="0" />
	<polygon
   style="fill:#f0f0f0"
   points="224.922,315.118 213.839,337.971 233.739,353.752 208.963,359.337 209.032,384.735 189.217,368.845 169.403,384.735 169.472,359.337 144.696,353.752 164.596,337.971 153.513,315.118 178.259,320.836 189.217,297.923 200.175,320.836 "
   id="polygon6" />
	<polygon
   style="fill:#f0f0f0"
   points="404.106,334.588 398.82,345.488 408.312,353.016 396.494,355.679 396.526,367.793 387.076,360.215 377.626,367.793 377.658,355.679 365.841,353.016 375.332,345.488 370.047,334.588 381.85,337.316 387.076,326.387 392.303,337.316 "
   id="polygon8" />
	<polygon
   style="fill:#f0f0f0"
   points="355.483,218.649 350.197,229.55 359.688,237.078 347.871,239.741 347.903,251.856 338.453,244.276 329.002,251.856 329.035,239.741 317.217,237.078 326.708,229.55 321.424,218.649 333.226,221.378 338.453,210.448 343.68,221.378 "
   id="polygon10" />
	<polygon
   style="fill:#f0f0f0"
   points="404.106,152.398 398.82,163.3 408.311,170.827 396.494,173.491 396.526,185.605 387.076,178.025 377.626,185.605 377.658,173.491 365.841,170.827 375.332,163.3 370.047,152.398 381.85,155.128 387.076,144.198 392.303,155.128 "
   id="polygon12" />
	<polygon
   style="fill:#f0f0f0"
   points="446.576,202.087 441.292,212.987 450.783,220.514 438.965,223.178 438.998,235.292 429.547,227.714 420.097,235.292 420.129,223.178 408.312,220.514 417.803,212.987 412.517,202.087 424.32,204.815 429.547,193.886 434.774,204.815 "
   id="polygon14" />
	<polygon
   style="fill:#f0f0f0"
   points="416.593,264.508 405.83,272.328 409.942,284.98 399.179,277.161 388.414,284.98 392.526,272.328 381.763,264.508 395.067,264.508 399.179,251.856 403.289,264.508 "
   id="polygon16" />
	<polygon
   style="fill:#f0f0f0"
   points="210.833,140.985 256,140.985 256,200.344 196.897,200.344 256,233.179 256,255.996 229.32,255.996 155.826,215.17 155.826,255.996 100.174,255.996 100.174,207.423 12.744,255.996 0,255.996 0,225.443 45.167,200.344 0,200.344 0,140.985 59.103,140.985 0,108.139 0,85.333 26.68,85.333 100.174,126.16 100.174,85.333 155.826,85.333 155.826,133.906 243.256,85.333 256,85.333 256,115.886 "
   id="polygon18" />
</g>
<polygon
   style="fill:#d80027"
   points="112,154.662 0,154.662 0,186.662 112,186.662 112,255.996 144,255.996 144,186.662 256,186.662 256,154.662 144,154.662 144,85.33 112,85.33 "
   id="polygon22"
   transform="translate(0,-85.33)" />
<polygon
   style="fill:#0052b4"
   points="256,240.259 184.153,200.344 155.826,200.344 256,255.996 "
   id="polygon24"
   transform="translate(0,-85.33)" />
<polygon
   style="fill:#f0f0f0"
   points="256,240.259 184.153,200.344 155.826,200.344 256,255.996 "
   id="polygon26"
   transform="translate(0,-85.33)" />
<g
   id="g32"
   transform="translate(0,-85.33)">
	<polygon
   style="fill:#d80027"
   points="256,240.259 184.153,200.344 155.826,200.344 256,255.996 "
   id="polygon28" />
	<polygon
   style="fill:#d80027"
   points="0,255.996 0,255.996 100.174,200.344 71.846,200.344 0,240.259 "
   id="polygon30" />
</g>
<polygon
   style="fill:#0052b4"
   points="0,101.067 71.847,140.982 100.174,140.982 0,85.33 "
   id="polygon34"
   transform="translate(0,-85.33)" />
<polygon
   style="fill:#f0f0f0"
   points="0,101.067 71.847,140.982 100.174,140.982 0,85.33 "
   id="polygon36"
   transform="translate(0,-85.33)" />
<g
   id="g42"
   transform="translate(0,-85.33)">
	<polygon
   style="fill:#d80027"
   points="0,101.067 71.847,140.982 100.174,140.982 0,85.33 "
   id="polygon38" />
	<polygon
   style="fill:#d80027"
   points="256,85.33 256,85.33 155.826,140.982 184.154,140.982 256,101.067 "
   id="polygon40" />
</g>
<g
   id="g44"
   transform="translate(0,-85.33)">
</g>
<g
   id="g46"
   transform="translate(0,-85.33)">
</g>
<g
   id="g48"
   transform="translate(0,-85.33)">
</g>
<g
   id="g50"
   transform="translate(0,-85.33)">
</g>
<g
   id="g52"
   transform="translate(0,-85.33)">
</g>
<g
   id="g54"
   transform="translate(0,-85.33)">
</g>
<g
   id="g56"
   transform="translate(0,-85.33)">
</g>
<g
   id="g58"
   transform="translate(0,-85.33)">
</g>
<g
   id="g60"
   transform="translate(0,-85.33)">
</g>
<g
   id="g62"
   transform="translate(0,-85.33)">
</g>
<g
   id="g64"
   transform="translate(0,-85.33)">
</g>
<g
   id="g66"
   transform="translate(0,-85.33)">
</g>
<g
   id="g68"
   transform="translate(0,-85.33)">
</g>
<g
   id="g70"
   transform="translate(0,-85.33)">
</g>
<g
   id="g72"
   transform="translate(0,-85.33)">
</g>
</svg>