<?xml version="1.0" encoding="UTF-8" standalone="no"?>
<!-- Generator: Adobe Illustrator 19.0.0, SVG Export Plug-In . SVG Version: 6.00 Build 0)  -->

<svg
   xmlns:dc="http://purl.org/dc/elements/1.1/"
   xmlns:cc="http://creativecommons.org/ns#"
   xmlns:rdf="http://www.w3.org/1999/02/22-rdf-syntax-ns#"
   xmlns:svg="http://www.w3.org/2000/svg"
   xmlns="http://www.w3.org/2000/svg"
   xmlns:sodipodi="http://sodipodi.sourceforge.net/DTD/sodipodi-0.dtd"
   xmlns:inkscape="http://www.inkscape.org/namespaces/inkscape"
   version="1.1"
   id="Capa_1"
   x="0px"
   y="0px"
   viewBox="0 0 512 341.32599"
   xml:space="preserve"
   sodipodi:docname="AZE.svg"
   width="512"
   height="341.32599"
   inkscape:version="0.92.4 5da689c313, 2019-01-14"><metadata
   id="metadata49"><rdf:RDF><cc:Work
       rdf:about=""><dc:format>image/svg+xml</dc:format><dc:type
         rdf:resource="http://purl.org/dc/dcmitype/StillImage" /><dc:title></dc:title></cc:Work></rdf:RDF></metadata><defs
   id="defs47" /><sodipodi:namedview
   pagecolor="#ffffff"
   bordercolor="#666666"
   borderopacity="1"
   objecttolerance="10"
   gridtolerance="10"
   guidetolerance="10"
   inkscape:pageopacity="0"
   inkscape:pageshadow="2"
   inkscape:window-width="736"
   inkscape:window-height="480"
   id="namedview45"
   showgrid="false"
   fit-margin-top="0"
   fit-margin-left="0"
   fit-margin-right="0"
   fit-margin-bottom="0"
   inkscape:zoom="0.4609375"
   inkscape:cx="256"
   inkscape:cy="170.663"
   inkscape:window-x="0"
   inkscape:window-y="0"
   inkscape:window-maximized="0"
   inkscape:current-layer="Capa_1" />
<rect
   y="0"
   style="fill:#d80027"
   width="512"
   height="341.32599"
   id="rect2"
   x="0" />
<rect
   y="0"
   style="fill:#338af3"
   width="512"
   height="113.775"
   id="rect4"
   x="0" />
<rect
   y="227.55099"
   style="fill:#6da544"
   width="512"
   height="113.775"
   id="rect6"
   x="0" />
<g
   id="g12"
   transform="translate(0,-85.336998)">
	<path
   style="fill:#f0f0f0"
   d="m 259.2,297.6 c -22.975,0 -41.6,-18.625 -41.6,-41.6 0,-22.975 18.625,-41.6 41.6,-41.6 7.164,0 13.904,1.811 19.789,5 -9.232,-9.027 -21.857,-14.6 -35.789,-14.6 -28.277,0 -51.2,22.923 -51.2,51.2 0,28.277 22.923,51.2 51.2,51.2 13.932,0 26.557,-5.573 35.789,-14.6 -5.885,3.189 -12.625,5 -19.789,5 z"
   id="path8"
   inkscape:connector-curvature="0" />
	<polygon
   style="fill:#f0f0f0"
   points="311.565,235.635 304.503,250.489 320,256 304.503,261.511 311.565,276.365 296.71,269.303 291.2,284.8 285.69,269.303 270.835,276.365 277.897,261.511 262.4,256 277.897,250.489 270.835,235.635 285.69,242.697 291.2,227.2 296.71,242.697 "
   id="polygon10" />
</g>
<g
   id="g14"
   transform="translate(0,-85.336998)">
</g>
<g
   id="g16"
   transform="translate(0,-85.336998)">
</g>
<g
   id="g18"
   transform="translate(0,-85.336998)">
</g>
<g
   id="g20"
   transform="translate(0,-85.336998)">
</g>
<g
   id="g22"
   transform="translate(0,-85.336998)">
</g>
<g
   id="g24"
   transform="translate(0,-85.336998)">
</g>
<g
   id="g26"
   transform="translate(0,-85.336998)">
</g>
<g
   id="g28"
   transform="translate(0,-85.336998)">
</g>
<g
   id="g30"
   transform="translate(0,-85.336998)">
</g>
<g
   id="g32"
   transform="translate(0,-85.336998)">
</g>
<g
   id="g34"
   transform="translate(0,-85.336998)">
</g>
<g
   id="g36"
   transform="translate(0,-85.336998)">
</g>
<g
   id="g38"
   transform="translate(0,-85.336998)">
</g>
<g
   id="g40"
   transform="translate(0,-85.336998)">
</g>
<g
   id="g42"
   transform="translate(0,-85.336998)">
</g>
</svg>