<?xml version="1.0" encoding="UTF-8" standalone="no"?>
<!-- Generator: Adobe Illustrator 19.0.0, SVG Export Plug-In . SVG Version: 6.00 Build 0)  -->

<svg
   xmlns:dc="http://purl.org/dc/elements/1.1/"
   xmlns:cc="http://creativecommons.org/ns#"
   xmlns:rdf="http://www.w3.org/1999/02/22-rdf-syntax-ns#"
   xmlns:svg="http://www.w3.org/2000/svg"
   xmlns="http://www.w3.org/2000/svg"
   xmlns:sodipodi="http://sodipodi.sourceforge.net/DTD/sodipodi-0.dtd"
   xmlns:inkscape="http://www.inkscape.org/namespaces/inkscape"
   version="1.1"
   id="Capa_1"
   x="0px"
   y="0px"
   viewBox="0 0 512 341.33701"
   xml:space="preserve"
   sodipodi:docname="BDI.svg"
   width="512"
   height="341.33701"
   inkscape:version="0.92.4 5da689c313, 2019-01-14"><metadata
   id="metadata61"><rdf:RDF><cc:Work
       rdf:about=""><dc:format>image/svg+xml</dc:format><dc:type
         rdf:resource="http://purl.org/dc/dcmitype/StillImage" /><dc:title></dc:title></cc:Work></rdf:RDF></metadata><defs
   id="defs59" /><sodipodi:namedview
   pagecolor="#ffffff"
   bordercolor="#666666"
   borderopacity="1"
   objecttolerance="10"
   gridtolerance="10"
   guidetolerance="10"
   inkscape:pageopacity="0"
   inkscape:pageshadow="2"
   inkscape:window-width="736"
   inkscape:window-height="480"
   id="namedview57"
   showgrid="false"
   fit-margin-top="0"
   fit-margin-left="0"
   fit-margin-right="0"
   fit-margin-bottom="0"
   inkscape:zoom="0.4609375"
   inkscape:cx="256"
   inkscape:cy="170.668"
   inkscape:window-x="0"
   inkscape:window-y="0"
   inkscape:window-maximized="0"
   inkscape:current-layer="Capa_1" />
<rect
   y="0.0059979861"
   style="fill:#d80027"
   width="512"
   height="341.32599"
   id="rect2"
   x="0" />
<g
   id="g8"
   transform="translate(0,-85.331)">
	<polygon
   style="fill:#6da544"
   points="0,112.089 215.864,256.006 0,399.911 "
   id="polygon4" />
	<polygon
   style="fill:#6da544"
   points="296.136,256.006 512,112.089 512,399.911 "
   id="polygon6" />
</g>
<polygon
   style="fill:#0052b4"
   points="512,399.911 512,426.668 471.875,426.668 256,282.752 40.125,426.668 0,426.668 0,399.911 215.864,256.006 0,112.089 0,85.331 40.125,85.331 256,229.248 471.875,85.331 512,85.331 512,112.089 296.136,256.006 "
   id="polygon10"
   transform="translate(0,-85.331)" />
<g
   id="g16"
   transform="translate(0,-85.331)">
	<polygon
   style="fill:#f0f0f0"
   points="512,399.911 512,426.668 471.875,426.668 256,282.752 40.125,426.668 0,426.668 0,399.911 215.864,256.006 0,112.089 0,85.331 40.125,85.331 256,229.248 471.875,85.331 512,85.331 512,112.089 296.136,256.006 "
   id="polygon12" />
	<circle
   style="fill:#f0f0f0"
   cx="256"
   cy="256"
   r="74.207001"
   id="circle14" />
</g>
<g
   id="g24"
   transform="translate(0,-85.331)">
	<polygon
   style="fill:#d80027"
   points="275.278,215.188 268.852,226.318 275.278,237.449 262.426,237.449 256,248.579 249.574,237.449 236.722,237.449 243.148,226.318 236.722,215.188 249.574,215.188 256,204.058 262.426,215.188 "
   id="polygon18" />
	<polygon
   style="fill:#d80027"
   points="242.615,267.13 236.189,278.261 242.615,289.391 229.762,289.391 223.337,300.522 216.91,289.391 204.058,289.391 210.484,278.261 204.058,267.13 216.91,267.13 223.337,256 229.762,267.13 "
   id="polygon20" />
	<polygon
   style="fill:#d80027"
   points="307.942,267.13 301.516,278.261 307.942,289.391 295.09,289.391 288.663,300.522 282.238,289.391 269.385,289.391 275.811,278.261 269.385,267.13 282.238,267.13 288.663,256 295.09,267.13 "
   id="polygon22" />
</g>
<g
   id="g26"
   transform="translate(0,-85.331)">
</g>
<g
   id="g28"
   transform="translate(0,-85.331)">
</g>
<g
   id="g30"
   transform="translate(0,-85.331)">
</g>
<g
   id="g32"
   transform="translate(0,-85.331)">
</g>
<g
   id="g34"
   transform="translate(0,-85.331)">
</g>
<g
   id="g36"
   transform="translate(0,-85.331)">
</g>
<g
   id="g38"
   transform="translate(0,-85.331)">
</g>
<g
   id="g40"
   transform="translate(0,-85.331)">
</g>
<g
   id="g42"
   transform="translate(0,-85.331)">
</g>
<g
   id="g44"
   transform="translate(0,-85.331)">
</g>
<g
   id="g46"
   transform="translate(0,-85.331)">
</g>
<g
   id="g48"
   transform="translate(0,-85.331)">
</g>
<g
   id="g50"
   transform="translate(0,-85.331)">
</g>
<g
   id="g52"
   transform="translate(0,-85.331)">
</g>
<g
   id="g54"
   transform="translate(0,-85.331)">
</g>
</svg>