<?xml version="1.0" encoding="UTF-8" standalone="no"?>
<!-- Generator: Adobe Illustrator 19.0.0, SVG Export Plug-In . SVG Version: 6.00 Build 0)  -->

<svg
   xmlns:dc="http://purl.org/dc/elements/1.1/"
   xmlns:cc="http://creativecommons.org/ns#"
   xmlns:rdf="http://www.w3.org/1999/02/22-rdf-syntax-ns#"
   xmlns:svg="http://www.w3.org/2000/svg"
   xmlns="http://www.w3.org/2000/svg"
   xmlns:sodipodi="http://sodipodi.sourceforge.net/DTD/sodipodi-0.dtd"
   xmlns:inkscape="http://www.inkscape.org/namespaces/inkscape"
   version="1.1"
   id="Capa_1"
   x="0px"
   y="0px"
   viewBox="0 0 512 341.34201"
   xml:space="preserve"
   sodipodi:docname="BIH.svg"
   width="512"
   height="341.34201"
   inkscape:version="0.92.4 5da689c313, 2019-01-14"><metadata
   id="metadata67"><rdf:RDF><cc:Work
       rdf:about=""><dc:format>image/svg+xml</dc:format><dc:type
         rdf:resource="http://purl.org/dc/dcmitype/StillImage" /><dc:title></dc:title></cc:Work></rdf:RDF></metadata><defs
   id="defs65" /><sodipodi:namedview
   pagecolor="#ffffff"
   bordercolor="#666666"
   borderopacity="1"
   objecttolerance="10"
   gridtolerance="10"
   guidetolerance="10"
   inkscape:pageopacity="0"
   inkscape:pageshadow="2"
   inkscape:window-width="736"
   inkscape:window-height="480"
   id="namedview63"
   showgrid="false"
   fit-margin-top="0"
   fit-margin-left="0"
   fit-margin-right="0"
   fit-margin-bottom="0"
   inkscape:zoom="0.4609375"
   inkscape:cx="256"
   inkscape:cy="170.67101"
   inkscape:window-x="0"
   inkscape:window-y="0"
   inkscape:window-maximized="0"
   inkscape:current-layer="Capa_1" />
<rect
   y="0.0049996339"
   style="fill:#0052b4"
   width="512"
   height="341.33701"
   id="rect2"
   x="0" />
<polyline
   style="fill:#ffda44"
   points="99.905,85.329 441.238,85.329 441.238,426.663 "
   id="polyline4"
   transform="translate(0,-85.329)" />
<g
   id="g30"
   transform="translate(0,-85.329)">
	<polygon
   style="fill:#f0f0f0"
   points="66.271,100.632 61.292,85.33 41.525,85.33 36.561,100.645 51.404,89.838 "
   id="polygon6" />
	<polygon
   style="fill:#f0f0f0"
   points="76.977,103.632 58.612,103.644 73.479,114.44 67.818,131.901 82.661,121.095 97.527,131.89 91.843,114.416 106.697,103.621 88.332,103.632 82.649,86.16 "
   id="polygon8" />
	<polygon
   style="fill:#f0f0f0"
   points="108.233,134.89 89.868,134.901 104.735,145.696 99.074,163.158 113.918,152.351 128.784,163.147 123.099,145.673 137.955,134.879 119.59,134.89 113.906,117.416 "
   id="polygon10" />
	<polygon
   style="fill:#f0f0f0"
   points="139.49,166.146 121.126,166.157 135.992,176.953 130.331,194.414 145.174,183.608 160.04,194.403 154.357,176.929 169.212,166.135 150.846,166.146 145.163,148.673 "
   id="polygon12" />
	<polygon
   style="fill:#f0f0f0"
   points="170.748,197.403 152.382,197.414 167.248,208.209 161.588,225.671 176.431,214.864 191.297,225.66 185.613,208.187 200.468,197.392 182.103,197.403 176.42,179.929 "
   id="polygon14" />
	<polygon
   style="fill:#f0f0f0"
   points="202.004,228.659 183.639,228.671 198.505,239.466 192.845,256.928 207.687,246.122 222.553,256.916 216.87,239.443 231.725,228.648 213.359,228.659 207.676,211.187 "
   id="polygon16" />
	<polygon
   style="fill:#f0f0f0"
   points="233.261,259.916 214.895,259.928 229.762,270.723 224.101,288.185 238.945,277.378 253.811,288.172 248.126,270.7 262.981,259.906 244.616,259.916 238.933,242.443 "
   id="polygon18" />
	<polygon
   style="fill:#f0f0f0"
   points="264.517,291.173 246.152,291.184 261.019,301.98 255.358,319.441 270.201,308.635 285.067,319.43 279.384,301.956 294.237,291.162 275.872,291.173 270.19,273.7 "
   id="polygon20" />
	<polygon
   style="fill:#f0f0f0"
   points="295.773,322.43 277.409,322.441 292.275,333.236 286.614,350.698 301.458,339.891 316.324,350.687 310.64,333.213 325.495,322.419 307.13,322.43 301.447,304.956 "
   id="polygon22" />
	<polygon
   style="fill:#f0f0f0"
   points="327.031,353.686 308.666,353.698 323.532,364.493 317.871,381.955 332.714,371.148 347.58,381.943 341.897,364.471 356.752,353.675 338.386,353.686 332.703,336.214 "
   id="polygon24" />
	<polygon
   style="fill:#f0f0f0"
   points="358.288,384.943 339.922,384.955 354.788,395.749 349.128,413.212 363.971,402.405 378.837,413.2 373.153,395.727 388.008,384.932 369.643,384.943 363.96,367.47 "
   id="polygon26" />
	<polygon
   style="fill:#f0f0f0"
   points="371.179,416.211 385.573,426.664 404.851,426.664 419.265,416.188 400.899,416.199 395.216,398.727 389.544,416.199 "
   id="polygon28" />
</g>
<g
   id="g32"
   transform="translate(0,-85.329)">
</g>
<g
   id="g34"
   transform="translate(0,-85.329)">
</g>
<g
   id="g36"
   transform="translate(0,-85.329)">
</g>
<g
   id="g38"
   transform="translate(0,-85.329)">
</g>
<g
   id="g40"
   transform="translate(0,-85.329)">
</g>
<g
   id="g42"
   transform="translate(0,-85.329)">
</g>
<g
   id="g44"
   transform="translate(0,-85.329)">
</g>
<g
   id="g46"
   transform="translate(0,-85.329)">
</g>
<g
   id="g48"
   transform="translate(0,-85.329)">
</g>
<g
   id="g50"
   transform="translate(0,-85.329)">
</g>
<g
   id="g52"
   transform="translate(0,-85.329)">
</g>
<g
   id="g54"
   transform="translate(0,-85.329)">
</g>
<g
   id="g56"
   transform="translate(0,-85.329)">
</g>
<g
   id="g58"
   transform="translate(0,-85.329)">
</g>
<g
   id="g60"
   transform="translate(0,-85.329)">
</g>
</svg>