<?xml version="1.0" encoding="UTF-8" standalone="no"?>
<!-- Generator: Adobe Illustrator 19.0.0, SVG Export Plug-In . SVG Version: 6.00 Build 0)  -->

<svg
   xmlns:dc="http://purl.org/dc/elements/1.1/"
   xmlns:cc="http://creativecommons.org/ns#"
   xmlns:rdf="http://www.w3.org/1999/02/22-rdf-syntax-ns#"
   xmlns:svg="http://www.w3.org/2000/svg"
   xmlns="http://www.w3.org/2000/svg"
   xmlns:sodipodi="http://sodipodi.sourceforge.net/DTD/sodipodi-0.dtd"
   xmlns:inkscape="http://www.inkscape.org/namespaces/inkscape"
   version="1.1"
   id="Capa_1"
   x="0px"
   y="0px"
   viewBox="0 0 512 340.96399"
   xml:space="preserve"
   sodipodi:docname="BLR.svg"
   width="512"
   height="340.96399"
   inkscape:version="0.92.4 5da689c313, 2019-01-14"><metadata
   id="metadata61"><rdf:RDF><cc:Work
       rdf:about=""><dc:format>image/svg+xml</dc:format><dc:type
         rdf:resource="http://purl.org/dc/dcmitype/StillImage" /><dc:title></dc:title></cc:Work></rdf:RDF></metadata><defs
   id="defs59" /><sodipodi:namedview
   pagecolor="#ffffff"
   bordercolor="#666666"
   borderopacity="1"
   objecttolerance="10"
   gridtolerance="10"
   guidetolerance="10"
   inkscape:pageopacity="0"
   inkscape:pageshadow="2"
   inkscape:window-width="736"
   inkscape:window-height="480"
   id="namedview57"
   showgrid="false"
   fit-margin-top="0"
   fit-margin-left="0"
   fit-margin-right="0"
   fit-margin-bottom="0"
   inkscape:zoom="0.4609375"
   inkscape:cx="256"
   inkscape:cy="170.482"
   inkscape:window-x="0"
   inkscape:window-y="0"
   inkscape:window-maximized="0"
   inkscape:current-layer="Capa_1" />
<rect
   x="0.55599999"
   y="0.0050026244"
   style="fill:#6da544"
   width="511.444"
   height="340.95499"
   id="rect2" />
<polyline
   style="fill:#a2001d"
   points="0,315.298 511.444,315.298 511.444,85.52 511.444,85.52 0,85.52 0,85.52 "
   id="polyline4"
   transform="translate(0,-85.518)" />
<polygon
   style="fill:#f0f0f0"
   points="100.065,85.52 0,85.52 0,426.482 511.444,426.482 511.444,426.482 100.065,426.482 100.065,315.298 100.065,300.474 "
   id="polygon6"
   transform="translate(0,-85.518)" />
<g
   id="g24"
   transform="translate(0,-85.518)">
	<polygon
   style="fill:#a2001d"
   points="68.564,176.937 87.093,210.028 68.564,243.647 50.033,210.028 "
   id="polygon8" />
	<polygon
   style="fill:#a2001d"
   points="31.502,176.937 50.033,210.028 31.502,243.647 12.972,210.028 "
   id="polygon10" />
	<polygon
   style="fill:#a2001d"
   points="68.564,268.354 87.093,301.446 68.564,335.064 50.033,301.446 "
   id="polygon12" />
	<polygon
   style="fill:#a2001d"
   points="31.502,268.354 50.033,301.446 31.502,335.064 12.972,301.446 "
   id="polygon14" />
	<polygon
   style="fill:#a2001d"
   points="68.564,359.771 87.093,392.863 68.564,426.482 50.033,392.863 "
   id="polygon16" />
	<polygon
   style="fill:#a2001d"
   points="31.502,359.771 50.033,392.863 31.502,426.482 12.972,392.863 "
   id="polygon18" />
	<polygon
   style="fill:#a2001d"
   points="68.564,85.518 87.093,118.611 68.564,152.23 50.033,118.611 "
   id="polygon20" />
	<polygon
   style="fill:#a2001d"
   points="31.502,85.518 50.033,118.611 31.502,152.23 12.972,118.611 "
   id="polygon22" />
</g>
<g
   id="g26"
   transform="translate(0,-85.518)">
</g>
<g
   id="g28"
   transform="translate(0,-85.518)">
</g>
<g
   id="g30"
   transform="translate(0,-85.518)">
</g>
<g
   id="g32"
   transform="translate(0,-85.518)">
</g>
<g
   id="g34"
   transform="translate(0,-85.518)">
</g>
<g
   id="g36"
   transform="translate(0,-85.518)">
</g>
<g
   id="g38"
   transform="translate(0,-85.518)">
</g>
<g
   id="g40"
   transform="translate(0,-85.518)">
</g>
<g
   id="g42"
   transform="translate(0,-85.518)">
</g>
<g
   id="g44"
   transform="translate(0,-85.518)">
</g>
<g
   id="g46"
   transform="translate(0,-85.518)">
</g>
<g
   id="g48"
   transform="translate(0,-85.518)">
</g>
<g
   id="g50"
   transform="translate(0,-85.518)">
</g>
<g
   id="g52"
   transform="translate(0,-85.518)">
</g>
<g
   id="g54"
   transform="translate(0,-85.518)">
</g>
</svg>