<?xml version="1.0" encoding="UTF-8" standalone="no"?>
<!-- Generator: Adobe Illustrator 19.0.0, SVG Export Plug-In . SVG Version: 6.00 Build 0)  -->

<svg
   xmlns:dc="http://purl.org/dc/elements/1.1/"
   xmlns:cc="http://creativecommons.org/ns#"
   xmlns:rdf="http://www.w3.org/1999/02/22-rdf-syntax-ns#"
   xmlns:svg="http://www.w3.org/2000/svg"
   xmlns="http://www.w3.org/2000/svg"
   xmlns:sodipodi="http://sodipodi.sourceforge.net/DTD/sodipodi-0.dtd"
   xmlns:inkscape="http://www.inkscape.org/namespaces/inkscape"
   version="1.1"
   id="Capa_1"
   x="0px"
   y="0px"
   viewBox="0 0 512 341.34"
   xml:space="preserve"
   sodipodi:docname="BTN.svg"
   width="512"
   height="341.34"
   inkscape:version="0.92.4 5da689c313, 2019-01-14"><metadata
   id="metadata43"><rdf:RDF><cc:Work
       rdf:about=""><dc:format>image/svg+xml</dc:format><dc:type
         rdf:resource="http://purl.org/dc/dcmitype/StillImage" /><dc:title></dc:title></cc:Work></rdf:RDF></metadata><defs
   id="defs41" /><sodipodi:namedview
   pagecolor="#ffffff"
   bordercolor="#666666"
   borderopacity="1"
   objecttolerance="10"
   gridtolerance="10"
   guidetolerance="10"
   inkscape:pageopacity="0"
   inkscape:pageshadow="2"
   inkscape:window-width="736"
   inkscape:window-height="480"
   id="namedview39"
   showgrid="false"
   fit-margin-top="0"
   fit-margin-left="0"
   fit-margin-right="0"
   fit-margin-bottom="0"
   inkscape:zoom="0.4609375"
   inkscape:cx="256"
   inkscape:cy="170.67001"
   inkscape:window-x="0"
   inkscape:window-y="0"
   inkscape:window-maximized="0"
   inkscape:current-layer="Capa_1" />
<rect
   y="0.003000183"
   style="fill:#ff9811"
   width="512"
   height="341.33701"
   id="rect2"
   x="0" />
<polyline
   style="fill:#ffda44"
   points="512,85.33 0,85.33 0,426.662 "
   id="polyline4"
   transform="translate(0,-85.33)" />
<path
   style="fill:#f0f0f0"
   d="M 352.546,96.463 V 66.781 h -56.891 l -4.346,4.346 c -15.459,15.459 -12.859,33.494 -10.96,46.662 1.761,12.216 1.972,16.894 -2.57,21.437 -4.542,4.542 -9.223,4.331 -21.437,2.57 -13.167,-1.898 -31.202,-4.499 -46.661,10.959 -15.458,15.459 -12.857,33.493 -10.957,46.66 1.762,12.213 1.973,16.893 -2.568,21.434 -4.542,4.54 -9.223,4.329 -21.434,2.568 -4.762,-0.687 -9.686,-1.397 -14.94,-1.455 l -0.326,29.679 c 3.289,0.037 7.049,0.579 11.029,1.152 4.712,0.68 10.045,1.45 15.663,1.45 5.821,0 11.945,-0.83 17.993,-3.442 v 23.747 h 44.522 v -22.261 h -22.261 v -14.84 h 14.84 V 215.186 H 229.38 c 0.563,-7.201 -0.426,-14.097 -1.28,-20.009 -1.762,-12.213 -1.973,-16.893 2.568,-21.434 4.542,-4.542 9.222,-4.332 21.437,-2.57 9.594,1.384 21.774,3.131 33.658,-1.999 v 23.751 h 44.522 v -22.261 h -22.261 v -14.84 h 14.84 v -22.261 h -11.861 c 0.563,-7.202 -0.425,-14.097 -1.278,-20.011 -1.23,-8.534 -1.704,-13.39 -0.329,-17.091 h 43.15 z"
   id="path6"
   inkscape:connector-curvature="0" />
<g
   id="g8"
   transform="translate(0,-85.33)">
</g>
<g
   id="g10"
   transform="translate(0,-85.33)">
</g>
<g
   id="g12"
   transform="translate(0,-85.33)">
</g>
<g
   id="g14"
   transform="translate(0,-85.33)">
</g>
<g
   id="g16"
   transform="translate(0,-85.33)">
</g>
<g
   id="g18"
   transform="translate(0,-85.33)">
</g>
<g
   id="g20"
   transform="translate(0,-85.33)">
</g>
<g
   id="g22"
   transform="translate(0,-85.33)">
</g>
<g
   id="g24"
   transform="translate(0,-85.33)">
</g>
<g
   id="g26"
   transform="translate(0,-85.33)">
</g>
<g
   id="g28"
   transform="translate(0,-85.33)">
</g>
<g
   id="g30"
   transform="translate(0,-85.33)">
</g>
<g
   id="g32"
   transform="translate(0,-85.33)">
</g>
<g
   id="g34"
   transform="translate(0,-85.33)">
</g>
<g
   id="g36"
   transform="translate(0,-85.33)">
</g>
</svg>