<?xml version="1.0" encoding="UTF-8" standalone="no"?>
<!-- Generator: Adobe Illustrator 19.0.0, SVG Export Plug-In . SVG Version: 6.00 Build 0)  -->

<svg
   xmlns:dc="http://purl.org/dc/elements/1.1/"
   xmlns:cc="http://creativecommons.org/ns#"
   xmlns:rdf="http://www.w3.org/1999/02/22-rdf-syntax-ns#"
   xmlns:svg="http://www.w3.org/2000/svg"
   xmlns="http://www.w3.org/2000/svg"
   xmlns:sodipodi="http://sodipodi.sourceforge.net/DTD/sodipodi-0.dtd"
   xmlns:inkscape="http://www.inkscape.org/namespaces/inkscape"
   version="1.1"
   id="Capa_1"
   x="0px"
   y="0px"
   viewBox="0 0 512 341.34"
   xml:space="preserve"
   sodipodi:docname="CAF.svg"
   width="512"
   height="341.34"
   inkscape:version="0.92.4 5da689c313, 2019-01-14"><metadata
   id="metadata59"><rdf:RDF><cc:Work
       rdf:about=""><dc:format>image/svg+xml</dc:format><dc:type
         rdf:resource="http://purl.org/dc/dcmitype/StillImage" /><dc:title></dc:title></cc:Work></rdf:RDF></metadata><defs
   id="defs57" /><sodipodi:namedview
   pagecolor="#ffffff"
   bordercolor="#666666"
   borderopacity="1"
   objecttolerance="10"
   gridtolerance="10"
   guidetolerance="10"
   inkscape:pageopacity="0"
   inkscape:pageshadow="2"
   inkscape:window-width="736"
   inkscape:window-height="480"
   id="namedview55"
   showgrid="false"
   fit-margin-top="0"
   fit-margin-left="0"
   fit-margin-right="0"
   fit-margin-bottom="0"
   inkscape:zoom="0.4609375"
   inkscape:cx="256"
   inkscape:cy="170.67001"
   inkscape:window-x="0"
   inkscape:window-y="0"
   inkscape:window-maximized="0"
   inkscape:current-layer="Capa_1" />
<rect
   y="0.003000183"
   style="fill:#d80027"
   width="512"
   height="341.33701"
   id="rect2"
   x="0" />
<g
   id="g8"
   transform="translate(0,-85.33)">
	<rect
   y="255.996"
   style="fill:#6da544"
   width="211.478"
   height="85.336998"
   id="rect4"
   x="0" />
	<rect
   x="300.522"
   y="255.996"
   style="fill:#6da544"
   width="211.478"
   height="85.336998"
   id="rect6" />
</g>
<polygon
   style="fill:#0052b4"
   points="0,170.662 211.478,170.662 211.478,85.333 300.522,85.333 300.522,170.662 512,170.662 512,85.333 512,85.33 0,85.33 0,85.333 "
   id="polygon10"
   transform="translate(0,-85.33)" />
<g
   id="g16"
   transform="translate(0,-85.33)">
	<rect
   x="300.522"
   y="170.659"
   style="fill:#f0f0f0"
   width="211.478"
   height="85.336998"
   id="rect12" />
	<rect
   y="170.659"
   style="fill:#f0f0f0"
   width="211.478"
   height="85.336998"
   id="rect14"
   x="0" />
</g>
<g
   id="g22"
   transform="translate(0,-85.33)">
	<polygon
   style="fill:#ffda44"
   points="211.478,341.33 0,341.33 0,426.659 0,426.662 512,426.662 512,426.659 512,341.33 300.522,341.33 300.522,426.659 211.478,426.659 "
   id="polygon18" />
	<polygon
   style="fill:#ffda44"
   points="139.184,125.472 127.13,134.231 131.734,148.402 119.678,139.644 107.624,148.402 112.229,134.231 100.174,125.472 115.074,125.472 119.678,111.3 124.282,125.472 "
   id="polygon20" />
</g>
<g
   id="g24"
   transform="translate(0,-85.33)">
</g>
<g
   id="g26"
   transform="translate(0,-85.33)">
</g>
<g
   id="g28"
   transform="translate(0,-85.33)">
</g>
<g
   id="g30"
   transform="translate(0,-85.33)">
</g>
<g
   id="g32"
   transform="translate(0,-85.33)">
</g>
<g
   id="g34"
   transform="translate(0,-85.33)">
</g>
<g
   id="g36"
   transform="translate(0,-85.33)">
</g>
<g
   id="g38"
   transform="translate(0,-85.33)">
</g>
<g
   id="g40"
   transform="translate(0,-85.33)">
</g>
<g
   id="g42"
   transform="translate(0,-85.33)">
</g>
<g
   id="g44"
   transform="translate(0,-85.33)">
</g>
<g
   id="g46"
   transform="translate(0,-85.33)">
</g>
<g
   id="g48"
   transform="translate(0,-85.33)">
</g>
<g
   id="g50"
   transform="translate(0,-85.33)">
</g>
<g
   id="g52"
   transform="translate(0,-85.33)">
</g>
</svg>