<?xml version="1.0" encoding="UTF-8" standalone="no"?>
<!-- Generator: Adobe Illustrator 19.0.0, SVG Export Plug-In . SVG Version: 6.00 Build 0)  -->

<svg
   xmlns:dc="http://purl.org/dc/elements/1.1/"
   xmlns:cc="http://creativecommons.org/ns#"
   xmlns:rdf="http://www.w3.org/1999/02/22-rdf-syntax-ns#"
   xmlns:svg="http://www.w3.org/2000/svg"
   xmlns="http://www.w3.org/2000/svg"
   xmlns:sodipodi="http://sodipodi.sourceforge.net/DTD/sodipodi-0.dtd"
   xmlns:inkscape="http://www.inkscape.org/namespaces/inkscape"
   version="1.1"
   id="Capa_1"
   x="0px"
   y="0px"
   viewBox="0 0 512 341.33701"
   xml:space="preserve"
   sodipodi:docname="CHN.svg"
   width="512"
   height="341.33701"
   inkscape:version="0.92.4 5da689c313, 2019-01-14"><metadata
   id="metadata51"><rdf:RDF><cc:Work
       rdf:about=""><dc:format>image/svg+xml</dc:format><dc:type
         rdf:resource="http://purl.org/dc/dcmitype/StillImage" /><dc:title></dc:title></cc:Work></rdf:RDF></metadata><defs
   id="defs49" /><sodipodi:namedview
   pagecolor="#ffffff"
   bordercolor="#666666"
   borderopacity="1"
   objecttolerance="10"
   gridtolerance="10"
   guidetolerance="10"
   inkscape:pageopacity="0"
   inkscape:pageshadow="2"
   inkscape:window-width="736"
   inkscape:window-height="480"
   id="namedview47"
   showgrid="false"
   fit-margin-top="0"
   fit-margin-left="0"
   fit-margin-right="0"
   fit-margin-bottom="0"
   inkscape:zoom="0.4609375"
   inkscape:cx="256"
   inkscape:cy="170.66801"
   inkscape:window-x="0"
   inkscape:window-y="0"
   inkscape:window-maximized="0"
   inkscape:current-layer="Capa_1" />
<rect
   y="0"
   style="fill:#d80027"
   width="512"
   height="341.33701"
   id="rect2"
   x="0" />
<g
   id="g14"
   transform="translate(0,-85.331001)">
	<polygon
   style="fill:#ffda44"
   points="241.008,234.674 202.637,262.552 217.294,307.661 178.923,279.782 140.552,307.661 155.208,262.552 116.837,234.674 164.266,234.674 178.923,189.567 193.579,234.674 "
   id="polygon4" />
	<polygon
   style="fill:#ffda44"
   points="242.522,339.592 248.017,322.678 233.628,312.223 251.414,312.223 256.91,295.307 262.408,312.223 280.193,312.223 265.804,322.677 271.3,339.593 256.91,329.138 "
   id="polygon6" />
	<polygon
   style="fill:#ffda44"
   points="285.556,304.841 280.06,287.928 262.273,287.927 276.664,277.472 271.166,260.557 285.556,271.01 299.945,260.557 294.449,277.472 308.837,287.927 291.052,287.927 "
   id="polygon8" />
	<polygon
   style="fill:#ffda44"
   points="299.944,251.432 285.556,240.979 271.166,251.434 276.664,234.517 262.273,224.065 280.061,224.063 285.556,207.147 291.052,224.063 308.837,224.063 294.449,234.518 "
   id="polygon10" />
	<polygon
   style="fill:#ffda44"
   points="280.193,199.766 262.408,199.767 256.91,216.684 251.414,199.766 233.629,199.768 248.018,189.312 242.522,172.396 256.91,182.851 271.3,172.397 265.805,189.313 "
   id="polygon12" />
</g>
<g
   id="g16"
   transform="translate(0,-85.331001)">
</g>
<g
   id="g18"
   transform="translate(0,-85.331001)">
</g>
<g
   id="g20"
   transform="translate(0,-85.331001)">
</g>
<g
   id="g22"
   transform="translate(0,-85.331001)">
</g>
<g
   id="g24"
   transform="translate(0,-85.331001)">
</g>
<g
   id="g26"
   transform="translate(0,-85.331001)">
</g>
<g
   id="g28"
   transform="translate(0,-85.331001)">
</g>
<g
   id="g30"
   transform="translate(0,-85.331001)">
</g>
<g
   id="g32"
   transform="translate(0,-85.331001)">
</g>
<g
   id="g34"
   transform="translate(0,-85.331001)">
</g>
<g
   id="g36"
   transform="translate(0,-85.331001)">
</g>
<g
   id="g38"
   transform="translate(0,-85.331001)">
</g>
<g
   id="g40"
   transform="translate(0,-85.331001)">
</g>
<g
   id="g42"
   transform="translate(0,-85.331001)">
</g>
<g
   id="g44"
   transform="translate(0,-85.331001)">
</g>
</svg>