<?xml version="1.0" encoding="UTF-8" standalone="no"?>
<!-- Generator: Adobe Illustrator 19.0.0, SVG Export Plug-In . SVG Version: 6.00 Build 0)  -->

<svg
   xmlns:dc="http://purl.org/dc/elements/1.1/"
   xmlns:cc="http://creativecommons.org/ns#"
   xmlns:rdf="http://www.w3.org/1999/02/22-rdf-syntax-ns#"
   xmlns:svg="http://www.w3.org/2000/svg"
   xmlns="http://www.w3.org/2000/svg"
   xmlns:sodipodi="http://sodipodi.sourceforge.net/DTD/sodipodi-0.dtd"
   xmlns:inkscape="http://www.inkscape.org/namespaces/inkscape"
   version="1.1"
   id="Capa_1"
   x="0px"
   y="0px"
   viewBox="0 0 512 341.33701"
   xml:space="preserve"
   sodipodi:docname="COM.svg"
   width="512"
   height="341.33701"
   inkscape:version="0.92.4 5da689c313, 2019-01-14"><metadata
   id="metadata59"><rdf:RDF><cc:Work
       rdf:about=""><dc:format>image/svg+xml</dc:format><dc:type
         rdf:resource="http://purl.org/dc/dcmitype/StillImage" /><dc:title></dc:title></cc:Work></rdf:RDF></metadata><defs
   id="defs57" /><sodipodi:namedview
   pagecolor="#ffffff"
   bordercolor="#666666"
   borderopacity="1"
   objecttolerance="10"
   gridtolerance="10"
   guidetolerance="10"
   inkscape:pageopacity="0"
   inkscape:pageshadow="2"
   inkscape:window-width="736"
   inkscape:window-height="480"
   id="namedview55"
   showgrid="false"
   fit-margin-top="0"
   fit-margin-left="0"
   fit-margin-right="0"
   fit-margin-bottom="0"
   inkscape:zoom="0.4609375"
   inkscape:cx="256"
   inkscape:cy="170.668"
   inkscape:window-x="0"
   inkscape:window-y="0"
   inkscape:window-maximized="0"
   inkscape:current-layer="Capa_1" />
<rect
   y="0.0059979861"
   style="fill:#0052b4"
   width="512"
   height="341.32599"
   id="rect2"
   x="0" />
<rect
   y="0.0059979861"
   style="fill:#ffda44"
   width="512"
   height="85.336998"
   id="rect4"
   x="0" />
<rect
   y="85.331993"
   style="fill:#f0f0f0"
   width="512"
   height="85.336998"
   id="rect6"
   x="0" />
<rect
   y="170.66901"
   style="fill:#d80027"
   width="512"
   height="85.336998"
   id="rect8"
   x="0" />
<polygon
   style="fill:#6da544"
   points="0,85.331 256,256.006 0,426.668 "
   id="polygon10"
   transform="translate(0,-85.331)" />
<g
   id="g22"
   transform="translate(0,-85.331)">
	<path
   style="fill:#f0f0f0"
   d="m 68.638,256 c 0,-24.865 17.476,-45.638 40.812,-50.734 -3.587,-0.784 -7.308,-1.208 -11.13,-1.208 -28.688,0 -51.942,23.255 -51.942,51.942 0,28.687 23.255,51.942 51.942,51.942 3.822,0 7.543,-0.425 11.13,-1.208 C 86.113,301.638 68.638,280.865 68.638,256 Z"
   id="path12"
   inkscape:connector-curvature="0" />
	<polygon
   style="fill:#f0f0f0"
   points="120.579,219.981 113.347,225.237 116.109,233.739 108.877,228.484 101.643,233.739 104.407,225.237 97.173,219.981 106.113,219.981 108.877,211.478 111.639,219.981 "
   id="polygon14" />
	<polygon
   style="fill:#f0f0f0"
   points="120.579,242.242 113.347,247.497 116.109,256 108.877,250.745 101.643,256 104.407,247.497 97.173,242.242 106.113,242.242 108.877,233.739 111.639,242.242 "
   id="polygon16" />
	<polygon
   style="fill:#f0f0f0"
   points="120.579,264.503 113.347,269.758 116.109,278.261 108.877,273.006 101.643,278.261 104.407,269.758 97.173,264.503 106.113,264.503 108.877,256 111.639,264.503 "
   id="polygon18" />
	<polygon
   style="fill:#f0f0f0"
   points="120.579,286.763 113.347,292.019 116.109,300.522 108.877,295.267 101.643,300.522 104.407,292.019 97.173,286.763 106.113,286.763 108.877,278.261 111.639,286.763 "
   id="polygon20" />
</g>
<g
   id="g24"
   transform="translate(0,-85.331)">
</g>
<g
   id="g26"
   transform="translate(0,-85.331)">
</g>
<g
   id="g28"
   transform="translate(0,-85.331)">
</g>
<g
   id="g30"
   transform="translate(0,-85.331)">
</g>
<g
   id="g32"
   transform="translate(0,-85.331)">
</g>
<g
   id="g34"
   transform="translate(0,-85.331)">
</g>
<g
   id="g36"
   transform="translate(0,-85.331)">
</g>
<g
   id="g38"
   transform="translate(0,-85.331)">
</g>
<g
   id="g40"
   transform="translate(0,-85.331)">
</g>
<g
   id="g42"
   transform="translate(0,-85.331)">
</g>
<g
   id="g44"
   transform="translate(0,-85.331)">
</g>
<g
   id="g46"
   transform="translate(0,-85.331)">
</g>
<g
   id="g48"
   transform="translate(0,-85.331)">
</g>
<g
   id="g50"
   transform="translate(0,-85.331)">
</g>
<g
   id="g52"
   transform="translate(0,-85.331)">
</g>
</svg>