<?xml version="1.0" encoding="UTF-8" standalone="no"?>
<!-- Generator: Adobe Illustrator 19.0.0, SVG Export Plug-In . SVG Version: 6.00 Build 0)  -->

<svg
   xmlns:dc="http://purl.org/dc/elements/1.1/"
   xmlns:cc="http://creativecommons.org/ns#"
   xmlns:rdf="http://www.w3.org/1999/02/22-rdf-syntax-ns#"
   xmlns:svg="http://www.w3.org/2000/svg"
   xmlns="http://www.w3.org/2000/svg"
   xmlns:sodipodi="http://sodipodi.sourceforge.net/DTD/sodipodi-0.dtd"
   xmlns:inkscape="http://www.inkscape.org/namespaces/inkscape"
   version="1.1"
   id="Capa_1"
   x="0px"
   y="0px"
   viewBox="0 0 512 341.33701"
   xml:space="preserve"
   sodipodi:docname="CPV.svg"
   width="512"
   height="341.33701"
   inkscape:version="0.92.4 5da689c313, 2019-01-14"><metadata
   id="metadata69"><rdf:RDF><cc:Work
       rdf:about=""><dc:format>image/svg+xml</dc:format><dc:type
         rdf:resource="http://purl.org/dc/dcmitype/StillImage" /><dc:title></dc:title></cc:Work></rdf:RDF></metadata><defs
   id="defs67" /><sodipodi:namedview
   pagecolor="#ffffff"
   bordercolor="#666666"
   borderopacity="1"
   objecttolerance="10"
   gridtolerance="10"
   guidetolerance="10"
   inkscape:pageopacity="0"
   inkscape:pageshadow="2"
   inkscape:window-width="736"
   inkscape:window-height="480"
   id="namedview65"
   showgrid="false"
   fit-margin-top="0"
   fit-margin-left="0"
   fit-margin-right="0"
   fit-margin-bottom="0"
   inkscape:zoom="0.4609375"
   inkscape:cx="256"
   inkscape:cy="170.66801"
   inkscape:window-x="0"
   inkscape:window-y="0"
   inkscape:window-maximized="0"
   inkscape:current-layer="Capa_1" />
<rect
   y="0"
   style="fill:#0052b4"
   width="512"
   height="341.33701"
   id="rect2"
   x="0" />
<rect
   y="237.44601"
   style="fill:#d80027"
   width="512"
   height="22.261"
   id="rect4"
   x="0" />
<g
   id="g10"
   transform="translate(0,-85.331001)">
	<rect
   y="300.51599"
   style="fill:#f0f0f0"
   width="512"
   height="22.261"
   id="rect6"
   x="0" />
	<rect
   y="345.03799"
   style="fill:#f0f0f0"
   width="512"
   height="22.261"
   id="rect8"
   x="0" />
</g>
<g
   id="g32"
   transform="translate(0,-85.331001)">
	<polygon
   style="fill:#ffda44"
   points="193.113,270.521 185.246,276.236 188.251,285.484 180.384,279.769 172.517,285.484 175.522,276.236 167.656,270.521 177.38,270.521 180.384,261.272 183.388,270.521 "
   id="polygon12" />
	<polygon
   style="fill:#ffda44"
   points="193.113,391.579 185.246,397.294 188.251,406.542 180.384,400.827 172.517,406.542 175.522,397.294 167.656,391.579 177.38,391.579 180.384,382.332 183.388,391.579 "
   id="polygon14" />
	<polygon
   style="fill:#ffda44"
   points="136.762,350.638 128.896,356.353 131.9,365.601 124.033,359.886 116.166,365.601 119.171,356.353 111.304,350.638 121.029,350.638 124.033,341.389 127.037,350.638 "
   id="polygon16" />
	<polygon
   style="fill:#ffda44"
   points="158.286,282.626 150.42,288.342 153.424,297.59 145.557,291.874 137.69,297.59 140.695,288.342 132.828,282.626 142.553,282.626 145.557,273.378 148.561,282.626 "
   id="polygon18" />
	<polygon
   style="fill:#ffda44"
   points="124.032,302.214 127.037,311.462 136.762,311.461 128.895,317.177 131.9,326.427 124.032,320.711 116.166,326.424 119.17,317.177 111.304,311.462 121.027,311.463 "
   id="polygon20" />
	<polygon
   style="fill:#ffda44"
   points="132.827,377.708 142.552,377.708 145.557,368.46 148.562,377.707 158.286,377.707 150.419,383.423 153.423,392.672 145.556,386.956 137.69,392.671 140.695,383.425 "
   id="polygon22" />
	<polygon
   style="fill:#ffda44"
   points="223.986,350.638 231.851,356.353 228.847,365.601 236.714,359.886 244.581,365.601 241.576,356.353 249.443,350.638 239.718,350.638 236.714,341.389 233.71,350.638 "
   id="polygon24" />
	<polygon
   style="fill:#ffda44"
   points="202.461,282.626 210.327,288.342 207.323,297.59 215.19,291.874 223.057,297.59 220.052,288.342 227.919,282.626 218.194,282.626 215.19,273.378 212.186,282.626 "
   id="polygon26" />
	<polygon
   style="fill:#ffda44"
   points="236.715,302.214 233.71,311.462 223.986,311.461 231.853,317.177 228.847,326.427 236.715,320.711 244.581,326.424 241.577,317.177 249.443,311.462 239.721,311.463 "
   id="polygon28" />
	<polygon
   style="fill:#ffda44"
   points="227.919,377.708 218.195,377.708 215.19,368.46 212.185,377.707 202.461,377.707 210.328,383.423 207.324,392.672 215.191,386.956 223.057,392.671 220.052,383.425 "
   id="polygon30" />
</g>
<g
   id="g34"
   transform="translate(0,-85.331001)">
</g>
<g
   id="g36"
   transform="translate(0,-85.331001)">
</g>
<g
   id="g38"
   transform="translate(0,-85.331001)">
</g>
<g
   id="g40"
   transform="translate(0,-85.331001)">
</g>
<g
   id="g42"
   transform="translate(0,-85.331001)">
</g>
<g
   id="g44"
   transform="translate(0,-85.331001)">
</g>
<g
   id="g46"
   transform="translate(0,-85.331001)">
</g>
<g
   id="g48"
   transform="translate(0,-85.331001)">
</g>
<g
   id="g50"
   transform="translate(0,-85.331001)">
</g>
<g
   id="g52"
   transform="translate(0,-85.331001)">
</g>
<g
   id="g54"
   transform="translate(0,-85.331001)">
</g>
<g
   id="g56"
   transform="translate(0,-85.331001)">
</g>
<g
   id="g58"
   transform="translate(0,-85.331001)">
</g>
<g
   id="g60"
   transform="translate(0,-85.331001)">
</g>
<g
   id="g62"
   transform="translate(0,-85.331001)">
</g>
</svg>