<?xml version="1.0" encoding="UTF-8" standalone="no"?>
<!-- Generator: Adobe Illustrator 19.0.0, SVG Export Plug-In . SVG Version: 6.00 Build 0)  -->

<svg
   xmlns:dc="http://purl.org/dc/elements/1.1/"
   xmlns:cc="http://creativecommons.org/ns#"
   xmlns:rdf="http://www.w3.org/1999/02/22-rdf-syntax-ns#"
   xmlns:svg="http://www.w3.org/2000/svg"
   xmlns="http://www.w3.org/2000/svg"
   xmlns:sodipodi="http://sodipodi.sourceforge.net/DTD/sodipodi-0.dtd"
   xmlns:inkscape="http://www.inkscape.org/namespaces/inkscape"
   version="1.1"
   id="Capa_1"
   x="0px"
   y="0px"
   viewBox="0 0 511.999 341.32498"
   xml:space="preserve"
   sodipodi:docname="CUB.svg"
   width="511.99899"
   height="341.32498"
   inkscape:version="0.92.4 5da689c313, 2019-01-14"><metadata
   id="metadata53"><rdf:RDF><cc:Work
       rdf:about=""><dc:format>image/svg+xml</dc:format><dc:type
         rdf:resource="http://purl.org/dc/dcmitype/StillImage" /><dc:title></dc:title></cc:Work></rdf:RDF></metadata><defs
   id="defs51" /><sodipodi:namedview
   pagecolor="#ffffff"
   bordercolor="#666666"
   borderopacity="1"
   objecttolerance="10"
   gridtolerance="10"
   guidetolerance="10"
   inkscape:pageopacity="0"
   inkscape:pageshadow="2"
   inkscape:window-width="1177"
   inkscape:window-height="899"
   id="namedview49"
   showgrid="false"
   fit-margin-top="0"
   fit-margin-left="0"
   fit-margin-right="0"
   fit-margin-bottom="0"
   inkscape:zoom="0.46093841"
   inkscape:cx="255.9995"
   inkscape:cy="170.6626"
   inkscape:window-x="0"
   inkscape:window-y="0"
   inkscape:window-maximized="0"
   inkscape:current-layer="Capa_1" />
<polygon
   style="fill:#ff9811"
   points="0.001,467.477 0.001,256.001 0.001,44.522 0,44.522 0,467.477 "
   id="polygon2"
   transform="translate(0,-85.336998)" />
<rect
   x="0"
   y="6.4086913e-07"
   style="fill:#f0f0f0"
   width="511.99899"
   height="341.32501"
   id="rect4" />
<g
   id="g12"
   transform="translate(0,-85.336998)">
	<rect
   x="0"
   y="85.336998"
   style="fill:#0052b4"
   width="511.99899"
   height="68.263"
   id="rect6" />
	<rect
   x="0"
   y="221.87399"
   style="fill:#0052b4"
   width="511.99899"
   height="68.263"
   id="rect8" />
	<rect
   x="0"
   y="358.39899"
   style="fill:#0052b4"
   width="511.99899"
   height="68.263"
   id="rect10" />
</g>
<polygon
   style="fill:#d80027"
   points="256.001,256.005 0.001,426.668 0.001,85.332 "
   id="polygon14"
   transform="translate(0,-85.336998)" />
<polygon
   style="fill:#f0f0f0"
   points="36.667,245.489 72.428,245.489 83.478,211.479 94.528,245.489 130.291,245.489 101.36,266.51 112.409,300.521 83.478,279.501 54.547,300.521 65.598,266.51 "
   id="polygon16"
   transform="translate(0,-85.336998)" />
<g
   id="g18"
   transform="translate(0,-85.336998)">
</g>
<g
   id="g20"
   transform="translate(0,-85.336998)">
</g>
<g
   id="g22"
   transform="translate(0,-85.336998)">
</g>
<g
   id="g24"
   transform="translate(0,-85.336998)">
</g>
<g
   id="g26"
   transform="translate(0,-85.336998)">
</g>
<g
   id="g28"
   transform="translate(0,-85.336998)">
</g>
<g
   id="g30"
   transform="translate(0,-85.336998)">
</g>
<g
   id="g32"
   transform="translate(0,-85.336998)">
</g>
<g
   id="g34"
   transform="translate(0,-85.336998)">
</g>
<g
   id="g36"
   transform="translate(0,-85.336998)">
</g>
<g
   id="g38"
   transform="translate(0,-85.336998)">
</g>
<g
   id="g40"
   transform="translate(0,-85.336998)">
</g>
<g
   id="g42"
   transform="translate(0,-85.336998)">
</g>
<g
   id="g44"
   transform="translate(0,-85.336998)">
</g>
<g
   id="g46"
   transform="translate(0,-85.336998)">
</g>
</svg>