<?xml version="1.0" encoding="UTF-8" standalone="no"?>
<!-- Generator: Adobe Illustrator 19.0.0, SVG Export Plug-In . SVG Version: 6.00 Build 0)  -->

<svg
   xmlns:dc="http://purl.org/dc/elements/1.1/"
   xmlns:cc="http://creativecommons.org/ns#"
   xmlns:rdf="http://www.w3.org/1999/02/22-rdf-syntax-ns#"
   xmlns:svg="http://www.w3.org/2000/svg"
   xmlns="http://www.w3.org/2000/svg"
   xmlns:sodipodi="http://sodipodi.sourceforge.net/DTD/sodipodi-0.dtd"
   xmlns:inkscape="http://www.inkscape.org/namespaces/inkscape"
   version="1.1"
   id="Capa_1"
   x="0px"
   y="0px"
   viewBox="0 0 512 341.33701"
   xml:space="preserve"
   sodipodi:docname="CYP.svg"
   width="512"
   height="341.33701"
   inkscape:version="0.92.4 5da689c313, 2019-01-14"><metadata
   id="metadata43"><rdf:RDF><cc:Work
       rdf:about=""><dc:format>image/svg+xml</dc:format><dc:type
         rdf:resource="http://purl.org/dc/dcmitype/StillImage" /><dc:title></dc:title></cc:Work></rdf:RDF></metadata><defs
   id="defs41" /><sodipodi:namedview
   pagecolor="#ffffff"
   bordercolor="#666666"
   borderopacity="1"
   objecttolerance="10"
   gridtolerance="10"
   guidetolerance="10"
   inkscape:pageopacity="0"
   inkscape:pageshadow="2"
   inkscape:window-width="736"
   inkscape:window-height="480"
   id="namedview39"
   showgrid="false"
   fit-margin-top="0"
   fit-margin-left="0"
   fit-margin-right="0"
   fit-margin-bottom="0"
   inkscape:zoom="0.4609375"
   inkscape:cx="256"
   inkscape:cy="170.66801"
   inkscape:window-x="0"
   inkscape:window-y="0"
   inkscape:window-maximized="0"
   inkscape:current-layer="Capa_1" />
<rect
   y="0"
   style="fill:#fcfcfc"
   width="512"
   height="341.33701"
   id="rect2"
   x="0" />
<path
   style="fill:#6da544"
   d="m 352,148.549 c -5.169,0 -11.569,0 -22.154,0 0,40.784 -33.063,73.846 -73.846,73.846 -40.785,0 -73.846,-33.062 -73.846,-73.846 -7.138,0 -15.016,0 -22.154,0 0,43.931 29.509,80.969 69.787,92.377 -4.415,8.389 -3.743,18.951 2.564,26.822 8.285,-6.64 16.864,-13.515 24.141,-19.346 7.277,5.831 15.855,12.705 24.141,19.346 6.371,-7.95 6.998,-18.646 2.434,-27.075 C 322.905,228.987 352,192.169 352,148.549 Z"
   id="path4"
   inkscape:connector-curvature="0" />
<path
   style="fill:#ffda44"
   d="m 196.923,141.166 c 0,0 0,36.923 36.923,36.923 l 7.385,7.385 H 256 c 0,0 7.385,-22.154 22.154,-22.154 0,0 0,-14.769 14.769,-14.769 14.769,0 22.154,0 22.154,0 0,0 -7.385,-29.538 29.538,-51.692001 l -14.769,-7.385 c 0,0 -51.692,36.923001 -88.615,29.538001 v 14.769 h -14.769 l -7.385,-7.385 z"
   id="path6"
   inkscape:connector-curvature="0" />
<g
   id="g8"
   transform="translate(0,-85.331001)">
</g>
<g
   id="g10"
   transform="translate(0,-85.331001)">
</g>
<g
   id="g12"
   transform="translate(0,-85.331001)">
</g>
<g
   id="g14"
   transform="translate(0,-85.331001)">
</g>
<g
   id="g16"
   transform="translate(0,-85.331001)">
</g>
<g
   id="g18"
   transform="translate(0,-85.331001)">
</g>
<g
   id="g20"
   transform="translate(0,-85.331001)">
</g>
<g
   id="g22"
   transform="translate(0,-85.331001)">
</g>
<g
   id="g24"
   transform="translate(0,-85.331001)">
</g>
<g
   id="g26"
   transform="translate(0,-85.331001)">
</g>
<g
   id="g28"
   transform="translate(0,-85.331001)">
</g>
<g
   id="g30"
   transform="translate(0,-85.331001)">
</g>
<g
   id="g32"
   transform="translate(0,-85.331001)">
</g>
<g
   id="g34"
   transform="translate(0,-85.331001)">
</g>
<g
   id="g36"
   transform="translate(0,-85.331001)">
</g>
</svg>