<?xml version="1.0" encoding="UTF-8" standalone="no"?>
<!-- Generator: Adobe Illustrator 19.0.0, SVG Export Plug-In . SVG Version: 6.00 Build 0)  -->

<svg
   xmlns:dc="http://purl.org/dc/elements/1.1/"
   xmlns:cc="http://creativecommons.org/ns#"
   xmlns:rdf="http://www.w3.org/1999/02/22-rdf-syntax-ns#"
   xmlns:svg="http://www.w3.org/2000/svg"
   xmlns="http://www.w3.org/2000/svg"
   xmlns:sodipodi="http://sodipodi.sourceforge.net/DTD/sodipodi-0.dtd"
   xmlns:inkscape="http://www.inkscape.org/namespaces/inkscape"
   version="1.1"
   id="Capa_1"
   x="0px"
   y="0px"
   viewBox="0 0 512 341.32599"
   xml:space="preserve"
   sodipodi:docname="ECU.svg"
   width="512"
   height="341.32599"
   inkscape:version="0.92.4 5da689c313, 2019-01-14"><metadata
   id="metadata49"><rdf:RDF><cc:Work
       rdf:about=""><dc:format>image/svg+xml</dc:format><dc:type
         rdf:resource="http://purl.org/dc/dcmitype/StillImage" /><dc:title></dc:title></cc:Work></rdf:RDF></metadata><defs
   id="defs47" /><sodipodi:namedview
   pagecolor="#ffffff"
   bordercolor="#666666"
   borderopacity="1"
   objecttolerance="10"
   gridtolerance="10"
   guidetolerance="10"
   inkscape:pageopacity="0"
   inkscape:pageshadow="2"
   inkscape:window-width="736"
   inkscape:window-height="480"
   id="namedview45"
   showgrid="false"
   fit-margin-top="0"
   fit-margin-left="0"
   fit-margin-right="0"
   fit-margin-bottom="0"
   inkscape:zoom="0.4609375"
   inkscape:cx="256"
   inkscape:cy="170.663"
   inkscape:window-x="0"
   inkscape:window-y="0"
   inkscape:window-maximized="0"
   inkscape:current-layer="Capa_1" />
<rect
   y="0"
   style="fill:#ffda44"
   width="512"
   height="341.32599"
   id="rect2"
   x="0" />
<rect
   y="170.66299"
   style="fill:#0052b4"
   width="512"
   height="85.336998"
   id="rect4"
   x="0" />
<rect
   y="256"
   style="fill:#d80027"
   width="512"
   height="85.325996"
   id="rect6"
   x="0" />
<circle
   style="fill:#ffda44"
   cx="256"
   cy="170.66299"
   r="59.359001"
   id="circle8" />
<path
   style="fill:#338af3"
   d="m 256,209.967 c -21.098,0 -38.261,-17.163 -38.261,-38.261 v -22.957 c 0,-21.098 17.163,-38.261 38.261,-38.261 21.098,0 38.261,17.163 38.261,38.261 v 22.957 c 0,21.098 -17.163,38.261 -38.261,38.261 z"
   id="path10"
   inkscape:connector-curvature="0" />
<path
   d="m 317.217,79.880002 h -45.913 c 0,-8.451 -6.853,-15.304 -15.304,-15.304 -8.451,0 -15.304,6.853 -15.304,15.304 h -45.913 c 0,8.452 7.363,15.304 15.814,15.304 h -0.51 c 0,8.451998 6.852,15.303998 15.304,15.303998 0,8.452 6.852,15.304 15.304,15.304 h 30.609 c 8.452,0 15.304,-6.852 15.304,-15.304 8.452,0 15.304,-6.852 15.304,-15.303998 h -0.51 c 8.453,0 15.815,-6.852 15.815,-15.304 z"
   id="path12"
   inkscape:connector-curvature="0" />
<g
   id="g14"
   transform="translate(0,-85.336998)">
</g>
<g
   id="g16"
   transform="translate(0,-85.336998)">
</g>
<g
   id="g18"
   transform="translate(0,-85.336998)">
</g>
<g
   id="g20"
   transform="translate(0,-85.336998)">
</g>
<g
   id="g22"
   transform="translate(0,-85.336998)">
</g>
<g
   id="g24"
   transform="translate(0,-85.336998)">
</g>
<g
   id="g26"
   transform="translate(0,-85.336998)">
</g>
<g
   id="g28"
   transform="translate(0,-85.336998)">
</g>
<g
   id="g30"
   transform="translate(0,-85.336998)">
</g>
<g
   id="g32"
   transform="translate(0,-85.336998)">
</g>
<g
   id="g34"
   transform="translate(0,-85.336998)">
</g>
<g
   id="g36"
   transform="translate(0,-85.336998)">
</g>
<g
   id="g38"
   transform="translate(0,-85.336998)">
</g>
<g
   id="g40"
   transform="translate(0,-85.336998)">
</g>
<g
   id="g42"
   transform="translate(0,-85.336998)">
</g>
</svg>