<?xml version="1.0" encoding="UTF-8" standalone="no"?>
<!-- Generator: Adobe Illustrator 19.0.0, SVG Export Plug-In . SVG Version: 6.00 Build 0)  -->

<svg
   xmlns:dc="http://purl.org/dc/elements/1.1/"
   xmlns:cc="http://creativecommons.org/ns#"
   xmlns:rdf="http://www.w3.org/1999/02/22-rdf-syntax-ns#"
   xmlns:svg="http://www.w3.org/2000/svg"
   xmlns="http://www.w3.org/2000/svg"
   xmlns:sodipodi="http://sodipodi.sourceforge.net/DTD/sodipodi-0.dtd"
   xmlns:inkscape="http://www.inkscape.org/namespaces/inkscape"
   version="1.1"
   id="Capa_1"
   x="0px"
   y="0px"
   viewBox="0 0 512 341.32599"
   xml:space="preserve"
   sodipodi:docname="ETH.svg"
   width="512"
   height="341.32599"
   inkscape:version="0.92.4 5da689c313, 2019-01-14"><metadata
   id="metadata51"><rdf:RDF><cc:Work
       rdf:about=""><dc:format>image/svg+xml</dc:format><dc:type
         rdf:resource="http://purl.org/dc/dcmitype/StillImage" /><dc:title></dc:title></cc:Work></rdf:RDF></metadata><defs
   id="defs49" /><sodipodi:namedview
   pagecolor="#ffffff"
   bordercolor="#666666"
   borderopacity="1"
   objecttolerance="10"
   gridtolerance="10"
   guidetolerance="10"
   inkscape:pageopacity="0"
   inkscape:pageshadow="2"
   inkscape:window-width="736"
   inkscape:window-height="480"
   id="namedview47"
   showgrid="false"
   fit-margin-top="0"
   fit-margin-left="0"
   fit-margin-right="0"
   fit-margin-bottom="0"
   inkscape:zoom="0.4609375"
   inkscape:cx="256"
   inkscape:cy="170.663"
   inkscape:window-x="0"
   inkscape:window-y="0"
   inkscape:window-maximized="0"
   inkscape:current-layer="Capa_1" />
<rect
   y="0"
   style="fill:#ffda44"
   width="512"
   height="341.32599"
   id="rect2"
   x="0" />
<rect
   y="0"
   style="fill:#6da544"
   width="512"
   height="113.775"
   id="rect4"
   x="0" />
<rect
   y="227.55099"
   style="fill:#d80027"
   width="512"
   height="113.775"
   id="rect6"
   x="0" />
<circle
   style="fill:#0052b4"
   cx="256"
   cy="170.66299"
   r="81.619003"
   id="circle8" />
<g
   id="g14"
   transform="translate(0,-85.336998)">
	<polygon
   style="fill:#ffda44"
   points="318.474,238.142 279.824,266.17 294.673,311.651 255.982,283.491 217.352,311.599 232.142,266.17 193.526,238.142 241.248,238.142 255.982,192.796 270.717,238.142 "
   id="polygon10" />
	<polygon
   style="fill:#ffda44"
   points="296.893,212.339 284.888,203.615 255.999,243.376 227.112,203.616 215.106,212.338 243.992,252.1 197.252,267.286 201.837,281.401 248.579,266.213 248.579,315.361 263.421,315.361 263.421,266.213 310.161,281.401 314.748,267.286 268.005,252.098 "
   id="polygon12" />
</g>
<g
   id="g16"
   transform="translate(0,-85.336998)">
</g>
<g
   id="g18"
   transform="translate(0,-85.336998)">
</g>
<g
   id="g20"
   transform="translate(0,-85.336998)">
</g>
<g
   id="g22"
   transform="translate(0,-85.336998)">
</g>
<g
   id="g24"
   transform="translate(0,-85.336998)">
</g>
<g
   id="g26"
   transform="translate(0,-85.336998)">
</g>
<g
   id="g28"
   transform="translate(0,-85.336998)">
</g>
<g
   id="g30"
   transform="translate(0,-85.336998)">
</g>
<g
   id="g32"
   transform="translate(0,-85.336998)">
</g>
<g
   id="g34"
   transform="translate(0,-85.336998)">
</g>
<g
   id="g36"
   transform="translate(0,-85.336998)">
</g>
<g
   id="g38"
   transform="translate(0,-85.336998)">
</g>
<g
   id="g40"
   transform="translate(0,-85.336998)">
</g>
<g
   id="g42"
   transform="translate(0,-85.336998)">
</g>
<g
   id="g44"
   transform="translate(0,-85.336998)">
</g>
</svg>