<?xml version="1.0" encoding="UTF-8" standalone="no"?>
<!-- Generator: Adobe Illustrator 19.0.0, SVG Export Plug-In . SVG Version: 6.00 Build 0)  -->

<svg
   xmlns:dc="http://purl.org/dc/elements/1.1/"
   xmlns:cc="http://creativecommons.org/ns#"
   xmlns:rdf="http://www.w3.org/1999/02/22-rdf-syntax-ns#"
   xmlns:svg="http://www.w3.org/2000/svg"
   xmlns="http://www.w3.org/2000/svg"
   xmlns:sodipodi="http://sodipodi.sourceforge.net/DTD/sodipodi-0.dtd"
   xmlns:inkscape="http://www.inkscape.org/namespaces/inkscape"
   version="1.1"
   id="Capa_1"
   x="0px"
   y="0px"
   viewBox="0 0 512 341.34"
   xml:space="preserve"
   sodipodi:docname="GEO.svg"
   width="512"
   height="341.34"
   inkscape:version="0.92.4 5da689c313, 2019-01-14"><metadata
   id="metadata51"><rdf:RDF><cc:Work
       rdf:about=""><dc:format>image/svg+xml</dc:format><dc:type
         rdf:resource="http://purl.org/dc/dcmitype/StillImage" /><dc:title></dc:title></cc:Work></rdf:RDF></metadata><defs
   id="defs49" /><sodipodi:namedview
   pagecolor="#ffffff"
   bordercolor="#666666"
   borderopacity="1"
   objecttolerance="10"
   gridtolerance="10"
   guidetolerance="10"
   inkscape:pageopacity="0"
   inkscape:pageshadow="2"
   inkscape:window-width="736"
   inkscape:window-height="480"
   id="namedview47"
   showgrid="false"
   fit-margin-top="0"
   fit-margin-left="0"
   fit-margin-right="0"
   fit-margin-bottom="0"
   inkscape:zoom="0.4609375"
   inkscape:cx="256"
   inkscape:cy="170.67001"
   inkscape:window-x="0"
   inkscape:window-y="0"
   inkscape:window-maximized="0"
   inkscape:current-layer="Capa_1" />
<rect
   y="0.003000183"
   style="fill:#f0f0f0"
   width="512"
   height="341.33701"
   id="rect2"
   x="0" />
<g
   id="g14"
   transform="translate(0,-85.33)">
	<polygon
   style="fill:#d80027"
   points="224,223.996 0,223.996 0,287.996 224,287.996 224,426.662 288,426.662 288,287.996 512,287.996 512,223.996 288,223.996 288,85.33 224,85.33 "
   id="polygon4" />
	<polygon
   style="fill:#d80027"
   points="100.87,121.273 100.87,143.534 78.609,143.534 78.609,165.795 100.87,165.795 100.87,188.056 123.13,188.056 123.13,165.795 145.391,165.795 145.391,143.534 123.13,143.534 123.13,121.273 "
   id="polygon6" />
	<polygon
   style="fill:#d80027"
   points="388.87,121.273 388.87,143.534 366.609,143.534 366.609,165.795 388.87,165.795 388.87,188.056 411.13,188.056 411.13,165.795 433.391,165.795 433.391,143.534 411.13,143.534 411.13,121.273 "
   id="polygon8" />
	<polygon
   style="fill:#d80027"
   points="100.87,323.936 100.87,346.197 78.609,346.197 78.609,368.458 100.87,368.458 100.87,390.719 123.13,390.719 123.13,368.458 145.391,368.458 145.391,346.197 123.13,346.197 123.13,323.936 "
   id="polygon10" />
	<polygon
   style="fill:#d80027"
   points="388.87,323.936 388.87,346.197 366.609,346.197 366.609,368.458 388.87,368.458 388.87,390.719 411.13,390.719 411.13,368.458 433.391,368.458 433.391,346.197 411.13,346.197 411.13,323.936 "
   id="polygon12" />
</g>
<g
   id="g16"
   transform="translate(0,-85.33)">
</g>
<g
   id="g18"
   transform="translate(0,-85.33)">
</g>
<g
   id="g20"
   transform="translate(0,-85.33)">
</g>
<g
   id="g22"
   transform="translate(0,-85.33)">
</g>
<g
   id="g24"
   transform="translate(0,-85.33)">
</g>
<g
   id="g26"
   transform="translate(0,-85.33)">
</g>
<g
   id="g28"
   transform="translate(0,-85.33)">
</g>
<g
   id="g30"
   transform="translate(0,-85.33)">
</g>
<g
   id="g32"
   transform="translate(0,-85.33)">
</g>
<g
   id="g34"
   transform="translate(0,-85.33)">
</g>
<g
   id="g36"
   transform="translate(0,-85.33)">
</g>
<g
   id="g38"
   transform="translate(0,-85.33)">
</g>
<g
   id="g40"
   transform="translate(0,-85.33)">
</g>
<g
   id="g42"
   transform="translate(0,-85.33)">
</g>
<g
   id="g44"
   transform="translate(0,-85.33)">
</g>
</svg>