<?xml version="1.0" encoding="UTF-8" standalone="no"?>
<!-- Generator: Adobe Illustrator 19.0.0, SVG Export Plug-In . SVG Version: 6.00 Build 0)  -->

<svg
   xmlns:dc="http://purl.org/dc/elements/1.1/"
   xmlns:cc="http://creativecommons.org/ns#"
   xmlns:rdf="http://www.w3.org/1999/02/22-rdf-syntax-ns#"
   xmlns:svg="http://www.w3.org/2000/svg"
   xmlns="http://www.w3.org/2000/svg"
   xmlns:sodipodi="http://sodipodi.sourceforge.net/DTD/sodipodi-0.dtd"
   xmlns:inkscape="http://www.inkscape.org/namespaces/inkscape"
   version="1.1"
   id="Capa_1"
   x="0px"
   y="0px"
   viewBox="0 0 512 341.33701"
   xml:space="preserve"
   sodipodi:docname="GNQ.svg"
   width="512"
   height="341.33701"
   inkscape:version="0.92.4 5da689c313, 2019-01-14"><metadata
   id="metadata51"><rdf:RDF><cc:Work
       rdf:about=""><dc:format>image/svg+xml</dc:format><dc:type
         rdf:resource="http://purl.org/dc/dcmitype/StillImage" /><dc:title></dc:title></cc:Work></rdf:RDF></metadata><defs
   id="defs49" /><sodipodi:namedview
   pagecolor="#ffffff"
   bordercolor="#666666"
   borderopacity="1"
   objecttolerance="10"
   gridtolerance="10"
   guidetolerance="10"
   inkscape:pageopacity="0"
   inkscape:pageshadow="2"
   inkscape:window-width="736"
   inkscape:window-height="480"
   id="namedview47"
   showgrid="false"
   fit-margin-top="0"
   fit-margin-left="0"
   fit-margin-right="0"
   fit-margin-bottom="0"
   inkscape:zoom="0.4609375"
   inkscape:cx="256"
   inkscape:cy="170.668"
   inkscape:window-x="0"
   inkscape:window-y="0"
   inkscape:window-maximized="0"
   inkscape:current-layer="Capa_1" />
<rect
   y="0.0059979861"
   style="fill:#f0f0f0"
   width="512"
   height="341.32599"
   id="rect2"
   x="0" />
<rect
   y="0.0059979861"
   style="fill:#6da544"
   width="512"
   height="113.775"
   id="rect4"
   x="0" />
<rect
   y="227.55701"
   style="fill:#d80027"
   width="512"
   height="113.775"
   id="rect6"
   x="0" />
<polygon
   style="fill:#0052b4"
   points="0,85.331 256,256.006 0,426.668 "
   id="polygon8"
   transform="translate(0,-85.331)" />
<path
   style="fill:#dedde0"
   d="m 279.807,134.379 v 44.444 c 0,27.216 35.555,35.556 35.555,35.556 0,0 35.555,-8.339 35.555,-35.556 v -44.444 z"
   id="path10"
   inkscape:connector-curvature="0" />
<rect
   x="306.47699"
   y="170.82501"
   style="fill:#786145"
   width="17.778"
   height="25.778"
   id="rect12" />
<path
   style="fill:#6da544"
   d="m 333.141,161.046 c 0,-9.818 -7.959,-17.778 -17.778,-17.778 -9.819,0 -17.778,7.959 -17.778,17.778 -4.91,0 -8.889,3.979 -8.889,8.889 0,4.91 3.979,8.889 8.889,8.889 2.915,0 32.64,0 35.555,0 4.91,0 8.889,-3.979 8.889,-8.889 0,-4.91 -3.979,-8.889 -8.888,-8.889 z"
   id="path14"
   inkscape:connector-curvature="0" />
<g
   id="g16"
   transform="translate(0,-85.331)">
</g>
<g
   id="g18"
   transform="translate(0,-85.331)">
</g>
<g
   id="g20"
   transform="translate(0,-85.331)">
</g>
<g
   id="g22"
   transform="translate(0,-85.331)">
</g>
<g
   id="g24"
   transform="translate(0,-85.331)">
</g>
<g
   id="g26"
   transform="translate(0,-85.331)">
</g>
<g
   id="g28"
   transform="translate(0,-85.331)">
</g>
<g
   id="g30"
   transform="translate(0,-85.331)">
</g>
<g
   id="g32"
   transform="translate(0,-85.331)">
</g>
<g
   id="g34"
   transform="translate(0,-85.331)">
</g>
<g
   id="g36"
   transform="translate(0,-85.331)">
</g>
<g
   id="g38"
   transform="translate(0,-85.331)">
</g>
<g
   id="g40"
   transform="translate(0,-85.331)">
</g>
<g
   id="g42"
   transform="translate(0,-85.331)">
</g>
<g
   id="g44"
   transform="translate(0,-85.331)">
</g>
</svg>