<?xml version="1.0" encoding="UTF-8" standalone="no"?>
<!-- Generator: Adobe Illustrator 19.0.0, SVG Export Plug-In . SVG Version: 6.00 Build 0)  -->

<svg
   xmlns:dc="http://purl.org/dc/elements/1.1/"
   xmlns:cc="http://creativecommons.org/ns#"
   xmlns:rdf="http://www.w3.org/1999/02/22-rdf-syntax-ns#"
   xmlns:svg="http://www.w3.org/2000/svg"
   xmlns="http://www.w3.org/2000/svg"
   xmlns:sodipodi="http://sodipodi.sourceforge.net/DTD/sodipodi-0.dtd"
   xmlns:inkscape="http://www.inkscape.org/namespaces/inkscape"
   version="1.1"
   id="Capa_1"
   x="0px"
   y="0px"
   viewBox="0 0 512 341.32599"
   xml:space="preserve"
   sodipodi:docname="GRD.svg"
   width="512"
   height="341.32599"
   inkscape:version="0.92.4 5da689c313, 2019-01-14"><metadata
   id="metadata73"><rdf:RDF><cc:Work
       rdf:about=""><dc:format>image/svg+xml</dc:format><dc:type
         rdf:resource="http://purl.org/dc/dcmitype/StillImage" /><dc:title></dc:title></cc:Work></rdf:RDF></metadata><defs
   id="defs71" /><sodipodi:namedview
   pagecolor="#ffffff"
   bordercolor="#666666"
   borderopacity="1"
   objecttolerance="10"
   gridtolerance="10"
   guidetolerance="10"
   inkscape:pageopacity="0"
   inkscape:pageshadow="2"
   inkscape:window-width="736"
   inkscape:window-height="480"
   id="namedview69"
   showgrid="false"
   fit-margin-top="0"
   fit-margin-left="0"
   fit-margin-right="0"
   fit-margin-bottom="0"
   inkscape:zoom="0.4609375"
   inkscape:cx="256"
   inkscape:cy="170.66299"
   inkscape:window-x="0"
   inkscape:window-y="0"
   inkscape:window-maximized="0"
   inkscape:current-layer="Capa_1" />
<rect
   y="0"
   style="fill:#a2001d"
   width="512"
   height="341.32599"
   id="rect2"
   x="0" />
<polygon
   style="fill:#496e2d"
   points="44.522,129.859 256,256 44.522,382.141 "
   id="polygon4"
   transform="translate(0,-85.336998)" />
<g
   id="g10"
   transform="translate(0,-85.336998)">
	<polygon
   style="fill:#ffda44"
   points="44.522,382.141 256,256 467.478,382.141 "
   id="polygon6" />
	<polygon
   style="fill:#ffda44"
   points="44.522,129.859 467.478,129.859 256,256 "
   id="polygon8" />
</g>
<polygon
   style="fill:#496e2d"
   points="256,256 467.478,129.859 467.478,382.141 "
   id="polygon12"
   transform="translate(0,-85.336998)" />
<g
   id="g26"
   transform="translate(0,-85.336998)">
	<polygon
   style="fill:#ffda44"
   points="270.044,105.925 261.365,112.231 264.681,122.435 256,116.128 247.32,122.435 250.636,112.231 241.956,105.925 252.684,105.925 256,95.722 259.316,105.925 "
   id="polygon14" />
	<polygon
   style="fill:#ffda44"
   points="184.137,105.925 175.459,112.231 178.775,122.435 170.094,116.128 161.415,122.435 164.73,112.231 156.05,105.925 166.778,105.925 170.094,95.722 173.41,105.925 "
   id="polygon16" />
	<polygon
   style="fill:#ffda44"
   points="355.95,105.925 347.271,112.231 350.586,122.435 341.906,116.128 333.227,122.435 336.543,112.231 327.863,105.925 338.59,105.925 341.906,95.722 345.222,105.925 "
   id="polygon18" />
	<polygon
   style="fill:#ffda44"
   points="270.044,399.768 261.365,406.075 264.681,416.278 256,409.972 247.32,416.278 250.636,406.075 241.956,399.768 252.684,399.768 256,389.565 259.316,399.768 "
   id="polygon20" />
	<polygon
   style="fill:#ffda44"
   points="184.137,399.768 175.459,406.075 178.775,416.278 170.094,409.972 161.415,416.278 164.73,406.075 156.05,399.768 166.778,399.768 170.094,389.565 173.41,399.768 "
   id="polygon22" />
	<polygon
   style="fill:#ffda44"
   points="355.95,399.768 347.271,406.075 350.586,416.278 341.906,409.972 333.227,416.278 336.543,406.075 327.863,399.768 338.59,399.768 341.906,389.565 345.222,399.768 "
   id="polygon24" />
</g>
<circle
   style="fill:#a2001d"
   cx="256"
   cy="170.66299"
   r="37.987999"
   id="circle28" />
<g
   id="g34"
   transform="translate(0,-85.336998)">
	<polygon
   style="fill:#ffda44"
   points="292.077,244.218 269.781,260.42 278.296,286.631 256,270.432 233.702,286.631 242.219,260.42 219.923,244.218 247.483,244.218 256,218.008 264.516,244.218 "
   id="polygon30" />
	<path
   style="fill:#ffda44"
   d="m 107.655,253.181 c 4.383,6.926 2.323,16.092 -4.602,20.477 -6.925,4.385 -16.092,2.324 -20.477,-4.602 -7.937,-12.54 -3.335,-33.016 -3.335,-33.016 0,0 20.475,4.602 28.414,17.141 z"
   id="path32"
   inkscape:connector-curvature="0" />
</g>
<circle
   style="fill:#a2001d"
   cx="99.083"
   cy="182.04898"
   r="7.4200001"
   id="circle36" />
<g
   id="g38"
   transform="translate(0,-85.336998)">
</g>
<g
   id="g40"
   transform="translate(0,-85.336998)">
</g>
<g
   id="g42"
   transform="translate(0,-85.336998)">
</g>
<g
   id="g44"
   transform="translate(0,-85.336998)">
</g>
<g
   id="g46"
   transform="translate(0,-85.336998)">
</g>
<g
   id="g48"
   transform="translate(0,-85.336998)">
</g>
<g
   id="g50"
   transform="translate(0,-85.336998)">
</g>
<g
   id="g52"
   transform="translate(0,-85.336998)">
</g>
<g
   id="g54"
   transform="translate(0,-85.336998)">
</g>
<g
   id="g56"
   transform="translate(0,-85.336998)">
</g>
<g
   id="g58"
   transform="translate(0,-85.336998)">
</g>
<g
   id="g60"
   transform="translate(0,-85.336998)">
</g>
<g
   id="g62"
   transform="translate(0,-85.336998)">
</g>
<g
   id="g64"
   transform="translate(0,-85.336998)">
</g>
<g
   id="g66"
   transform="translate(0,-85.336998)">
</g>
</svg>