<?xml version="1.0" encoding="UTF-8" standalone="no"?>
<!-- Generator: Adobe Illustrator 19.0.0, SVG Export Plug-In . SVG Version: 6.00 Build 0)  -->

<svg
   xmlns:dc="http://purl.org/dc/elements/1.1/"
   xmlns:cc="http://creativecommons.org/ns#"
   xmlns:rdf="http://www.w3.org/1999/02/22-rdf-syntax-ns#"
   xmlns:svg="http://www.w3.org/2000/svg"
   xmlns="http://www.w3.org/2000/svg"
   xmlns:sodipodi="http://sodipodi.sourceforge.net/DTD/sodipodi-0.dtd"
   xmlns:inkscape="http://www.inkscape.org/namespaces/inkscape"
   version="1.1"
   id="Capa_1"
   x="0px"
   y="0px"
   viewBox="0 0 512 341.33701"
   xml:space="preserve"
   sodipodi:docname="GTM.svg"
   width="512"
   height="341.33701"
   inkscape:version="0.92.4 5da689c313, 2019-01-14"><metadata
   id="metadata49"><rdf:RDF><cc:Work
       rdf:about=""><dc:format>image/svg+xml</dc:format><dc:type
         rdf:resource="http://purl.org/dc/dcmitype/StillImage" /><dc:title></dc:title></cc:Work></rdf:RDF></metadata><defs
   id="defs47" /><sodipodi:namedview
   pagecolor="#ffffff"
   bordercolor="#666666"
   borderopacity="1"
   objecttolerance="10"
   gridtolerance="10"
   guidetolerance="10"
   inkscape:pageopacity="0"
   inkscape:pageshadow="2"
   inkscape:window-width="736"
   inkscape:window-height="480"
   id="namedview45"
   showgrid="false"
   fit-margin-top="0"
   fit-margin-left="0"
   fit-margin-right="0"
   fit-margin-bottom="0"
   inkscape:zoom="0.4609375"
   inkscape:cx="256"
   inkscape:cy="170.66801"
   inkscape:window-x="0"
   inkscape:window-y="0"
   inkscape:window-maximized="0"
   inkscape:current-layer="Capa_1" />
<rect
   y="0"
   style="fill:#f0f0f0"
   width="512"
   height="341.33701"
   id="rect2"
   x="0" />
<g
   id="g8"
   transform="translate(0,-85.331001)">
	<rect
   y="85.331001"
   style="fill:#338af3"
   width="170.66299"
   height="341.33701"
   id="rect4"
   x="0" />
	<rect
   x="341.33701"
   y="85.331001"
   style="fill:#338af3"
   width="170.66299"
   height="341.33701"
   id="rect6" />
</g>
<polygon
   style="fill:#acabb1"
   points="302.586,226.008 301.244,210.366 292.766,201.886 256,238.652 219.234,201.886 210.756,210.366 209.414,226.008 239.029,255.624 207.917,286.736 224.887,303.706 256,272.594 287.113,303.706 304.083,286.736 272.971,255.624 "
   id="polygon10"
   transform="translate(0,-85.331001)" />
<path
   style="fill:#6da544"
   d="m 301.255,125.036 -16.971,16.971 c 7.238,7.239 11.716,17.239 11.716,28.285 0,22.092 -17.909,40.001 -40.001,40.001 -22.092,0 -40.001,-17.909 -40.001,-40.001 0,-11.045 4.478,-21.045 11.716,-28.285 L 210.743,125.036 C 199.162,136.618 192,152.618 192,170.292 c 0,35.346 28.654,64 64,64 35.346,0 64,-28.654 64,-64 0,-17.674 -7.164,-33.674 -18.745,-45.256 z"
   id="path12"
   inkscape:connector-curvature="0" />
<g
   id="g14"
   transform="translate(0,-85.331001)">
</g>
<g
   id="g16"
   transform="translate(0,-85.331001)">
</g>
<g
   id="g18"
   transform="translate(0,-85.331001)">
</g>
<g
   id="g20"
   transform="translate(0,-85.331001)">
</g>
<g
   id="g22"
   transform="translate(0,-85.331001)">
</g>
<g
   id="g24"
   transform="translate(0,-85.331001)">
</g>
<g
   id="g26"
   transform="translate(0,-85.331001)">
</g>
<g
   id="g28"
   transform="translate(0,-85.331001)">
</g>
<g
   id="g30"
   transform="translate(0,-85.331001)">
</g>
<g
   id="g32"
   transform="translate(0,-85.331001)">
</g>
<g
   id="g34"
   transform="translate(0,-85.331001)">
</g>
<g
   id="g36"
   transform="translate(0,-85.331001)">
</g>
<g
   id="g38"
   transform="translate(0,-85.331001)">
</g>
<g
   id="g40"
   transform="translate(0,-85.331001)">
</g>
<g
   id="g42"
   transform="translate(0,-85.331001)">
</g>
</svg>