<?xml version="1.0" encoding="UTF-8" standalone="no"?>
<!-- Generator: Adobe Illustrator 19.0.0, SVG Export Plug-In . SVG Version: 6.00 Build 0)  -->

<svg
   xmlns:dc="http://purl.org/dc/elements/1.1/"
   xmlns:cc="http://creativecommons.org/ns#"
   xmlns:rdf="http://www.w3.org/1999/02/22-rdf-syntax-ns#"
   xmlns:svg="http://www.w3.org/2000/svg"
   xmlns="http://www.w3.org/2000/svg"
   xmlns:sodipodi="http://sodipodi.sourceforge.net/DTD/sodipodi-0.dtd"
   xmlns:inkscape="http://www.inkscape.org/namespaces/inkscape"
   version="1.1"
   id="Capa_1"
   x="0px"
   y="0px"
   viewBox="0 0 512 341.32599"
   xml:space="preserve"
   sodipodi:docname="HND.svg"
   width="512"
   height="341.32599"
   inkscape:version="0.92.4 5da689c313, 2019-01-14"><metadata
   id="metadata55"><rdf:RDF><cc:Work
       rdf:about=""><dc:format>image/svg+xml</dc:format><dc:type
         rdf:resource="http://purl.org/dc/dcmitype/StillImage" /><dc:title></dc:title></cc:Work></rdf:RDF></metadata><defs
   id="defs53" /><sodipodi:namedview
   pagecolor="#ffffff"
   bordercolor="#666666"
   borderopacity="1"
   objecttolerance="10"
   gridtolerance="10"
   guidetolerance="10"
   inkscape:pageopacity="0"
   inkscape:pageshadow="2"
   inkscape:window-width="736"
   inkscape:window-height="480"
   id="namedview51"
   showgrid="false"
   fit-margin-top="0"
   fit-margin-left="0"
   fit-margin-right="0"
   fit-margin-bottom="0"
   inkscape:zoom="0.4609375"
   inkscape:cx="256"
   inkscape:cy="170.663"
   inkscape:window-x="0"
   inkscape:window-y="0"
   inkscape:window-maximized="0"
   inkscape:current-layer="Capa_1" />
<rect
   y="0"
   style="fill:#f0f0f0"
   width="512"
   height="341.32599"
   id="rect2"
   x="0" />
<g
   id="g18"
   transform="translate(0,-85.336998)">
	<rect
   y="85.336998"
   style="fill:#338af3"
   width="512"
   height="113.775"
   id="rect4"
   x="0" />
	<rect
   y="312.888"
   style="fill:#338af3"
   width="512"
   height="113.775"
   id="rect6"
   x="0" />
	<polygon
   style="fill:#338af3"
   points="222.217,222.116 210.643,230.524 215.064,244.128 203.491,235.72 191.919,244.128 196.34,230.524 184.766,222.116 199.071,222.116 203.491,208.511 207.912,222.116 "
   id="polygon8" />
	<polygon
   style="fill:#338af3"
   points="222.217,281.478 210.643,289.884 215.064,303.489 203.491,295.081 191.919,303.489 196.34,289.884 184.766,281.478 199.071,281.478 203.491,267.872 207.912,281.478 "
   id="polygon10" />
	<polygon
   style="fill:#338af3"
   points="327.234,222.116 315.66,230.524 320.081,244.128 308.509,235.72 296.936,244.128 301.357,230.524 289.783,222.116 304.088,222.116 308.509,208.511 312.929,222.116 "
   id="polygon12" />
	<polygon
   style="fill:#338af3"
   points="327.234,281.478 315.66,289.884 320.081,303.489 308.509,295.081 296.936,303.489 301.357,289.884 289.783,281.478 304.088,281.478 308.509,267.872 312.929,281.478 "
   id="polygon14" />
	<polygon
   style="fill:#338af3"
   points="274.725,251.796 263.152,260.204 267.573,273.809 256,265.401 244.427,273.809 248.848,260.204 237.275,251.796 251.579,251.796 256,238.191 260.421,251.796 "
   id="polygon16" />
</g>
<g
   id="g20"
   transform="translate(0,-85.336998)">
</g>
<g
   id="g22"
   transform="translate(0,-85.336998)">
</g>
<g
   id="g24"
   transform="translate(0,-85.336998)">
</g>
<g
   id="g26"
   transform="translate(0,-85.336998)">
</g>
<g
   id="g28"
   transform="translate(0,-85.336998)">
</g>
<g
   id="g30"
   transform="translate(0,-85.336998)">
</g>
<g
   id="g32"
   transform="translate(0,-85.336998)">
</g>
<g
   id="g34"
   transform="translate(0,-85.336998)">
</g>
<g
   id="g36"
   transform="translate(0,-85.336998)">
</g>
<g
   id="g38"
   transform="translate(0,-85.336998)">
</g>
<g
   id="g40"
   transform="translate(0,-85.336998)">
</g>
<g
   id="g42"
   transform="translate(0,-85.336998)">
</g>
<g
   id="g44"
   transform="translate(0,-85.336998)">
</g>
<g
   id="g46"
   transform="translate(0,-85.336998)">
</g>
<g
   id="g48"
   transform="translate(0,-85.336998)">
</g>
</svg>