<?xml version="1.0" encoding="UTF-8" standalone="no"?>
<!-- Generator: Adobe Illustrator 19.0.0, SVG Export Plug-In . SVG Version: 6.00 Build 0)  -->

<svg
   xmlns:dc="http://purl.org/dc/elements/1.1/"
   xmlns:cc="http://creativecommons.org/ns#"
   xmlns:rdf="http://www.w3.org/1999/02/22-rdf-syntax-ns#"
   xmlns:svg="http://www.w3.org/2000/svg"
   xmlns="http://www.w3.org/2000/svg"
   xmlns:sodipodi="http://sodipodi.sourceforge.net/DTD/sodipodi-0.dtd"
   xmlns:inkscape="http://www.inkscape.org/namespaces/inkscape"
   version="1.1"
   id="Capa_1"
   x="0px"
   y="0px"
   viewBox="0 0 512 341.32599"
   xml:space="preserve"
   sodipodi:docname="HRV.svg"
   width="512"
   height="341.32599"
   inkscape:version="0.92.4 5da689c313, 2019-01-14"><metadata
   id="metadata85"><rdf:RDF><cc:Work
       rdf:about=""><dc:format>image/svg+xml</dc:format><dc:type
         rdf:resource="http://purl.org/dc/dcmitype/StillImage" /><dc:title></dc:title></cc:Work></rdf:RDF></metadata><defs
   id="defs83" /><sodipodi:namedview
   pagecolor="#ffffff"
   bordercolor="#666666"
   borderopacity="1"
   objecttolerance="10"
   gridtolerance="10"
   guidetolerance="10"
   inkscape:pageopacity="0"
   inkscape:pageshadow="2"
   inkscape:window-width="736"
   inkscape:window-height="480"
   id="namedview81"
   showgrid="false"
   fit-margin-top="0"
   fit-margin-left="0"
   fit-margin-right="0"
   fit-margin-bottom="0"
   inkscape:zoom="0.4609375"
   inkscape:cx="256"
   inkscape:cy="170.663"
   inkscape:window-x="0"
   inkscape:window-y="0"
   inkscape:window-maximized="0"
   inkscape:current-layer="Capa_1" />
<rect
   y="0"
   style="fill:#f0f0f0"
   width="512"
   height="341.32599"
   id="rect2"
   x="0" />
<rect
   y="0"
   style="fill:#d80027"
   width="512"
   height="113.775"
   id="rect4"
   x="0" />
<rect
   y="227.55099"
   style="fill:#0052b4"
   width="512"
   height="113.775"
   id="rect6"
   x="0" />
<g
   id="g12"
   transform="translate(0,-85.336998)">
	<polygon
   style="fill:#338af3"
   points="275.788,166.957 295.575,152.116 315.362,166.957 315.362,196.638 300.522,204.059 270.84,204.059 "
   id="polygon8" />
	<polygon
   style="fill:#338af3"
   points="236.212,166.957 216.425,152.116 196.638,166.957 196.638,196.638 211.478,204.059 241.16,204.059 "
   id="polygon10" />
</g>
<polygon
   style="fill:#0052b4"
   points="236.212,166.957 256,152.116 275.788,166.957 275.788,204.059 236.212,204.059 "
   id="polygon14"
   transform="translate(0,-85.336998)" />
<path
   style="fill:#f0f0f0"
   d="m 196.638,111.301 v 81.623 c 0,19.436 9.389,36.719 23.868,47.555 l 10.388,-2.6 13.109,13.188 c 3.876,0.798 7.887,1.219 11.996,1.219 4.087,0 8.077,-0.415 11.934,-1.205 l 14.964,-12.459 8.595,1.834 c 14.474,-10.834 23.868,-28.101 23.868,-47.531 v -81.623 z"
   id="path16"
   inkscape:connector-curvature="0" />
<g
   id="g48"
   transform="translate(0,-85.336998)">
	<rect
   x="196.64101"
   y="196.64101"
   style="fill:#d80027"
   width="23.745001"
   height="23.745001"
   id="rect18" />
	<rect
   x="244.12399"
   y="196.64101"
   style="fill:#d80027"
   width="23.745001"
   height="23.745001"
   id="rect20" />
	<rect
   x="291.617"
   y="196.64101"
   style="fill:#d80027"
   width="23.745001"
   height="23.745001"
   id="rect22" />
	<rect
   x="220.383"
   y="220.383"
   style="fill:#d80027"
   width="23.745001"
   height="23.745001"
   id="rect24" />
	<rect
   x="267.87601"
   y="220.383"
   style="fill:#d80027"
   width="23.745001"
   height="23.745001"
   id="rect26" />
	<rect
   x="196.64101"
   y="244.12399"
   style="fill:#d80027"
   width="23.745001"
   height="23.745001"
   id="rect28" />
	<rect
   x="220.383"
   y="267.86499"
   style="fill:#d80027"
   width="23.745001"
   height="23.745001"
   id="rect30" />
	<rect
   x="244.12399"
   y="244.12399"
   style="fill:#d80027"
   width="23.745001"
   height="23.745001"
   id="rect32" />
	<rect
   x="291.617"
   y="244.12399"
   style="fill:#d80027"
   width="23.745001"
   height="23.745001"
   id="rect34" />
	<rect
   x="267.87601"
   y="267.86499"
   style="fill:#d80027"
   width="23.745001"
   height="23.745001"
   id="rect36" />
	<rect
   x="244.12399"
   y="291.617"
   style="fill:#d80027"
   width="23.745001"
   height="23.745001"
   id="rect38" />
	<path
   style="fill:#d80027"
   d="m 220.383,291.613 h -22.212 c 2.038,8.826 6.042,16.904 11.536,23.745 h 10.676 z"
   id="path40"
   inkscape:connector-curvature="0" />
	<path
   style="fill:#d80027"
   d="m 291.617,315.357 h 10.677 c 5.493,-6.842 9.498,-14.919 11.536,-23.745 h -22.213 z"
   id="path42"
   inkscape:connector-curvature="0" />
	<path
   style="fill:#d80027"
   d="m 220.383,315.357 v 10.361 c 6.906,5.196 14.976,8.923 23.745,10.71 v -21.071 z"
   id="path44"
   inkscape:connector-curvature="0" />
	<path
   style="fill:#d80027"
   d="m 267.873,315.357 v 21.071 c 8.769,-1.786 16.839,-5.514 23.745,-10.71 v -10.361 z"
   id="path46"
   inkscape:connector-curvature="0" />
</g>
<g
   id="g50"
   transform="translate(0,-85.336998)">
</g>
<g
   id="g52"
   transform="translate(0,-85.336998)">
</g>
<g
   id="g54"
   transform="translate(0,-85.336998)">
</g>
<g
   id="g56"
   transform="translate(0,-85.336998)">
</g>
<g
   id="g58"
   transform="translate(0,-85.336998)">
</g>
<g
   id="g60"
   transform="translate(0,-85.336998)">
</g>
<g
   id="g62"
   transform="translate(0,-85.336998)">
</g>
<g
   id="g64"
   transform="translate(0,-85.336998)">
</g>
<g
   id="g66"
   transform="translate(0,-85.336998)">
</g>
<g
   id="g68"
   transform="translate(0,-85.336998)">
</g>
<g
   id="g70"
   transform="translate(0,-85.336998)">
</g>
<g
   id="g72"
   transform="translate(0,-85.336998)">
</g>
<g
   id="g74"
   transform="translate(0,-85.336998)">
</g>
<g
   id="g76"
   transform="translate(0,-85.336998)">
</g>
<g
   id="g78"
   transform="translate(0,-85.336998)">
</g>
</svg>