<?xml version="1.0" encoding="UTF-8" standalone="no"?>
<!-- Generator: Adobe Illustrator 19.0.0, SVG Export Plug-In . SVG Version: 6.00 Build 0)  -->

<svg
   xmlns:dc="http://purl.org/dc/elements/1.1/"
   xmlns:cc="http://creativecommons.org/ns#"
   xmlns:rdf="http://www.w3.org/1999/02/22-rdf-syntax-ns#"
   xmlns:svg="http://www.w3.org/2000/svg"
   xmlns="http://www.w3.org/2000/svg"
   xmlns:sodipodi="http://sodipodi.sourceforge.net/DTD/sodipodi-0.dtd"
   xmlns:inkscape="http://www.inkscape.org/namespaces/inkscape"
   version="1.1"
   id="Capa_1"
   x="0px"
   y="0px"
   viewBox="0 0 512 341.32599"
   xml:space="preserve"
   sodipodi:docname="IRN.svg"
   width="512"
   height="341.32599"
   inkscape:version="0.92.4 5da689c313, 2019-01-14"><metadata
   id="metadata97"><rdf:RDF><cc:Work
       rdf:about=""><dc:format>image/svg+xml</dc:format><dc:type
         rdf:resource="http://purl.org/dc/dcmitype/StillImage" /><dc:title></dc:title></cc:Work></rdf:RDF></metadata><defs
   id="defs95" /><sodipodi:namedview
   pagecolor="#ffffff"
   bordercolor="#666666"
   borderopacity="1"
   objecttolerance="10"
   gridtolerance="10"
   guidetolerance="10"
   inkscape:pageopacity="0"
   inkscape:pageshadow="2"
   inkscape:window-width="736"
   inkscape:window-height="480"
   id="namedview93"
   showgrid="false"
   fit-margin-top="0"
   fit-margin-left="0"
   fit-margin-right="0"
   fit-margin-bottom="0"
   inkscape:zoom="0.4609375"
   inkscape:cx="256"
   inkscape:cy="170.663"
   inkscape:window-x="0"
   inkscape:window-y="0"
   inkscape:window-maximized="0"
   inkscape:current-layer="Capa_1" />
<rect
   y="0"
   style="fill:#f0f0f0"
   width="512"
   height="341.32599"
   id="rect2"
   x="0" />
<rect
   y="0"
   style="fill:#6da544"
   width="512"
   height="113.775"
   id="rect4"
   x="0" />
<g
   id="g10"
   transform="translate(0,-85.336998)">
	<rect
   y="312.888"
   style="fill:#d80027"
   width="512"
   height="113.775"
   id="rect6"
   x="0" />
	<path
   style="fill:#d80027"
   d="m 300.345,220.383 h -17.863 c 0.148,1.963 0.232,3.944 0.232,5.936 0,13.207 -3.301,26.01 -9.057,35.122 -1.775,2.812 -4.759,6.78 -8.753,9.456 v -50.514 h -17.809 v 50.514 c -3.994,-2.677 -6.977,-6.646 -8.753,-9.456 -5.756,-9.113 -9.056,-21.915 -9.056,-35.122 0,-1.992 0.085,-3.974 0.232,-5.936 h -17.863 c -0.115,1.953 -0.177,3.932 -0.177,5.936 0.001,36.617 19.557,65.299 44.523,65.299 24.966,0 44.522,-28.682 44.522,-65.299 -0.001,-2.004 -0.064,-3.983 -0.178,-5.936 z"
   id="path8"
   inkscape:connector-curvature="0" />
</g>
<g
   id="g60"
   transform="translate(0,-85.336998)">
	<rect
   x="44.521999"
   y="184.27499"
   style="fill:#f0f0f0"
   width="22.261"
   height="24.421"
   id="rect12" />
	<rect
   y="184.27499"
   style="fill:#f0f0f0"
   width="22.261"
   height="24.421"
   id="rect14"
   x="0" />
	<rect
   x="89.042999"
   y="184.27499"
   style="fill:#f0f0f0"
   width="22.261"
   height="24.421"
   id="rect16" />
	<rect
   x="133.565"
   y="184.27499"
   style="fill:#f0f0f0"
   width="22.261"
   height="24.421"
   id="rect18" />
	<rect
   x="178.08701"
   y="184.27499"
   style="fill:#f0f0f0"
   width="22.261"
   height="24.421"
   id="rect20" />
	<rect
   x="222.60899"
   y="184.27499"
   style="fill:#f0f0f0"
   width="22.261"
   height="24.421"
   id="rect22" />
	<rect
   x="267.13"
   y="184.27499"
   style="fill:#f0f0f0"
   width="22.261"
   height="24.421"
   id="rect24" />
	<rect
   x="311.65201"
   y="184.27499"
   style="fill:#f0f0f0"
   width="22.261"
   height="24.421"
   id="rect26" />
	<rect
   x="356.17401"
   y="184.27499"
   style="fill:#f0f0f0"
   width="22.261"
   height="24.421"
   id="rect28" />
	<rect
   x="400.69601"
   y="184.27499"
   style="fill:#f0f0f0"
   width="22.261"
   height="24.421"
   id="rect30" />
	<rect
   x="445.21701"
   y="184.27499"
   style="fill:#f0f0f0"
   width="22.261"
   height="24.421"
   id="rect32" />
	<rect
   x="489.73901"
   y="184.27499"
   style="fill:#f0f0f0"
   width="22.261"
   height="24.421"
   id="rect34" />
	<rect
   x="44.521999"
   y="302.19101"
   style="fill:#f0f0f0"
   width="22.261"
   height="25.534"
   id="rect36" />
	<rect
   y="302.19101"
   style="fill:#f0f0f0"
   width="22.261"
   height="25.534"
   id="rect38"
   x="0" />
	<rect
   x="89.042999"
   y="302.19101"
   style="fill:#f0f0f0"
   width="22.261"
   height="25.534"
   id="rect40" />
	<rect
   x="133.565"
   y="302.19101"
   style="fill:#f0f0f0"
   width="22.261"
   height="25.534"
   id="rect42" />
	<rect
   x="178.08701"
   y="302.19101"
   style="fill:#f0f0f0"
   width="22.261"
   height="25.534"
   id="rect44" />
	<rect
   x="222.60899"
   y="302.19101"
   style="fill:#f0f0f0"
   width="22.261"
   height="25.534"
   id="rect46" />
	<rect
   x="267.13"
   y="302.19101"
   style="fill:#f0f0f0"
   width="22.261"
   height="25.534"
   id="rect48" />
	<rect
   x="311.65201"
   y="302.19101"
   style="fill:#f0f0f0"
   width="22.261"
   height="25.534"
   id="rect50" />
	<rect
   x="356.17401"
   y="302.19101"
   style="fill:#f0f0f0"
   width="22.261"
   height="25.534"
   id="rect52" />
	<rect
   x="400.69601"
   y="302.19101"
   style="fill:#f0f0f0"
   width="22.261"
   height="25.534"
   id="rect54" />
	<rect
   x="445.21701"
   y="302.19101"
   style="fill:#f0f0f0"
   width="22.261"
   height="25.534"
   id="rect56" />
	<rect
   x="489.73901"
   y="302.19101"
   style="fill:#f0f0f0"
   width="22.261"
   height="25.534"
   id="rect58" />
</g>
<g
   id="g62"
   transform="translate(0,-85.336998)">
</g>
<g
   id="g64"
   transform="translate(0,-85.336998)">
</g>
<g
   id="g66"
   transform="translate(0,-85.336998)">
</g>
<g
   id="g68"
   transform="translate(0,-85.336998)">
</g>
<g
   id="g70"
   transform="translate(0,-85.336998)">
</g>
<g
   id="g72"
   transform="translate(0,-85.336998)">
</g>
<g
   id="g74"
   transform="translate(0,-85.336998)">
</g>
<g
   id="g76"
   transform="translate(0,-85.336998)">
</g>
<g
   id="g78"
   transform="translate(0,-85.336998)">
</g>
<g
   id="g80"
   transform="translate(0,-85.336998)">
</g>
<g
   id="g82"
   transform="translate(0,-85.336998)">
</g>
<g
   id="g84"
   transform="translate(0,-85.336998)">
</g>
<g
   id="g86"
   transform="translate(0,-85.336998)">
</g>
<g
   id="g88"
   transform="translate(0,-85.336998)">
</g>
<g
   id="g90"
   transform="translate(0,-85.336998)">
</g>
</svg>