<?xml version="1.0" encoding="UTF-8" standalone="no"?>
<!-- Generator: Adobe Illustrator 19.0.0, SVG Export Plug-In . SVG Version: 6.00 Build 0)  -->

<svg
   xmlns:dc="http://purl.org/dc/elements/1.1/"
   xmlns:cc="http://creativecommons.org/ns#"
   xmlns:rdf="http://www.w3.org/1999/02/22-rdf-syntax-ns#"
   xmlns:svg="http://www.w3.org/2000/svg"
   xmlns="http://www.w3.org/2000/svg"
   xmlns:sodipodi="http://sodipodi.sourceforge.net/DTD/sodipodi-0.dtd"
   xmlns:inkscape="http://www.inkscape.org/namespaces/inkscape"
   version="1.1"
   id="Capa_1"
   x="0px"
   y="0px"
   viewBox="0 0 512 341.32599"
   xml:space="preserve"
   sodipodi:docname="IRQ.svg"
   width="512"
   height="341.32599"
   inkscape:version="0.92.4 5da689c313, 2019-01-14"><metadata
   id="metadata51"><rdf:RDF><cc:Work
       rdf:about=""><dc:format>image/svg+xml</dc:format><dc:type
         rdf:resource="http://purl.org/dc/dcmitype/StillImage" /><dc:title></dc:title></cc:Work></rdf:RDF></metadata><defs
   id="defs49" /><sodipodi:namedview
   pagecolor="#ffffff"
   bordercolor="#666666"
   borderopacity="1"
   objecttolerance="10"
   gridtolerance="10"
   guidetolerance="10"
   inkscape:pageopacity="0"
   inkscape:pageshadow="2"
   inkscape:window-width="736"
   inkscape:window-height="480"
   id="namedview47"
   showgrid="false"
   fit-margin-top="0"
   fit-margin-left="0"
   fit-margin-right="0"
   fit-margin-bottom="0"
   inkscape:zoom="0.4609375"
   inkscape:cx="256"
   inkscape:cy="170.663"
   inkscape:window-x="0"
   inkscape:window-y="0"
   inkscape:window-maximized="0"
   inkscape:current-layer="Capa_1" />
<rect
   y="0"
   style="fill:#f0f0f0"
   width="512"
   height="341.32599"
   id="rect2"
   x="0" />
<rect
   y="0"
   style="fill:#a2001d"
   width="512"
   height="113.775"
   id="rect4"
   x="0" />
<rect
   y="227.55099"
   width="512"
   height="113.775"
   id="rect6"
   x="0" />
<g
   id="g14"
   transform="translate(0,-85.336998)">
	<path
   style="fill:#496e2d"
   d="m 219.186,246.069 c -0.083,0 -0.165,0.006 -0.248,0.007 v -0.007 H 189.83 c 1.476,-5.702 6.649,-9.931 12.806,-9.931 v -19.863 c -18.254,0 -33.103,14.85 -33.103,33.103 v 16.22 0.331 h 49.407 c 0.111,0 0.2,0 0.248,0 1.825,0 3.31,1.485 3.31,3.31 v 6.62 H 156.29 v 19.862 h 86.069 V 269.24 c 0,-12.776 -10.395,-23.171 -23.173,-23.171 z"
   id="path8"
   inkscape:connector-curvature="0" />
	<polygon
   style="fill:#496e2d"
   points="248.98,216.275 248.98,295.724 282.083,295.724 282.083,275.862 268.841,275.862 268.841,216.275 "
   id="polygon10" />
	<polygon
   style="fill:#496e2d"
   points="315.186,216.275 315.186,275.862 308.566,275.862 308.566,256.001 288.703,256.001 288.703,295.724 348.29,295.724 348.29,275.862 335.048,275.862 335.048,216.275 "
   id="polygon12" />
</g>
<g
   id="g16"
   transform="translate(0,-85.336998)">
</g>
<g
   id="g18"
   transform="translate(0,-85.336998)">
</g>
<g
   id="g20"
   transform="translate(0,-85.336998)">
</g>
<g
   id="g22"
   transform="translate(0,-85.336998)">
</g>
<g
   id="g24"
   transform="translate(0,-85.336998)">
</g>
<g
   id="g26"
   transform="translate(0,-85.336998)">
</g>
<g
   id="g28"
   transform="translate(0,-85.336998)">
</g>
<g
   id="g30"
   transform="translate(0,-85.336998)">
</g>
<g
   id="g32"
   transform="translate(0,-85.336998)">
</g>
<g
   id="g34"
   transform="translate(0,-85.336998)">
</g>
<g
   id="g36"
   transform="translate(0,-85.336998)">
</g>
<g
   id="g38"
   transform="translate(0,-85.336998)">
</g>
<g
   id="g40"
   transform="translate(0,-85.336998)">
</g>
<g
   id="g42"
   transform="translate(0,-85.336998)">
</g>
<g
   id="g44"
   transform="translate(0,-85.336998)">
</g>
</svg>