<?xml version="1.0" encoding="UTF-8" standalone="no"?>
<!-- Generator: Adobe Illustrator 19.0.0, SVG Export Plug-In . SVG Version: 6.00 Build 0)  -->

<svg
   xmlns:dc="http://purl.org/dc/elements/1.1/"
   xmlns:cc="http://creativecommons.org/ns#"
   xmlns:rdf="http://www.w3.org/1999/02/22-rdf-syntax-ns#"
   xmlns:svg="http://www.w3.org/2000/svg"
   xmlns="http://www.w3.org/2000/svg"
   xmlns:sodipodi="http://sodipodi.sourceforge.net/DTD/sodipodi-0.dtd"
   xmlns:inkscape="http://www.inkscape.org/namespaces/inkscape"
   version="1.1"
   id="Capa_1"
   x="0px"
   y="0px"
   viewBox="0 0 512 341.33701"
   xml:space="preserve"
   sodipodi:docname="JAM.svg"
   width="512"
   height="341.33701"
   inkscape:version="0.92.4 5da689c313, 2019-01-14"><metadata
   id="metadata47"><rdf:RDF><cc:Work
       rdf:about=""><dc:format>image/svg+xml</dc:format><dc:type
         rdf:resource="http://purl.org/dc/dcmitype/StillImage" /><dc:title></dc:title></cc:Work></rdf:RDF></metadata><defs
   id="defs45" /><sodipodi:namedview
   pagecolor="#ffffff"
   bordercolor="#666666"
   borderopacity="1"
   objecttolerance="10"
   gridtolerance="10"
   guidetolerance="10"
   inkscape:pageopacity="0"
   inkscape:pageshadow="2"
   inkscape:window-width="736"
   inkscape:window-height="480"
   id="namedview43"
   showgrid="false"
   fit-margin-top="0"
   fit-margin-left="0"
   fit-margin-right="0"
   fit-margin-bottom="0"
   inkscape:zoom="0.4609375"
   inkscape:cx="256"
   inkscape:cy="170.668"
   inkscape:window-x="0"
   inkscape:window-y="0"
   inkscape:window-maximized="0"
   inkscape:current-layer="Capa_1" />
<rect
   y="0.0059979861"
   style="fill:#6da544"
   width="512"
   height="341.32599"
   id="rect2"
   x="0" />
<polygon
   points="0,112.089 215.864,256.006 0,399.911 "
   id="polygon4"
   transform="translate(0,-85.331)" />
<polygon
   points="296.136,256.006 512,112.089 512,399.911 "
   id="polygon6"
   transform="translate(0,-85.331)" />
<polygon
   style="fill:#0052b4"
   points="512,399.911 512,426.668 471.875,426.668 256,282.752 40.125,426.668 0,426.668 0,399.911 215.864,256.006 0,112.089 0,85.331 40.125,85.331 256,229.248 471.875,85.331 512,85.331 512,112.089 296.136,256.006 "
   id="polygon8"
   transform="translate(0,-85.331)" />
<polygon
   style="fill:#ffda44"
   points="512,399.911 512,426.668 471.875,426.668 256,282.752 40.125,426.668 0,426.668 0,399.911 215.864,256.006 0,112.089 0,85.331 40.125,85.331 256,229.248 471.875,85.331 512,85.331 512,112.089 296.136,256.006 "
   id="polygon10"
   transform="translate(0,-85.331)" />
<g
   id="g12"
   transform="translate(0,-85.331)">
</g>
<g
   id="g14"
   transform="translate(0,-85.331)">
</g>
<g
   id="g16"
   transform="translate(0,-85.331)">
</g>
<g
   id="g18"
   transform="translate(0,-85.331)">
</g>
<g
   id="g20"
   transform="translate(0,-85.331)">
</g>
<g
   id="g22"
   transform="translate(0,-85.331)">
</g>
<g
   id="g24"
   transform="translate(0,-85.331)">
</g>
<g
   id="g26"
   transform="translate(0,-85.331)">
</g>
<g
   id="g28"
   transform="translate(0,-85.331)">
</g>
<g
   id="g30"
   transform="translate(0,-85.331)">
</g>
<g
   id="g32"
   transform="translate(0,-85.331)">
</g>
<g
   id="g34"
   transform="translate(0,-85.331)">
</g>
<g
   id="g36"
   transform="translate(0,-85.331)">
</g>
<g
   id="g38"
   transform="translate(0,-85.331)">
</g>
<g
   id="g40"
   transform="translate(0,-85.331)">
</g>
</svg>