<?xml version="1.0" encoding="UTF-8" standalone="no"?>
<!-- Generator: Adobe Illustrator 19.0.0, SVG Export Plug-In . SVG Version: 6.00 Build 0)  -->

<svg
   xmlns:dc="http://purl.org/dc/elements/1.1/"
   xmlns:cc="http://creativecommons.org/ns#"
   xmlns:rdf="http://www.w3.org/1999/02/22-rdf-syntax-ns#"
   xmlns:svg="http://www.w3.org/2000/svg"
   xmlns="http://www.w3.org/2000/svg"
   xmlns:sodipodi="http://sodipodi.sourceforge.net/DTD/sodipodi-0.dtd"
   xmlns:inkscape="http://www.inkscape.org/namespaces/inkscape"
   version="1.1"
   id="Capa_1"
   x="0px"
   y="0px"
   viewBox="0 0 512 341.33801"
   xml:space="preserve"
   sodipodi:docname="JOR.svg"
   width="512"
   height="341.33801"
   inkscape:version="0.92.4 5da689c313, 2019-01-14"><metadata
   id="metadata47"><rdf:RDF><cc:Work
       rdf:about=""><dc:format>image/svg+xml</dc:format><dc:type
         rdf:resource="http://purl.org/dc/dcmitype/StillImage" /><dc:title></dc:title></cc:Work></rdf:RDF></metadata><defs
   id="defs45" /><sodipodi:namedview
   pagecolor="#ffffff"
   bordercolor="#666666"
   borderopacity="1"
   objecttolerance="10"
   gridtolerance="10"
   guidetolerance="10"
   inkscape:pageopacity="0"
   inkscape:pageshadow="2"
   inkscape:window-width="736"
   inkscape:window-height="480"
   id="namedview43"
   showgrid="false"
   fit-margin-top="0"
   fit-margin-left="0"
   fit-margin-right="0"
   fit-margin-bottom="0"
   inkscape:zoom="0.4609375"
   inkscape:cx="256"
   inkscape:cy="170.669"
   inkscape:window-x="0"
   inkscape:window-y="0"
   inkscape:window-maximized="0"
   inkscape:current-layer="Capa_1" />
<rect
   y="0.007996887"
   style="fill:#f0f0f0"
   width="512"
   height="341.32599"
   id="rect2"
   x="0" />
<rect
   y="0.007996887"
   width="512"
   height="113.775"
   id="rect4"
   x="0" />
<rect
   y="227.55902"
   style="fill:#6da544"
   width="512"
   height="113.775"
   id="rect6"
   x="0" />
<polygon
   style="fill:#d80027"
   points="0,85.331 256,256.006 0,426.669 "
   id="polygon8"
   transform="translate(0,-85.331)" />
<polygon
   style="fill:#f0f0f0"
   points="103.575,237.161 95.61,253.587 109.913,264.93 92.105,268.944 92.154,287.199 77.913,275.778 63.672,287.199 63.722,268.944 45.913,264.93 60.216,253.587 52.251,237.161 70.037,241.271 77.913,224.802 85.789,241.271 "
   id="polygon10"
   transform="translate(0,-85.331)" />
<g
   id="g12"
   transform="translate(0,-85.331)">
</g>
<g
   id="g14"
   transform="translate(0,-85.331)">
</g>
<g
   id="g16"
   transform="translate(0,-85.331)">
</g>
<g
   id="g18"
   transform="translate(0,-85.331)">
</g>
<g
   id="g20"
   transform="translate(0,-85.331)">
</g>
<g
   id="g22"
   transform="translate(0,-85.331)">
</g>
<g
   id="g24"
   transform="translate(0,-85.331)">
</g>
<g
   id="g26"
   transform="translate(0,-85.331)">
</g>
<g
   id="g28"
   transform="translate(0,-85.331)">
</g>
<g
   id="g30"
   transform="translate(0,-85.331)">
</g>
<g
   id="g32"
   transform="translate(0,-85.331)">
</g>
<g
   id="g34"
   transform="translate(0,-85.331)">
</g>
<g
   id="g36"
   transform="translate(0,-85.331)">
</g>
<g
   id="g38"
   transform="translate(0,-85.331)">
</g>
<g
   id="g40"
   transform="translate(0,-85.331)">
</g>
</svg>