<?xml version="1.0" encoding="UTF-8" standalone="no"?>
<!-- Generator: Adobe Illustrator 19.0.0, SVG Export Plug-In . SVG Version: 6.00 Build 0)  -->

<svg
   xmlns:dc="http://purl.org/dc/elements/1.1/"
   xmlns:cc="http://creativecommons.org/ns#"
   xmlns:rdf="http://www.w3.org/1999/02/22-rdf-syntax-ns#"
   xmlns:svg="http://www.w3.org/2000/svg"
   xmlns="http://www.w3.org/2000/svg"
   xmlns:sodipodi="http://sodipodi.sourceforge.net/DTD/sodipodi-0.dtd"
   xmlns:inkscape="http://www.inkscape.org/namespaces/inkscape"
   version="1.1"
   id="Capa_1"
   x="0px"
   y="0px"
   viewBox="0 0 512 341.33701"
   xml:space="preserve"
   sodipodi:docname="KAZ.svg"
   width="512"
   height="341.33701"
   inkscape:version="0.92.4 5da689c313, 2019-01-14"><metadata
   id="metadata45"><rdf:RDF><cc:Work
       rdf:about=""><dc:format>image/svg+xml</dc:format><dc:type
         rdf:resource="http://purl.org/dc/dcmitype/StillImage" /><dc:title></dc:title></cc:Work></rdf:RDF></metadata><defs
   id="defs43" /><sodipodi:namedview
   pagecolor="#ffffff"
   bordercolor="#666666"
   borderopacity="1"
   objecttolerance="10"
   gridtolerance="10"
   guidetolerance="10"
   inkscape:pageopacity="0"
   inkscape:pageshadow="2"
   inkscape:window-width="736"
   inkscape:window-height="480"
   id="namedview41"
   showgrid="false"
   fit-margin-top="0"
   fit-margin-left="0"
   fit-margin-right="0"
   fit-margin-bottom="0"
   inkscape:zoom="0.4609375"
   inkscape:cx="256"
   inkscape:cy="170.66801"
   inkscape:window-x="0"
   inkscape:window-y="0"
   inkscape:window-maximized="0"
   inkscape:current-layer="Capa_1" />
<rect
   y="0"
   style="fill:#338af3"
   width="512"
   height="341.33701"
   id="rect2"
   x="0" />
<path
   style="fill:#ffda44"
   d="M 352,180.437 H 160 c 0,13.255 11.544,23.999 24.799,23.999 H 184 c 0,13.255 10.744,24.001 24.001,24.001 0,13.255 10.744,24.001 24.001,24.001 h 48 c 13.255,0 24.001,-10.744 24.001,-24.001 13.255,0 24.001,-10.744 24.001,-24.001 h -0.799 c 13.249,0 24.795,-10.744 24.795,-23.999 z"
   id="path4"
   inkscape:connector-curvature="0" />
<path
   style="fill:#338af3"
   d="m 322.462,149.053 c 0,36.705 -29.756,66.462 -66.462,66.462 -36.706,0 -66.462,-29.756 -66.462,-66.462"
   id="path6"
   inkscape:connector-curvature="0" />
<polygon
   style="fill:#ffda44"
   points="309.297,261.503 280.065,256.689 276.361,282.104 256,263.412 235.638,282.104 231.935,256.689 202.703,261.501 217.037,239.061 190.118,228.163 217.038,217.264 202.703,194.825 231.934,199.638 235.639,174.221 256,192.915 276.362,174.221 280.065,199.638 309.298,194.825 294.963,217.265 321.882,228.163 294.962,239.062 "
   id="polygon8"
   transform="translate(0,-85.331001)" />
<g
   id="g10"
   transform="translate(0,-85.331001)">
</g>
<g
   id="g12"
   transform="translate(0,-85.331001)">
</g>
<g
   id="g14"
   transform="translate(0,-85.331001)">
</g>
<g
   id="g16"
   transform="translate(0,-85.331001)">
</g>
<g
   id="g18"
   transform="translate(0,-85.331001)">
</g>
<g
   id="g20"
   transform="translate(0,-85.331001)">
</g>
<g
   id="g22"
   transform="translate(0,-85.331001)">
</g>
<g
   id="g24"
   transform="translate(0,-85.331001)">
</g>
<g
   id="g26"
   transform="translate(0,-85.331001)">
</g>
<g
   id="g28"
   transform="translate(0,-85.331001)">
</g>
<g
   id="g30"
   transform="translate(0,-85.331001)">
</g>
<g
   id="g32"
   transform="translate(0,-85.331001)">
</g>
<g
   id="g34"
   transform="translate(0,-85.331001)">
</g>
<g
   id="g36"
   transform="translate(0,-85.331001)">
</g>
<g
   id="g38"
   transform="translate(0,-85.331001)">
</g>
</svg>