<?xml version="1.0" encoding="UTF-8" standalone="no"?>
<!-- Generator: Adobe Illustrator 19.0.0, SVG Export Plug-In . SVG Version: 6.00 Build 0)  -->

<svg
   xmlns:dc="http://purl.org/dc/elements/1.1/"
   xmlns:cc="http://creativecommons.org/ns#"
   xmlns:rdf="http://www.w3.org/1999/02/22-rdf-syntax-ns#"
   xmlns:svg="http://www.w3.org/2000/svg"
   xmlns="http://www.w3.org/2000/svg"
   xmlns:sodipodi="http://sodipodi.sourceforge.net/DTD/sodipodi-0.dtd"
   xmlns:inkscape="http://www.inkscape.org/namespaces/inkscape"
   version="1.1"
   id="Capa_1"
   x="0px"
   y="0px"
   viewBox="0 0 512 341.33701"
   xml:space="preserve"
   sodipodi:docname="KEN.svg"
   width="512"
   height="341.33701"
   inkscape:version="0.92.4 5da689c313, 2019-01-14"><metadata
   id="metadata61"><rdf:RDF><cc:Work
       rdf:about=""><dc:format>image/svg+xml</dc:format><dc:type
         rdf:resource="http://purl.org/dc/dcmitype/StillImage" /><dc:title></dc:title></cc:Work></rdf:RDF></metadata><defs
   id="defs59" /><sodipodi:namedview
   pagecolor="#ffffff"
   bordercolor="#666666"
   borderopacity="1"
   objecttolerance="10"
   gridtolerance="10"
   guidetolerance="10"
   inkscape:pageopacity="0"
   inkscape:pageshadow="2"
   inkscape:window-width="736"
   inkscape:window-height="480"
   id="namedview57"
   showgrid="false"
   fit-margin-top="0"
   fit-margin-left="0"
   fit-margin-right="0"
   fit-margin-bottom="0"
   inkscape:zoom="0.4609375"
   inkscape:cx="256"
   inkscape:cy="170.66801"
   inkscape:window-x="0"
   inkscape:window-y="0"
   inkscape:window-maximized="0"
   inkscape:current-layer="Capa_1" />
<rect
   y="0"
   style="fill:#f0f0f0"
   width="512"
   height="341.33701"
   id="rect2"
   x="0" />
<rect
   y="0"
   width="512"
   height="90.579002"
   id="rect4"
   x="0" />
<rect
   y="250.758"
   style="fill:#496e2d"
   width="512"
   height="90.568001"
   id="rect6"
   x="0" />
<rect
   y="113.275"
   style="fill:#a2001d"
   width="512"
   height="114.799"
   id="rect8"
   x="0" />
<g
   id="g14"
   transform="translate(0,-85.331001)">
	<polygon
   style="fill:#f0f0f0"
   points="256,222.376 214.318,127.994 188.735,139.803 240.484,255.994 188.735,372.186 214.318,383.994 256,289.613 297.682,383.994 323.265,372.186 271.516,255.994 323.265,139.803 297.682,127.994 "
   id="polygon10" />
	<path
   style="fill:#f0f0f0"
   d="M 273.376,150.931 C 263.472,140.115 256,133.898 256,133.898 c 0,0 -7.472,6.216 -17.376,17.032 v 210.127 c 9.904,10.816 17.376,17.034 17.376,17.034 0,0 7.472,-6.216 17.376,-17.033 z"
   id="path12"
   inkscape:connector-curvature="0" />
</g>
<g
   id="g20"
   transform="translate(0,-85.331001)">
	<path
   style="fill:#a2001d"
   d="m 209.04,191.226 v 129.535 c 10.465,18.542 23.274,33.742 32.872,43.818 V 147.408 c -9.599,10.076 -22.408,25.275 -32.872,43.818 z"
   id="path16"
   inkscape:connector-curvature="0" />
	<path
   style="fill:#a2001d"
   d="M 302.96,191.226 C 292.495,172.683 279.686,157.484 270.088,147.408 V 364.58 c 9.599,-10.077 22.407,-25.276 32.872,-43.818 z"
   id="path18"
   inkscape:connector-curvature="0" />
</g>
<path
   d="M 302.96,105.895 V 235.43 c 10.594,-18.774 18.784,-40.973 18.784,-64.767 0,-23.794 -8.19,-45.993 -18.784,-64.768 z"
   id="path22"
   inkscape:connector-curvature="0" />
<path
   d="M 209.04,105.895 V 235.43 c -10.594,-18.774 -18.784,-40.973 -18.784,-64.767 0,-23.794 8.19,-45.993 18.784,-64.768 z"
   id="path24"
   inkscape:connector-curvature="0" />
<g
   id="g26"
   transform="translate(0,-85.331001)">
</g>
<g
   id="g28"
   transform="translate(0,-85.331001)">
</g>
<g
   id="g30"
   transform="translate(0,-85.331001)">
</g>
<g
   id="g32"
   transform="translate(0,-85.331001)">
</g>
<g
   id="g34"
   transform="translate(0,-85.331001)">
</g>
<g
   id="g36"
   transform="translate(0,-85.331001)">
</g>
<g
   id="g38"
   transform="translate(0,-85.331001)">
</g>
<g
   id="g40"
   transform="translate(0,-85.331001)">
</g>
<g
   id="g42"
   transform="translate(0,-85.331001)">
</g>
<g
   id="g44"
   transform="translate(0,-85.331001)">
</g>
<g
   id="g46"
   transform="translate(0,-85.331001)">
</g>
<g
   id="g48"
   transform="translate(0,-85.331001)">
</g>
<g
   id="g50"
   transform="translate(0,-85.331001)">
</g>
<g
   id="g52"
   transform="translate(0,-85.331001)">
</g>
<g
   id="g54"
   transform="translate(0,-85.331001)">
</g>
</svg>