<?xml version="1.0" encoding="UTF-8" standalone="no"?>
<!-- Generator: Adobe Illustrator 19.0.0, SVG Export Plug-In . SVG Version: 6.00 Build 0)  -->

<svg
   xmlns:dc="http://purl.org/dc/elements/1.1/"
   xmlns:cc="http://creativecommons.org/ns#"
   xmlns:rdf="http://www.w3.org/1999/02/22-rdf-syntax-ns#"
   xmlns:svg="http://www.w3.org/2000/svg"
   xmlns="http://www.w3.org/2000/svg"
   xmlns:sodipodi="http://sodipodi.sourceforge.net/DTD/sodipodi-0.dtd"
   xmlns:inkscape="http://www.inkscape.org/namespaces/inkscape"
   version="1.1"
   id="Capa_1"
   x="0px"
   y="0px"
   viewBox="0 0 512 341.34"
   xml:space="preserve"
   sodipodi:docname="KNA.svg"
   width="512"
   height="341.34"
   inkscape:version="0.92.4 5da689c313, 2019-01-14"><metadata
   id="metadata51"><rdf:RDF><cc:Work
       rdf:about=""><dc:format>image/svg+xml</dc:format><dc:type
         rdf:resource="http://purl.org/dc/dcmitype/StillImage" /><dc:title></dc:title></cc:Work></rdf:RDF></metadata><defs
   id="defs49" /><sodipodi:namedview
   pagecolor="#ffffff"
   bordercolor="#666666"
   borderopacity="1"
   objecttolerance="10"
   gridtolerance="10"
   guidetolerance="10"
   inkscape:pageopacity="0"
   inkscape:pageshadow="2"
   inkscape:window-width="736"
   inkscape:window-height="480"
   id="namedview47"
   showgrid="false"
   fit-margin-top="0"
   fit-margin-left="0"
   fit-margin-right="0"
   fit-margin-bottom="0"
   inkscape:zoom="0.4609375"
   inkscape:cx="256"
   inkscape:cy="170.67001"
   inkscape:window-x="0"
   inkscape:window-y="0"
   inkscape:window-maximized="0"
   inkscape:current-layer="Capa_1" />
<rect
   y="0.003000183"
   style="fill:#d80027"
   width="512"
   height="341.33701"
   id="rect2"
   x="0" />
<polyline
   style="fill:#6da544"
   points="512,85.33 0,85.33 0,426.663 "
   id="polyline4"
   transform="translate(0,-85.33)" />
<polygon
   style="fill:#ffda44"
   points="0,363.887 0,383.117 0,426.663 65.32,426.663 94.165,426.663 512,148.105 512,128.876 512,85.33 446.679,85.33 417.834,85.33 "
   id="polygon6"
   transform="translate(0,-85.33)" />
<polygon
   points="0,383.117 0,426.663 65.32,426.663 512,128.876 512,85.33 446.679,85.33 "
   id="polygon8"
   transform="translate(0,-85.33)" />
<g
   id="g14"
   transform="translate(0,-85.33)">
	<polygon
   style="fill:#f0f0f0"
   points="224.802,266.983 216.825,289.45 235.727,303.98 211.895,303.336 203.916,325.803 197.165,302.936 173.332,302.292 192.992,288.805 186.241,265.94 205.143,280.47 "
   id="polygon10" />
	<polygon
   style="fill:#f0f0f0"
   points="327.743,196.366 319.766,218.833 338.668,233.363 314.835,232.718 306.857,255.186 300.105,232.319 276.273,231.675 295.933,218.188 289.182,195.323 308.084,209.853 "
   id="polygon12" />
</g>
<g
   id="g16"
   transform="translate(0,-85.33)">
</g>
<g
   id="g18"
   transform="translate(0,-85.33)">
</g>
<g
   id="g20"
   transform="translate(0,-85.33)">
</g>
<g
   id="g22"
   transform="translate(0,-85.33)">
</g>
<g
   id="g24"
   transform="translate(0,-85.33)">
</g>
<g
   id="g26"
   transform="translate(0,-85.33)">
</g>
<g
   id="g28"
   transform="translate(0,-85.33)">
</g>
<g
   id="g30"
   transform="translate(0,-85.33)">
</g>
<g
   id="g32"
   transform="translate(0,-85.33)">
</g>
<g
   id="g34"
   transform="translate(0,-85.33)">
</g>
<g
   id="g36"
   transform="translate(0,-85.33)">
</g>
<g
   id="g38"
   transform="translate(0,-85.33)">
</g>
<g
   id="g40"
   transform="translate(0,-85.33)">
</g>
<g
   id="g42"
   transform="translate(0,-85.33)">
</g>
<g
   id="g44"
   transform="translate(0,-85.33)">
</g>
</svg>