<?xml version="1.0" encoding="UTF-8" standalone="no"?>
<!-- Generator: Adobe Illustrator 19.0.0, SVG Export Plug-In . SVG Version: 6.00 Build 0)  -->

<svg
   xmlns:dc="http://purl.org/dc/elements/1.1/"
   xmlns:cc="http://creativecommons.org/ns#"
   xmlns:rdf="http://www.w3.org/1999/02/22-rdf-syntax-ns#"
   xmlns:svg="http://www.w3.org/2000/svg"
   xmlns="http://www.w3.org/2000/svg"
   xmlns:sodipodi="http://sodipodi.sourceforge.net/DTD/sodipodi-0.dtd"
   xmlns:inkscape="http://www.inkscape.org/namespaces/inkscape"
   version="1.1"
   id="Capa_1"
   x="0px"
   y="0px"
   viewBox="0 0 512 341.33701"
   xml:space="preserve"
   sodipodi:docname="KOR.svg"
   width="512"
   height="341.33701"
   inkscape:version="0.92.4 5da689c313, 2019-01-14"><metadata
   id="metadata79"><rdf:RDF><cc:Work
       rdf:about=""><dc:format>image/svg+xml</dc:format><dc:type
         rdf:resource="http://purl.org/dc/dcmitype/StillImage" /><dc:title></dc:title></cc:Work></rdf:RDF></metadata><defs
   id="defs77" /><sodipodi:namedview
   pagecolor="#ffffff"
   bordercolor="#666666"
   borderopacity="1"
   objecttolerance="10"
   gridtolerance="10"
   guidetolerance="10"
   inkscape:pageopacity="0"
   inkscape:pageshadow="2"
   inkscape:window-width="736"
   inkscape:window-height="480"
   id="namedview75"
   showgrid="false"
   fit-margin-top="0"
   fit-margin-left="0"
   fit-margin-right="0"
   fit-margin-bottom="0"
   inkscape:zoom="0.4609375"
   inkscape:cx="256"
   inkscape:cy="170.66801"
   inkscape:window-x="0"
   inkscape:window-y="0"
   inkscape:window-maximized="0"
   inkscape:current-layer="Capa_1" />
<rect
   y="0"
   style="fill:#ffffff"
   width="512"
   height="341.33701"
   id="rect2"
   x="0" />
<path
   style="fill:#d80027"
   d="m 318.33,170.663 c 0,15.583 -27.906,54.539 -62.33,54.539 -34.424,0 -62.33,-38.957 -62.33,-54.539 0,-34.424 27.906,-62.33 62.33,-62.33 34.424,0 62.33,27.906 62.33,62.33 z"
   id="path4"
   inkscape:connector-curvature="0" />
<path
   style="fill:#0052b4"
   d="m 318.33,170.663 c 0,34.424 -27.906,62.33 -62.33,62.33 -34.424,0 -62.33,-27.906 -62.33,-62.33"
   id="path6"
   inkscape:connector-curvature="0" />
<rect
   x="68.129166"
   y="387.40903"
   transform="rotate(-45)"
   width="23.373775"
   height="15.58185"
   id="rect8"
   style="stroke-width:0.9999904" />
<rect
   x="29.179787"
   y="387.39969"
   transform="rotate(-45)"
   width="23.373775"
   height="15.58185"
   id="rect10"
   style="stroke-width:0.9999904" />
<rect
   x="68.142822"
   y="434.14273"
   transform="rotate(-45)"
   width="23.373775"
   height="15.58185"
   id="rect12"
   style="stroke-width:0.9999904" />
<rect
   x="29.177645"
   y="434.1488"
   transform="rotate(-45)"
   width="23.373775"
   height="15.58185"
   id="rect14"
   style="stroke-width:0.9999904" />
<rect
   x="68.13546"
   y="410.77591"
   transform="rotate(-45)"
   width="23.373775"
   height="15.58185"
   id="rect16"
   style="stroke-width:0.9999904" />
<rect
   x="29.179203"
   y="410.77426"
   transform="rotate(-45)"
   width="23.373775"
   height="15.58185"
   id="rect18"
   style="stroke-width:0.9999904" />
<rect
   x="-332.86511"
   y="169.43118"
   transform="rotate(-135)"
   width="62.329403"
   height="15.58185"
   id="rect20"
   style="stroke-width:0.9999904" />
<rect
   x="-293.90829"
   y="146.05168"
   transform="rotate(-135)"
   width="23.373775"
   height="15.580851"
   id="rect22"
   style="stroke-width:0.9999904" />
<rect
   x="-332.86002"
   y="146.04199"
   transform="rotate(-135)"
   width="23.373775"
   height="15.580851"
   id="rect24"
   style="stroke-width:0.9999904" />
<rect
   x="-293.89392"
   y="192.78635"
   transform="rotate(-135)"
   width="23.373775"
   height="15.58185"
   id="rect26"
   style="stroke-width:0.9999904" />
<rect
   x="-332.86166"
   y="192.79335"
   transform="rotate(-135)"
   width="23.373775"
   height="15.58185"
   id="rect28"
   style="stroke-width:0.9999904" />
<rect
   x="270.53143"
   y="72.103905"
   transform="rotate(45)"
   width="62.329403"
   height="15.58185"
   id="rect30"
   style="stroke-width:0.9999904" />
<rect
   x="309.48032"
   y="48.745182"
   transform="rotate(45)"
   width="23.373775"
   height="15.580851"
   id="rect32"
   style="stroke-width:0.9999904" />
<rect
   x="270.5303"
   y="48.736706"
   transform="rotate(45)"
   width="23.373775"
   height="15.58185"
   id="rect34"
   style="stroke-width:0.9999904" />
<rect
   x="270.53592"
   y="25.364103"
   transform="rotate(45)"
   width="62.329403"
   height="15.58185"
   id="rect36"
   style="stroke-width:0.9999904" />
<rect
   x="-91.519531"
   y="-169.23935"
   transform="rotate(135)"
   width="62.329403"
   height="15.58185"
   id="rect38"
   style="stroke-width:0.9999904" />
<rect
   x="-91.502029"
   y="-192.60701"
   transform="rotate(135)"
   width="62.329403"
   height="15.58185"
   id="rect40"
   style="stroke-width:0.9999904" />
<rect
   x="-91.502151"
   y="-215.98169"
   transform="rotate(135)"
   width="62.329403"
   height="15.580851"
   id="rect42"
   style="stroke-width:0.9999904" />
<g
   id="g44"
   transform="translate(0,-85.331001)">
</g>
<g
   id="g46"
   transform="translate(0,-85.331001)">
</g>
<g
   id="g48"
   transform="translate(0,-85.331001)">
</g>
<g
   id="g50"
   transform="translate(0,-85.331001)">
</g>
<g
   id="g52"
   transform="translate(0,-85.331001)">
</g>
<g
   id="g54"
   transform="translate(0,-85.331001)">
</g>
<g
   id="g56"
   transform="translate(0,-85.331001)">
</g>
<g
   id="g58"
   transform="translate(0,-85.331001)">
</g>
<g
   id="g60"
   transform="translate(0,-85.331001)">
</g>
<g
   id="g62"
   transform="translate(0,-85.331001)">
</g>
<g
   id="g64"
   transform="translate(0,-85.331001)">
</g>
<g
   id="g66"
   transform="translate(0,-85.331001)">
</g>
<g
   id="g68"
   transform="translate(0,-85.331001)">
</g>
<g
   id="g70"
   transform="translate(0,-85.331001)">
</g>
<g
   id="g72"
   transform="translate(0,-85.331001)">
</g>
</svg>