<?xml version="1.0" encoding="UTF-8" standalone="no"?>
<!-- Generator: Adobe Illustrator 19.0.0, SVG Export Plug-In . SVG Version: 6.00 Build 0)  -->

<svg
   xmlns:dc="http://purl.org/dc/elements/1.1/"
   xmlns:cc="http://creativecommons.org/ns#"
   xmlns:rdf="http://www.w3.org/1999/02/22-rdf-syntax-ns#"
   xmlns:svg="http://www.w3.org/2000/svg"
   xmlns="http://www.w3.org/2000/svg"
   xmlns:sodipodi="http://sodipodi.sourceforge.net/DTD/sodipodi-0.dtd"
   xmlns:inkscape="http://www.inkscape.org/namespaces/inkscape"
   version="1.1"
   id="Capa_1"
   x="0px"
   y="0px"
   viewBox="0 0 512 341.34201"
   xml:space="preserve"
   sodipodi:docname="LKA.svg"
   width="512"
   height="341.34201"
   inkscape:version="0.92.4 5da689c313, 2019-01-14"><metadata
   id="metadata63"><rdf:RDF><cc:Work
       rdf:about=""><dc:format>image/svg+xml</dc:format><dc:type
         rdf:resource="http://purl.org/dc/dcmitype/StillImage" /><dc:title></dc:title></cc:Work></rdf:RDF></metadata><defs
   id="defs61" /><sodipodi:namedview
   pagecolor="#ffffff"
   bordercolor="#666666"
   borderopacity="1"
   objecttolerance="10"
   gridtolerance="10"
   guidetolerance="10"
   inkscape:pageopacity="0"
   inkscape:pageshadow="2"
   inkscape:window-width="736"
   inkscape:window-height="480"
   id="namedview59"
   showgrid="false"
   fit-margin-top="0"
   fit-margin-left="0"
   fit-margin-right="0"
   fit-margin-bottom="0"
   inkscape:zoom="0.4609375"
   inkscape:cx="256"
   inkscape:cy="170.67101"
   inkscape:window-x="0"
   inkscape:window-y="0"
   inkscape:window-maximized="0"
   inkscape:current-layer="Capa_1" />
<path
   style="fill:#ffda44"
   d="M 0,0 V 341.337 H 512 V 0 Z M 489.739,319.076 H 222.609 V 22.261 h 267.13 z"
   id="path2"
   inkscape:connector-curvature="0" />
<rect
   x="222.60899"
   y="22.266001"
   style="fill:#a2001d"
   width="267.13"
   height="296.815"
   id="rect4" />
<rect
   x="22.261"
   y="22.266001"
   style="fill:#d80027"
   width="200.34801"
   height="296.815"
   id="rect6" />
<rect
   x="200.34801"
   y="0.0049996339"
   style="fill:#ffda44"
   width="22.261"
   height="341.33701"
   id="rect8" />
<rect
   x="22.261"
   y="22.266001"
   style="fill:#6da544"
   width="89.042999"
   height="296.815"
   id="rect10" />
<rect
   x="111.304"
   y="22.266001"
   style="fill:#ff9811"
   width="89.042999"
   height="296.815"
   id="rect12" />
<g
   id="g26"
   transform="translate(0,-85.329)">
	<path
   style="fill:#ffda44"
   d="m 358.675,250.438 v -44.522 c 0,-7.424 -11.13,-14.848 -11.13,-14.848 0,0 -11.13,7.424 -11.13,14.848 h -44.522 v 44.522 h 22.261 v 22.261 c 0,4.875 0.979,9.539 2.76,13.768 L 306.73,294.96 H 277.056 V 157.677 c -12.299,0 -22.261,9.973 -22.261,22.261 v 96.467 c 0,6.589 2.861,12.511 7.413,16.584 v 35.361 h 14.848 v -18.554 h 66.783 v 29.685 H 328.99 v 14.837 h 29.685 v -29.685 l 13.601,-14.837 h 44.288 v 29.685 h -14.848 v 14.837 h 29.685 v -29.685 l 13.601,-14.837 12.552,-40.259 -11.038,-19.1 h -38.945 c -14.169,-0.122 -40.637,0.09 -48.896,10e-4 z"
   id="path14"
   inkscape:connector-curvature="0" />
	<polygon
   style="fill:#ffda44"
   points="442.064,237.073 442.064,250.438 446.516,250.438 446.516,232.621 375.003,232.621 375.003,216.296 450.968,216.296 450.968,211.844 370.551,211.844 370.551,237.073 "
   id="polygon16" />
	<rect
   x="222.60899"
   y="107.595"
   style="fill:#ffda44"
   width="22.261"
   height="22.261"
   id="rect18" />
	<rect
   x="467.478"
   y="107.595"
   style="fill:#ffda44"
   width="22.261"
   height="22.261"
   id="rect20" />
	<rect
   x="222.60899"
   y="382.138"
   style="fill:#ffda44"
   width="22.261"
   height="22.261"
   id="rect22" />
	<rect
   x="467.478"
   y="382.138"
   style="fill:#ffda44"
   width="22.261"
   height="22.261"
   id="rect24" />
</g>
<g
   id="g28"
   transform="translate(0,-85.329)">
</g>
<g
   id="g30"
   transform="translate(0,-85.329)">
</g>
<g
   id="g32"
   transform="translate(0,-85.329)">
</g>
<g
   id="g34"
   transform="translate(0,-85.329)">
</g>
<g
   id="g36"
   transform="translate(0,-85.329)">
</g>
<g
   id="g38"
   transform="translate(0,-85.329)">
</g>
<g
   id="g40"
   transform="translate(0,-85.329)">
</g>
<g
   id="g42"
   transform="translate(0,-85.329)">
</g>
<g
   id="g44"
   transform="translate(0,-85.329)">
</g>
<g
   id="g46"
   transform="translate(0,-85.329)">
</g>
<g
   id="g48"
   transform="translate(0,-85.329)">
</g>
<g
   id="g50"
   transform="translate(0,-85.329)">
</g>
<g
   id="g52"
   transform="translate(0,-85.329)">
</g>
<g
   id="g54"
   transform="translate(0,-85.329)">
</g>
<g
   id="g56"
   transform="translate(0,-85.329)">
</g>
</svg>