<?xml version="1.0" encoding="UTF-8" standalone="no"?>
<!-- Generator: Adobe Illustrator 19.0.0, SVG Export Plug-In . SVG Version: 6.00 Build 0)  -->

<svg
   xmlns:dc="http://purl.org/dc/elements/1.1/"
   xmlns:cc="http://creativecommons.org/ns#"
   xmlns:rdf="http://www.w3.org/1999/02/22-rdf-syntax-ns#"
   xmlns:svg="http://www.w3.org/2000/svg"
   xmlns="http://www.w3.org/2000/svg"
   xmlns:sodipodi="http://sodipodi.sourceforge.net/DTD/sodipodi-0.dtd"
   xmlns:inkscape="http://www.inkscape.org/namespaces/inkscape"
   version="1.1"
   id="Capa_1"
   x="0px"
   y="0px"
   viewBox="0 0 512 341.32599"
   xml:space="preserve"
   sodipodi:docname="MAR.svg"
   width="512"
   height="341.32599"
   inkscape:version="0.92.4 5da689c313, 2019-01-14"><metadata
   id="metadata41"><rdf:RDF><cc:Work
       rdf:about=""><dc:format>image/svg+xml</dc:format><dc:type
         rdf:resource="http://purl.org/dc/dcmitype/StillImage" /><dc:title></dc:title></cc:Work></rdf:RDF></metadata><defs
   id="defs39" /><sodipodi:namedview
   pagecolor="#ffffff"
   bordercolor="#666666"
   borderopacity="1"
   objecttolerance="10"
   gridtolerance="10"
   guidetolerance="10"
   inkscape:pageopacity="0"
   inkscape:pageshadow="2"
   inkscape:window-width="736"
   inkscape:window-height="480"
   id="namedview37"
   showgrid="false"
   fit-margin-top="0"
   fit-margin-left="0"
   fit-margin-right="0"
   fit-margin-bottom="0"
   inkscape:zoom="0.4609375"
   inkscape:cx="256"
   inkscape:cy="170.663"
   inkscape:window-x="0"
   inkscape:window-y="0"
   inkscape:window-maximized="0"
   inkscape:current-layer="Capa_1" />
<polygon
   style="fill:#d80027"
   points="0,426.663 512,426.663 512,256 512,85.337 0,85.337 0,256 "
   id="polygon2"
   transform="translate(0,-85.337)" />
<path
   style="fill:#ffda44"
   d="M 352,141.147 H 278.663 L 256,71.401 233.337,141.149 H 160 l 59.331,43.107 -22.663,69.749 59.332,-43.11 59.332,43.107 -22.663,-69.749 z m -116.063,37.711 7.663,-23.585 h 24.8 l 7.663,23.585 v 0 0.001 L 256,193.435 235.937,178.858 Z M 263.81,141.147 H 248.191 L 256,117.11 Z m 24.269,28.982 -4.827,-14.856 h 25.274 z m -59.331,-14.856 -4.827,14.856 -20.447,-14.856 z m -5.211,61.748 7.81,-24.036 12.636,9.181 z m 44.479,-14.856 12.636,-9.181 7.81,24.036 z"
   id="path4"
   inkscape:connector-curvature="0" />
<g
   id="g6"
   transform="translate(0,-85.337)">
</g>
<g
   id="g8"
   transform="translate(0,-85.337)">
</g>
<g
   id="g10"
   transform="translate(0,-85.337)">
</g>
<g
   id="g12"
   transform="translate(0,-85.337)">
</g>
<g
   id="g14"
   transform="translate(0,-85.337)">
</g>
<g
   id="g16"
   transform="translate(0,-85.337)">
</g>
<g
   id="g18"
   transform="translate(0,-85.337)">
</g>
<g
   id="g20"
   transform="translate(0,-85.337)">
</g>
<g
   id="g22"
   transform="translate(0,-85.337)">
</g>
<g
   id="g24"
   transform="translate(0,-85.337)">
</g>
<g
   id="g26"
   transform="translate(0,-85.337)">
</g>
<g
   id="g28"
   transform="translate(0,-85.337)">
</g>
<g
   id="g30"
   transform="translate(0,-85.337)">
</g>
<g
   id="g32"
   transform="translate(0,-85.337)">
</g>
<g
   id="g34"
   transform="translate(0,-85.337)">
</g>
</svg>