<?xml version="1.0" encoding="UTF-8" standalone="no"?>
<!-- Generator: Adobe Illustrator 19.0.0, SVG Export Plug-In . SVG Version: 6.00 Build 0)  -->

<svg
   xmlns:dc="http://purl.org/dc/elements/1.1/"
   xmlns:cc="http://creativecommons.org/ns#"
   xmlns:rdf="http://www.w3.org/1999/02/22-rdf-syntax-ns#"
   xmlns:svg="http://www.w3.org/2000/svg"
   xmlns="http://www.w3.org/2000/svg"
   xmlns:sodipodi="http://sodipodi.sourceforge.net/DTD/sodipodi-0.dtd"
   xmlns:inkscape="http://www.inkscape.org/namespaces/inkscape"
   version="1.1"
   id="Capa_1"
   x="0px"
   y="0px"
   viewBox="0 0 512 341.33701"
   xml:space="preserve"
   sodipodi:docname="MDA.svg"
   width="512"
   height="341.33701"
   inkscape:version="0.92.4 5da689c313, 2019-01-14"><metadata
   id="metadata49"><rdf:RDF><cc:Work
       rdf:about=""><dc:format>image/svg+xml</dc:format><dc:type
         rdf:resource="http://purl.org/dc/dcmitype/StillImage" /><dc:title></dc:title></cc:Work></rdf:RDF></metadata><defs
   id="defs47" /><sodipodi:namedview
   pagecolor="#ffffff"
   bordercolor="#666666"
   borderopacity="1"
   objecttolerance="10"
   gridtolerance="10"
   guidetolerance="10"
   inkscape:pageopacity="0"
   inkscape:pageshadow="2"
   inkscape:window-width="736"
   inkscape:window-height="480"
   id="namedview45"
   showgrid="false"
   fit-margin-top="0"
   fit-margin-left="0"
   fit-margin-right="0"
   fit-margin-bottom="0"
   inkscape:zoom="0.4609375"
   inkscape:cx="256"
   inkscape:cy="170.66801"
   inkscape:window-x="0"
   inkscape:window-y="0"
   inkscape:window-maximized="0"
   inkscape:current-layer="Capa_1" />
<rect
   y="0"
   style="fill:#ffda44"
   width="512"
   height="341.32599"
   id="rect2"
   x="0" />
<rect
   x="330.207"
   y="0"
   style="fill:#d80027"
   width="181.793"
   height="341.33701"
   id="rect4" />
<rect
   y="0"
   style="fill:#0052b4"
   width="181.793"
   height="341.33701"
   id="rect6"
   x="0" />
<path
   style="fill:#ff9811"
   d="M 315.362,134.276 H 274.55 c 0,-10.244 -8.306,-18.551 -18.551,-18.551 -10.246,0 -18.551,8.306 -18.551,18.551 h -40.812 c 0,10.088 8.787,18.265 18.874,18.265 h -0.608 c 0,10.088 8.176,18.266 18.265,18.266 0,8.931 6.414,16.353 14.886,17.939 l -14.393,32.495 c 6.896,2.804 14.434,4.362 22.338,4.362 7.904,0 15.441,-1.558 22.338,-4.362 l -14.392,-32.495 c 8.471,-1.586 14.886,-9.008 14.886,-17.939 10.089,0 18.265,-8.179 18.265,-18.266 h -0.609 c 10.09,-0.001 18.876,-8.179 18.876,-18.265 z"
   id="path8"
   inkscape:connector-curvature="0" />
<polygon
   style="fill:#0052b4"
   points="231.884,278.255 256,293.095 280.116,278.255 280.116,255.994 256,244.864 231.884,255.994 "
   id="polygon10"
   transform="translate(0,-85.331001)" />
<rect
   x="231.88"
   y="148.40298"
   style="fill:#d80027"
   width="48.228001"
   height="22.261"
   id="rect12" />
<g
   id="g14"
   transform="translate(0,-85.331001)">
</g>
<g
   id="g16"
   transform="translate(0,-85.331001)">
</g>
<g
   id="g18"
   transform="translate(0,-85.331001)">
</g>
<g
   id="g20"
   transform="translate(0,-85.331001)">
</g>
<g
   id="g22"
   transform="translate(0,-85.331001)">
</g>
<g
   id="g24"
   transform="translate(0,-85.331001)">
</g>
<g
   id="g26"
   transform="translate(0,-85.331001)">
</g>
<g
   id="g28"
   transform="translate(0,-85.331001)">
</g>
<g
   id="g30"
   transform="translate(0,-85.331001)">
</g>
<g
   id="g32"
   transform="translate(0,-85.331001)">
</g>
<g
   id="g34"
   transform="translate(0,-85.331001)">
</g>
<g
   id="g36"
   transform="translate(0,-85.331001)">
</g>
<g
   id="g38"
   transform="translate(0,-85.331001)">
</g>
<g
   id="g40"
   transform="translate(0,-85.331001)">
</g>
<g
   id="g42"
   transform="translate(0,-85.331001)">
</g>
</svg>