<?xml version="1.0" encoding="UTF-8" standalone="no"?>
<!-- Generator: Adobe Illustrator 19.0.0, SVG Export Plug-In . SVG Version: 6.00 Build 0)  -->

<svg
   xmlns:dc="http://purl.org/dc/elements/1.1/"
   xmlns:cc="http://creativecommons.org/ns#"
   xmlns:rdf="http://www.w3.org/1999/02/22-rdf-syntax-ns#"
   xmlns:svg="http://www.w3.org/2000/svg"
   xmlns="http://www.w3.org/2000/svg"
   xmlns:sodipodi="http://sodipodi.sourceforge.net/DTD/sodipodi-0.dtd"
   xmlns:inkscape="http://www.inkscape.org/namespaces/inkscape"
   version="1.1"
   id="Capa_1"
   x="0px"
   y="0px"
   viewBox="0 0 512 341.32599"
   xml:space="preserve"
   sodipodi:docname="MHL.svg"
   width="512"
   height="341.32599"
   inkscape:version="0.92.4 5da689c313, 2019-01-14"><metadata
   id="metadata47"><rdf:RDF><cc:Work
       rdf:about=""><dc:format>image/svg+xml</dc:format><dc:type
         rdf:resource="http://purl.org/dc/dcmitype/StillImage" /><dc:title></dc:title></cc:Work></rdf:RDF></metadata><defs
   id="defs45" /><sodipodi:namedview
   pagecolor="#ffffff"
   bordercolor="#666666"
   borderopacity="1"
   objecttolerance="10"
   gridtolerance="10"
   guidetolerance="10"
   inkscape:pageopacity="0"
   inkscape:pageshadow="2"
   inkscape:window-width="736"
   inkscape:window-height="480"
   id="namedview43"
   showgrid="false"
   fit-margin-top="0"
   fit-margin-left="0"
   fit-margin-right="0"
   fit-margin-bottom="0"
   inkscape:zoom="0.4609375"
   inkscape:cx="256"
   inkscape:cy="170.663"
   inkscape:window-x="0"
   inkscape:window-y="0"
   inkscape:window-maximized="0"
   inkscape:current-layer="Capa_1" />
<rect
   y="0"
   style="fill:#0052b4"
   width="512"
   height="341.32599"
   id="rect2"
   x="0" />
<g
   id="g8"
   transform="translate(0,-85.336998)">
	<polygon
   style="fill:#f0f0f0"
   points="224.095,215.105 201.462,210.775 198.594,233.639 182.829,216.823 167.063,233.639 164.196,210.775 141.562,215.105 152.662,194.918 131.819,185.115 152.662,175.31 141.562,155.125 164.195,159.453 167.064,136.589 182.829,153.405 198.594,136.589 201.462,159.453 224.096,155.125 212.996,175.311 233.839,185.115 212.995,194.918 "
   id="polygon4" />
	<polygon
   style="fill:#f0f0f0"
   points="0,425.282 503.756,85.337 426.917,85.337 0,421.52 "
   id="polygon6" />
</g>
<polygon
   style="fill:#ff9811"
   points="0,425.282 0,426.663 3.723,426.663 512,136.998 512,85.337 503.756,85.337 "
   id="polygon10"
   transform="translate(0,-85.336998)" />
<g
   id="g12"
   transform="translate(0,-85.336998)">
</g>
<g
   id="g14"
   transform="translate(0,-85.336998)">
</g>
<g
   id="g16"
   transform="translate(0,-85.336998)">
</g>
<g
   id="g18"
   transform="translate(0,-85.336998)">
</g>
<g
   id="g20"
   transform="translate(0,-85.336998)">
</g>
<g
   id="g22"
   transform="translate(0,-85.336998)">
</g>
<g
   id="g24"
   transform="translate(0,-85.336998)">
</g>
<g
   id="g26"
   transform="translate(0,-85.336998)">
</g>
<g
   id="g28"
   transform="translate(0,-85.336998)">
</g>
<g
   id="g30"
   transform="translate(0,-85.336998)">
</g>
<g
   id="g32"
   transform="translate(0,-85.336998)">
</g>
<g
   id="g34"
   transform="translate(0,-85.336998)">
</g>
<g
   id="g36"
   transform="translate(0,-85.336998)">
</g>
<g
   id="g38"
   transform="translate(0,-85.336998)">
</g>
<g
   id="g40"
   transform="translate(0,-85.336998)">
</g>
</svg>