<?xml version="1.0" encoding="UTF-8" standalone="no"?>
<!-- Generator: Adobe Illustrator 19.0.0, SVG Export Plug-In . SVG Version: 6.00 Build 0)  -->

<svg
   xmlns:dc="http://purl.org/dc/elements/1.1/"
   xmlns:cc="http://creativecommons.org/ns#"
   xmlns:rdf="http://www.w3.org/1999/02/22-rdf-syntax-ns#"
   xmlns:svg="http://www.w3.org/2000/svg"
   xmlns="http://www.w3.org/2000/svg"
   xmlns:sodipodi="http://sodipodi.sourceforge.net/DTD/sodipodi-0.dtd"
   xmlns:inkscape="http://www.inkscape.org/namespaces/inkscape"
   version="1.1"
   id="Capa_1"
   x="0px"
   y="0px"
   viewBox="0 0 512 341.33701"
   xml:space="preserve"
   sodipodi:docname="MNP.svg"
   width="512"
   height="341.33701"
   inkscape:version="0.92.4 5da689c313, 2019-01-14"><metadata
   id="metadata47"><rdf:RDF><cc:Work
       rdf:about=""><dc:format>image/svg+xml</dc:format><dc:type
         rdf:resource="http://purl.org/dc/dcmitype/StillImage" /><dc:title></dc:title></cc:Work></rdf:RDF></metadata><defs
   id="defs45" /><sodipodi:namedview
   pagecolor="#ffffff"
   bordercolor="#666666"
   borderopacity="1"
   objecttolerance="10"
   gridtolerance="10"
   guidetolerance="10"
   inkscape:pageopacity="0"
   inkscape:pageshadow="2"
   inkscape:window-width="736"
   inkscape:window-height="480"
   id="namedview43"
   showgrid="false"
   fit-margin-top="0"
   fit-margin-left="0"
   fit-margin-right="0"
   fit-margin-bottom="0"
   inkscape:zoom="0.4609375"
   inkscape:cx="256"
   inkscape:cy="170.66801"
   inkscape:window-x="0"
   inkscape:window-y="0"
   inkscape:window-maximized="0"
   inkscape:current-layer="Capa_1" />
<rect
   y="0"
   style="fill:#338af3"
   width="512"
   height="341.33701"
   id="rect2"
   x="0" />
<path
   style="fill:#f3f3f3"
   d="m 251.469,262.733 c -3.906,-0.189 -7.137,-2.727 -8.402,-6.173 v 0 c -2.236,2.916 -6.078,4.384 -9.864,3.408 v 0 c -3.792,-0.976 -6.443,-4.114 -6.992,-7.753 v 0 c -2.784,2.405 -6.841,3.061 -10.349,1.341 v 0 c -3.515,-1.726 -5.48,-5.336 -5.278,-9.008 v 0 c -3.206,1.802 -7.313,1.625 -10.406,-0.768 v 0 c -3.086,-2.393 -4.29,-6.318 -3.357,-9.876 v 0 c -3.502,1.122 -7.483,0.126 -10.034,-2.841 v 0 c -2.551,-2.961 -2.942,-7.049 -1.317,-10.342 v 0 c -3.653,0.39 -7.357,-1.386 -9.259,-4.799 v 0 c -1.909,-3.414 -1.468,-7.502 0.794,-10.406 v 0 c -3.66,-0.353 -6.934,-2.84 -8.106,-6.569 v 0 c -1.178,-3.729 0.082,-7.647 2.885,-10.034 v 0 c -3.515,-1.084 -6.211,-4.183 -6.607,-8.07 v 0 c -0.397,-3.887 1.618,-7.457 4.837,-9.234 v 0 c -3.219,-1.763 -5.247,-5.335 -4.863,-9.215 v 0 c 0,0 0,0 0.006,0 v 0 c 0.384,-3.892 3.08,-6.998 6.588,-8.094 v 0 c -2.803,-2.381 -4.075,-6.293 -2.91,-10.022 v 0 c 1.165,-3.735 4.434,-6.23 8.094,-6.595 v 0 c -2.262,-2.897 -2.715,-6.985 -0.819,-10.406 v 0 c 1.896,-3.414 5.6,-5.197 9.259,-4.812 v 0 c -1.637,-3.295 -1.253,-7.382 1.291,-10.356 v 0 c 2.538,-2.966 6.519,-3.968 10.027,-2.859 v 0 c -0.945,-3.552 0.252,-7.483 3.338,-9.883001 v 0 c 3.08,-2.4 7.187,-2.583 10.392,-0.794 v 0 c -0.208,-3.672 1.751,-7.282 5.259,-9.013 v 0 c 3.502,-1.726 7.565,-1.083 10.355,1.322 v 0 c 0.535,-3.641 3.188,-6.79 6.973,-7.772 v 0 0 0 c 3.779,-0.983 7.622,0.472 9.864,3.383 v 0 c 1.267,-3.445 4.491,-5.99 8.397,-6.185 v 0 c 3.899,-0.201 7.363,1.99 8.976,5.285 v 0 c 1.928,-3.124 5.593,-4.976 9.454,-4.39 v 0 c 3.867,0.58 6.834,3.426 7.753,6.985 v 0 c 2.52,-2.684 6.488,-3.748 10.153,-2.4 v 0 c 3.672,1.355 6.003,4.743 6.18,8.421 v 0 c 3.004,-2.116 7.111,-2.362 10.43,-0.296 v 0 c 3.319,2.059 4.913,5.846 4.346,9.480001 v 0 c 3.37,-1.468 7.439,-0.882 10.273,1.802 v 0 c 2.835,2.689 3.641,6.715 2.356,10.16 v 0 c 3.596,-0.762 7.464,0.623 9.706,3.83 v 0 0 0 c 2.243,3.2 2.224,7.306 0.277,10.425 v 0 c 3.672,-0.026 7.18,2.117 8.736,5.7 v 0 c 1.549,3.591 0.699,7.615 -1.839,10.28 v 0 c 3.61,0.718 6.614,3.521 7.407,7.351 v 0 c 0.787,3.83 -0.857,7.59 -3.874,9.688 v 0 c 3.377,1.43 5.757,4.775 5.763,8.68 v 0 c 0,0.043 0,0.082 0,0.126 v 0 c 0,0.026 0,0.057 0,0.082 v 0 c 0,3.905 -2.369,7.256 -5.744,8.698 v 0 c 3.023,2.085 4.68,5.846 3.892,9.675 v 0 c -0.781,3.83 -3.779,6.639 -7.388,7.369 v 0 c 2.544,2.658 3.408,6.676 1.864,10.273 v 0 0 0 c -1.544,3.591 -5.052,5.739 -8.731,5.719 v 0 c 1.952,3.118 1.985,7.225 -0.252,10.43 v 0 c -2.236,3.207 -6.097,4.605 -9.693,3.849 v 0 c 1.291,3.439 0.492,7.471 -2.336,10.167 v 0 0 0 c -2.835,2.69 -6.898,3.281 -10.267,1.826 v 0 c 0.573,3.629 -1.014,7.421 -4.328,9.492 v 0 c -3.314,2.072 -7.42,1.832 -10.43,-0.277 v 0 c -0.17,3.679 -2.488,7.073 -6.154,8.434 v 0 c 0,0 0,0 -0.007,0 v 0 c -3.666,1.355 -7.634,0.296 -10.16,-2.381 v 0 c -0.907,3.565 -3.868,6.418 -7.735,7.01 v 0 0 0 c -3.861,0.585 -7.533,-1.253 -9.466,-4.378 v 0 c -1.537,3.169 -4.787,5.323 -8.49,5.323 v 0 c -0.153,0 -0.31,-0.006 -0.468,-0.013 z"
   id="path4"
   inkscape:connector-curvature="0" />
<circle
   style="fill:#338af3"
   cx="256.03299"
   cy="171.509"
   r="62.987"
   id="circle6" />
<path
   style="fill:#bdbcc1"
   d="m 269.823,150.133 c 3.094,-2.295 5.109,-5.964 5.109,-10.113 v -6.299 c 0,-6.958 -5.64,-12.597 -12.597,-12.597 h -12.597 c -6.958,0 -12.597,5.64 -12.597,12.597 v 6.299 c 0,4.149 2.015,7.818 5.109,10.113 l -11.408,115.862 c 0,0 6.299,6.3 25.195,6.3 18.896,0 25.195,-6.3 25.195,-6.3 z"
   id="path8"
   inkscape:connector-curvature="0" />
<polygon
   style="fill:#f0f0f0"
   points="302.396,240.137 273.744,260.955 284.688,294.638 256.034,273.822 227.383,294.638 238.327,260.955 209.675,240.137 245.091,240.137 256.034,206.455 266.978,240.137 "
   id="polygon10"
   transform="translate(0,-85.331001)" />
<g
   id="g12"
   transform="translate(0,-85.331001)">
</g>
<g
   id="g14"
   transform="translate(0,-85.331001)">
</g>
<g
   id="g16"
   transform="translate(0,-85.331001)">
</g>
<g
   id="g18"
   transform="translate(0,-85.331001)">
</g>
<g
   id="g20"
   transform="translate(0,-85.331001)">
</g>
<g
   id="g22"
   transform="translate(0,-85.331001)">
</g>
<g
   id="g24"
   transform="translate(0,-85.331001)">
</g>
<g
   id="g26"
   transform="translate(0,-85.331001)">
</g>
<g
   id="g28"
   transform="translate(0,-85.331001)">
</g>
<g
   id="g30"
   transform="translate(0,-85.331001)">
</g>
<g
   id="g32"
   transform="translate(0,-85.331001)">
</g>
<g
   id="g34"
   transform="translate(0,-85.331001)">
</g>
<g
   id="g36"
   transform="translate(0,-85.331001)">
</g>
<g
   id="g38"
   transform="translate(0,-85.331001)">
</g>
<g
   id="g40"
   transform="translate(0,-85.331001)">
</g>
</svg>