<?xml version="1.0" encoding="UTF-8" standalone="no"?>
<!-- Generator: Adobe Illustrator 19.0.0, SVG Export Plug-In . SVG Version: 6.00 Build 0)  -->

<svg
   xmlns:dc="http://purl.org/dc/elements/1.1/"
   xmlns:cc="http://creativecommons.org/ns#"
   xmlns:rdf="http://www.w3.org/1999/02/22-rdf-syntax-ns#"
   xmlns:svg="http://www.w3.org/2000/svg"
   xmlns="http://www.w3.org/2000/svg"
   xmlns:sodipodi="http://sodipodi.sourceforge.net/DTD/sodipodi-0.dtd"
   xmlns:inkscape="http://www.inkscape.org/namespaces/inkscape"
   version="1.1"
   id="Capa_1"
   x="0px"
   y="0px"
   viewBox="0 0 512 341.33701"
   xml:space="preserve"
   sodipodi:docname="MYS.svg"
   width="512"
   height="341.33701"
   inkscape:version="0.92.4 5da689c313, 2019-01-14"><metadata
   id="metadata57"><rdf:RDF><cc:Work
       rdf:about=""><dc:format>image/svg+xml</dc:format><dc:type
         rdf:resource="http://purl.org/dc/dcmitype/StillImage" /><dc:title></dc:title></cc:Work></rdf:RDF></metadata><defs
   id="defs55" /><sodipodi:namedview
   pagecolor="#ffffff"
   bordercolor="#666666"
   borderopacity="1"
   objecttolerance="10"
   gridtolerance="10"
   guidetolerance="10"
   inkscape:pageopacity="0"
   inkscape:pageshadow="2"
   inkscape:window-width="736"
   inkscape:window-height="480"
   id="namedview53"
   showgrid="false"
   fit-margin-top="0"
   fit-margin-left="0"
   fit-margin-right="0"
   fit-margin-bottom="0"
   inkscape:zoom="0.4609375"
   inkscape:cx="256"
   inkscape:cy="170.66801"
   inkscape:window-x="0"
   inkscape:window-y="0"
   inkscape:window-maximized="0"
   inkscape:current-layer="Capa_1" />
<rect
   y="0"
   style="fill:#f0f0f0"
   width="512"
   height="341.33701"
   id="rect2"
   x="0" />
<g
   id="g12"
   transform="translate(0,-85.331001)">
	<rect
   y="127.994"
   style="fill:#d80027"
   width="512"
   height="42.662998"
   id="rect4"
   x="0" />
	<rect
   y="213.33099"
   style="fill:#d80027"
   width="512"
   height="42.662998"
   id="rect6"
   x="0" />
	<rect
   y="298.65701"
   style="fill:#d80027"
   width="512"
   height="42.662998"
   id="rect8"
   x="0" />
	<rect
   y="383.99399"
   style="fill:#d80027"
   width="512"
   height="42.662998"
   id="rect10"
   x="0" />
</g>
<rect
   y="0"
   style="fill:#0052b4"
   width="256"
   height="183.797"
   id="rect14"
   x="0" />
<g
   id="g20"
   transform="translate(0,-85.331001)">
	<path
   style="fill:#ffda44"
   d="m 140.919,219.429 c -23.308,0 -42.202,-18.895 -42.202,-42.202 0,-23.307 18.895,-42.202 42.202,-42.202 7.267,0 14.104,1.838 20.075,5.072 -9.365,-9.158 -22.173,-14.811 -36.307,-14.811 -28.686,0 -51.941,23.255 -51.941,51.941 0,28.686 23.256,51.941 51.941,51.941 14.133,0 26.942,-5.653 36.307,-14.811 -5.97,3.234 -12.808,5.072 -20.075,5.072 z"
   id="path16"
   inkscape:connector-curvature="0" />
	<polygon
   style="fill:#ffda44"
   points="177.224,159.303 169.647,174.929 183.255,185.721 166.312,189.54 166.36,206.907 152.811,196.041 139.262,206.907 139.309,189.54 122.366,185.721 135.974,174.929 128.395,159.303 145.317,163.213 152.811,147.545 160.304,163.213 "
   id="polygon18" />
</g>
<g
   id="g22"
   transform="translate(0,-85.331001)">
</g>
<g
   id="g24"
   transform="translate(0,-85.331001)">
</g>
<g
   id="g26"
   transform="translate(0,-85.331001)">
</g>
<g
   id="g28"
   transform="translate(0,-85.331001)">
</g>
<g
   id="g30"
   transform="translate(0,-85.331001)">
</g>
<g
   id="g32"
   transform="translate(0,-85.331001)">
</g>
<g
   id="g34"
   transform="translate(0,-85.331001)">
</g>
<g
   id="g36"
   transform="translate(0,-85.331001)">
</g>
<g
   id="g38"
   transform="translate(0,-85.331001)">
</g>
<g
   id="g40"
   transform="translate(0,-85.331001)">
</g>
<g
   id="g42"
   transform="translate(0,-85.331001)">
</g>
<g
   id="g44"
   transform="translate(0,-85.331001)">
</g>
<g
   id="g46"
   transform="translate(0,-85.331001)">
</g>
<g
   id="g48"
   transform="translate(0,-85.331001)">
</g>
<g
   id="g50"
   transform="translate(0,-85.331001)">
</g>
</svg>