<?xml version="1.0" encoding="UTF-8" standalone="no"?>
<!-- Generator: Adobe Illustrator 19.0.0, SVG Export Plug-In . SVG Version: 6.00 Build 0)  -->

<svg
   xmlns:dc="http://purl.org/dc/elements/1.1/"
   xmlns:cc="http://creativecommons.org/ns#"
   xmlns:rdf="http://www.w3.org/1999/02/22-rdf-syntax-ns#"
   xmlns:svg="http://www.w3.org/2000/svg"
   xmlns="http://www.w3.org/2000/svg"
   xmlns:sodipodi="http://sodipodi.sourceforge.net/DTD/sodipodi-0.dtd"
   xmlns:inkscape="http://www.inkscape.org/namespaces/inkscape"
   version="1.1"
   id="Capa_1"
   x="0px"
   y="0px"
   viewBox="0 0 512 341.32599"
   xml:space="preserve"
   sodipodi:docname="NPL.svg"
   width="512"
   height="341.32599"
   inkscape:version="0.92.4 5da689c313, 2019-01-14"><metadata
   id="metadata51"><rdf:RDF><cc:Work
       rdf:about=""><dc:format>image/svg+xml</dc:format><dc:type
         rdf:resource="http://purl.org/dc/dcmitype/StillImage" /><dc:title></dc:title></cc:Work></rdf:RDF></metadata><defs
   id="defs49" /><sodipodi:namedview
   pagecolor="#ffffff"
   bordercolor="#666666"
   borderopacity="1"
   objecttolerance="10"
   gridtolerance="10"
   guidetolerance="10"
   inkscape:pageopacity="0"
   inkscape:pageshadow="2"
   inkscape:window-width="736"
   inkscape:window-height="480"
   id="namedview47"
   showgrid="false"
   fit-margin-top="0"
   fit-margin-left="0"
   fit-margin-right="0"
   fit-margin-bottom="0"
   inkscape:zoom="0.4609375"
   inkscape:cx="256"
   inkscape:cy="170.663"
   inkscape:window-x="0"
   inkscape:window-y="0"
   inkscape:window-maximized="0"
   inkscape:current-layer="Capa_1" />
<rect
   y="0"
   style="fill:#f0f0f0"
   width="512"
   height="341.32599"
   id="rect2"
   x="0" />
<polygon
   style="fill:#0052b4"
   points="280.419,260.087 87.61,260.087 271.186,426.663 0,426.663 0,85.337 "
   id="polygon4"
   transform="translate(0,-85.336998)" />
<polygon
   style="fill:#d80027"
   points="10.199,249.888 10.199,416.464 244.769,416.464 61.193,249.888 244.769,249.888 10.199,103.71 "
   id="polygon6"
   transform="translate(0,-85.336998)" />
<g
   id="g14"
   transform="translate(0,-85.336998)">
	<polygon
   style="fill:#f0f0f0"
   points="91.184,303.44 75.34,306.47 73.332,290.465 62.297,302.237 51.261,290.465 49.253,306.47 33.41,303.439 41.18,317.57 26.589,324.433 41.18,331.295 33.41,345.425 49.254,342.396 51.261,358.4 62.297,346.628 73.332,358.4 75.34,342.396 91.183,345.426 83.414,331.296 98.003,324.433 83.414,317.57 "
   id="polygon8" />
	<polygon
   style="fill:#f0f0f0"
   points="83.307,176.393 71.784,178.598 70.323,166.957 62.297,175.518 54.271,166.957 52.811,178.598 41.286,176.393 46.938,186.671 36.325,191.662 62.297,196.856 88.268,191.662 77.656,186.671 "
   id="polygon10" />
	<path
   style="fill:#f0f0f0"
   d="m 93.462,191.662 c 0,17.212 -13.953,31.165 -31.165,31.165 -17.212,0 -31.165,-13.953 -31.165,-31.165"
   id="path12"
   inkscape:connector-curvature="0" />
</g>
<g
   id="g16"
   transform="translate(0,-85.336998)">
</g>
<g
   id="g18"
   transform="translate(0,-85.336998)">
</g>
<g
   id="g20"
   transform="translate(0,-85.336998)">
</g>
<g
   id="g22"
   transform="translate(0,-85.336998)">
</g>
<g
   id="g24"
   transform="translate(0,-85.336998)">
</g>
<g
   id="g26"
   transform="translate(0,-85.336998)">
</g>
<g
   id="g28"
   transform="translate(0,-85.336998)">
</g>
<g
   id="g30"
   transform="translate(0,-85.336998)">
</g>
<g
   id="g32"
   transform="translate(0,-85.336998)">
</g>
<g
   id="g34"
   transform="translate(0,-85.336998)">
</g>
<g
   id="g36"
   transform="translate(0,-85.336998)">
</g>
<g
   id="g38"
   transform="translate(0,-85.336998)">
</g>
<g
   id="g40"
   transform="translate(0,-85.336998)">
</g>
<g
   id="g42"
   transform="translate(0,-85.336998)">
</g>
<g
   id="g44"
   transform="translate(0,-85.336998)">
</g>
</svg>