<?xml version="1.0" encoding="UTF-8" standalone="no"?>
<!-- Generator: Adobe Illustrator 19.0.0, SVG Export Plug-In . SVG Version: 6.00 Build 0)  -->

<svg
   xmlns:dc="http://purl.org/dc/elements/1.1/"
   xmlns:cc="http://creativecommons.org/ns#"
   xmlns:rdf="http://www.w3.org/1999/02/22-rdf-syntax-ns#"
   xmlns:svg="http://www.w3.org/2000/svg"
   xmlns="http://www.w3.org/2000/svg"
   xmlns:sodipodi="http://sodipodi.sourceforge.net/DTD/sodipodi-0.dtd"
   xmlns:inkscape="http://www.inkscape.org/namespaces/inkscape"
   version="1.1"
   id="Capa_1"
   x="0px"
   y="0px"
   viewBox="0 0 512 341.34201"
   xml:space="preserve"
   sodipodi:docname="NZL.svg"
   width="512"
   height="341.34201"
   inkscape:version="0.92.4 5da689c313, 2019-01-14"><metadata
   id="metadata73"><rdf:RDF><cc:Work
       rdf:about=""><dc:format>image/svg+xml</dc:format><dc:type
         rdf:resource="http://purl.org/dc/dcmitype/StillImage" /><dc:title></dc:title></cc:Work></rdf:RDF></metadata><defs
   id="defs71" /><sodipodi:namedview
   pagecolor="#ffffff"
   bordercolor="#666666"
   borderopacity="1"
   objecttolerance="10"
   gridtolerance="10"
   guidetolerance="10"
   inkscape:pageopacity="0"
   inkscape:pageshadow="2"
   inkscape:window-width="736"
   inkscape:window-height="480"
   id="namedview69"
   showgrid="false"
   fit-margin-top="0"
   fit-margin-left="0"
   fit-margin-right="0"
   fit-margin-bottom="0"
   inkscape:zoom="0.4609375"
   inkscape:cx="256"
   inkscape:cy="170.67101"
   inkscape:window-x="0"
   inkscape:window-y="0"
   inkscape:window-maximized="0"
   inkscape:current-layer="Capa_1" />
<rect
   y="0.0049996339"
   style="fill:#0052b4"
   width="512"
   height="341.33701"
   id="rect2"
   x="0" />
<g
   id="g12"
   transform="translate(0,-85.329)">
	<polygon
   style="fill:#d80027"
   points="439.652,244.173 430.782,250.617 434.17,261.044 425.301,254.6 416.43,261.044 419.818,250.617 410.948,244.173 421.911,244.173 425.301,233.745 428.689,244.173 "
   id="polygon4" />
	<polygon
   style="fill:#d80027"
   points="407.635,324.459 394.33,334.126 399.412,349.766 386.107,340.099 372.802,349.766 377.885,334.126 364.58,324.459 381.025,324.459 386.107,308.817 391.19,324.459 "
   id="polygon6" />
	<polygon
   style="fill:#d80027"
   points="405.528,199.007 394.44,207.061 398.675,220.095 387.588,212.039 376.5,220.095 380.735,207.061 369.648,199.007 383.352,199.007 387.588,185.971 391.824,199.007 "
   id="polygon8" />
	<polygon
   style="fill:#d80027"
   points="371.404,248.932 358.098,258.598 363.182,274.239 349.876,264.573 336.571,274.239 341.653,258.598 328.348,248.932 344.793,248.932 349.876,233.291 354.958,248.932 "
   id="polygon10" />
</g>
<polygon
   style="fill:#f0f0f0"
   points="210.825,140.981 256.003,140.981 256.003,200.34 196.89,200.34 256.003,233.186 256.003,255.992 229.313,255.992 155.829,215.166 155.829,255.992 100.177,255.992 100.177,207.419 12.748,255.992 0.003,255.992 0.003,225.439 45.171,200.34 0.003,200.34 0.003,140.981 59.106,140.981 0.003,108.147 0.003,85.329 26.683,85.329 100.177,126.167 100.177,85.329 155.829,85.329 155.829,133.902 243.259,85.329 256.003,85.329 256.003,115.893 "
   id="polygon14"
   transform="translate(0,-85.329)" />
<polygon
   style="fill:#d80027"
   points="112,154.664 0,154.664 0,186.664 112,186.664 112,255.998 144,255.998 144,186.664 256,186.664 256,154.664 144,154.664 144,85.33 112,85.33 "
   id="polygon16"
   transform="translate(0,-85.329)" />
<polygon
   style="fill:#0052b4"
   points="256,240.259 184.153,200.344 155.826,200.344 256,255.998 "
   id="polygon18"
   transform="translate(0,-85.329)" />
<polygon
   style="fill:#f0f0f0"
   points="256,240.259 184.153,200.344 155.826,200.344 256,255.998 "
   id="polygon20"
   transform="translate(0,-85.329)" />
<g
   id="g26"
   transform="translate(0,-85.329)">
	<polygon
   style="fill:#d80027"
   points="256,240.259 184.153,200.344 155.826,200.344 256,255.998 "
   id="polygon22" />
	<polygon
   style="fill:#d80027"
   points="0,255.998 0,255.998 100.174,200.344 71.846,200.344 0,240.259 "
   id="polygon24" />
</g>
<polygon
   style="fill:#0052b4"
   points="0,101.068 71.847,140.983 100.174,140.983 0,85.33 "
   id="polygon28"
   transform="translate(0,-85.329)" />
<polygon
   style="fill:#f0f0f0"
   points="0,101.068 71.847,140.983 100.174,140.983 0,85.33 "
   id="polygon30"
   transform="translate(0,-85.329)" />
<g
   id="g36"
   transform="translate(0,-85.329)">
	<polygon
   style="fill:#d80027"
   points="0,101.068 71.847,140.983 100.174,140.983 0,85.33 "
   id="polygon32" />
	<polygon
   style="fill:#d80027"
   points="256,85.33 256,85.33 155.826,140.983 184.154,140.983 256,101.068 "
   id="polygon34" />
</g>
<g
   id="g38"
   transform="translate(0,-85.329)">
</g>
<g
   id="g40"
   transform="translate(0,-85.329)">
</g>
<g
   id="g42"
   transform="translate(0,-85.329)">
</g>
<g
   id="g44"
   transform="translate(0,-85.329)">
</g>
<g
   id="g46"
   transform="translate(0,-85.329)">
</g>
<g
   id="g48"
   transform="translate(0,-85.329)">
</g>
<g
   id="g50"
   transform="translate(0,-85.329)">
</g>
<g
   id="g52"
   transform="translate(0,-85.329)">
</g>
<g
   id="g54"
   transform="translate(0,-85.329)">
</g>
<g
   id="g56"
   transform="translate(0,-85.329)">
</g>
<g
   id="g58"
   transform="translate(0,-85.329)">
</g>
<g
   id="g60"
   transform="translate(0,-85.329)">
</g>
<g
   id="g62"
   transform="translate(0,-85.329)">
</g>
<g
   id="g64"
   transform="translate(0,-85.329)">
</g>
<g
   id="g66"
   transform="translate(0,-85.329)">
</g>
</svg>