<?xml version="1.0" encoding="UTF-8" standalone="no"?>
<!-- Generator: Adobe Illustrator 19.0.0, SVG Export Plug-In . SVG Version: 6.00 Build 0)  -->

<svg
   xmlns:dc="http://purl.org/dc/elements/1.1/"
   xmlns:cc="http://creativecommons.org/ns#"
   xmlns:rdf="http://www.w3.org/1999/02/22-rdf-syntax-ns#"
   xmlns:svg="http://www.w3.org/2000/svg"
   xmlns="http://www.w3.org/2000/svg"
   xmlns:sodipodi="http://sodipodi.sourceforge.net/DTD/sodipodi-0.dtd"
   xmlns:inkscape="http://www.inkscape.org/namespaces/inkscape"
   version="1.1"
   id="Capa_1"
   x="0px"
   y="0px"
   viewBox="0 0 512 341.33798"
   xml:space="preserve"
   sodipodi:docname="PAK.svg"
   width="512"
   height="341.33798"
   inkscape:version="0.92.4 5da689c313, 2019-01-14"><metadata
   id="metadata51"><rdf:RDF><cc:Work
       rdf:about=""><dc:format>image/svg+xml</dc:format><dc:type
         rdf:resource="http://purl.org/dc/dcmitype/StillImage" /><dc:title></dc:title></cc:Work></rdf:RDF></metadata><defs
   id="defs49" /><sodipodi:namedview
   pagecolor="#ffffff"
   bordercolor="#666666"
   borderopacity="1"
   objecttolerance="10"
   gridtolerance="10"
   guidetolerance="10"
   inkscape:pageopacity="0"
   inkscape:pageshadow="2"
   inkscape:window-width="736"
   inkscape:window-height="480"
   id="namedview47"
   showgrid="false"
   fit-margin-top="0"
   fit-margin-left="0"
   fit-margin-right="0"
   fit-margin-bottom="0"
   inkscape:zoom="0.4609375"
   inkscape:cx="256"
   inkscape:cy="170.66899"
   inkscape:window-x="0"
   inkscape:window-y="0"
   inkscape:window-maximized="0"
   inkscape:current-layer="Capa_1" />
<g
   id="g6"
   transform="translate(0,-85.331001)">
	<polygon
   style="fill:#f0f0f0"
   points="434.383,178.57 421.842,201.057 439.355,219.933 414.092,214.955 401.553,237.443 398.48,211.879 373.217,206.901 396.58,196.081 393.508,170.516 411.02,189.391 "
   id="polygon2" />
	<rect
   y="85.343002"
   style="fill:#f0f0f0"
   width="512"
   height="341.32599"
   id="rect4"
   x="0" />
</g>
<rect
   x="128"
   y="0"
   style="fill:#496e2d"
   width="384"
   height="341.33701"
   id="rect8" />
<g
   id="g14"
   transform="translate(0,-85.331001)">
	<path
   style="fill:#f0f0f0"
   d="m 361.909,298.793 c -31.037,22.426 -74.378,15.446 -96.804,-15.592 -22.427,-31.038 -15.446,-74.379 15.593,-96.804 9.677,-6.992 20.55,-11.125 31.613,-12.563 -21.283,-3.183 -43.777,1.613 -62.598,15.211 -38.2,27.602 -46.792,80.944 -19.191,119.145 27.601,38.199 80.944,46.792 119.145,19.189 18.82,-13.598 30.436,-33.448 34.096,-54.655 -4.839,10.05 -12.176,19.076 -21.854,26.069 z"
   id="path10"
   inkscape:connector-curvature="0" />
	<polygon
   style="fill:#f0f0f0"
   points="401.386,180.929 388.867,203.376 406.35,222.22 381.131,217.252 368.612,239.702 365.545,214.181 340.325,209.212 363.648,198.41 360.58,172.889 378.064,191.731 "
   id="polygon12" />
</g>
<g
   id="g16"
   transform="translate(0,-85.331001)">
</g>
<g
   id="g18"
   transform="translate(0,-85.331001)">
</g>
<g
   id="g20"
   transform="translate(0,-85.331001)">
</g>
<g
   id="g22"
   transform="translate(0,-85.331001)">
</g>
<g
   id="g24"
   transform="translate(0,-85.331001)">
</g>
<g
   id="g26"
   transform="translate(0,-85.331001)">
</g>
<g
   id="g28"
   transform="translate(0,-85.331001)">
</g>
<g
   id="g30"
   transform="translate(0,-85.331001)">
</g>
<g
   id="g32"
   transform="translate(0,-85.331001)">
</g>
<g
   id="g34"
   transform="translate(0,-85.331001)">
</g>
<g
   id="g36"
   transform="translate(0,-85.331001)">
</g>
<g
   id="g38"
   transform="translate(0,-85.331001)">
</g>
<g
   id="g40"
   transform="translate(0,-85.331001)">
</g>
<g
   id="g42"
   transform="translate(0,-85.331001)">
</g>
<g
   id="g44"
   transform="translate(0,-85.331001)">
</g>
</svg>