<?xml version="1.0" encoding="UTF-8" standalone="no"?>
<!-- Generator: Adobe Illustrator 19.0.0, SVG Export Plug-In . SVG Version: 6.00 Build 0)  -->

<svg
   xmlns:dc="http://purl.org/dc/elements/1.1/"
   xmlns:cc="http://creativecommons.org/ns#"
   xmlns:rdf="http://www.w3.org/1999/02/22-rdf-syntax-ns#"
   xmlns:svg="http://www.w3.org/2000/svg"
   xmlns="http://www.w3.org/2000/svg"
   xmlns:sodipodi="http://sodipodi.sourceforge.net/DTD/sodipodi-0.dtd"
   xmlns:inkscape="http://www.inkscape.org/namespaces/inkscape"
   version="1.1"
   id="Capa_1"
   x="0px"
   y="0px"
   viewBox="0 0 512 341.32599"
   xml:space="preserve"
   sodipodi:docname="PHL.svg"
   width="512"
   height="341.32599"
   inkscape:version="0.92.4 5da689c313, 2019-01-14"><metadata
   id="metadata55"><rdf:RDF><cc:Work
       rdf:about=""><dc:format>image/svg+xml</dc:format><dc:type
         rdf:resource="http://purl.org/dc/dcmitype/StillImage" /><dc:title></dc:title></cc:Work></rdf:RDF></metadata><defs
   id="defs53" /><sodipodi:namedview
   pagecolor="#ffffff"
   bordercolor="#666666"
   borderopacity="1"
   objecttolerance="10"
   gridtolerance="10"
   guidetolerance="10"
   inkscape:pageopacity="0"
   inkscape:pageshadow="2"
   inkscape:window-width="736"
   inkscape:window-height="480"
   id="namedview51"
   showgrid="false"
   fit-margin-top="0"
   fit-margin-left="0"
   fit-margin-right="0"
   fit-margin-bottom="0"
   inkscape:zoom="0.4609375"
   inkscape:cx="256"
   inkscape:cy="170.663"
   inkscape:window-x="0"
   inkscape:window-y="0"
   inkscape:window-maximized="0"
   inkscape:current-layer="Capa_1" />
<g
   id="g4"
   transform="translate(0,-85.336998)">
	<rect
   y="85.336998"
   style="fill:#f0f0f0"
   width="512"
   height="341.32599"
   id="rect2"
   x="0" />
</g>
<polygon
   style="fill:#0052b4"
   points="256,256 0,85.337 512,85.337 512,256 "
   id="polygon6"
   transform="translate(0,-85.336998)" />
<polygon
   style="fill:#d80027"
   points="0,426.663 256,256 512,256 512,426.663 "
   id="polygon8"
   transform="translate(0,-85.336998)" />
<g
   id="g18"
   transform="translate(0,-85.336998)">
	<polygon
   style="fill:#ffda44"
   points="149.152,216.737 119.52,222.405 115.765,192.472 95.125,214.487 74.486,192.472 70.731,222.405 41.1,216.736 55.631,243.164 28.343,256 55.631,268.835 41.1,295.263 70.733,289.595 74.486,319.528 95.125,297.513 115.765,319.528 119.52,289.595 149.151,295.264 134.619,268.837 161.908,256 134.62,243.165 "
   id="polygon10" />
	<polygon
   style="fill:#ffda44"
   points="45.749,125.589 36.481,138.149 45.562,150.843 30.753,145.911 21.485,158.47 21.602,142.862 6.793,137.928 21.673,133.216 21.789,117.607 30.87,130.303 "
   id="polygon12" />
	<polygon
   style="fill:#ffda44"
   points="45.749,361.512 36.481,374.072 45.562,386.767 30.753,381.834 21.485,394.392 21.602,378.785 6.793,373.851 21.673,369.139 21.789,353.53 30.87,366.226 "
   id="polygon14" />
	<polygon
   style="fill:#ffda44"
   points="186.435,243.551 195.703,256.11 186.622,268.806 201.431,263.873 210.699,276.431 210.582,260.824 225.391,255.89 210.511,251.177 210.395,235.569 201.314,248.264 "
   id="polygon16" />
</g>
<g
   id="g20"
   transform="translate(0,-85.336998)">
</g>
<g
   id="g22"
   transform="translate(0,-85.336998)">
</g>
<g
   id="g24"
   transform="translate(0,-85.336998)">
</g>
<g
   id="g26"
   transform="translate(0,-85.336998)">
</g>
<g
   id="g28"
   transform="translate(0,-85.336998)">
</g>
<g
   id="g30"
   transform="translate(0,-85.336998)">
</g>
<g
   id="g32"
   transform="translate(0,-85.336998)">
</g>
<g
   id="g34"
   transform="translate(0,-85.336998)">
</g>
<g
   id="g36"
   transform="translate(0,-85.336998)">
</g>
<g
   id="g38"
   transform="translate(0,-85.336998)">
</g>
<g
   id="g40"
   transform="translate(0,-85.336998)">
</g>
<g
   id="g42"
   transform="translate(0,-85.336998)">
</g>
<g
   id="g44"
   transform="translate(0,-85.336998)">
</g>
<g
   id="g46"
   transform="translate(0,-85.336998)">
</g>
<g
   id="g48"
   transform="translate(0,-85.336998)">
</g>
</svg>