<?xml version="1.0" encoding="UTF-8" standalone="no"?>
<!-- Generator: Adobe Illustrator 19.0.0, SVG Export Plug-In . SVG Version: 6.00 Build 0)  -->

<svg
   xmlns:dc="http://purl.org/dc/elements/1.1/"
   xmlns:cc="http://creativecommons.org/ns#"
   xmlns:rdf="http://www.w3.org/1999/02/22-rdf-syntax-ns#"
   xmlns:svg="http://www.w3.org/2000/svg"
   xmlns="http://www.w3.org/2000/svg"
   xmlns:sodipodi="http://sodipodi.sourceforge.net/DTD/sodipodi-0.dtd"
   xmlns:inkscape="http://www.inkscape.org/namespaces/inkscape"
   version="1.1"
   id="Capa_1"
   x="0px"
   y="0px"
   viewBox="0 0 512 341.34"
   xml:space="preserve"
   sodipodi:docname="PNG.svg"
   width="512"
   height="341.34"
   inkscape:version="0.92.4 5da689c313, 2019-01-14"><metadata
   id="metadata55"><rdf:RDF><cc:Work
       rdf:about=""><dc:format>image/svg+xml</dc:format><dc:type
         rdf:resource="http://purl.org/dc/dcmitype/StillImage" /><dc:title></dc:title></cc:Work></rdf:RDF></metadata><defs
   id="defs53" /><sodipodi:namedview
   pagecolor="#ffffff"
   bordercolor="#666666"
   borderopacity="1"
   objecttolerance="10"
   gridtolerance="10"
   guidetolerance="10"
   inkscape:pageopacity="0"
   inkscape:pageshadow="2"
   inkscape:window-width="736"
   inkscape:window-height="480"
   id="namedview51"
   showgrid="false"
   fit-margin-top="0"
   fit-margin-left="0"
   fit-margin-right="0"
   fit-margin-bottom="0"
   inkscape:zoom="0.4609375"
   inkscape:cx="256"
   inkscape:cy="170.67001"
   inkscape:window-x="0"
   inkscape:window-y="0"
   inkscape:window-maximized="0"
   inkscape:current-layer="Capa_1" />
<rect
   y="0.003000183"
   width="512"
   height="341.33701"
   id="rect2"
   x="0" />
<polyline
   style="fill:#a2001d"
   points="0,85.33 512,85.33 512,426.662 "
   id="polyline4"
   transform="translate(0,-85.33)" />
<g
   id="g16"
   transform="translate(0,-85.33)">
	<polygon
   style="fill:#f0f0f0"
   points="216.334,334.992 209.101,340.247 211.864,348.749 204.631,343.495 197.398,348.749 200.16,340.247 192.927,334.992 201.867,334.992 204.631,326.488 207.393,334.992 "
   id="polygon6" />
	<polygon
   style="fill:#f0f0f0"
   points="201.303,259.038 189.247,267.795 193.852,281.967 181.797,273.208 169.742,281.967 174.348,267.795 162.292,259.038 177.193,259.038 181.797,244.866 186.402,259.038 "
   id="polygon8" />
	<polygon
   style="fill:#f0f0f0"
   points="201.303,362.922 189.246,371.679 193.852,385.852 181.797,377.093 169.742,385.852 174.346,371.679 162.292,362.922 177.191,362.922 181.797,348.749 186.401,362.922 "
   id="polygon10" />
	<polygon
   style="fill:#f0f0f0"
   points="244.87,296.139 232.814,304.897 237.419,319.069 225.363,310.31 213.309,319.069 217.915,304.897 205.859,296.139 220.76,296.139 225.363,281.967 229.969,296.139 "
   id="polygon12" />
	<polygon
   style="fill:#f0f0f0"
   points="157.735,296.139 145.681,304.897 150.284,319.069 138.23,310.31 126.175,319.069 130.78,304.897 118.725,296.139 133.625,296.139 138.23,281.967 142.836,296.139 "
   id="polygon14" />
</g>
<path
   style="fill:#ffda44"
   d="M 376.526,118.833 C 368.898,111.205 358.988,106.7 348.337,105.925 L 380.217,81.13 C 367.519,68.432 350.503,62.699 333.898,63.912 331.91,56.767 328.12,50.02 322.502,44.401 l -12.593,25.186 c -0.826,-1.506 -1.872,-2.923 -3.148,-4.197 -7.245,-7.245 -18.991,-7.244 -26.234,0 -7.243,7.244 -7.245,18.99 0,26.234 1.276,1.276 2.692,2.322 4.197,3.148 l -25.186,12.593 c 5.62,5.62 12.371,9.412 19.519,11.399 -1.217,16.606 4.511,33.619 17.209,46.317 L 324.12,129.27 c 2.096,-2.064 4.862,-3.202 7.807,-3.202 2.973,0 5.768,1.158 7.87,3.26 2.103,2.103 3.26,4.897 3.26,7.87 0,2.974 -1.158,5.768 -3.26,7.87 l 10.494,10.494 c 4.905,-4.905 7.607,-11.428 7.607,-18.364 0,-5.675 -1.81,-11.071 -5.153,-15.534 4.871,1.3 9.474,3.849 13.288,7.662 11.573,11.572 11.573,30.403 0,41.975 l 10.494,10.494 c 8.409,-8.409 13.039,-19.59 13.039,-31.481 -10e-4,-11.892 -4.632,-23.072 -13.04,-31.481 z"
   id="path18"
   inkscape:connector-curvature="0" />
<g
   id="g20"
   transform="translate(0,-85.33)">
</g>
<g
   id="g22"
   transform="translate(0,-85.33)">
</g>
<g
   id="g24"
   transform="translate(0,-85.33)">
</g>
<g
   id="g26"
   transform="translate(0,-85.33)">
</g>
<g
   id="g28"
   transform="translate(0,-85.33)">
</g>
<g
   id="g30"
   transform="translate(0,-85.33)">
</g>
<g
   id="g32"
   transform="translate(0,-85.33)">
</g>
<g
   id="g34"
   transform="translate(0,-85.33)">
</g>
<g
   id="g36"
   transform="translate(0,-85.33)">
</g>
<g
   id="g38"
   transform="translate(0,-85.33)">
</g>
<g
   id="g40"
   transform="translate(0,-85.33)">
</g>
<g
   id="g42"
   transform="translate(0,-85.33)">
</g>
<g
   id="g44"
   transform="translate(0,-85.33)">
</g>
<g
   id="g46"
   transform="translate(0,-85.33)">
</g>
<g
   id="g48"
   transform="translate(0,-85.33)">
</g>
</svg>