<?xml version="1.0" encoding="UTF-8" standalone="no"?>
<!-- Generator: Adobe Illustrator 19.0.0, SVG Export Plug-In . SVG Version: 6.00 Build 0)  -->

<svg
   xmlns:dc="http://purl.org/dc/elements/1.1/"
   xmlns:cc="http://creativecommons.org/ns#"
   xmlns:rdf="http://www.w3.org/1999/02/22-rdf-syntax-ns#"
   xmlns:svg="http://www.w3.org/2000/svg"
   xmlns="http://www.w3.org/2000/svg"
   xmlns:sodipodi="http://sodipodi.sourceforge.net/DTD/sodipodi-0.dtd"
   xmlns:inkscape="http://www.inkscape.org/namespaces/inkscape"
   version="1.1"
   id="Capa_1"
   x="0px"
   y="0px"
   viewBox="0 0 512 339.85999"
   xml:space="preserve"
   sodipodi:docname="QAT.svg"
   width="512"
   height="339.85999"
   inkscape:version="0.92.4 5da689c313, 2019-01-14"><metadata
   id="metadata41"><rdf:RDF><cc:Work
       rdf:about=""><dc:format>image/svg+xml</dc:format><dc:type
         rdf:resource="http://purl.org/dc/dcmitype/StillImage" /><dc:title></dc:title></cc:Work></rdf:RDF></metadata><defs
   id="defs39" /><sodipodi:namedview
   pagecolor="#ffffff"
   bordercolor="#666666"
   borderopacity="1"
   objecttolerance="10"
   gridtolerance="10"
   guidetolerance="10"
   inkscape:pageopacity="0"
   inkscape:pageshadow="2"
   inkscape:window-width="736"
   inkscape:window-height="480"
   id="namedview37"
   showgrid="false"
   fit-margin-top="0"
   fit-margin-left="0"
   fit-margin-right="0"
   fit-margin-bottom="0"
   inkscape:zoom="0.4609375"
   inkscape:cx="256"
   inkscape:cy="169.93"
   inkscape:window-x="0"
   inkscape:window-y="0"
   inkscape:window-maximized="0"
   inkscape:current-layer="Capa_1" />
<rect
   x="2.2160001"
   y="0.0059963991"
   style="fill:#751a46"
   width="509.784"
   height="339.84799"
   id="rect2" />
<polygon
   style="fill:#f0f0f0"
   points="209.455,205.493 159.219,230.76 209.455,256.017 159.219,281.283 209.455,306.54 159.219,331.808 209.455,357.065 159.219,382.332 209.455,407.6 173.005,425.93 0,425.93 0,86.07 172.939,86.07 209.455,104.434 159.219,129.701 209.455,154.969 159.219,180.236 "
   id="polygon4"
   transform="translate(0,-86.07)" />
<g
   id="g6"
   transform="translate(0,-86.07)">
</g>
<g
   id="g8"
   transform="translate(0,-86.07)">
</g>
<g
   id="g10"
   transform="translate(0,-86.07)">
</g>
<g
   id="g12"
   transform="translate(0,-86.07)">
</g>
<g
   id="g14"
   transform="translate(0,-86.07)">
</g>
<g
   id="g16"
   transform="translate(0,-86.07)">
</g>
<g
   id="g18"
   transform="translate(0,-86.07)">
</g>
<g
   id="g20"
   transform="translate(0,-86.07)">
</g>
<g
   id="g22"
   transform="translate(0,-86.07)">
</g>
<g
   id="g24"
   transform="translate(0,-86.07)">
</g>
<g
   id="g26"
   transform="translate(0,-86.07)">
</g>
<g
   id="g28"
   transform="translate(0,-86.07)">
</g>
<g
   id="g30"
   transform="translate(0,-86.07)">
</g>
<g
   id="g32"
   transform="translate(0,-86.07)">
</g>
<g
   id="g34"
   transform="translate(0,-86.07)">
</g>
</svg>