<?xml version="1.0" encoding="UTF-8" standalone="no"?>
<!-- Generator: Adobe Illustrator 19.0.0, SVG Export Plug-In . SVG Version: 6.00 Build 0)  -->

<svg
   xmlns:dc="http://purl.org/dc/elements/1.1/"
   xmlns:cc="http://creativecommons.org/ns#"
   xmlns:rdf="http://www.w3.org/1999/02/22-rdf-syntax-ns#"
   xmlns:svg="http://www.w3.org/2000/svg"
   xmlns="http://www.w3.org/2000/svg"
   xmlns:sodipodi="http://sodipodi.sourceforge.net/DTD/sodipodi-0.dtd"
   xmlns:inkscape="http://www.inkscape.org/namespaces/inkscape"
   version="1.1"
   id="Capa_1"
   x="0px"
   y="0px"
   viewBox="0 0 512 341.33701"
   xml:space="preserve"
   sodipodi:docname="SAU.svg"
   width="512"
   height="341.33701"
   inkscape:version="0.92.4 5da689c313, 2019-01-14"><metadata
   id="metadata53"><rdf:RDF><cc:Work
       rdf:about=""><dc:format>image/svg+xml</dc:format><dc:type
         rdf:resource="http://purl.org/dc/dcmitype/StillImage" /><dc:title></dc:title></cc:Work></rdf:RDF></metadata><defs
   id="defs51" /><sodipodi:namedview
   pagecolor="#ffffff"
   bordercolor="#666666"
   borderopacity="1"
   objecttolerance="10"
   gridtolerance="10"
   guidetolerance="10"
   inkscape:pageopacity="0"
   inkscape:pageshadow="2"
   inkscape:window-width="736"
   inkscape:window-height="480"
   id="namedview49"
   showgrid="false"
   fit-margin-top="0"
   fit-margin-left="0"
   fit-margin-right="0"
   fit-margin-bottom="0"
   inkscape:zoom="0.4609375"
   inkscape:cx="256"
   inkscape:cy="170.66801"
   inkscape:window-x="0"
   inkscape:window-y="0"
   inkscape:window-maximized="0"
   inkscape:current-layer="Capa_1" />
<rect
   y="0"
   style="fill:#6da544"
   width="512"
   height="341.33701"
   id="rect2"
   x="0" />
<g
   id="g16"
   transform="translate(0,-85.331001)">
	<path
   style="fill:#f0f0f0"
   d="m 183.548,289.386 c 0,12.295 9.731,22.261 21.736,22.261 h 65.208 c 0,10.244 8.11,18.551 18.114,18.551 h 21.736 c 10.004,0 18.114,-8.306 18.114,-18.551 v -22.261 z"
   id="path4"
   inkscape:connector-curvature="0" />
	<path
   style="fill:#f0f0f0"
   d="m 330.264,181.791 v 51.942 c 0,8.183 -6.5,14.84 -14.491,14.84 v 22.261 c 19.976,0 36.226,-16.643 36.226,-37.101 v -51.942 z"
   id="path6"
   inkscape:connector-curvature="0" />
	<path
   style="fill:#f0f0f0"
   d="m 174.491,233.734 c 0,8.183 -6.5,14.84 -14.491,14.84 v 22.261 c 19.976,0 36.226,-16.643 36.226,-37.101 V 181.792 H 174.49 v 51.942 z"
   id="path8"
   inkscape:connector-curvature="0" />
	<rect
   x="297.66101"
   y="181.78799"
   style="fill:#f0f0f0"
   width="21.736"
   height="51.942001"
   id="rect10" />
	<path
   style="fill:#f0f0f0"
   d="m 265.057,211.473 c 0,2.046 -1.625,3.71 -3.623,3.71 -1.998,0 -3.623,-1.664 -3.623,-3.71 v -29.682 h -21.736 v 29.682 c 0,2.046 -1.625,3.71 -3.623,3.71 -1.998,0 -3.623,-1.664 -3.623,-3.71 v -29.682 h -21.736 v 29.682 c 0,14.32 11.376,25.971 25.358,25.971 5.385,0 10.38,-1.733 14.491,-4.677 4.11,2.944 9.106,4.677 14.491,4.677 1.084,0 2.15,-0.078 3.2,-0.215 -1.54,6.499 -7.255,11.345 -14.068,11.345 v 22.261 c 19.976,0 36.226,-16.643 36.226,-37.101 v -22.261 -29.682 h -21.736 z"
   id="path12"
   inkscape:connector-curvature="0" />
	<rect
   x="207.093"
   y="248.57001"
   style="fill:#f0f0f0"
   width="32.601002"
   height="22.261"
   id="rect14" />
</g>
<g
   id="g18"
   transform="translate(0,-85.331001)">
</g>
<g
   id="g20"
   transform="translate(0,-85.331001)">
</g>
<g
   id="g22"
   transform="translate(0,-85.331001)">
</g>
<g
   id="g24"
   transform="translate(0,-85.331001)">
</g>
<g
   id="g26"
   transform="translate(0,-85.331001)">
</g>
<g
   id="g28"
   transform="translate(0,-85.331001)">
</g>
<g
   id="g30"
   transform="translate(0,-85.331001)">
</g>
<g
   id="g32"
   transform="translate(0,-85.331001)">
</g>
<g
   id="g34"
   transform="translate(0,-85.331001)">
</g>
<g
   id="g36"
   transform="translate(0,-85.331001)">
</g>
<g
   id="g38"
   transform="translate(0,-85.331001)">
</g>
<g
   id="g40"
   transform="translate(0,-85.331001)">
</g>
<g
   id="g42"
   transform="translate(0,-85.331001)">
</g>
<g
   id="g44"
   transform="translate(0,-85.331001)">
</g>
<g
   id="g46"
   transform="translate(0,-85.331001)">
</g>
</svg>