<?xml version="1.0" encoding="UTF-8" standalone="no"?>
<!-- Generator: Adobe Illustrator 19.0.0, SVG Export Plug-In . SVG Version: 6.00 Build 0)  -->

<svg
   xmlns:dc="http://purl.org/dc/elements/1.1/"
   xmlns:cc="http://creativecommons.org/ns#"
   xmlns:rdf="http://www.w3.org/1999/02/22-rdf-syntax-ns#"
   xmlns:svg="http://www.w3.org/2000/svg"
   xmlns="http://www.w3.org/2000/svg"
   xmlns:sodipodi="http://sodipodi.sourceforge.net/DTD/sodipodi-0.dtd"
   xmlns:inkscape="http://www.inkscape.org/namespaces/inkscape"
   version="1.1"
   id="Capa_1"
   x="0px"
   y="0px"
   viewBox="0 0 512 341.32599"
   xml:space="preserve"
   sodipodi:docname="SGP.svg"
   width="512"
   height="341.32599"
   inkscape:version="0.92.4 5da689c313, 2019-01-14"><metadata
   id="metadata55"><rdf:RDF><cc:Work
       rdf:about=""><dc:format>image/svg+xml</dc:format><dc:type
         rdf:resource="http://purl.org/dc/dcmitype/StillImage" /><dc:title></dc:title></cc:Work></rdf:RDF></metadata><defs
   id="defs53" /><sodipodi:namedview
   pagecolor="#ffffff"
   bordercolor="#666666"
   borderopacity="1"
   objecttolerance="10"
   gridtolerance="10"
   guidetolerance="10"
   inkscape:pageopacity="0"
   inkscape:pageshadow="2"
   inkscape:window-width="736"
   inkscape:window-height="480"
   id="namedview51"
   showgrid="false"
   fit-margin-top="0"
   fit-margin-left="0"
   fit-margin-right="0"
   fit-margin-bottom="0"
   inkscape:zoom="0.4609375"
   inkscape:cx="256"
   inkscape:cy="170.66299"
   inkscape:window-x="0"
   inkscape:window-y="0"
   inkscape:window-maximized="0"
   inkscape:current-layer="Capa_1" />
<rect
   y="0"
   style="fill:#f0f0f0"
   width="512"
   height="341.32599"
   id="rect2"
   x="0" />
<rect
   y="0"
   style="fill:#d80027"
   width="512"
   height="170.66299"
   id="rect4"
   x="0" />
<g
   id="g18"
   transform="translate(0,-85.336998)">
	<path
   style="fill:#f0f0f0"
   d="m 83.478,170.666 c 0,-24.865 17.476,-45.637 40.812,-50.734 -3.587,-0.784 -7.308,-1.208 -11.13,-1.208 -28.688,0 -51.942,23.254 -51.942,51.941 0,28.687 23.255,51.942 51.942,51.942 3.822,0 7.543,-0.425 11.13,-1.208 -23.336,-5.095 -40.812,-25.867 -40.812,-50.733 z"
   id="path6"
   inkscape:connector-curvature="0" />
	<polygon
   style="fill:#f0f0f0"
   points="165.866,133.772 156.221,140.779 159.905,152.116 150.261,145.11 140.616,152.116 144.301,140.779 134.656,133.772 146.577,133.772 150.261,122.435 153.945,133.772 "
   id="polygon8" />
	<polygon
   style="fill:#f0f0f0"
   points="136.948,156.033 127.303,163.04 130.987,174.377 121.344,167.371 111.699,174.377 115.384,163.04 105.739,156.033 117.66,156.033 121.344,144.696 125.027,156.033 "
   id="polygon10" />
	<polygon
   style="fill:#f0f0f0"
   points="194.783,156.033 185.138,163.04 188.822,174.377 179.178,167.371 169.534,174.377 173.219,163.04 163.574,156.033 175.495,156.033 179.178,144.696 182.862,156.033 "
   id="polygon12" />
	<polygon
   style="fill:#f0f0f0"
   points="183.652,189.424 174.008,196.431 177.692,207.768 168.047,200.762 158.404,207.768 162.088,196.431 152.444,189.424 164.364,189.424 168.047,178.087 171.731,189.424 "
   id="polygon14" />
	<polygon
   style="fill:#f0f0f0"
   points="148.078,189.424 138.434,196.431 142.118,207.768 132.474,200.762 122.83,207.768 126.514,196.431 116.87,189.424 128.79,189.424 132.474,178.087 136.157,189.424 "
   id="polygon16" />
</g>
<g
   id="g20"
   transform="translate(0,-85.336998)">
</g>
<g
   id="g22"
   transform="translate(0,-85.336998)">
</g>
<g
   id="g24"
   transform="translate(0,-85.336998)">
</g>
<g
   id="g26"
   transform="translate(0,-85.336998)">
</g>
<g
   id="g28"
   transform="translate(0,-85.336998)">
</g>
<g
   id="g30"
   transform="translate(0,-85.336998)">
</g>
<g
   id="g32"
   transform="translate(0,-85.336998)">
</g>
<g
   id="g34"
   transform="translate(0,-85.336998)">
</g>
<g
   id="g36"
   transform="translate(0,-85.336998)">
</g>
<g
   id="g38"
   transform="translate(0,-85.336998)">
</g>
<g
   id="g40"
   transform="translate(0,-85.336998)">
</g>
<g
   id="g42"
   transform="translate(0,-85.336998)">
</g>
<g
   id="g44"
   transform="translate(0,-85.336998)">
</g>
<g
   id="g46"
   transform="translate(0,-85.336998)">
</g>
<g
   id="g48"
   transform="translate(0,-85.336998)">
</g>
</svg>