<?xml version="1.0" encoding="UTF-8" standalone="no"?>
<!-- Generator: Adobe Illustrator 19.0.0, SVG Export Plug-In . SVG Version: 6.00 Build 0)  -->

<svg
   xmlns:dc="http://purl.org/dc/elements/1.1/"
   xmlns:cc="http://creativecommons.org/ns#"
   xmlns:rdf="http://www.w3.org/1999/02/22-rdf-syntax-ns#"
   xmlns:svg="http://www.w3.org/2000/svg"
   xmlns="http://www.w3.org/2000/svg"
   xmlns:sodipodi="http://sodipodi.sourceforge.net/DTD/sodipodi-0.dtd"
   xmlns:inkscape="http://www.inkscape.org/namespaces/inkscape"
   version="1.1"
   id="Capa_1"
   x="0px"
   y="0px"
   viewBox="0 0 512 341.32599"
   xml:space="preserve"
   sodipodi:docname="SLV.svg"
   width="512"
   height="341.32599"
   inkscape:version="0.92.4 5da689c313, 2019-01-14"><metadata
   id="metadata51"><rdf:RDF><cc:Work
       rdf:about=""><dc:format>image/svg+xml</dc:format><dc:type
         rdf:resource="http://purl.org/dc/dcmitype/StillImage" /><dc:title></dc:title></cc:Work></rdf:RDF></metadata><defs
   id="defs49" /><sodipodi:namedview
   pagecolor="#ffffff"
   bordercolor="#666666"
   borderopacity="1"
   objecttolerance="10"
   gridtolerance="10"
   guidetolerance="10"
   inkscape:pageopacity="0"
   inkscape:pageshadow="2"
   inkscape:window-width="736"
   inkscape:window-height="480"
   id="namedview47"
   showgrid="false"
   fit-margin-top="0"
   fit-margin-left="0"
   fit-margin-right="0"
   fit-margin-bottom="0"
   inkscape:zoom="0.4609375"
   inkscape:cx="256"
   inkscape:cy="170.663"
   inkscape:window-x="0"
   inkscape:window-y="0"
   inkscape:window-maximized="0"
   inkscape:current-layer="Capa_1" />
<rect
   y="0"
   style="fill:#f0f0f0"
   width="512"
   height="341.32599"
   id="rect2"
   x="0" />
<g
   id="g8"
   transform="translate(0,-85.336998)">
	<rect
   y="85.336998"
   style="fill:#0052b4"
   width="512"
   height="113.775"
   id="rect4"
   x="0" />
	<rect
   y="312.888"
   style="fill:#0052b4"
   width="512"
   height="113.775"
   id="rect6"
   x="0" />
</g>
<polygon
   style="fill:#ffda44"
   points="283.418,261.936 228.582,261.936 256,214.447 "
   id="polygon10"
   transform="translate(0,-85.336998)" />
<polygon
   style="fill:#6da544"
   points="220.384,277.616 220.384,253.872 291.616,253.872 291.616,277.616 256,295.425 "
   id="polygon12"
   transform="translate(0,-85.336998)" />
<path
   style="fill:#ffda44"
   d="m 289.579,131.148 -12.592,12.592 c 5.37,5.372 8.693,12.791 8.693,20.988 0,16.392 -13.289,29.68 -29.68,29.68 -16.392,0 -29.68,-13.289 -29.68,-29.68 0,-8.195 3.322,-15.616 8.693,-20.988 l -12.592,-12.592 c -8.594,8.594 -13.91,20.466 -13.91,33.579 0,26.228 21.261,47.489 47.489,47.489 26.228,0 47.489,-21.261 47.489,-47.489 0,-13.114 -5.316,-24.987 -13.91,-33.579 z"
   id="path14"
   inkscape:connector-curvature="0" />
<g
   id="g16"
   transform="translate(0,-85.336998)">
</g>
<g
   id="g18"
   transform="translate(0,-85.336998)">
</g>
<g
   id="g20"
   transform="translate(0,-85.336998)">
</g>
<g
   id="g22"
   transform="translate(0,-85.336998)">
</g>
<g
   id="g24"
   transform="translate(0,-85.336998)">
</g>
<g
   id="g26"
   transform="translate(0,-85.336998)">
</g>
<g
   id="g28"
   transform="translate(0,-85.336998)">
</g>
<g
   id="g30"
   transform="translate(0,-85.336998)">
</g>
<g
   id="g32"
   transform="translate(0,-85.336998)">
</g>
<g
   id="g34"
   transform="translate(0,-85.336998)">
</g>
<g
   id="g36"
   transform="translate(0,-85.336998)">
</g>
<g
   id="g38"
   transform="translate(0,-85.336998)">
</g>
<g
   id="g40"
   transform="translate(0,-85.336998)">
</g>
<g
   id="g42"
   transform="translate(0,-85.336998)">
</g>
<g
   id="g44"
   transform="translate(0,-85.336998)">
</g>
</svg>