<?xml version="1.0" encoding="UTF-8" standalone="no"?>
<!-- Generator: Adobe Illustrator 19.0.0, SVG Export Plug-In . SVG Version: 6.00 Build 0)  -->

<svg
   xmlns:dc="http://purl.org/dc/elements/1.1/"
   xmlns:cc="http://creativecommons.org/ns#"
   xmlns:rdf="http://www.w3.org/1999/02/22-rdf-syntax-ns#"
   xmlns:svg="http://www.w3.org/2000/svg"
   xmlns="http://www.w3.org/2000/svg"
   xmlns:sodipodi="http://sodipodi.sourceforge.net/DTD/sodipodi-0.dtd"
   xmlns:inkscape="http://www.inkscape.org/namespaces/inkscape"
   version="1.1"
   id="Capa_1"
   x="0px"
   y="0px"
   viewBox="0 0 512 341.33197"
   xml:space="preserve"
   sodipodi:docname="SMR.svg"
   width="512"
   height="341.33197"
   inkscape:version="0.92.4 5da689c313, 2019-01-14"><metadata
   id="metadata51"><rdf:RDF><cc:Work
       rdf:about=""><dc:format>image/svg+xml</dc:format><dc:type
         rdf:resource="http://purl.org/dc/dcmitype/StillImage" /><dc:title></dc:title></cc:Work></rdf:RDF></metadata><defs
   id="defs49" /><sodipodi:namedview
   pagecolor="#ffffff"
   bordercolor="#666666"
   borderopacity="1"
   objecttolerance="10"
   gridtolerance="10"
   guidetolerance="10"
   inkscape:pageopacity="0"
   inkscape:pageshadow="2"
   inkscape:window-width="736"
   inkscape:window-height="480"
   id="namedview47"
   showgrid="false"
   fit-margin-top="0"
   fit-margin-left="0"
   fit-margin-right="0"
   fit-margin-bottom="0"
   inkscape:zoom="0.4609375"
   inkscape:cx="256"
   inkscape:cy="170.66599"
   inkscape:window-x="0"
   inkscape:window-y="0"
   inkscape:window-maximized="0"
   inkscape:current-layer="Capa_1" />
<rect
   y="0.0059963381"
   style="fill:#338af3"
   width="512"
   height="341.32599"
   id="rect2"
   x="0" />
<polygon
   style="fill:#f0f0f0"
   points="0,256.175 0,85.334 512,85.334 512,252.024 "
   id="polygon4"
   transform="translate(0,-85.334)" />
<path
   style="fill:#6da544"
   d="M 323.744,117.765 256,185.509 188.256,117.765 c -8.76,13.005 -13.879,28.658 -13.879,45.483 v 22.261 c 0,35.744 23.097,66.193 55.148,77.213 -4.277,8.385 -3.556,18.848 2.712,26.671 8.326,-6.673 16.945,-13.58 24.258,-19.439 7.313,5.859 15.932,12.767 24.258,19.439 6.342,-7.915 7.011,-18.534 2.564,-26.968 31.614,-11.261 54.308,-41.485 54.308,-76.916 v -22.261 c -0.002,-16.826 -5.121,-32.477 -13.881,-45.483 z"
   id="path6"
   inkscape:connector-curvature="0" />
<path
   style="fill:#ffda44"
   d="m 256,244.872 c -32.732,0 -59.362,-26.63 -59.362,-59.362 v -22.261 c 0,-32.733 26.63,-59.363 59.362,-59.363 32.732,0 59.362,26.63 59.362,59.362 v 22.261 c 0,32.733 -26.63,59.363 -59.362,59.363 z"
   id="path8"
   inkscape:connector-curvature="0" />
<path
   style="fill:#338af3"
   d="m 293.101,185.509 v -22.261 c 0,-20.458 -16.643,-37.101 -37.101,-37.101 -20.458,0 -37.101,16.643 -37.101,37.101 v 22.261 L 256,192.93 Z"
   id="path10"
   inkscape:connector-curvature="0" />
<path
   style="fill:#6da544"
   d="m 218.899,185.509 v 0 c 0,20.458 16.643,37.101 37.101,37.101 20.458,0 37.101,-16.643 37.101,-37.101 v 0 z"
   id="path12"
   inkscape:connector-curvature="0" />
<path
   style="fill:#ffda44"
   d="m 300.522,103.886 c 0,-12.295 -9.966,-22.261 -22.261,-22.261 -5.703,0 -10.901,2.146 -14.84,5.672 V 74.204 h 7.421 v -14.84 h -7.421 v -7.421 h -14.84 v 7.421 h -7.421 v 14.84 h 7.421 v 13.093 c -3.94,-3.526 -9.138,-5.672 -14.841,-5.672 -12.295,0 -22.261,9.966 -22.261,22.261 0,6.591 2.867,12.512 7.421,16.589 v 13.093 h 74.203 v -13.093 c 4.552,-4.077 7.419,-9.997 7.419,-16.589 z"
   id="path14"
   inkscape:connector-curvature="0" />
<g
   id="g16"
   transform="translate(0,-85.334)">
</g>
<g
   id="g18"
   transform="translate(0,-85.334)">
</g>
<g
   id="g20"
   transform="translate(0,-85.334)">
</g>
<g
   id="g22"
   transform="translate(0,-85.334)">
</g>
<g
   id="g24"
   transform="translate(0,-85.334)">
</g>
<g
   id="g26"
   transform="translate(0,-85.334)">
</g>
<g
   id="g28"
   transform="translate(0,-85.334)">
</g>
<g
   id="g30"
   transform="translate(0,-85.334)">
</g>
<g
   id="g32"
   transform="translate(0,-85.334)">
</g>
<g
   id="g34"
   transform="translate(0,-85.334)">
</g>
<g
   id="g36"
   transform="translate(0,-85.334)">
</g>
<g
   id="g38"
   transform="translate(0,-85.334)">
</g>
<g
   id="g40"
   transform="translate(0,-85.334)">
</g>
<g
   id="g42"
   transform="translate(0,-85.334)">
</g>
<g
   id="g44"
   transform="translate(0,-85.334)">
</g>
</svg>