<?xml version="1.0" encoding="UTF-8" standalone="no"?>
<!-- Generator: Adobe Illustrator 19.0.0, SVG Export Plug-In . SVG Version: 6.00 Build 0)  -->

<svg
   xmlns:dc="http://purl.org/dc/elements/1.1/"
   xmlns:cc="http://creativecommons.org/ns#"
   xmlns:rdf="http://www.w3.org/1999/02/22-rdf-syntax-ns#"
   xmlns:svg="http://www.w3.org/2000/svg"
   xmlns="http://www.w3.org/2000/svg"
   xmlns:sodipodi="http://sodipodi.sourceforge.net/DTD/sodipodi-0.dtd"
   xmlns:inkscape="http://www.inkscape.org/namespaces/inkscape"
   version="1.1"
   id="Capa_1"
   x="0px"
   y="0px"
   viewBox="0 0 512 341.32602"
   xml:space="preserve"
   sodipodi:docname="SVK.svg"
   width="512"
   height="341.32602"
   inkscape:version="0.92.4 5da689c313, 2019-01-14"><metadata
   id="metadata51"><rdf:RDF><cc:Work
       rdf:about=""><dc:format>image/svg+xml</dc:format><dc:type
         rdf:resource="http://purl.org/dc/dcmitype/StillImage" /><dc:title></dc:title></cc:Work></rdf:RDF></metadata><defs
   id="defs49" /><sodipodi:namedview
   pagecolor="#ffffff"
   bordercolor="#666666"
   borderopacity="1"
   objecttolerance="10"
   gridtolerance="10"
   guidetolerance="10"
   inkscape:pageopacity="0"
   inkscape:pageshadow="2"
   inkscape:window-width="736"
   inkscape:window-height="480"
   id="namedview47"
   showgrid="false"
   fit-margin-top="0"
   fit-margin-left="0"
   fit-margin-right="0"
   fit-margin-bottom="0"
   inkscape:zoom="0.4609375"
   inkscape:cx="256"
   inkscape:cy="170.66301"
   inkscape:window-x="0"
   inkscape:window-y="0"
   inkscape:window-maximized="0"
   inkscape:current-layer="Capa_1" />
<rect
   y="0"
   style="fill:#f0f0f0"
   width="512"
   height="341.32599"
   id="rect2"
   x="0" />
<rect
   y="111.30401"
   style="fill:#0052b4"
   width="512"
   height="118.717"
   id="rect4"
   x="0" />
<rect
   y="230.022"
   style="fill:#d80027"
   width="512"
   height="111.304"
   id="rect6"
   x="0" />
<path
   style="fill:#f0f0f0"
   d="M 129.468,96.462002 V 181.598 c 0,48.429 63.267,63.267 63.267,63.267 0,0 63.265,-14.84 63.265,-63.267 V 96.462002 Z"
   id="path8"
   inkscape:connector-curvature="0" />
<path
   style="fill:#d80027"
   d="M 146.126,98.957002 V 180.898 c 0,5.472 1.215,10.64 3.623,15.485 23.89,0 59.599,0 85.97,0 2.408,-4.844 3.623,-10.012 3.623,-15.485 V 98.957002 Z"
   id="path10"
   inkscape:connector-curvature="0" />
<polygon
   style="fill:#f0f0f0"
   points="199.876,227.144 214.16,227.144 214.16,212.861 199.876,212.861 199.876,198.577 185.593,198.577 185.593,212.861 171.311,212.861 171.311,227.144 185.593,227.144 185.593,241.427 164.167,241.427 164.167,255.711 185.593,255.711 185.593,269.994 199.876,269.994 199.876,255.711 221.301,255.711 221.301,241.427 199.876,241.427 "
   id="polygon12"
   transform="translate(0,-85.336998)" />
<path
   style="fill:#0052b4"
   d="m 169.232,216.321 c 9.204,5.783 18.66,9.143 23.502,10.636 4.842,-1.494 14.298,-4.852 23.502,-10.636 9.282,-5.833 15.79,-12.506 19.484,-19.939 -4.075,-2.883 -9.047,-4.583 -14.418,-4.583 -1.956,0 -3.856,0.232 -5.682,0.657 -3.871,-8.796 -12.658,-14.94 -22.884,-14.94 -10.227,0 -19.013,6.144 -22.884,14.94 -1.827,-0.425 -3.728,-0.657 -5.682,-0.657 -5.372,0 -10.344,1.701 -14.418,4.583 3.691,7.433 10.198,14.106 19.48,19.939 z"
   id="path14"
   inkscape:connector-curvature="0" />
<g
   id="g16"
   transform="translate(0,-85.336998)">
</g>
<g
   id="g18"
   transform="translate(0,-85.336998)">
</g>
<g
   id="g20"
   transform="translate(0,-85.336998)">
</g>
<g
   id="g22"
   transform="translate(0,-85.336998)">
</g>
<g
   id="g24"
   transform="translate(0,-85.336998)">
</g>
<g
   id="g26"
   transform="translate(0,-85.336998)">
</g>
<g
   id="g28"
   transform="translate(0,-85.336998)">
</g>
<g
   id="g30"
   transform="translate(0,-85.336998)">
</g>
<g
   id="g32"
   transform="translate(0,-85.336998)">
</g>
<g
   id="g34"
   transform="translate(0,-85.336998)">
</g>
<g
   id="g36"
   transform="translate(0,-85.336998)">
</g>
<g
   id="g38"
   transform="translate(0,-85.336998)">
</g>
<g
   id="g40"
   transform="translate(0,-85.336998)">
</g>
<g
   id="g42"
   transform="translate(0,-85.336998)">
</g>
<g
   id="g44"
   transform="translate(0,-85.336998)">
</g>
</svg>