<?xml version="1.0" encoding="UTF-8" standalone="no"?>
<!-- Generator: Adobe Illustrator 19.0.0, SVG Export Plug-In . SVG Version: 6.00 Build 0)  -->

<svg
   xmlns:dc="http://purl.org/dc/elements/1.1/"
   xmlns:cc="http://creativecommons.org/ns#"
   xmlns:rdf="http://www.w3.org/1999/02/22-rdf-syntax-ns#"
   xmlns:svg="http://www.w3.org/2000/svg"
   xmlns="http://www.w3.org/2000/svg"
   xmlns:sodipodi="http://sodipodi.sourceforge.net/DTD/sodipodi-0.dtd"
   xmlns:inkscape="http://www.inkscape.org/namespaces/inkscape"
   version="1.1"
   id="Capa_1"
   x="0px"
   y="0px"
   viewBox="0 0 512 341.33701"
   xml:space="preserve"
   sodipodi:docname="SYR.svg"
   width="512"
   height="341.33701"
   inkscape:version="0.92.4 5da689c313, 2019-01-14"><metadata
   id="metadata49"><rdf:RDF><cc:Work
       rdf:about=""><dc:format>image/svg+xml</dc:format><dc:type
         rdf:resource="http://purl.org/dc/dcmitype/StillImage" /><dc:title></dc:title></cc:Work></rdf:RDF></metadata><defs
   id="defs47" /><sodipodi:namedview
   pagecolor="#ffffff"
   bordercolor="#666666"
   borderopacity="1"
   objecttolerance="10"
   gridtolerance="10"
   guidetolerance="10"
   inkscape:pageopacity="0"
   inkscape:pageshadow="2"
   inkscape:window-width="736"
   inkscape:window-height="480"
   id="namedview45"
   showgrid="false"
   fit-margin-top="0"
   fit-margin-left="0"
   fit-margin-right="0"
   fit-margin-bottom="0"
   inkscape:zoom="0.4609375"
   inkscape:cx="256"
   inkscape:cy="170.66801"
   inkscape:window-x="0"
   inkscape:window-y="0"
   inkscape:window-maximized="0"
   inkscape:current-layer="Capa_1" />
<rect
   y="0"
   style="fill:#f0f0f0"
   width="512"
   height="341.33701"
   id="rect2"
   x="0" />
<rect
   y="0"
   style="fill:#d80027"
   width="512"
   height="113.775"
   id="rect4"
   x="0" />
<rect
   y="227.55099"
   width="512"
   height="113.775"
   id="rect6"
   x="0" />
<g
   id="g12"
   transform="translate(0,-85.331001)">
	<polygon
   style="fill:#6da544"
   points="226.32,243.525 202.21,261.043 211.419,289.385 187.31,271.869 163.2,289.385 172.409,261.043 148.3,243.525 178.101,243.525 187.31,215.184 196.518,243.525 "
   id="polygon8" />
	<polygon
   style="fill:#6da544"
   points="363.7,243.525 339.591,261.043 348.8,289.385 324.69,271.869 300.581,289.385 309.79,261.043 285.68,243.525 315.482,243.525 324.69,215.184 333.899,243.525 "
   id="polygon10" />
</g>
<g
   id="g14"
   transform="translate(0,-85.331001)">
</g>
<g
   id="g16"
   transform="translate(0,-85.331001)">
</g>
<g
   id="g18"
   transform="translate(0,-85.331001)">
</g>
<g
   id="g20"
   transform="translate(0,-85.331001)">
</g>
<g
   id="g22"
   transform="translate(0,-85.331001)">
</g>
<g
   id="g24"
   transform="translate(0,-85.331001)">
</g>
<g
   id="g26"
   transform="translate(0,-85.331001)">
</g>
<g
   id="g28"
   transform="translate(0,-85.331001)">
</g>
<g
   id="g30"
   transform="translate(0,-85.331001)">
</g>
<g
   id="g32"
   transform="translate(0,-85.331001)">
</g>
<g
   id="g34"
   transform="translate(0,-85.331001)">
</g>
<g
   id="g36"
   transform="translate(0,-85.331001)">
</g>
<g
   id="g38"
   transform="translate(0,-85.331001)">
</g>
<g
   id="g40"
   transform="translate(0,-85.331001)">
</g>
<g
   id="g42"
   transform="translate(0,-85.331001)">
</g>
</svg>