<?xml version="1.0" encoding="UTF-8" standalone="no"?>
<!-- Generator: Adobe Illustrator 19.0.0, SVG Export Plug-In . SVG Version: 6.00 Build 0)  -->

<svg
   xmlns:dc="http://purl.org/dc/elements/1.1/"
   xmlns:cc="http://creativecommons.org/ns#"
   xmlns:rdf="http://www.w3.org/1999/02/22-rdf-syntax-ns#"
   xmlns:svg="http://www.w3.org/2000/svg"
   xmlns="http://www.w3.org/2000/svg"
   xmlns:sodipodi="http://sodipodi.sourceforge.net/DTD/sodipodi-0.dtd"
   xmlns:inkscape="http://www.inkscape.org/namespaces/inkscape"
   version="1.1"
   id="Capa_1"
   x="0px"
   y="0px"
   viewBox="0 0 512 341.32599"
   xml:space="preserve"
   sodipodi:docname="TJK.svg"
   width="512"
   height="341.32599"
   inkscape:version="0.92.4 5da689c313, 2019-01-14"><metadata
   id="metadata61"><rdf:RDF><cc:Work
       rdf:about=""><dc:format>image/svg+xml</dc:format><dc:type
         rdf:resource="http://purl.org/dc/dcmitype/StillImage" /><dc:title></dc:title></cc:Work></rdf:RDF></metadata><defs
   id="defs59" /><sodipodi:namedview
   pagecolor="#ffffff"
   bordercolor="#666666"
   borderopacity="1"
   objecttolerance="10"
   gridtolerance="10"
   guidetolerance="10"
   inkscape:pageopacity="0"
   inkscape:pageshadow="2"
   inkscape:window-width="736"
   inkscape:window-height="480"
   id="namedview57"
   showgrid="false"
   fit-margin-top="0"
   fit-margin-left="0"
   fit-margin-right="0"
   fit-margin-bottom="0"
   inkscape:zoom="0.4609375"
   inkscape:cx="256"
   inkscape:cy="170.663"
   inkscape:window-x="0"
   inkscape:window-y="0"
   inkscape:window-maximized="0"
   inkscape:current-layer="Capa_1" />
<rect
   y="0"
   style="fill:#f0f0f0"
   width="512"
   height="341.32599"
   id="rect2"
   x="0" />
<rect
   y="0"
   style="fill:#d80027"
   width="512"
   height="113.775"
   id="rect4"
   x="0" />
<rect
   y="227.55099"
   style="fill:#6da544"
   width="512"
   height="113.775"
   id="rect6"
   x="0" />
<g
   id="g24"
   transform="translate(0,-85.336998)">
	<polygon
   style="fill:#ffda44"
   points="285.682,275.292 273.809,281.229 256,263.421 238.191,281.229 226.318,275.292 226.318,300.522 285.682,300.522 "
   id="polygon8" />
	<polygon
   style="fill:#ffda44"
   points="204.058,279.344 196.825,284.599 199.588,293.101 192.355,287.846 185.121,293.101 187.884,284.599 180.651,279.344 189.591,279.344 192.355,270.84 195.118,279.344 "
   id="polygon10" />
	<polygon
   style="fill:#ffda44"
   points="212.624,249.662 205.391,254.917 208.154,263.421 200.921,258.165 193.687,263.421 196.45,254.917 189.217,249.662 198.157,249.662 200.921,241.16 203.684,249.662 "
   id="polygon12" />
	<polygon
   style="fill:#ffda44"
   points="237.112,227.401 229.879,232.656 232.642,241.16 225.409,235.904 218.175,241.16 220.938,232.656 213.705,227.401 222.645,227.401 225.409,218.899 228.172,227.401 "
   id="polygon14" />
	<polygon
   style="fill:#ffda44"
   points="307.942,279.344 315.175,284.599 312.412,293.101 319.645,287.846 326.879,293.101 324.116,284.599 331.349,279.344 322.409,279.344 319.645,270.84 316.882,279.344 "
   id="polygon16" />
	<polygon
   style="fill:#ffda44"
   points="299.376,249.662 306.609,254.917 303.846,263.421 311.079,258.165 318.313,263.421 315.55,254.917 322.783,249.662 313.843,249.662 311.079,241.16 308.316,249.662 "
   id="polygon18" />
	<polygon
   style="fill:#ffda44"
   points="274.888,227.401 282.121,232.656 279.358,241.16 286.591,235.904 293.825,241.16 291.062,232.656 298.295,227.401 289.355,227.401 286.591,218.899 283.828,227.401 "
   id="polygon20" />
	<polygon
   style="fill:#ffda44"
   points="267.704,216.27 260.47,221.526 263.233,230.028 256,224.774 248.767,230.028 251.53,221.526 244.296,216.27 253.237,216.27 256,207.767 258.763,216.27 "
   id="polygon22" />
</g>
<g
   id="g26"
   transform="translate(0,-85.336998)">
</g>
<g
   id="g28"
   transform="translate(0,-85.336998)">
</g>
<g
   id="g30"
   transform="translate(0,-85.336998)">
</g>
<g
   id="g32"
   transform="translate(0,-85.336998)">
</g>
<g
   id="g34"
   transform="translate(0,-85.336998)">
</g>
<g
   id="g36"
   transform="translate(0,-85.336998)">
</g>
<g
   id="g38"
   transform="translate(0,-85.336998)">
</g>
<g
   id="g40"
   transform="translate(0,-85.336998)">
</g>
<g
   id="g42"
   transform="translate(0,-85.336998)">
</g>
<g
   id="g44"
   transform="translate(0,-85.336998)">
</g>
<g
   id="g46"
   transform="translate(0,-85.336998)">
</g>
<g
   id="g48"
   transform="translate(0,-85.336998)">
</g>
<g
   id="g50"
   transform="translate(0,-85.336998)">
</g>
<g
   id="g52"
   transform="translate(0,-85.336998)">
</g>
<g
   id="g54"
   transform="translate(0,-85.336998)">
</g>
</svg>