<?xml version="1.0" encoding="UTF-8" standalone="no"?>
<!-- Generator: Adobe Illustrator 19.0.0, SVG Export Plug-In . SVG Version: 6.00 Build 0)  -->

<svg
   xmlns:dc="http://purl.org/dc/elements/1.1/"
   xmlns:cc="http://creativecommons.org/ns#"
   xmlns:rdf="http://www.w3.org/1999/02/22-rdf-syntax-ns#"
   xmlns:svg="http://www.w3.org/2000/svg"
   xmlns="http://www.w3.org/2000/svg"
   xmlns:sodipodi="http://sodipodi.sourceforge.net/DTD/sodipodi-0.dtd"
   xmlns:inkscape="http://www.inkscape.org/namespaces/inkscape"
   version="1.1"
   id="Capa_1"
   x="0px"
   y="0px"
   viewBox="0 0 512 341.32599"
   xml:space="preserve"
   sodipodi:docname="TUV.svg"
   width="512"
   height="341.32599"
   inkscape:version="0.92.4 5da689c313, 2019-01-14"><metadata
   id="metadata45"><rdf:RDF><cc:Work
       rdf:about=""><dc:format>image/svg+xml</dc:format><dc:type
         rdf:resource="http://purl.org/dc/dcmitype/StillImage" /><dc:title></dc:title></cc:Work></rdf:RDF></metadata><defs
   id="defs43" /><sodipodi:namedview
   pagecolor="#ffffff"
   bordercolor="#666666"
   borderopacity="1"
   objecttolerance="10"
   gridtolerance="10"
   guidetolerance="10"
   inkscape:pageopacity="0"
   inkscape:pageshadow="2"
   inkscape:window-width="736"
   inkscape:window-height="480"
   id="namedview41"
   showgrid="false"
   fit-margin-top="0"
   fit-margin-left="0"
   fit-margin-right="0"
   fit-margin-bottom="0"
   inkscape:zoom="0.4609375"
   inkscape:cx="256"
   inkscape:cy="170.66299"
   inkscape:window-x="0"
   inkscape:window-y="0"
   inkscape:window-maximized="0"
   inkscape:current-layer="Capa_1" />
<rect
   y="0"
   style="fill:#d80027"
   width="512"
   height="341.32599"
   id="rect2"
   x="0" />
<g
   id="g8"
   transform="translate(0,-85.336998)">
	<polygon
   style="fill:#f0f0f0"
   points="293.3,231.794 275.679,256.018 293.271,280.262 264.787,270.988 247.166,295.213 247.184,265.258 218.7,255.983 247.194,246.744 247.213,216.787 264.807,241.033 "
   id="polygon4" />
	<path
   style="fill:#f0f0f0"
   d="m 199.202,316.602 c -33.469,0 -60.602,-27.133 -60.602,-60.602 0,-33.469 27.133,-60.602 60.602,-60.602 10.436,0 20.254,2.639 28.827,7.284 -13.448,-13.152 -31.84,-21.269 -52.135,-21.269 -41.193,0 -74.586,33.394 -74.586,74.586 0,41.192 33.394,74.586 74.586,74.586 20.295,0 38.687,-8.117 52.135,-21.269 -8.572,4.647 -18.391,7.286 -28.827,7.286 z"
   id="path6"
   inkscape:connector-curvature="0" />
</g>
<g
   id="g10"
   transform="translate(0,-85.336998)">
</g>
<g
   id="g12"
   transform="translate(0,-85.336998)">
</g>
<g
   id="g14"
   transform="translate(0,-85.336998)">
</g>
<g
   id="g16"
   transform="translate(0,-85.336998)">
</g>
<g
   id="g18"
   transform="translate(0,-85.336998)">
</g>
<g
   id="g20"
   transform="translate(0,-85.336998)">
</g>
<g
   id="g22"
   transform="translate(0,-85.336998)">
</g>
<g
   id="g24"
   transform="translate(0,-85.336998)">
</g>
<g
   id="g26"
   transform="translate(0,-85.336998)">
</g>
<g
   id="g28"
   transform="translate(0,-85.336998)">
</g>
<g
   id="g30"
   transform="translate(0,-85.336998)">
</g>
<g
   id="g32"
   transform="translate(0,-85.336998)">
</g>
<g
   id="g34"
   transform="translate(0,-85.336998)">
</g>
<g
   id="g36"
   transform="translate(0,-85.336998)">
</g>
<g
   id="g38"
   transform="translate(0,-85.336998)">
</g>
</svg>