<?xml version="1.0" encoding="UTF-8" standalone="no"?>
<!-- Generator: Adobe Illustrator 19.0.0, SVG Export Plug-In . SVG Version: 6.00 Build 0)  -->

<svg
   xmlns:dc="http://purl.org/dc/elements/1.1/"
   xmlns:cc="http://creativecommons.org/ns#"
   xmlns:rdf="http://www.w3.org/1999/02/22-rdf-syntax-ns#"
   xmlns:svg="http://www.w3.org/2000/svg"
   xmlns="http://www.w3.org/2000/svg"
   xmlns:sodipodi="http://sodipodi.sourceforge.net/DTD/sodipodi-0.dtd"
   xmlns:inkscape="http://www.inkscape.org/namespaces/inkscape"
   version="1.1"
   id="Capa_1"
   x="0px"
   y="0px"
   viewBox="0 0 512 341.32599"
   xml:space="preserve"
   sodipodi:docname="UGA.svg"
   width="512"
   height="341.32599"
   inkscape:version="0.92.4 5da689c313, 2019-01-14"><metadata
   id="metadata51"><rdf:RDF><cc:Work
       rdf:about=""><dc:format>image/svg+xml</dc:format><dc:type
         rdf:resource="http://purl.org/dc/dcmitype/StillImage" /><dc:title></dc:title></cc:Work></rdf:RDF></metadata><defs
   id="defs49" /><sodipodi:namedview
   pagecolor="#ffffff"
   bordercolor="#666666"
   borderopacity="1"
   objecttolerance="10"
   gridtolerance="10"
   guidetolerance="10"
   inkscape:pageopacity="0"
   inkscape:pageshadow="2"
   inkscape:window-width="736"
   inkscape:window-height="480"
   id="namedview47"
   showgrid="false"
   fit-margin-top="0"
   fit-margin-left="0"
   fit-margin-right="0"
   fit-margin-bottom="0"
   inkscape:zoom="0.4609375"
   inkscape:cx="256"
   inkscape:cy="170.66299"
   inkscape:window-x="0"
   inkscape:window-y="0"
   inkscape:window-maximized="0"
   inkscape:current-layer="Capa_1" />
<rect
   y="0"
   width="512"
   height="341.32599"
   id="rect2"
   x="0" />
<rect
   y="56.888008"
   style="fill:#ffda44"
   width="512"
   height="56.888"
   id="rect4"
   x="0" />
<rect
   y="113.775"
   style="fill:#d80027"
   width="512"
   height="56.888"
   id="rect6"
   x="0" />
<rect
   y="227.55099"
   style="fill:#ffda44"
   width="512"
   height="56.888"
   id="rect8"
   x="0" />
<rect
   y="284.43799"
   style="fill:#d80027"
   width="512"
   height="56.888"
   id="rect10"
   x="0" />
<circle
   style="fill:#f0f0f0"
   cx="256"
   cy="170.66299"
   r="56.953999"
   id="circle12" />
<path
   d="M 276.863,173.566 256,164.525 c 0,0 4.881,-16.201 5.141,-17.31 0.19,-0.81 0.292,-1.655 0.292,-2.523 0,-3.074 -1.245,-5.857 -3.26,-7.87 l 5.247,-5.247 c -3.357,-3.357 -7.994,-5.433 -13.117,-5.433 -5.123,0 -9.76,2.076 -13.117,5.433 l 5.247,5.247 c -2.015,2.014 -3.26,4.796 -3.26,7.87 0,1.124 0.17,2.207 0.48,3.23 l -7.9,7.9 h 14.357 c 0,0 -5.936,8.915 -9.176,16.237 -3.24,7.322 0.045,16.259 7.534,19.588 l 4.33,1.924 7.202,6.771 v 7.421 l -7.421,7.421 h 14.84 v -14.84 l 6.771,-6.771 h 14.004 c 0.068,-0.139 0.138,-0.275 0.201,-0.417 3.331,-7.494 -0.042,-16.262 -7.532,-19.59 z"
   id="path14"
   inkscape:connector-curvature="0" />
<g
   id="g16"
   transform="translate(0,-85.336998)">
</g>
<g
   id="g18"
   transform="translate(0,-85.336998)">
</g>
<g
   id="g20"
   transform="translate(0,-85.336998)">
</g>
<g
   id="g22"
   transform="translate(0,-85.336998)">
</g>
<g
   id="g24"
   transform="translate(0,-85.336998)">
</g>
<g
   id="g26"
   transform="translate(0,-85.336998)">
</g>
<g
   id="g28"
   transform="translate(0,-85.336998)">
</g>
<g
   id="g30"
   transform="translate(0,-85.336998)">
</g>
<g
   id="g32"
   transform="translate(0,-85.336998)">
</g>
<g
   id="g34"
   transform="translate(0,-85.336998)">
</g>
<g
   id="g36"
   transform="translate(0,-85.336998)">
</g>
<g
   id="g38"
   transform="translate(0,-85.336998)">
</g>
<g
   id="g40"
   transform="translate(0,-85.336998)">
</g>
<g
   id="g42"
   transform="translate(0,-85.336998)">
</g>
<g
   id="g44"
   transform="translate(0,-85.336998)">
</g>
</svg>