<?xml version="1.0" encoding="UTF-8" standalone="no"?>
<!-- Generator: Adobe Illustrator 19.0.0, SVG Export Plug-In . SVG Version: 6.00 Build 0)  -->

<svg
   xmlns:dc="http://purl.org/dc/elements/1.1/"
   xmlns:cc="http://creativecommons.org/ns#"
   xmlns:rdf="http://www.w3.org/1999/02/22-rdf-syntax-ns#"
   xmlns:svg="http://www.w3.org/2000/svg"
   xmlns="http://www.w3.org/2000/svg"
   xmlns:sodipodi="http://sodipodi.sourceforge.net/DTD/sodipodi-0.dtd"
   xmlns:inkscape="http://www.inkscape.org/namespaces/inkscape"
   version="1.1"
   id="Capa_1"
   x="0px"
   y="0px"
   viewBox="0 0 512 341.33701"
   xml:space="preserve"
   sodipodi:docname="USA.svg"
   width="512"
   height="341.33701"
   inkscape:version="0.92.4 5da689c313, 2019-01-14"><metadata
   id="metadata77"><rdf:RDF><cc:Work
       rdf:about=""><dc:format>image/svg+xml</dc:format><dc:type
         rdf:resource="http://purl.org/dc/dcmitype/StillImage" /><dc:title></dc:title></cc:Work></rdf:RDF></metadata><defs
   id="defs75" /><sodipodi:namedview
   pagecolor="#ffffff"
   bordercolor="#666666"
   borderopacity="1"
   objecttolerance="10"
   gridtolerance="10"
   guidetolerance="10"
   inkscape:pageopacity="0"
   inkscape:pageshadow="2"
   inkscape:window-width="736"
   inkscape:window-height="480"
   id="namedview73"
   showgrid="false"
   fit-margin-top="0"
   fit-margin-left="0"
   fit-margin-right="0"
   fit-margin-bottom="0"
   inkscape:zoom="0.4609375"
   inkscape:cx="256"
   inkscape:cy="170.66801"
   inkscape:window-x="0"
   inkscape:window-y="0"
   inkscape:window-maximized="0"
   inkscape:current-layer="Capa_1" />
<rect
   y="0"
   style="fill:#f0f0f0"
   width="512"
   height="341.33701"
   id="rect2"
   x="0" />
<g
   id="g12"
   transform="translate(0,-85.331001)">
	<rect
   y="127.994"
   style="fill:#d80027"
   width="512"
   height="42.662998"
   id="rect4"
   x="0" />
	<rect
   y="213.33099"
   style="fill:#d80027"
   width="512"
   height="42.662998"
   id="rect6"
   x="0" />
	<rect
   y="298.65701"
   style="fill:#d80027"
   width="512"
   height="42.662998"
   id="rect8"
   x="0" />
	<rect
   y="383.99399"
   style="fill:#d80027"
   width="512"
   height="42.662998"
   id="rect10"
   x="0" />
</g>
<rect
   y="0"
   style="fill:#2e52b2"
   width="256"
   height="183.797"
   id="rect14"
   x="0" />
<g
   id="g40"
   transform="translate(0,-85.331001)">
	<polygon
   style="fill:#f0f0f0"
   points="82.363,173.308 93.154,181.143 89.031,193.826 99.822,185.991 110.606,193.826 106.484,181.143 117.275,173.308 103.938,173.308 99.822,160.624 95.699,173.308 "
   id="polygon16" />
	<polygon
   style="fill:#f0f0f0"
   points="95.699,219.08 82.363,219.08 93.154,226.916 89.031,239.599 99.822,231.763 110.606,239.599 106.484,226.916 117.275,219.08 103.938,219.08 99.822,206.397 "
   id="polygon18" />
	<polygon
   style="fill:#f0f0f0"
   points="39.337,219.08 26.001,219.08 36.792,226.916 32.669,239.599 43.46,231.763 54.245,239.599 50.123,226.916 60.912,219.08 47.577,219.08 43.46,206.397 "
   id="polygon20" />
	<polygon
   style="fill:#f0f0f0"
   points="26.001,173.308 36.792,181.143 32.669,193.826 43.46,185.991 54.245,193.826 50.123,181.143 60.912,173.308 47.577,173.308 43.46,160.624 39.337,173.308 "
   id="polygon22" />
	<polygon
   style="fill:#f0f0f0"
   points="82.363,127.535 93.154,135.371 89.031,148.054 99.822,140.218 110.606,148.054 106.484,135.371 117.275,127.535 103.938,127.535 99.822,114.85 95.699,127.535 "
   id="polygon24" />
	<polygon
   style="fill:#f0f0f0"
   points="26.001,127.535 36.792,135.371 32.669,148.054 43.46,140.218 54.245,148.054 50.123,135.371 60.912,127.535 47.577,127.535 43.46,114.85 39.337,127.535 "
   id="polygon26" />
	<polygon
   style="fill:#f0f0f0"
   points="138.725,173.308 149.515,181.143 145.394,193.826 156.183,185.991 166.969,193.826 162.846,181.143 173.637,173.308 160.301,173.308 156.183,160.624 152.061,173.308 "
   id="polygon28" />
	<polygon
   style="fill:#f0f0f0"
   points="152.061,219.08 138.725,219.08 149.515,226.916 145.394,239.599 156.183,231.763 166.969,239.599 162.846,226.916 173.637,219.08 160.301,219.08 156.183,206.397 "
   id="polygon30" />
	<polygon
   style="fill:#f0f0f0"
   points="208.423,219.08 195.088,219.08 205.877,226.916 201.755,239.599 212.546,231.763 223.331,239.599 219.208,226.916 229.999,219.08 216.663,219.08 212.546,206.397 "
   id="polygon32" />
	<polygon
   style="fill:#f0f0f0"
   points="195.088,173.308 205.877,181.143 201.755,193.826 212.546,185.991 223.331,193.826 219.208,181.143 229.999,173.308 216.663,173.308 212.546,160.624 208.423,173.308 "
   id="polygon34" />
	<polygon
   style="fill:#f0f0f0"
   points="138.725,127.535 149.515,135.371 145.394,148.054 156.183,140.218 166.969,148.054 162.846,135.371 173.637,127.535 160.301,127.535 156.183,114.85 152.061,127.535 "
   id="polygon36" />
	<polygon
   style="fill:#f0f0f0"
   points="195.088,127.535 205.877,135.371 201.755,148.054 212.546,140.218 223.331,148.054 219.208,135.371 229.999,127.535 216.663,127.535 212.546,114.85 208.423,127.535 "
   id="polygon38" />
</g>
<g
   id="g42"
   transform="translate(0,-85.331001)">
</g>
<g
   id="g44"
   transform="translate(0,-85.331001)">
</g>
<g
   id="g46"
   transform="translate(0,-85.331001)">
</g>
<g
   id="g48"
   transform="translate(0,-85.331001)">
</g>
<g
   id="g50"
   transform="translate(0,-85.331001)">
</g>
<g
   id="g52"
   transform="translate(0,-85.331001)">
</g>
<g
   id="g54"
   transform="translate(0,-85.331001)">
</g>
<g
   id="g56"
   transform="translate(0,-85.331001)">
</g>
<g
   id="g58"
   transform="translate(0,-85.331001)">
</g>
<g
   id="g60"
   transform="translate(0,-85.331001)">
</g>
<g
   id="g62"
   transform="translate(0,-85.331001)">
</g>
<g
   id="g64"
   transform="translate(0,-85.331001)">
</g>
<g
   id="g66"
   transform="translate(0,-85.331001)">
</g>
<g
   id="g68"
   transform="translate(0,-85.331001)">
</g>
<g
   id="g70"
   transform="translate(0,-85.331001)">
</g>
</svg>