<?xml version="1.0" encoding="UTF-8" standalone="no"?>
<!-- Generator: Adobe Illustrator 19.0.0, SVG Export Plug-In . SVG Version: 6.00 Build 0)  -->

<svg
   xmlns:dc="http://purl.org/dc/elements/1.1/"
   xmlns:cc="http://creativecommons.org/ns#"
   xmlns:rdf="http://www.w3.org/1999/02/22-rdf-syntax-ns#"
   xmlns:svg="http://www.w3.org/2000/svg"
   xmlns="http://www.w3.org/2000/svg"
   xmlns:sodipodi="http://sodipodi.sourceforge.net/DTD/sodipodi-0.dtd"
   xmlns:inkscape="http://www.inkscape.org/namespaces/inkscape"
   version="1.1"
   id="Capa_1"
   x="0px"
   y="0px"
   viewBox="0 0 512 341.33701"
   xml:space="preserve"
   sodipodi:docname="VAT.svg"
   width="512"
   height="341.33701"
   inkscape:version="0.92.4 5da689c313, 2019-01-14"><metadata
   id="metadata45"><rdf:RDF><cc:Work
       rdf:about=""><dc:format>image/svg+xml</dc:format><dc:type
         rdf:resource="http://purl.org/dc/dcmitype/StillImage" /><dc:title></dc:title></cc:Work></rdf:RDF></metadata><defs
   id="defs43" /><sodipodi:namedview
   pagecolor="#ffffff"
   bordercolor="#666666"
   borderopacity="1"
   objecttolerance="10"
   gridtolerance="10"
   guidetolerance="10"
   inkscape:pageopacity="0"
   inkscape:pageshadow="2"
   inkscape:window-width="736"
   inkscape:window-height="480"
   id="namedview41"
   showgrid="false"
   fit-margin-top="0"
   fit-margin-left="0"
   fit-margin-right="0"
   fit-margin-bottom="0"
   inkscape:zoom="0.4609375"
   inkscape:cx="256"
   inkscape:cy="170.66801"
   inkscape:window-x="0"
   inkscape:window-y="0"
   inkscape:window-maximized="0"
   inkscape:current-layer="Capa_1" />
<rect
   y="0"
   style="fill:#ffda44"
   width="512"
   height="341.32599"
   id="rect2"
   x="0" />
<rect
   x="256"
   y="0"
   style="fill:#f0f0f0"
   width="256"
   height="341.33701"
   id="rect4" />
<path
   style="fill:#acabb1"
   d="m 321.353,148.506 32.073,42.43 c -5.053,7.651 -5.026,17.961 0.817,25.692 7.414,9.807 21.374,11.748 31.182,4.335 9.807,-7.414 11.748,-21.374 4.334,-31.182 -5.843,-7.731 -15.756,-10.568 -24.495,-7.795 l -49.988,-66.129 -11.838,8.949 -17.759,13.424 17.899,23.677 z m 46.175,48.78 c 3.27,-2.472 7.923,-1.824 10.395,1.445 2.471,3.269 1.824,7.923 -1.445,10.395 -3.269,2.47 -7.923,1.824 -10.394,-1.446 -2.471,-3.268 -1.825,-7.923 1.444,-10.394 z"
   id="path6"
   inkscape:connector-curvature="0" />
<path
   style="fill:#ffda44"
   d="m 376.367,161.909 17.899,-23.677 -17.759,-13.424 -11.838,-8.949 -49.988,66.129 c -8.74,-2.775 -18.651,0.063 -24.495,7.795 -7.414,9.808 -5.473,23.768 4.334,31.182 9.808,7.414 23.768,5.473 31.182,-4.335 5.845,-7.731 5.871,-18.041 0.817,-25.692 l 32.073,-42.43 z m -62.504,45.771 c -2.471,3.27 -7.125,3.916 -10.394,1.446 -3.27,-2.472 -3.916,-7.126 -1.445,-10.395 2.471,-3.268 7.125,-3.916 10.395,-1.445 3.268,2.471 3.915,7.126 1.444,10.394 z"
   id="path8"
   inkscape:connector-curvature="0" />
<g
   id="g10"
   transform="translate(0,-85.331001)">
</g>
<g
   id="g12"
   transform="translate(0,-85.331001)">
</g>
<g
   id="g14"
   transform="translate(0,-85.331001)">
</g>
<g
   id="g16"
   transform="translate(0,-85.331001)">
</g>
<g
   id="g18"
   transform="translate(0,-85.331001)">
</g>
<g
   id="g20"
   transform="translate(0,-85.331001)">
</g>
<g
   id="g22"
   transform="translate(0,-85.331001)">
</g>
<g
   id="g24"
   transform="translate(0,-85.331001)">
</g>
<g
   id="g26"
   transform="translate(0,-85.331001)">
</g>
<g
   id="g28"
   transform="translate(0,-85.331001)">
</g>
<g
   id="g30"
   transform="translate(0,-85.331001)">
</g>
<g
   id="g32"
   transform="translate(0,-85.331001)">
</g>
<g
   id="g34"
   transform="translate(0,-85.331001)">
</g>
<g
   id="g36"
   transform="translate(0,-85.331001)">
</g>
<g
   id="g38"
   transform="translate(0,-85.331001)">
</g>
</svg>