<?xml version="1.0" encoding="UTF-8" standalone="no"?>
<!-- Generator: Adobe Illustrator 19.0.0, SVG Export Plug-In . SVG Version: 6.00 Build 0)  -->

<svg
   xmlns:dc="http://purl.org/dc/elements/1.1/"
   xmlns:cc="http://creativecommons.org/ns#"
   xmlns:rdf="http://www.w3.org/1999/02/22-rdf-syntax-ns#"
   xmlns:svg="http://www.w3.org/2000/svg"
   xmlns="http://www.w3.org/2000/svg"
   xmlns:sodipodi="http://sodipodi.sourceforge.net/DTD/sodipodi-0.dtd"
   xmlns:inkscape="http://www.inkscape.org/namespaces/inkscape"
   version="1.1"
   id="Capa_1"
   x="0px"
   y="0px"
   viewBox="0 0 512 341.32599"
   xml:space="preserve"
   sodipodi:docname="VUT.svg"
   width="512"
   height="341.32599"
   inkscape:version="0.92.4 5da689c313, 2019-01-14"><metadata
   id="metadata55"><rdf:RDF><cc:Work
       rdf:about=""><dc:format>image/svg+xml</dc:format><dc:type
         rdf:resource="http://purl.org/dc/dcmitype/StillImage" /><dc:title></dc:title></cc:Work></rdf:RDF></metadata><defs
   id="defs53" /><sodipodi:namedview
   pagecolor="#ffffff"
   bordercolor="#666666"
   borderopacity="1"
   objecttolerance="10"
   gridtolerance="10"
   guidetolerance="10"
   inkscape:pageopacity="0"
   inkscape:pageshadow="2"
   inkscape:window-width="736"
   inkscape:window-height="480"
   id="namedview51"
   showgrid="false"
   fit-margin-top="0"
   fit-margin-left="0"
   fit-margin-right="0"
   fit-margin-bottom="0"
   inkscape:zoom="0.4609375"
   inkscape:cx="256"
   inkscape:cy="170.663"
   inkscape:window-x="0"
   inkscape:window-y="0"
   inkscape:window-maximized="0"
   inkscape:current-layer="Capa_1" />
<rect
   y="0"
   width="512"
   height="341.32599"
   id="rect2"
   x="0" />
<polygon
   style="fill:#6da544"
   points="0,426.663 215.185,256 512,256 512,426.663 "
   id="polygon4"
   transform="translate(0,-85.336998)" />
<polygon
   style="fill:#d80027"
   points="215.185,256 0,85.337 512,85.337 512,256 "
   id="polygon6"
   transform="translate(0,-85.336998)" />
<polygon
   points="8.956,85.337 217.124,250.435 512,250.435 512,239.304 221.001,239.304 26.868,85.337 "
   id="polygon8"
   transform="translate(0,-85.336998)" />
<polygon
   points="221.001,272.696 512,272.696 512,261.565 217.124,261.565 8.956,426.663 26.868,426.663 "
   id="polygon10"
   transform="translate(0,-85.336998)" />
<polygon
   points="188.317,256 0,405.354 0,419.559 206.229,256 0,92.44 0,106.646 "
   id="polygon12"
   transform="translate(0,-85.336998)" />
<g
   id="g18"
   transform="translate(0,-85.336998)">
	<polygon
   style="fill:#ffda44"
   points="0,92.44 206.229,256 0,419.559 0,426.663 8.956,426.663 217.124,261.565 512,261.565 512,250.435 217.124,250.435 8.956,85.337 0,85.337 "
   id="polygon14" />
	<path
   style="fill:#ffda44"
   d="m 63.718,292.382 v -14.295 c 14.265,0 25.87,-11.606 25.87,-25.869 0,-10.092 -8.211,-18.303 -18.304,-18.303 -6.875,0 -12.469,5.593 -12.469,12.469 0,4.397 3.577,7.974 7.974,7.974 2.485,0 4.508,-2.023 4.508,-4.508 h 14.295 c 0,10.368 -8.435,18.804 -18.802,18.804 -12.279,-0.002 -22.269,-9.993 -22.269,-22.271 0,-14.758 12.006,-26.764 26.764,-26.764 17.975,0 32.599,14.623 32.599,32.599 0,22.145 -18.018,40.164 -40.166,40.164 z"
   id="path16"
   inkscape:connector-curvature="0" />
</g>
<g
   id="g20"
   transform="translate(0,-85.336998)">
</g>
<g
   id="g22"
   transform="translate(0,-85.336998)">
</g>
<g
   id="g24"
   transform="translate(0,-85.336998)">
</g>
<g
   id="g26"
   transform="translate(0,-85.336998)">
</g>
<g
   id="g28"
   transform="translate(0,-85.336998)">
</g>
<g
   id="g30"
   transform="translate(0,-85.336998)">
</g>
<g
   id="g32"
   transform="translate(0,-85.336998)">
</g>
<g
   id="g34"
   transform="translate(0,-85.336998)">
</g>
<g
   id="g36"
   transform="translate(0,-85.336998)">
</g>
<g
   id="g38"
   transform="translate(0,-85.336998)">
</g>
<g
   id="g40"
   transform="translate(0,-85.336998)">
</g>
<g
   id="g42"
   transform="translate(0,-85.336998)">
</g>
<g
   id="g44"
   transform="translate(0,-85.336998)">
</g>
<g
   id="g46"
   transform="translate(0,-85.336998)">
</g>
<g
   id="g48"
   transform="translate(0,-85.336998)">
</g>
</svg>