<?xml version="1.0" encoding="UTF-8" standalone="no"?>
<!-- Generator: Adobe Illustrator 19.0.0, SVG Export Plug-In . SVG Version: 6.00 Build 0)  -->

<svg
   xmlns:dc="http://purl.org/dc/elements/1.1/"
   xmlns:cc="http://creativecommons.org/ns#"
   xmlns:rdf="http://www.w3.org/1999/02/22-rdf-syntax-ns#"
   xmlns:svg="http://www.w3.org/2000/svg"
   xmlns="http://www.w3.org/2000/svg"
   xmlns:sodipodi="http://sodipodi.sourceforge.net/DTD/sodipodi-0.dtd"
   xmlns:inkscape="http://www.inkscape.org/namespaces/inkscape"
   version="1.1"
   id="Capa_1"
   x="0px"
   y="0px"
   viewBox="0 0 512 341.33701"
   xml:space="preserve"
   sodipodi:docname="WSM.svg"
   width="512"
   height="341.33701"
   inkscape:version="0.92.4 5da689c313, 2019-01-14"><metadata
   id="metadata53"><rdf:RDF><cc:Work
       rdf:about=""><dc:format>image/svg+xml</dc:format><dc:type
         rdf:resource="http://purl.org/dc/dcmitype/StillImage" /><dc:title></dc:title></cc:Work></rdf:RDF></metadata><defs
   id="defs51" /><sodipodi:namedview
   pagecolor="#ffffff"
   bordercolor="#666666"
   borderopacity="1"
   objecttolerance="10"
   gridtolerance="10"
   guidetolerance="10"
   inkscape:pageopacity="0"
   inkscape:pageshadow="2"
   inkscape:window-width="736"
   inkscape:window-height="480"
   id="namedview49"
   showgrid="false"
   fit-margin-top="0"
   fit-margin-left="0"
   fit-margin-right="0"
   fit-margin-bottom="0"
   inkscape:zoom="0.4609375"
   inkscape:cx="256"
   inkscape:cy="170.66801"
   inkscape:window-x="0"
   inkscape:window-y="0"
   inkscape:window-maximized="0"
   inkscape:current-layer="Capa_1" />
<rect
   y="0"
   style="fill:#d80027"
   width="512"
   height="341.33701"
   id="rect2"
   x="0" />
<rect
   y="0"
   style="fill:#0052b4"
   width="256"
   height="170.66299"
   id="rect4"
   x="0" />
<g
   id="g16"
   transform="translate(0,-85.331001)">
	<polygon
   style="fill:#f0f0f0"
   points="177.186,190.294 169.954,195.548 172.717,204.051 165.483,198.796 158.25,204.051 161.013,195.548 153.78,190.294 162.72,190.294 165.483,181.79 168.247,190.294 "
   id="polygon6" />
	<polygon
   style="fill:#f0f0f0"
   points="140.085,129.18 128.03,137.937 132.635,152.108 120.579,143.35 108.525,152.108 113.13,137.937 101.074,129.18 115.975,129.18 120.579,115.007 125.185,129.18 "
   id="polygon8" />
	<polygon
   style="fill:#f0f0f0"
   points="184.607,144.02 172.552,152.777 177.156,166.95 165.101,158.19 153.047,166.95 157.651,152.777 145.596,144.02 160.496,144.02 165.101,129.848 169.707,144.02 "
   id="polygon10" />
	<polygon
   style="fill:#f0f0f0"
   points="149.415,203.383 137.36,212.141 141.964,226.312 129.909,217.553 117.855,226.312 122.459,212.141 110.404,203.383 125.304,203.383 129.909,189.211 134.515,203.383 "
   id="polygon12" />
	<polygon
   style="fill:#f0f0f0"
   points="110.404,166.281 98.349,175.038 102.953,189.211 90.899,180.451 78.844,189.211 83.448,175.038 71.393,166.281 86.293,166.281 90.899,152.108 95.504,166.281 "
   id="polygon14" />
</g>
<g
   id="g18"
   transform="translate(0,-85.331001)">
</g>
<g
   id="g20"
   transform="translate(0,-85.331001)">
</g>
<g
   id="g22"
   transform="translate(0,-85.331001)">
</g>
<g
   id="g24"
   transform="translate(0,-85.331001)">
</g>
<g
   id="g26"
   transform="translate(0,-85.331001)">
</g>
<g
   id="g28"
   transform="translate(0,-85.331001)">
</g>
<g
   id="g30"
   transform="translate(0,-85.331001)">
</g>
<g
   id="g32"
   transform="translate(0,-85.331001)">
</g>
<g
   id="g34"
   transform="translate(0,-85.331001)">
</g>
<g
   id="g36"
   transform="translate(0,-85.331001)">
</g>
<g
   id="g38"
   transform="translate(0,-85.331001)">
</g>
<g
   id="g40"
   transform="translate(0,-85.331001)">
</g>
<g
   id="g42"
   transform="translate(0,-85.331001)">
</g>
<g
   id="g44"
   transform="translate(0,-85.331001)">
</g>
<g
   id="g46"
   transform="translate(0,-85.331001)">
</g>
</svg>