<?xml version="1.0" encoding="UTF-8" standalone="no"?>
<!-- Generator: Adobe Illustrator 19.0.0, SVG Export Plug-In . SVG Version: 6.00 Build 0)  -->

<svg
   xmlns:dc="http://purl.org/dc/elements/1.1/"
   xmlns:cc="http://creativecommons.org/ns#"
   xmlns:rdf="http://www.w3.org/1999/02/22-rdf-syntax-ns#"
   xmlns:svg="http://www.w3.org/2000/svg"
   xmlns="http://www.w3.org/2000/svg"
   xmlns:sodipodi="http://sodipodi.sourceforge.net/DTD/sodipodi-0.dtd"
   xmlns:inkscape="http://www.inkscape.org/namespaces/inkscape"
   version="1.1"
   id="Capa_1"
   x="0px"
   y="0px"
   viewBox="0 0 512 341.32599"
   xml:space="preserve"
   sodipodi:docname="ZAF.svg"
   width="512"
   height="341.32599"
   inkscape:version="0.92.4 5da689c313, 2019-01-14"><metadata
   id="metadata49"><rdf:RDF><cc:Work
       rdf:about=""><dc:format>image/svg+xml</dc:format><dc:type
         rdf:resource="http://purl.org/dc/dcmitype/StillImage" /><dc:title></dc:title></cc:Work></rdf:RDF></metadata><defs
   id="defs47" /><sodipodi:namedview
   pagecolor="#ffffff"
   bordercolor="#666666"
   borderopacity="1"
   objecttolerance="10"
   gridtolerance="10"
   guidetolerance="10"
   inkscape:pageopacity="0"
   inkscape:pageshadow="2"
   inkscape:window-width="736"
   inkscape:window-height="480"
   id="namedview45"
   showgrid="false"
   fit-margin-top="0"
   fit-margin-left="0"
   fit-margin-right="0"
   fit-margin-bottom="0"
   inkscape:zoom="0.4609375"
   inkscape:cx="256"
   inkscape:cy="170.663"
   inkscape:window-x="0"
   inkscape:window-y="0"
   inkscape:window-maximized="0"
   inkscape:current-layer="Capa_1" />
<rect
   y="0"
   style="fill:#f0f0f0"
   width="512"
   height="341.32599"
   id="rect2"
   x="0" />
<polygon
   points="0,370.096 114.024,256.001 0,141.926 "
   id="polygon4"
   transform="translate(0,-85.336998)" />
<polygon
   style="fill:#ffda44"
   points="0,141.926 114.024,256.001 0,370.096 0,417.234 161.192,256 0,94.7 "
   id="polygon6"
   transform="translate(0,-85.336998)" />
<path
   style="fill:#6da544"
   d="m 509.833,204.054 v 0 c 0.058,-0.44 0.804,-0.878 2.167,-1.318 V 170.663 137.272 H 509.833 222.602 L 85.33,2.0141602e-6 H 0 V 9.363002 L 161.192,170.663 0,331.897 v 9.429 H 85.33 L 222.602,204.054 Z"
   id="path8"
   inkscape:connector-curvature="0" />
<polygon
   style="fill:#0052b4"
   points="132.552,426.663 512,426.663 512,322.783 503.181,322.783 236.433,322.783 "
   id="polygon10"
   transform="translate(0,-85.336998)" />
<polygon
   style="fill:#d80027"
   points="512,85.337 132.552,85.337 236.433,189.217 503.181,189.217 512,189.217 "
   id="polygon12"
   transform="translate(0,-85.336998)" />
<g
   id="g14"
   transform="translate(0,-85.336998)">
</g>
<g
   id="g16"
   transform="translate(0,-85.336998)">
</g>
<g
   id="g18"
   transform="translate(0,-85.336998)">
</g>
<g
   id="g20"
   transform="translate(0,-85.336998)">
</g>
<g
   id="g22"
   transform="translate(0,-85.336998)">
</g>
<g
   id="g24"
   transform="translate(0,-85.336998)">
</g>
<g
   id="g26"
   transform="translate(0,-85.336998)">
</g>
<g
   id="g28"
   transform="translate(0,-85.336998)">
</g>
<g
   id="g30"
   transform="translate(0,-85.336998)">
</g>
<g
   id="g32"
   transform="translate(0,-85.336998)">
</g>
<g
   id="g34"
   transform="translate(0,-85.336998)">
</g>
<g
   id="g36"
   transform="translate(0,-85.336998)">
</g>
<g
   id="g38"
   transform="translate(0,-85.336998)">
</g>
<g
   id="g40"
   transform="translate(0,-85.336998)">
</g>
<g
   id="g42"
   transform="translate(0,-85.336998)">
</g>
</svg>