<?xml version="1.0" encoding="UTF-8" standalone="no"?>
<!-- Generator: Adobe Illustrator 19.0.0, SVG Export Plug-In . SVG Version: 6.00 Build 0)  -->

<svg
   xmlns:dc="http://purl.org/dc/elements/1.1/"
   xmlns:cc="http://creativecommons.org/ns#"
   xmlns:rdf="http://www.w3.org/1999/02/22-rdf-syntax-ns#"
   xmlns:svg="http://www.w3.org/2000/svg"
   xmlns="http://www.w3.org/2000/svg"
   xmlns:sodipodi="http://sodipodi.sourceforge.net/DTD/sodipodi-0.dtd"
   xmlns:inkscape="http://www.inkscape.org/namespaces/inkscape"
   version="1.1"
   id="Capa_1"
   x="0px"
   y="0px"
   viewBox="0 0 512 341.33701"
   xml:space="preserve"
   sodipodi:docname="ZMB.svg"
   width="512"
   height="341.33701"
   inkscape:version="0.92.4 5da689c313, 2019-01-14"><metadata
   id="metadata47"><rdf:RDF><cc:Work
       rdf:about=""><dc:format>image/svg+xml</dc:format><dc:type
         rdf:resource="http://purl.org/dc/dcmitype/StillImage" /><dc:title></dc:title></cc:Work></rdf:RDF></metadata><defs
   id="defs45" /><sodipodi:namedview
   pagecolor="#ffffff"
   bordercolor="#666666"
   borderopacity="1"
   objecttolerance="10"
   gridtolerance="10"
   guidetolerance="10"
   inkscape:pageopacity="0"
   inkscape:pageshadow="2"
   inkscape:window-width="736"
   inkscape:window-height="480"
   id="namedview43"
   showgrid="false"
   fit-margin-top="0"
   fit-margin-left="0"
   fit-margin-right="0"
   fit-margin-bottom="0"
   inkscape:zoom="0.4609375"
   inkscape:cx="256"
   inkscape:cy="170.66801"
   inkscape:window-x="0"
   inkscape:window-y="0"
   inkscape:window-maximized="0"
   inkscape:current-layer="Capa_1" />
<rect
   y="0"
   style="fill:#496e2d"
   width="512"
   height="341.33701"
   id="rect2"
   x="0" />
<path
   style="fill:#ff9811"
   d="m 490.668,110.145 h -48 c 0,-8.836 -7.164,-16.000001 -16,-16.000001 -8.836,0 -16,7.164001 -16,16.000001 h -48 c 0,8.836 7.697,16 16.533,16 h -0.533 c 0,8.836 7.162,16 16,16 0,8.836 7.162,16 16,16 h 32 c 8.836,0 16,-7.164 16,-16 8.836,0 16,-7.164 16,-16 h -0.533 c 8.837,0 16.533,-7.164 16.533,-16 z"
   id="path4"
   inkscape:connector-curvature="0" />
<rect
   x="341.33701"
   y="170.66299"
   style="fill:#d80027"
   width="56.888"
   height="170.66299"
   id="rect6" />
<rect
   x="455.112"
   y="170.66299"
   style="fill:#ff9811"
   width="56.888"
   height="170.66299"
   id="rect8" />
<rect
   x="398.22501"
   y="170.66299"
   width="56.888"
   height="170.66299"
   id="rect10" />
<g
   id="g12"
   transform="translate(0,-85.331001)">
</g>
<g
   id="g14"
   transform="translate(0,-85.331001)">
</g>
<g
   id="g16"
   transform="translate(0,-85.331001)">
</g>
<g
   id="g18"
   transform="translate(0,-85.331001)">
</g>
<g
   id="g20"
   transform="translate(0,-85.331001)">
</g>
<g
   id="g22"
   transform="translate(0,-85.331001)">
</g>
<g
   id="g24"
   transform="translate(0,-85.331001)">
</g>
<g
   id="g26"
   transform="translate(0,-85.331001)">
</g>
<g
   id="g28"
   transform="translate(0,-85.331001)">
</g>
<g
   id="g30"
   transform="translate(0,-85.331001)">
</g>
<g
   id="g32"
   transform="translate(0,-85.331001)">
</g>
<g
   id="g34"
   transform="translate(0,-85.331001)">
</g>
<g
   id="g36"
   transform="translate(0,-85.331001)">
</g>
<g
   id="g38"
   transform="translate(0,-85.331001)">
</g>
<g
   id="g40"
   transform="translate(0,-85.331001)">
</g>
</svg>