<?xml version="1.0" encoding="UTF-8" standalone="no"?>
<!-- Generator: Adobe Illustrator 19.0.0, SVG Export Plug-In . SVG Version: 6.00 Build 0)  -->

<svg
   xmlns:dc="http://purl.org/dc/elements/1.1/"
   xmlns:cc="http://creativecommons.org/ns#"
   xmlns:rdf="http://www.w3.org/1999/02/22-rdf-syntax-ns#"
   xmlns:svg="http://www.w3.org/2000/svg"
   xmlns="http://www.w3.org/2000/svg"
   xmlns:sodipodi="http://sodipodi.sourceforge.net/DTD/sodipodi-0.dtd"
   xmlns:inkscape="http://www.inkscape.org/namespaces/inkscape"
   version="1.1"
   id="Capa_1"
   x="0px"
   y="0px"
   viewBox="0 0 512 341.34"
   xml:space="preserve"
   sodipodi:docname="ZWE.svg"
   width="512"
   height="341.34"
   inkscape:version="0.92.4 5da689c313, 2019-01-14"><metadata
   id="metadata63"><rdf:RDF><cc:Work
       rdf:about=""><dc:format>image/svg+xml</dc:format><dc:type
         rdf:resource="http://purl.org/dc/dcmitype/StillImage" /><dc:title></dc:title></cc:Work></rdf:RDF></metadata><defs
   id="defs61" /><sodipodi:namedview
   pagecolor="#ffffff"
   bordercolor="#666666"
   borderopacity="1"
   objecttolerance="10"
   gridtolerance="10"
   guidetolerance="10"
   inkscape:pageopacity="0"
   inkscape:pageshadow="2"
   inkscape:window-width="736"
   inkscape:window-height="480"
   id="namedview59"
   showgrid="false"
   fit-margin-top="0"
   fit-margin-left="0"
   fit-margin-right="0"
   fit-margin-bottom="0"
   inkscape:zoom="0.4609375"
   inkscape:cx="256"
   inkscape:cy="170.67001"
   inkscape:window-x="0"
   inkscape:window-y="0"
   inkscape:window-maximized="0"
   inkscape:current-layer="Capa_1" />
<rect
   y="0.003000183"
   width="512"
   height="341.33701"
   id="rect2"
   x="0" />
<g
   id="g8"
   transform="translate(0,-85.33)">
	<rect
   y="134.196"
   style="fill:#ffda44"
   width="512"
   height="48.868"
   id="rect4"
   x="0" />
	<rect
   y="329.668"
   style="fill:#ffda44"
   width="512"
   height="48.868"
   id="rect6"
   x="0" />
</g>
<rect
   y="0.003000183"
   style="fill:#6da544"
   width="512"
   height="48.868"
   id="rect10"
   x="0" />
<g
   id="g16"
   transform="translate(0,-85.33)">
	<rect
   y="183.069"
   style="fill:#d80027"
   width="512"
   height="48.868"
   id="rect12"
   x="0" />
	<rect
   y="280.806"
   style="fill:#d80027"
   width="512"
   height="48.868"
   id="rect14"
   x="0" />
</g>
<rect
   y="293.21201"
   style="fill:#6da544"
   width="512"
   height="48.127998"
   id="rect18"
   x="0" />
<polygon
   style="fill:#f0f0f0"
   points="0,426.659 0,85.333 106.329,85.333 276.992,255.996 106.329,426.659 "
   id="polygon20"
   transform="translate(0,-85.33)" />
<polygon
   points="106.321,426.662 276.988,255.996 106.321,85.33 85.334,85.33 256,255.996 85.334,426.662 "
   id="polygon22"
   transform="translate(0,-85.33)" />
<polygon
   style="fill:#d80027"
   points="158.641,243.382 123.923,268.608 137.183,309.422 102.465,284.198 67.745,309.422 81.007,268.608 46.289,243.382 89.204,243.382 102.465,202.57 115.724,243.382 "
   id="polygon24"
   transform="translate(0,-85.33)" />
<path
   style="fill:#ffda44"
   d="m 138.94,174.005 -34.559,-12.243 c 0,0 -2.553,-23.955 -2.708,-24.766 -1.173,-6.18 -6.603,-10.851 -13.123,-10.851 -7.376,0 -13.357,5.98 -13.357,13.357 0,1.223 0.178,2.402 0.486,3.528 l -9.689,9.755 c 0,0 11.509,0 17.229,0 0,17.882 -13.344,17.882 -13.344,35.691 l 7.402,17.809 h 44.522 l 7.422,-17.809 h -0.004 c 0.744,-1.709 1.194,-3.47 1.381,-5.231 6.397,-2.589 8.342,-9.24 8.342,-9.24 z"
   id="path26"
   inkscape:connector-curvature="0" />
<g
   id="g28"
   transform="translate(0,-85.33)">
</g>
<g
   id="g30"
   transform="translate(0,-85.33)">
</g>
<g
   id="g32"
   transform="translate(0,-85.33)">
</g>
<g
   id="g34"
   transform="translate(0,-85.33)">
</g>
<g
   id="g36"
   transform="translate(0,-85.33)">
</g>
<g
   id="g38"
   transform="translate(0,-85.33)">
</g>
<g
   id="g40"
   transform="translate(0,-85.33)">
</g>
<g
   id="g42"
   transform="translate(0,-85.33)">
</g>
<g
   id="g44"
   transform="translate(0,-85.33)">
</g>
<g
   id="g46"
   transform="translate(0,-85.33)">
</g>
<g
   id="g48"
   transform="translate(0,-85.33)">
</g>
<g
   id="g50"
   transform="translate(0,-85.33)">
</g>
<g
   id="g52"
   transform="translate(0,-85.33)">
</g>
<g
   id="g54"
   transform="translate(0,-85.33)">
</g>
<g
   id="g56"
   transform="translate(0,-85.33)">
</g>
</svg>