<?xml version="1.0" encoding="UTF-8" standalone="no"?>
<svg
   xmlns:dc="http://purl.org/dc/elements/1.1/"
   xmlns:cc="http://creativecommons.org/ns#"
   xmlns:rdf="http://www.w3.org/1999/02/22-rdf-syntax-ns#"
   xmlns:svg="http://www.w3.org/2000/svg"
   xmlns="http://www.w3.org/2000/svg"
   xmlns:sodipodi="http://sodipodi.sourceforge.net/DTD/sodipodi-0.dtd"
   xmlns:inkscape="http://www.inkscape.org/namespaces/inkscape"
   xml:space="preserve"
   viewBox="0 0 100 100"
   height="32"
   width="32"
   version="1.1"
   y="0px"
   x="0px"
   id="svg10"
   sodipodi:docname="stretch-x.svg"
   inkscape:version="0.92.4 5da689c313, 2019-01-14"><defs
   id="defs14" /><sodipodi:namedview
   pagecolor="#ffffff"
   bordercolor="#666666"
   borderopacity="1"
   objecttolerance="10"
   gridtolerance="10"
   guidetolerance="10"
   inkscape:pageopacity="0"
   inkscape:pageshadow="2"
   inkscape:window-width="1920"
   inkscape:window-height="1013"
   id="namedview12"
   showgrid="false"
   units="px"
   inkscape:zoom="8"
   inkscape:cx="14.300629"
   inkscape:cy="31.484127"
   inkscape:window-x="0"
   inkscape:window-y="0"
   inkscape:window-maximized="1"
   inkscape:current-layer="svg10" />
<metadata
   id="metadata2">
<rdf:RDF>
<cc:Work
   rdf:about="">
<dc:format>image/svg+xml</dc:format>
<dc:type
   rdf:resource="http://purl.org/dc/dcmitype/StillImage" />
<dc:title></dc:title>
</cc:Work>
</rdf:RDF>
</metadata>


<g
   id="g824"
   transform="matrix(0.8,0,0,0.8,9.9733618,8.8764206)"><polygon
     style="fill:#aaaabe;stroke:#aaaabe;stroke-width:2.13333344;stroke-linecap:round;stroke-linejoin:round;stroke-miterlimit:4;stroke-dasharray:none"
     id="polygon4"
     stroke-miterlimit="4"
     points="33,26 33,3.414 39.293,9.707 40.707,8.146 32.707,0 31.293,0 23.293,8.146 24.707,9.634 31,3.414 31,26 "
     transform="matrix(0,1.5134611,-1.5134611,0,98.464053,2.973722)" /><polygon
     style="fill:#aaaabe;stroke:#aaaabe;stroke-width:2.13333344;stroke-linejoin:round;stroke-miterlimit:4;stroke-dasharray:none"
     id="polygon6"
     stroke-miterlimit="4"
     points="31,60.586 24.707,54.293 23.293,55.854 31.293,64 32.707,64 40.707,55.854 39.293,54.366 33,60.586 33,38 31,38 "
     transform="matrix(0,1.5134611,-1.5134611,0,98.464053,2.973722)" /><rect
     style="fill:none;stroke:#aaaabe;stroke-width:3.22868824;stroke-linecap:round;stroke-linejoin:round;stroke-miterlimit:4;stroke-dasharray:none"
     id="rect8"
     x="34.756134"
     y="-51.546883"
     stroke-miterlimit="4"
     width="33.29668"
     height="3.0269508"
     transform="rotate(90)" /></g>
</svg>