<?xml version="1.0" encoding="UTF-8" standalone="no"?>
<svg
   xmlns:dc="http://purl.org/dc/elements/1.1/"
   xmlns:cc="http://creativecommons.org/ns#"
   xmlns:rdf="http://www.w3.org/1999/02/22-rdf-syntax-ns#"
   xmlns:svg="http://www.w3.org/2000/svg"
   xmlns="http://www.w3.org/2000/svg"
   xmlns:sodipodi="http://sodipodi.sourceforge.net/DTD/sodipodi-0.dtd"
   xmlns:inkscape="http://www.inkscape.org/namespaces/inkscape"
   enable-background="new 0 0 263.6 269"
   xml:space="preserve"
   viewBox="0 0 31.999999 32"
   height="32"
   width="32"
   version="1.1"
   y="0px"
   x="0px"
   id="svg14"
   sodipodi:docname="cover.svg"
   inkscape:version="0.92.4 5da689c313, 2019-01-14"><defs
   id="defs18" /><sodipodi:namedview
   pagecolor="#ffffff"
   bordercolor="#666666"
   borderopacity="1"
   objecttolerance="10"
   gridtolerance="10"
   guidetolerance="10"
   inkscape:pageopacity="0"
   inkscape:pageshadow="2"
   inkscape:window-width="1920"
   inkscape:window-height="1013"
   id="namedview16"
   showgrid="false"
   inkscape:zoom="8"
   inkscape:cx="-33.776462"
   inkscape:cy="33.830573"
   inkscape:window-x="0"
   inkscape:window-y="0"
   inkscape:window-maximized="1"
   inkscape:current-layer="svg14" />
<metadata
   id="metadata2">
<rdf:RDF>
<cc:Work
   rdf:about="">
<dc:format>image/svg+xml</dc:format>
<dc:type
   rdf:resource="http://purl.org/dc/dcmitype/StillImage" />
<dc:title></dc:title>
</cc:Work>
</rdf:RDF>
</metadata>
<g
   transform="matrix(0.28443297,0,0,0.28443297,1.3027289,2.649328)"
   id="g12"
   style="stroke-width:0.70591187">
<path
   d="m 67.358,81.399 -0.0334,2.9442 c 2.5428,-1.0706 4.9517,-2.4089 7.1933,-3.9145 -0.23419,-3.6803 1.2714,-7.7621 4.4164,-10.941 2.6766,-2.6431 6.0558,-4.2491 9.4015,-4.4164 0.66915,-1.2714 1.3048,-2.5762 1.8402,-3.881 v -8.1625 l -22.818,6.1225 z"
   id="path4"
   inkscape:connector-curvature="0"
   style="fill:#9b9b9b" />
<path
   d="M 92.585,36.399 C 88.637,16.76 71.273,1.938 50.496,1.938 26.808,1.938 7.57,21.176 7.57,44.864 c 0,21.112 15.323,38.71 35.465,42.257 -0.66914,-3.948 0.83643,-8.5316 4.316,-12.011 2.8439,-2.8439 6.5242,-4.4833 10.104,-4.4833 0.40148,0 0.76951,0 1.1375,0.06691 v -11.544 c -2.3755,1.3717 -5.1524,2.1413 -8.0966,2.1413 -9.0669,0 -16.428,-7.3606 -16.428,-16.428 0,-9.0669 7.394,-16.428 16.428,-16.428 8.5316,0 15.558,6.5576 16.361,14.855 z M 37.247,29.607 26.842,12.544 c 0,0 7.2268,-6.3903 15.993,-6.3903 l 3.2119,18.87 c 0,0 -6.1561,0.26766 -8.7993,4.5836 z m 11.978,-4.115 -2.844,-20.141 3.178,-0.4349 2.844,20.108 z"
   id="path6"
   inkscape:connector-curvature="0"
   style="fill:#9b9b9b" />
<path
   d="m 50.496,33.221 c -6.4238,0 -11.643,5.2193 -11.643,11.643 0,6.4238 5.2193,11.643 11.643,11.643 3.145,0 5.9888,-1.2714 8.0966,-3.2788 v -8.5316 h 3.0446 l 0.4684,-0.13383 c -0.168,-6.289 -5.287,-11.341 -11.61,-11.341 z m 0,15.257 c -1.974,0 -3.6134,-1.6394 -3.6134,-3.6134 0,-1.974 1.6394,-3.6134 3.6134,-3.6134 2.0074,0 3.6134,1.6394 3.6134,3.6134 0,1.974 -1.6394,3.6134 -3.6134,3.6134 z"
   id="path8"
   inkscape:connector-curvature="0"
   style="fill:#9b9b9b" />
<path
   d="M 95.764,74.54 V 38.875 l -0.36803,0.10037 -2.342,0.63569 -26.23,7.026 -2.5093,0.66914 -2.2416,0.60223 h -0.30111 v 27.368 c -1.2045,-0.97026 -2.71,-1.4387 -4.3494,-1.4387 -2.6097,0 -5.5204,1.2045 -7.829,3.513 -3.0446,3.0446 -4.1822,7.1264 -3.1784,10.204 0.30112,0.93681 0.76952,1.7732 1.4721,2.5093 l 0.0334,0.03347 c 1.2714,1.2379 2.9442,1.8402 4.7844,1.8402 2.2751,0 4.7844,-0.9368 6.9256,-2.71 0.33458,-0.26766 0.63569,-0.53532 0.9368,-0.86989 0.73606,-0.7026 1.3048,-1.5056 1.7732,-2.3086 0.93681,-1.5056 1.539,-3.1115 1.7063,-4.684 h 0.0669 v -1.369 -0.06691 -23.32 l 29.041,-7.7955 0.16728,-0.03347 v 20.844 c -0.50186,-0.40149 -1.0372,-0.66915 -1.6059,-0.90335 -0.76952,-0.30112 -1.5725,-0.4684 -2.4424,-0.50186 -0.10037,0 -0.20075,-0.03347 -0.30112,-0.03347 -0.93681,0 -1.9071,0.16729 -2.8439,0.4684 -1.7398,0.53532 -3.4796,1.5725 -4.9851,3.0781 -1.8402,1.8401 -2.9442,4.0149 -3.3457,6.1561 -0.20075,1.0706 -0.2342,2.1078 -0.0334,3.1115 0.13383,0.83643 0.40149,1.6394 0.83644,2.342 0.2342,0.40149 0.53531,0.76952 0.86988,1.1041 1.2714,1.2714 2.9777,1.8736 4.8178,1.8736 2.6431,0 5.5539,-1.2379 7.8959,-3.5465 2.4758,-2.4424 3.7138,-5.5204 3.5799,-8.2305 z"
   id="path10"
   inkscape:connector-curvature="0"
   style="fill:#54545e" />
</g>
</svg>