<?xml version="1.0" encoding="UTF-8" standalone="no"?>
<svg
   xmlns:dc="http://purl.org/dc/elements/1.1/"
   xmlns:cc="http://creativecommons.org/ns#"
   xmlns:rdf="http://www.w3.org/1999/02/22-rdf-syntax-ns#"
   xmlns:svg="http://www.w3.org/2000/svg"
   xmlns="http://www.w3.org/2000/svg"
   xmlns:sodipodi="http://sodipodi.sourceforge.net/DTD/sodipodi-0.dtd"
   xmlns:inkscape="http://www.inkscape.org/namespaces/inkscape"
   height="32px"
   id="Layer_1"
   style="enable-background:new 0 0 32 32;"
   version="1.1"
   viewBox="0 0 32 32"
   width="32px"
   xml:space="preserve"
   sodipodi:docname="expand.svg"
   inkscape:version="0.92.4 5da689c313, 2019-01-14"><metadata
     id="metadata9"><rdf:RDF><cc:Work
         rdf:about=""><dc:format>image/svg+xml</dc:format><dc:type
           rdf:resource="http://purl.org/dc/dcmitype/StillImage" /><dc:title></dc:title></cc:Work></rdf:RDF></metadata><defs
     id="defs7" /><sodipodi:namedview
     pagecolor="#ffffff"
     bordercolor="#666666"
     borderopacity="1"
     objecttolerance="10"
     gridtolerance="10"
     guidetolerance="10"
     inkscape:pageopacity="0"
     inkscape:pageshadow="2"
     inkscape:window-width="1920"
     inkscape:window-height="1013"
     id="namedview5"
     showgrid="false"
     inkscape:zoom="7.375"
     inkscape:cx="81.608588"
     inkscape:cy="46.935835"
     inkscape:window-x="0"
     inkscape:window-y="0"
     inkscape:window-maximized="1"
     inkscape:current-layer="Layer_1" /><path
     d="M 26.968329,14.171946 H 17.828054 V 5.0316712 c 0,-1.0090864 -0.818968,-1.8280548 -1.828054,-1.8280548 -1.009086,0 -1.828054,0.8189684 -1.828054,1.8280548 V 14.171946 H 5.0316716 c -1.0090862,0 -1.8280548,0.818968 -1.8280548,1.828054 0,1.009086 0.8189686,1.828055 1.8280548,1.828055 h 9.1402744 v 9.140274 c 0,1.009086 0.818968,1.828055 1.828054,1.828055 1.009086,0 1.828054,-0.818969 1.828054,-1.828055 v -9.140274 h 9.140275 c 1.009086,0 1.828054,-0.818969 1.828054,-1.828055 0,-1.009086 -0.818968,-1.828054 -1.828054,-1.828054 z"
     id="path2"
     style="fill:#aaaabe;fill-opacity:1;stroke-width:0.91402739"
     inkscape:connector-curvature="0" /></svg>