<?xml version="1.0" encoding="UTF-8" standalone="no"?>
<!-- Generator: Adobe Illustrator 19.0.1, SVG Export Plug-In . SVG Version: 6.00 Build 0)  -->

<svg
   xmlns:dc="http://purl.org/dc/elements/1.1/"
   xmlns:cc="http://creativecommons.org/ns#"
   xmlns:rdf="http://www.w3.org/1999/02/22-rdf-syntax-ns#"
   xmlns:svg="http://www.w3.org/2000/svg"
   xmlns="http://www.w3.org/2000/svg"
   xmlns:sodipodi="http://sodipodi.sourceforge.net/DTD/sodipodi-0.dtd"
   xmlns:inkscape="http://www.inkscape.org/namespaces/inkscape"
   version="1.1"
   id="Layer_1"
   x="0px"
   y="0px"
   viewBox="0 0 266.72033 266.72034"
   enable-background="new 0 0 263.6 269"
   xml:space="preserve"
   sodipodi:docname="defaultcover.svg"
   width="266.72034"
   height="266.72034"
   inkscape:version="0.92.2 (5c3e80d, 2017-08-06)"><metadata
     id="metadata17"><rdf:RDF><cc:Work
         rdf:about=""><dc:format>image/svg+xml</dc:format><dc:type
           rdf:resource="http://purl.org/dc/dcmitype/StillImage" /><dc:title /></cc:Work></rdf:RDF></metadata><defs
     id="defs15" /><sodipodi:namedview
     pagecolor="#ffffff"
     bordercolor="#666666"
     borderopacity="1"
     objecttolerance="10"
     gridtolerance="10"
     guidetolerance="10"
     inkscape:pageopacity="0"
     inkscape:pageshadow="2"
     inkscape:window-width="1366"
     inkscape:window-height="672"
     id="namedview13"
     showgrid="false"
     fit-margin-top="0"
     fit-margin-left="0"
     fit-margin-right="0"
     fit-margin-bottom="0"
     inkscape:zoom="1.7546468"
     inkscape:cx="102.90349"
     inkscape:cy="137.46245"
     inkscape:window-x="0"
     inkscape:window-y="34"
     inkscape:window-maximized="1"
     inkscape:current-layer="Layer_1" /><rect
     style="fill:none;fill-opacity:1;opacity:1"
     id="rect837"
     width="266.72034"
     height="266.72034"
     x="0"
     y="0" /><path
     style="fill:#f94d4d;fill-opacity:1;stroke-width:0.70591187;opacity:1"
     id="path2"
     d="m 166.45709,206.06909 -0.0706,6.21203 c 5.36493,-2.25892 10.44749,-5.08257 15.1771,-8.25917 -0.49413,-7.76503 2.68247,-16.37716 9.31804,-23.08332 5.6473,-5.5767 12.77701,-8.96508 19.83613,-9.31804 1.41182,-2.68246 2.75305,-5.43552 3.88251,-8.18857 v -17.22425 l -48.14319,12.91818 z m 0,0"
     inkscape:connector-curvature="0" /><path
     style="fill:#f94d4d;fill-opacity:1;stroke-width:0.70591187;opacity:1"
     id="path4"
     d="m 219.68285,111.12394 c -8.32976,-41.437025 -44.96659,-72.708922 -88.80372,-72.708922 -49.978563,0 -90.568497,40.589934 -90.568497,90.568492 0,44.54305 32.330765,81.67401 74.826657,89.15668 -1.41182,-8.32976 1.76478,-18.00076 9.10627,-25.34224 6.00025,-6.00025 13.76528,-9.45922 21.31854,-9.45922 0.84709,0 1.62359,0 2.4001,0.14118 v -24.35396 c -5.01198,2.89424 -10.87105,4.51784 -17.08307,4.51784 -19.13021,0 -34.660275,-15.53006 -34.660275,-34.66028 0,-19.13021 15.600655,-34.66027 34.660275,-34.66027 18.00075,0 32.8249,13.83587 34.51909,31.34249 z M 102.92502,96.793932 80.971158,60.792425 c 0,0 15.247697,-13.482917 33.742592,-13.482917 l 6.77675,39.813431 c 0,0 -12.98878,0.56473 -18.56548,9.670993 z m 25.27164,-8.682716 -6.00025,-42.495897 6.70617,-0.917685 6.00025,42.425305 z m 0,0"
     inkscape:connector-curvature="0" /><path
     style="fill:#f94d4d;fill-opacity:1;stroke-width:0.70591187;opacity:1"
     id="path6"
     d="m 130.87913,104.41778 c -13.55351,0 -24.56573,11.01223 -24.56573,24.56573 0,13.55351 11.01222,24.56574 24.56573,24.56574 6.63557,0 12.63582,-2.68247 17.08307,-6.91794 v -18.00075 h 6.4238 l 0.98827,-0.28237 c -0.35295,-13.27114 -11.15341,-23.93041 -24.49514,-23.93041 z m 0,32.18958 c -4.16488,0 -7.62385,-3.45897 -7.62385,-7.62385 0,-4.16488 3.45897,-7.62384 7.62385,-7.62384 4.23547,0 7.62385,3.45896 7.62385,7.62384 0,4.16488 -3.45897,7.62385 -7.62385,7.62385 z m 0,0"
     inkscape:connector-curvature="0" /><path
     style="fill:#ff0000;fill-opacity:1;stroke-width:0.70591187"
     id="path8"
     d="m 226.38901,191.5979 v 0 -75.25021 l -0.7765,0.21178 -4.94139,1.34123 -55.34349,14.82415 -5.29434,1.41182 -4.72961,1.27064 h -0.63532 v 57.7436 c -2.54128,-2.04715 -5.71789,-3.03542 -9.17685,-3.03542 -5.50612,0 -11.64755,2.54128 -16.51834,7.41207 -6.4238,6.4238 -8.8239,15.03592 -6.70617,21.53031 0.63533,1.97656 1.6236,3.74134 3.10602,5.29434 0,0 0.0706,0 0.0706,0.0706 2.68246,2.61188 6.21202,3.88252 10.09454,3.88252 4.8002,0 10.09454,-1.97655 14.61237,-5.71789 0.70592,-0.56473 1.34124,-1.12946 1.97656,-1.83537 1.553,-1.48241 2.75305,-3.1766 3.74133,-4.87079 1.97655,-3.1766 3.2472,-6.56498 3.60015,-9.88277 h 0.14118 v -2.89424 c 0,-0.0706 0,-0.14118 0,-0.14118 v -49.20206 l 61.27316,-16.44774 0.35295,-0.0706 V 181.221 c -1.05886,-0.8471 -2.18832,-1.41183 -3.38837,-1.90597 -1.6236,-0.63532 -3.31779,-0.98827 -5.15316,-1.05886 -0.21177,0 -0.42355,-0.0706 -0.63532,-0.0706 -1.97656,0 -4.0237,0.35296 -6.00025,0.98828 -3.67074,1.12946 -7.34149,3.31779 -10.51809,6.49439 -3.88252,3.88252 -6.21202,8.47094 -7.05912,12.98878 -0.42355,2.25892 -0.49414,4.44724 -0.0706,6.56498 0.28236,1.76478 0.84709,3.45897 1.76478,4.94138 0.49414,0.8471 1.12946,1.6236 1.83537,2.32951 2.68247,2.68247 6.28262,3.95311 10.16513,3.95311 5.57671,0 11.71814,-2.61187 16.65952,-7.48267 5.22375,-5.15315 7.83562,-11.64754 7.55326,-17.36543 z m 0,0"
     inkscape:connector-curvature="0" /></svg>