<?xml version="1.0" encoding="UTF-8" standalone="no"?>
<!-- Generator: Adobe Illustrator 19.0.0, SVG Export Plug-In . SVG Version: 6.00 Build 0)  -->

<svg
   xmlns:dc="http://purl.org/dc/elements/1.1/"
   xmlns:cc="http://creativecommons.org/ns#"
   xmlns:rdf="http://www.w3.org/1999/02/22-rdf-syntax-ns#"
   xmlns:svg="http://www.w3.org/2000/svg"
   xmlns="http://www.w3.org/2000/svg"
   xmlns:sodipodi="http://sodipodi.sourceforge.net/DTD/sodipodi-0.dtd"
   xmlns:inkscape="http://www.inkscape.org/namespaces/inkscape"
   version="1.1"
   id="Capa_1"
   x="0px"
   y="0px"
   viewBox="0 0 54 54"
   style="enable-background:new 0 0 54 54;"
   xml:space="preserve"
   sodipodi:docname="idea.svg"
   inkscape:version="0.92.2 5c3e80d, 2017-08-06"><metadata
     id="metadata57"><rdf:RDF><cc:Work
         rdf:about=""><dc:format>image/svg+xml</dc:format><dc:type
           rdf:resource="http://purl.org/dc/dcmitype/StillImage" /></cc:Work></rdf:RDF></metadata><defs
     id="defs55" /><sodipodi:namedview
     pagecolor="#ffffff"
     bordercolor="#666666"
     borderopacity="1"
     objecttolerance="10"
     gridtolerance="10"
     guidetolerance="10"
     inkscape:pageopacity="0"
     inkscape:pageshadow="2"
     inkscape:window-width="1920"
     inkscape:window-height="991"
     id="namedview53"
     showgrid="false"
     inkscape:zoom="4.3703704"
     inkscape:cx="27"
     inkscape:cy="27"
     inkscape:window-x="0"
     inkscape:window-y="22"
     inkscape:window-maximized="1"
     inkscape:current-layer="Capa_1" /><g
     id="g20"
     style="fill:#aaaabe;fill-opacity:1"><path
       d="M27,8c-9.374,0-17,7.626-17,17c0,7.112,4.391,13.412,11,15.9V50c0,0.553,0.447,1,1,1h1v2c0,0.553,0.447,1,1,1h6   c0.553,0,1-0.447,1-1v-2h1c0.553,0,1-0.447,1-1v-9.1c6.609-2.488,11-8.788,11-15.9C44,15.626,36.374,8,27,8z M30,49   c-0.553,0-1,0.447-1,1v2h-4v-2c0-0.553-0.447-1-1-1h-1v-5h8v5H30z M31.688,39.242C31.277,39.377,31,39.761,31,40.192V42h-8v-1.808   c0-0.432-0.277-0.815-0.688-0.95C16.145,37.214,12,31.49,12,25c0-8.271,6.729-15,15-15s15,6.729,15,15   C42,31.49,37.855,37.214,31.688,39.242z"
       id="path2"
       style="fill:#aaaabe;fill-opacity:1" /><path
       d="M27,6c0.553,0,1-0.447,1-1V1c0-0.553-0.447-1-1-1s-1,0.447-1,1v4C26,5.553,26.447,6,27,6z"
       id="path4"
       style="fill:#aaaabe;fill-opacity:1" /><path
       d="M51,24h-4c-0.553,0-1,0.447-1,1s0.447,1,1,1h4c0.553,0,1-0.447,1-1S51.553,24,51,24z"
       id="path6"
       style="fill:#aaaabe;fill-opacity:1" /><path
       d="M7,24H3c-0.553,0-1,0.447-1,1s0.447,1,1,1h4c0.553,0,1-0.447,1-1S7.553,24,7,24z"
       id="path8"
       style="fill:#aaaabe;fill-opacity:1" /><path
       d="M43.264,7.322l-2.828,2.828c-0.391,0.391-0.391,1.023,0,1.414c0.195,0.195,0.451,0.293,0.707,0.293   s0.512-0.098,0.707-0.293l2.828-2.828c0.391-0.391,0.391-1.023,0-1.414S43.654,6.932,43.264,7.322z"
       id="path10"
       style="fill:#aaaabe;fill-opacity:1" /><path
       d="M12.15,38.436l-2.828,2.828c-0.391,0.391-0.391,1.023,0,1.414c0.195,0.195,0.451,0.293,0.707,0.293   s0.512-0.098,0.707-0.293l2.828-2.828c0.391-0.391,0.391-1.023,0-1.414S12.541,38.045,12.15,38.436z"
       id="path12"
       style="fill:#aaaabe;fill-opacity:1" /><path
       d="M41.85,38.436c-0.391-0.391-1.023-0.391-1.414,0s-0.391,1.023,0,1.414l2.828,2.828c0.195,0.195,0.451,0.293,0.707,0.293   s0.512-0.098,0.707-0.293c0.391-0.391,0.391-1.023,0-1.414L41.85,38.436z"
       id="path14"
       style="fill:#aaaabe;fill-opacity:1" /><path
       d="M12.15,11.564c0.195,0.195,0.451,0.293,0.707,0.293s0.512-0.098,0.707-0.293c0.391-0.391,0.391-1.023,0-1.414l-2.828-2.828   c-0.391-0.391-1.023-0.391-1.414,0s-0.391,1.023,0,1.414L12.15,11.564z"
       id="path16"
       style="fill:#aaaabe;fill-opacity:1" /><path
       d="M27,13c-6.617,0-12,5.383-12,12c0,0.553,0.447,1,1,1s1-0.447,1-1c0-5.514,4.486-10,10-10c0.553,0,1-0.447,1-1   S27.553,13,27,13z"
       id="path18"
       style="fill:#aaaabe;fill-opacity:1" /></g><g
     id="g22"
     style="fill:#aaaabe;fill-opacity:1" /><g
     id="g24"
     style="fill:#aaaabe;fill-opacity:1" /><g
     id="g26"
     style="fill:#aaaabe;fill-opacity:1" /><g
     id="g28"
     style="fill:#aaaabe;fill-opacity:1" /><g
     id="g30"
     style="fill:#aaaabe;fill-opacity:1" /><g
     id="g32"
     style="fill:#aaaabe;fill-opacity:1" /><g
     id="g34"
     style="fill:#aaaabe;fill-opacity:1" /><g
     id="g36"
     style="fill:#aaaabe;fill-opacity:1" /><g
     id="g38"
     style="fill:#aaaabe;fill-opacity:1" /><g
     id="g40"
     style="fill:#aaaabe;fill-opacity:1" /><g
     id="g42"
     style="fill:#aaaabe;fill-opacity:1" /><g
     id="g44"
     style="fill:#aaaabe;fill-opacity:1" /><g
     id="g46"
     style="fill:#aaaabe;fill-opacity:1" /><g
     id="g48"
     style="fill:#aaaabe;fill-opacity:1" /><g
     id="g50"
     style="fill:#aaaabe;fill-opacity:1" /></svg>