<?xml version="1.0" encoding="UTF-8" standalone="no"?>
<svg
   xmlns:dc="http://purl.org/dc/elements/1.1/"
   xmlns:cc="http://creativecommons.org/ns#"
   xmlns:rdf="http://www.w3.org/1999/02/22-rdf-syntax-ns#"
   xmlns:svg="http://www.w3.org/2000/svg"
   xmlns="http://www.w3.org/2000/svg"
   xmlns:sodipodi="http://sodipodi.sourceforge.net/DTD/sodipodi-0.dtd"
   xmlns:inkscape="http://www.inkscape.org/namespaces/inkscape"
   width="128"
   height="128"
   style="enable-background:new 0 0 128 128;"
   version="1.1"
   id="svg8"
   sodipodi:docname="ok.svg"
   inkscape:version="0.92.2 (5c3e80d, 2017-08-06)">
  <metadata
     id="metadata14">
    <rdf:RDF>
      <cc:Work
         rdf:about="">
        <dc:format>image/svg+xml</dc:format>
        <dc:type
           rdf:resource="http://purl.org/dc/dcmitype/StillImage" />
      </cc:Work>
    </rdf:RDF>
  </metadata>
  <defs
     id="defs12" />
  <sodipodi:namedview
     pagecolor="#ffffff"
     bordercolor="#666666"
     borderopacity="1"
     objecttolerance="10"
     gridtolerance="10"
     guidetolerance="10"
     inkscape:pageopacity="0"
     inkscape:pageshadow="2"
     inkscape:window-width="1366"
     inkscape:window-height="672"
     id="namedview10"
     showgrid="false"
     inkscape:zoom="2.6074563"
     inkscape:cx="42.329962"
     inkscape:cy="51.12956"
     inkscape:window-x="0"
     inkscape:window-y="34"
     inkscape:window-maximized="1"
     inkscape:current-layer="g6" />
  <g
     id="g6">
    <path
       d="M 98.66,32.68 C 94.04,24.08 91.44,19.25 85.87,12.22 80.31,5.19 73.73,-1.85 66.37,4.44 c -3.72,3.17 -2.6,8.21 0.17,13.22 0.309661,0.639153 0.43,2.16 -0.01,1.83 -8.35,-6.37 -10.13,-5.67 -13.01,-3.39 -6.84,5.41 4.621017,16.198814 8.877797,21.99322 0.998927,1.223362 1.231832,1.525493 2.555254,2.842204 C 65.343051,41.575424 66.73,42.67 67.08,43.27 66.65,43.14 66.21,43.01 65.76,42.88 61.72,41.75 52.44,40.53 48.22,42.12 22.04,52 23.36,56.31 25.37,61.97 c 2.01,5.66 9.35,9.84 21.35,2.38 14.81,-6.12 27.11,2.08 27.11,10.6 0,11.7 -3.83,18.31 -13.88,18.31 C 44.06,93.26 43.21,80.3 34.72,71.81 32.43,69.52 26.93,68.85 23.68,71.2 16.1,76.69 21,88.08 22.89,91.89 c 3.96,7.97 8.84,19.53 21.69,29.95 6.76,5.48 23.53,4.64 33.23,2.66 18.44,-3.76 22.15,-16.01 28.07,-36.98 2.23,-7.89 2.53,-14.24 2.53,-23.05 0,-8.81 -5.45,-23.78 -9.75,-31.79 z"
       style="fill:none;stroke:#ff0000;stroke-opacity:1;stroke-width:2;stroke-miterlimit:4;stroke-dasharray:none"
       id="path2"
       inkscape:connector-curvature="0"
       sodipodi:nodetypes="cccccccccccscssscccccsc" />
    <path
       style="fill:none;stroke:#ff0000;stroke-width:2;stroke-linecap:butt;stroke-linejoin:miter;stroke-opacity:1;stroke-miterlimit:4;stroke-dasharray:none"
       d="m 66.472203,19.083729 c 0,0 6.474324,8.056526 9.105669,12.484456 3.240391,5.45281 8.143314,17.198425 8.143314,17.198425 l 6.26142,5.716252 3.707225,5.735952"
       id="path821"
       inkscape:connector-curvature="0"
       sodipodi:nodetypes="caccc" />
    <path
       style="fill:none;stroke:#ff0000;stroke-width:2;stroke-linecap:butt;stroke-linejoin:miter;stroke-opacity:1;stroke-miterlimit:4;stroke-dasharray:none"
       d="m 67.08,43.27 16.641186,5.49661"
       id="path825"
       inkscape:connector-curvature="0"
       sodipodi:nodetypes="cc" />
  </g>
</svg>
