<!-- Created with Inkscape (http://www.inkscape.org/) -->
<svg xmlns:rdf="http://www.w3.org/1999/02/22-rdf-syntax-ns#" xmlns="http://www.w3.org/2000/svg" height="100" width="100" version="1.1" xmlns:cc="http://creativecommons.org/ns#" xmlns:dc="http://purl.org/dc/elements/1.1/">
<metadata>
<rdf:RDF>
<cc:Work rdf:about="">
<dc:format>image/svg+xml</dc:format>
<dc:type rdf:resource="http://purl.org/dc/dcmitype/StillImage"/>
<dc:title/>
</cc:Work>
</rdf:RDF>
</metadata>
<g transform="translate(-438.62543,-476.5939)">
<g fill-rule="evenodd" fill="#aaaabe" transform="matrix(1.25,0,0,1.25,426.12543,464.0939)">
<g fill="#aaaabe">
<path d="M69.997,26h-42.997l-0.009-4h46.009l0.01,4zm-3.859,57.87c-0.003,0.055-0.083,0.13-0.137,0.13h-32.001c-0.05,0-0.134-0.079-0.137-0.129l-3.724-55.871h39.723zm-23.163-67.464c0.042-0.174,0.336-0.406,0.517-0.406h13.017c0.176,0,0.476,0.235,0.516,0.407l0.85,3.593h-15.749zm30.035,3.594h-13.08l-0.958-4.053c-0.254-1.075-1.357-1.947-2.463-1.947h-13.017c-1.112,0-2.209,0.872-2.463,1.947l-0.958,4.053h-13.08c-1.101,0-1.991,0.895-1.991,1.998v4.004c0,1.111,0.892,1.998,1.991,1.998h1.143l3.733,56.004c0.074,1.101,1.029,1.996,2.133,1.996h32.001c1.11,0,2.059-0.894,2.133-1.996l3.733-56.004h1.143c1.101,0,1.99-0.895,1.99-1.998v-4.004c0-1.111-0.891-1.998-1.99-1.998z"/>
<path d="m41,76c0.556,0,1-0.451,1-1.009v-37.982c0-0.56-0.448-1.009-1-1.009-0.556,0-1,0.452-1,1.009v37.982c0,0.56,0.448,1.009,1,1.009"/>
<path d="m50,76c0.556,0,1-0.451,1-1.009v-37.982c0-0.56-0.448-1.009-1-1.009-0.556,0-1,0.452-1,1.009v37.982c0,0.56,0.448,1.009,1,1.009"/>
<path d="m59,76c0.556,0,1-0.451,1-1.009v-37.982c0-0.56-0.448-1.009-1-1.009-0.556,0-1,0.452-1,1.009v37.982c0,0.56,0.448,1.009,1,1.009"/>
</g>
</g>
</g>
</svg>