<svg xmlns:rdf="http://www.w3.org/1999/02/22-rdf-syntax-ns#" xmlns="http://www.w3.org/2000/svg" xml:space="preserve" viewBox="0 0 100 100" height="100%" width="100%" version="1.1" y="0px" x="0px" xmlns:cc="http://creativecommons.org/ns#" xmlns:dc="http://purl.org/dc/elements/1.1/">
<metadata>
<rdf:RDF>
<cc:Work rdf:about="">
<dc:format>image/svg+xml</dc:format>
<dc:type rdf:resource="http://purl.org/dc/dcmitype/StillImage"/>
<dc:title/>
</cc:Work>
</rdf:RDF>
</metadata>
<polygon stroke-linejoin="round" stroke-linecap="round" transform="matrix(0,1.3608871,-1.3608871,0,93.548387,6.4516131)" stroke="#aaaabe" points="32.707,0,31.293,0,23.293,8.146,24.707,9.634,31,3.414,31,26,33,26,33,3.414,39.293,9.707,40.707,8.146" stroke-miterlimit="4" stroke-dasharray="none" stroke-width="2.13333344" fill="#aaaabe"/>
<polygon stroke-linejoin="round" transform="matrix(0,1.3608871,-1.3608871,0,93.548387,6.4516131)" stroke="#aaaabe" points="32.707,64,40.707,55.854,39.293,54.366,33,60.586,33,38,31,38,31,60.586,24.707,54.293,23.293,55.854,31.293,64" stroke-miterlimit="4" stroke-dasharray="none" stroke-width="2.13333344" fill="#aaaabe"/>
<rect stroke-linejoin="round" stroke-dasharray="none" transform="matrix(0,1,-1,0,0,0)" height="2.7218" width="29.94" stroke="#aaaabe" stroke-linecap="round" stroke-miterlimit="4" y="-51.361" x="35.03" stroke-width="2.9032" fill="none"/>
</svg>