<?xml version="1.0" encoding="UTF-8" standalone="no"?>
<!-- Generator: Adobe Illustrator 19.0.0, SVG Export Plug-In . SVG Version: 6.00 Build 0)  -->

<svg
   xmlns:dc="http://purl.org/dc/elements/1.1/"
   xmlns:cc="http://creativecommons.org/ns#"
   xmlns:rdf="http://www.w3.org/1999/02/22-rdf-syntax-ns#"
   xmlns:svg="http://www.w3.org/2000/svg"
   xmlns="http://www.w3.org/2000/svg"
   xmlns:sodipodi="http://sodipodi.sourceforge.net/DTD/sodipodi-0.dtd"
   xmlns:inkscape="http://www.inkscape.org/namespaces/inkscape"
   version="1.1"
   id="Capa_1"
   x="0px"
   y="0px"
   viewBox="0 0 100 100"
   xml:space="preserve"
   sodipodi:docname="user.svg"
   inkscape:version="0.48.4 r9939"
   width="100%"
   height="100%"><metadata
     id="metadata39"><rdf:RDF><cc:Work
         rdf:about=""><dc:format>image/svg+xml</dc:format><dc:type
           rdf:resource="http://purl.org/dc/dcmitype/StillImage" /></cc:Work></rdf:RDF></metadata><defs
     id="defs37" /><sodipodi:namedview
     pagecolor="#ffffff"
     bordercolor="#666666"
     borderopacity="1"
     objecttolerance="10"
     gridtolerance="10"
     guidetolerance="10"
     inkscape:pageopacity="0"
     inkscape:pageshadow="2"
     inkscape:window-width="1920"
     inkscape:window-height="1017"
     id="namedview35"
     showgrid="false"
     inkscape:zoom="3.9333333"
     inkscape:cx="-0.38135619"
     inkscape:cy="30"
     inkscape:window-x="-8"
     inkscape:window-y="-8"
     inkscape:window-maximized="1"
     inkscape:current-layer="Capa_1" /><path
     d="M 77.021,69.3335 62.6915,62.1695 C 61.34,61.493 60.5,60.134 60.5,58.622 v -5.0715 c 0.3435,-0.42 0.705,-0.8985 1.0785,-1.4265 1.8585,-2.625 3.348,-5.547 4.431,-8.6985 C 68.126,42.455 69.5,40.3625 69.5,38 v -6 c 0,-1.4445 -0.54,-2.844 -1.5,-3.9375 V 20.084 C 68.084,19.259 68.414,14.348 64.862,10.2965 61.781,6.782 56.7815,5 50,5 43.2185,5 38.219,6.782 35.138,10.295 31.586,14.3465 31.916,19.259 32,20.084 v 7.9785 C 31.04,29.156 30.5,30.5555 30.5,32 v 6 c 0,1.8255 0.8295,3.528 2.2455,4.6635 1.374,5.4405 4.2495,9.54 5.2545,10.8555 v 4.9635 c 0,1.452 -0.792,2.784 -2.0655,3.48 L 22.553,69.2615 C 18.2015,71.636 15.5,76.187 15.5,81.143 V 86 c 0,7.119 22.5675,9 34.5,9 11.9325,0 34.5,-1.881 34.5,-9 v -4.5645 c 0,-5.157 -2.8665,-9.795 -7.479,-12.102 z M 81.5,86 c 0,2.0355 -11.118,6 -31.5,6 -20.382,0 -31.5,-3.9645 -31.5,-6 v -4.857 c 0,-3.8565 2.103,-7.401 5.4885,-9.246 L 37.37,64.598 C 39.6095,63.3755 41,61.031 41,58.4825 V 52.454 l -0.3495,-0.417 c -0.036,-0.0435 -3.7125,-4.491 -5.115,-10.5975 l -0.1365,-0.594 -0.5115,-0.33 C 34.019,39.9545 33.5,39.014 33.5,38 v -6 c 0,-0.8415 0.357,-1.626 1.005,-2.2125 L 35,29.342 V 20 L 34.9865,19.8035 C 34.982,19.763 34.472,15.605 37.394,12.272 39.8795,9.437 44.1215,8 50,8 c 5.8575,0 10.0905,1.4265 12.579,4.242 2.9205,3.3015 2.4375,7.5255 2.4345,7.5615 L 65,29.342 65.495,29.789 C 66.143,30.374 66.5,31.1585 66.5,32 v 6 c 0,1.3095 -0.858,2.4555 -2.133,2.8485 l -0.747,0.2295 -0.24,0.7425 c -1.0035,3.1215 -2.433,6.0045 -4.251,8.5695 -0.4455,0.6315 -0.879,1.191 -1.2555,1.6185 L 57.5,52.4345 v 6.1875 c 0,2.655 1.4745,5.0415 3.849,6.2295 l 14.3295,7.164 C 79.2695,73.811 81.5,77.42 81.5,81.4355 V 86 z"
     id="path2"
     style="fill:#aaaabe;fill-opacity:1"
     inkscape:connector-curvature="0" /></svg>