<?xml version="1.0" encoding="UTF-8" standalone="no"?>
<!-- Created with Inkscape (http://www.inkscape.org/) -->

<svg
        xmlns:dc="http://purl.org/dc/elements/1.1/"
        xmlns:cc="http://creativecommons.org/ns#"
        xmlns:rdf="http://www.w3.org/1999/02/22-rdf-syntax-ns#"
        xmlns="http://www.w3.org/2000/svg"
        xmlns:sodipodi="http://sodipodi.sourceforge.net/DTD/sodipodi-0.dtd"
        xmlns:inkscape="http://www.inkscape.org/namespaces/inkscape"
        width="99.891998"
        height="99.891998"
        id="svg2"
        version="1.1"
        inkscape:version="0.92.2 5c3e80d, 2017-08-06"
        sodipodi:docname="genre.svg">
  <defs
     id="defs4" />
  <sodipodi:namedview
     id="base"
     pagecolor="#ffffff"
     bordercolor="#666666"
     borderopacity="1.0"
     inkscape:pageopacity="0.0"
     inkscape:pageshadow="2"
     inkscape:zoom="2.8284271"
     inkscape:cx="14.729908"
     inkscape:cy="25.995067"
     inkscape:document-units="px"
     inkscape:current-layer="layer1"
     showgrid="false"
     fit-margin-top="0"
     fit-margin-left="0"
     fit-margin-right="0"
     fit-margin-bottom="0"
     inkscape:window-width="1920"
     inkscape:window-height="991"
     inkscape:window-x="0"
     inkscape:window-y="22"
     inkscape:window-maximized="1" />
  <metadata
     id="metadata7">
    <rdf:RDF>
      <cc:Work
         rdf:about="">
        <dc:format>image/svg+xml</dc:format>
        <dc:type
           rdf:resource="http://purl.org/dc/dcmitype/StillImage" />
        <dc:title />
      </cc:Work>
    </rdf:RDF>
  </metadata>
  <g
     inkscape:label="Layer 1"
     inkscape:groupmode="layer"
     id="layer1"
     transform="translate(-438.62543,-476.7019)">
    <g
       id="background"
       transform="translate(-269.26992,-125.8521)"
       style="fill:#aaaabe;fill-opacity:1" />
    <g
       id="design"
       transform="translate(-269.26992,-125.8521)"
       style="fill:#aaaabe;fill-opacity:1" />
    <g
       style="fill:#aaaabe;fill-opacity:1"
       id="g961"
       transform="matrix(1.3539399,0,0,1.3539399,447.65009,497.17295)" />
    <g
       style="fill:#aaaabe;fill-opacity:1"
       id="g963"
       transform="matrix(1.3539399,0,0,1.3539399,447.65009,497.17295)" />
    <g
       style="fill:#aaaabe;fill-opacity:1"
       id="g965"
       transform="matrix(1.3539399,0,0,1.3539399,447.65009,497.17295)" />
    <g
       style="fill:#aaaabe;fill-opacity:1"
       id="g967"
       transform="matrix(1.3539399,0,0,1.3539399,447.65009,497.17295)" />
    <g
       style="fill:#aaaabe;fill-opacity:1"
       id="g969"
       transform="matrix(1.3539399,0,0,1.3539399,447.65009,497.17295)" />
    <g
       style="fill:#aaaabe;fill-opacity:1"
       id="g971"
       transform="matrix(1.3539399,0,0,1.3539399,447.65009,497.17295)" />
    <g
       style="fill:#aaaabe;fill-opacity:1"
       id="g973"
       transform="matrix(1.3539399,0,0,1.3539399,447.65009,497.17295)" />
    <g
       style="fill:#aaaabe;fill-opacity:1"
       id="g975"
       transform="matrix(1.3539399,0,0,1.3539399,447.65009,497.17295)" />
    <g
       style="fill:#aaaabe;fill-opacity:1"
       id="g977"
       transform="matrix(1.3539399,0,0,1.3539399,447.65009,497.17295)" />
    <g
       style="fill:#aaaabe;fill-opacity:1"
       id="g979"
       transform="matrix(1.3539399,0,0,1.3539399,447.65009,497.17295)" />
    <g
       style="fill:#aaaabe;fill-opacity:1"
       id="g981"
       transform="matrix(1.3539399,0,0,1.3539399,447.65009,497.17295)" />
    <g
       style="fill:#aaaabe;fill-opacity:1"
       id="g983"
       transform="matrix(1.3539399,0,0,1.3539399,447.65009,497.17295)" />
    <g
       style="fill:#aaaabe;fill-opacity:1"
       id="g985"
       transform="matrix(1.3539399,0,0,1.3539399,447.65009,497.17295)" />
    <g
       style="fill:#aaaabe;fill-opacity:1"
       id="g987"
       transform="matrix(1.3539399,0,0,1.3539399,447.65009,497.17295)" />
    <g
       style="fill:#aaaabe;fill-opacity:1"
       id="g989"
       transform="matrix(1.3539399,0,0,1.3539399,447.65009,497.17295)" />
    <g
       style="fill:#aaaabe;fill-opacity:1"
       transform="translate(590.88408,410.65451)"
       id="g1392" />
    <g
       style="fill:#aaaabe;fill-opacity:1"
       transform="translate(590.88408,410.65451)"
       id="g1394" />
    <g
       style="fill:#aaaabe;fill-opacity:1"
       transform="translate(590.88408,410.65451)"
       id="g1396" />
    <g
       style="fill:#aaaabe;fill-opacity:1"
       transform="translate(590.88408,410.65451)"
       id="g1398" />
    <g
       style="fill:#aaaabe;fill-opacity:1"
       transform="translate(590.88408,410.65451)"
       id="g1400" />
    <g
       style="fill:#aaaabe;fill-opacity:1"
       transform="translate(590.88408,410.65451)"
       id="g1402" />
    <g
       style="fill:#aaaabe;fill-opacity:1"
       transform="translate(590.88408,410.65451)"
       id="g1404" />
    <g
       style="fill:#aaaabe;fill-opacity:1"
       transform="translate(590.88408,410.65451)"
       id="g1406" />
    <g
       style="fill:#aaaabe;fill-opacity:1"
       transform="translate(590.88408,410.65451)"
       id="g1408" />
    <g
       style="fill:#aaaabe;fill-opacity:1"
       transform="translate(590.88408,410.65451)"
       id="g1410" />
    <g
       style="fill:#aaaabe;fill-opacity:1"
       transform="translate(590.88408,410.65451)"
       id="g1412" />
    <g
       style="fill:#aaaabe;fill-opacity:1"
       transform="translate(590.88408,410.65451)"
       id="g1414" />
    <g
       style="fill:#aaaabe;fill-opacity:1"
       transform="translate(590.88408,410.65451)"
       id="g1416" />
    <g
       style="fill:#aaaabe;fill-opacity:1"
       transform="translate(590.88408,410.65451)"
       id="g1418" />
    <g
       style="fill:#aaaabe;fill-opacity:1"
       transform="translate(590.88408,410.65451)"
       id="g1420" />
    <g
       style="fill:#aaaabe;fill-opacity:1"
       transform="translate(645.2891,549.55677)"
       id="g1485" />
    <g
       style="fill:#aaaabe;fill-opacity:1"
       transform="translate(645.2891,549.55677)"
       id="g1487" />
    <g
       style="fill:#aaaabe;fill-opacity:1"
       transform="translate(645.2891,549.55677)"
       id="g1489" />
    <g
       style="fill:#aaaabe;fill-opacity:1"
       transform="translate(645.2891,549.55677)"
       id="g1491" />
    <g
       style="fill:#aaaabe;fill-opacity:1"
       transform="translate(645.2891,549.55677)"
       id="g1493" />
    <g
       style="fill:#aaaabe;fill-opacity:1"
       transform="translate(645.2891,549.55677)"
       id="g1495" />
    <g
       style="fill:#aaaabe;fill-opacity:1"
       transform="translate(645.2891,549.55677)"
       id="g1497" />
    <g
       style="fill:#aaaabe;fill-opacity:1"
       transform="translate(645.2891,549.55677)"
       id="g1499" />
    <g
       style="fill:#aaaabe;fill-opacity:1"
       transform="translate(645.2891,549.55677)"
       id="g1501" />
    <g
       style="fill:#aaaabe;fill-opacity:1"
       transform="translate(645.2891,549.55677)"
       id="g1503" />
    <g
       style="fill:#aaaabe;fill-opacity:1"
       transform="translate(645.2891,549.55677)"
       id="g1505" />
    <g
       style="fill:#aaaabe;fill-opacity:1"
       transform="translate(645.2891,549.55677)"
       id="g1507" />
    <g
       style="fill:#aaaabe;fill-opacity:1"
       transform="translate(645.2891,549.55677)"
       id="g1509" />
    <g
       style="fill:#aaaabe;fill-opacity:1"
       transform="translate(645.2891,549.55677)"
       id="g1511" />
    <g
       style="fill:#aaaabe;fill-opacity:1"
       transform="translate(645.2891,549.55677)"
       id="g1513" />
    <g
       id="g1034"
       transform="matrix(0.18410756,0,0,0.18410756,429.07586,467.05097)" />
    <g
       id="g1036"
       transform="matrix(0.18410756,0,0,0.18410756,429.07586,467.05097)" />
    <g
       id="g1038"
       transform="matrix(0.18410756,0,0,0.18410756,429.07586,467.05097)" />
    <g
       id="g1040"
       transform="matrix(0.18410756,0,0,0.18410756,429.07586,467.05097)" />
    <g
       id="g1042"
       transform="matrix(0.18410756,0,0,0.18410756,429.07586,467.05097)" />
    <g
       id="g1044"
       transform="matrix(0.18410756,0,0,0.18410756,429.07586,467.05097)" />
    <g
       id="g1046"
       transform="matrix(0.18410756,0,0,0.18410756,429.07586,467.05097)" />
    <g
       id="g1048"
       transform="matrix(0.18410756,0,0,0.18410756,429.07586,467.05097)" />
    <g
       id="g1050"
       transform="matrix(0.18410756,0,0,0.18410756,429.07586,467.05097)" />
    <g
       id="g1052"
       transform="matrix(0.18410756,0,0,0.18410756,429.07586,467.05097)" />
    <g
       id="g1054"
       transform="matrix(0.18410756,0,0,0.18410756,429.07586,467.05097)" />
    <g
       id="g1056"
       transform="matrix(0.18410756,0,0,0.18410756,429.07586,467.05097)" />
    <g
       id="g1058"
       transform="matrix(0.18410756,0,0,0.18410756,429.07586,467.05097)" />
    <g
       id="g1060"
       transform="matrix(0.18410756,0,0,0.18410756,429.07586,467.05097)" />
    <g
       id="g1062"
       transform="matrix(0.18410756,0,0,0.18410756,429.07586,467.05097)" />
    <g
       id="g1291"
       transform="translate(206.66756,238.56801)" />
    <g
       id="g1293"
       transform="translate(206.66756,238.56801)" />
    <g
       id="g1295"
       transform="translate(206.66756,238.56801)" />
    <g
       id="g1297"
       transform="translate(206.66756,238.56801)" />
    <g
       id="g1299"
       transform="translate(206.66756,238.56801)" />
    <g
       id="g1301"
       transform="translate(206.66756,238.56801)" />
    <g
       id="g1303"
       transform="translate(206.66756,238.56801)" />
    <g
       id="g1305"
       transform="translate(206.66756,238.56801)" />
    <g
       id="g1307"
       transform="translate(206.66756,238.56801)" />
    <g
       id="g1309"
       transform="translate(206.66756,238.56801)" />
    <g
       id="g1311"
       transform="translate(206.66756,238.56801)" />
    <g
       id="g1313"
       transform="translate(206.66756,238.56801)" />
    <g
       id="g1315"
       transform="translate(206.66756,238.56801)" />
    <g
       id="g1317"
       transform="translate(206.66756,238.56801)" />
    <g
       id="g1319"
       transform="translate(206.66756,238.56801)" />
    <g
       id="g1026"
       transform="matrix(0.19523641,0,0,0.19523641,474.46623,428.98537)">
      <g
         style="fill:#7d7d91;fill-opacity:1"
         transform="translate(-183.21097,242.30227)"
         id="g899">
        <g
           style="fill:#7d7d91;fill-opacity:1"
           id="g897">
          <path
             style="fill:#7d7d91;fill-opacity:1"
             id="path895"
             d="m 298.355,182.647 -11.948,9.408 c 10.334,13.126 15.797,28.918 15.797,45.668 0,40.748 -33.15,73.899 -73.899,73.899 -40.749,0 -73.9,-33.15 -73.9,-73.899 0,-40.749 33.151,-73.899 73.9,-73.899 16.622,0 32.317,5.387 45.39,15.577 l 9.351,-11.994 c -15.77,-12.293 -34.698,-18.791 -54.739,-18.791 -49.136,0 -89.109,39.974 -89.109,89.107 0,49.134 39.974,89.107 89.108,89.107 49.134,0 89.107,-39.974 89.107,-89.107 -0.001,-20.197 -6.59,-39.241 -19.058,-55.076 z"
             inkscape:connector-curvature="0" />
        </g>
      </g>
      <g
         style="fill:#7d7d91;fill-opacity:1"
         transform="translate(-183.21097,242.30227)"
         id="g905">
        <g
           style="fill:#7d7d91;fill-opacity:1"
           id="g903">
          <path
             style="fill:#7d7d91;fill-opacity:1"
             id="path901"
             d="m 228.304,210.038 c -15.265,0 -27.684,12.42 -27.684,27.685 0,15.265 12.419,27.683 27.684,27.683 15.266,0 27.685,-12.419 27.685,-27.683 0.001,-15.266 -12.419,-27.685 -27.685,-27.685 z m -0.001,40.161 c -6.879,0 -12.476,-5.597 -12.476,-12.476 0,-6.88 5.596,-12.478 12.476,-12.478 6.881,0 12.478,5.596 12.478,12.478 0,6.879 -5.598,12.476 -12.478,12.476 z"
             inkscape:connector-curvature="0" />
        </g>
      </g>
      <path
         style="fill:#7d7d91;fill-opacity:1"
         id="path907"
         d="m 303.64503,464.88627 c -3.526,0 -6.886,0.73 -9.936,2.047 v -11.985 c 0,-13.865 -11.28,-25.145 -25.145,-25.145 -0.247,0 -0.49,0.017 -0.737,0.023 -23.227,-103.653 -115.689,-178.106 -222.734,-178.106 -60.982,0 -118.314,23.748 -161.436,66.869 -43.12,43.121 -66.868,100.453 -66.868,161.436 0,60.982 23.748,118.314 66.868,161.434 43.122,43.121 100.453,66.868 161.436,66.868 34.667,0 69.054,-7.964 100.029,-23.061 14.154,34.92 48.426,59.618 88.364,59.618 52.55,0 95.303,-42.753 95.303,-95.303 v -159.55 c 0,-13.865 -11.279,-25.145 -25.144,-25.145 z m -165.46,71.92 v 81.516 c -27.547,18.588 -59.645,28.398 -93.091,28.398 -91.917,0 -166.697,-74.78 -166.697,-166.697 0,-91.918 74.78,-166.699 166.697,-166.699 v -15.207 c -100.303,0 -181.905,81.603 -181.905,181.907 0,100.303 81.602,181.905 181.905,181.905 33.106,0 65.006,-8.808 93.091,-25.59 v 13.242 c 0,0.863 0.013,1.722 0.036,2.578 0.006,0.189 0.016,0.378 0.021,0.567 0.021,0.682 0.049,1.363 0.085,2.041 0.01,0.175 0.022,0.35 0.033,0.524 0.042,0.707 0.089,1.412 0.147,2.115 0.011,0.128 0.023,0.255 0.034,0.383 0.065,0.764 0.14,1.526 0.223,2.285 0.008,0.07 0.016,0.141 0.023,0.211 0.094,0.835 0.199,1.668 0.315,2.496 0,0 0,0.003 0,0.004 0.367,2.64 0.841,5.248 1.421,7.815 -29.435,14.748 -62.3,22.519 -95.432,22.519 -117.503,0 -213.096,-95.594 -213.096,-213.094 0,-117.503 95.594,-213.097 213.096,-213.097 97.196,0 181.524,65.757 205.999,158.391 -0.303,-0.297 -0.613,-0.585 -0.931,-0.866 -0.065,-0.059 -0.134,-0.112 -0.2,-0.17 -0.337,-0.293 -0.682,-0.576 -1.034,-0.852 -0.109,-0.085 -0.218,-0.17 -0.328,-0.253 -0.412,-0.311 -0.831,-0.612 -1.262,-0.898 -0.064,-0.043 -0.13,-0.081 -0.194,-0.123 -0.384,-0.249 -0.777,-0.488 -1.174,-0.716 -0.12,-0.069 -0.239,-0.138 -0.36,-0.205 -0.456,-0.252 -0.919,-0.494 -1.393,-0.719 -0.056,-0.026 -0.114,-0.051 -0.17,-0.076 -0.431,-0.2 -0.869,-0.386 -1.312,-0.563 -0.129,-0.051 -0.256,-0.101 -0.386,-0.15 -0.497,-0.189 -0.999,-0.364 -1.51,-0.521 -0.04,-0.013 -0.08,-0.021 -0.12,-0.034 -0.48,-0.145 -0.965,-0.272 -1.456,-0.387 -0.135,-0.031 -0.271,-0.064 -0.406,-0.093 -0.53,-0.116 -1.065,-0.221 -1.606,-0.302 -0.023,-0.003 -0.047,-0.005 -0.069,-0.009 -0.523,-0.077 -1.051,-0.133 -1.585,-0.177 -0.141,-0.012 -0.282,-0.022 -0.424,-0.032 -0.558,-0.036 -1.119,-0.063 -1.685,-0.063 -13.865,0 -25.144,11.279 -25.144,25.143 v 0.292 c -3.05,-1.317 -6.409,-2.046 -9.936,-2.046 -13.865,0 -25.145,11.28 -25.145,25.145 v 47.069 c -3.05,-1.317 -6.409,-2.047 -9.936,-2.047 -13.86,-0.002 -25.139,11.277 -25.139,25.14 z m 175.398,112.775 h -0.002 c 0,44.165 -35.931,80.095 -80.095,80.095 -36.864,0 -67.973,-25.041 -77.256,-59.003 -0.212,-0.778 -0.412,-1.559 -0.601,-2.343 -0.153,-0.638 -0.306,-1.276 -0.444,-1.921 -0.121,-0.561 -0.232,-1.123 -0.34,-1.687 -0.12,-0.623 -0.231,-1.25 -0.337,-1.88 -0.086,-0.512 -0.175,-1.023 -0.251,-1.537 -0.158,-1.074 -0.298,-2.151 -0.413,-3.238 -0.04,-0.371 -0.066,-0.743 -0.101,-1.115 -0.079,-0.868 -0.148,-1.74 -0.199,-2.617 -0.022,-0.376 -0.045,-0.752 -0.062,-1.129 -0.055,-1.202 -0.092,-2.409 -0.092,-3.625 v -112.775 c 0,-5.478 4.458,-9.935 9.936,-9.935 5.478,0 9.936,4.457 9.936,9.935 v 79.459 h 15.208 v -79.459 -7.604 -62.56 c 0,-5.479 4.457,-9.937 9.937,-9.937 5.478,0 9.936,4.457 9.936,9.937 v 108.672 h 15.208 v -108.672 -7.604 -15.786 c 0,-5.478 4.458,-9.935 9.936,-9.935 5.478,0 9.936,4.457 9.936,9.935 v 4.091 7.604 108.672 h 15.208 v -108.672 c 0,-0.448 0.041,-0.889 0.099,-1.325 0.016,-0.117 0.033,-0.232 0.054,-0.349 0.065,-0.381 0.148,-0.756 0.255,-1.123 0.018,-0.063 0.031,-0.126 0.052,-0.188 0.118,-0.375 0.266,-0.738 0.426,-1.094 0.064,-0.142 0.132,-0.281 0.202,-0.419 0.136,-0.267 0.285,-0.526 0.444,-0.779 0.104,-0.164 0.211,-0.326 0.323,-0.485 0.176,-0.246 0.362,-0.486 0.561,-0.715 0.109,-0.128 0.224,-0.252 0.341,-0.375 0.237,-0.247 0.484,-0.487 0.747,-0.71 0.084,-0.071 0.169,-0.141 0.254,-0.209 0.299,-0.235 0.612,-0.455 0.939,-0.658 0.083,-0.053 0.166,-0.104 0.251,-0.153 0.391,-0.226 0.796,-0.436 1.223,-0.61 1.162,-0.48 2.432,-0.746 3.766,-0.746 5.479,0 9.937,4.457 9.937,9.937 v 27.48 7.604 85.283 h 15.208 v -85.283 c 0,-5.479 4.458,-9.937 9.936,-9.937 5.478,0 9.936,4.457 9.936,9.937 v 159.551 z"
         inkscape:connector-curvature="0" />
    </g>
    <g
       id="g919"
       transform="translate(-183.21097,242.30227)" />
    <g
       id="g921"
       transform="translate(-183.21097,242.30227)" />
    <g
       id="g923"
       transform="translate(-183.21097,242.30227)" />
    <g
       id="g925"
       transform="translate(-183.21097,242.30227)" />
    <g
       id="g927"
       transform="translate(-183.21097,242.30227)" />
    <g
       id="g929"
       transform="translate(-183.21097,242.30227)" />
    <g
       id="g931"
       transform="translate(-183.21097,242.30227)" />
    <g
       id="g933"
       transform="translate(-183.21097,242.30227)" />
    <g
       id="g935"
       transform="translate(-183.21097,242.30227)" />
    <g
       id="g937"
       transform="translate(-183.21097,242.30227)" />
    <g
       id="g939"
       transform="translate(-183.21097,242.30227)" />
    <g
       id="g941"
       transform="translate(-183.21097,242.30227)" />
    <g
       id="g943"
       transform="translate(-183.21097,242.30227)" />
    <g
       id="g945"
       transform="translate(-183.21097,242.30227)" />
    <g
       id="g947"
       transform="translate(-183.21097,242.30227)" />
  </g>
</svg>
