<?xml version="1.0" encoding="UTF-8" standalone="no"?>
<!-- Created with Inkscape (http://www.inkscape.org/) -->

<svg
   xmlns:dc="http://purl.org/dc/elements/1.1/"
   xmlns:cc="http://creativecommons.org/ns#"
   xmlns:rdf="http://www.w3.org/1999/02/22-rdf-syntax-ns#"
   xmlns:svg="http://www.w3.org/2000/svg"
   xmlns="http://www.w3.org/2000/svg"
   xmlns:sodipodi="http://sodipodi.sourceforge.net/DTD/sodipodi-0.dtd"
   xmlns:inkscape="http://www.inkscape.org/namespaces/inkscape"
   version="1.1"
   id="svg2"
   width="512"
   height="512"
   viewBox="0 0 512 512"
   sodipodi:docname="hd.svg"
   inkscape:version="0.92.4 5da689c313, 2019-01-14">
  <metadata
     id="metadata8">
    <rdf:RDF>
      <cc:Work
         rdf:about="">
        <dc:format>image/svg+xml</dc:format>
        <dc:type
           rdf:resource="http://purl.org/dc/dcmitype/StillImage" />
        <dc:title />
      </cc:Work>
    </rdf:RDF>
  </metadata>
  <defs
     id="defs6" />
  <sodipodi:namedview
     pagecolor="#ffffff"
     bordercolor="#666666"
     borderopacity="1"
     objecttolerance="10"
     gridtolerance="10"
     guidetolerance="10"
     inkscape:pageopacity="0"
     inkscape:pageshadow="2"
     inkscape:window-width="1920"
     inkscape:window-height="1013"
     id="namedview4"
     showgrid="true"
     inkscape:zoom="0.65186406"
     inkscape:cx="91.886147"
     inkscape:cy="197.15354"
     inkscape:window-x="0"
     inkscape:window-y="0"
     inkscape:window-maximized="1"
     inkscape:current-layer="svg2">
    <inkscape:grid
       type="xygrid"
       id="grid816" />
  </sodipodi:namedview>
  <path
     style="fill:#aaaabe;fill-opacity:1"
     d="m 79.317448,375.35966 c -12.01974,-4.17045 -21.38672,-12.55251 -26.80196,-23.98379 l -3.18498,-6.72333 v -99.05186 -99.05187 l 3.71796,-7.52277 c 4.60456,-9.3167 12.13623,-16.72538 21.52351,-21.17205 l 6.75853,-3.20145 H 254.38237 427.43424 l 7.52277,3.71796 c 9.3167,4.60456 16.72538,12.13623 21.17205,21.52351 l 3.20145,6.75853 v 99 99 l -3.20145,6.75853 c -4.44657,9.38707 -11.85535,16.91893 -21.17182,21.52351 l -7.52255,3.71796 -171.55209,0.22324 C 95.146858,377.08495 84.014438,376.98936 79.317448,375.35966 Z M 423.21259,356.06349 c 5.31189,-1.4749 13.08483,-8.96013 15.32055,-14.75348 1.68254,-4.35991 1.79737,-10.47136 1.79737,-95.65747 0,-85.18611 -0.11483,-91.29756 -1.79737,-95.65747 -2.23572,-5.79335 -10.00866,-13.27858 -15.32055,-14.75348 -5.46032,-1.51611 -332.303842,-1.51611 -337.764162,0 -5.31189,1.4749 -13.08483,8.96013 -15.32055,14.75348 -1.68254,4.35991 -1.79737,10.47136 -1.79737,95.65747 0,84.37378 0.1278,91.33108 1.75511,95.5468 2.15517,5.58321 9.12693,12.61582 14.35317,14.47842 3.25703,1.16079 30.882742,1.39324 169.391722,1.42531 115.3506,0.0267 166.67634,-0.28831 169.38208,-1.03958 z M 113.83051,309.00622 c 0,-1.26249 25.72951,-122.2916 26.59572,-125.10368 0.4898,-1.59011 2.36025,-1.75 20.47167,-1.75 10.96293,0 19.93261,0.39754 19.93261,0.88343 0,0.48588 -1.8,9.31334 -4,19.61657 -2.2,10.30323 -4,19.58069 -4,20.61657 0,1.78473 1.09953,1.88343 20.98095,1.88343 20.9351,0 20.9821,-0.005 21.50828,-2.25 0.86978,-3.71117 8.51077,-39.95235 8.51077,-40.36657 0,-0.21089 9.05008,-0.38343 20.11129,-0.38343 h 20.11129 l -0.63457,3.25 c -0.34901,1.7875 -6.3927,30.475 -13.43041,63.75 l -12.79585,60.5 -20.20514,0.27078 -20.20515,0.27079 0.55977,-2.27079 c 0.30787,-1.24893 2.71461,-12.62078 5.34831,-25.27078 l 4.78853,-23 -20.97039,-0.27031 c -11.53371,-0.14868 -21.11693,-0.12378 -21.29603,0.0553 -0.17911,0.1791 -2.60502,10.87574 -5.39093,23.77031 -2.7859,12.89457 -5.30383,24.23217 -5.59539,25.19467 -0.48176,1.59041 -2.34789,1.75 -20.46272,1.75 -14.31789,3e-5 -19.93261,-0.32287 -19.93261,-1.14629 z"
     id="path817"
     inkscape:connector-curvature="0"
     sodipodi:nodetypes="sscccsscccsscccsscsscsssssssscscscssssscssccsccccscscsccs" />
  <text
     xml:space="preserve"
     style="font-style:italic;font-variant:normal;font-weight:bold;font-stretch:normal;font-size:52.05267334px;line-height:1.25;font-family:'Noto Sans Marchen';-inkscape-font-specification:'Noto Sans Marchen Bold Italic';letter-spacing:0px;word-spacing:0px;fill:#000000;fill-opacity:1;stroke:none;stroke-width:1.3013171"
     x="257.29181"
     y="309.83148"
     id="text814"
     transform="scale(0.99409002,1.0059451)"><tspan
       sodipodi:role="line"
       id="tspan812"
       x="257.29181"
       y="309.83148"
       style="font-style:italic;font-variant:normal;font-weight:bold;font-stretch:normal;font-size:173.50892639px;line-height:101.04997253;font-family:sans-serif;-inkscape-font-specification:'sans-serif Bold Italic';fill:#aaaabe;fill-opacity:1;stroke-width:1.3013171">Q</tspan></text>
</svg>
