<?xml version="1.0" encoding="UTF-8" standalone="no"?>
<!-- Created with Inkscape (http://www.inkscape.org/) -->

<svg
        xmlns:dc="http://purl.org/dc/elements/1.1/"
        xmlns:cc="http://creativecommons.org/ns#"
        xmlns:rdf="http://www.w3.org/1999/02/22-rdf-syntax-ns#"
        xmlns="http://www.w3.org/2000/svg"
        xmlns:sodipodi="http://sodipodi.sourceforge.net/DTD/sodipodi-0.dtd"
        xmlns:inkscape="http://www.inkscape.org/namespaces/inkscape"
        version="1.1"
        id="svg2"
        width="512"
        height="512"
        viewBox="0 0 512 512"
        sodipodi:docname="hq.svg"
        inkscape:version="0.92.4 5da689c313, 2019-01-14">
  <metadata
     id="metadata8">
    <rdf:RDF>
      <cc:Work
         rdf:about="">
        <dc:format>image/svg+xml</dc:format>
        <dc:type
           rdf:resource="http://purl.org/dc/dcmitype/StillImage" />
        <dc:title />
      </cc:Work>
    </rdf:RDF>
  </metadata>
  <defs
     id="defs6" />
  <sodipodi:namedview
     pagecolor="#ffffff"
     bordercolor="#666666"
     borderopacity="1"
     objecttolerance="10"
     gridtolerance="10"
     guidetolerance="10"
     inkscape:pageopacity="0"
     inkscape:pageshadow="2"
     inkscape:window-width="1920"
     inkscape:window-height="1013"
     id="namedview4"
     showgrid="true"
     inkscape:zoom="0.65186406"
     inkscape:cx="-154.33083"
     inkscape:cy="197.15354"
     inkscape:window-x="0"
     inkscape:window-y="0"
     inkscape:window-maximized="1"
     inkscape:current-layer="svg2">
    <inkscape:grid
       type="xygrid"
       id="grid816" />
  </sodipodi:namedview>
  <path
     style="fill:#aaaabe;fill-opacity:1"
     d="m 79.317448,375.35966 c -12.01974,-4.17045 -21.38672,-12.55251 -26.80196,-23.98379 l -3.18498,-6.72333 v -99.05186 -99.05187 l 3.71796,-7.52277 c 4.60456,-9.3167 12.13623,-16.72538 21.52351,-21.17205 l 6.75853,-3.20145 H 254.38237 427.43424 l 7.52277,3.71796 c 9.3167,4.60456 16.72538,12.13623 21.17205,21.52351 l 3.20145,6.75853 v 99 99 l -3.20145,6.75853 c -4.44657,9.38707 -11.85535,16.91893 -21.17182,21.52351 l -7.52255,3.71796 -171.55209,0.22324 C 95.146858,377.08495 84.014438,376.98936 79.317448,375.35966 Z M 423.21259,356.06349 c 5.31189,-1.4749 13.08483,-8.96013 15.32055,-14.75348 1.68254,-4.35991 1.79737,-10.47136 1.79737,-95.65747 0,-85.18611 -0.11483,-91.29756 -1.79737,-95.65747 -2.23572,-5.79335 -10.00866,-13.27858 -15.32055,-14.75348 -5.46032,-1.51611 -332.303842,-1.51611 -337.764162,0 -5.31189,1.4749 -13.08483,8.96013 -15.32055,14.75348 -1.68254,4.35991 -1.79737,10.47136 -1.79737,95.65747 0,84.37378 0.1278,91.33108 1.75511,95.5468 2.15517,5.58321 9.12693,12.61582 14.35317,14.47842 3.25703,1.16079 30.882742,1.39324 169.391722,1.42531 115.3506,0.0267 166.67634,-0.28831 169.38208,-1.03958 z M 113.83051,309.00622 c 0,-1.26249 25.72951,-122.2916 26.59572,-125.10368 0.4898,-1.59011 2.36025,-1.75 20.47167,-1.75 10.96293,0 19.93261,0.39754 19.93261,0.88343 0,0.48588 -1.8,9.31334 -4,19.61657 -2.2,10.30323 -4,19.58069 -4,20.61657 0,1.78473 1.09953,1.88343 20.98095,1.88343 20.9351,0 20.9821,-0.005 21.50828,-2.25 0.86978,-3.71117 8.51077,-39.95235 8.51077,-40.36657 0,-0.21089 9.05008,-0.38343 20.11129,-0.38343 h 20.11129 l -0.63457,3.25 c -0.34901,1.7875 -6.3927,30.475 -13.43041,63.75 l -12.79585,60.5 -20.20514,0.27078 -20.20515,0.27079 0.55977,-2.27079 c 0.30787,-1.24893 2.71461,-12.62078 5.34831,-25.27078 l 4.78853,-23 -20.97039,-0.27031 c -11.53371,-0.14868 -21.11693,-0.12378 -21.29603,0.0553 -0.17911,0.1791 -2.60502,10.87574 -5.39093,23.77031 -2.7859,12.89457 -5.30383,24.23217 -5.59539,25.19467 -0.48176,1.59041 -2.34789,1.75 -20.46272,1.75 -14.31789,3e-5 -19.93261,-0.32287 -19.93261,-1.14629 z"
     id="path817"
     inkscape:connector-curvature="0"
     sodipodi:nodetypes="sscccsscccsscccsscsscsssssssscscscssssscssccsccccscscsccs" />
  <g
     aria-label="Q"
     transform="scale(0.99409002,1.0059451)"
     style="font-style:italic;font-variant:normal;font-weight:bold;font-stretch:normal;font-size:52.05267334px;line-height:1.25;font-family:'Noto Sans Marchen';-inkscape-font-specification:'Noto Sans Marchen Bold Italic';letter-spacing:0px;word-spacing:0px;fill:#000000;fill-opacity:1;stroke:none;stroke-width:1.3013171"
     id="text814">
    <path
       sodipodi:type="inkscape:offset"
       inkscape:radius="0"
       inkscape:original="M 342.52148 181.05469 C 329.36146 181.05469 317.78225 183.25856 307.78516 187.66406 C 297.84454 192.01308 289.23133 198.67776 281.94531 207.6582 C 275.95835 214.94422 271.38362 223.19012 268.2207 232.39648 C 265.11426 241.54636 263.56055 251.28902 263.56055 261.625 C 263.56055 269.70175 265.28318 277.29944 268.72852 284.41602 C 272.23032 291.47611 277.0879 297.29225 283.30078 301.86719 C 287.93221 305.31251 293.07263 307.9112 298.7207 309.66211 C 304.36878 311.41302 310.3833 312.28906 316.76562 312.28906 C 318.17764 312.28906 319.19512 312.25959 319.81641 312.20312 C 320.43769 312.20312 321.05839 312.17561 321.67969 312.11914 L 337.94727 335.16211 L 369.03906 335.16211 L 349.63867 307.54492 C 365.00144 301.445 376.97547 291.72986 385.56055 278.40039 C 394.20211 265.01445 398.52148 249.45371 398.52148 231.71875 C 398.52148 216.63838 393.38302 204.43847 383.10352 195.11914 C 372.8805 185.74333 359.35276 181.05469 342.52148 181.05469 z M 337.77734 204.69336 C 346.30594 204.69336 352.80169 207.2901 357.26367 212.48633 C 361.78213 217.68256 364.04102 225.25079 364.04102 235.19141 C 364.04102 241.9691 363.108 248.57877 361.24414 255.01758 C 359.43675 261.45639 356.84002 267.24502 353.45117 272.38477 C 349.89289 277.75044 345.57155 281.81642 340.48828 284.58398 C 335.46149 287.29506 329.70036 288.65039 323.20508 288.65039 C 315.24129 288.65039 309.02839 285.96919 304.56641 280.60352 C 300.10443 275.23784 297.87305 267.69712 297.87305 257.98242 C 297.87305 242.73262 301.68564 230.05146 309.31055 219.94141 C 316.99193 209.77487 326.48119 204.69336 337.77734 204.69336 z "
       style="font-style:italic;font-variant:normal;font-weight:bold;font-stretch:normal;font-size:173.50892639px;line-height:101.04997253;font-family:sans-serif;-inkscape-font-specification:'sans-serif Bold Italic';fill:#aaaabe;fill-opacity:1;stroke-width:1.3013171"
       id="path815"
       d="m 342.52148,181.05469 c -13.16002,0 -24.73923,2.20387 -34.73632,6.60937 -9.94062,4.34902 -18.55383,11.0137 -25.83985,19.99414 -5.98696,7.28602 -10.56169,15.53192 -13.72461,24.73828 -3.10644,9.14988 -4.66015,18.89254 -4.66015,29.22852 0,8.07675 1.72263,15.67444 5.16797,22.79102 3.5018,7.06009 8.35938,12.87623 14.57226,17.45117 4.63143,3.44532 9.77185,6.04401 15.41992,7.79492 5.64808,1.75091 11.6626,2.62695 18.04492,2.62695 1.41202,0 2.4295,-0.0295 3.05079,-0.0859 0.62128,0 1.24198,-0.0275 1.86328,-0.084 l 16.26758,23.04297 h 31.09179 l -19.40039,-27.61719 c 15.36277,-6.09992 27.3368,-15.81506 35.92188,-29.14453 8.64156,-13.38594 12.96093,-28.94668 12.96093,-46.68164 0,-15.08037 -5.13846,-27.28028 -15.41796,-36.59961 -10.22302,-9.37581 -23.75076,-14.06445 -40.58204,-14.06445 z m -4.74414,23.63867 c 8.5286,0 15.02435,2.59674 19.48633,7.79297 4.51846,5.19623 6.77735,12.76446 6.77735,22.70508 0,6.77769 -0.93302,13.38736 -2.79688,19.82617 -1.80739,6.43881 -4.40412,12.22744 -7.79297,17.36719 -3.55828,5.36567 -7.87962,9.43165 -12.96289,12.19921 -5.02679,2.71108 -10.78792,4.06641 -17.2832,4.06641 -7.96379,0 -14.17669,-2.6812 -18.63867,-8.04687 -4.46198,-5.36568 -6.69336,-12.9064 -6.69336,-22.6211 0,-15.2498 3.81259,-27.93096 11.4375,-38.04101 7.68138,-10.16654 17.17064,-15.24805 28.46679,-15.24805 z" />
  </g>
</svg>
