<?xml version="1.0" encoding="UTF-8" standalone="no"?>
<svg
   xmlns:dc="http://purl.org/dc/elements/1.1/"
   xmlns:cc="http://creativecommons.org/ns#"
   xmlns:rdf="http://www.w3.org/1999/02/22-rdf-syntax-ns#"
   xmlns:svg="http://www.w3.org/2000/svg"
   xmlns="http://www.w3.org/2000/svg"
   xmlns:sodipodi="http://sodipodi.sourceforge.net/DTD/sodipodi-0.dtd"
   xmlns:inkscape="http://www.inkscape.org/namespaces/inkscape"
   viewBox="0 0 12.998665 12.998665"
   version="1.1"
   width="24.997433"
   height="24.997433"
   id="svg2"
   inkscape:version="0.48.4 r9939"
   sodipodi:docname="icons8-info.svg">
  <metadata
     id="metadata11">
    <rdf:RDF>
      <cc:Work
         rdf:about="">
        <dc:format>image/svg+xml</dc:format>
        <dc:type
           rdf:resource="http://purl.org/dc/dcmitype/StillImage" />
      </cc:Work>
    </rdf:RDF>
  </metadata>
  <defs
     id="defs9" />
  <sodipodi:namedview
     pagecolor="#ffffff"
     bordercolor="#666666"
     borderopacity="1"
     objecttolerance="10"
     gridtolerance="10"
     guidetolerance="10"
     inkscape:pageopacity="0"
     inkscape:pageshadow="2"
     inkscape:window-width="1920"
     inkscape:window-height="1017"
     id="namedview7"
     showgrid="false"
     fit-margin-top="0"
     fit-margin-left="0"
     fit-margin-right="0"
     fit-margin-bottom="0"
     inkscape:zoom="256"
     inkscape:cx="12.384051"
     inkscape:cy="0.45849691"
     inkscape:window-x="1912"
     inkscape:window-y="-8"
     inkscape:window-maximized="1"
     inkscape:current-layer="svg2" />
  <g
     id="surface1"
     style="fill:#03a9f4;fill-opacity:1"
     transform="matrix(0.55020803,0,0,0.55020803,-0.65337204,-0.65337204)">
    <path
       style="fill:#03a9f4;fill-opacity:1"
       d="M 13,1.1875 C 6.476563,1.1875 1.1875,6.476563 1.1875,13 1.1875,19.523438 6.476563,24.8125 13,24.8125 19.523438,24.8125 24.8125,19.523438 24.8125,13 24.8125,6.476563 19.523438,1.1875 13,1.1875 z m 2.460938,18.308594 c -0.609375,0.238281 -1.09375,0.421875 -1.457032,0.546875 -0.363281,0.125 -0.78125,0.1875 -1.261718,0.1875 -0.734375,0 -1.308594,-0.179688 -1.71875,-0.539063 -0.40625,-0.355468 -0.609375,-0.8125 -0.609375,-1.367187 0,-0.214844 0.01563,-0.433594 0.04687,-0.65625 0.02734,-0.226563 0.07813,-0.476563 0.144531,-0.761719 l 0.761719,-2.6875 c 0.06641,-0.257812 0.125,-0.5 0.171875,-0.730469 0.04687,-0.230468 0.06641,-0.441406 0.06641,-0.632812 0,-0.339844 -0.07031,-0.582031 -0.210938,-0.714844 C 11.25,12.003906 10.980469,11.9375 10.582031,11.9375 c -0.195312,0 -0.398437,0.03125 -0.605468,0.08984 -0.207032,0.0625 -0.382813,0.121094 -0.53125,0.175781 L 9.648438,11.375 c 0.496093,-0.203125 0.972656,-0.375 1.429687,-0.519531 0.453125,-0.144531 0.886719,-0.21875 1.289063,-0.21875 0.730468,0 1.296875,0.179687 1.691406,0.53125 0.394531,0.351562 0.59375,0.8125 0.59375,1.375 0,0.117187 -0.01172,0.324219 -0.03906,0.617187 -0.02734,0.292969 -0.07813,0.5625 -0.152343,0.8125 l -0.757813,2.679688 c -0.0625,0.214844 -0.117187,0.460937 -0.167969,0.734375 -0.04687,0.273437 -0.07031,0.484375 -0.07031,0.625 0,0.355469 0.07813,0.601562 0.238281,0.730469 0.15625,0.128906 0.433594,0.191406 0.828125,0.191406 0.183594,0 0.390625,-0.03125 0.625,-0.09375 0.230469,-0.06641 0.398438,-0.121094 0.503906,-0.171875 z M 15.324219,8.617188 c -0.351563,0.328125 -0.777344,0.492187 -1.273438,0.492187 -0.496093,0 -0.925781,-0.164062 -1.28125,-0.492187 -0.355468,-0.328125 -0.53125,-0.726563 -0.53125,-1.191407 0,-0.464843 0.179688,-0.867187 0.53125,-1.199218 0.355469,-0.332032 0.785157,-0.496094 1.28125,-0.496094 0.496094,0 0.921875,0.164062 1.273438,0.496094 0.355469,0.332031 0.53125,0.734375 0.53125,1.199218 0,0.464844 -0.175781,0.863282 -0.53125,1.191407 z"
       id="path5"
       inkscape:connector-curvature="0" />
  </g>
</svg>
