<?xml version="1.0" encoding="UTF-8" standalone="no"?>
<!-- Generator: Adobe Illustrator 19.0.0, SVG Export Plug-In . SVG Version: 6.00 Build 0)  -->

<svg
   xmlns:dc="http://purl.org/dc/elements/1.1/"
   xmlns:cc="http://creativecommons.org/ns#"
   xmlns:rdf="http://www.w3.org/1999/02/22-rdf-syntax-ns#"
   xmlns:svg="http://www.w3.org/2000/svg"
   xmlns="http://www.w3.org/2000/svg"
   xmlns:sodipodi="http://sodipodi.sourceforge.net/DTD/sodipodi-0.dtd"
   xmlns:inkscape="http://www.inkscape.org/namespaces/inkscape"
   version="1.1"
   id="Layer_1"
   x="0px"
   y="0px"
   viewBox="0 0 24.999565 24.999565"
   xml:space="preserve"
   inkscape:version="0.48.4 r9939"
   width="100%"
   height="100%"
   sodipodi:docname="checked.svg"><metadata
   id="metadata39"><rdf:RDF><cc:Work
       rdf:about=""><dc:format>image/svg+xml</dc:format><dc:type
         rdf:resource="http://purl.org/dc/dcmitype/StillImage" /></cc:Work></rdf:RDF></metadata><defs
   id="defs37" /><sodipodi:namedview
   pagecolor="#ffffff"
   bordercolor="#666666"
   borderopacity="1"
   objecttolerance="10"
   gridtolerance="10"
   guidetolerance="10"
   inkscape:pageopacity="0"
   inkscape:pageshadow="2"
   inkscape:window-width="1920"
   inkscape:window-height="1017"
   id="namedview35"
   showgrid="false"
   fit-margin-top="0"
   fit-margin-left="0"
   fit-margin-right="0"
   fit-margin-bottom="0"
   inkscape:zoom="16"
   inkscape:cx="12.717762"
   inkscape:cy="14.797048"
   inkscape:window-x="1912"
   inkscape:window-y="-8"
   inkscape:window-maximized="1"
   inkscape:current-layer="Layer_1" />
<path
   style="fill:#4caf50;fill-opacity:1"
   d="M 12.499783,0 C 5.5966693,0 0,5.596435 0,12.499784 c 0,6.903347 5.5966693,12.499782 12.499783,12.499782 6.903875,0 12.499783,-5.596435 12.499783,-12.499782 C 24.999566,5.596435 19.403424,0 12.499783,0 z m -2.292972,18.920678 -5.5039166,-5.503683 1.8344827,-1.834483 3.6694339,3.669201 8.255378,-8.2556122 1.834483,1.834483 -10.089861,10.0900942 z"
   id="path3"
   inkscape:connector-curvature="0" />
<g
   id="g5"
   transform="translate(0,-401.66643)">
</g>
<g
   id="g7"
   transform="translate(0,-401.66643)">
</g>
<g
   id="g9"
   transform="translate(0,-401.66643)">
</g>
<g
   id="g11"
   transform="translate(0,-401.66643)">
</g>
<g
   id="g13"
   transform="translate(0,-401.66643)">
</g>
<g
   id="g15"
   transform="translate(0,-401.66643)">
</g>
<g
   id="g17"
   transform="translate(0,-401.66643)">
</g>
<g
   id="g19"
   transform="translate(0,-401.66643)">
</g>
<g
   id="g21"
   transform="translate(0,-401.66643)">
</g>
<g
   id="g23"
   transform="translate(0,-401.66643)">
</g>
<g
   id="g25"
   transform="translate(0,-401.66643)">
</g>
<g
   id="g27"
   transform="translate(0,-401.66643)">
</g>
<g
   id="g29"
   transform="translate(0,-401.66643)">
</g>
<g
   id="g31"
   transform="translate(0,-401.66643)">
</g>
<g
   id="g33"
   transform="translate(0,-401.66643)">
</g>
</svg>