<?xml version="1.0" encoding="UTF-8" standalone="no"?>
<!-- Generator: Adobe Illustrator 19.0.0, SVG Export Plug-In . SVG Version: 6.00 Build 0)  -->

<svg
        xmlns:dc="http://purl.org/dc/elements/1.1/"
        xmlns:cc="http://creativecommons.org/ns#"
        xmlns:rdf="http://www.w3.org/1999/02/22-rdf-syntax-ns#"
        xmlns="http://www.w3.org/2000/svg"
        xmlns:sodipodi="http://sodipodi.sourceforge.net/DTD/sodipodi-0.dtd"
        xmlns:inkscape="http://www.inkscape.org/namespaces/inkscape"
        version="1.1"
        id="Capa_1"
        x="0px"
        y="0px"
        viewBox="0 0 512 341.34201"
        xml:space="preserve"
        sodipodi:docname="FJI.svg"
        width="512"
        height="341.34201"
        inkscape:version="0.92.4 5da689c313, 2019-01-14"><metadata
   id="metadata61"><rdf:RDF><cc:Work
       rdf:about=""><dc:format>image/svg+xml</dc:format><dc:type
         rdf:resource="http://purl.org/dc/dcmitype/StillImage" /><dc:title></dc:title></cc:Work></rdf:RDF></metadata><defs
   id="defs59" /><sodipodi:namedview
   pagecolor="#ffffff"
   bordercolor="#666666"
   borderopacity="1"
   objecttolerance="10"
   gridtolerance="10"
   guidetolerance="10"
   inkscape:pageopacity="0"
   inkscape:pageshadow="2"
   inkscape:window-width="736"
   inkscape:window-height="480"
   id="namedview57"
   showgrid="false"
   fit-margin-top="0"
   fit-margin-left="0"
   fit-margin-right="0"
   fit-margin-bottom="0"
   inkscape:zoom="0.4609375"
   inkscape:cx="256"
   inkscape:cy="170.67101"
   inkscape:window-x="0"
   inkscape:window-y="0"
   inkscape:window-maximized="0"
   inkscape:current-layer="Capa_1" />
<rect
   y="0.0049996339"
   style="fill:#2e52b2"
   width="512"
   height="341.33701"
   id="rect2"
   x="0" />
<polygon
   style="fill:#f0f0f0"
   points="209.931,138.66 256,138.66 256,202.66 209.931,202.66 256,233.38 256,255.997 233.372,255.997 160,207.078 160,255.997 96,255.997 96,207.078 22.628,255.997 0,255.997 0,233.38 46.069,202.66 0,202.66 0,138.66 46.069,138.66 0,107.951 0,85.334 22.628,85.334 96,134.241 96,85.334 160,85.334 160,134.241 233.372,85.334 256,85.334 256,107.951 "
   id="polygon4"
   transform="translate(0,-85.329)" />
<g
   id="g20"
   transform="translate(0,-85.329)">
	<polygon
   style="fill:#d80027"
   points="112,154.663 0,154.663 0,186.663 112,186.663 112,255.997 144,255.997 144,186.663 256,186.663 256,154.663 144,154.663 144,85.329 112,85.329 "
   id="polygon6" />
	<polygon
   style="fill:#d80027"
   points="57.377,138.663 80,138.663 0,85.329 0,100.412 "
   id="polygon8" />
	<polygon
   style="fill:#d80027"
   points="198.623,138.663 176,138.663 256,85.329 256,100.412 "
   id="polygon10" />
	<polygon
   style="fill:#d80027"
   points="57.377,138.663 80,138.663 0,85.329 0,100.412 "
   id="polygon12" />
	<polygon
   style="fill:#d80027"
   points="198.623,138.663 176,138.663 256,85.329 256,100.412 "
   id="polygon14" />
	<polygon
   style="fill:#d80027"
   points="57.377,202.663 80,202.663 0,255.997 0,240.915 "
   id="polygon16" />
	<polygon
   style="fill:#d80027"
   points="198.623,202.663 176,202.663 256,255.997 256,240.915 "
   id="polygon18" />
</g>
<path
   style="fill:#f3f3f3"
   d="m 332.058,122.436 v 59.362 c 0,39.76 51.942,51.942 51.942,51.942 0,0 51.942,-12.182 51.942,-51.942 V 122.436 L 384,107.595 Z"
   id="path22"
   inkscape:connector-curvature="0" />
<path
   style="fill:#d80027"
   d="M 435.942,126.146 V 103.885 H 332.059 v 22.261 h 44.521 v 44.523 h -44.521 v 14.839 10e-4 h 44.521 v 49.664 c 4.479,1.586 7.421,2.277 7.421,2.277 0,0 2.942,-0.691 7.42,-2.276 v -49.665 h 44.523 v -10e-4 -14.839 H 391.42 v -44.523 z"
   id="path24"
   inkscape:connector-curvature="0" />
<g
   id="g26"
   transform="translate(0,-85.329)">
</g>
<g
   id="g28"
   transform="translate(0,-85.329)">
</g>
<g
   id="g30"
   transform="translate(0,-85.329)">
</g>
<g
   id="g32"
   transform="translate(0,-85.329)">
</g>
<g
   id="g34"
   transform="translate(0,-85.329)">
</g>
<g
   id="g36"
   transform="translate(0,-85.329)">
</g>
<g
   id="g38"
   transform="translate(0,-85.329)">
</g>
<g
   id="g40"
   transform="translate(0,-85.329)">
</g>
<g
   id="g42"
   transform="translate(0,-85.329)">
</g>
<g
   id="g44"
   transform="translate(0,-85.329)">
</g>
<g
   id="g46"
   transform="translate(0,-85.329)">
</g>
<g
   id="g48"
   transform="translate(0,-85.329)">
</g>
<g
   id="g50"
   transform="translate(0,-85.329)">
</g>
<g
   id="g52"
   transform="translate(0,-85.329)">
</g>
<g
   id="g54"
   transform="translate(0,-85.329)">
</g>
</svg>