<?xml version="1.0" encoding="UTF-8" standalone="no"?>
<!-- Created with Inkscape (http://www.inkscape.org/) -->

<svg
   xmlns:dc="http://purl.org/dc/elements/1.1/"
   xmlns:cc="http://creativecommons.org/ns#"
   xmlns:rdf="http://www.w3.org/1999/02/22-rdf-syntax-ns#"
   xmlns:svg="http://www.w3.org/2000/svg"
   xmlns="http://www.w3.org/2000/svg"
   xmlns:sodipodi="http://sodipodi.sourceforge.net/DTD/sodipodi-0.dtd"
   xmlns:inkscape="http://www.inkscape.org/namespaces/inkscape"
   width="99.891998"
   height="99.891998"
   id="svg2"
   version="1.1"
   inkscape:version="0.92.2 5c3e80d, 2017-08-06"
   sodipodi:docname="artist.svg">
  <defs
     id="defs4" />
  <sodipodi:namedview
     id="base"
     pagecolor="#ffffff"
     bordercolor="#666666"
     borderopacity="1.0"
     inkscape:pageopacity="0.0"
     inkscape:pageshadow="2"
     inkscape:zoom="4"
     inkscape:cx="18.256556"
     inkscape:cy="62.135013"
     inkscape:document-units="px"
     inkscape:current-layer="layer1"
     showgrid="false"
     fit-margin-top="0"
     fit-margin-left="0"
     fit-margin-right="0"
     fit-margin-bottom="0"
     inkscape:window-width="1920"
     inkscape:window-height="991"
     inkscape:window-x="0"
     inkscape:window-y="22"
     inkscape:window-maximized="1" />
  <metadata
     id="metadata7">
    <rdf:RDF>
      <cc:Work
         rdf:about="">
        <dc:format>image/svg+xml</dc:format>
        <dc:type
           rdf:resource="http://purl.org/dc/dcmitype/StillImage" />
        <dc:title />
      </cc:Work>
    </rdf:RDF>
  </metadata>
  <g
     inkscape:label="Layer 1"
     inkscape:groupmode="layer"
     id="layer1"
     transform="translate(-438.62543,-476.7019)">
    <path
       inkscape:connector-curvature="0"
       id="path2"
       d="m 488.26829,477.36219 c -27.54,0 -49.946,22.406 -49.946,49.946 0,27.54 22.406,49.946 49.946,49.946 27.54,0 49.946,-22.406 49.946,-49.946 0,-27.54 -22.405,-49.946 -49.946,-49.946 z m 0,97.893 c -26.437,0 -47.946,-21.509 -47.946,-47.947 0,-26.438 21.509,-47.946 47.946,-47.946 26.437,0 47.946,21.509 47.946,47.946 0,26.437 -21.508,47.947 -47.946,47.947 z"
       style="fill:#aaaabe;fill-opacity:1" />
    <g
       id="background"
       transform="translate(-269.26992,-125.8521)"
       style="fill:#aaaabe;fill-opacity:1" />
    <g
       id="design"
       transform="translate(-269.26992,-125.8521)"
       style="fill:#aaaabe;fill-opacity:1" />
    <path
       style="fill:#aaaabe;fill-opacity:1;stroke-width:1.35393989"
       sodipodi:nodetypes="cccscccsscccscccssccsccccccscccccsscccccsccccssccccccsccc"
       inkscape:connector-curvature="0"
       d="m 519.4089,566.16567 c 0,-4.65485 -2.58737,-8.84123 -6.75074,-10.92359 l -12.93419,-6.46642 c -1.2199,-0.61063 -1.9781,-1.8373 -1.9781,-3.20207 v -4.57767 c 0.31005,-0.3791 0.63635,-0.81101 0.97348,-1.28759 1.67753,-2.3694 3.02199,-5.00687 3.99954,-7.8515 1.91041,-0.876 3.15062,-2.76475 3.15062,-4.8972 v -5.41576 c 0,-1.30385 -0.48742,-2.56707 -1.35394,-3.55409 v -7.20161 c 0.0758,-0.74467 0.37368,-5.17747 -2.83245,-8.83446 -2.78099,-3.17228 -7.29367,-4.78076 -13.41483,-4.78076 -6.12117,0 -10.63385,1.60848 -13.41484,4.77941 -3.20613,3.65699 -2.90826,8.09114 -2.83244,8.83581 v 7.20161 c -0.86652,0.98702 -1.35394,2.25024 -1.35394,3.55409 v 5.41576 c 0,1.64774 0.74873,3.18446 2.02685,4.2094 1.24021,4.91074 3.83571,8.61105 4.74285,9.79846 v 4.48019 c 0,1.31061 -0.71488,2.51291 -1.86438,3.14114 l -12.0785,6.58827 c -3.92777,2.14329 -6.36622,6.25114 -6.36622,10.72456 m 2.70788,0 c 0,-3.48098 1.89822,-6.68034 4.95407,-8.34569 l 12.07849,-6.58827 c 2.02144,-1.10346 3.27654,-3.21967 3.27654,-5.52001 v -5.44149 l -0.31547,-0.37639 c -0.0325,-0.0393 -3.351,-4.0537 -4.61694,-9.56559 l -0.1232,-0.53616 -0.4617,-0.29786 c -0.78393,-0.50638 -1.25239,-1.3553 -1.25239,-2.27056 v -5.41576 c 0,-0.75956 0.32224,-1.46767 0.90714,-1.99706 l 0.4468,-0.40212 v -8.43234 l -0.0122,-0.17737 c -0.004,-0.0366 -0.4644,-3.78967 2.17308,-6.79813 2.24347,-2.55895 6.07242,-3.85602 11.37851,-3.85602 5.28713,0 9.10795,1.2876 11.35414,3.82894 2.63612,2.98002 2.20015,6.79272 2.19744,6.82521 l -0.0122,8.60971 0.4468,0.40347 c 0.5849,0.52804 0.90714,1.23615 0.90714,1.99571 v 5.41576 c 0,1.18199 -0.77446,2.2164 -1.92531,2.57113 l -0.67426,0.20715 -0.21663,0.6702 c -0.90578,2.81755 -2.19609,5.41982 -3.83706,7.73506 -0.40212,0.57001 -0.79341,1.07503 -1.13325,1.4609 l -0.33713,0.38452 v 5.585 c 0,2.39648 1.33092,4.5506 3.47421,5.62292 l 12.93418,6.46641 c 3.24134,1.62067 5.25464,4.87825 5.25464,8.50275"
       id="path959" />
    <g
       style="fill:#aaaabe;fill-opacity:1"
       id="g961"
       transform="matrix(1.3539399,0,0,1.3539399,447.65009,497.17295)" />
    <g
       style="fill:#aaaabe;fill-opacity:1"
       id="g963"
       transform="matrix(1.3539399,0,0,1.3539399,447.65009,497.17295)" />
    <g
       style="fill:#aaaabe;fill-opacity:1"
       id="g965"
       transform="matrix(1.3539399,0,0,1.3539399,447.65009,497.17295)" />
    <g
       style="fill:#aaaabe;fill-opacity:1"
       id="g967"
       transform="matrix(1.3539399,0,0,1.3539399,447.65009,497.17295)" />
    <g
       style="fill:#aaaabe;fill-opacity:1"
       id="g969"
       transform="matrix(1.3539399,0,0,1.3539399,447.65009,497.17295)" />
    <g
       style="fill:#aaaabe;fill-opacity:1"
       id="g971"
       transform="matrix(1.3539399,0,0,1.3539399,447.65009,497.17295)" />
    <g
       style="fill:#aaaabe;fill-opacity:1"
       id="g973"
       transform="matrix(1.3539399,0,0,1.3539399,447.65009,497.17295)" />
    <g
       style="fill:#aaaabe;fill-opacity:1"
       id="g975"
       transform="matrix(1.3539399,0,0,1.3539399,447.65009,497.17295)" />
    <g
       style="fill:#aaaabe;fill-opacity:1"
       id="g977"
       transform="matrix(1.3539399,0,0,1.3539399,447.65009,497.17295)" />
    <g
       style="fill:#aaaabe;fill-opacity:1"
       id="g979"
       transform="matrix(1.3539399,0,0,1.3539399,447.65009,497.17295)" />
    <g
       style="fill:#aaaabe;fill-opacity:1"
       id="g981"
       transform="matrix(1.3539399,0,0,1.3539399,447.65009,497.17295)" />
    <g
       style="fill:#aaaabe;fill-opacity:1"
       id="g983"
       transform="matrix(1.3539399,0,0,1.3539399,447.65009,497.17295)" />
    <g
       style="fill:#aaaabe;fill-opacity:1"
       id="g985"
       transform="matrix(1.3539399,0,0,1.3539399,447.65009,497.17295)" />
    <g
       style="fill:#aaaabe;fill-opacity:1"
       id="g987"
       transform="matrix(1.3539399,0,0,1.3539399,447.65009,497.17295)" />
    <g
       style="fill:#aaaabe;fill-opacity:1"
       id="g989"
       transform="matrix(1.3539399,0,0,1.3539399,447.65009,497.17295)" />
    <g
       style="fill:#aaaabe;fill-opacity:1"
       transform="translate(590.88408,410.65451)"
       id="g1392" />
    <g
       style="fill:#aaaabe;fill-opacity:1"
       transform="translate(590.88408,410.65451)"
       id="g1394" />
    <g
       style="fill:#aaaabe;fill-opacity:1"
       transform="translate(590.88408,410.65451)"
       id="g1396" />
    <g
       style="fill:#aaaabe;fill-opacity:1"
       transform="translate(590.88408,410.65451)"
       id="g1398" />
    <g
       style="fill:#aaaabe;fill-opacity:1"
       transform="translate(590.88408,410.65451)"
       id="g1400" />
    <g
       style="fill:#aaaabe;fill-opacity:1"
       transform="translate(590.88408,410.65451)"
       id="g1402" />
    <g
       style="fill:#aaaabe;fill-opacity:1"
       transform="translate(590.88408,410.65451)"
       id="g1404" />
    <g
       style="fill:#aaaabe;fill-opacity:1"
       transform="translate(590.88408,410.65451)"
       id="g1406" />
    <g
       style="fill:#aaaabe;fill-opacity:1"
       transform="translate(590.88408,410.65451)"
       id="g1408" />
    <g
       style="fill:#aaaabe;fill-opacity:1"
       transform="translate(590.88408,410.65451)"
       id="g1410" />
    <g
       style="fill:#aaaabe;fill-opacity:1"
       transform="translate(590.88408,410.65451)"
       id="g1412" />
    <g
       style="fill:#aaaabe;fill-opacity:1"
       transform="translate(590.88408,410.65451)"
       id="g1414" />
    <g
       style="fill:#aaaabe;fill-opacity:1"
       transform="translate(590.88408,410.65451)"
       id="g1416" />
    <g
       style="fill:#aaaabe;fill-opacity:1"
       transform="translate(590.88408,410.65451)"
       id="g1418" />
    <g
       style="fill:#aaaabe;fill-opacity:1"
       transform="translate(590.88408,410.65451)"
       id="g1420" />
    <path
       style="fill:#7d7d91;fill-opacity:1;stroke-width:0.12078706"
       id="path1479"
       d="m 510.81099,513.25808 h -1.07348 v -3.47932 c 0,-9.60814 -9.61177,-17.3966 -21.46923,-17.3966 -11.85745,0 -21.46922,7.78846 -21.46922,17.3966 v 3.47932 h -1.07346 c -2.95846,0 -5.36731,1.9519 -5.36731,4.34915 v 10.43796 c 0,2.39725 2.40885,4.34915 5.36731,4.34915 h 3.22038 v -22.61558 c 0,-8.64785 8.64995,-15.65694 19.3223,-15.65694 10.67237,0 19.32232,7.00909 19.32232,15.65694 v 22.61558 h 3.22039 c 2.9606,0 5.3673,-1.9519 5.3673,-4.34915 v -10.43796 c 0,-2.39725 -2.4067,-4.34915 -5.3673,-4.34915 z m -44.01193,17.3966 h -1.07346 c -1.77551,0 -3.22039,-1.17079 -3.22039,-2.60949 v -10.43796 c 0,-1.4387 1.44488,-2.60949 3.22039,-2.60949 h 1.07346 z m 47.23231,-2.60949 c 0,1.4387 -1.44488,2.60949 -3.22038,2.60949 h -1.07348 v -15.65694 h 1.07348 c 1.7755,0 3.22038,1.17079 3.22038,2.60949 z"
       inkscape:connector-curvature="0" />
    <g
       style="fill:#aaaabe;fill-opacity:1"
       transform="translate(645.2891,549.55677)"
       id="g1485" />
    <g
       style="fill:#aaaabe;fill-opacity:1"
       transform="translate(645.2891,549.55677)"
       id="g1487" />
    <g
       style="fill:#aaaabe;fill-opacity:1"
       transform="translate(645.2891,549.55677)"
       id="g1489" />
    <g
       style="fill:#aaaabe;fill-opacity:1"
       transform="translate(645.2891,549.55677)"
       id="g1491" />
    <g
       style="fill:#aaaabe;fill-opacity:1"
       transform="translate(645.2891,549.55677)"
       id="g1493" />
    <g
       style="fill:#aaaabe;fill-opacity:1"
       transform="translate(645.2891,549.55677)"
       id="g1495" />
    <g
       style="fill:#aaaabe;fill-opacity:1"
       transform="translate(645.2891,549.55677)"
       id="g1497" />
    <g
       style="fill:#aaaabe;fill-opacity:1"
       transform="translate(645.2891,549.55677)"
       id="g1499" />
    <g
       style="fill:#aaaabe;fill-opacity:1"
       transform="translate(645.2891,549.55677)"
       id="g1501" />
    <g
       style="fill:#aaaabe;fill-opacity:1"
       transform="translate(645.2891,549.55677)"
       id="g1503" />
    <g
       style="fill:#aaaabe;fill-opacity:1"
       transform="translate(645.2891,549.55677)"
       id="g1505" />
    <g
       style="fill:#aaaabe;fill-opacity:1"
       transform="translate(645.2891,549.55677)"
       id="g1507" />
    <g
       style="fill:#aaaabe;fill-opacity:1"
       transform="translate(645.2891,549.55677)"
       id="g1509" />
    <g
       style="fill:#aaaabe;fill-opacity:1"
       transform="translate(645.2891,549.55677)"
       id="g1511" />
    <g
       style="fill:#aaaabe;fill-opacity:1"
       transform="translate(645.2891,549.55677)"
       id="g1513" />
    <g
       id="g1034"
       transform="matrix(0.18410756,0,0,0.18410756,429.07586,467.05097)" />
    <g
       id="g1036"
       transform="matrix(0.18410756,0,0,0.18410756,429.07586,467.05097)" />
    <g
       id="g1038"
       transform="matrix(0.18410756,0,0,0.18410756,429.07586,467.05097)" />
    <g
       id="g1040"
       transform="matrix(0.18410756,0,0,0.18410756,429.07586,467.05097)" />
    <g
       id="g1042"
       transform="matrix(0.18410756,0,0,0.18410756,429.07586,467.05097)" />
    <g
       id="g1044"
       transform="matrix(0.18410756,0,0,0.18410756,429.07586,467.05097)" />
    <g
       id="g1046"
       transform="matrix(0.18410756,0,0,0.18410756,429.07586,467.05097)" />
    <g
       id="g1048"
       transform="matrix(0.18410756,0,0,0.18410756,429.07586,467.05097)" />
    <g
       id="g1050"
       transform="matrix(0.18410756,0,0,0.18410756,429.07586,467.05097)" />
    <g
       id="g1052"
       transform="matrix(0.18410756,0,0,0.18410756,429.07586,467.05097)" />
    <g
       id="g1054"
       transform="matrix(0.18410756,0,0,0.18410756,429.07586,467.05097)" />
    <g
       id="g1056"
       transform="matrix(0.18410756,0,0,0.18410756,429.07586,467.05097)" />
    <g
       id="g1058"
       transform="matrix(0.18410756,0,0,0.18410756,429.07586,467.05097)" />
    <g
       id="g1060"
       transform="matrix(0.18410756,0,0,0.18410756,429.07586,467.05097)" />
    <g
       id="g1062"
       transform="matrix(0.18410756,0,0,0.18410756,429.07586,467.05097)" />
    <g
       id="g1291"
       transform="translate(206.66756,238.56801)" />
    <g
       id="g1293"
       transform="translate(206.66756,238.56801)" />
    <g
       id="g1295"
       transform="translate(206.66756,238.56801)" />
    <g
       id="g1297"
       transform="translate(206.66756,238.56801)" />
    <g
       id="g1299"
       transform="translate(206.66756,238.56801)" />
    <g
       id="g1301"
       transform="translate(206.66756,238.56801)" />
    <g
       id="g1303"
       transform="translate(206.66756,238.56801)" />
    <g
       id="g1305"
       transform="translate(206.66756,238.56801)" />
    <g
       id="g1307"
       transform="translate(206.66756,238.56801)" />
    <g
       id="g1309"
       transform="translate(206.66756,238.56801)" />
    <g
       id="g1311"
       transform="translate(206.66756,238.56801)" />
    <g
       id="g1313"
       transform="translate(206.66756,238.56801)" />
    <g
       id="g1315"
       transform="translate(206.66756,238.56801)" />
    <g
       id="g1317"
       transform="translate(206.66756,238.56801)" />
    <g
       id="g1319"
       transform="translate(206.66756,238.56801)" />
  </g>
</svg>
