<?xml version="1.0" encoding="UTF-8" standalone="no"?>
<!-- Generator: Adobe Illustrator 19.0.0, SVG Export Plug-In . SVG Version: 6.00 Build 0)  -->

<svg
   xmlns:dc="http://purl.org/dc/elements/1.1/"
   xmlns:cc="http://creativecommons.org/ns#"
   xmlns:rdf="http://www.w3.org/1999/02/22-rdf-syntax-ns#"
   xmlns:svg="http://www.w3.org/2000/svg"
   xmlns="http://www.w3.org/2000/svg"
   xmlns:sodipodi="http://sodipodi.sourceforge.net/DTD/sodipodi-0.dtd"
   xmlns:inkscape="http://www.inkscape.org/namespaces/inkscape"
   version="1.1"
   id="Layer_1"
   x="0px"
   y="0px"
   viewBox="0 0 329.84525 330"
   xml:space="preserve"
   inkscape:version="0.48.4 r9939"
   width="100%"
   height="100%"
   sodipodi:docname="error.svg"><metadata
   id="metadata39"><rdf:RDF><cc:Work
       rdf:about=""><dc:format>image/svg+xml</dc:format><dc:type
         rdf:resource="http://purl.org/dc/dcmitype/StillImage" /></cc:Work></rdf:RDF></metadata><defs
   id="defs37" /><sodipodi:namedview
   pagecolor="#ffffff"
   bordercolor="#666666"
   borderopacity="1"
   objecttolerance="10"
   gridtolerance="10"
   guidetolerance="10"
   inkscape:pageopacity="0"
   inkscape:pageshadow="2"
   inkscape:window-width="1920"
   inkscape:window-height="1017"
   id="namedview35"
   showgrid="false"
   inkscape:zoom="0.7151515"
   inkscape:cx="63.068803"
   inkscape:cy="172.38525"
   inkscape:window-x="1912"
   inkscape:window-y="-8"
   inkscape:window-maximized="1"
   inkscape:current-layer="Layer_1"
   fit-margin-top="0"
   fit-margin-left="0"
   fit-margin-right="0"
   fit-margin-bottom="0" />
<path
   id="XMLID_29_"
   d="m 164.92275,0 c -44.074,0 -85.508,17.163 -116.672,48.327 -64.334,64.333 -64.334,169.011 -0.002,233.345 31.164,31.165 72.6,48.328 116.674,48.328 44.072,0 85.508,-17.163 116.672,-48.328 64.334,-64.334 64.334,-169.012 0,-233.345 C 250.43075,17.163 208.99475,0 164.92275,0 z m 74.246,239.245 c -2.93,2.929 -6.768,4.394 -10.607,4.394 -3.838,0 -7.678,-1.465 -10.605,-4.394 l -53.034,-53.032 -53.033,53.033 c -2.93,2.929 -6.768,4.394 -10.607,4.394 -3.838,0 -7.678,-1.465 -10.605,-4.394 -5.859,-5.857 -5.859,-15.355 0,-21.213 l 53.032,-53.033 -53.033,-53.033 c -5.859,-5.857 -5.859,-15.355 0,-21.213 5.857,-5.857 15.355,-5.857 21.213,0 l 53.033,53.033 53.031,-53.033 c 5.857,-5.857 15.355,-5.857 21.213,0 5.859,5.857 5.859,15.355 0,21.213 l -53.031,53.033 53.033,53.032 c 5.858,5.858 5.858,15.356 0,21.213 z"
   style="fill:#f44336;fill-opacity:1"
   inkscape:connector-curvature="0" />















</svg>