<?xml version="1.0" encoding="UTF-8" standalone="no"?>
<!-- Generator: Adobe Illustrator 19.0.0, SVG Export Plug-In . SVG Version: 6.00 Build 0)  -->

<svg
   xmlns:dc="http://purl.org/dc/elements/1.1/"
   xmlns:cc="http://creativecommons.org/ns#"
   xmlns:rdf="http://www.w3.org/1999/02/22-rdf-syntax-ns#"
   xmlns:svg="http://www.w3.org/2000/svg"
   xmlns="http://www.w3.org/2000/svg"
   xmlns:sodipodi="http://sodipodi.sourceforge.net/DTD/sodipodi-0.dtd"
   xmlns:inkscape="http://www.inkscape.org/namespaces/inkscape"
   version="1.1"
   id="Layer_1"
   x="0px"
   y="0px"
   viewBox="0 0 25 25"
   xml:space="preserve"
   inkscape:version="0.48.4 r9939"
   width="100%"
   height="100%"
   sodipodi:docname="warning.svg"><metadata
   id="metadata43"><rdf:RDF><cc:Work
       rdf:about=""><dc:format>image/svg+xml</dc:format><dc:type
         rdf:resource="http://purl.org/dc/dcmitype/StillImage" /></cc:Work></rdf:RDF></metadata><defs
   id="defs41" /><sodipodi:namedview
   pagecolor="#ffffff"
   bordercolor="#666666"
   borderopacity="1"
   objecttolerance="10"
   gridtolerance="10"
   guidetolerance="10"
   inkscape:pageopacity="0"
   inkscape:pageshadow="2"
   inkscape:window-width="1920"
   inkscape:window-height="1017"
   id="namedview39"
   showgrid="false"
   inkscape:zoom="7.375"
   inkscape:cx="16.409851"
   inkscape:cy="9.2955614"
   inkscape:window-x="1912"
   inkscape:window-y="-8"
   inkscape:window-maximized="1"
   inkscape:current-layer="Layer_1" />
<g
   id="g3"
   transform="matrix(0.04872938,0,0,0.04872938,0,0)"
   style="fill:#ff9800;fill-opacity:1">
	<g
   id="g5"
   style="fill:#ff9800;fill-opacity:1">
		<path
   d="M 507.494,426.066 282.864,53.537 c -5.677,-9.415 -15.87,-15.172 -26.865,-15.172 -10.995,0 -21.188,5.756 -26.865,15.172 L 4.506,426.066 c -5.842,9.689 -6.015,21.774 -0.451,31.625 5.564,9.852 16.001,15.944 27.315,15.944 h 449.259 c 11.314,0 21.751,-6.093 27.315,-15.944 5.564,-9.852 5.392,-21.936 -0.45,-31.625 z M 256.167,167.227 c 12.901,0 23.817,7.278 23.817,20.178 0,39.363 -4.631,95.929 -4.631,135.292 0,10.255 -11.247,14.554 -19.186,14.554 -10.584,0 -19.516,-4.3 -19.516,-14.554 0,-39.363 -4.63,-95.929 -4.63,-135.292 0,-12.9 10.584,-20.178 24.146,-20.178 z m 0.331,243.791 c -14.554,0 -25.471,-11.908 -25.471,-25.47 0,-13.893 10.916,-25.47 25.471,-25.47 13.562,0 25.14,11.577 25.14,25.47 0,13.562 -11.578,25.47 -25.14,25.47 z"
   id="path7"
   inkscape:connector-curvature="0"
   style="fill:#ff9800;fill-opacity:1" />
	</g>
</g>
<g
   id="g9"
   transform="matrix(0.04872938,0,0,0.04872938,0.08911231,1.3642384)">
</g>
<g
   id="g11"
   transform="matrix(0.04872938,0,0,0.04872938,0.08911231,1.3642384)">
</g>
<g
   id="g13"
   transform="matrix(0.04872938,0,0,0.04872938,0.08911231,1.3642384)">
</g>
<g
   id="g15"
   transform="matrix(0.04872938,0,0,0.04872938,0.08911231,1.3642384)">
</g>
<g
   id="g17"
   transform="matrix(0.04872938,0,0,0.04872938,0.08911231,1.3642384)">
</g>
<g
   id="g19"
   transform="matrix(0.04872938,0,0,0.04872938,0.08911231,1.3642384)">
</g>
<g
   id="g21"
   transform="matrix(0.04872938,0,0,0.04872938,0.08911231,1.3642384)">
</g>
<g
   id="g23"
   transform="matrix(0.04872938,0,0,0.04872938,0.08911231,1.3642384)">
</g>
<g
   id="g25"
   transform="matrix(0.04872938,0,0,0.04872938,0.08911231,1.3642384)">
</g>
<g
   id="g27"
   transform="matrix(0.04872938,0,0,0.04872938,0.08911231,1.3642384)">
</g>
<g
   id="g29"
   transform="matrix(0.04872938,0,0,0.04872938,0.08911231,1.3642384)">
</g>
<g
   id="g31"
   transform="matrix(0.04872938,0,0,0.04872938,0.08911231,1.3642384)">
</g>
<g
   id="g33"
   transform="matrix(0.04872938,0,0,0.04872938,0.08911231,1.3642384)">
</g>
<g
   id="g35"
   transform="matrix(0.04872938,0,0,0.04872938,0.08911231,1.3642384)">
</g>
<g
   id="g37"
   transform="matrix(0.04872938,0,0,0.04872938,0.08911231,1.3642384)">
</g>
</svg>