<?xml version="1.0" encoding="UTF-8" standalone="no"?>
<!-- Generator: Adobe Illustrator 19.0.0, SVG Export Plug-In . SVG Version: 6.00 Build 0)  -->

<svg
   version="1.1"
   id="Layer_1"
   x="0px"
   y="0px"
   viewBox="0 0 100 100"
   xml:space="preserve"
   inkscape:version="1.2.2 (b0a8486541, 2022-12-01)"
   width="32"
   height="32"
   sodipodi:docname="repeat-one.svg"
   xmlns:inkscape="http://www.inkscape.org/namespaces/inkscape"
   xmlns:sodipodi="http://sodipodi.sourceforge.net/DTD/sodipodi-0.dtd"
   xmlns="http://www.w3.org/2000/svg"
   xmlns:svg="http://www.w3.org/2000/svg"
   xmlns:rdf="http://www.w3.org/1999/02/22-rdf-syntax-ns#"
   xmlns:cc="http://creativecommons.org/ns#"
   xmlns:dc="http://purl.org/dc/elements/1.1/"><metadata
   id="metadata47"><rdf:RDF><cc:Work
       rdf:about=""><dc:format>image/svg+xml</dc:format><dc:type
         rdf:resource="http://purl.org/dc/dcmitype/StillImage" /><dc:title /></cc:Work></rdf:RDF></metadata><defs
   id="defs45">

</defs><sodipodi:namedview
   pagecolor="#ffffff"
   bordercolor="#666666"
   borderopacity="1"
   objecttolerance="10"
   gridtolerance="10"
   guidetolerance="10"
   inkscape:pageopacity="0"
   inkscape:pageshadow="2"
   inkscape:window-width="1920"
   inkscape:window-height="1021"
   id="namedview43"
   showgrid="false"
   inkscape:zoom="20.860505"
   inkscape:cx="20.133741"
   inkscape:cy="18.551804"
   inkscape:window-x="0"
   inkscape:window-y="30"
   inkscape:window-maximized="1"
   inkscape:current-layer="Layer_1"
   units="px"
   inkscape:showpageshadow="2"
   inkscape:pagecheckerboard="0"
   inkscape:deskcolor="#d1d1d1" />
















<g
   transform="matrix(0.18562296,0,0,0.18562296,2.4824685,2.4824685)"
   style="fill:#aaaabe;fill-opacity:1"
   id="g3">
	<g
   style="fill:#aaaabe;fill-opacity:1"
   id="g5">
		<g
   style="fill:#aaaabe;fill-opacity:1"
   id="g7">
			<path
   inkscape:connector-curvature="0"
   style="fill:#aaaabe;fill-opacity:1"
   id="path9"
   d="m 341.552,85.334 c -0.077,-0.001 -0.152,-0.012 -0.229,-0.012 H 222.159 L 249.741,57.74 c 8.331,-8.331 8.331,-21.839 0,-30.17 -8.331,-8.331 -21.839,-8.331 -30.17,0 l -64,64 c -0.497,0.497 -0.967,1.02 -1.413,1.563 -0.202,0.246 -0.378,0.506 -0.568,0.759 -0.228,0.304 -0.463,0.601 -0.674,0.917 -0.203,0.303 -0.379,0.618 -0.564,0.929 -0.171,0.286 -0.351,0.566 -0.509,0.861 -0.169,0.317 -0.313,0.643 -0.465,0.966 -0.145,0.308 -0.299,0.611 -0.43,0.926 -0.13,0.314 -0.235,0.635 -0.349,0.953 -0.122,0.338 -0.251,0.672 -0.356,1.018 -0.096,0.318 -0.167,0.642 -0.248,0.964 -0.089,0.353 -0.188,0.701 -0.259,1.061 -0.074,0.372 -0.118,0.748 -0.171,1.122 -0.045,0.314 -0.104,0.622 -0.136,0.94 -0.068,0.693 -0.105,1.388 -0.105,2.084 0,0.007 -0.001,0.014 -0.001,0.021 0,0.008 0.001,0.015 0.001,0.023 10e-4,0.695 0.037,1.39 0.105,2.082 0.031,0.318 0.091,0.627 0.136,0.941 0.054,0.375 0.097,0.75 0.171,1.122 0.071,0.36 0.17,0.708 0.259,1.061 0.081,0.322 0.151,0.645 0.248,0.963 0.105,0.346 0.235,0.68 0.356,1.019 0.114,0.318 0.219,0.638 0.348,0.951 0.131,0.316 0.285,0.619 0.43,0.927 0.152,0.323 0.296,0.649 0.465,0.965 0.158,0.295 0.338,0.576 0.51,0.862 0.185,0.31 0.361,0.625 0.564,0.928 0.212,0.317 0.448,0.615 0.676,0.919 0.189,0.252 0.364,0.512 0.566,0.757 0.446,0.544 0.916,1.067 1.413,1.564 l 64,64 c 8.331,8.331 21.839,8.331 30.17,0 8.331,-8.331 8.331,-21.839 0,-30.17 l -27.582,-27.582 h 118.984 c 0.057,0 0.112,0.009 0.169,0.009 70.778,0 128,57.222 128,128 0,31.068 -12.408,60.299 -34.121,82.031 -8.328,8.335 -8.322,21.842 0.013,30.17 8.335,8.328 21.842,8.322 30.17,-0.013 29.612,-29.637 46.605,-69.67 46.605,-112.188 0,-94.259 -76.196,-170.531 -170.427,-170.661 z" />
			<path
   inkscape:connector-curvature="0"
   style="fill:#aaaabe;fill-opacity:1"
   id="path11"
   d="m 358.39,418.083 c 0.227,-0.303 0.462,-0.6 0.673,-0.915 0.203,-0.304 0.379,-0.619 0.565,-0.931 0.171,-0.286 0.35,-0.565 0.507,-0.859 0.17,-0.318 0.314,-0.645 0.467,-0.97 0.145,-0.306 0.298,-0.608 0.428,-0.922 0.13,-0.315 0.236,-0.637 0.35,-0.957 0.121,-0.337 0.25,-0.669 0.354,-1.013 0.097,-0.32 0.168,-0.646 0.249,-0.969 0.089,-0.351 0.187,-0.698 0.258,-1.055 0.074,-0.375 0.118,-0.753 0.173,-1.13 0.044,-0.311 0.104,-0.617 0.135,-0.932 0.138,-1.4 0.138,-2.811 0,-4.211 -0.031,-0.316 -0.09,-0.622 -0.135,-0.933 -0.054,-0.377 -0.098,-0.755 -0.172,-1.13 -0.071,-0.358 -0.169,-0.705 -0.258,-1.056 -0.081,-0.323 -0.152,-0.648 -0.249,-0.968 -0.104,-0.345 -0.234,-0.677 -0.355,-1.014 -0.115,-0.32 -0.22,-0.642 -0.35,-0.957 -0.13,-0.314 -0.283,-0.615 -0.428,-0.921 -0.153,-0.325 -0.297,-0.653 -0.468,-0.971 -0.157,-0.293 -0.336,-0.572 -0.506,-0.857 -0.186,-0.312 -0.363,-0.628 -0.566,-0.932 -0.211,-0.315 -0.445,-0.611 -0.671,-0.913 -0.191,-0.255 -0.368,-0.516 -0.571,-0.764 -0.439,-0.535 -0.903,-1.05 -1.392,-1.54 -0.007,-0.008 -0.014,-0.016 -0.021,-0.023 l -64,-64 c -8.331,-8.331 -21.839,-8.331 -30.17,0 -8.331,8.331 -8.331,21.839 0,30.17 l 27.582,27.582 H 170.836 c -0.057,0 -0.112,-0.009 -0.169,-0.009 -70.778,0 -128,-57.222 -128,-128 0,-31.068 12.408,-60.299 34.121,-82.031 8.328,-8.335 8.322,-21.842 -0.013,-30.17 -8.335,-8.328 -21.842,-8.322 -30.17,0.013 C 16.993,173.43 0,213.463 0,255.981 c 0,94.262 76.196,170.534 170.427,170.664 0.077,0.001 0.152,0.012 0.229,0.012 h 119.163 l -27.582,27.582 c -8.331,8.331 -8.331,21.839 0,30.17 8.331,8.331 21.839,8.331 30.17,0 l 64,-64 c 0.004,-0.004 0.007,-0.008 0.011,-0.012 0.492,-0.493 0.959,-1.012 1.402,-1.551 0.204,-0.249 0.38,-0.509 0.57,-0.763 z" />
		</g>
	</g>
</g><circle
   id="path3001"
   style="fill:#56d45b;fill-opacity:1;stroke:#9696aa;stroke-width:6.70224;stroke-miterlimit:4;stroke-dasharray:none;stroke-dashoffset:0;stroke-opacity:1"
   cx="49.999996"
   cy="49.999996"
   r="29.301336" /><text
   id="text3771"
   y="61.383152"
   x="40.51672"
   style="font-style:normal;font-variant:normal;font-weight:normal;font-stretch:normal;font-size:22.3903px;line-height:0%;font-family:'MV Boli';-inkscape-font-specification:'MV Boli';letter-spacing:0px;word-spacing:0px;fill:#000000;fill-opacity:1;stroke:none;stroke-width:1.86585"
   xml:space="preserve"><tspan
     style="font-style:normal;font-variant:normal;font-weight:bold;font-stretch:normal;font-size:44.7805px;line-height:125%;font-family:Akaash;-inkscape-font-specification:'Akaash Bold';font-variant-ligatures:normal;font-variant-caps:normal;font-variant-numeric:normal;font-feature-settings:normal;text-align:start;writing-mode:lr-tb;text-anchor:start;stroke-width:1.86585"
     y="61.383152"
     x="40.51672"
     id="tspan3773"
     sodipodi:role="line">1</tspan></text>




</svg>
