<?xml version="1.0" encoding="UTF-8" standalone="no"?>
<!-- Created with Inkscape (http://www.inkscape.org/) -->

<svg
   xmlns:dc="http://purl.org/dc/elements/1.1/"
   xmlns:cc="http://creativecommons.org/ns#"
   xmlns:rdf="http://www.w3.org/1999/02/22-rdf-syntax-ns#"
   xmlns:svg="http://www.w3.org/2000/svg"
   xmlns="http://www.w3.org/2000/svg"
   xmlns:sodipodi="http://sodipodi.sourceforge.net/DTD/sodipodi-0.dtd"
   xmlns:inkscape="http://www.inkscape.org/namespaces/inkscape"
   width="99.891998"
   height="99.891998"
   id="svg2"
   version="1.1"
   inkscape:version="0.92.4 5da689c313, 2019-01-14"
   sodipodi:docname="artist.svg">
  <defs
     id="defs4" />
  <sodipodi:namedview
     id="base"
     pagecolor="#ffffff"
     bordercolor="#666666"
     borderopacity="1.0"
     inkscape:pageopacity="0.0"
     inkscape:pageshadow="2"
     inkscape:zoom="4"
     inkscape:cx="-26.618444"
     inkscape:cy="62.135013"
     inkscape:document-units="px"
     inkscape:current-layer="layer1"
     showgrid="false"
     fit-margin-top="0"
     fit-margin-left="0"
     fit-margin-right="0"
     fit-margin-bottom="0"
     inkscape:window-width="1920"
     inkscape:window-height="1013"
     inkscape:window-x="0"
     inkscape:window-y="0"
     inkscape:window-maximized="1" />
  <metadata
     id="metadata7">
    <rdf:RDF>
      <cc:Work
         rdf:about="">
        <dc:format>image/svg+xml</dc:format>
        <dc:type
           rdf:resource="http://purl.org/dc/dcmitype/StillImage" />
        <dc:title />
      </cc:Work>
    </rdf:RDF>
  </metadata>
  <g
     inkscape:label="Layer 1"
     inkscape:groupmode="layer"
     id="layer1"
     transform="translate(-438.62543,-476.7019)">
    <path
       inkscape:connector-curvature="0"
       id="path2"
       d="m 488.57143,488.3269 c -21.13003,0 -38.321,17.19097 -38.321,38.321 0,21.13003 17.19097,38.321 38.321,38.321 21.13003,0 38.321,-17.19097 38.321,-38.321 0,-21.13003 -17.19021,-38.321 -38.321,-38.321 z m 0,75.10827 c -20.28375,0 -36.7865,-16.50275 -36.7865,-36.78727 0,-20.28452 16.50275,-36.7865 36.7865,-36.7865 20.28375,0 36.7865,16.50275 36.7865,36.7865 0,20.28375 -16.50198,36.78727 -36.7865,36.78727 z"
       style="fill:#aaaabe;fill-opacity:1;stroke-width:0.76724863" />
    <g
       id="background"
       transform="matrix(0.76724863,0,0,0.76724863,-104.57686,25.511562)"
       style="fill:#aaaabe;fill-opacity:1" />
    <g
       id="design"
       transform="matrix(0.76724863,0,0,0.76724863,-104.57686,25.511562)"
       style="fill:#aaaabe;fill-opacity:1" />
    <path
       style="fill:#aaaabe;fill-opacity:1;stroke-width:1.03880847"
       sodipodi:nodetypes="cccscccsscccscccssccsccccccscccccsscccccsccccssccccccsccc"
       inkscape:connector-curvature="0"
       d="m 512.46402,556.46125 c 0,-3.57143 -1.98516,-6.78342 -5.1795,-8.38111 l -9.92374,-4.96135 c -0.93596,-0.46851 -1.51769,-1.40967 -1.51769,-2.45679 v -3.51221 c 0.23789,-0.29086 0.48824,-0.62224 0.7469,-0.9879 1.28708,-1.81792 2.31862,-3.84151 3.06864,-6.02405 1.46576,-0.67211 2.41731,-2.12125 2.41731,-3.75737 v -4.15524 c 0,-1.00037 -0.37397,-1.96958 -1.03881,-2.72687 v -5.52542 c 0.0582,-0.57135 0.28671,-3.97241 -2.17319,-6.77823 -2.13371,-2.43393 -5.59606,-3.66803 -10.29251,-3.66803 -4.69646,0 -8.15881,1.2341 -10.29252,3.66699 -2.4599,2.80582 -2.23136,6.20792 -2.17318,6.77927 v 5.52542 c -0.66484,0.75729 -1.03881,1.7265 -1.03881,2.72687 v 4.15524 c 0,1.26422 0.57446,2.44327 1.5551,3.22965 0.95155,3.76776 2.94294,6.60682 3.63894,7.51786 v 3.43742 c 0,1.00556 -0.54849,1.92803 -1.43044,2.41003 l -9.26721,5.05485 c -3.01358,1.64443 -4.88448,4.79617 -4.88448,8.2284 m 2.07762,0 c 0,-2.67078 1.45641,-5.12548 3.801,-6.40322 l 9.26721,-5.05484 c 1.55094,-0.84663 2.51392,-2.47029 2.51392,-4.23522 v -4.17498 l -0.24205,-0.28878 c -0.0249,-0.0302 -2.57105,-3.1102 -3.54234,-7.33919 l -0.0945,-0.41137 -0.35424,-0.22853 c -0.60147,-0.38852 -0.96089,-1.03985 -0.96089,-1.74208 v -4.15524 c 0,-0.58277 0.24723,-1.12606 0.696,-1.53224 l 0.3428,-0.30852 v -6.46971 l -0.009,-0.13608 c -0.003,-0.0281 -0.35631,-2.90762 1.6673,-5.21586 1.7213,-1.96335 4.65905,-2.95852 8.73014,-2.95852 4.05655,0 6.98806,0.9879 8.71145,2.93774 2.02256,2.28642 1.68806,5.21171 1.68598,5.23664 l -0.009,6.60579 0.34281,0.30956 c 0.44876,0.40514 0.696,0.94843 0.696,1.5312 v 4.15524 c 0,0.90688 -0.5942,1.70053 -1.47719,1.97269 l -0.51732,0.15894 -0.16621,0.51421 c -0.69496,2.16176 -1.68495,4.15835 -2.94398,5.93471 -0.30853,0.43734 -0.60875,0.82482 -0.86949,1.12088 l -0.25866,0.29502 v 4.28508 c 0,1.8387 1.02115,3.49144 2.66558,4.31418 l 9.92373,4.96134 c 2.48692,1.24346 4.03162,3.74284 4.03162,6.52373"
       id="path959" />
    <g
       style="fill:#aaaabe;fill-opacity:1"
       id="g961"
       transform="matrix(1.0388085,0,0,1.0388085,445.47903,503.52668)" />
    <g
       style="fill:#aaaabe;fill-opacity:1"
       id="g963"
       transform="matrix(1.0388085,0,0,1.0388085,445.47903,503.52668)" />
    <g
       style="fill:#aaaabe;fill-opacity:1"
       id="g965"
       transform="matrix(1.0388085,0,0,1.0388085,445.47903,503.52668)" />
    <g
       style="fill:#aaaabe;fill-opacity:1"
       id="g967"
       transform="matrix(1.0388085,0,0,1.0388085,445.47903,503.52668)" />
    <g
       style="fill:#aaaabe;fill-opacity:1"
       id="g969"
       transform="matrix(1.0388085,0,0,1.0388085,445.47903,503.52668)" />
    <g
       style="fill:#aaaabe;fill-opacity:1"
       id="g971"
       transform="matrix(1.0388085,0,0,1.0388085,445.47903,503.52668)" />
    <g
       style="fill:#aaaabe;fill-opacity:1"
       id="g973"
       transform="matrix(1.0388085,0,0,1.0388085,445.47903,503.52668)" />
    <g
       style="fill:#aaaabe;fill-opacity:1"
       id="g975"
       transform="matrix(1.0388085,0,0,1.0388085,445.47903,503.52668)" />
    <g
       style="fill:#aaaabe;fill-opacity:1"
       id="g977"
       transform="matrix(1.0388085,0,0,1.0388085,445.47903,503.52668)" />
    <g
       style="fill:#aaaabe;fill-opacity:1"
       id="g979"
       transform="matrix(1.0388085,0,0,1.0388085,445.47903,503.52668)" />
    <g
       style="fill:#aaaabe;fill-opacity:1"
       id="g981"
       transform="matrix(1.0388085,0,0,1.0388085,445.47903,503.52668)" />
    <g
       style="fill:#aaaabe;fill-opacity:1"
       id="g983"
       transform="matrix(1.0388085,0,0,1.0388085,445.47903,503.52668)" />
    <g
       style="fill:#aaaabe;fill-opacity:1"
       id="g985"
       transform="matrix(1.0388085,0,0,1.0388085,445.47903,503.52668)" />
    <g
       style="fill:#aaaabe;fill-opacity:1"
       id="g987"
       transform="matrix(1.0388085,0,0,1.0388085,445.47903,503.52668)" />
    <g
       style="fill:#aaaabe;fill-opacity:1"
       id="g989"
       transform="matrix(1.0388085,0,0,1.0388085,445.47903,503.52668)" />
    <g
       style="fill:#aaaabe;fill-opacity:1"
       transform="matrix(0.76724863,0,0,0.76724863,555.37511,437.14552)"
       id="g1392" />
    <g
       style="fill:#aaaabe;fill-opacity:1"
       transform="matrix(0.76724863,0,0,0.76724863,555.37511,437.14552)"
       id="g1394" />
    <g
       style="fill:#aaaabe;fill-opacity:1"
       transform="matrix(0.76724863,0,0,0.76724863,555.37511,437.14552)"
       id="g1396" />
    <g
       style="fill:#aaaabe;fill-opacity:1"
       transform="matrix(0.76724863,0,0,0.76724863,555.37511,437.14552)"
       id="g1398" />
    <g
       style="fill:#aaaabe;fill-opacity:1"
       transform="matrix(0.76724863,0,0,0.76724863,555.37511,437.14552)"
       id="g1400" />
    <g
       style="fill:#aaaabe;fill-opacity:1"
       transform="matrix(0.76724863,0,0,0.76724863,555.37511,437.14552)"
       id="g1402" />
    <g
       style="fill:#aaaabe;fill-opacity:1"
       transform="matrix(0.76724863,0,0,0.76724863,555.37511,437.14552)"
       id="g1404" />
    <g
       style="fill:#aaaabe;fill-opacity:1"
       transform="matrix(0.76724863,0,0,0.76724863,555.37511,437.14552)"
       id="g1406" />
    <g
       style="fill:#aaaabe;fill-opacity:1"
       transform="matrix(0.76724863,0,0,0.76724863,555.37511,437.14552)"
       id="g1408" />
    <g
       style="fill:#aaaabe;fill-opacity:1"
       transform="matrix(0.76724863,0,0,0.76724863,555.37511,437.14552)"
       id="g1410" />
    <g
       style="fill:#aaaabe;fill-opacity:1"
       transform="matrix(0.76724863,0,0,0.76724863,555.37511,437.14552)"
       id="g1412" />
    <g
       style="fill:#aaaabe;fill-opacity:1"
       transform="matrix(0.76724863,0,0,0.76724863,555.37511,437.14552)"
       id="g1414" />
    <g
       style="fill:#aaaabe;fill-opacity:1"
       transform="matrix(0.76724863,0,0,0.76724863,555.37511,437.14552)"
       id="g1416" />
    <g
       style="fill:#aaaabe;fill-opacity:1"
       transform="matrix(0.76724863,0,0,0.76724863,555.37511,437.14552)"
       id="g1418" />
    <g
       style="fill:#aaaabe;fill-opacity:1"
       transform="matrix(0.76724863,0,0,0.76724863,555.37511,437.14552)"
       id="g1420" />
    <path
       style="fill:#7d7d91;fill-opacity:1;stroke-width:0.0926737"
       id="path1479"
       d="m 505.86729,515.86797 h -0.82363 v -2.6695 c 0,-7.37183 -7.37462,-13.34752 -16.47224,-13.34752 -9.09761,0 -16.47223,5.97569 -16.47223,13.34752 v 2.6695 h -0.82361 c -2.26987,0 -4.11806,1.49759 -4.11806,3.33688 v 8.00851 c 0,1.83929 1.84819,3.33688 4.11806,3.33688 h 2.47083 v -17.35177 c 0,-6.63505 6.63667,-12.01277 14.82501,-12.01277 8.18836,0 14.82503,5.37772 14.82503,12.01277 v 17.35177 h 2.47084 c 2.27151,0 4.11805,-1.49759 4.11805,-3.33688 v -8.00851 c 0,-1.83929 -1.84654,-3.33688 -4.11805,-3.33688 z m -33.7681,13.34752 h -0.82361 c -1.36226,0 -2.47084,-0.89829 -2.47084,-2.00213 v -8.00851 c 0,-1.10384 1.10858,-2.00213 2.47084,-2.00213 h 0.82361 z m 36.23893,-2.00213 c 0,1.10384 -1.10858,2.00213 -2.47083,2.00213 h -0.82363 v -12.01277 h 0.82363 c 1.36225,0 2.47083,0.89829 2.47083,2.00213 z"
       inkscape:connector-curvature="0" />
    <g
       style="fill:#aaaabe;fill-opacity:1"
       transform="matrix(0.76724863,0,0,0.76724863,597.11729,543.71809)"
       id="g1485" />
    <g
       style="fill:#aaaabe;fill-opacity:1"
       transform="matrix(0.76724863,0,0,0.76724863,597.11729,543.71809)"
       id="g1487" />
    <g
       style="fill:#aaaabe;fill-opacity:1"
       transform="matrix(0.76724863,0,0,0.76724863,597.11729,543.71809)"
       id="g1489" />
    <g
       style="fill:#aaaabe;fill-opacity:1"
       transform="matrix(0.76724863,0,0,0.76724863,597.11729,543.71809)"
       id="g1491" />
    <g
       style="fill:#aaaabe;fill-opacity:1"
       transform="matrix(0.76724863,0,0,0.76724863,597.11729,543.71809)"
       id="g1493" />
    <g
       style="fill:#aaaabe;fill-opacity:1"
       transform="matrix(0.76724863,0,0,0.76724863,597.11729,543.71809)"
       id="g1495" />
    <g
       style="fill:#aaaabe;fill-opacity:1"
       transform="matrix(0.76724863,0,0,0.76724863,597.11729,543.71809)"
       id="g1497" />
    <g
       style="fill:#aaaabe;fill-opacity:1"
       transform="matrix(0.76724863,0,0,0.76724863,597.11729,543.71809)"
       id="g1499" />
    <g
       style="fill:#aaaabe;fill-opacity:1"
       transform="matrix(0.76724863,0,0,0.76724863,597.11729,543.71809)"
       id="g1501" />
    <g
       style="fill:#aaaabe;fill-opacity:1"
       transform="matrix(0.76724863,0,0,0.76724863,597.11729,543.71809)"
       id="g1503" />
    <g
       style="fill:#aaaabe;fill-opacity:1"
       transform="matrix(0.76724863,0,0,0.76724863,597.11729,543.71809)"
       id="g1505" />
    <g
       style="fill:#aaaabe;fill-opacity:1"
       transform="matrix(0.76724863,0,0,0.76724863,597.11729,543.71809)"
       id="g1507" />
    <g
       style="fill:#aaaabe;fill-opacity:1"
       transform="matrix(0.76724863,0,0,0.76724863,597.11729,543.71809)"
       id="g1509" />
    <g
       style="fill:#aaaabe;fill-opacity:1"
       transform="matrix(0.76724863,0,0,0.76724863,597.11729,543.71809)"
       id="g1511" />
    <g
       style="fill:#aaaabe;fill-opacity:1"
       transform="matrix(0.76724863,0,0,0.76724863,597.11729,543.71809)"
       id="g1513" />
    <g
       id="g1034"
       transform="matrix(0.14125627,0,0,0.14125627,431.22798,480.41563)" />
    <g
       id="g1036"
       transform="matrix(0.14125627,0,0,0.14125627,431.22798,480.41563)" />
    <g
       id="g1038"
       transform="matrix(0.14125627,0,0,0.14125627,431.22798,480.41563)" />
    <g
       id="g1040"
       transform="matrix(0.14125627,0,0,0.14125627,431.22798,480.41563)" />
    <g
       id="g1042"
       transform="matrix(0.14125627,0,0,0.14125627,431.22798,480.41563)" />
    <g
       id="g1044"
       transform="matrix(0.14125627,0,0,0.14125627,431.22798,480.41563)" />
    <g
       id="g1046"
       transform="matrix(0.14125627,0,0,0.14125627,431.22798,480.41563)" />
    <g
       id="g1048"
       transform="matrix(0.14125627,0,0,0.14125627,431.22798,480.41563)" />
    <g
       id="g1050"
       transform="matrix(0.14125627,0,0,0.14125627,431.22798,480.41563)" />
    <g
       id="g1052"
       transform="matrix(0.14125627,0,0,0.14125627,431.22798,480.41563)" />
    <g
       id="g1054"
       transform="matrix(0.14125627,0,0,0.14125627,431.22798,480.41563)" />
    <g
       id="g1056"
       transform="matrix(0.14125627,0,0,0.14125627,431.22798,480.41563)" />
    <g
       id="g1058"
       transform="matrix(0.14125627,0,0,0.14125627,431.22798,480.41563)" />
    <g
       id="g1060"
       transform="matrix(0.14125627,0,0,0.14125627,431.22798,480.41563)" />
    <g
       id="g1062"
       transform="matrix(0.14125627,0,0,0.14125627,431.22798,480.41563)" />
    <g
       id="g1291"
       transform="matrix(0.76724863,0,0,0.76724863,260.58552,305.11239)" />
    <g
       id="g1293"
       transform="matrix(0.76724863,0,0,0.76724863,260.58552,305.11239)" />
    <g
       id="g1295"
       transform="matrix(0.76724863,0,0,0.76724863,260.58552,305.11239)" />
    <g
       id="g1297"
       transform="matrix(0.76724863,0,0,0.76724863,260.58552,305.11239)" />
    <g
       id="g1299"
       transform="matrix(0.76724863,0,0,0.76724863,260.58552,305.11239)" />
    <g
       id="g1301"
       transform="matrix(0.76724863,0,0,0.76724863,260.58552,305.11239)" />
    <g
       id="g1303"
       transform="matrix(0.76724863,0,0,0.76724863,260.58552,305.11239)" />
    <g
       id="g1305"
       transform="matrix(0.76724863,0,0,0.76724863,260.58552,305.11239)" />
    <g
       id="g1307"
       transform="matrix(0.76724863,0,0,0.76724863,260.58552,305.11239)" />
    <g
       id="g1309"
       transform="matrix(0.76724863,0,0,0.76724863,260.58552,305.11239)" />
    <g
       id="g1311"
       transform="matrix(0.76724863,0,0,0.76724863,260.58552,305.11239)" />
    <g
       id="g1313"
       transform="matrix(0.76724863,0,0,0.76724863,260.58552,305.11239)" />
    <g
       id="g1315"
       transform="matrix(0.76724863,0,0,0.76724863,260.58552,305.11239)" />
    <g
       id="g1317"
       transform="matrix(0.76724863,0,0,0.76724863,260.58552,305.11239)" />
    <g
       id="g1319"
       transform="matrix(0.76724863,0,0,0.76724863,260.58552,305.11239)" />
  </g>
</svg>
