<?xml version="1.0" encoding="UTF-8" standalone="no"?>
<svg
   xmlns:osb="http://www.openswatchbook.org/uri/2009/osb"
   xmlns:dc="http://purl.org/dc/elements/1.1/"
   xmlns:cc="http://creativecommons.org/ns#"
   xmlns:rdf="http://www.w3.org/1999/02/22-rdf-syntax-ns#"
   xmlns:svg="http://www.w3.org/2000/svg"
   xmlns="http://www.w3.org/2000/svg"
   xmlns:xlink="http://www.w3.org/1999/xlink"
   xmlns:sodipodi="http://sodipodi.sourceforge.net/DTD/sodipodi-0.dtd"
   xmlns:inkscape="http://www.inkscape.org/namespaces/inkscape"
   height="32"
   viewBox="0 -23 23.999999 23.999999"
   width="32"
   version="1.1"
   id="svg24"
   sodipodi:docname="collection.svg"
   inkscape:version="0.92.4 5da689c313, 2019-01-14">
  <metadata
     id="metadata30">
    <rdf:RDF>
      <cc:Work
         rdf:about="">
        <dc:format>image/svg+xml</dc:format>
        <dc:type
           rdf:resource="http://purl.org/dc/dcmitype/StillImage" />
        <dc:title></dc:title>
      </cc:Work>
    </rdf:RDF>
  </metadata>
  <defs
     id="defs28">
    <linearGradient
       id="linearGradient4940"
       osb:paint="solid">
      <stop
         style="stop-color:#aaaabe;stop-opacity:1;"
         offset="0"
         id="stop4938" />
    </linearGradient>
    <linearGradient
       id="linearGradient4780"
       osb:paint="solid">
      <stop
         style="stop-color:#aaaabe;stop-opacity:1;"
         offset="0"
         id="stop4778" />
    </linearGradient>
    <linearGradient
       inkscape:collect="always"
       xlink:href="#linearGradient4940"
       id="linearGradient4942"
       x1="0"
       y1="309.9043"
       x2="110.02344"
       y2="309.9043"
       gradientUnits="userSpaceOnUse" />
    <linearGradient
       inkscape:collect="always"
       xlink:href="#linearGradient4940"
       id="linearGradient4944"
       x1="0"
       y1="435.78711"
       x2="110.02344"
       y2="435.78711"
       gradientUnits="userSpaceOnUse" />
    <linearGradient
       inkscape:collect="always"
       xlink:href="#linearGradient4940"
       id="linearGradient4946"
       x1="0"
       y1="37.916016"
       x2="110.02344"
       y2="37.916016"
       gradientUnits="userSpaceOnUse" />
    <linearGradient
       inkscape:collect="always"
       xlink:href="#linearGradient4940"
       id="linearGradient4948"
       x1="0"
       y1="154.86523"
       x2="110.02344"
       y2="154.86523"
       gradientUnits="userSpaceOnUse" />
    <linearGradient
       inkscape:collect="always"
       xlink:href="#linearGradient4940"
       id="linearGradient4950"
       x1="140.02344"
       y1="309.9043"
       x2="250.05078"
       y2="309.9043"
       gradientUnits="userSpaceOnUse" />
    <linearGradient
       inkscape:collect="always"
       xlink:href="#linearGradient4940"
       id="linearGradient4952"
       x1="140.02344"
       y1="154.86523"
       x2="250.05078"
       y2="154.86523"
       gradientUnits="userSpaceOnUse" />
    <linearGradient
       inkscape:collect="always"
       xlink:href="#linearGradient4940"
       id="linearGradient4954"
       x1="140.02344"
       y1="435.78711"
       x2="250.05078"
       y2="435.78711"
       gradientUnits="userSpaceOnUse" />
    <linearGradient
       inkscape:collect="always"
       xlink:href="#linearGradient4940"
       id="linearGradient4956"
       x1="140.02344"
       y1="45.560547"
       x2="363.79297"
       y2="45.560547"
       gradientUnits="userSpaceOnUse" />
    <linearGradient
       inkscape:collect="always"
       xlink:href="#linearGradient4940"
       id="linearGradient4958"
       x1="266.375"
       y1="147.46094"
       x2="414.92188"
       y2="147.46094"
       gradientUnits="userSpaceOnUse" />
    <linearGradient
       inkscape:collect="always"
       xlink:href="#linearGradient4940"
       id="linearGradient4960"
       x1="316.76953"
       y1="293.46484"
       x2="479.11328"
       y2="293.46484"
       gradientUnits="userSpaceOnUse" />
    <linearGradient
       inkscape:collect="always"
       xlink:href="#linearGradient4940"
       id="linearGradient4962"
       x1="380.8125"
       y1="416.85742"
       x2="512"
       y2="416.85742"
       gradientUnits="userSpaceOnUse" />
  </defs>
  <sodipodi:namedview
     pagecolor="#ffffff"
     bordercolor="#666666"
     borderopacity="1"
     objecttolerance="10"
     gridtolerance="10"
     guidetolerance="10"
     inkscape:pageopacity="0"
     inkscape:pageshadow="2"
     inkscape:window-width="1920"
     inkscape:window-height="1013"
     id="namedview26"
     showgrid="false"
     inkscape:zoom="5.53125"
     inkscape:cx="0.66908078"
     inkscape:cy="3.7676273"
     inkscape:window-x="0"
     inkscape:window-y="0"
     inkscape:window-maximized="1"
     inkscape:current-layer="svg24"
     units="px" />
  <g
     id="g4975"
     transform="matrix(0.03750582,0,0,0.03750582,2.3985106,-19.739368)">
    <path
       style="fill:url(#linearGradient4942);fill-opacity:1;stroke:none"
       id="path2"
       d="M 0,244.03125 H 110.02344 V 375.77734 H 0 Z m 0,0"
       inkscape:connector-curvature="0" />
    <path
       style="fill:url(#linearGradient4944);fill-opacity:1;stroke:none"
       id="path4"
       d="m 0,405.54687 h 110.02344 v 60.48047 H 0 Z m 0,0"
       inkscape:connector-curvature="0" />
    <path
       style="fill:url(#linearGradient4946);fill-opacity:1;stroke:none"
       id="path6"
       d="M 0,10.132812 H 110.02344 V 65.699219 H 0 Z m 0,0"
       inkscape:connector-curvature="0" />
    <path
       style="fill:url(#linearGradient4948);fill-opacity:1;stroke:none"
       id="path8"
       d="M 110.02344,95.46875 H 0 v 118.79297 h 110.02344 z m -55.578128,92.34766 c -14.027343,0 -23.824218,-14.4961 -23.824218,-35.25782 0,-20.76172 9.796875,-35.26171 23.824218,-35.26171 14.027344,0 23.828126,14.49999 23.828126,35.26171 0,20.76172 -9.796876,35.25782 -23.828126,35.25782 z m 0,0"
       inkscape:connector-curvature="0" />
    <path
       style="fill:url(#linearGradient4950);fill-opacity:1;stroke:none"
       id="path10"
       d="M 140.02344,244.03125 H 250.05078 V 375.77734 H 140.02344 Z m 0,0"
       inkscape:connector-curvature="0" />
    <path
       style="fill:url(#linearGradient4952);fill-opacity:1;stroke:none"
       id="path12"
       d="M 140.02344,95.46875 V 214.26172 H 250.05078 V 95.46875 Z m 55.07422,92.34766 c -14.03125,0 -23.82813,-14.4961 -23.82813,-35.25782 0,-20.76172 9.79688,-35.26171 23.82813,-35.26171 14.02734,0 23.82421,14.49999 23.82421,35.26171 0,20.76172 -9.79687,35.25782 -23.82421,35.25782 z m 0,0"
       inkscape:connector-curvature="0" />
    <path
       style="fill:url(#linearGradient4954);fill-opacity:1;stroke:none"
       id="path14"
       d="m 140.02344,405.54687 h 110.02734 v 60.48047 H 140.02344 Z m 0,0"
       inkscape:connector-curvature="0" />
    <path
       style="fill:url(#linearGradient4956);fill-opacity:1;stroke:none"
       id="path16"
       d="M 245.42578,65.699219 255.45312,91.121094 256,90.902344 363.79297,48.34375 344.72266,0 250.05078,35.789062 V 10.132812 H 140.02344 v 55.566407 z m 0,0"
       inkscape:connector-curvature="0" />
    <path
       style="fill:url(#linearGradient4958);fill-opacity:1;stroke:none"
       id="path18"
       d="M 374.71484,76.035156 266.375,118.80859 305.84766,218.88672 414.92187,177.98047 Z m -7.47656,83.175784 c -0.75,14.64062 -9.60937,19.55078 -13.38281,20.98047 -1.46485,0.55468 -3.85938,1.23046 -6.83594,1.23046 -4.67969,0 -10.81641,-1.66406 -17.09375,-8.05859 -4.41797,-4.5 -8.16797,-10.61719 -10.85156,-17.69141 -2.6836,-7.07031 -3.92969,-14.14062 -3.60938,-20.4375 0.75,-14.63671 9.60938,-19.54687 13.38282,-20.98046 3.77343,-1.42969 13.66406,-3.63282 23.92968,6.82812 4.41797,4.50391 8.17188,10.61719 10.85157,17.69141 2.68359,7.07422 3.92968,14.14062 3.60937,20.4375 z m 0,0"
       inkscape:connector-curvature="0" />
    <path
       style="fill:url(#linearGradient4960);fill-opacity:1;stroke:none"
       id="path20"
       d="M 425.84766,205.67969 316.76953,246.58203 369.88672,381.25 479.11328,340.72266 Z m 0,0"
       inkscape:connector-curvature="0" />
    <path
       style="fill:url(#linearGradient4962);fill-opacity:1;stroke:none"
       id="path22"
       d="M 490.03516,368.41797 380.8125,408.94922 403.03516,465.29687 512,424.10156 Z m 0,0"
       inkscape:connector-curvature="0" />
  </g>
</svg>
