<?xml version="1.0" encoding="UTF-8" standalone="no"?>
<!-- Generator: Adobe Illustrator 19.0.0, SVG Export Plug-In . SVG Version: 6.00 Build 0)  -->

<svg
   xmlns:dc="http://purl.org/dc/elements/1.1/"
   xmlns:cc="http://creativecommons.org/ns#"
   xmlns:rdf="http://www.w3.org/1999/02/22-rdf-syntax-ns#"
   xmlns:svg="http://www.w3.org/2000/svg"
   xmlns="http://www.w3.org/2000/svg"
   xmlns:sodipodi="http://sodipodi.sourceforge.net/DTD/sodipodi-0.dtd"
   xmlns:inkscape="http://www.inkscape.org/namespaces/inkscape"
   version="1.1"
   id="Layer_1"
   x="0px"
   y="0px"
   viewBox="0 0 493 493"
   style="enable-background:new 0 0 493 493;"
   xml:space="preserve"
   width="512"
   height="512"
   sodipodi:docname="label.svg"
   inkscape:version="0.92.4 5da689c313, 2019-01-14"><metadata
   id="metadata17"><rdf:RDF><cc:Work
       rdf:about=""><dc:format>image/svg+xml</dc:format><dc:type
         rdf:resource="http://purl.org/dc/dcmitype/StillImage" /><dc:title /></cc:Work></rdf:RDF></metadata><defs
   id="defs15">
	
	
	
	
</defs><sodipodi:namedview
   pagecolor="#ffffff"
   bordercolor="#666666"
   borderopacity="1"
   objecttolerance="10"
   gridtolerance="10"
   guidetolerance="10"
   inkscape:pageopacity="0"
   inkscape:pageshadow="2"
   inkscape:window-width="1920"
   inkscape:window-height="1013"
   id="namedview13"
   showgrid="false"
   inkscape:zoom="0.65186406"
   inkscape:cx="182.83851"
   inkscape:cy="250.28114"
   inkscape:window-x="0"
   inkscape:window-y="0"
   inkscape:window-maximized="1"
   inkscape:current-layer="Layer_1" />
<g
   id="g819"
   transform="matrix(0.93123325,0,0,0.93123325,51.339909,-5.7805488)"><path
     d="m 391.13073,143.1208 h -18.23432 l -20.37542,65.07892 c -1.53717,4.90172 -6.08594,8.24271 -11.23078,8.24271 H 77.853081 c -5.144828,0 -9.693609,-3.34099 -11.230783,-8.24271 L 46.246898,143.1208 H 28.012563 c -6.496914,0 -11.764088,5.26717 -11.764088,11.76408 v 232.05055 c 0,6.49692 5.267174,11.76409 11.764088,11.76409 H 391.13073 c 6.49692,0 11.7641,-5.26717 11.7641,-11.76409 V 154.88488 c 0,-6.49691 -5.26718,-11.76408 -11.7641,-11.76408 z M 281.10514,354.01952 H 138.03815 c -31.4807,0 -57.095035,-25.6065 -57.095035,-57.0872 0,-31.4807 25.614335,-57.0872 57.095035,-57.0872 31.47285,0 57.08719,25.6065 57.08719,57.0872 0,12.53268 -4.05469,24.13207 -10.93275,33.55903 h 50.75811 c -6.87807,-9.42696 -10.93276,-21.02635 -10.93276,-33.55903 0,-31.4807 25.61435,-57.0872 57.0872,-57.0872 31.4807,0 57.09504,25.6065 57.09504,57.0872 0,31.4807 -25.61434,57.0872 -57.09504,57.0872 z"
     id="path2"
     style="fill:#aaaabe;fill-opacity:1;stroke-width:0.78427255"
     inkscape:connector-curvature="0" /><path
     d="M 332.64753,192.91426 348.23887,143.1208 H 70.904426 l 15.591337,49.79346 z m -58.49889,-36.6569 h 13.92084 c 6.49378,0 11.76409,5.26247 11.76409,11.76409 0,6.49377 -5.27031,11.76409 -11.76409,11.76409 h -13.92084 c -6.49378,0 -11.76409,-5.27032 -11.76409,-11.76409 0,-6.50162 5.27031,-11.76409 11.76409,-11.76409 z m -143.07483,0 h 13.92084 c 6.49377,0 11.76409,5.26247 11.76409,11.76409 0,6.49377 -5.27032,11.76409 -11.76409,11.76409 h -13.92084 c -6.49377,0 -11.76408,-5.27032 -11.76408,-11.76409 0,-6.50162 5.27031,-11.76409 11.76408,-11.76409 z"
     id="path4"
     style="fill:#6e6e82;fill-opacity:1;stroke-width:0.78427255"
     inkscape:connector-curvature="0" /><path
     d="m 281.10514,263.3733 c -18.50099,0 -33.55902,15.05019 -33.55902,33.55902 0,18.50883 15.05803,33.55903 33.55902,33.55903 18.50883,0 33.56686,-15.05019 33.56686,-33.55903 0,-18.50883 -15.05803,-33.55901 -33.56686,-33.55902 z"
     id="path6"
     style="fill:#6e6e82;fill-opacity:1;stroke-width:0.78427255"
     inkscape:connector-curvature="0" /><path
     d="m 138.03815,263.3733 c -18.50883,0 -33.56686,15.05019 -33.56686,33.55902 0,18.50883 15.05803,33.55903 33.56686,33.55903 18.50098,0 33.55902,-15.05019 33.55902,-33.55903 0,-18.50883 -15.05804,-33.55901 -33.55902,-33.55902 z"
     id="path8"
     style="fill:#6e6e82;fill-opacity:1;stroke-width:0.78427255"
     inkscape:connector-curvature="0" /></g>















</svg>