<?xml version="1.0" encoding="UTF-8" standalone="no"?>
<svg
   xmlns:dc="http://purl.org/dc/elements/1.1/"
   xmlns:cc="http://creativecommons.org/ns#"
   xmlns:rdf="http://www.w3.org/1999/02/22-rdf-syntax-ns#"
   xmlns:svg="http://www.w3.org/2000/svg"
   xmlns="http://www.w3.org/2000/svg"
   xmlns:sodipodi="http://sodipodi.sourceforge.net/DTD/sodipodi-0.dtd"
   xmlns:inkscape="http://www.inkscape.org/namespaces/inkscape"
   id="Layer_1"
   enable-background="new 0 0 508.363 508.363"
   height="512"
   viewBox="0 0 508.363 508.363"
   width="512"
   version="1.1"
   sodipodi:docname="modes.svg"
   inkscape:version="0.92.4 5da689c313, 2019-01-14">
  <metadata
     id="metadata13">
    <rdf:RDF>
      <cc:Work
         rdf:about="">
        <dc:format>image/svg+xml</dc:format>
        <dc:type
           rdf:resource="http://purl.org/dc/dcmitype/StillImage" />
      </cc:Work>
    </rdf:RDF>
  </metadata>
  <defs
     id="defs11" />
  <sodipodi:namedview
     pagecolor="#ffffff"
     bordercolor="#666666"
     borderopacity="1"
     objecttolerance="10"
     gridtolerance="10"
     guidetolerance="10"
     inkscape:pageopacity="0"
     inkscape:pageshadow="2"
     inkscape:window-width="1920"
     inkscape:window-height="1013"
     id="namedview9"
     showgrid="false"
     inkscape:zoom="0.4609375"
     inkscape:cx="256"
     inkscape:cy="256"
     inkscape:window-x="0"
     inkscape:window-y="0"
     inkscape:window-maximized="1"
     inkscape:current-layer="Layer_1" />
  <g
     id="g823"
     transform="matrix(0.88859421,0,0,0.88859421,28.317735,28.317735)"
     style="fill:#aaaabe;fill-opacity:1">
    <circle
       id="circle2"
       r="21.892"
       cy="120.723"
       cx="254.181"
       style="fill:#aaaabe;fill-opacity:1" />
    <path
       id="path4"
       d="m 254.181,245.694 c -50.824,0 -92.172,41.349 -92.172,92.173 0,50.824 41.348,92.172 92.172,92.172 50.824,0 92.172,-41.348 92.172,-92.172 0,-50.824 -41.347,-92.173 -92.172,-92.173 z m 0,125.142 c -18.179,0 -32.969,-14.79 -32.969,-32.969 0,-18.18 14.79,-32.969 32.969,-32.969 18.179,0 32.969,14.79 32.969,32.969 0,18.179 -14.79,32.969 -32.969,32.969 z"
       inkscape:connector-curvature="0"
       style="fill:#aaaabe;fill-opacity:1" />
    <path
       id="path6"
       d="M 363.469,0 H 144.894 C 109.201,0 80.162,29.038 80.162,64.731 v 378.9 c 0,35.693 29.039,64.731 64.732,64.731 h 218.574 c 35.693,0 64.732,-29.038 64.732,-64.731 V 64.731 C 428.201,29.038 399.162,0 363.469,0 Z m -18.036,177.234 c 9.345,0 16.92,7.575 16.92,16.92 0,9.345 -7.575,16.92 -16.92,16.92 -9.345,0 -16.92,-7.576 -16.92,-16.92 0,-9.344 7.576,-16.92 16.92,-16.92 z M 254.181,66.831 c 29.716,0 53.892,24.176 53.892,53.892 0,29.716 -24.176,53.892 -53.892,53.892 -29.716,0 -53.892,-24.176 -53.892,-53.892 0,-29.716 24.177,-53.892 53.892,-53.892 z M 162.93,177.234 c 9.345,0 16.92,7.575 16.92,16.92 0,9.345 -7.575,16.92 -16.92,16.92 -9.345,0 -16.92,-7.576 -16.92,-16.92 0,-9.344 7.575,-16.92 16.92,-16.92 z m 91.251,284.805 c -68.469,0 -124.172,-55.703 -124.172,-124.172 0,-68.469 55.703,-124.173 124.172,-124.173 68.469,0 124.172,55.704 124.172,124.173 0,68.469 -55.703,124.172 -124.172,124.172 z"
       inkscape:connector-curvature="0"
       style="fill:#aaaabe;fill-opacity:1" />
  </g>
</svg>
