<?xml version="1.0" encoding="UTF-8" standalone="no"?>
<!-- Generator: Adobe Illustrator 19.0.0, SVG Export Plug-In . SVG Version: 6.00 Build 0)  -->

<svg
   xmlns:dc="http://purl.org/dc/elements/1.1/"
   xmlns:cc="http://creativecommons.org/ns#"
   xmlns:rdf="http://www.w3.org/1999/02/22-rdf-syntax-ns#"
   xmlns:svg="http://www.w3.org/2000/svg"
   xmlns="http://www.w3.org/2000/svg"
   xmlns:sodipodi="http://sodipodi.sourceforge.net/DTD/sodipodi-0.dtd"
   xmlns:inkscape="http://www.inkscape.org/namespaces/inkscape"
   version="1.1"
   id="Layer_1"
   x="0px"
   y="0px"
   viewBox="0 0 32 32"
   xml:space="preserve"
   sodipodi:docname="listview.svg"
   inkscape:version="0.92.4 5da689c313, 2019-01-14"
   width="32"
   height="32"><metadata
   id="metadata55"><rdf:RDF><cc:Work
       rdf:about=""><dc:format>image/svg+xml</dc:format><dc:type
         rdf:resource="http://purl.org/dc/dcmitype/StillImage" /><dc:title></dc:title></cc:Work></rdf:RDF></metadata><defs
   id="defs53" /><sodipodi:namedview
   pagecolor="#ffffff"
   bordercolor="#666666"
   borderopacity="1"
   objecttolerance="10"
   gridtolerance="10"
   guidetolerance="10"
   inkscape:pageopacity="0"
   inkscape:pageshadow="2"
   inkscape:window-width="1920"
   inkscape:window-height="1013"
   id="namedview51"
   showgrid="false"
   inkscape:zoom="7.375"
   inkscape:cx="41.188515"
   inkscape:cy="44.501929"
   inkscape:window-x="0"
   inkscape:window-y="0"
   inkscape:window-maximized="1"
   inkscape:current-layer="Layer_1" />

















<g
   id="g886"
   transform="matrix(0.05911954,0,0,0.05911954,0.86539881,-0.73588801)"
   style="fill:#aaaabe;fill-opacity:1"><g
     transform="matrix(0.84745763,0,0,0.84745763,39.050847,66.136424)"
     id="g6"
     style="fill:#aaaabe;fill-opacity:1">
	<g
   id="g4"
   style="fill:#aaaabe;fill-opacity:1">
		<path
   inkscape:connector-curvature="0"
   id="path2"
   d="M 491.318,235.318 H 20.682 C 9.26,235.318 0,244.577 0,256 c 0,11.423 9.26,20.682 20.682,20.682 h 470.636 c 11.423,0 20.682,-9.259 20.682,-20.682 0,-11.422 -9.259,-20.682 -20.682,-20.682 z"
   style="fill:#aaaabe;fill-opacity:1" />
	</g>
</g><g
     transform="matrix(0.84745763,0,0,0.84745763,39.050847,66.136424)"
     id="g12"
     style="fill:#aaaabe;fill-opacity:1">
	<g
   id="g10"
   style="fill:#aaaabe;fill-opacity:1">
		<path
   inkscape:connector-curvature="0"
   id="path8"
   d="M 491.318,78.439 H 20.682 C 9.26,78.439 0,87.699 0,99.121 c 0,11.422 9.26,20.682 20.682,20.682 h 470.636 c 11.423,0 20.682,-9.26 20.682,-20.682 0,-11.422 -9.259,-20.682 -20.682,-20.682 z"
   style="fill:#aaaabe;fill-opacity:1" />
	</g>
</g><g
     transform="matrix(0.84745763,0,0,0.84745763,39.050847,66.136424)"
     id="g18"
     style="fill:#aaaabe;fill-opacity:1">
	<g
   id="g16"
   style="fill:#aaaabe;fill-opacity:1">
		<path
   inkscape:connector-curvature="0"
   id="path14"
   d="M 491.318,392.197 H 20.682 C 9.26,392.197 0,401.456 0,412.879 c 0,11.423 9.26,20.682 20.682,20.682 h 470.636 c 11.423,0 20.682,-9.259 20.682,-20.682 0,-11.423 -9.259,-20.682 -20.682,-20.682 z"
   style="fill:#aaaabe;fill-opacity:1" />
	</g>
</g><g
     transform="matrix(0.84745763,0,0,0.84745763,0,66.136424)"
     id="g20"
     style="fill:#aaaabe;fill-opacity:1">
</g><g
     transform="matrix(0.84745763,0,0,0.84745763,0,66.136424)"
     id="g22"
     style="fill:#aaaabe;fill-opacity:1">
</g><g
     transform="matrix(0.84745763,0,0,0.84745763,0,66.136424)"
     id="g24"
     style="fill:#aaaabe;fill-opacity:1">
</g><g
     transform="matrix(0.84745763,0,0,0.84745763,0,66.136424)"
     id="g26"
     style="fill:#aaaabe;fill-opacity:1">
</g><g
     transform="matrix(0.84745763,0,0,0.84745763,0,66.136424)"
     id="g28"
     style="fill:#aaaabe;fill-opacity:1">
</g><g
     transform="matrix(0.84745763,0,0,0.84745763,0,66.136424)"
     id="g30"
     style="fill:#aaaabe;fill-opacity:1">
</g><g
     transform="matrix(0.84745763,0,0,0.84745763,0,66.136424)"
     id="g32"
     style="fill:#aaaabe;fill-opacity:1">
</g><g
     transform="matrix(0.84745763,0,0,0.84745763,0,66.136424)"
     id="g34"
     style="fill:#aaaabe;fill-opacity:1">
</g><g
     transform="matrix(0.84745763,0,0,0.84745763,0,66.136424)"
     id="g36"
     style="fill:#aaaabe;fill-opacity:1">
</g><g
     transform="matrix(0.84745763,0,0,0.84745763,0,66.136424)"
     id="g38"
     style="fill:#aaaabe;fill-opacity:1">
</g><g
     transform="matrix(0.84745763,0,0,0.84745763,0,66.136424)"
     id="g40"
     style="fill:#aaaabe;fill-opacity:1">
</g><g
     transform="matrix(0.84745763,0,0,0.84745763,0,66.136424)"
     id="g42"
     style="fill:#aaaabe;fill-opacity:1">
</g><g
     transform="matrix(0.84745763,0,0,0.84745763,0,66.136424)"
     id="g44"
     style="fill:#aaaabe;fill-opacity:1">
</g><g
     transform="matrix(0.84745763,0,0,0.84745763,0,66.136424)"
     id="g46"
     style="fill:#aaaabe;fill-opacity:1">
</g><g
     transform="matrix(0.84745763,0,0,0.84745763,0,66.136424)"
     id="g48"
     style="fill:#aaaabe;fill-opacity:1">
</g></g>
</svg>