<?xml version="1.0" encoding="UTF-8" standalone="no"?>
<svg
   xmlns:dc="http://purl.org/dc/elements/1.1/"
   xmlns:cc="http://creativecommons.org/ns#"
   xmlns:rdf="http://www.w3.org/1999/02/22-rdf-syntax-ns#"
   xmlns:svg="http://www.w3.org/2000/svg"
   xmlns="http://www.w3.org/2000/svg"
   xmlns:sodipodi="http://sodipodi.sourceforge.net/DTD/sodipodi-0.dtd"
   xmlns:inkscape="http://www.inkscape.org/namespaces/inkscape"
   height="32"
   viewBox="0 0 4 4"
   width="32"
   version="1.1"
   id="svg49"
   sodipodi:docname="visualizer.svg"
   inkscape:version="0.92.5 (2060ec1f9f, 2020-04-08)">
  <metadata
     id="metadata55">
    <rdf:RDF>
      <cc:Work
         rdf:about="">
        <dc:format>image/svg+xml</dc:format>
        <dc:type
           rdf:resource="http://purl.org/dc/dcmitype/StillImage" />
        <dc:title></dc:title>
      </cc:Work>
    </rdf:RDF>
  </metadata>
  <defs
     id="defs53" />
  <sodipodi:namedview
     pagecolor="#ffffff"
     bordercolor="#666666"
     borderopacity="1"
     objecttolerance="10"
     gridtolerance="10"
     guidetolerance="10"
     inkscape:pageopacity="0"
     inkscape:pageshadow="2"
     inkscape:window-width="1920"
     inkscape:window-height="1013"
     id="namedview51"
     showgrid="false"
     inkscape:zoom="11.313709"
     inkscape:cx="6.4137325"
     inkscape:cy="10.347697"
     inkscape:window-x="0"
     inkscape:window-y="0"
     inkscape:window-maximized="1"
     inkscape:current-layer="svg49" />
  <g
     id="voice_recognition"
     data-name="voice recognition"
     transform="matrix(0.05329542,0,0,0.05329542,0.29311792,0.29289092)"
     style="fill:#aaaabe;fill-opacity:1">
    <path
       d="m 4,4 h 7 V 2 H 3 A 1,1 0 0 0 2,3 v 8 h 2 z"
       id="path2"
       inkscape:connector-curvature="0"
       style="fill:#aaaabe;fill-opacity:1" />
    <path
       d="m 61,2 h -8 v 2 h 7 v 7 h 2 V 3 A 1,1 0 0 0 61,2 Z"
       id="path4"
       inkscape:connector-curvature="0"
       style="fill:#aaaabe;fill-opacity:1" />
    <path
       d="M 4,53 H 2 v 8 a 1,1 0 0 0 1,1 h 8 V 60 H 4 Z"
       id="path6"
       inkscape:connector-curvature="0"
       style="fill:#aaaabe;fill-opacity:1" />
    <path
       d="m 60,60 h -7 v 2 h 8 a 1,1 0 0 0 1,-1 v -8 h -2 z"
       id="path8"
       inkscape:connector-curvature="0"
       style="fill:#aaaabe;fill-opacity:1" />
    <path
       d="m 2,31 h 2 v 2 H 2 Z"
       id="path10"
       inkscape:connector-curvature="0"
       style="fill:#aaaabe;fill-opacity:1" />
    <path
       d="m 60,31 h 2 v 2 h -2 z"
       id="path12"
       inkscape:connector-curvature="0"
       style="fill:#aaaabe;fill-opacity:1" />
    <path
       d="M 5,29 A 3,3 0 1 0 2,26 3,3 0 0 0 5,29 Z M 5,25 A 1,1 0 1 1 4,26 1,1 0 0 1 5,25 Z"
       id="path14"
       inkscape:connector-curvature="0"
       style="fill:#aaaabe;fill-opacity:1" />
    <path
       d="m 59,35 a 3,3 0 1 0 3,3 3,3 0 0 0 -3,-3 z m 0,4 a 1,1 0 1 1 1,-1 1,1 0 0 1 -1,1 z"
       id="path16"
       inkscape:connector-curvature="0"
       style="fill:#aaaabe;fill-opacity:1" />
    <path
       d="m 56,27 h 6 v 2 h -6 z"
       id="path18"
       inkscape:connector-curvature="0"
       style="fill:#aaaabe;fill-opacity:1" />
    <path
       d="m 56,23 h 2 v 2 h -2 z"
       id="path20"
       inkscape:connector-curvature="0"
       style="fill:#aaaabe;fill-opacity:1" />
    <path
       d="m 60,23 h 2 v 2 h -2 z"
       id="path22"
       inkscape:connector-curvature="0"
       style="fill:#aaaabe;fill-opacity:1" />
    <path
       d="m 2,35 h 6 v 2 H 2 Z"
       id="path24"
       inkscape:connector-curvature="0"
       style="fill:#aaaabe;fill-opacity:1" />
    <path
       d="m 2,39 h 2 v 2 H 2 Z"
       id="path26"
       inkscape:connector-curvature="0"
       style="fill:#aaaabe;fill-opacity:1" />
    <path
       d="m 6,39 h 2 v 2 H 6 Z"
       id="path28"
       inkscape:connector-curvature="0"
       style="fill:#aaaabe;fill-opacity:1" />
    <path
       d="M 53.975,33 H 58 v -2 h -4.025 a 22,22 0 0 0 -43.95,0 H 6 v 2 h 4.025 a 22,22 0 0 0 43.95,0 z M 32,12 A 20.008,20.008 0 0 1 51.949,31 H 50 a 1,1 0 0 0 -0.929,0.628 l -3.019,7.549 -4.12,-11.514 a 1,1 0 0 0 -1.917,0.121 l -2.861,12.9 -4.175,-25.844 a 1,1 0 0 0 -0.96,-0.84 1.016,1.016 0 0 0 -1,0.788 L 26.988,33.34 23.973,19.783 A 1,1 0 0 0 22.021,19.778 L 17.736,38.647 14.929,31.628 A 1,1 0 0 0 14,31 H 12.051 A 20.008,20.008 0 0 1 32,12 Z m 0,40 A 20.008,20.008 0 0 1 12.051,33 h 1.272 l 3.748,9.372 a 1.011,1.011 0 0 0 1.008,0.628 1,1 0 0 0 0.9,-0.775 L 22.986,24.56 26.024,38.217 A 1,1 0 0 0 27,39 1,1 0 0 0 27.975,38.212 L 31.846,20.378 36.013,46.16 A 1,1 0 0 0 36.971,47 H 37 a 1,1 0 0 0 0.976,-0.784 L 41.217,31.6 45.059,42.337 a 1,1 0 0 0 1.87,0.035 L 50.677,33 h 1.272 A 20.008,20.008 0 0 1 32,52 Z"
       id="path30"
       inkscape:connector-curvature="0"
       style="fill:#aaaabe;fill-opacity:1" />
    <path
       d="m 5.134,16.545 1.732,1 A 29.222,29.222 0 0 1 17.5,6.892 l -1,-1.731 A 31.229,31.229 0 0 0 5.134,16.545 Z"
       id="path32"
       inkscape:connector-curvature="0"
       style="fill:#aaaabe;fill-opacity:1" />
    <path
       d="m 6.892,46.5 -1.731,1 a 31.229,31.229 0 0 0 11.384,11.366 l 1,-1.732 A 29.222,29.222 0 0 1 6.892,46.5 Z"
       id="path34"
       inkscape:connector-curvature="0"
       style="fill:#aaaabe;fill-opacity:1" />
    <path
       d="m 58.866,47.455 -1.732,-1 A 29.222,29.222 0 0 1 46.5,57.108 l 1,1.731 A 31.229,31.229 0 0 0 58.866,47.455 Z"
       id="path36"
       inkscape:connector-curvature="0"
       style="fill:#aaaabe;fill-opacity:1" />
    <path
       d="m 57.108,17.5 1.731,-1 A 31.229,31.229 0 0 0 47.455,5.134 l -1,1.732 A 29.222,29.222 0 0 1 57.108,17.5 Z"
       id="path38"
       inkscape:connector-curvature="0"
       style="fill:#aaaabe;fill-opacity:1" />
    <path
       d="M 7,6.586 H 9 V 9.414 H 7 Z"
       transform="matrix(0.707,-0.707,0.707,0.707,-3.314,8)"
       id="path40"
       inkscape:connector-curvature="0"
       style="fill:#aaaabe;fill-opacity:1" />
    <path
       d="m 6.586,55 h 2.828 v 2 H 6.586 Z"
       transform="matrix(0.707,-0.707,0.707,0.707,-37.255,22.059)"
       id="path42"
       inkscape:connector-curvature="0"
       style="fill:#aaaabe;fill-opacity:1" />
    <path
       d="m 55,54.586 h 2 v 2.828 h -2 z"
       transform="matrix(0.707,-0.707,0.707,0.707,-23.196,56)"
       id="path44"
       inkscape:connector-curvature="0"
       style="fill:#aaaabe;fill-opacity:1" />
    <path
       d="m 54.586,7 h 2.828 v 2 h -2.828 z"
       transform="matrix(0.707,-0.707,0.707,0.707,10.745,41.941)"
       id="path46"
       inkscape:connector-curvature="0"
       style="fill:#aaaabe;fill-opacity:1" />
  </g>
</svg>
