<?xml version="1.0" encoding="UTF-8" standalone="no"?>
<!-- Created with Inkscape (http://www.inkscape.org/) -->

<svg
   xmlns:dc="http://purl.org/dc/elements/1.1/"
   xmlns:cc="http://creativecommons.org/ns#"
   xmlns:rdf="http://www.w3.org/1999/02/22-rdf-syntax-ns#"
   xmlns:svg="http://www.w3.org/2000/svg"
   xmlns="http://www.w3.org/2000/svg"
   xmlns:sodipodi="http://sodipodi.sourceforge.net/DTD/sodipodi-0.dtd"
   xmlns:inkscape="http://www.inkscape.org/namespaces/inkscape"
   width="99.891998"
   height="99.891998"
   id="svg2"
   version="1.1"
   inkscape:version="0.92.2 (5c3e80d, 2017-08-06)"
   sodipodi:docname="error.svg">
  <defs
     id="defs4" />
  <sodipodi:namedview
     id="base"
     pagecolor="#ffffff"
     bordercolor="#666666"
     borderopacity="1.0"
     inkscape:pageopacity="0.0"
     inkscape:pageshadow="2"
     inkscape:zoom="4"
     inkscape:cx="3.765899"
     inkscape:cy="58.398406"
     inkscape:document-units="px"
     inkscape:current-layer="layer1"
     showgrid="false"
     fit-margin-top="0"
     fit-margin-left="0"
     fit-margin-right="0"
     fit-margin-bottom="0"
     inkscape:window-width="1366"
     inkscape:window-height="672"
     inkscape:window-x="0"
     inkscape:window-y="34"
     inkscape:window-maximized="1" />
  <metadata
     id="metadata7">
    <rdf:RDF>
      <cc:Work
         rdf:about="">
        <dc:format>image/svg+xml</dc:format>
        <dc:type
           rdf:resource="http://purl.org/dc/dcmitype/StillImage" />
        <dc:title />
      </cc:Work>
    </rdf:RDF>
  </metadata>
  <g
     inkscape:label="Layer 1"
     inkscape:groupmode="layer"
     id="layer1"
     transform="translate(-438.62543,-476.7019)">
    <path
       inkscape:connector-curvature="0"
       id="path2"
       d="m 488.26829,477.36219 c -27.54,0 -49.946,22.406 -49.946,49.946 0,27.54 22.406,49.946 49.946,49.946 27.54,0 49.946,-22.406 49.946,-49.946 0,-27.54 -22.405,-49.946 -49.946,-49.946 z m 0,97.893 c -26.437,0 -47.946,-21.509 -47.946,-47.947 0,-26.438 21.509,-47.946 47.946,-47.946 26.437,0 47.946,21.509 47.946,47.946 0,26.437 -21.508,47.947 -47.946,47.947 z"
       style="fill:#ff0000;fill-opacity:1" />
    <g
       id="background"
       transform="translate(-269.26992,-125.8521)"
       style="fill:#ff0000;fill-opacity:1" />
    <g
       id="design"
       transform="translate(-269.26992,-125.8521)"
       style="fill:#ff0000;fill-opacity:1" />
    <g
       style="fill:#ff0000;fill-opacity:1"
       id="g961"
       transform="matrix(1.3539399,0,0,1.3539399,447.65009,497.17295)" />
    <g
       style="fill:#ff0000;fill-opacity:1"
       id="g963"
       transform="matrix(1.3539399,0,0,1.3539399,447.65009,497.17295)" />
    <g
       style="fill:#ff0000;fill-opacity:1"
       id="g965"
       transform="matrix(1.3539399,0,0,1.3539399,447.65009,497.17295)" />
    <g
       style="fill:#ff0000;fill-opacity:1"
       id="g967"
       transform="matrix(1.3539399,0,0,1.3539399,447.65009,497.17295)" />
    <g
       style="fill:#ff0000;fill-opacity:1"
       id="g969"
       transform="matrix(1.3539399,0,0,1.3539399,447.65009,497.17295)" />
    <g
       style="fill:#ff0000;fill-opacity:1"
       id="g971"
       transform="matrix(1.3539399,0,0,1.3539399,447.65009,497.17295)" />
    <g
       style="fill:#ff0000;fill-opacity:1"
       id="g973"
       transform="matrix(1.3539399,0,0,1.3539399,447.65009,497.17295)" />
    <g
       style="fill:#ff0000;fill-opacity:1"
       id="g975"
       transform="matrix(1.3539399,0,0,1.3539399,447.65009,497.17295)" />
    <g
       style="fill:#ff0000;fill-opacity:1"
       id="g977"
       transform="matrix(1.3539399,0,0,1.3539399,447.65009,497.17295)" />
    <g
       style="fill:#ff0000;fill-opacity:1"
       id="g979"
       transform="matrix(1.3539399,0,0,1.3539399,447.65009,497.17295)" />
    <g
       style="fill:#ff0000;fill-opacity:1"
       id="g981"
       transform="matrix(1.3539399,0,0,1.3539399,447.65009,497.17295)" />
    <g
       style="fill:#ff0000;fill-opacity:1"
       id="g983"
       transform="matrix(1.3539399,0,0,1.3539399,447.65009,497.17295)" />
    <g
       style="fill:#ff0000;fill-opacity:1"
       id="g985"
       transform="matrix(1.3539399,0,0,1.3539399,447.65009,497.17295)" />
    <g
       style="fill:#ff0000;fill-opacity:1"
       id="g987"
       transform="matrix(1.3539399,0,0,1.3539399,447.65009,497.17295)" />
    <g
       style="fill:#ff0000;fill-opacity:1"
       id="g989"
       transform="matrix(1.3539399,0,0,1.3539399,447.65009,497.17295)" />
    <g
       style="fill:#ff0000;fill-opacity:1"
       transform="translate(590.88408,410.65451)"
       id="g1392" />
    <g
       style="fill:#ff0000;fill-opacity:1"
       transform="translate(590.88408,410.65451)"
       id="g1394" />
    <g
       style="fill:#ff0000;fill-opacity:1"
       transform="translate(590.88408,410.65451)"
       id="g1396" />
    <g
       style="fill:#ff0000;fill-opacity:1"
       transform="translate(590.88408,410.65451)"
       id="g1398" />
    <g
       style="fill:#ff0000;fill-opacity:1"
       transform="translate(590.88408,410.65451)"
       id="g1400" />
    <g
       style="fill:#ff0000;fill-opacity:1"
       transform="translate(590.88408,410.65451)"
       id="g1402" />
    <g
       style="fill:#ff0000;fill-opacity:1"
       transform="translate(590.88408,410.65451)"
       id="g1404" />
    <g
       style="fill:#ff0000;fill-opacity:1"
       transform="translate(590.88408,410.65451)"
       id="g1406" />
    <g
       style="fill:#ff0000;fill-opacity:1"
       transform="translate(590.88408,410.65451)"
       id="g1408" />
    <g
       style="fill:#ff0000;fill-opacity:1"
       transform="translate(590.88408,410.65451)"
       id="g1410" />
    <g
       style="fill:#ff0000;fill-opacity:1"
       transform="translate(590.88408,410.65451)"
       id="g1412" />
    <g
       style="fill:#ff0000;fill-opacity:1"
       transform="translate(590.88408,410.65451)"
       id="g1414" />
    <g
       style="fill:#ff0000;fill-opacity:1"
       transform="translate(590.88408,410.65451)"
       id="g1416" />
    <g
       style="fill:#ff0000;fill-opacity:1"
       transform="translate(590.88408,410.65451)"
       id="g1418" />
    <g
       style="fill:#ff0000;fill-opacity:1"
       transform="translate(590.88408,410.65451)"
       id="g1420" />
    <g
       style="fill:#ff0000;fill-opacity:1"
       transform="translate(645.2891,549.55677)"
       id="g1485" />
    <g
       style="fill:#ff0000;fill-opacity:1"
       transform="translate(645.2891,549.55677)"
       id="g1487" />
    <g
       style="fill:#ff0000;fill-opacity:1"
       transform="translate(645.2891,549.55677)"
       id="g1489" />
    <g
       style="fill:#ff0000;fill-opacity:1"
       transform="translate(645.2891,549.55677)"
       id="g1491" />
    <g
       style="fill:#ff0000;fill-opacity:1"
       transform="translate(645.2891,549.55677)"
       id="g1493" />
    <g
       style="fill:#ff0000;fill-opacity:1"
       transform="translate(645.2891,549.55677)"
       id="g1495" />
    <g
       style="fill:#ff0000;fill-opacity:1"
       transform="translate(645.2891,549.55677)"
       id="g1497" />
    <g
       style="fill:#ff0000;fill-opacity:1"
       transform="translate(645.2891,549.55677)"
       id="g1499" />
    <g
       style="fill:#ff0000;fill-opacity:1"
       transform="translate(645.2891,549.55677)"
       id="g1501" />
    <g
       style="fill:#ff0000;fill-opacity:1"
       transform="translate(645.2891,549.55677)"
       id="g1503" />
    <g
       style="fill:#ff0000;fill-opacity:1"
       transform="translate(645.2891,549.55677)"
       id="g1505" />
    <g
       style="fill:#ff0000;fill-opacity:1"
       transform="translate(645.2891,549.55677)"
       id="g1507" />
    <g
       style="fill:#ff0000;fill-opacity:1"
       transform="translate(645.2891,549.55677)"
       id="g1509" />
    <g
       style="fill:#ff0000;fill-opacity:1"
       transform="translate(645.2891,549.55677)"
       id="g1511" />
    <g
       style="fill:#ff0000;fill-opacity:1"
       transform="translate(645.2891,549.55677)"
       id="g1513" />
    <g
       id="g1034"
       transform="matrix(0.18410756,0,0,0.18410756,429.07586,467.05097)"
       style="fill:#ff0000" />
    <g
       id="g1036"
       transform="matrix(0.18410756,0,0,0.18410756,429.07586,467.05097)"
       style="fill:#ff0000" />
    <g
       id="g1038"
       transform="matrix(0.18410756,0,0,0.18410756,429.07586,467.05097)"
       style="fill:#ff0000" />
    <g
       id="g1040"
       transform="matrix(0.18410756,0,0,0.18410756,429.07586,467.05097)"
       style="fill:#ff0000" />
    <g
       id="g1042"
       transform="matrix(0.18410756,0,0,0.18410756,429.07586,467.05097)"
       style="fill:#ff0000" />
    <g
       id="g1044"
       transform="matrix(0.18410756,0,0,0.18410756,429.07586,467.05097)"
       style="fill:#ff0000" />
    <g
       id="g1046"
       transform="matrix(0.18410756,0,0,0.18410756,429.07586,467.05097)"
       style="fill:#ff0000" />
    <g
       id="g1048"
       transform="matrix(0.18410756,0,0,0.18410756,429.07586,467.05097)"
       style="fill:#ff0000" />
    <g
       id="g1050"
       transform="matrix(0.18410756,0,0,0.18410756,429.07586,467.05097)"
       style="fill:#ff0000" />
    <g
       id="g1052"
       transform="matrix(0.18410756,0,0,0.18410756,429.07586,467.05097)"
       style="fill:#ff0000" />
    <g
       id="g1054"
       transform="matrix(0.18410756,0,0,0.18410756,429.07586,467.05097)"
       style="fill:#ff0000" />
    <g
       id="g1056"
       transform="matrix(0.18410756,0,0,0.18410756,429.07586,467.05097)"
       style="fill:#ff0000" />
    <g
       id="g1058"
       transform="matrix(0.18410756,0,0,0.18410756,429.07586,467.05097)"
       style="fill:#ff0000" />
    <g
       id="g1060"
       transform="matrix(0.18410756,0,0,0.18410756,429.07586,467.05097)"
       style="fill:#ff0000" />
    <g
       id="g1062"
       transform="matrix(0.18410756,0,0,0.18410756,429.07586,467.05097)"
       style="fill:#ff0000" />
    <g
       id="g1291"
       transform="translate(206.66756,238.56801)"
       style="fill:#ff0000" />
    <g
       id="g1293"
       transform="translate(206.66756,238.56801)"
       style="fill:#ff0000" />
    <g
       id="g1295"
       transform="translate(206.66756,238.56801)"
       style="fill:#ff0000" />
    <g
       id="g1297"
       transform="translate(206.66756,238.56801)"
       style="fill:#ff0000" />
    <g
       id="g1299"
       transform="translate(206.66756,238.56801)"
       style="fill:#ff0000" />
    <g
       id="g1301"
       transform="translate(206.66756,238.56801)"
       style="fill:#ff0000" />
    <g
       id="g1303"
       transform="translate(206.66756,238.56801)"
       style="fill:#ff0000" />
    <g
       id="g1305"
       transform="translate(206.66756,238.56801)"
       style="fill:#ff0000" />
    <g
       id="g1307"
       transform="translate(206.66756,238.56801)"
       style="fill:#ff0000" />
    <g
       id="g1309"
       transform="translate(206.66756,238.56801)"
       style="fill:#ff0000" />
    <g
       id="g1311"
       transform="translate(206.66756,238.56801)"
       style="fill:#ff0000" />
    <g
       id="g1313"
       transform="translate(206.66756,238.56801)"
       style="fill:#ff0000" />
    <g
       id="g1315"
       transform="translate(206.66756,238.56801)"
       style="fill:#ff0000" />
    <g
       id="g1317"
       transform="translate(206.66756,238.56801)"
       style="fill:#ff0000" />
    <g
       id="g1319"
       transform="translate(206.66756,238.56801)"
       style="fill:#ff0000" />
    <g
       id="g962"
       transform="matrix(0.15409394,0,0,0.15409394,459.99122,497.0311)"
       style="fill:#ff0000;fill-opacity:1">
      <g
         id="g903"
         style="fill:#ff0000;fill-opacity:1">
        <g
           id="g901"
           style="fill:#ff0000;fill-opacity:1">
          <path
             id="path895"
             d="M 365.221,329.641 190.943,27.788 c -1.542,-2.674 -4.395,-4.318 -7.479,-4.318 -3.084,0 -5.938,1.645 -7.48,4.318 L 1.157,330.584 c -1.543,2.674 -1.543,5.965 0,8.639 1.542,2.674 4.395,4.318 7.48,4.318 h 349.65 c 0.028,0 0.057,0 0.086,0 4.77,0 8.638,-3.863 8.638,-8.639 0,-1.982 -0.669,-3.802 -1.79,-5.261 z M 23.599,326.266 183.464,49.381 343.328,326.266 Z"
             inkscape:connector-curvature="0"
             style="fill:#ff0000;fill-opacity:1" />
          <path
             id="path897"
             d="m 174.826,136.801 v 123.893 c 0,4.773 3.867,8.638 8.638,8.638 4.77,0 8.637,-3.863 8.637,-8.638 V 136.801 c 0,-4.766 -3.867,-8.637 -8.637,-8.637 -4.771,0.001 -8.638,3.872 -8.638,8.637 z"
             inkscape:connector-curvature="0"
             style="fill:#ff0000;fill-opacity:1" />
          <path
             id="path899"
             d="m 183.464,279.393 c -5.922,0 -10.725,4.8 -10.725,10.722 0,5.922 4.803,10.729 10.725,10.729 5.921,0 10.725,-4.809 10.725,-10.729 0,-5.922 -4.803,-10.722 -10.725,-10.722 z"
             inkscape:connector-curvature="0"
             style="fill:#ff0000;fill-opacity:1" />
        </g>
      </g>
      <g
         id="g905"
         style="fill:#ff0000;fill-opacity:1" />
      <g
         id="g907"
         style="fill:#ff0000;fill-opacity:1" />
      <g
         id="g909"
         style="fill:#ff0000;fill-opacity:1" />
      <g
         id="g911"
         style="fill:#ff0000;fill-opacity:1" />
      <g
         id="g913"
         style="fill:#ff0000;fill-opacity:1" />
      <g
         id="g915"
         style="fill:#ff0000;fill-opacity:1" />
      <g
         id="g917"
         style="fill:#ff0000;fill-opacity:1" />
      <g
         id="g919"
         style="fill:#ff0000;fill-opacity:1" />
      <g
         id="g921"
         style="fill:#ff0000;fill-opacity:1" />
      <g
         id="g923"
         style="fill:#ff0000;fill-opacity:1" />
      <g
         id="g925"
         style="fill:#ff0000;fill-opacity:1" />
      <g
         id="g927"
         style="fill:#ff0000;fill-opacity:1" />
      <g
         id="g929"
         style="fill:#ff0000;fill-opacity:1" />
      <g
         id="g931"
         style="fill:#ff0000;fill-opacity:1" />
      <g
         id="g933"
         style="fill:#ff0000;fill-opacity:1" />
    </g>
  </g>
</svg>
