<?xml version="1.0" encoding="UTF-8" standalone="no"?>
<!-- Generator: Adobe Illustrator 19.0.0, SVG Export Plug-In . SVG Version: 6.00 Build 0)  -->

<svg
        xmlns:dc="http://purl.org/dc/elements/1.1/"
        xmlns:cc="http://creativecommons.org/ns#"
        xmlns:rdf="http://www.w3.org/1999/02/22-rdf-syntax-ns#"
        xmlns="http://www.w3.org/2000/svg"
        xmlns:sodipodi="http://sodipodi.sourceforge.net/DTD/sodipodi-0.dtd"
        xmlns:inkscape="http://www.inkscape.org/namespaces/inkscape"
        version="1.1"
        id="Capa_1"
        x="0px"
        y="0px"
        viewBox="0 0 31.999998 31.999998"
        xml:space="preserve"
        sodipodi:docname="home.svg"
        inkscape:version="0.92.4 5da689c313, 2019-01-14"
        width="32"
        height="32"><metadata
   id="metadata43"><rdf:RDF><cc:Work
       rdf:about=""><dc:format>image/svg+xml</dc:format><dc:type
         rdf:resource="http://purl.org/dc/dcmitype/StillImage" /><dc:title></dc:title></cc:Work></rdf:RDF></metadata><defs
   id="defs41" /><sodipodi:namedview
   pagecolor="#ffffff"
   bordercolor="#666666"
   borderopacity="1"
   objecttolerance="10"
   gridtolerance="10"
   guidetolerance="10"
   inkscape:pageopacity="0"
   inkscape:pageshadow="2"
   inkscape:window-width="1920"
   inkscape:window-height="1013"
   id="namedview39"
   showgrid="false"
   inkscape:zoom="5.6568543"
   inkscape:cx="13.331734"
   inkscape:cy="23.017615"
   inkscape:window-x="0"
   inkscape:window-y="0"
   inkscape:window-maximized="1"
   inkscape:current-layer="Capa_1" />
<g
   id="g6"
   style="fill:#aaaabe;fill-opacity:1;stroke:#aaaabe;stroke-width:10.68120289;stroke-miterlimit:4;stroke-dasharray:none;stroke-opacity:1"
   transform="matrix(0.04853042,0,0,0.04853042,2.9191823,2.9183443)">
	<g
   id="g4"
   style="fill:#aaaabe;fill-opacity:1;stroke:#aaaabe;stroke-width:10.68120289;stroke-miterlimit:4;stroke-dasharray:none;stroke-opacity:1">
		<path
   d="m 460.462,527.846 h -134.77 c -6.208,0 -11.231,-5.023 -11.231,-11.231 v -146 h -89.846 v 146 c 0,6.208 -5.023,11.231 -11.231,11.231 H 78.615 c -6.208,0 -11.231,-5.023 -11.231,-11.231 V 292 c 0,-6.208 5.023,-11.231 11.231,-11.231 6.208,0 11.231,5.023 11.231,11.231 v 213.385 h 112.308 v -146 c 0,-6.208 5.023,-11.231 11.231,-11.231 h 112.308 c 6.208,0 11.231,5.023 11.231,11.231 v 146 H 449.232 V 303.231 c 0,-6.208 5.023,-11.231 11.231,-11.231 6.208,0 11.231,5.023 11.231,11.231 v 213.385 c -0.002,6.207 -5.025,11.23 -11.232,11.23 z M 527.846,292 c -2.873,0 -5.747,-1.097 -7.94,-3.29 L 269.538,38.343 19.171,288.71 c -4.387,4.387 -11.494,4.387 -15.881,0 -4.387,-4.387 -4.387,-11.494 0,-15.881 L 261.598,14.521 c 4.387,-4.387 11.494,-4.387 15.881,0 l 258.308,258.308 c 4.387,4.387 4.387,11.494 0,15.881 -2.194,2.193 -5.067,3.29 -7.941,3.29 z M 438,134.769 c -6.208,0 -11.231,-5.023 -11.231,-11.231 V 56.154 h -67.385 c -6.208,0 -11.231,-5.023 -11.231,-11.231 0,-6.208 5.023,-11.231 11.231,-11.231 H 438 c 6.208,0 11.231,5.023 11.231,11.231 v 78.615 c 0,6.208 -5.023,11.231 -11.231,11.231 z"
   id="path2"
   style="fill:#aaaabe;fill-opacity:1;stroke:#aaaabe;stroke-width:10.68120289;stroke-miterlimit:4;stroke-dasharray:none;stroke-opacity:1"
   inkscape:connector-curvature="0" />
	</g>
</g>
<g
   id="g8"
   style="fill:#aaaabe;fill-opacity:1;stroke:#aaaabe;stroke-width:10.68120289;stroke-miterlimit:4;stroke-dasharray:none;stroke-opacity:1"
   transform="matrix(0.04853042,0,0,0.04853042,-1.2934118,7.7324266)">
</g>
<g
   id="g10"
   style="fill:#aaaabe;fill-opacity:1;stroke:#aaaabe;stroke-width:10.68120289;stroke-miterlimit:4;stroke-dasharray:none;stroke-opacity:1"
   transform="matrix(0.04853042,0,0,0.04853042,-1.2934118,7.7324266)">
</g>
<g
   id="g12"
   style="fill:#aaaabe;fill-opacity:1;stroke:#aaaabe;stroke-width:10.68120289;stroke-miterlimit:4;stroke-dasharray:none;stroke-opacity:1"
   transform="matrix(0.04853042,0,0,0.04853042,-1.2934118,7.7324266)">
</g>
<g
   id="g14"
   style="fill:#aaaabe;fill-opacity:1;stroke:#aaaabe;stroke-width:10.68120289;stroke-miterlimit:4;stroke-dasharray:none;stroke-opacity:1"
   transform="matrix(0.04853042,0,0,0.04853042,-1.2934118,7.7324266)">
</g>
<g
   id="g16"
   style="fill:#aaaabe;fill-opacity:1;stroke:#aaaabe;stroke-width:10.68120289;stroke-miterlimit:4;stroke-dasharray:none;stroke-opacity:1"
   transform="matrix(0.04853042,0,0,0.04853042,-1.2934118,7.7324266)">
</g>
<g
   id="g18"
   style="fill:#aaaabe;fill-opacity:1;stroke:#aaaabe;stroke-width:10.68120289;stroke-miterlimit:4;stroke-dasharray:none;stroke-opacity:1"
   transform="matrix(0.04853042,0,0,0.04853042,-1.2934118,7.7324266)">
</g>
<g
   id="g20"
   style="fill:#aaaabe;fill-opacity:1;stroke:#aaaabe;stroke-width:10.68120289;stroke-miterlimit:4;stroke-dasharray:none;stroke-opacity:1"
   transform="matrix(0.04853042,0,0,0.04853042,-1.2934118,7.7324266)">
</g>
<g
   id="g22"
   style="fill:#aaaabe;fill-opacity:1;stroke:#aaaabe;stroke-width:10.68120289;stroke-miterlimit:4;stroke-dasharray:none;stroke-opacity:1"
   transform="matrix(0.04853042,0,0,0.04853042,-1.2934118,7.7324266)">
</g>
<g
   id="g24"
   style="fill:#aaaabe;fill-opacity:1;stroke:#aaaabe;stroke-width:10.68120289;stroke-miterlimit:4;stroke-dasharray:none;stroke-opacity:1"
   transform="matrix(0.04853042,0,0,0.04853042,-1.2934118,7.7324266)">
</g>
<g
   id="g26"
   style="fill:#aaaabe;fill-opacity:1;stroke:#aaaabe;stroke-width:10.68120289;stroke-miterlimit:4;stroke-dasharray:none;stroke-opacity:1"
   transform="matrix(0.04853042,0,0,0.04853042,-1.2934118,7.7324266)">
</g>
<g
   id="g28"
   style="fill:#aaaabe;fill-opacity:1;stroke:#aaaabe;stroke-width:10.68120289;stroke-miterlimit:4;stroke-dasharray:none;stroke-opacity:1"
   transform="matrix(0.04853042,0,0,0.04853042,-1.2934118,7.7324266)">
</g>
<g
   id="g30"
   style="fill:#aaaabe;fill-opacity:1;stroke:#aaaabe;stroke-width:10.68120289;stroke-miterlimit:4;stroke-dasharray:none;stroke-opacity:1"
   transform="matrix(0.04853042,0,0,0.04853042,-1.2934118,7.7324266)">
</g>
<g
   id="g32"
   style="fill:#aaaabe;fill-opacity:1;stroke:#aaaabe;stroke-width:10.68120289;stroke-miterlimit:4;stroke-dasharray:none;stroke-opacity:1"
   transform="matrix(0.04853042,0,0,0.04853042,-1.2934118,7.7324266)">
</g>
<g
   id="g34"
   style="fill:#aaaabe;fill-opacity:1;stroke:#aaaabe;stroke-width:10.68120289;stroke-miterlimit:4;stroke-dasharray:none;stroke-opacity:1"
   transform="matrix(0.04853042,0,0,0.04853042,-1.2934118,7.7324266)">
</g>
<g
   id="g36"
   style="fill:#aaaabe;fill-opacity:1;stroke:#aaaabe;stroke-width:10.68120289;stroke-miterlimit:4;stroke-dasharray:none;stroke-opacity:1"
   transform="matrix(0.04853042,0,0,0.04853042,-1.2934118,7.7324266)">
</g>
</svg>