<!-- Created with Inkscape (http://www.inkscape.org/) -->
<svg xmlns:rdf="http://www.w3.org/1999/02/22-rdf-syntax-ns#" xmlns="http://www.w3.org/2000/svg" height="100" width="100" version="1.1" xmlns:cc="http://creativecommons.org/ns#" xmlns:dc="http://purl.org/dc/elements/1.1/">
<metadata>
<rdf:RDF>
<cc:Work rdf:about="">
<dc:format>image/svg+xml</dc:format>
<dc:type rdf:resource="http://purl.org/dc/dcmitype/StillImage"/>
<dc:title/>
</cc:Work>
</rdf:RDF>
</metadata>
<g transform="translate(-438.62543,-476.5939)">
<g fill="#aaaabe" transform="matrix(4.4998875,0,0,4.4999438,371.62835,409.59592)">
<path fill="#aaaabe" d="m35.707,16.293c-0.391-0.391-1.023-0.391-1.414,0l-8.293,8.293-8.293-8.293c-0.391-0.391-1.023-0.391-1.414,0s-0.391,1.023,0,1.414l8.293,8.293-8.293,8.293c-0.391,0.391-0.391,1.023,0,1.414,0.195,0.195,0.451,0.293,0.707,0.293s0.512-0.098,0.707-0.293l8.293-8.293,8.293,8.293c0.195,0.195,0.451,0.293,0.707,0.293s0.512-0.098,0.707-0.293c0.391-0.391,0.391-1.023,0-1.414l-8.293-8.293,8.293-8.293c0.391-0.391,0.391-1.023,0-1.414z"/>
</g>
</g>
</svg>