<?xml version="1.0" encoding="UTF-8" standalone="no"?>
<!-- Generator: Adobe Illustrator 16.0.0, SVG Export Plug-In . SVG Version: 6.00 Build 0)  -->

<svg
        xmlns:dc="http://purl.org/dc/elements/1.1/"
        xmlns:cc="http://creativecommons.org/ns#"
        xmlns:rdf="http://www.w3.org/1999/02/22-rdf-syntax-ns#"
        xmlns="http://www.w3.org/2000/svg"
        xmlns:sodipodi="http://sodipodi.sourceforge.net/DTD/sodipodi-0.dtd"
        xmlns:inkscape="http://www.inkscape.org/namespaces/inkscape"
        version="1.1"
        id="Capa_1"
        x="0px"
        y="0px"
        width="32"
        height="32"
        viewBox="0 0 32.000001 32.000001"
        xml:space="preserve"
        sodipodi:docname="copy.svg"
        inkscape:version="0.92.4 5da689c313, 2019-01-14"><metadata
   id="metadata44"><rdf:RDF><cc:Work
       rdf:about=""><dc:format>image/svg+xml</dc:format><dc:type
         rdf:resource="http://purl.org/dc/dcmitype/StillImage" /><dc:title></dc:title></cc:Work></rdf:RDF></metadata><defs
   id="defs42">
	
















		
	
			
		</defs><sodipodi:namedview
   pagecolor="#ffffff"
   bordercolor="#666666"
   borderopacity="1"
   objecttolerance="10"
   gridtolerance="10"
   guidetolerance="10"
   inkscape:pageopacity="0"
   inkscape:pageshadow="2"
   inkscape:window-width="1920"
   inkscape:window-height="1013"
   id="namedview40"
   showgrid="false"
   inkscape:zoom="7.634911"
   inkscape:cx="-41.275752"
   inkscape:cy="9.1771699"
   inkscape:window-x="0"
   inkscape:window-y="0"
   inkscape:window-maximized="1"
   inkscape:current-layer="Capa_1" />
<path
   inkscape:connector-curvature="0"
   id="path2"
   d="m 21.597743,3.2051581 c -0.09914,0 -9.596141,0 -9.596141,0 -1.692131,0 -3.1987014,1.5521851 -3.1987014,3.1987277 l -0.9244337,0.021584 c -1.6913178,0 -3.0739642,1.5305627 -3.0739642,3.1771065 V 25.596149 c 0,1.646542 1.5065938,3.198693 3.1987253,3.198693 h 11.99517 c 1.692096,0 3.198702,-1.552151 3.198702,-3.198693 h 0.799673 c 1.692119,0 3.198725,-1.552151 3.198725,-3.198693 V 9.6217844 Z M 19.998398,27.195534 H 8.003228 c -0.8396557,0 -1.5993453,-0.784452 -1.5993453,-1.599383 V 9.6025785 c 0,-0.8148568 0.6837334,-1.572968 1.5234007,-1.572968 L 8.8029006,8.003238 v 14.394226 c 0,1.646543 1.5065704,3.198693 3.1987014,3.198693 h 9.596141 c 0,0.814893 -0.759713,1.599384 -1.599345,1.599384 z m 5.597755,-4.798076 c 0,0.81482 -0.759725,1.59931 -1.59938,1.59931 H 12.001602 c -0.839667,0 -1.599356,-0.784453 -1.599356,-1.59931 V 6.4038858 c 0,-0.8148569 0.759689,-1.5993463 1.599356,-1.5993463 h 7.996796 c -0.01278,1.8416587 0,3.2187051 0,3.2187051 0,1.661727 1.495366,3.1787164 3.198702,3.1787164 0,0 0.849279,0 2.399053,0 z M 23.1971,9.6025785 c -0.851627,0 -1.599357,-1.5473567 -1.599357,-2.3774339 0,0 0,-0.8412712 0,-2.3958366 v -0.00162 l 3.99841,4.7748792 z m -1.599357,4.8124895 h -7.197088 c -0.441417,0 -0.799672,0.357452 -0.799672,0.798869 0,0.441417 0.358255,0.798869 0.799672,0.798869 h 7.197088 c 0.441418,0 0.799684,-0.357488 0.799684,-0.798869 0,-0.441417 -0.358266,-0.798869 -0.799684,-0.798869 z m 0,3.994379 h -7.197088 c -0.441417,0 -0.799672,0.357451 -0.799672,0.798831 0,0.441455 0.358255,0.798905 0.799672,0.798905 h 7.197088 c 0.441418,0 0.799684,-0.35745 0.799684,-0.798905 0,-0.44138 -0.358266,-0.798831 -0.799684,-0.798831 z"
   style="fill:#aaaabe;fill-opacity:1;stroke-width:0.03658659" />















</svg>