<?xml version="1.0" encoding="UTF-8" standalone="no"?>
<!-- Generator: Adobe Illustrator 16.0.0, SVG Export Plug-In . SVG Version: 6.00 Build 0)  -->

<svg
   xmlns:dc="http://purl.org/dc/elements/1.1/"
   xmlns:cc="http://creativecommons.org/ns#"
   xmlns:rdf="http://www.w3.org/1999/02/22-rdf-syntax-ns#"
   xmlns:svg="http://www.w3.org/2000/svg"
   xmlns="http://www.w3.org/2000/svg"
   xmlns:sodipodi="http://sodipodi.sourceforge.net/DTD/sodipodi-0.dtd"
   xmlns:inkscape="http://www.inkscape.org/namespaces/inkscape"
   version="1.1"
   id="Capa_1"
   x="0px"
   y="0px"
   width="699.428px"
   height="699.428px"
   viewBox="0 0 699.428 699.428"
   style="enable-background:new 0 0 699.428 699.428;"
   xml:space="preserve"
   sodipodi:docname="copy-two-paper-sheets-interface-symbol.svg"
   inkscape:version="0.92.4 5da689c313, 2019-01-14"><metadata
   id="metadata44"><rdf:RDF><cc:Work
       rdf:about=""><dc:format>image/svg+xml</dc:format><dc:type
         rdf:resource="http://purl.org/dc/dcmitype/StillImage" /></cc:Work></rdf:RDF></metadata><defs
   id="defs42">
	
















		
	
			
		</defs><sodipodi:namedview
   pagecolor="#ffffff"
   bordercolor="#666666"
   borderopacity="1"
   objecttolerance="10"
   gridtolerance="10"
   guidetolerance="10"
   inkscape:pageopacity="0"
   inkscape:pageshadow="2"
   inkscape:window-width="1920"
   inkscape:window-height="1013"
   id="namedview40"
   showgrid="false"
   inkscape:zoom="0.33741859"
   inkscape:cx="349.71399"
   inkscape:cy="349.71399"
   inkscape:window-x="0"
   inkscape:window-y="0"
   inkscape:window-maximized="1"
   inkscape:current-layer="Capa_1" />
<path
   inkscape:connector-curvature="0"
   id="path2"
   d="m 469.37261,76.20879 c -2.11944,0 -205.12929,0 -205.12929,0 -36.17131,0 -68.37591,33.17985 -68.37591,68.37669 l -19.76088,0.46143 c -36.15411,0 -65.70979,32.71763 -65.70979,67.91448 v 341.88189 c 0,35.19684 32.20537,68.37591 68.37669,68.37591 h 256.41123 c 36.17053,0 68.37591,-33.17907 68.37591,-68.37591 h 17.09397 c 36.17132,0 68.37669,-33.17907 68.37669,-68.37591 V 213.37198 Z M 435.18466,589.03202 H 178.77343 c -17.94879,0 -34.18795,-16.76863 -34.18795,-34.18874 V 212.96139 c 0,-17.41854 14.61555,-33.62408 32.56435,-33.62408 l 18.71758,-0.56387 v 307.69393 c 0,35.19684 32.2046,68.37591 68.37591,68.37591 h 205.12929 c 0,17.41932 -16.23994,34.18874 -34.18795,34.18874 z M 554.84328,486.46737 c 0,17.41776 -16.23995,34.18717 -34.18874,34.18717 H 264.24332 c -17.9488,0 -34.18796,-16.76863 -34.18796,-34.18717 V 144.58548 c 0,-17.41854 16.23916,-34.18796 34.18796,-34.18796 h 170.94134 c -0.27451,39.36769 0,68.80371 0,68.80371 0,35.52141 31.96527,67.94889 68.37591,67.94889 0,0 18.15448,0 51.28271,0 z M 503.56057,212.96139 c -18.20453,0 -34.18796,-33.07662 -34.18796,-50.82051 0,0 0,-17.9832 0,-51.21389 v -0.0344 L 554.84328,212.9614 Z M 469.37261,315.83417 H 315.52603 c -9.43582,0 -17.09397,7.64095 -17.09397,17.07677 0,9.43583 7.65815,17.07678 17.09397,17.07678 h 153.84658 c 9.43583,0 17.09398,-7.64173 17.09398,-17.07678 0,-9.43582 -7.65815,-17.07677 -17.09398,-17.07677 z m 0,85.38464 H 315.52603 c -9.43582,0 -17.09397,7.64095 -17.09397,17.07599 0,9.43661 7.65815,17.07756 17.09397,17.07756 h 153.84658 c 9.43583,0 17.09398,-7.64095 17.09398,-17.07756 0,-9.43504 -7.65815,-17.07599 -17.09398,-17.07599 z"
   style="fill:#aaaabe;fill-opacity:1;stroke-width:0.7820825" />















</svg>