<?xml version="1.0" encoding="UTF-8" standalone="no"?>
<svg
        xmlns:dc="http://purl.org/dc/elements/1.1/"
        xmlns:cc="http://creativecommons.org/ns#"
        xmlns:rdf="http://www.w3.org/1999/02/22-rdf-syntax-ns#"
        xmlns="http://www.w3.org/2000/svg"
        xmlns:sodipodi="http://sodipodi.sourceforge.net/DTD/sodipodi-0.dtd"
        xmlns:inkscape="http://www.inkscape.org/namespaces/inkscape"
        height="32px"
        id="Layer_1"
        style="enable-background:new 0 0 32 32;"
        version="1.1"
        viewBox="0 0 32 32"
        width="32px"
        xml:space="preserve"
        sodipodi:docname="new.svg"
        inkscape:version="0.92.4 5da689c313, 2019-01-14"><metadata
     id="metadata9"><rdf:RDF><cc:Work
         rdf:about=""><dc:format>image/svg+xml</dc:format><dc:type
           rdf:resource="http://purl.org/dc/dcmitype/StillImage" /><dc:title></dc:title></cc:Work></rdf:RDF></metadata><defs
     id="defs7" /><sodipodi:namedview
     pagecolor="#ffffff"
     bordercolor="#666666"
     borderopacity="1"
     objecttolerance="10"
     gridtolerance="10"
     guidetolerance="10"
     inkscape:pageopacity="0"
     inkscape:pageshadow="2"
     inkscape:window-width="1920"
     inkscape:window-height="1013"
     id="namedview5"
     showgrid="false"
     inkscape:zoom="10.429825"
     inkscape:cx="-0.83295362"
     inkscape:cy="-3.273832"
     inkscape:window-x="0"
     inkscape:window-y="0"
     inkscape:window-maximized="1"
     inkscape:current-layer="Layer_1" /><path
     d="M 26.96422,14.17263 H 17.82737 V 5.0357805 c 0,-1.0087082 -0.818662,-1.8273699 -1.82737,-1.8273699 -1.008708,0 -1.82737,0.8186617 -1.82737,1.8273699 V 14.17263 H 5.03578 c -1.0087081,0 -1.8273699,0.818662 -1.8273699,1.82737 0,1.008708 0.8186618,1.82737 1.8273699,1.82737 h 9.13685 v 9.13685 c 0,1.008708 0.818662,1.82737 1.82737,1.82737 1.008708,0 1.82737,-0.818662 1.82737,-1.82737 v -9.13685 h 9.13685 c 1.008708,0 1.82737,-0.818662 1.82737,-1.82737 0,-1.008708 -0.818662,-1.82737 -1.82737,-1.82737 z"
     id="path2"
     style="fill:#aaaabe;fill-opacity:1;stroke-width:0.91368496"
     inkscape:connector-curvature="0" /></svg>