<svg xmlns:rdf="http://www.w3.org/1999/02/22-rdf-syntax-ns#" xmlns="http://www.w3.org/2000/svg" xml:space="preserve" viewBox="0 0 100 100" height="100%" width="100%" version="1.1" y="0px" x="0px" xmlns:cc="http://creativecommons.org/ns#" xmlns:dc="http://purl.org/dc/elements/1.1/"><metadata><rdf:RDF><cc:Work rdf:about=""><dc:format>image/svg+xml</dc:format><dc:type rdf:resource="http://purl.org/dc/dcmitype/StillImage"/><dc:title/></cc:Work></rdf:RDF></metadata><path d="m50,26.667c-12.866,0-23.333,10.466-23.333,23.333,0,12.866,10.466,23.333,23.333,23.333,12.866,0,23.333-10.466,23.333-23.333,0-12.866-10.467-23.333-23.333-23.333zm0,43.333c-11.028,0-20-8.9715-20-20s8.9715-20,20-20,20,8.9715,20,20-8.9715,20-20,20z" fill="#9191af"/><path d="M90.365,39.999h-3.3632c-0.85882-3.186-2.1198-6.236-3.7668-9.094l2.3766-2.3766c0.87498-0.87498,1.3566-2.04,1.3566-3.2766,0-1.2383-0.48166-2.4016-1.3566-3.2783l-7.5882-7.5882c-1.75-1.7483-4.8016-1.7516-6.5549,0l-2.3766,2.3766c-2.8599-1.645-5.9082-2.9066-9.0932-3.7649v-3.3638c0-2.5549-2.078-4.6332-4.633-4.6332h-10.733c-2.555,0-4.6332,2.0783-4.6332,4.6332v3.3633c-3.1849,0.85832-6.2332,2.12-9.0948,3.7666l-2.3766-2.3766c-1.7516-1.7533-4.8049-1.75-6.5549,0l-7.5882,7.5882c-0.87498,0.87498-1.3566,2.04-1.3566,3.2783,0,1.2366,0.48166,2.4,1.3566,3.2766l2.3766,2.3766c-1.645,2.8566-2.9083,5.9066-3.7649,9.0932h-3.3628c-2.5549,0-4.6332,2.079-4.6332,4.634v10.731c0,2.5566,2.0783,4.6349,4.6332,4.6349h3.3633c0.85832,3.1849,2.12,6.2332,3.7666,9.0948l-2.3766,2.3766c-0.87498,0.87498-1.3566,2.04-1.3566,3.2766,0,1.2383,0.48166,2.4016,1.3566,3.2783l7.5882,7.5882c1.75,1.7516,4.8032,1.7533,6.5549,0l2.3766-2.3766c2.8616,1.645,5.9099,2.9083,9.0948,3.7666v3.3633c0,2.555,2.078,4.633,4.633,4.633h10.731c2.555,0,4.6332-2.0783,4.6332-4.6332v-3.3633c3.1849-0.85832,6.2332-2.12,9.0948-3.7666l2.3766,2.3766c1.7533,1.7533,4.8032,1.75,6.5549,0l7.5882-7.5882c0.87498-0.87498,1.3566-2.04,1.3566-3.2783,0-1.2366-0.48166-2.4-1.3566-3.2766l-2.3766-2.3766c1.645-2.8616,2.9083-5.9099,3.7666-9.0948h3.3633c2.556,0,4.634-2.078,4.634-4.633v-10.733c-0.0017-2.555-2.08-4.6332-4.6349-4.6332zm1.3,15.366c0,0.71665-0.58332,1.3-1.3,1.3h-5.9865l-0.29999,1.2883c-0.86832,3.7283-2.3316,7.2665-4.3549,10.518l-0.69999,1.1233,4.2316,4.2316c0.50832,0.50832,0.50832,1.3333,0,1.84l-7.5882,7.5882c-0.50666,0.50666-1.3316,0.50999-1.84,0l-4.2316-4.2316-1.1233,0.69999c-3.2499,2.0233-6.7882,3.4883-10.518,4.3549l-1.289,0.302v5.9866c0,0.71665-0.58332,1.3-1.3,1.3h-10.733c-0.71665,0-1.3-0.58332-1.3-1.3v-5.9875l-1.289-0.29953c-3.728-0.869-7.266-2.332-10.518-4.355l-1.1233-0.69999-4.2316,4.2316c-0.50999,0.50999-1.335,0.50666-1.84,0l-7.5882-7.5882c-0.50832-0.50832-0.50832-1.3333,0-1.84l4.232-4.233-0.7-1.123c-2.024-3.25-3.489-6.788-4.355-10.518l-0.3-1.288h-5.9868c-0.71665,0-1.3-0.58332-1.3-1.3v-10.733c0-0.71665,0.58332-1.3,1.3-1.3h5.9866l0.3-1.2883c0.86832-3.7299,2.3316-7.2682,4.3549-10.518l0.69999-1.1233-4.2316-4.2316c-0.50832-0.50832-0.50832-1.3333,0-1.84l7.5882-7.5882c0.50666-0.50666,1.3316-0.50999,1.84,0l4.2316,4.2316,1.1233-0.69999c3.2499-2.0233,6.7882-3.4883,10.518-4.3549l1.2883-0.3v-5.9878c0-0.71665,0.58332-1.3,1.3-1.3h10.731c0.71832,0,1.3016,0.58332,1.3016,1.3v5.9866l1.2883,0.3c3.7283,0.86832,7.2665,2.3316,10.518,4.3549l1.1233,0.69999,4.2316-4.2316c0.50999-0.50999,1.335-0.50666,1.84,0l7.5882,7.5882c0.50832,0.50832,0.50832,1.3333,0,1.84l-4.2316,4.2316,0.69999,1.1233c2.0233,3.2483,3.4883,6.7865,4.3549,10.518l0.29999,1.2883h5.9866c0.71665,0,1.3,0.58332,1.3,1.3z" fill="#aaaabe"/><path d="M50,33.334c-9.19,0-16.666,7.476-16.666,16.666s7.476,16.666,16.666,16.666,16.666-7.476,16.666-16.666-7.476-16.666-16.666-16.666zm0,29.999c-7.352,0-13.333-5.981-13.333-13.333,0-7.3515,5.9816-13.333,13.333-13.333,7.3515,0,13.333,5.9816,13.333,13.333,0,7.3515-5.9816,13.333-13.333,13.333z" fill="#7d7d91"/></svg>