<?xml version="1.0" encoding="UTF-8" standalone="no"?>
<svg
   xmlns:dc="http://purl.org/dc/elements/1.1/"
   xmlns:cc="http://creativecommons.org/ns#"
   xmlns:rdf="http://www.w3.org/1999/02/22-rdf-syntax-ns#"
   xmlns:svg="http://www.w3.org/2000/svg"
   xmlns="http://www.w3.org/2000/svg"
   xmlns:sodipodi="http://sodipodi.sourceforge.net/DTD/sodipodi-0.dtd"
   xmlns:inkscape="http://www.inkscape.org/namespaces/inkscape"
   version="1.1"
   id="Capa_1"
   x="0px"
   y="0px"
   viewBox="0 0 512.001 512.001"
   style="enable-background:new 0 0 512.001 512.001;"
   xml:space="preserve"
   sodipodi:docname="passkey.svg"
   inkscape:version="1.0.1 (3bc2e813f5, 2020-09-07, custom)"><metadata
   id="metadata49"><rdf:RDF><cc:Work
       rdf:about=""><dc:format>image/svg+xml</dc:format><dc:type
         rdf:resource="http://purl.org/dc/dcmitype/StillImage" /></cc:Work></rdf:RDF></metadata><defs
   id="defs47" /><sodipodi:namedview
   pagecolor="#ffffff"
   bordercolor="#666666"
   borderopacity="1"
   objecttolerance="10"
   gridtolerance="10"
   guidetolerance="10"
   inkscape:pageopacity="0"
   inkscape:pageshadow="2"
   inkscape:window-width="1920"
   inkscape:window-height="1021"
   id="namedview45"
   showgrid="false"
   inkscape:zoom="1.3964817"
   inkscape:cx="256.00049"
   inkscape:cy="256.00049"
   inkscape:window-x="0"
   inkscape:window-y="30"
   inkscape:window-maximized="1"
   inkscape:current-layer="Capa_1" />
<g
   id="g6"
   style="fill:#aaaabe;fill-opacity:1">
	<g
   id="g4"
   style="fill:#aaaabe;fill-opacity:1">
		<path
   d="M467.853,40.681C441.619,14.448,406.74,0,369.641,0c-37.099,0-71.978,14.448-98.212,40.681    c-23.367,23.368-37.66,54.357-40.245,87.259c-2.375,30.206,5.19,60.365,21.363,85.684L12.229,453.937    c-11.68,11.681-11.68,30.686,0,42.367c5.658,5.657,13.182,8.775,21.184,8.775s15.524-3.117,21.184-8.775l25.816-25.817    l32.737,32.739c5.658,5.657,13.182,8.775,21.184,8.775s15.524-3.117,21.183-8.776c11.68-11.681,11.679-30.686,0-42.366    l-17.333-17.332l19.258-19.258l17.332,17.331c5.658,5.659,13.182,8.776,21.184,8.776s15.524-3.116,21.181-8.775    c5.658-5.657,8.776-13.181,8.776-21.183s-3.117-15.526-8.775-21.184L184.4,366.497l110.506-110.505    c22.292,14.275,47.985,21.787,74.743,21.789c37.098-0.001,71.971-14.446,98.201-40.676c26.233-26.234,40.681-61.113,40.681-98.212    C508.534,101.794,494.086,66.915,467.853,40.681z M456.297,225.551c-23.145,23.146-53.91,35.89-86.636,35.89    c-25.681-0.002-50.237-7.831-71.023-22.645c-3.25-2.315-7.695-1.946-10.519,0.876L167.07,360.72    c-1.532,1.533-2.392,3.61-2.392,5.778c0,2.168,0.861,4.244,2.392,5.778l38.514,38.514c2.572,2.571,3.989,5.991,3.989,9.629    c0,3.637-1.417,7.057-3.989,9.629c-2.571,2.572-5.992,3.988-9.628,3.988c-3.637,0-7.058-1.416-9.63-3.989l-23.11-23.109    c-3.19-3.19-8.363-3.19-11.554,0l-30.811,30.811c-3.191,3.192-3.191,8.364,0,11.555l23.11,23.11c5.31,5.308,5.31,13.948,0,19.257    c-2.571,2.572-5.992,3.989-9.628,3.989c-3.637,0-7.058-1.417-9.629-3.989L86.19,453.156c-1.596-1.595-3.686-2.392-5.778-2.392    c-2.09,0-4.182,0.797-5.778,2.392L43.042,484.75c-2.572,2.572-5.993,3.989-9.63,3.989s-7.058-1.417-9.629-3.989    c-5.31-5.308-5.31-13.948,0-19.257l245.079-245.078c2.821-2.823,3.192-7.269,0.876-10.519    c-34.82-48.861-29.25-115.167,13.244-157.662c23.148-23.147,53.923-35.894,86.659-35.894c32.735,0,63.511,12.748,86.657,35.896    c23.148,23.147,35.896,53.922,35.896,86.657C492.194,171.629,479.445,202.404,456.297,225.551z"
   id="path2"
   style="fill:#aaaabe;fill-opacity:1" />
	</g>
</g>
<g
   id="g12"
   style="fill:#aaaabe;fill-opacity:1">
	<g
   id="g10"
   style="fill:#aaaabe;fill-opacity:1">
		<path
   d="M457.037,134.307c-4.507-0.194-8.313,3.323-8.497,7.83c-0.81,19.864-8.999,38.546-23.054,52.601    c-14.916,14.919-34.748,23.134-55.845,23.134c-21.095,0-40.928-8.215-55.846-23.133c-30.794-30.794-30.794-80.898,0-111.691    c14.917-14.919,34.75-23.134,55.846-23.134c21.097,0,40.929,8.215,55.846,23.133c8.413,8.412,14.675,18.325,18.612,29.465    c1.502,4.254,6.171,6.484,10.425,4.981c4.254-1.504,6.485-6.171,4.981-10.425c-4.756-13.458-12.314-25.426-22.463-35.575    c-18.004-18.003-41.94-27.918-67.401-27.918c-25.461,0-49.397,9.915-67.401,27.918c-37.165,37.165-37.165,97.637,0,134.802    c18.004,18.003,41.94,27.918,67.401,27.918c25.461,0,49.398-9.915,67.401-27.918c16.965-16.965,26.847-39.512,27.827-63.49    C465.051,138.295,461.546,134.491,457.037,134.307z"
   id="path8"
   style="fill:#aaaabe;fill-opacity:1" />
	</g>
</g>
<g
   id="g14"
   style="fill:#aaaabe;fill-opacity:1">
</g>
<g
   id="g16"
   style="fill:#aaaabe;fill-opacity:1">
</g>
<g
   id="g18"
   style="fill:#aaaabe;fill-opacity:1">
</g>
<g
   id="g20"
   style="fill:#aaaabe;fill-opacity:1">
</g>
<g
   id="g22"
   style="fill:#aaaabe;fill-opacity:1">
</g>
<g
   id="g24"
   style="fill:#aaaabe;fill-opacity:1">
</g>
<g
   id="g26"
   style="fill:#aaaabe;fill-opacity:1">
</g>
<g
   id="g28"
   style="fill:#aaaabe;fill-opacity:1">
</g>
<g
   id="g30"
   style="fill:#aaaabe;fill-opacity:1">
</g>
<g
   id="g32"
   style="fill:#aaaabe;fill-opacity:1">
</g>
<g
   id="g34"
   style="fill:#aaaabe;fill-opacity:1">
</g>
<g
   id="g36"
   style="fill:#aaaabe;fill-opacity:1">
</g>
<g
   id="g38"
   style="fill:#aaaabe;fill-opacity:1">
</g>
<g
   id="g40"
   style="fill:#aaaabe;fill-opacity:1">
</g>
<g
   id="g42"
   style="fill:#aaaabe;fill-opacity:1">
</g>
</svg>
