<?xml version="1.0" encoding="UTF-8" standalone="no"?>
<svg
   xmlns:dc="http://purl.org/dc/elements/1.1/"
   xmlns:cc="http://creativecommons.org/ns#"
   xmlns:rdf="http://www.w3.org/1999/02/22-rdf-syntax-ns#"
   xmlns:svg="http://www.w3.org/2000/svg"
   xmlns="http://www.w3.org/2000/svg"
   xmlns:sodipodi="http://sodipodi.sourceforge.net/DTD/sodipodi-0.dtd"
   xmlns:inkscape="http://www.inkscape.org/namespaces/inkscape"
   version="1.1"
   id="Capa_1"
   x="0px"
   y="0px"
   viewBox="0 0 227.216 227.216"
   style="enable-background:new 0 0 227.216 227.216;"
   xml:space="preserve"
   sodipodi:docname="share.svg"
   inkscape:version="1.0.1 (3bc2e813f5, 2020-09-07, custom)"><metadata
   id="metadata39"><rdf:RDF><cc:Work
       rdf:about=""><dc:format>image/svg+xml</dc:format><dc:type
         rdf:resource="http://purl.org/dc/dcmitype/StillImage" /></cc:Work></rdf:RDF></metadata><defs
   id="defs37" /><sodipodi:namedview
   pagecolor="#ffffff"
   bordercolor="#666666"
   borderopacity="1"
   objecttolerance="10"
   gridtolerance="10"
   guidetolerance="10"
   inkscape:pageopacity="0"
   inkscape:pageshadow="2"
   inkscape:window-width="1920"
   inkscape:window-height="1021"
   id="namedview35"
   showgrid="false"
   inkscape:zoom="3.1467854"
   inkscape:cx="113.608"
   inkscape:cy="113.608"
   inkscape:window-x="0"
   inkscape:window-y="30"
   inkscape:window-maximized="1"
   inkscape:current-layer="Capa_1" />
<path
   d="M175.897,141.476c-13.249,0-25.11,6.044-32.98,15.518l-51.194-29.066c1.592-4.48,2.467-9.297,2.467-14.317  c0-5.019-0.875-9.836-2.467-14.316l51.19-29.073c7.869,9.477,19.732,15.523,32.982,15.523c23.634,0,42.862-19.235,42.862-42.879  C218.759,19.229,199.531,0,175.897,0C152.26,0,133.03,19.229,133.03,42.865c0,5.02,0.874,9.838,2.467,14.319L84.304,86.258  c-7.869-9.472-19.729-15.514-32.975-15.514c-23.64,0-42.873,19.229-42.873,42.866c0,23.636,19.233,42.865,42.873,42.865  c13.246,0,25.105-6.042,32.974-15.513l51.194,29.067c-1.593,4.481-2.468,9.3-2.468,14.321c0,23.636,19.23,42.865,42.867,42.865  c23.634,0,42.862-19.23,42.862-42.865C218.759,160.71,199.531,141.476,175.897,141.476z M175.897,15  c15.363,0,27.862,12.5,27.862,27.865c0,15.373-12.499,27.879-27.862,27.879c-15.366,0-27.867-12.506-27.867-27.879  C148.03,27.5,160.531,15,175.897,15z M51.33,141.476c-15.369,0-27.873-12.501-27.873-27.865c0-15.366,12.504-27.866,27.873-27.866  c15.363,0,27.861,12.5,27.861,27.866C79.191,128.975,66.692,141.476,51.33,141.476z M175.897,212.216  c-15.366,0-27.867-12.501-27.867-27.865c0-15.37,12.501-27.875,27.867-27.875c15.363,0,27.862,12.505,27.862,27.875  C203.759,199.715,191.26,212.216,175.897,212.216z"
   id="path2"
   style="fill:#aaaabe;fill-opacity:1" />
<g
   id="g4"
   style="fill:#aaaabe;fill-opacity:1">
</g>
<g
   id="g6"
   style="fill:#aaaabe;fill-opacity:1">
</g>
<g
   id="g8"
   style="fill:#aaaabe;fill-opacity:1">
</g>
<g
   id="g10"
   style="fill:#aaaabe;fill-opacity:1">
</g>
<g
   id="g12"
   style="fill:#aaaabe;fill-opacity:1">
</g>
<g
   id="g14"
   style="fill:#aaaabe;fill-opacity:1">
</g>
<g
   id="g16"
   style="fill:#aaaabe;fill-opacity:1">
</g>
<g
   id="g18"
   style="fill:#aaaabe;fill-opacity:1">
</g>
<g
   id="g20"
   style="fill:#aaaabe;fill-opacity:1">
</g>
<g
   id="g22"
   style="fill:#aaaabe;fill-opacity:1">
</g>
<g
   id="g24"
   style="fill:#aaaabe;fill-opacity:1">
</g>
<g
   id="g26"
   style="fill:#aaaabe;fill-opacity:1">
</g>
<g
   id="g28"
   style="fill:#aaaabe;fill-opacity:1">
</g>
<g
   id="g30"
   style="fill:#aaaabe;fill-opacity:1">
</g>
<g
   id="g32"
   style="fill:#aaaabe;fill-opacity:1">
</g>
</svg>
