<?xml version="1.0" encoding="UTF-8" standalone="no"?>
<svg
   xmlns:dc="http://purl.org/dc/elements/1.1/"
   xmlns:cc="http://creativecommons.org/ns#"
   xmlns:rdf="http://www.w3.org/1999/02/22-rdf-syntax-ns#"
   xmlns:svg="http://www.w3.org/2000/svg"
   xmlns="http://www.w3.org/2000/svg"
   xmlns:sodipodi="http://sodipodi.sourceforge.net/DTD/sodipodi-0.dtd"
   xmlns:inkscape="http://www.inkscape.org/namespaces/inkscape"
   xml:space="preserve"
   viewBox="0 0 100 100"
   height="100%"
   width="100%"
   version="1.1"
   y="0px"
   x="0px"
   id="svg10"
   sodipodi:docname="stretch-y.svg"
   inkscape:version="0.92.2 2405546, 2018-03-11"><defs
   id="defs14" /><sodipodi:namedview
   pagecolor="#ffffff"
   bordercolor="#666666"
   borderopacity="1"
   objecttolerance="10"
   gridtolerance="10"
   guidetolerance="10"
   inkscape:pageopacity="0"
   inkscape:pageshadow="2"
   inkscape:window-width="1920"
   inkscape:window-height="1013"
   id="namedview12"
   showgrid="false"
   inkscape:zoom="2.36"
   inkscape:cx="50"
   inkscape:cy="50"
   inkscape:window-x="0"
   inkscape:window-y="0"
   inkscape:window-maximized="1"
   inkscape:current-layer="svg10" />
<metadata
   id="metadata2">
<rdf:RDF>
<cc:Work
   rdf:about="">
<dc:format>image/svg+xml</dc:format>
<dc:type
   rdf:resource="http://purl.org/dc/dcmitype/StillImage" />
<dc:title />
</cc:Work>
</rdf:RDF>
</metadata>


<g
   id="g4527"
   transform="rotate(90,50,49.999999)"><polygon
     id="polygon4"
     stroke-miterlimit="4"
     points="31.293,0 23.293,8.146 24.707,9.634 31,3.414 31,26 33,26 33,3.414 39.293,9.707 40.707,8.146 32.707,0 "
     transform="matrix(0,1.3608871,-1.3608871,0,93.548387,6.4516131)"
     style="fill:#aaaabe;stroke:#aaaabe;stroke-width:2.13333344;stroke-linecap:round;stroke-linejoin:round;stroke-miterlimit:4;stroke-dasharray:none" /><polygon
     id="polygon6"
     stroke-miterlimit="4"
     points="40.707,55.854 39.293,54.366 33,60.586 33,38 31,38 31,60.586 24.707,54.293 23.293,55.854 31.293,64 32.707,64 "
     transform="matrix(0,1.3608871,-1.3608871,0,93.548387,6.4516131)"
     style="fill:#aaaabe;stroke:#aaaabe;stroke-width:2.13333344;stroke-linejoin:round;stroke-miterlimit:4;stroke-dasharray:none" /><rect
     id="rect8"
     x="35.029999"
     y="-51.361"
     stroke-miterlimit="4"
     width="29.940001"
     height="2.7218001"
     transform="rotate(90)"
     style="fill:none;stroke:#aaaabe;stroke-width:2.90319991;stroke-linecap:round;stroke-linejoin:round;stroke-miterlimit:4;stroke-dasharray:none" /></g>
</svg>