<?xml version="1.0" encoding="UTF-8" standalone="no"?>
<svg
   xmlns:dc="http://purl.org/dc/elements/1.1/"
   xmlns:cc="http://creativecommons.org/ns#"
   xmlns:rdf="http://www.w3.org/1999/02/22-rdf-syntax-ns#"
   xmlns:svg="http://www.w3.org/2000/svg"
   xmlns="http://www.w3.org/2000/svg"
   xmlns:sodipodi="http://sodipodi.sourceforge.net/DTD/sodipodi-0.dtd"
   xmlns:inkscape="http://www.inkscape.org/namespaces/inkscape"
   xml:space="preserve"
   viewBox="0 0 100 100"
   height="32"
   width="32"
   version="1.1"
   y="0px"
   x="0px"
   id="svg24"
   sodipodi:docname="suggestion.svg"
   inkscape:version="0.92.4 5da689c313, 2019-01-14"><defs
   id="defs28">









</defs><sodipodi:namedview
   pagecolor="#ffffff"
   bordercolor="#666666"
   borderopacity="1"
   objecttolerance="10"
   gridtolerance="10"
   guidetolerance="10"
   inkscape:pageopacity="0"
   inkscape:pageshadow="2"
   inkscape:window-width="1920"
   inkscape:window-height="1013"
   id="namedview26"
   showgrid="false"
   units="px"
   inkscape:zoom="22.627417"
   inkscape:cx="11.295855"
   inkscape:cy="10.677657"
   inkscape:window-x="0"
   inkscape:window-y="0"
   inkscape:window-maximized="1"
   inkscape:current-layer="svg24" />
<metadata
   id="metadata2">
<rdf:RDF>
<cc:Work
   rdf:about="">
<dc:format>image/svg+xml</dc:format>
<dc:type
   rdf:resource="http://purl.org/dc/dcmitype/StillImage" />
<dc:title />
</cc:Work>
</rdf:RDF>
</metadata>
<path
   style="fill:#aaaabe;stroke:#aaaabe;stroke-width:2.10625005;stroke-miterlimit:4;stroke-dasharray:none;stroke-opacity:1"
   inkscape:connector-curvature="0"
   id="path4"
   d="m 50.000001,21.853952 c -13.886372,0 -25.183307,11.296935 -25.183307,25.183307 0,10.535511 6.5047,19.868148 16.295081,23.553799 v 13.480476 c 0,0.819198 0.662173,1.481371 1.481371,1.481371 h 1.481371 v 2.962742 c 0,0.819198 0.662173,1.481371 1.481371,1.481371 h 8.888226 c 0.819198,0 1.481371,-0.662173 1.481371,-1.481371 v -2.962742 h 1.481371 c 0.819198,0 1.481371,-0.662173 1.481371,-1.481371 V 70.591058 c 9.790381,-3.685651 16.295081,-13.018288 16.295081,-23.553799 0,-13.886372 -11.296935,-25.183307 -25.183307,-25.183307 z m 4.444113,60.736211 c -0.819198,0 -1.481371,0.662173 -1.481371,1.481371 v 2.962742 h -5.925484 v -2.962742 c 0,-0.819198 -0.662173,-1.481371 -1.481371,-1.481371 h -1.481371 v -7.406855 h 11.850968 v 7.406855 z m 2.500554,-14.455218 c -0.608843,0.199985 -1.019183,0.768831 -1.019183,1.407302 v 2.678319 H 44.074517 v -2.678319 c 0,-0.639952 -0.41034,-1.207317 -1.019183,-1.407302 -9.135615,-3.004221 -15.275898,-11.483588 -15.275898,-21.097686 0,-12.25242 9.968145,-22.220565 22.220565,-22.220565 12.25242,0 22.220565,9.968145 22.220565,22.220565 0,9.614098 -6.140283,18.093465 -15.275898,21.097686 z" /><path
   style="fill:#7d7d91;stroke:#7d7d91;stroke-width:2.10625005;stroke-miterlimit:4;stroke-dasharray:none;stroke-opacity:1;fill-opacity:1"
   inkscape:connector-curvature="0"
   id="path6"
   d="m 50.000001,18.89121 c 0.819198,0 1.481371,-0.662173 1.481371,-1.481371 v -5.925484 c 0,-0.819198 -0.662173,-1.481371 -1.481371,-1.481371 -0.819198,0 -1.481371,0.662173 -1.481371,1.481371 v 5.925484 c 0,0.819198 0.662173,1.481371 1.481371,1.481371 z" /><path
   style="fill:#aaaabe;stroke:#aaaabe;stroke-width:2.10625005;stroke-miterlimit:4;stroke-dasharray:none;stroke-opacity:1"
   inkscape:connector-curvature="0"
   id="path8"
   d="m 85.552905,45.555888 h -5.925484 c -0.819198,0 -1.481371,0.662173 -1.481371,1.481371 0,0.819198 0.662173,1.481371 1.481371,1.481371 h 5.925484 c 0.819198,0 1.481371,-0.662173 1.481371,-1.481371 0,-0.819198 -0.662173,-1.481371 -1.481371,-1.481371 z" /><path
   style="fill:#7d7d91;stroke:#7d7d91;stroke-width:2.10625005;stroke-miterlimit:4;stroke-dasharray:none;stroke-opacity:1;fill-opacity:1"
   inkscape:connector-curvature="0"
   id="path10"
   d="m 20.372581,45.555888 h -5.925484 c -0.819198,0 -1.481371,0.662173 -1.481371,1.481371 0,0.819198 0.662173,1.481371 1.481371,1.481371 h 5.925484 c 0.819198,0 1.481371,-0.662173 1.481371,-1.481371 0,-0.819198 -0.662173,-1.481371 -1.481371,-1.481371 z" /><path
   style="fill:#aaaabe;stroke:#aaaabe;stroke-width:2.10625005;stroke-miterlimit:4;stroke-dasharray:none;stroke-opacity:1"
   inkscape:connector-curvature="0"
   id="path12"
   d="M 74.093019,20.849582 69.903702,25.0389 c -0.579216,0.579216 -0.579216,1.515442 0,2.094658 0.288867,0.288868 0.668098,0.434042 1.047329,0.434042 0.379231,0 0.758462,-0.145174 1.047329,-0.434042 l 4.189318,-4.189317 c 0.579216,-0.579216 0.579216,-1.515442 0,-2.094659 -0.579217,-0.579216 -1.516924,-0.577734 -2.094659,0 z" /><path
   style="fill:#aaaabe;stroke:#aaaabe;stroke-width:2.10625005;stroke-miterlimit:4;stroke-dasharray:none;stroke-opacity:1"
   inkscape:connector-curvature="0"
   id="path14"
   d="m 28.001642,66.94096 -4.189318,4.189317 c -0.579216,0.579216 -0.579216,1.515442 0,2.094659 0.288868,0.288867 0.668099,0.434041 1.04733,0.434041 0.379231,0 0.758462,-0.145174 1.047329,-0.434041 L 30.0963,69.035618 c 0.579216,-0.579216 0.579216,-1.515442 0,-2.094658 -0.579216,-0.579216 -1.515442,-0.579216 -2.094658,0 z" /><path
   style="fill:#7d7d91;stroke:#7d7d91;stroke-width:2.10625005;stroke-miterlimit:4;stroke-dasharray:none;stroke-opacity:1;fill-opacity:1"
   inkscape:connector-curvature="0"
   id="path16"
   d="m 71.99836,66.94096 c -0.579216,-0.579216 -1.515442,-0.579216 -2.094658,0 -0.579216,0.579216 -0.579216,1.515442 0,2.094658 l 4.189317,4.189318 c 0.288867,0.288867 0.668098,0.434041 1.047329,0.434041 0.379231,0 0.758462,-0.145174 1.04733,-0.434041 0.579216,-0.579217 0.579216,-1.515443 0,-2.094659 z" /><path
   style="fill:#aaaabe;stroke:#aaaabe;stroke-width:2.10625005;stroke-miterlimit:4;stroke-dasharray:none;stroke-opacity:1"
   inkscape:connector-curvature="0"
   id="path18"
   d="m 28.001642,27.133558 c 0.288867,0.288868 0.668098,0.434042 1.047329,0.434042 0.379231,0 0.758462,-0.145174 1.047329,-0.434042 0.579216,-0.579216 0.579216,-1.515442 0,-2.094658 l -4.189317,-4.189318 c -0.579216,-0.579216 -1.515442,-0.579216 -2.094659,0 -0.579216,0.579217 -0.579216,1.515443 0,2.094659 z" /><path
   style="fill:#7d7d91;stroke:#7d7d91;stroke-width:2.10625005;stroke-miterlimit:4;stroke-dasharray:none;stroke-opacity:1;fill-opacity:1"
   inkscape:connector-curvature="0"
   id="path20"
   d="m 50.000001,29.260807 c -9.802232,0 -17.776452,7.97422 -17.776452,17.776452 0,0.819198 0.662173,1.481371 1.481371,1.481371 0.819198,0 1.481371,-0.662173 1.481371,-1.481371 0,-8.16828 6.64543,-14.81371 14.81371,-14.81371 0.819198,0 1.481371,-0.662173 1.481371,-1.481371 0,-0.819198 -0.662173,-1.481371 -1.481371,-1.481371 z" />
</svg>