<?xml version="1.0" encoding="UTF-8" standalone="no"?>
<!-- Generator: Adobe Illustrator 19.0.0, SVG Export Plug-In . SVG Version: 6.00 Build 0)  -->

<svg
   xmlns:dc="http://purl.org/dc/elements/1.1/"
   xmlns:cc="http://creativecommons.org/ns#"
   xmlns:rdf="http://www.w3.org/1999/02/22-rdf-syntax-ns#"
   xmlns:svg="http://www.w3.org/2000/svg"
   xmlns="http://www.w3.org/2000/svg"
   xmlns:sodipodi="http://sodipodi.sourceforge.net/DTD/sodipodi-0.dtd"
   xmlns:inkscape="http://www.inkscape.org/namespaces/inkscape"
   version="1.1"
   id="Capa_1"
   x="0px"
   y="0px"
   viewBox="0 0 32 32"
   xml:space="preserve"
   sodipodi:docname="tempo.svg"
   inkscape:version="0.92.4 5da689c313, 2019-01-14"
   width="32"
   height="32"><metadata
   id="metadata79"><rdf:RDF><cc:Work
       rdf:about=""><dc:format>image/svg+xml</dc:format><dc:type
         rdf:resource="http://purl.org/dc/dcmitype/StillImage" /><dc:title></dc:title></cc:Work></rdf:RDF></metadata><defs
   id="defs77" /><sodipodi:namedview
   pagecolor="#ffffff"
   bordercolor="#666666"
   borderopacity="1"
   objecttolerance="10"
   gridtolerance="10"
   guidetolerance="10"
   inkscape:pageopacity="0"
   inkscape:pageshadow="2"
   inkscape:window-width="1920"
   inkscape:window-height="1013"
   id="namedview75"
   showgrid="false"
   inkscape:zoom="10.429825"
   inkscape:cx="1.5935813"
   inkscape:cy="12.677297"
   inkscape:window-x="0"
   inkscape:window-y="0"
   inkscape:window-maximized="1"
   inkscape:current-layer="Capa_1" />





















<g
   id="g4625"
   transform="matrix(0.04998847,0,0,0.04998847,3.2029648,3.2029512)"><g
     style="fill:#aaaabe;fill-opacity:1"
     id="g6">
	<g
   style="fill:#aaaabe;fill-opacity:1"
   id="g4">
		<path
   style="fill:#aaaabe;fill-opacity:1"
   id="path2"
   d="m 429.756,472.273 -15.197,-67.549 c -1.42,-6.272 -7.645,-10.205 -13.905,-8.797 -6.272,1.408 -10.205,7.633 -8.797,13.905 l 15.209,67.572 c 0.151,0.663 0.221,1.338 0.221,2.025 0,5.12 -4.166,9.297 -9.297,9.297 H 114.027 c -5.12,0 -9.297,-4.177 -9.297,-9.309 0,-0.687 0.07,-1.361 0.233,-2.036 l 23.622,-105.018 h 80.873 c 6.423,0 11.636,-5.213 11.636,-11.636 0,-6.423 -5.213,-11.636 -11.636,-11.636 H 133.82 l 17.745,-78.895 c 1.408,-6.272 -2.525,-12.497 -8.797,-13.905 -6.295,-1.373 -12.497,2.537 -13.905,8.797 L 82.259,472.25 c -0.535,2.339 -0.803,4.759 -0.803,7.18 0,17.955 14.604,32.57 32.57,32.57 h 283.951 c 17.955,0 32.57,-14.604 32.57,-32.57 0,-2.421 -0.267,-4.829 -0.791,-7.157 z"
   inkscape:connector-curvature="0" />
	</g>
</g><g
     style="fill:#aaaabe;fill-opacity:1"
     id="g12">
	<g
   style="fill:#aaaabe;fill-opacity:1"
   id="g10">
		<path
   style="fill:#aaaabe;fill-opacity:1"
   id="path8"
   d="m 267.638,93.091 h -23.273 c -6.423,0 -11.636,5.213 -11.636,11.636 0,6.423 5.213,11.636 11.636,11.636 h 23.273 c 6.423,0 11.636,-5.213 11.636,-11.636 0,-6.423 -5.212,-11.636 -11.636,-11.636 z"
   inkscape:connector-curvature="0" />
	</g>
</g><g
     style="fill:#aaaabe;fill-opacity:1"
     id="g18">
	<g
   style="fill:#aaaabe;fill-opacity:1"
   id="g16">
		<path
   style="fill:#aaaabe;fill-opacity:1"
   id="path14"
   d="m 267.638,139.636 h -23.273 c -6.423,0 -11.636,5.213 -11.636,11.636 0,6.423 5.213,11.636 11.636,11.636 h 23.273 c 6.423,0 11.636,-5.213 11.636,-11.636 10e-4,-6.423 -5.201,-11.636 -11.636,-11.636 z"
   inkscape:connector-curvature="0" />
	</g>
</g><g
     style="fill:#aaaabe;fill-opacity:1"
     id="g24">
	<g
   style="fill:#aaaabe;fill-opacity:1"
   id="g22">
		<path
   style="fill:#aaaabe;fill-opacity:1"
   id="path20"
   d="m 267.638,186.182 h -23.273 c -6.423,0 -11.636,5.213 -11.636,11.636 0,6.423 5.213,11.636 11.636,11.636 h 23.273 c 6.423,0 11.636,-5.213 11.636,-11.636 0,-6.423 -5.201,-11.636 -11.636,-11.636 z"
   inkscape:connector-curvature="0" />
	</g>
</g><g
     style="fill:#aaaabe;fill-opacity:1"
     id="g30">
	<g
   style="fill:#aaaabe;fill-opacity:1"
   id="g28">
		<path
   style="fill:#aaaabe;fill-opacity:1"
   id="path26"
   d="m 267.638,232.727 h -23.273 c -6.423,0 -11.636,5.213 -11.636,11.636 0,6.423 5.213,11.637 11.637,11.637 h 23.273 c 6.423,0 11.636,-5.213 11.636,-11.636 0,-6.423 -5.202,-11.637 -11.637,-11.637 z"
   inkscape:connector-curvature="0" />
	</g>
</g><g
     style="fill:#aaaabe;fill-opacity:1"
     id="g36">
	<g
   style="fill:#aaaabe;fill-opacity:1"
   id="g34">
		<path
   style="fill:#aaaabe;fill-opacity:1"
   id="path32"
   d="m 267.638,279.273 h -11.636 c -6.423,0 -11.636,5.213 -11.636,11.636 0,6.423 5.213,11.636 11.636,11.636 h 11.636 c 6.423,0 11.636,-5.213 11.636,-11.636 0,-6.423 -5.201,-11.636 -11.636,-11.636 z"
   inkscape:connector-curvature="0" />
	</g>
</g><g
     style="fill:#aaaabe;fill-opacity:1"
     id="g42">
	<g
   style="fill:#aaaabe;fill-opacity:1"
   id="g40">
		<path
   style="fill:#aaaabe;fill-opacity:1"
   id="path38"
   d="m 430.547,337.455 c -6.423,0 -11.636,5.213 -11.636,11.636 H 402.038 L 329.625,27.252 C 326.018,11.206 312.019,0 295.566,0 h -79.127 c -16.454,0 -30.452,11.206 -34.06,27.241 l -35.991,160 -12.3,-17.222 c 3.479,-5.423 5.562,-11.834 5.562,-18.746 0,-19.247 -15.663,-34.909 -34.909,-34.909 -2.839,0 -5.562,0.431 -8.204,1.071 l -5.597,-7.843 c -3.747,-5.236 -11.031,-6.435 -16.244,-2.7 -5.236,3.735 -6.447,11.008 -2.711,16.233 l 5.073,7.11 c -4.468,5.865 -7.238,13.103 -7.238,21.039 0,19.247 15.663,34.909 34.909,34.909 3.84,0 7.471,-0.768 10.927,-1.92 L 246.53,367.488 c 2.188,3.06 5.725,4.876 9.472,4.876 h 162.909 c 0,6.423 5.213,11.636 11.636,11.636 6.423,0 11.636,-5.213 11.636,-11.636 v -23.273 c 0.001,-6.423 -5.201,-11.636 -11.636,-11.636 z M 104.729,162.909 c -6.412,0 -11.636,-5.225 -11.636,-11.636 0,-6.412 5.225,-11.636 11.636,-11.636 6.412,0 11.636,5.225 11.636,11.636 0.001,6.411 -5.224,11.636 -11.636,11.636 z M 205.081,32.349 c 1.21,-5.341 5.876,-9.076 11.357,-9.076 h 79.127 c 5.481,0 10.147,3.735 11.357,9.088 l 3.188,14.185 H 201.893 Z m 56.914,316.742 -97.559,-136.576 c 0.047,-0.186 0.186,-0.314 0.221,-0.5 l 32,-142.196 h 118.691 l 62.836,279.273 H 261.995 Z"
   inkscape:connector-curvature="0" />
	</g>
</g><g
     style="fill:#aaaabe;fill-opacity:1"
     id="g44">
</g><g
     style="fill:#aaaabe;fill-opacity:1"
     id="g46">
</g><g
     style="fill:#aaaabe;fill-opacity:1"
     id="g48">
</g><g
     style="fill:#aaaabe;fill-opacity:1"
     id="g50">
</g><g
     style="fill:#aaaabe;fill-opacity:1"
     id="g52">
</g><g
     style="fill:#aaaabe;fill-opacity:1"
     id="g54">
</g><g
     style="fill:#aaaabe;fill-opacity:1"
     id="g56">
</g><g
     style="fill:#aaaabe;fill-opacity:1"
     id="g58">
</g><g
     style="fill:#aaaabe;fill-opacity:1"
     id="g60">
</g><g
     style="fill:#aaaabe;fill-opacity:1"
     id="g62">
</g><g
     style="fill:#aaaabe;fill-opacity:1"
     id="g64">
</g><g
     style="fill:#aaaabe;fill-opacity:1"
     id="g66">
</g><g
     style="fill:#aaaabe;fill-opacity:1"
     id="g68">
</g><g
     style="fill:#aaaabe;fill-opacity:1"
     id="g70">
</g><g
     style="fill:#aaaabe;fill-opacity:1"
     id="g72">
</g></g>
</svg>