<svg xmlns:rdf="http://www.w3.org/1999/02/22-rdf-syntax-ns#" style="enable-background:new 0 0 512.002 512.002;" xmlns="http://www.w3.org/2000/svg" xml:space="preserve" height="100%" width="100%" version="1.1" y="0px" x="0px" xmlns:cc="http://creativecommons.org/ns#" xmlns:dc="http://purl.org/dc/elements/1.1/" viewBox="0 0 512.002 512.002">
<metadata>
<rdf:RDF>
<cc:Work rdf:about="">
<dc:format>image/svg+xml</dc:format>
<dc:type rdf:resource="http://purl.org/dc/dcmitype/StillImage"/>
<dc:title/>
</cc:Work>
</rdf:RDF>
</metadata>
<path fill="#aaaabe" d="M288.67,244.26l-20.719-12.722,5.866-23.595c0.717-2.884-0.336-5.92-2.686-7.739-2.35-1.82-5.553-2.081-8.165-0.665l-21.377,11.583-17.5-16.878c-2.139-2.063-5.294-2.668-8.046-1.543-2.75,1.125-4.578,3.768-4.658,6.739l-0.658,24.304-23.367,6.717c-2.856,0.821-4.958,3.251-5.359,6.196s0.974,5.849,3.507,7.403l20.719,12.722-5.866,23.595c-0.717,2.884,0.336,5.92,2.686,7.739,2.349,1.82,5.552,2.081,8.165,0.665l21.377-11.583,17.5,16.878c1.425,1.375,3.301,2.102,5.208,2.102,0.956,0,1.919-0.183,2.838-0.558,2.75-1.125,4.578-3.768,4.658-6.739l0.658-24.305,23.367-6.717c2.856-0.821,4.958-3.251,5.359-6.196,0.4-2.94-0.98-5.85-3.51-7.4zm-34.64,7.42c-3.142,0.903-5.336,3.737-5.425,7.005l-0.346,12.791-9.208-8.881c-1.433-1.382-3.311-2.102-5.208-2.102-1.219,0-2.447,0.297-3.571,0.906l-11.25,6.095,3.087-12.416c0.789-3.172-0.568-6.49-3.354-8.201l-10.903-6.694,12.296-3.535c3.142-0.903,5.336-3.737,5.425-7.005l0.346-12.79,9.209,8.881c2.354,2.27,5.906,2.752,8.779,1.196l11.249-6.095-3.087,12.416c-0.789,3.172,0.568,6.49,3.354,8.201l10.903,6.694-12.3,3.51z"/>
<path fill="#aaaabe" d="M168.41,211.04l-73.446-25.079c-3.92-1.339-8.183,0.754-9.521,4.674s0.754,8.182,4.674,9.521l73.446,25.079c0.803,0.274,1.621,0.404,2.424,0.404,3.12,0,6.033-1.961,7.097-5.078,1.34-3.91-0.75-8.18-4.67-9.51z"/>
<path fill="#aaaabe" d="M223.51,164.18l-27.7-95.169c-1.158-3.978-5.323-6.264-9.297-5.106-3.977,1.157-6.263,5.32-5.105,9.297l27.697,95.167c0.954,3.277,3.948,5.406,7.198,5.406,0.694,0,1.4-0.097,2.099-0.301,3.98-1.16,6.27-5.33,5.11-9.3z"/>
<path fill="#aaaabe" d="M354.57,92.46c-3.275-2.536-7.985-1.938-10.522,1.338l-63.808,82.392c-2.537,3.274-1.938,7.985,1.337,10.521,1.367,1.058,2.982,1.571,4.587,1.571,2.24,0,4.457-1,5.935-2.908l63.808-82.392c2.54-3.273,1.94-7.984-1.34-10.52z"/>
<path fill="#aaaabe" d="M271.46,89.829c-4.045-0.901-8.051,1.647-8.951,5.69l-19.257,86.473c-0.901,4.044,1.647,8.051,5.69,8.951,0.549,0.123,1.097,0.182,1.637,0.182,3.437,0,6.536-2.378,7.314-5.872l19.257-86.473c0.9-4.04-1.65-8.047-5.69-8.948z"/>
<path fill="#aaaabe" d="M193.94,184.31l-37.923-42.677c-2.751-3.096-7.491-3.376-10.588-0.625-3.096,2.751-3.376,7.492-0.625,10.588l37.923,42.678c1.482,1.668,3.541,2.518,5.609,2.518,1.771,0,3.55-0.625,4.979-1.894,3.1-2.76,3.38-7.5,0.63-10.59z"/>
<path fill="#aaaabe" d="M168.97,249.54c-0.326-4.13-3.934-7.21-8.067-6.887l-43.2,3.414c-4.129,0.326-7.212,3.938-6.886,8.067,0.31,3.928,3.594,6.91,7.468,6.91,0.198,0,0.398-0.008,0.599-0.024l43.2-3.413c4.13-0.33,7.21-3.94,6.89-8.07z"/>
<path fill="#aaaabe" d="M198.1,20.556c-0.792-6.235-3.966-11.789-8.936-15.638-10.259-7.945-25.068-6.062-33.015,4.196-7.945,10.261-6.062,25.071,4.197,33.017,4.166,3.227,9.176,4.931,14.361,4.931,1,0,2.007-0.063,3.015-0.192,6.235-0.792,11.789-3.966,15.638-8.936s5.54-11.142,4.74-17.378zm-16.6,8.193c-1.396,1.802-3.409,2.953-5.67,3.24-2.259,0.287-4.499-0.323-6.3-1.718-1.802-1.396-2.953-3.409-3.24-5.67-0.286-2.262,0.324-4.499,1.719-6.3,1.68-2.168,4.205-3.305,6.756-3.305,1.825,0,3.664,0.582,5.214,1.783,1.802,1.396,2.953,3.409,3.24,5.67,0.29,2.261-0.32,4.498-1.72,6.3z"/>
<path fill="#aaaabe" d="M69.058,174.1c-0.793-6.235-3.966-11.789-8.936-15.638s-11.141-5.533-17.376-4.739c-6.235,0.792-11.789,3.966-15.638,8.936s-5.532,11.141-4.739,17.376,3.966,11.789,8.936,15.638c4.166,3.227,9.176,4.931,14.361,4.931,1-0.001,2.007-0.064,3.015-0.192,6.235-0.792,11.789-3.966,15.638-8.936s5.532-11.15,4.739-17.38zm-16.598,8.19c-1.395,1.801-3.409,2.953-5.67,3.24-2.26,0.286-4.498-0.323-6.3-1.719-1.802-1.394-2.953-3.408-3.24-5.669-0.288-2.261,0.323-4.498,1.718-6.3,1.396-1.802,3.409-2.953,5.67-3.24,0.366-0.046,0.73-0.069,1.093-0.069,1.88,0,3.697,0.618,5.207,1.788,1.802,1.396,2.953,3.409,3.24,5.669,0.288,2.26-0.323,4.49-1.718,6.3z"/>
<path fill="#aaaabe" d="M393.84,41.755c-4.97-3.849-11.141-5.532-17.376-4.739-6.235,0.792-11.789,3.966-15.638,8.936s-5.532,11.141-4.739,17.376c0.792,6.237,3.965,11.791,8.935,15.639,4.279,3.313,9.348,4.917,14.383,4.917,7.035,0,14-3.134,18.631-9.114,7.95-10.258,6.07-25.069-4.19-33.015zm-7.66,23.833c-2.88,3.72-8.251,4.402-11.97,1.522-1.802-1.396-2.953-3.409-3.24-5.67-0.287-2.262,0.324-4.499,1.719-6.301,1.396-1.802,3.409-2.953,5.67-3.24,0.366-0.047,0.731-0.069,1.093-0.069,1.88,0,3.697,0.618,5.207,1.787,3.72,2.881,4.4,8.251,1.52,11.971z"/>
<path fill="#aaaabe" d="M329,367.2l-42.657-64.836c-2.277-3.46-6.928-4.419-10.388-2.143-3.46,2.277-4.42,6.927-2.144,10.388l42.657,64.836c1.441,2.19,3.833,3.378,6.272,3.378,1.415,0,2.845-0.4,4.115-1.235,3.46-2.29,4.41-6.94,2.14-10.4z"/>
<path fill="#aaaabe" d="M417,240.31l-99.069-3.008c-4.148-0.113-7.598,3.128-7.724,7.269-0.125,4.141,3.129,7.599,7.269,7.725l99.069,3.008c0.078,0.002,0.155,0.004,0.232,0.004,4.037,0,7.369-3.21,7.492-7.272,0.12-4.15-3.13-7.61-7.27-7.73z"/>
<path fill="#aaaabe" d="M377.91,172.27c-1.884-3.689-6.401-5.153-10.09-3.27l-78.905,40.279c-3.689,1.883-5.153,6.401-3.27,10.09,1.326,2.597,3.957,4.092,6.686,4.092,1.147,0,2.312-0.264,3.404-0.822l78.905-40.279c3.69-1.88,5.16-6.4,3.27-10.09z"/>
<path fill="#aaaabe" d="M356.64,297l-50.807-26.039c-3.686-1.889-8.205-0.433-10.095,3.253-1.889,3.687-0.433,8.206,3.253,10.096l50.807,26.039c1.095,0.562,2.264,0.827,3.415,0.827,2.724,0,5.352-1.489,6.68-4.08,1.88-3.69,0.43-8.2-3.26-10.1z"/>
<path fill="#aaaabe" d="M265.11,360.23l-7.503-42.681c-0.717-4.08-4.608-6.805-8.685-6.088-4.08,0.717-6.806,4.606-6.088,8.685l7.503,42.681c0.64,3.641,3.805,6.203,7.378,6.203,0.431,0,0.868-0.038,1.307-0.115,4.08-0.7,6.81-4.59,6.09-8.67z"/>
<path fill="#aaaabe" d="M480.71,230.7c-4.97-3.849-11.141-5.532-17.376-4.739-6.235,0.792-11.789,3.966-15.638,8.936s-5.532,11.141-4.739,17.376c0.792,6.236,3.966,11.79,8.936,15.638,4.166,3.227,9.176,4.931,14.361,4.931,1,0,2.007-0.063,3.016-0.191,6.235-0.793,11.789-3.966,15.638-8.936,7.94-10.26,6.06-25.07-4.2-33.02zm-7.66,23.83c-1.396,1.802-3.409,2.952-5.67,3.24-2.26,0.287-4.498-0.323-6.3-1.718-1.802-1.396-2.953-3.409-3.24-5.67-0.288-2.261,0.323-4.499,1.718-6.3,1.396-1.802,3.409-2.953,5.67-3.24,0.366-0.047,0.731-0.069,1.093-0.069,1.88,0,3.697,0.618,5.207,1.787,3.71,2.88,4.4,8.25,1.52,11.97z"/>
<path fill="#aaaabe" d="M364.34,394.06c-10.259-7.945-25.069-6.063-33.015,4.196-7.945,10.259-6.063,25.069,4.196,33.015,4.166,3.227,9.176,4.931,14.361,4.931,1,0,2.007-0.063,3.016-0.192,6.235-0.792,11.789-3.966,15.638-8.936,7.94-10.27,6.06-25.08-4.2-33.02zm-7.66,23.83c-1.396,1.802-3.409,2.953-5.67,3.24-2.259,0.287-4.499-0.323-6.3-1.718-3.72-2.88-4.402-8.25-1.521-11.97,1.396-1.802,3.409-2.952,5.67-3.24,2.262-0.289,4.499,0.323,6.3,1.718,3.72,2.88,4.4,8.25,1.52,11.97z"/>
<path fill="#aaaabe" d="M186,298.7c-2.977-2.882-7.724-2.805-10.605,0.17-3.729,3.85-91.78,95.526-132.94,202.94-1.482,3.868,0.452,8.205,4.32,9.687,0.883,0.338,1.79,0.499,2.682,0.499,3.017,0,5.861-1.833,7.005-4.818,40.038-104.49,128.82-196.95,129.71-197.87,2.87-2.98,2.79-7.73-0.18-10.61z"/>
</svg>